G75*
%MOIN*%
%OFA0B0*%
%FSLAX25Y25*%
%IPPOS*%
%LPD*%
%AMOC8*
5,1,8,0,0,1.08239X$1,22.5*
%
%ADD10C,0.07400*%
%ADD11C,0.05937*%
%ADD12OC8,0.06300*%
%ADD13C,0.06000*%
%ADD14OC8,0.05200*%
%ADD15OC8,0.06000*%
%ADD16C,0.05906*%
%ADD17C,0.02000*%
%ADD18C,0.04000*%
D10*
X0054000Y0083000D03*
X0054000Y0093000D03*
X0054000Y0103000D03*
X0054000Y0113000D03*
X0054000Y0123000D03*
X0054000Y0133000D03*
X0094000Y0133000D03*
X0094000Y0123000D03*
X0094000Y0113000D03*
X0094000Y0103000D03*
X0094000Y0093000D03*
X0094000Y0083000D03*
X0144000Y0083000D03*
X0154000Y0083000D03*
X0164000Y0083000D03*
X0174000Y0083000D03*
X0184000Y0083000D03*
X0194000Y0083000D03*
X0194000Y0123000D03*
X0184000Y0123000D03*
X0174000Y0123000D03*
X0164000Y0123000D03*
X0154000Y0123000D03*
X0144000Y0123000D03*
X0259000Y0123000D03*
X0269000Y0123000D03*
X0279000Y0123000D03*
X0289000Y0123000D03*
X0299000Y0123000D03*
X0309000Y0123000D03*
X0309000Y0083000D03*
X0299000Y0083000D03*
X0289000Y0083000D03*
X0279000Y0083000D03*
X0269000Y0083000D03*
X0259000Y0083000D03*
D11*
X0259000Y0055969D02*
X0259000Y0050031D01*
X0249000Y0050031D02*
X0249000Y0055969D01*
X0269000Y0055969D02*
X0269000Y0050031D01*
X0279000Y0050031D02*
X0279000Y0055969D01*
X0299000Y0055969D02*
X0299000Y0050031D01*
X0309000Y0050031D02*
X0309000Y0055969D01*
X0319000Y0055969D02*
X0319000Y0050031D01*
X0329000Y0050031D02*
X0329000Y0055969D01*
X0214000Y0055969D02*
X0214000Y0050031D01*
X0204000Y0050031D02*
X0204000Y0055969D01*
X0194000Y0055969D02*
X0194000Y0050031D01*
X0184000Y0050031D02*
X0184000Y0055969D01*
X0164000Y0055969D02*
X0164000Y0050031D01*
X0154000Y0050031D02*
X0154000Y0055969D01*
X0144000Y0055969D02*
X0144000Y0050031D01*
X0134000Y0050031D02*
X0134000Y0055969D01*
X0049000Y0025969D02*
X0049000Y0020031D01*
X0039000Y0020031D02*
X0039000Y0025969D01*
X0026969Y0138000D02*
X0021031Y0138000D01*
X0021031Y0148000D02*
X0026969Y0148000D01*
X0026969Y0158000D02*
X0021031Y0158000D01*
X0021031Y0168000D02*
X0026969Y0168000D01*
X0026969Y0183000D02*
X0021031Y0183000D01*
X0021031Y0193000D02*
X0026969Y0193000D01*
X0259000Y0215031D02*
X0259000Y0220969D01*
X0269000Y0220969D02*
X0269000Y0215031D01*
X0284000Y0215031D02*
X0284000Y0220969D01*
X0294000Y0220969D02*
X0294000Y0215031D01*
X0309000Y0215031D02*
X0309000Y0220969D01*
X0319000Y0220969D02*
X0319000Y0215031D01*
X0334000Y0215031D02*
X0334000Y0220969D01*
X0344000Y0220969D02*
X0344000Y0215031D01*
D12*
X0074000Y0048000D03*
X0074000Y0028000D03*
X0014000Y0028000D03*
X0014000Y0048000D03*
D13*
X0034000Y0045000D02*
X0034000Y0051000D01*
X0044000Y0051000D02*
X0044000Y0045000D01*
X0054000Y0045000D02*
X0054000Y0051000D01*
X0054000Y0235000D02*
X0054000Y0241000D01*
X0044000Y0241000D02*
X0044000Y0235000D01*
X0034000Y0235000D02*
X0034000Y0241000D01*
X0064000Y0241000D02*
X0064000Y0235000D01*
X0074000Y0235000D02*
X0074000Y0241000D01*
D14*
X0244000Y0183000D03*
X0244000Y0168000D03*
X0304000Y0168000D03*
X0304000Y0183000D03*
X0319000Y0198000D03*
X0334000Y0198000D03*
X0334000Y0138000D03*
X0319000Y0138000D03*
D15*
X0224000Y0208000D03*
X0214000Y0208000D03*
X0204000Y0208000D03*
X0194000Y0208000D03*
X0184000Y0208000D03*
X0174000Y0208000D03*
X0164000Y0208000D03*
X0154000Y0208000D03*
X0144000Y0208000D03*
X0134000Y0208000D03*
X0124000Y0208000D03*
X0114000Y0208000D03*
X0104000Y0208000D03*
X0094000Y0208000D03*
X0084000Y0208000D03*
X0074000Y0208000D03*
X0064000Y0208000D03*
X0054000Y0208000D03*
X0044000Y0208000D03*
X0034000Y0208000D03*
X0034000Y0218000D03*
X0044000Y0218000D03*
X0054000Y0218000D03*
X0064000Y0218000D03*
X0074000Y0218000D03*
X0084000Y0218000D03*
X0094000Y0218000D03*
X0104000Y0218000D03*
X0114000Y0218000D03*
X0124000Y0218000D03*
X0134000Y0218000D03*
X0144000Y0218000D03*
X0154000Y0218000D03*
X0164000Y0218000D03*
X0174000Y0218000D03*
X0184000Y0218000D03*
X0194000Y0218000D03*
X0204000Y0218000D03*
X0214000Y0218000D03*
X0224000Y0218000D03*
D16*
X0204000Y0228000D03*
X0184000Y0228000D03*
X0134000Y0233000D03*
X0114000Y0233000D03*
X0104000Y0233000D03*
X0074000Y0193000D03*
X0154000Y0193000D03*
X0174000Y0193000D03*
X0184000Y0193000D03*
X0204000Y0193000D03*
X0214000Y0193000D03*
X0224000Y0193000D03*
X0269000Y0148000D03*
X0259000Y0143000D03*
X0299000Y0153000D03*
X0309000Y0158000D03*
X0084000Y0093000D03*
X0079000Y0083000D03*
X0069000Y0103000D03*
D17*
X0009000Y0025717D02*
X0009000Y0018000D01*
X0034459Y0018000D01*
X0034396Y0018124D01*
X0034154Y0018868D01*
X0034031Y0019640D01*
X0034031Y0023000D01*
X0039000Y0023000D01*
X0039000Y0023000D01*
X0039000Y0030937D01*
X0039391Y0030937D01*
X0040163Y0030815D01*
X0040907Y0030573D01*
X0041604Y0030218D01*
X0042237Y0029758D01*
X0042790Y0029205D01*
X0043249Y0028573D01*
X0043604Y0027876D01*
X0043846Y0027132D01*
X0043968Y0026360D01*
X0043968Y0023000D01*
X0039000Y0023000D01*
X0039000Y0023000D01*
X0039000Y0023000D01*
X0034031Y0023000D01*
X0034031Y0026360D01*
X0034154Y0027132D01*
X0034396Y0027876D01*
X0034751Y0028573D01*
X0035210Y0029205D01*
X0035763Y0029758D01*
X0036396Y0030218D01*
X0037093Y0030573D01*
X0037837Y0030815D01*
X0038609Y0030937D01*
X0039000Y0030937D01*
X0039000Y0023000D01*
X0043968Y0023000D01*
X0043968Y0019640D01*
X0043846Y0018868D01*
X0043604Y0018124D01*
X0043541Y0018000D01*
X0044897Y0018000D01*
X0044431Y0019123D01*
X0044431Y0026877D01*
X0045021Y0028302D01*
X0032809Y0040515D01*
X0031394Y0041100D01*
X0030100Y0042394D01*
X0029400Y0044085D01*
X0029400Y0045400D01*
X0018118Y0045400D01*
X0015968Y0043250D01*
X0012032Y0043250D01*
X0009250Y0046032D01*
X0009250Y0049968D01*
X0012032Y0052750D01*
X0015968Y0052750D01*
X0018118Y0050600D01*
X0029400Y0050600D01*
X0029400Y0051915D01*
X0030100Y0053606D01*
X0031394Y0054900D01*
X0033085Y0055600D01*
X0034915Y0055600D01*
X0036606Y0054900D01*
X0037900Y0053606D01*
X0038600Y0051915D01*
X0038600Y0044085D01*
X0038012Y0042665D01*
X0050303Y0030374D01*
X0051588Y0029841D01*
X0052873Y0028556D01*
X0053568Y0026877D01*
X0053568Y0019123D01*
X0053103Y0018000D01*
X0353331Y0018000D01*
X0353331Y0244220D01*
X0331456Y0244220D01*
X0345473Y0230204D01*
X0345473Y0230204D01*
X0346204Y0229473D01*
X0346600Y0228517D01*
X0346600Y0224829D01*
X0347873Y0223556D01*
X0348568Y0221877D01*
X0348568Y0214123D01*
X0347873Y0212444D01*
X0346600Y0211171D01*
X0346600Y0202483D01*
X0346204Y0201527D01*
X0345473Y0200796D01*
X0341204Y0196527D01*
X0340473Y0195796D01*
X0339517Y0195400D01*
X0337340Y0195400D01*
X0335740Y0193800D01*
X0332260Y0193800D01*
X0329800Y0196260D01*
X0329800Y0199740D01*
X0332260Y0202200D01*
X0335740Y0202200D01*
X0337340Y0200600D01*
X0337923Y0200600D01*
X0341400Y0204077D01*
X0341400Y0211171D01*
X0340127Y0212444D01*
X0339431Y0214123D01*
X0339431Y0221877D01*
X0340127Y0223556D01*
X0341400Y0224829D01*
X0341400Y0226923D01*
X0327923Y0240400D01*
X0310000Y0240400D01*
X0310473Y0240204D01*
X0311204Y0239473D01*
X0311204Y0239473D01*
X0320473Y0230204D01*
X0320473Y0230204D01*
X0321204Y0229473D01*
X0321600Y0228517D01*
X0321600Y0224829D01*
X0322873Y0223556D01*
X0323568Y0221877D01*
X0323568Y0214123D01*
X0322873Y0212444D01*
X0321600Y0211171D01*
X0321600Y0201340D01*
X0323200Y0199740D01*
X0323200Y0196260D01*
X0320740Y0193800D01*
X0317260Y0193800D01*
X0314800Y0196260D01*
X0314800Y0199740D01*
X0316400Y0201340D01*
X0316400Y0211171D01*
X0315127Y0212444D01*
X0314431Y0214123D01*
X0314431Y0221877D01*
X0315127Y0223556D01*
X0316400Y0224829D01*
X0316400Y0226923D01*
X0307923Y0235400D01*
X0285000Y0235400D01*
X0285473Y0235204D01*
X0286204Y0234473D01*
X0295303Y0225374D01*
X0296588Y0224841D01*
X0297873Y0223556D01*
X0298568Y0221877D01*
X0298568Y0214123D01*
X0297873Y0212444D01*
X0296600Y0211171D01*
X0296600Y0207483D01*
X0296204Y0206527D01*
X0256204Y0166527D01*
X0255473Y0165796D01*
X0254517Y0165400D01*
X0247340Y0165400D01*
X0245740Y0163800D01*
X0242260Y0163800D01*
X0239800Y0166260D01*
X0239800Y0169740D01*
X0242260Y0172200D01*
X0245740Y0172200D01*
X0247340Y0170600D01*
X0252923Y0170600D01*
X0291400Y0209077D01*
X0291400Y0211171D01*
X0290127Y0212444D01*
X0289431Y0214123D01*
X0289431Y0221877D01*
X0290021Y0223302D01*
X0282923Y0230400D01*
X0265000Y0230400D01*
X0265473Y0230204D01*
X0266204Y0229473D01*
X0270303Y0225374D01*
X0271588Y0224841D01*
X0272873Y0223556D01*
X0273568Y0221877D01*
X0273568Y0214123D01*
X0272873Y0212444D01*
X0271588Y0211159D01*
X0270303Y0210626D01*
X0246600Y0186923D01*
X0246600Y0186340D01*
X0248200Y0184740D01*
X0248200Y0181260D01*
X0245740Y0178800D01*
X0242260Y0178800D01*
X0239800Y0181260D01*
X0239800Y0184740D01*
X0241400Y0186340D01*
X0241400Y0188517D01*
X0241796Y0189473D01*
X0242527Y0190204D01*
X0265021Y0212698D01*
X0264431Y0214123D01*
X0264431Y0221877D01*
X0265021Y0223302D01*
X0262923Y0225400D01*
X0261247Y0225400D01*
X0261604Y0225218D01*
X0262237Y0224758D01*
X0262790Y0224205D01*
X0263249Y0223573D01*
X0263604Y0222876D01*
X0263846Y0222132D01*
X0263968Y0221360D01*
X0263968Y0218000D01*
X0259000Y0218000D01*
X0259000Y0218000D01*
X0263968Y0218000D01*
X0263968Y0214640D01*
X0263846Y0213868D01*
X0263604Y0213124D01*
X0263249Y0212427D01*
X0262790Y0211795D01*
X0262237Y0211242D01*
X0261604Y0210782D01*
X0260907Y0210427D01*
X0260163Y0210185D01*
X0259391Y0210063D01*
X0259000Y0210063D01*
X0259000Y0218000D01*
X0259000Y0218000D01*
X0259000Y0218000D01*
X0254031Y0218000D01*
X0254031Y0214640D01*
X0254154Y0213868D01*
X0254396Y0213124D01*
X0254751Y0212427D01*
X0255210Y0211795D01*
X0255763Y0211242D01*
X0256396Y0210782D01*
X0257093Y0210427D01*
X0257837Y0210185D01*
X0258609Y0210063D01*
X0259000Y0210063D01*
X0259000Y0218000D01*
X0254031Y0218000D01*
X0254031Y0221360D01*
X0254154Y0222132D01*
X0254396Y0222876D01*
X0254751Y0223573D01*
X0255210Y0224205D01*
X0255763Y0224758D01*
X0256396Y0225218D01*
X0256753Y0225400D01*
X0207839Y0225400D01*
X0206579Y0224140D01*
X0204906Y0223447D01*
X0203094Y0223447D01*
X0201421Y0224140D01*
X0200140Y0225421D01*
X0199447Y0227094D01*
X0199447Y0228906D01*
X0200066Y0230400D01*
X0137839Y0230400D01*
X0136579Y0229140D01*
X0134906Y0228447D01*
X0133094Y0228447D01*
X0131421Y0229140D01*
X0130140Y0230421D01*
X0129447Y0232094D01*
X0129447Y0233906D01*
X0130066Y0235400D01*
X0120077Y0235400D01*
X0118553Y0233876D01*
X0118553Y0232094D01*
X0117860Y0230421D01*
X0116579Y0229140D01*
X0114906Y0228447D01*
X0113094Y0228447D01*
X0111421Y0229140D01*
X0110140Y0230421D01*
X0109447Y0232094D01*
X0109447Y0233906D01*
X0110059Y0235382D01*
X0108553Y0233876D01*
X0108553Y0232094D01*
X0107860Y0230421D01*
X0106579Y0229140D01*
X0104906Y0228447D01*
X0103094Y0228447D01*
X0101421Y0229140D01*
X0100140Y0230421D01*
X0099447Y0232094D01*
X0099447Y0233906D01*
X0100140Y0235579D01*
X0101421Y0236860D01*
X0103094Y0237553D01*
X0104876Y0237553D01*
X0111544Y0244220D01*
X0077285Y0244220D01*
X0077900Y0243606D01*
X0078600Y0241915D01*
X0078600Y0234085D01*
X0077900Y0232394D01*
X0076606Y0231100D01*
X0074915Y0230400D01*
X0073085Y0230400D01*
X0071394Y0231100D01*
X0070100Y0232394D01*
X0069400Y0234085D01*
X0069400Y0241915D01*
X0070100Y0243606D01*
X0070715Y0244220D01*
X0067285Y0244220D01*
X0067900Y0243606D01*
X0068600Y0241915D01*
X0068600Y0234085D01*
X0067900Y0232394D01*
X0067600Y0232095D01*
X0067600Y0227284D01*
X0067052Y0225961D01*
X0066039Y0224948D01*
X0064716Y0224400D01*
X0027600Y0224400D01*
X0027600Y0221459D01*
X0029292Y0219767D01*
X0029400Y0219506D01*
X0029400Y0219905D01*
X0032095Y0222600D01*
X0035905Y0222600D01*
X0038600Y0219905D01*
X0038600Y0216095D01*
X0035905Y0213400D01*
X0032095Y0213400D01*
X0029840Y0215654D01*
X0029840Y0210346D01*
X0032095Y0212600D01*
X0035905Y0212600D01*
X0038600Y0209905D01*
X0038600Y0206095D01*
X0035905Y0203400D01*
X0032095Y0203400D01*
X0029400Y0206095D01*
X0029400Y0206494D01*
X0029292Y0206233D01*
X0028279Y0205220D01*
X0028279Y0205220D01*
X0027600Y0204541D01*
X0027600Y0197568D01*
X0027877Y0197568D01*
X0029556Y0196873D01*
X0030841Y0195588D01*
X0031537Y0193909D01*
X0031537Y0192091D01*
X0030841Y0190412D01*
X0029556Y0189127D01*
X0027877Y0188431D01*
X0020123Y0188431D01*
X0018444Y0189127D01*
X0017159Y0190412D01*
X0016463Y0192091D01*
X0016463Y0193909D01*
X0017159Y0195588D01*
X0018444Y0196873D01*
X0020123Y0197568D01*
X0020400Y0197568D01*
X0020400Y0204193D01*
X0018846Y0203296D01*
X0016198Y0202587D01*
X0013456Y0202587D01*
X0010807Y0203296D01*
X0009000Y0204340D01*
X0009000Y0156677D01*
X0011796Y0159473D01*
X0012527Y0160204D01*
X0013483Y0160600D01*
X0017171Y0160600D01*
X0018444Y0161873D01*
X0020123Y0162568D01*
X0027877Y0162568D01*
X0029556Y0161873D01*
X0030841Y0160588D01*
X0031537Y0158909D01*
X0031537Y0157091D01*
X0030841Y0155412D01*
X0029556Y0154127D01*
X0027877Y0153431D01*
X0020123Y0153431D01*
X0018444Y0154127D01*
X0017171Y0155400D01*
X0015077Y0155400D01*
X0011600Y0151923D01*
X0011600Y0084077D01*
X0025077Y0070600D01*
X0061400Y0070600D01*
X0061400Y0100400D01*
X0058660Y0100400D01*
X0058493Y0099998D01*
X0057002Y0098507D01*
X0055778Y0098000D01*
X0057002Y0097493D01*
X0058493Y0096002D01*
X0059300Y0094054D01*
X0059300Y0091946D01*
X0058493Y0089998D01*
X0057002Y0088507D01*
X0055778Y0088000D01*
X0057002Y0087493D01*
X0058493Y0086002D01*
X0059300Y0084054D01*
X0059300Y0081946D01*
X0058493Y0079998D01*
X0057002Y0078507D01*
X0055054Y0077700D01*
X0052946Y0077700D01*
X0050998Y0078507D01*
X0049507Y0079998D01*
X0049340Y0080400D01*
X0023483Y0080400D01*
X0022527Y0080796D01*
X0021796Y0081527D01*
X0021400Y0082483D01*
X0021400Y0133431D01*
X0020123Y0133431D01*
X0018444Y0134127D01*
X0017159Y0135412D01*
X0016463Y0137091D01*
X0016463Y0138909D01*
X0017159Y0140588D01*
X0018444Y0141873D01*
X0020123Y0142568D01*
X0027877Y0142568D01*
X0029556Y0141873D01*
X0030841Y0140588D01*
X0031537Y0138909D01*
X0031537Y0137091D01*
X0030841Y0135412D01*
X0029556Y0134127D01*
X0027877Y0133431D01*
X0026600Y0133431D01*
X0026600Y0085600D01*
X0049340Y0085600D01*
X0049507Y0086002D01*
X0050998Y0087493D01*
X0052222Y0088000D01*
X0050998Y0088507D01*
X0049507Y0089998D01*
X0049340Y0090400D01*
X0043483Y0090400D01*
X0042527Y0090796D01*
X0041796Y0091527D01*
X0041400Y0092483D01*
X0041400Y0145400D01*
X0030829Y0145400D01*
X0029556Y0144127D01*
X0027877Y0143431D01*
X0020123Y0143431D01*
X0018444Y0144127D01*
X0017159Y0145412D01*
X0016463Y0147091D01*
X0016463Y0148909D01*
X0017159Y0150588D01*
X0018444Y0151873D01*
X0020123Y0152568D01*
X0027877Y0152568D01*
X0029556Y0151873D01*
X0030829Y0150600D01*
X0044517Y0150600D01*
X0045473Y0150204D01*
X0046204Y0149473D01*
X0046600Y0148517D01*
X0046600Y0095600D01*
X0049340Y0095600D01*
X0049507Y0096002D01*
X0050998Y0097493D01*
X0052222Y0098000D01*
X0050998Y0098507D01*
X0049507Y0099998D01*
X0048700Y0101946D01*
X0048700Y0104054D01*
X0049507Y0106002D01*
X0050998Y0107493D01*
X0051690Y0107780D01*
X0051013Y0108125D01*
X0050287Y0108652D01*
X0049652Y0109287D01*
X0049125Y0110013D01*
X0048718Y0110812D01*
X0048440Y0111665D01*
X0048300Y0112551D01*
X0048300Y0113000D01*
X0054000Y0113000D01*
X0059700Y0113000D01*
X0059700Y0113449D01*
X0059560Y0114335D01*
X0059282Y0115188D01*
X0058875Y0115987D01*
X0058348Y0116713D01*
X0057713Y0117348D01*
X0056987Y0117875D01*
X0056310Y0118220D01*
X0057002Y0118507D01*
X0058493Y0119998D01*
X0059300Y0121946D01*
X0059300Y0124054D01*
X0058493Y0126002D01*
X0057002Y0127493D01*
X0055778Y0128000D01*
X0057002Y0128507D01*
X0058493Y0129998D01*
X0059300Y0131946D01*
X0059300Y0134054D01*
X0058493Y0136002D01*
X0057002Y0137493D01*
X0055054Y0138300D01*
X0052946Y0138300D01*
X0050998Y0137493D01*
X0049507Y0136002D01*
X0048700Y0134054D01*
X0048700Y0131946D01*
X0049507Y0129998D01*
X0050998Y0128507D01*
X0052222Y0128000D01*
X0050998Y0127493D01*
X0049507Y0126002D01*
X0048700Y0124054D01*
X0048700Y0121946D01*
X0049507Y0119998D01*
X0050998Y0118507D01*
X0051690Y0118220D01*
X0051013Y0117875D01*
X0050287Y0117348D01*
X0049652Y0116713D01*
X0049125Y0115987D01*
X0048718Y0115188D01*
X0048440Y0114335D01*
X0048300Y0113449D01*
X0048300Y0113000D01*
X0054000Y0113000D01*
X0054000Y0113000D01*
X0054000Y0113000D01*
X0059700Y0113000D01*
X0059700Y0112551D01*
X0059560Y0111665D01*
X0059282Y0110812D01*
X0058875Y0110013D01*
X0058348Y0109287D01*
X0057713Y0108652D01*
X0056987Y0108125D01*
X0056310Y0107780D01*
X0057002Y0107493D01*
X0058493Y0106002D01*
X0058660Y0105600D01*
X0064517Y0105600D01*
X0065057Y0105377D01*
X0065140Y0105579D01*
X0066421Y0106860D01*
X0068094Y0107553D01*
X0069906Y0107553D01*
X0071579Y0106860D01*
X0072839Y0105600D01*
X0089340Y0105600D01*
X0089507Y0106002D01*
X0090998Y0107493D01*
X0091690Y0107780D01*
X0091013Y0108125D01*
X0090287Y0108652D01*
X0089652Y0109287D01*
X0089125Y0110013D01*
X0088718Y0110812D01*
X0088440Y0111665D01*
X0088300Y0112551D01*
X0088300Y0113000D01*
X0094000Y0113000D01*
X0099700Y0113000D01*
X0099700Y0113449D01*
X0099560Y0114335D01*
X0099282Y0115188D01*
X0098875Y0115987D01*
X0098348Y0116713D01*
X0097713Y0117348D01*
X0096987Y0117875D01*
X0096310Y0118220D01*
X0097002Y0118507D01*
X0098493Y0119998D01*
X0099300Y0121946D01*
X0099300Y0124054D01*
X0098493Y0126002D01*
X0097002Y0127493D01*
X0095778Y0128000D01*
X0097002Y0128507D01*
X0098493Y0129998D01*
X0099300Y0131946D01*
X0099300Y0134054D01*
X0098493Y0136002D01*
X0097002Y0137493D01*
X0095054Y0138300D01*
X0092946Y0138300D01*
X0090998Y0137493D01*
X0089507Y0136002D01*
X0088700Y0134054D01*
X0088700Y0131946D01*
X0089507Y0129998D01*
X0090998Y0128507D01*
X0092222Y0128000D01*
X0090998Y0127493D01*
X0089507Y0126002D01*
X0088700Y0124054D01*
X0088700Y0121946D01*
X0089507Y0119998D01*
X0090998Y0118507D01*
X0091690Y0118220D01*
X0091013Y0117875D01*
X0090287Y0117348D01*
X0089652Y0116713D01*
X0089125Y0115987D01*
X0088718Y0115188D01*
X0088440Y0114335D01*
X0088300Y0113449D01*
X0088300Y0113000D01*
X0094000Y0113000D01*
X0094000Y0113000D01*
X0094000Y0113000D01*
X0099700Y0113000D01*
X0099700Y0112551D01*
X0099560Y0111665D01*
X0099282Y0110812D01*
X0098875Y0110013D01*
X0098348Y0109287D01*
X0097713Y0108652D01*
X0096987Y0108125D01*
X0096310Y0107780D01*
X0097002Y0107493D01*
X0098493Y0106002D01*
X0098660Y0105600D01*
X0171400Y0105600D01*
X0171400Y0118340D01*
X0170998Y0118507D01*
X0169507Y0119998D01*
X0169220Y0120690D01*
X0168875Y0120013D01*
X0168348Y0119287D01*
X0167713Y0118652D01*
X0166987Y0118125D01*
X0166188Y0117718D01*
X0165335Y0117440D01*
X0164449Y0117300D01*
X0164000Y0117300D01*
X0164000Y0123000D01*
X0164000Y0123000D01*
X0164000Y0128700D01*
X0164449Y0128700D01*
X0165335Y0128560D01*
X0166188Y0128282D01*
X0166987Y0127875D01*
X0167713Y0127348D01*
X0168348Y0126713D01*
X0168875Y0125987D01*
X0169220Y0125310D01*
X0169507Y0126002D01*
X0170998Y0127493D01*
X0172946Y0128300D01*
X0175054Y0128300D01*
X0177002Y0127493D01*
X0178493Y0126002D01*
X0179000Y0124778D01*
X0179507Y0126002D01*
X0180998Y0127493D01*
X0182946Y0128300D01*
X0185054Y0128300D01*
X0185456Y0128133D01*
X0201400Y0144077D01*
X0201400Y0189161D01*
X0200140Y0190421D01*
X0199447Y0192094D01*
X0199447Y0193906D01*
X0200140Y0195579D01*
X0201421Y0196860D01*
X0203094Y0197553D01*
X0204906Y0197553D01*
X0206579Y0196860D01*
X0207860Y0195579D01*
X0208553Y0193906D01*
X0208553Y0192094D01*
X0207860Y0190421D01*
X0206600Y0189161D01*
X0206600Y0142483D01*
X0206204Y0141527D01*
X0205473Y0140796D01*
X0192977Y0128300D01*
X0195054Y0128300D01*
X0197002Y0127493D01*
X0198493Y0126002D01*
X0198660Y0125600D01*
X0211400Y0125600D01*
X0211400Y0189161D01*
X0210140Y0190421D01*
X0209447Y0192094D01*
X0209447Y0193906D01*
X0210140Y0195579D01*
X0211421Y0196860D01*
X0213094Y0197553D01*
X0214906Y0197553D01*
X0216579Y0196860D01*
X0217860Y0195579D01*
X0218553Y0193906D01*
X0218553Y0192094D01*
X0217860Y0190421D01*
X0216600Y0189161D01*
X0216600Y0122483D01*
X0216204Y0121527D01*
X0215473Y0120796D01*
X0214517Y0120400D01*
X0198660Y0120400D01*
X0198493Y0119998D01*
X0197002Y0118507D01*
X0195054Y0117700D01*
X0192946Y0117700D01*
X0190998Y0118507D01*
X0189507Y0119998D01*
X0189000Y0121222D01*
X0188493Y0119998D01*
X0187002Y0118507D01*
X0185054Y0117700D01*
X0182946Y0117700D01*
X0180998Y0118507D01*
X0179507Y0119998D01*
X0179000Y0121222D01*
X0178493Y0119998D01*
X0177002Y0118507D01*
X0176600Y0118340D01*
X0176600Y0105600D01*
X0286400Y0105600D01*
X0286400Y0118340D01*
X0285998Y0118507D01*
X0284507Y0119998D01*
X0284220Y0120690D01*
X0283875Y0120013D01*
X0283348Y0119287D01*
X0282713Y0118652D01*
X0281987Y0118125D01*
X0281188Y0117718D01*
X0280335Y0117440D01*
X0279449Y0117300D01*
X0279000Y0117300D01*
X0279000Y0123000D01*
X0279000Y0123000D01*
X0279000Y0128700D01*
X0279449Y0128700D01*
X0280335Y0128560D01*
X0281188Y0128282D01*
X0281987Y0127875D01*
X0282713Y0127348D01*
X0283348Y0126713D01*
X0283875Y0125987D01*
X0284220Y0125310D01*
X0284507Y0126002D01*
X0285998Y0127493D01*
X0287946Y0128300D01*
X0290054Y0128300D01*
X0292002Y0127493D01*
X0293493Y0126002D01*
X0294000Y0124778D01*
X0294507Y0126002D01*
X0295998Y0127493D01*
X0296400Y0127660D01*
X0296400Y0149161D01*
X0295140Y0150421D01*
X0294447Y0152094D01*
X0294447Y0153906D01*
X0295140Y0155579D01*
X0296421Y0156860D01*
X0298094Y0157553D01*
X0299906Y0157553D01*
X0301579Y0156860D01*
X0302860Y0155579D01*
X0303553Y0153906D01*
X0303553Y0152094D01*
X0302860Y0150421D01*
X0301600Y0149161D01*
X0301600Y0127660D01*
X0302002Y0127493D01*
X0303493Y0126002D01*
X0304000Y0124778D01*
X0304507Y0126002D01*
X0305998Y0127493D01*
X0306400Y0127660D01*
X0306400Y0154161D01*
X0305140Y0155421D01*
X0304447Y0157094D01*
X0304447Y0158906D01*
X0305140Y0160579D01*
X0306421Y0161860D01*
X0308094Y0162553D01*
X0309906Y0162553D01*
X0311579Y0161860D01*
X0312860Y0160579D01*
X0313553Y0158906D01*
X0313553Y0157094D01*
X0312860Y0155421D01*
X0311600Y0154161D01*
X0311600Y0127660D01*
X0312002Y0127493D01*
X0313493Y0126002D01*
X0314300Y0124054D01*
X0314300Y0121946D01*
X0313493Y0119998D01*
X0312002Y0118507D01*
X0310054Y0117700D01*
X0307946Y0117700D01*
X0305998Y0118507D01*
X0304507Y0119998D01*
X0304000Y0121222D01*
X0303493Y0119998D01*
X0302002Y0118507D01*
X0300054Y0117700D01*
X0297946Y0117700D01*
X0295998Y0118507D01*
X0294507Y0119998D01*
X0294000Y0121222D01*
X0293493Y0119998D01*
X0292002Y0118507D01*
X0291600Y0118340D01*
X0291600Y0102483D01*
X0291204Y0101527D01*
X0290473Y0100796D01*
X0289517Y0100400D01*
X0098660Y0100400D01*
X0098493Y0099998D01*
X0097002Y0098507D01*
X0095778Y0098000D01*
X0097002Y0097493D01*
X0098493Y0096002D01*
X0099300Y0094054D01*
X0099300Y0091946D01*
X0098493Y0089998D01*
X0097002Y0088507D01*
X0095778Y0088000D01*
X0097002Y0087493D01*
X0098493Y0086002D01*
X0099300Y0084054D01*
X0099300Y0081946D01*
X0098493Y0079998D01*
X0097002Y0078507D01*
X0095054Y0077700D01*
X0092946Y0077700D01*
X0090998Y0078507D01*
X0089507Y0079998D01*
X0089340Y0080400D01*
X0082839Y0080400D01*
X0081579Y0079140D01*
X0079906Y0078447D01*
X0078094Y0078447D01*
X0076421Y0079140D01*
X0075140Y0080421D01*
X0074447Y0082094D01*
X0074447Y0083906D01*
X0075140Y0085579D01*
X0076421Y0086860D01*
X0078094Y0087553D01*
X0079906Y0087553D01*
X0081579Y0086860D01*
X0082839Y0085600D01*
X0089340Y0085600D01*
X0089507Y0086002D01*
X0090998Y0087493D01*
X0092222Y0088000D01*
X0090998Y0088507D01*
X0089507Y0089998D01*
X0089340Y0090400D01*
X0087839Y0090400D01*
X0086579Y0089140D01*
X0084906Y0088447D01*
X0083094Y0088447D01*
X0081421Y0089140D01*
X0080140Y0090421D01*
X0079447Y0092094D01*
X0079447Y0093906D01*
X0080140Y0095579D01*
X0081421Y0096860D01*
X0083094Y0097553D01*
X0084906Y0097553D01*
X0086579Y0096860D01*
X0087839Y0095600D01*
X0089340Y0095600D01*
X0089507Y0096002D01*
X0090998Y0097493D01*
X0092222Y0098000D01*
X0090998Y0098507D01*
X0089507Y0099998D01*
X0089340Y0100400D01*
X0072839Y0100400D01*
X0071579Y0099140D01*
X0069906Y0098447D01*
X0068094Y0098447D01*
X0066600Y0099066D01*
X0066600Y0070600D01*
X0074517Y0070600D01*
X0075473Y0070204D01*
X0076204Y0069473D01*
X0076600Y0068517D01*
X0076600Y0052117D01*
X0078118Y0050600D01*
X0114517Y0050600D01*
X0115473Y0050204D01*
X0125077Y0040600D01*
X0151400Y0040600D01*
X0151400Y0046171D01*
X0150127Y0047444D01*
X0149431Y0049123D01*
X0149431Y0056877D01*
X0150127Y0058556D01*
X0151412Y0059841D01*
X0153091Y0060537D01*
X0154909Y0060537D01*
X0156588Y0059841D01*
X0157873Y0058556D01*
X0158568Y0056877D01*
X0158568Y0049123D01*
X0157873Y0047444D01*
X0156600Y0046171D01*
X0156600Y0040600D01*
X0171400Y0040600D01*
X0171400Y0078340D01*
X0170998Y0078507D01*
X0169507Y0079998D01*
X0169220Y0080690D01*
X0168875Y0080013D01*
X0168348Y0079287D01*
X0167713Y0078652D01*
X0166987Y0078125D01*
X0166188Y0077718D01*
X0165335Y0077440D01*
X0164449Y0077300D01*
X0164000Y0077300D01*
X0164000Y0083000D01*
X0164000Y0083000D01*
X0164000Y0088700D01*
X0164449Y0088700D01*
X0165335Y0088560D01*
X0166188Y0088282D01*
X0166987Y0087875D01*
X0167713Y0087348D01*
X0168348Y0086713D01*
X0168875Y0085987D01*
X0169220Y0085310D01*
X0169507Y0086002D01*
X0170998Y0087493D01*
X0172946Y0088300D01*
X0175054Y0088300D01*
X0177002Y0087493D01*
X0178493Y0086002D01*
X0179000Y0084778D01*
X0179507Y0086002D01*
X0180998Y0087493D01*
X0182946Y0088300D01*
X0185054Y0088300D01*
X0187002Y0087493D01*
X0188493Y0086002D01*
X0189000Y0084778D01*
X0189507Y0086002D01*
X0190998Y0087493D01*
X0192946Y0088300D01*
X0195054Y0088300D01*
X0197002Y0087493D01*
X0198493Y0086002D01*
X0199300Y0084054D01*
X0199300Y0081946D01*
X0198493Y0079998D01*
X0197002Y0078507D01*
X0196600Y0078340D01*
X0196600Y0059829D01*
X0197873Y0058556D01*
X0198568Y0056877D01*
X0198568Y0049123D01*
X0197873Y0047444D01*
X0196588Y0046159D01*
X0194909Y0045463D01*
X0193091Y0045463D01*
X0191412Y0046159D01*
X0190127Y0047444D01*
X0189431Y0049123D01*
X0189431Y0056877D01*
X0190127Y0058556D01*
X0191400Y0059829D01*
X0191400Y0078340D01*
X0190998Y0078507D01*
X0189507Y0079998D01*
X0189000Y0081222D01*
X0188493Y0079998D01*
X0187002Y0078507D01*
X0186600Y0078340D01*
X0186600Y0059829D01*
X0187873Y0058556D01*
X0188568Y0056877D01*
X0188568Y0049123D01*
X0187873Y0047444D01*
X0186588Y0046159D01*
X0184909Y0045463D01*
X0183091Y0045463D01*
X0181412Y0046159D01*
X0180127Y0047444D01*
X0179431Y0049123D01*
X0179431Y0056877D01*
X0180127Y0058556D01*
X0181400Y0059829D01*
X0181400Y0078340D01*
X0180998Y0078507D01*
X0179507Y0079998D01*
X0179000Y0081222D01*
X0178493Y0079998D01*
X0177002Y0078507D01*
X0176600Y0078340D01*
X0176600Y0040600D01*
X0201400Y0040600D01*
X0201400Y0046171D01*
X0200127Y0047444D01*
X0199431Y0049123D01*
X0199431Y0056877D01*
X0200127Y0058556D01*
X0201412Y0059841D01*
X0203091Y0060537D01*
X0204909Y0060537D01*
X0206588Y0059841D01*
X0207873Y0058556D01*
X0208568Y0056877D01*
X0208568Y0049123D01*
X0207873Y0047444D01*
X0206600Y0046171D01*
X0206600Y0040600D01*
X0266400Y0040600D01*
X0266400Y0046171D01*
X0265127Y0047444D01*
X0264431Y0049123D01*
X0264431Y0056877D01*
X0265127Y0058556D01*
X0266412Y0059841D01*
X0268091Y0060537D01*
X0269909Y0060537D01*
X0271588Y0059841D01*
X0272873Y0058556D01*
X0273568Y0056877D01*
X0273568Y0049123D01*
X0272873Y0047444D01*
X0271600Y0046171D01*
X0271600Y0040600D01*
X0286400Y0040600D01*
X0286400Y0078340D01*
X0285998Y0078507D01*
X0284507Y0079998D01*
X0284220Y0080690D01*
X0283875Y0080013D01*
X0283348Y0079287D01*
X0282713Y0078652D01*
X0281987Y0078125D01*
X0281188Y0077718D01*
X0280335Y0077440D01*
X0279449Y0077300D01*
X0279000Y0077300D01*
X0279000Y0083000D01*
X0279000Y0083000D01*
X0279000Y0088700D01*
X0279449Y0088700D01*
X0280335Y0088560D01*
X0281188Y0088282D01*
X0281987Y0087875D01*
X0282713Y0087348D01*
X0283348Y0086713D01*
X0283875Y0085987D01*
X0284220Y0085310D01*
X0284507Y0086002D01*
X0285998Y0087493D01*
X0286400Y0087660D01*
X0286400Y0088517D01*
X0286796Y0089473D01*
X0316400Y0119077D01*
X0316400Y0134660D01*
X0314800Y0136260D01*
X0314800Y0139740D01*
X0316400Y0141340D01*
X0316400Y0161923D01*
X0312923Y0165400D01*
X0307340Y0165400D01*
X0305740Y0163800D01*
X0302260Y0163800D01*
X0299800Y0166260D01*
X0299800Y0169740D01*
X0301400Y0171340D01*
X0301400Y0179660D01*
X0299800Y0181260D01*
X0299800Y0184740D01*
X0302260Y0187200D01*
X0305740Y0187200D01*
X0308200Y0184740D01*
X0308200Y0181260D01*
X0306600Y0179660D01*
X0306600Y0171340D01*
X0307340Y0170600D01*
X0314517Y0170600D01*
X0315473Y0170204D01*
X0320473Y0165204D01*
X0321204Y0164473D01*
X0321600Y0163517D01*
X0321600Y0141340D01*
X0322340Y0140600D01*
X0330660Y0140600D01*
X0332260Y0142200D01*
X0335740Y0142200D01*
X0338200Y0139740D01*
X0338200Y0136260D01*
X0335740Y0133800D01*
X0332260Y0133800D01*
X0330660Y0135400D01*
X0322340Y0135400D01*
X0321600Y0134660D01*
X0321600Y0117483D01*
X0321204Y0116527D01*
X0292086Y0087409D01*
X0293493Y0086002D01*
X0294000Y0084778D01*
X0294507Y0086002D01*
X0295998Y0087493D01*
X0297946Y0088300D01*
X0300054Y0088300D01*
X0302002Y0087493D01*
X0303493Y0086002D01*
X0304000Y0084778D01*
X0304507Y0086002D01*
X0305998Y0087493D01*
X0307946Y0088300D01*
X0310054Y0088300D01*
X0312002Y0087493D01*
X0313493Y0086002D01*
X0314300Y0084054D01*
X0314300Y0081946D01*
X0313493Y0079998D01*
X0312002Y0078507D01*
X0311600Y0078340D01*
X0311600Y0059829D01*
X0312873Y0058556D01*
X0313568Y0056877D01*
X0313568Y0049123D01*
X0312873Y0047444D01*
X0311588Y0046159D01*
X0309909Y0045463D01*
X0308091Y0045463D01*
X0306412Y0046159D01*
X0305127Y0047444D01*
X0304431Y0049123D01*
X0304431Y0056877D01*
X0305127Y0058556D01*
X0306400Y0059829D01*
X0306400Y0078340D01*
X0305998Y0078507D01*
X0304507Y0079998D01*
X0304000Y0081222D01*
X0303493Y0079998D01*
X0302002Y0078507D01*
X0301600Y0078340D01*
X0301600Y0059829D01*
X0302873Y0058556D01*
X0303568Y0056877D01*
X0303568Y0049123D01*
X0302873Y0047444D01*
X0301588Y0046159D01*
X0299909Y0045463D01*
X0298091Y0045463D01*
X0296412Y0046159D01*
X0295127Y0047444D01*
X0294431Y0049123D01*
X0294431Y0056877D01*
X0295127Y0058556D01*
X0296400Y0059829D01*
X0296400Y0078340D01*
X0295998Y0078507D01*
X0294507Y0079998D01*
X0294000Y0081222D01*
X0293493Y0079998D01*
X0292002Y0078507D01*
X0291600Y0078340D01*
X0291600Y0040600D01*
X0316400Y0040600D01*
X0316400Y0046171D01*
X0315127Y0047444D01*
X0314431Y0049123D01*
X0314431Y0056877D01*
X0315127Y0058556D01*
X0316412Y0059841D01*
X0318091Y0060537D01*
X0319909Y0060537D01*
X0321588Y0059841D01*
X0322873Y0058556D01*
X0323568Y0056877D01*
X0323568Y0049123D01*
X0322873Y0047444D01*
X0321600Y0046171D01*
X0321600Y0037483D01*
X0321204Y0036527D01*
X0320473Y0035796D01*
X0319517Y0035400D01*
X0123483Y0035400D01*
X0122527Y0035796D01*
X0121796Y0036527D01*
X0112923Y0045400D01*
X0078118Y0045400D01*
X0075968Y0043250D01*
X0072032Y0043250D01*
X0069882Y0045400D01*
X0058600Y0045400D01*
X0058600Y0044085D01*
X0057900Y0042394D01*
X0056606Y0041100D01*
X0054915Y0040400D01*
X0053085Y0040400D01*
X0051394Y0041100D01*
X0050100Y0042394D01*
X0049400Y0044085D01*
X0049400Y0051915D01*
X0050100Y0053606D01*
X0051394Y0054900D01*
X0053085Y0055600D01*
X0054915Y0055600D01*
X0056606Y0054900D01*
X0057900Y0053606D01*
X0058600Y0051915D01*
X0058600Y0050600D01*
X0069882Y0050600D01*
X0071400Y0052117D01*
X0071400Y0065400D01*
X0023483Y0065400D01*
X0022527Y0065796D01*
X0021796Y0066527D01*
X0009000Y0079323D01*
X0009000Y0030283D01*
X0011867Y0033150D01*
X0014000Y0033150D01*
X0014000Y0028000D01*
X0014000Y0028000D01*
X0019150Y0028000D01*
X0019150Y0030133D01*
X0016133Y0033150D01*
X0014000Y0033150D01*
X0014000Y0028000D01*
X0014000Y0028000D01*
X0019150Y0028000D01*
X0019150Y0025867D01*
X0016133Y0022850D01*
X0014000Y0022850D01*
X0014000Y0028000D01*
X0014000Y0028000D01*
X0014000Y0022850D01*
X0011867Y0022850D01*
X0009000Y0025717D01*
X0009000Y0024991D02*
X0009726Y0024991D01*
X0009000Y0022993D02*
X0011724Y0022993D01*
X0014000Y0022993D02*
X0014000Y0022993D01*
X0014000Y0024991D02*
X0014000Y0024991D01*
X0014000Y0026990D02*
X0014000Y0026990D01*
X0014000Y0028988D02*
X0014000Y0028988D01*
X0014000Y0030987D02*
X0014000Y0030987D01*
X0014000Y0032985D02*
X0014000Y0032985D01*
X0011702Y0032985D02*
X0009000Y0032985D01*
X0009000Y0030987D02*
X0009703Y0030987D01*
X0009000Y0034984D02*
X0038339Y0034984D01*
X0036341Y0036982D02*
X0009000Y0036982D01*
X0009000Y0038981D02*
X0034342Y0038981D01*
X0031687Y0040979D02*
X0009000Y0040979D01*
X0009000Y0042978D02*
X0029859Y0042978D01*
X0029400Y0044976D02*
X0017694Y0044976D01*
X0014000Y0048000D02*
X0034000Y0048000D01*
X0034000Y0043000D01*
X0049000Y0028000D01*
X0049000Y0023000D01*
X0053568Y0022993D02*
X0071724Y0022993D01*
X0071867Y0022850D02*
X0068850Y0025867D01*
X0068850Y0028000D01*
X0074000Y0028000D01*
X0074000Y0028000D01*
X0074000Y0033150D01*
X0076133Y0033150D01*
X0079150Y0030133D01*
X0079150Y0028000D01*
X0074000Y0028000D01*
X0074000Y0028000D01*
X0074000Y0028000D01*
X0074000Y0033150D01*
X0071867Y0033150D01*
X0068850Y0030133D01*
X0068850Y0028000D01*
X0074000Y0028000D01*
X0079150Y0028000D01*
X0079150Y0025867D01*
X0076133Y0022850D01*
X0074000Y0022850D01*
X0074000Y0028000D01*
X0074000Y0028000D01*
X0074000Y0022850D01*
X0071867Y0022850D01*
X0074000Y0022993D02*
X0074000Y0022993D01*
X0074000Y0024991D02*
X0074000Y0024991D01*
X0074000Y0026990D02*
X0074000Y0026990D01*
X0074000Y0028988D02*
X0074000Y0028988D01*
X0074000Y0030987D02*
X0074000Y0030987D01*
X0074000Y0032985D02*
X0074000Y0032985D01*
X0076298Y0032985D02*
X0353331Y0032985D01*
X0353331Y0030987D02*
X0078297Y0030987D01*
X0079150Y0028988D02*
X0353331Y0028988D01*
X0353331Y0026990D02*
X0079150Y0026990D01*
X0078274Y0024991D02*
X0353331Y0024991D01*
X0353331Y0022993D02*
X0076276Y0022993D01*
X0069726Y0024991D02*
X0053568Y0024991D01*
X0053522Y0026990D02*
X0068850Y0026990D01*
X0068850Y0028988D02*
X0052441Y0028988D01*
X0049690Y0030987D02*
X0069703Y0030987D01*
X0071702Y0032985D02*
X0047692Y0032985D01*
X0045693Y0034984D02*
X0353331Y0034984D01*
X0353331Y0036982D02*
X0321393Y0036982D01*
X0321600Y0038981D02*
X0353331Y0038981D01*
X0353331Y0040979D02*
X0321600Y0040979D01*
X0321600Y0042978D02*
X0353331Y0042978D01*
X0353331Y0044976D02*
X0321600Y0044976D01*
X0322404Y0046975D02*
X0325079Y0046975D01*
X0325210Y0046795D02*
X0325763Y0046242D01*
X0326396Y0045782D01*
X0327093Y0045427D01*
X0327837Y0045185D01*
X0328609Y0045063D01*
X0329000Y0045063D01*
X0329391Y0045063D01*
X0330163Y0045185D01*
X0330907Y0045427D01*
X0331604Y0045782D01*
X0332237Y0046242D01*
X0332790Y0046795D01*
X0333249Y0047427D01*
X0333604Y0048124D01*
X0333846Y0048868D01*
X0333968Y0049640D01*
X0333968Y0053000D01*
X0333968Y0056360D01*
X0333846Y0057132D01*
X0333604Y0057876D01*
X0333249Y0058573D01*
X0332790Y0059205D01*
X0332237Y0059758D01*
X0331604Y0060218D01*
X0330907Y0060573D01*
X0330163Y0060815D01*
X0329391Y0060937D01*
X0329000Y0060937D01*
X0329000Y0053000D01*
X0329000Y0053000D01*
X0333968Y0053000D01*
X0329000Y0053000D01*
X0329000Y0053000D01*
X0329000Y0053000D01*
X0324031Y0053000D01*
X0324031Y0049640D01*
X0324154Y0048868D01*
X0324396Y0048124D01*
X0324751Y0047427D01*
X0325210Y0046795D01*
X0324137Y0048973D02*
X0323507Y0048973D01*
X0323568Y0050972D02*
X0324031Y0050972D01*
X0324031Y0052970D02*
X0323568Y0052970D01*
X0324031Y0053000D02*
X0329000Y0053000D01*
X0329000Y0060937D01*
X0328609Y0060937D01*
X0327837Y0060815D01*
X0327093Y0060573D01*
X0326396Y0060218D01*
X0325763Y0059758D01*
X0325210Y0059205D01*
X0324751Y0058573D01*
X0324396Y0057876D01*
X0324154Y0057132D01*
X0324031Y0056360D01*
X0324031Y0053000D01*
X0324031Y0054969D02*
X0323568Y0054969D01*
X0323531Y0056967D02*
X0324128Y0056967D01*
X0325036Y0058966D02*
X0322464Y0058966D01*
X0329000Y0058966D02*
X0329000Y0058966D01*
X0329000Y0056967D02*
X0329000Y0056967D01*
X0329000Y0054969D02*
X0329000Y0054969D01*
X0329000Y0053000D02*
X0329000Y0045063D01*
X0329000Y0053000D01*
X0329000Y0053000D01*
X0329000Y0052970D02*
X0329000Y0052970D01*
X0329000Y0050972D02*
X0329000Y0050972D01*
X0329000Y0048973D02*
X0329000Y0048973D01*
X0329000Y0046975D02*
X0329000Y0046975D01*
X0332920Y0046975D02*
X0353331Y0046975D01*
X0353331Y0048973D02*
X0333863Y0048973D01*
X0333968Y0050972D02*
X0353331Y0050972D01*
X0353331Y0052970D02*
X0333968Y0052970D01*
X0333968Y0054969D02*
X0353331Y0054969D01*
X0353331Y0056967D02*
X0333872Y0056967D01*
X0332964Y0058966D02*
X0353331Y0058966D01*
X0353331Y0060964D02*
X0311600Y0060964D01*
X0311600Y0062963D02*
X0353331Y0062963D01*
X0353331Y0064961D02*
X0311600Y0064961D01*
X0311600Y0066960D02*
X0353331Y0066960D01*
X0353331Y0068958D02*
X0311600Y0068958D01*
X0311600Y0070957D02*
X0353331Y0070957D01*
X0353331Y0072955D02*
X0311600Y0072955D01*
X0311600Y0074954D02*
X0353331Y0074954D01*
X0353331Y0076952D02*
X0311600Y0076952D01*
X0312446Y0078951D02*
X0353331Y0078951D01*
X0353331Y0080949D02*
X0313887Y0080949D01*
X0314300Y0082948D02*
X0353331Y0082948D01*
X0353331Y0084946D02*
X0313930Y0084946D01*
X0312550Y0086945D02*
X0353331Y0086945D01*
X0353331Y0088943D02*
X0293620Y0088943D01*
X0292550Y0086945D02*
X0295450Y0086945D01*
X0294070Y0084946D02*
X0293930Y0084946D01*
X0293887Y0080949D02*
X0294113Y0080949D01*
X0295554Y0078951D02*
X0292446Y0078951D01*
X0291600Y0076952D02*
X0296400Y0076952D01*
X0296400Y0074954D02*
X0291600Y0074954D01*
X0291600Y0072955D02*
X0296400Y0072955D01*
X0296400Y0070957D02*
X0291600Y0070957D01*
X0291600Y0068958D02*
X0296400Y0068958D01*
X0296400Y0066960D02*
X0291600Y0066960D01*
X0291600Y0064961D02*
X0296400Y0064961D01*
X0296400Y0062963D02*
X0291600Y0062963D01*
X0291600Y0060964D02*
X0296400Y0060964D01*
X0295536Y0058966D02*
X0291600Y0058966D01*
X0291600Y0056967D02*
X0294469Y0056967D01*
X0294431Y0054969D02*
X0291600Y0054969D01*
X0291600Y0052970D02*
X0294431Y0052970D01*
X0294431Y0050972D02*
X0291600Y0050972D01*
X0291600Y0048973D02*
X0294493Y0048973D01*
X0295596Y0046975D02*
X0291600Y0046975D01*
X0291600Y0044976D02*
X0316400Y0044976D01*
X0316400Y0042978D02*
X0291600Y0042978D01*
X0291600Y0040979D02*
X0316400Y0040979D01*
X0319000Y0038000D02*
X0319000Y0053000D01*
X0314431Y0052970D02*
X0313568Y0052970D01*
X0313568Y0050972D02*
X0314431Y0050972D01*
X0314493Y0048973D02*
X0313507Y0048973D01*
X0312404Y0046975D02*
X0315596Y0046975D01*
X0309000Y0053000D02*
X0309000Y0083000D01*
X0304113Y0080949D02*
X0303887Y0080949D01*
X0302446Y0078951D02*
X0305554Y0078951D01*
X0306400Y0076952D02*
X0301600Y0076952D01*
X0301600Y0074954D02*
X0306400Y0074954D01*
X0306400Y0072955D02*
X0301600Y0072955D01*
X0301600Y0070957D02*
X0306400Y0070957D01*
X0306400Y0068958D02*
X0301600Y0068958D01*
X0301600Y0066960D02*
X0306400Y0066960D01*
X0306400Y0064961D02*
X0301600Y0064961D01*
X0301600Y0062963D02*
X0306400Y0062963D01*
X0306400Y0060964D02*
X0301600Y0060964D01*
X0302464Y0058966D02*
X0305536Y0058966D01*
X0304469Y0056967D02*
X0303531Y0056967D01*
X0303568Y0054969D02*
X0304431Y0054969D01*
X0304431Y0052970D02*
X0303568Y0052970D01*
X0303568Y0050972D02*
X0304431Y0050972D01*
X0304493Y0048973D02*
X0303507Y0048973D01*
X0302404Y0046975D02*
X0305596Y0046975D01*
X0299000Y0053000D02*
X0299000Y0083000D01*
X0303930Y0084946D02*
X0304070Y0084946D01*
X0305450Y0086945D02*
X0302550Y0086945D01*
X0297617Y0092940D02*
X0353331Y0092940D01*
X0353331Y0090942D02*
X0295619Y0090942D01*
X0290264Y0092940D02*
X0099300Y0092940D01*
X0098934Y0094939D02*
X0292262Y0094939D01*
X0294261Y0096937D02*
X0097558Y0096937D01*
X0097431Y0098936D02*
X0296259Y0098936D01*
X0298258Y0100934D02*
X0290611Y0100934D01*
X0291600Y0102933D02*
X0300256Y0102933D01*
X0302255Y0104932D02*
X0291600Y0104932D01*
X0291600Y0106930D02*
X0304253Y0106930D01*
X0306252Y0108929D02*
X0291600Y0108929D01*
X0291600Y0110927D02*
X0308250Y0110927D01*
X0310249Y0112926D02*
X0291600Y0112926D01*
X0291600Y0114924D02*
X0312247Y0114924D01*
X0314246Y0116923D02*
X0291600Y0116923D01*
X0292416Y0118921D02*
X0295584Y0118921D01*
X0294125Y0120920D02*
X0293875Y0120920D01*
X0289000Y0123000D02*
X0289000Y0103000D01*
X0174000Y0103000D01*
X0094000Y0103000D01*
X0069000Y0103000D01*
X0066914Y0098936D02*
X0066600Y0098936D01*
X0066600Y0096937D02*
X0081609Y0096937D01*
X0079875Y0094939D02*
X0066600Y0094939D01*
X0066600Y0092940D02*
X0079447Y0092940D01*
X0079925Y0090942D02*
X0066600Y0090942D01*
X0066600Y0088943D02*
X0081896Y0088943D01*
X0081373Y0086945D02*
X0090450Y0086945D01*
X0090561Y0088943D02*
X0086103Y0088943D01*
X0084000Y0093000D02*
X0094000Y0093000D01*
X0098884Y0090942D02*
X0288265Y0090942D01*
X0286577Y0088943D02*
X0097439Y0088943D01*
X0097550Y0086945D02*
X0140450Y0086945D01*
X0140998Y0087493D02*
X0139507Y0086002D01*
X0138700Y0084054D01*
X0138700Y0081946D01*
X0138867Y0081544D01*
X0131796Y0074473D01*
X0131400Y0073517D01*
X0131400Y0059829D01*
X0130127Y0058556D01*
X0129431Y0056877D01*
X0129431Y0049123D01*
X0130127Y0047444D01*
X0131412Y0046159D01*
X0133091Y0045463D01*
X0134909Y0045463D01*
X0136588Y0046159D01*
X0137873Y0047444D01*
X0138568Y0049123D01*
X0138568Y0056877D01*
X0137873Y0058556D01*
X0136600Y0059829D01*
X0136600Y0071923D01*
X0142544Y0077867D01*
X0142946Y0077700D01*
X0145023Y0077700D01*
X0142527Y0075204D01*
X0141796Y0074473D01*
X0141400Y0073517D01*
X0141400Y0059829D01*
X0140127Y0058556D01*
X0139431Y0056877D01*
X0139431Y0049123D01*
X0140127Y0047444D01*
X0141412Y0046159D01*
X0143091Y0045463D01*
X0144909Y0045463D01*
X0146588Y0046159D01*
X0147873Y0047444D01*
X0148568Y0049123D01*
X0148568Y0056877D01*
X0147873Y0058556D01*
X0146600Y0059829D01*
X0146600Y0071923D01*
X0152544Y0077867D01*
X0152946Y0077700D01*
X0155054Y0077700D01*
X0157002Y0078507D01*
X0158493Y0079998D01*
X0158780Y0080690D01*
X0159125Y0080013D01*
X0159652Y0079287D01*
X0160287Y0078652D01*
X0161013Y0078125D01*
X0161812Y0077718D01*
X0162665Y0077440D01*
X0163551Y0077300D01*
X0164000Y0077300D01*
X0164000Y0083000D01*
X0164000Y0083000D01*
X0164000Y0088700D01*
X0163551Y0088700D01*
X0162665Y0088560D01*
X0161812Y0088282D01*
X0161013Y0087875D01*
X0160287Y0087348D01*
X0159652Y0086713D01*
X0159125Y0085987D01*
X0158780Y0085310D01*
X0158493Y0086002D01*
X0157002Y0087493D01*
X0155054Y0088300D01*
X0152946Y0088300D01*
X0150998Y0087493D01*
X0149507Y0086002D01*
X0149000Y0084778D01*
X0148493Y0086002D01*
X0147002Y0087493D01*
X0145054Y0088300D01*
X0142946Y0088300D01*
X0140998Y0087493D01*
X0139070Y0084946D02*
X0098930Y0084946D01*
X0099300Y0082948D02*
X0138700Y0082948D01*
X0138272Y0080949D02*
X0098887Y0080949D01*
X0097446Y0078951D02*
X0136274Y0078951D01*
X0134275Y0076952D02*
X0066600Y0076952D01*
X0066600Y0074954D02*
X0132277Y0074954D01*
X0131400Y0072955D02*
X0066600Y0072955D01*
X0066600Y0070957D02*
X0131400Y0070957D01*
X0131400Y0068958D02*
X0076417Y0068958D01*
X0076600Y0066960D02*
X0131400Y0066960D01*
X0131400Y0064961D02*
X0076600Y0064961D01*
X0076600Y0062963D02*
X0131400Y0062963D01*
X0131400Y0060964D02*
X0076600Y0060964D01*
X0076600Y0058966D02*
X0130536Y0058966D01*
X0129469Y0056967D02*
X0076600Y0056967D01*
X0076600Y0054969D02*
X0129431Y0054969D01*
X0129431Y0052970D02*
X0076600Y0052970D01*
X0077746Y0050972D02*
X0129431Y0050972D01*
X0129493Y0048973D02*
X0116704Y0048973D01*
X0118702Y0046975D02*
X0130596Y0046975D01*
X0137404Y0046975D02*
X0140596Y0046975D01*
X0139493Y0048973D02*
X0138507Y0048973D01*
X0138568Y0050972D02*
X0139431Y0050972D01*
X0139431Y0052970D02*
X0138568Y0052970D01*
X0138568Y0054969D02*
X0139431Y0054969D01*
X0139469Y0056967D02*
X0138531Y0056967D01*
X0137464Y0058966D02*
X0140536Y0058966D01*
X0141400Y0060964D02*
X0136600Y0060964D01*
X0136600Y0062963D02*
X0141400Y0062963D01*
X0141400Y0064961D02*
X0136600Y0064961D01*
X0136600Y0066960D02*
X0141400Y0066960D01*
X0141400Y0068958D02*
X0136600Y0068958D01*
X0136600Y0070957D02*
X0141400Y0070957D01*
X0141400Y0072955D02*
X0137632Y0072955D01*
X0139631Y0074954D02*
X0142277Y0074954D01*
X0142527Y0075204D02*
X0142527Y0075204D01*
X0141629Y0076952D02*
X0144275Y0076952D01*
X0144000Y0073000D02*
X0144000Y0053000D01*
X0148568Y0052970D02*
X0149431Y0052970D01*
X0149431Y0050972D02*
X0148568Y0050972D01*
X0148507Y0048973D02*
X0149493Y0048973D01*
X0150596Y0046975D02*
X0147404Y0046975D01*
X0151400Y0044976D02*
X0120701Y0044976D01*
X0122699Y0042978D02*
X0151400Y0042978D01*
X0151400Y0040979D02*
X0124698Y0040979D01*
X0124000Y0038000D02*
X0154000Y0038000D01*
X0174000Y0038000D01*
X0174000Y0083000D01*
X0178887Y0080949D02*
X0179113Y0080949D01*
X0180554Y0078951D02*
X0177446Y0078951D01*
X0176600Y0076952D02*
X0181400Y0076952D01*
X0181400Y0074954D02*
X0176600Y0074954D01*
X0176600Y0072955D02*
X0181400Y0072955D01*
X0181400Y0070957D02*
X0176600Y0070957D01*
X0176600Y0068958D02*
X0181400Y0068958D01*
X0181400Y0066960D02*
X0176600Y0066960D01*
X0176600Y0064961D02*
X0181400Y0064961D01*
X0181400Y0062963D02*
X0176600Y0062963D01*
X0176600Y0060964D02*
X0181400Y0060964D01*
X0180536Y0058966D02*
X0176600Y0058966D01*
X0176600Y0056967D02*
X0179469Y0056967D01*
X0179431Y0054969D02*
X0176600Y0054969D01*
X0176600Y0052970D02*
X0179431Y0052970D01*
X0179431Y0050972D02*
X0176600Y0050972D01*
X0176600Y0048973D02*
X0179493Y0048973D01*
X0180596Y0046975D02*
X0176600Y0046975D01*
X0176600Y0044976D02*
X0201400Y0044976D01*
X0201400Y0042978D02*
X0176600Y0042978D01*
X0176600Y0040979D02*
X0201400Y0040979D01*
X0204000Y0038000D02*
X0269000Y0038000D01*
X0289000Y0038000D01*
X0289000Y0083000D01*
X0289000Y0088000D01*
X0319000Y0118000D01*
X0319000Y0138000D01*
X0319000Y0163000D01*
X0314000Y0168000D01*
X0304000Y0168000D01*
X0304000Y0183000D01*
X0308200Y0182873D02*
X0353331Y0182873D01*
X0353331Y0180875D02*
X0307815Y0180875D01*
X0306600Y0178876D02*
X0353331Y0178876D01*
X0353331Y0176878D02*
X0306600Y0176878D01*
X0306600Y0174879D02*
X0353331Y0174879D01*
X0353331Y0172881D02*
X0306600Y0172881D01*
X0307057Y0170882D02*
X0353331Y0170882D01*
X0353331Y0168884D02*
X0316793Y0168884D01*
X0318792Y0166885D02*
X0353331Y0166885D01*
X0353331Y0164887D02*
X0320790Y0164887D01*
X0321600Y0162888D02*
X0353331Y0162888D01*
X0353331Y0160890D02*
X0321600Y0160890D01*
X0321600Y0158891D02*
X0353331Y0158891D01*
X0353331Y0156893D02*
X0321600Y0156893D01*
X0321600Y0154894D02*
X0353331Y0154894D01*
X0353331Y0152896D02*
X0321600Y0152896D01*
X0321600Y0150897D02*
X0353331Y0150897D01*
X0353331Y0148899D02*
X0321600Y0148899D01*
X0321600Y0146900D02*
X0353331Y0146900D01*
X0353331Y0144902D02*
X0321600Y0144902D01*
X0321600Y0142903D02*
X0353331Y0142903D01*
X0353331Y0140905D02*
X0337035Y0140905D01*
X0338200Y0138906D02*
X0353331Y0138906D01*
X0353331Y0136908D02*
X0338200Y0136908D01*
X0336849Y0134909D02*
X0353331Y0134909D01*
X0353331Y0132911D02*
X0321600Y0132911D01*
X0321600Y0130912D02*
X0353331Y0130912D01*
X0353331Y0128914D02*
X0321600Y0128914D01*
X0321600Y0126915D02*
X0353331Y0126915D01*
X0353331Y0124917D02*
X0321600Y0124917D01*
X0321600Y0122918D02*
X0353331Y0122918D01*
X0353331Y0120920D02*
X0321600Y0120920D01*
X0321600Y0118921D02*
X0353331Y0118921D01*
X0353331Y0116923D02*
X0321368Y0116923D01*
X0319601Y0114924D02*
X0353331Y0114924D01*
X0353331Y0112926D02*
X0317603Y0112926D01*
X0315604Y0110927D02*
X0353331Y0110927D01*
X0353331Y0108929D02*
X0313605Y0108929D01*
X0311607Y0106930D02*
X0353331Y0106930D01*
X0353331Y0104932D02*
X0309608Y0104932D01*
X0307610Y0102933D02*
X0353331Y0102933D01*
X0353331Y0100934D02*
X0305611Y0100934D01*
X0303613Y0098936D02*
X0353331Y0098936D01*
X0353331Y0096937D02*
X0301614Y0096937D01*
X0299616Y0094939D02*
X0353331Y0094939D01*
X0316244Y0118921D02*
X0312416Y0118921D01*
X0313875Y0120920D02*
X0316400Y0120920D01*
X0316400Y0122918D02*
X0314300Y0122918D01*
X0313943Y0124917D02*
X0316400Y0124917D01*
X0316400Y0126915D02*
X0312580Y0126915D01*
X0311600Y0128914D02*
X0316400Y0128914D01*
X0316400Y0130912D02*
X0311600Y0130912D01*
X0311600Y0132911D02*
X0316400Y0132911D01*
X0316151Y0134909D02*
X0311600Y0134909D01*
X0311600Y0136908D02*
X0314800Y0136908D01*
X0314800Y0138906D02*
X0311600Y0138906D01*
X0311600Y0140905D02*
X0315965Y0140905D01*
X0316400Y0142903D02*
X0311600Y0142903D01*
X0311600Y0144902D02*
X0316400Y0144902D01*
X0316400Y0146900D02*
X0311600Y0146900D01*
X0311600Y0148899D02*
X0316400Y0148899D01*
X0316400Y0150897D02*
X0311600Y0150897D01*
X0311600Y0152896D02*
X0316400Y0152896D01*
X0316400Y0154894D02*
X0312333Y0154894D01*
X0313469Y0156893D02*
X0316400Y0156893D01*
X0316400Y0158891D02*
X0313553Y0158891D01*
X0312549Y0160890D02*
X0316400Y0160890D01*
X0315435Y0162888D02*
X0216600Y0162888D01*
X0216600Y0160890D02*
X0305451Y0160890D01*
X0304447Y0158891D02*
X0216600Y0158891D01*
X0216600Y0156893D02*
X0296501Y0156893D01*
X0294857Y0154894D02*
X0216600Y0154894D01*
X0216600Y0152896D02*
X0294447Y0152896D01*
X0294943Y0150897D02*
X0272541Y0150897D01*
X0272860Y0150579D02*
X0271579Y0151860D01*
X0269906Y0152553D01*
X0268094Y0152553D01*
X0266421Y0151860D01*
X0265140Y0150579D01*
X0264447Y0148906D01*
X0264447Y0147094D01*
X0265140Y0145421D01*
X0266400Y0144161D01*
X0266400Y0127660D01*
X0265998Y0127493D01*
X0264507Y0126002D01*
X0264000Y0124778D01*
X0263493Y0126002D01*
X0262002Y0127493D01*
X0261600Y0127660D01*
X0261600Y0139161D01*
X0262860Y0140421D01*
X0263553Y0142094D01*
X0263553Y0143906D01*
X0262860Y0145579D01*
X0261579Y0146860D01*
X0259906Y0147553D01*
X0258094Y0147553D01*
X0256421Y0146860D01*
X0255140Y0145579D01*
X0254447Y0143906D01*
X0254447Y0142094D01*
X0255140Y0140421D01*
X0256400Y0139161D01*
X0256400Y0127660D01*
X0255998Y0127493D01*
X0254507Y0126002D01*
X0253700Y0124054D01*
X0253700Y0121946D01*
X0254507Y0119998D01*
X0255998Y0118507D01*
X0257946Y0117700D01*
X0260054Y0117700D01*
X0262002Y0118507D01*
X0263493Y0119998D01*
X0264000Y0121222D01*
X0264507Y0119998D01*
X0265998Y0118507D01*
X0267946Y0117700D01*
X0270054Y0117700D01*
X0272002Y0118507D01*
X0273493Y0119998D01*
X0273780Y0120690D01*
X0274125Y0120013D01*
X0274652Y0119287D01*
X0275287Y0118652D01*
X0276013Y0118125D01*
X0276812Y0117718D01*
X0277665Y0117440D01*
X0278551Y0117300D01*
X0279000Y0117300D01*
X0279000Y0123000D01*
X0279000Y0123000D01*
X0279000Y0128700D01*
X0278551Y0128700D01*
X0277665Y0128560D01*
X0276812Y0128282D01*
X0276013Y0127875D01*
X0275287Y0127348D01*
X0274652Y0126713D01*
X0274125Y0125987D01*
X0273780Y0125310D01*
X0273493Y0126002D01*
X0272002Y0127493D01*
X0271600Y0127660D01*
X0271600Y0144161D01*
X0272860Y0145421D01*
X0273553Y0147094D01*
X0273553Y0148906D01*
X0272860Y0150579D01*
X0273553Y0148899D02*
X0296400Y0148899D01*
X0296400Y0146900D02*
X0273472Y0146900D01*
X0272340Y0144902D02*
X0296400Y0144902D01*
X0296400Y0142903D02*
X0271600Y0142903D01*
X0271600Y0140905D02*
X0296400Y0140905D01*
X0296400Y0138906D02*
X0271600Y0138906D01*
X0271600Y0136908D02*
X0296400Y0136908D01*
X0296400Y0134909D02*
X0271600Y0134909D01*
X0271600Y0132911D02*
X0296400Y0132911D01*
X0296400Y0130912D02*
X0271600Y0130912D01*
X0271600Y0128914D02*
X0296400Y0128914D01*
X0295420Y0126915D02*
X0292580Y0126915D01*
X0293943Y0124917D02*
X0294057Y0124917D01*
X0299000Y0123000D02*
X0299000Y0153000D01*
X0303143Y0154894D02*
X0305667Y0154894D01*
X0306400Y0152896D02*
X0303553Y0152896D01*
X0303057Y0150897D02*
X0306400Y0150897D01*
X0306400Y0148899D02*
X0301600Y0148899D01*
X0301600Y0146900D02*
X0306400Y0146900D01*
X0306400Y0144902D02*
X0301600Y0144902D01*
X0301600Y0142903D02*
X0306400Y0142903D01*
X0306400Y0140905D02*
X0301600Y0140905D01*
X0301600Y0138906D02*
X0306400Y0138906D01*
X0306400Y0136908D02*
X0301600Y0136908D01*
X0301600Y0134909D02*
X0306400Y0134909D01*
X0306400Y0132911D02*
X0301600Y0132911D01*
X0301600Y0130912D02*
X0306400Y0130912D01*
X0306400Y0128914D02*
X0301600Y0128914D01*
X0302580Y0126915D02*
X0305420Y0126915D01*
X0304057Y0124917D02*
X0303943Y0124917D01*
X0309000Y0123000D02*
X0309000Y0158000D01*
X0304531Y0156893D02*
X0301499Y0156893D01*
X0301173Y0164887D02*
X0246827Y0164887D01*
X0244000Y0168000D02*
X0254000Y0168000D01*
X0294000Y0208000D01*
X0294000Y0218000D01*
X0298568Y0218847D02*
X0304031Y0218847D01*
X0304031Y0218000D02*
X0309000Y0218000D01*
X0309000Y0218000D01*
X0309000Y0225937D01*
X0309391Y0225937D01*
X0310163Y0225815D01*
X0310907Y0225573D01*
X0311604Y0225218D01*
X0312237Y0224758D01*
X0312790Y0224205D01*
X0313249Y0223573D01*
X0313604Y0222876D01*
X0313846Y0222132D01*
X0313968Y0221360D01*
X0313968Y0218000D01*
X0309000Y0218000D01*
X0309000Y0218000D01*
X0309000Y0218000D01*
X0309000Y0225937D01*
X0308609Y0225937D01*
X0307837Y0225815D01*
X0307093Y0225573D01*
X0306396Y0225218D01*
X0305763Y0224758D01*
X0305210Y0224205D01*
X0304751Y0223573D01*
X0304396Y0222876D01*
X0304154Y0222132D01*
X0304031Y0221360D01*
X0304031Y0218000D01*
X0304031Y0214640D01*
X0304154Y0213868D01*
X0304396Y0213124D01*
X0304751Y0212427D01*
X0305210Y0211795D01*
X0305763Y0211242D01*
X0306396Y0210782D01*
X0307093Y0210427D01*
X0307837Y0210185D01*
X0308609Y0210063D01*
X0309000Y0210063D01*
X0309391Y0210063D01*
X0310163Y0210185D01*
X0310907Y0210427D01*
X0311604Y0210782D01*
X0312237Y0211242D01*
X0312790Y0211795D01*
X0313249Y0212427D01*
X0313604Y0213124D01*
X0313846Y0213868D01*
X0313968Y0214640D01*
X0313968Y0218000D01*
X0309000Y0218000D01*
X0309000Y0210063D01*
X0309000Y0218000D01*
X0309000Y0218000D01*
X0304031Y0218000D01*
X0304031Y0216848D02*
X0298568Y0216848D01*
X0298568Y0214850D02*
X0304031Y0214850D01*
X0304535Y0212851D02*
X0298042Y0212851D01*
X0296600Y0210853D02*
X0306299Y0210853D01*
X0309000Y0210853D02*
X0309000Y0210853D01*
X0309000Y0212851D02*
X0309000Y0212851D01*
X0309000Y0214850D02*
X0309000Y0214850D01*
X0309000Y0216848D02*
X0309000Y0216848D01*
X0309000Y0218847D02*
X0309000Y0218847D01*
X0309000Y0220845D02*
X0309000Y0220845D01*
X0309000Y0222844D02*
X0309000Y0222844D01*
X0309000Y0224842D02*
X0309000Y0224842D01*
X0305879Y0224842D02*
X0296586Y0224842D01*
X0298168Y0222844D02*
X0304385Y0222844D01*
X0304031Y0220845D02*
X0298568Y0220845D01*
X0294000Y0223000D02*
X0284000Y0233000D01*
X0134000Y0233000D01*
X0129968Y0230838D02*
X0118032Y0230838D01*
X0118553Y0232836D02*
X0129447Y0232836D01*
X0129832Y0234835D02*
X0119512Y0234835D01*
X0119000Y0238000D02*
X0114000Y0233000D01*
X0109832Y0234835D02*
X0109512Y0234835D01*
X0109447Y0232836D02*
X0108553Y0232836D01*
X0108032Y0230838D02*
X0109968Y0230838D01*
X0112148Y0228839D02*
X0105852Y0228839D01*
X0102148Y0228839D02*
X0067600Y0228839D01*
X0067600Y0230838D02*
X0072028Y0230838D01*
X0069917Y0232836D02*
X0068083Y0232836D01*
X0068600Y0234835D02*
X0069400Y0234835D01*
X0069400Y0236833D02*
X0068600Y0236833D01*
X0068600Y0238832D02*
X0069400Y0238832D01*
X0069400Y0240830D02*
X0068600Y0240830D01*
X0068221Y0242829D02*
X0069779Y0242829D01*
X0078221Y0242829D02*
X0110152Y0242829D01*
X0108153Y0240830D02*
X0078600Y0240830D01*
X0078600Y0238832D02*
X0106155Y0238832D01*
X0101395Y0236833D02*
X0078600Y0236833D01*
X0078600Y0234835D02*
X0099832Y0234835D01*
X0099447Y0232836D02*
X0078083Y0232836D01*
X0075972Y0230838D02*
X0099968Y0230838D01*
X0104000Y0233000D02*
X0114000Y0243000D01*
X0329000Y0243000D01*
X0344000Y0228000D01*
X0344000Y0218000D01*
X0344000Y0203000D01*
X0339000Y0198000D01*
X0334000Y0198000D01*
X0330920Y0200860D02*
X0322080Y0200860D01*
X0321600Y0202859D02*
X0340182Y0202859D01*
X0341400Y0204857D02*
X0321600Y0204857D01*
X0321600Y0206856D02*
X0341400Y0206856D01*
X0341400Y0208854D02*
X0321600Y0208854D01*
X0321600Y0210853D02*
X0331299Y0210853D01*
X0331396Y0210782D02*
X0332093Y0210427D01*
X0332837Y0210185D01*
X0333609Y0210063D01*
X0334000Y0210063D01*
X0334391Y0210063D01*
X0335163Y0210185D01*
X0335907Y0210427D01*
X0336604Y0210782D01*
X0337237Y0211242D01*
X0337790Y0211795D01*
X0338249Y0212427D01*
X0338604Y0213124D01*
X0338846Y0213868D01*
X0338968Y0214640D01*
X0338968Y0218000D01*
X0338968Y0221360D01*
X0338846Y0222132D01*
X0338604Y0222876D01*
X0338249Y0223573D01*
X0337790Y0224205D01*
X0337237Y0224758D01*
X0336604Y0225218D01*
X0335907Y0225573D01*
X0335163Y0225815D01*
X0334391Y0225937D01*
X0334000Y0225937D01*
X0334000Y0218000D01*
X0334000Y0218000D01*
X0338968Y0218000D01*
X0334000Y0218000D01*
X0334000Y0218000D01*
X0334000Y0218000D01*
X0329031Y0218000D01*
X0329031Y0214640D01*
X0329154Y0213868D01*
X0329396Y0213124D01*
X0329751Y0212427D01*
X0330210Y0211795D01*
X0330763Y0211242D01*
X0331396Y0210782D01*
X0334000Y0210853D02*
X0334000Y0210853D01*
X0334000Y0210063D02*
X0334000Y0218000D01*
X0334000Y0225937D01*
X0333609Y0225937D01*
X0332837Y0225815D01*
X0332093Y0225573D01*
X0331396Y0225218D01*
X0330763Y0224758D01*
X0330210Y0224205D01*
X0329751Y0223573D01*
X0329396Y0222876D01*
X0329154Y0222132D01*
X0329031Y0221360D01*
X0329031Y0218000D01*
X0334000Y0218000D01*
X0334000Y0218000D01*
X0334000Y0210063D01*
X0334000Y0212851D02*
X0334000Y0212851D01*
X0334000Y0214850D02*
X0334000Y0214850D01*
X0334000Y0216848D02*
X0334000Y0216848D01*
X0334000Y0218847D02*
X0334000Y0218847D01*
X0334000Y0220845D02*
X0334000Y0220845D01*
X0334000Y0222844D02*
X0334000Y0222844D01*
X0334000Y0224842D02*
X0334000Y0224842D01*
X0330879Y0224842D02*
X0321600Y0224842D01*
X0321600Y0226841D02*
X0341400Y0226841D01*
X0341400Y0224842D02*
X0337121Y0224842D01*
X0338615Y0222844D02*
X0339832Y0222844D01*
X0339431Y0220845D02*
X0338968Y0220845D01*
X0338968Y0218847D02*
X0339431Y0218847D01*
X0339431Y0216848D02*
X0338968Y0216848D01*
X0338968Y0214850D02*
X0339431Y0214850D01*
X0339958Y0212851D02*
X0338465Y0212851D01*
X0336701Y0210853D02*
X0341400Y0210853D01*
X0346600Y0210853D02*
X0353331Y0210853D01*
X0353331Y0212851D02*
X0348042Y0212851D01*
X0348568Y0214850D02*
X0353331Y0214850D01*
X0353331Y0216848D02*
X0348568Y0216848D01*
X0348568Y0218847D02*
X0353331Y0218847D01*
X0353331Y0220845D02*
X0348568Y0220845D01*
X0348168Y0222844D02*
X0353331Y0222844D01*
X0353331Y0224842D02*
X0346600Y0224842D01*
X0346600Y0226841D02*
X0353331Y0226841D01*
X0353331Y0228839D02*
X0346467Y0228839D01*
X0344839Y0230838D02*
X0353331Y0230838D01*
X0353331Y0232836D02*
X0342841Y0232836D01*
X0340842Y0234835D02*
X0353331Y0234835D01*
X0353331Y0236833D02*
X0338844Y0236833D01*
X0336845Y0238832D02*
X0353331Y0238832D01*
X0353331Y0240830D02*
X0334847Y0240830D01*
X0332848Y0242829D02*
X0353331Y0242829D01*
X0337485Y0230838D02*
X0319839Y0230838D01*
X0321467Y0228839D02*
X0339484Y0228839D01*
X0335487Y0232836D02*
X0317841Y0232836D01*
X0315842Y0234835D02*
X0333488Y0234835D01*
X0331490Y0236833D02*
X0313844Y0236833D01*
X0311845Y0238832D02*
X0329491Y0238832D01*
X0319000Y0228000D02*
X0319000Y0218000D01*
X0319000Y0198000D01*
X0315920Y0200860D02*
X0290537Y0200860D01*
X0288538Y0198862D02*
X0314800Y0198862D01*
X0314800Y0196863D02*
X0286540Y0196863D01*
X0284541Y0194865D02*
X0316196Y0194865D01*
X0321804Y0194865D02*
X0331196Y0194865D01*
X0329800Y0196863D02*
X0323200Y0196863D01*
X0323200Y0198862D02*
X0329800Y0198862D01*
X0337080Y0200860D02*
X0338183Y0200860D01*
X0341540Y0196863D02*
X0353331Y0196863D01*
X0353331Y0194865D02*
X0336804Y0194865D01*
X0343538Y0198862D02*
X0353331Y0198862D01*
X0353331Y0200860D02*
X0345537Y0200860D01*
X0346600Y0202859D02*
X0353331Y0202859D01*
X0353331Y0204857D02*
X0346600Y0204857D01*
X0346600Y0206856D02*
X0353331Y0206856D01*
X0353331Y0208854D02*
X0346600Y0208854D01*
X0329535Y0212851D02*
X0323042Y0212851D01*
X0323568Y0214850D02*
X0329031Y0214850D01*
X0329031Y0216848D02*
X0323568Y0216848D01*
X0323568Y0218847D02*
X0329031Y0218847D01*
X0329031Y0220845D02*
X0323568Y0220845D01*
X0323168Y0222844D02*
X0329385Y0222844D01*
X0319000Y0228000D02*
X0309000Y0238000D01*
X0119000Y0238000D01*
X0115852Y0228839D02*
X0132148Y0228839D01*
X0135852Y0228839D02*
X0199447Y0228839D01*
X0199552Y0226841D02*
X0067416Y0226841D01*
X0065784Y0224842D02*
X0200719Y0224842D01*
X0202095Y0222600D02*
X0199400Y0219905D01*
X0199400Y0216095D01*
X0202095Y0213400D01*
X0205905Y0213400D01*
X0208600Y0216095D01*
X0208600Y0219905D01*
X0205905Y0222600D01*
X0202095Y0222600D01*
X0200340Y0220845D02*
X0198226Y0220845D01*
X0199000Y0220071D02*
X0196071Y0223000D01*
X0194000Y0223000D01*
X0194000Y0218000D01*
X0199000Y0218000D01*
X0199000Y0220071D01*
X0199000Y0218847D02*
X0199400Y0218847D01*
X0199000Y0218000D02*
X0194000Y0218000D01*
X0194000Y0218000D01*
X0194000Y0218000D01*
X0194000Y0213000D01*
X0196071Y0213000D01*
X0199000Y0215929D01*
X0199000Y0218000D01*
X0199000Y0216848D02*
X0199400Y0216848D01*
X0200645Y0214850D02*
X0197921Y0214850D01*
X0195905Y0212600D02*
X0192095Y0212600D01*
X0189400Y0209905D01*
X0189400Y0206095D01*
X0192095Y0203400D01*
X0195905Y0203400D01*
X0198600Y0206095D01*
X0198600Y0209905D01*
X0195905Y0212600D01*
X0194000Y0213000D02*
X0194000Y0218000D01*
X0194000Y0218000D01*
X0194000Y0218000D01*
X0189000Y0218000D01*
X0189000Y0220071D01*
X0191929Y0223000D01*
X0194000Y0223000D01*
X0194000Y0218000D01*
X0189000Y0218000D01*
X0189000Y0215929D01*
X0191929Y0213000D01*
X0194000Y0213000D01*
X0194000Y0214850D02*
X0194000Y0214850D01*
X0194000Y0216848D02*
X0194000Y0216848D01*
X0194000Y0218847D02*
X0194000Y0218847D01*
X0194000Y0220845D02*
X0194000Y0220845D01*
X0194000Y0222844D02*
X0194000Y0222844D01*
X0196227Y0222844D02*
X0239676Y0222844D01*
X0239154Y0222704D02*
X0236779Y0221333D01*
X0234840Y0219394D01*
X0233470Y0217019D01*
X0232760Y0214371D01*
X0232760Y0211629D01*
X0233470Y0208981D01*
X0234840Y0206606D01*
X0236779Y0204667D01*
X0239154Y0203296D01*
X0241802Y0202587D01*
X0244544Y0202587D01*
X0247193Y0203296D01*
X0249567Y0204667D01*
X0251506Y0206606D01*
X0252877Y0208981D01*
X0253587Y0211629D01*
X0253587Y0214371D01*
X0252877Y0217019D01*
X0251506Y0219394D01*
X0249567Y0221333D01*
X0247193Y0222704D01*
X0244544Y0223413D01*
X0241802Y0223413D01*
X0239154Y0222704D01*
X0236292Y0220845D02*
X0227660Y0220845D01*
X0228600Y0219905D02*
X0225905Y0222600D01*
X0222095Y0222600D01*
X0219400Y0219905D01*
X0219400Y0216095D01*
X0222095Y0213400D01*
X0225905Y0213400D01*
X0228600Y0216095D01*
X0228600Y0219905D01*
X0228600Y0218847D02*
X0234524Y0218847D01*
X0233424Y0216848D02*
X0228600Y0216848D01*
X0227355Y0214850D02*
X0232888Y0214850D01*
X0232760Y0212851D02*
X0226220Y0212851D01*
X0226071Y0213000D02*
X0224000Y0213000D01*
X0224000Y0208000D01*
X0229000Y0208000D01*
X0229000Y0210071D01*
X0226071Y0213000D01*
X0224000Y0213000D02*
X0221929Y0213000D01*
X0219000Y0210071D01*
X0219000Y0208000D01*
X0224000Y0208000D01*
X0224000Y0208000D01*
X0224000Y0208000D01*
X0229000Y0208000D01*
X0229000Y0205929D01*
X0226071Y0203000D01*
X0224000Y0203000D01*
X0224000Y0208000D01*
X0224000Y0208000D01*
X0224000Y0208000D01*
X0224000Y0213000D01*
X0224000Y0212851D02*
X0224000Y0212851D01*
X0224000Y0210853D02*
X0224000Y0210853D01*
X0224000Y0208854D02*
X0224000Y0208854D01*
X0224000Y0208000D02*
X0219000Y0208000D01*
X0219000Y0205929D01*
X0221929Y0203000D01*
X0224000Y0203000D01*
X0224000Y0208000D01*
X0224000Y0206856D02*
X0224000Y0206856D01*
X0224000Y0204857D02*
X0224000Y0204857D01*
X0227928Y0204857D02*
X0236589Y0204857D01*
X0234696Y0206856D02*
X0229000Y0206856D01*
X0229000Y0208854D02*
X0233543Y0208854D01*
X0232968Y0210853D02*
X0228218Y0210853D01*
X0221780Y0212851D02*
X0156220Y0212851D01*
X0156071Y0213000D02*
X0154000Y0213000D01*
X0154000Y0208000D01*
X0159000Y0208000D01*
X0159000Y0210071D01*
X0156071Y0213000D01*
X0155905Y0213400D02*
X0158600Y0216095D01*
X0158600Y0219905D01*
X0155905Y0222600D01*
X0152095Y0222600D01*
X0149400Y0219905D01*
X0149400Y0216095D01*
X0152095Y0213400D01*
X0155905Y0213400D01*
X0154000Y0213000D02*
X0151929Y0213000D01*
X0149000Y0210071D01*
X0149000Y0208000D01*
X0154000Y0208000D01*
X0154000Y0208000D01*
X0154000Y0208000D01*
X0159000Y0208000D01*
X0159000Y0205929D01*
X0156071Y0203000D01*
X0154000Y0203000D01*
X0154000Y0208000D01*
X0154000Y0208000D01*
X0154000Y0208000D01*
X0154000Y0213000D01*
X0154000Y0212851D02*
X0154000Y0212851D01*
X0154000Y0210853D02*
X0154000Y0210853D01*
X0154000Y0208854D02*
X0154000Y0208854D01*
X0154000Y0208000D02*
X0149000Y0208000D01*
X0149000Y0205929D01*
X0151929Y0203000D01*
X0154000Y0203000D01*
X0154000Y0208000D01*
X0154000Y0206856D02*
X0154000Y0206856D01*
X0154000Y0204857D02*
X0154000Y0204857D01*
X0157928Y0204857D02*
X0160638Y0204857D01*
X0159400Y0206095D02*
X0162095Y0203400D01*
X0165905Y0203400D01*
X0168600Y0206095D01*
X0168600Y0209905D01*
X0165905Y0212600D01*
X0162095Y0212600D01*
X0159400Y0209905D01*
X0159400Y0206095D01*
X0159400Y0206856D02*
X0159000Y0206856D01*
X0159000Y0208854D02*
X0159400Y0208854D01*
X0160347Y0210853D02*
X0158218Y0210853D01*
X0162095Y0213400D02*
X0165905Y0213400D01*
X0168600Y0216095D01*
X0168600Y0219905D01*
X0165905Y0222600D01*
X0162095Y0222600D01*
X0159400Y0219905D01*
X0159400Y0216095D01*
X0162095Y0213400D01*
X0160645Y0214850D02*
X0157355Y0214850D01*
X0158600Y0216848D02*
X0159400Y0216848D01*
X0159400Y0218847D02*
X0158600Y0218847D01*
X0157660Y0220845D02*
X0160340Y0220845D01*
X0167660Y0220845D02*
X0169774Y0220845D01*
X0169000Y0220071D02*
X0169000Y0218000D01*
X0174000Y0218000D01*
X0179000Y0218000D01*
X0179000Y0220071D01*
X0176071Y0223000D01*
X0174000Y0223000D01*
X0174000Y0218000D01*
X0174000Y0218000D01*
X0174000Y0218000D01*
X0179000Y0218000D01*
X0179000Y0215929D01*
X0176071Y0213000D01*
X0174000Y0213000D01*
X0174000Y0218000D01*
X0174000Y0218000D01*
X0174000Y0218000D01*
X0174000Y0223000D01*
X0171929Y0223000D01*
X0169000Y0220071D01*
X0169000Y0218847D02*
X0168600Y0218847D01*
X0169000Y0218000D02*
X0169000Y0215929D01*
X0171929Y0213000D01*
X0174000Y0213000D01*
X0174000Y0218000D01*
X0169000Y0218000D01*
X0169000Y0216848D02*
X0168600Y0216848D01*
X0167355Y0214850D02*
X0170079Y0214850D01*
X0172095Y0212600D02*
X0169400Y0209905D01*
X0169400Y0206095D01*
X0172095Y0203400D01*
X0175905Y0203400D01*
X0178600Y0206095D01*
X0178600Y0209905D01*
X0175905Y0212600D01*
X0172095Y0212600D01*
X0170347Y0210853D02*
X0167653Y0210853D01*
X0168600Y0208854D02*
X0169400Y0208854D01*
X0169400Y0206856D02*
X0168600Y0206856D01*
X0167362Y0204857D02*
X0170638Y0204857D01*
X0177362Y0204857D02*
X0180638Y0204857D01*
X0179400Y0206095D02*
X0182095Y0203400D01*
X0185905Y0203400D01*
X0188600Y0206095D01*
X0188600Y0209905D01*
X0185905Y0212600D01*
X0182095Y0212600D01*
X0179400Y0209905D01*
X0179400Y0206095D01*
X0179400Y0206856D02*
X0178600Y0206856D01*
X0178600Y0208854D02*
X0179400Y0208854D01*
X0180347Y0210853D02*
X0177653Y0210853D01*
X0182095Y0213400D02*
X0185905Y0213400D01*
X0188600Y0216095D01*
X0188600Y0219905D01*
X0185905Y0222600D01*
X0182095Y0222600D01*
X0179400Y0219905D01*
X0179400Y0216095D01*
X0182095Y0213400D01*
X0180645Y0214850D02*
X0177921Y0214850D01*
X0179000Y0216848D02*
X0179400Y0216848D01*
X0179400Y0218847D02*
X0179000Y0218847D01*
X0178226Y0220845D02*
X0180340Y0220845D01*
X0176227Y0222844D02*
X0191773Y0222844D01*
X0189774Y0220845D02*
X0187660Y0220845D01*
X0188600Y0218847D02*
X0189000Y0218847D01*
X0189000Y0216848D02*
X0188600Y0216848D01*
X0187355Y0214850D02*
X0190079Y0214850D01*
X0190347Y0210853D02*
X0187653Y0210853D01*
X0188600Y0208854D02*
X0189400Y0208854D01*
X0189400Y0206856D02*
X0188600Y0206856D01*
X0187362Y0204857D02*
X0190638Y0204857D01*
X0197362Y0204857D02*
X0200638Y0204857D01*
X0199400Y0206095D02*
X0202095Y0203400D01*
X0205905Y0203400D01*
X0208600Y0206095D01*
X0208600Y0209905D01*
X0205905Y0212600D01*
X0202095Y0212600D01*
X0199400Y0209905D01*
X0199400Y0206095D01*
X0199400Y0206856D02*
X0198600Y0206856D01*
X0198600Y0208854D02*
X0199400Y0208854D01*
X0200347Y0210853D02*
X0197653Y0210853D01*
X0207653Y0210853D02*
X0210347Y0210853D01*
X0209400Y0209905D02*
X0209400Y0206095D01*
X0212095Y0203400D01*
X0215905Y0203400D01*
X0218600Y0206095D01*
X0218600Y0209905D01*
X0215905Y0212600D01*
X0212095Y0212600D01*
X0209400Y0209905D01*
X0209400Y0208854D02*
X0208600Y0208854D01*
X0208600Y0206856D02*
X0209400Y0206856D01*
X0210638Y0204857D02*
X0207362Y0204857D01*
X0212095Y0213400D02*
X0215905Y0213400D01*
X0218600Y0216095D01*
X0218600Y0219905D01*
X0215905Y0222600D01*
X0212095Y0222600D01*
X0209400Y0219905D01*
X0209400Y0216095D01*
X0212095Y0213400D01*
X0210645Y0214850D02*
X0207355Y0214850D01*
X0208600Y0216848D02*
X0209400Y0216848D01*
X0209400Y0218847D02*
X0208600Y0218847D01*
X0207660Y0220845D02*
X0210340Y0220845D01*
X0207281Y0224842D02*
X0255879Y0224842D01*
X0254385Y0222844D02*
X0246670Y0222844D01*
X0250055Y0220845D02*
X0254031Y0220845D01*
X0254031Y0218847D02*
X0251822Y0218847D01*
X0252923Y0216848D02*
X0254031Y0216848D01*
X0254031Y0214850D02*
X0253458Y0214850D01*
X0253587Y0212851D02*
X0254535Y0212851D01*
X0253379Y0210853D02*
X0256299Y0210853D01*
X0259000Y0210853D02*
X0259000Y0210853D01*
X0259000Y0212851D02*
X0259000Y0212851D01*
X0259000Y0214850D02*
X0259000Y0214850D01*
X0259000Y0216848D02*
X0259000Y0216848D01*
X0263465Y0212851D02*
X0264958Y0212851D01*
X0264431Y0214850D02*
X0263968Y0214850D01*
X0263968Y0216848D02*
X0264431Y0216848D01*
X0264431Y0218847D02*
X0263968Y0218847D01*
X0263968Y0220845D02*
X0264431Y0220845D01*
X0264832Y0222844D02*
X0263615Y0222844D01*
X0263481Y0224842D02*
X0262121Y0224842D01*
X0264000Y0228000D02*
X0204000Y0228000D01*
X0217660Y0220845D02*
X0220340Y0220845D01*
X0219400Y0218847D02*
X0218600Y0218847D01*
X0218600Y0216848D02*
X0219400Y0216848D01*
X0220645Y0214850D02*
X0217355Y0214850D01*
X0217653Y0210853D02*
X0219782Y0210853D01*
X0219000Y0208854D02*
X0218600Y0208854D01*
X0218600Y0206856D02*
X0219000Y0206856D01*
X0220072Y0204857D02*
X0217362Y0204857D01*
X0216571Y0196863D02*
X0249186Y0196863D01*
X0247188Y0194865D02*
X0218156Y0194865D01*
X0218553Y0192866D02*
X0245189Y0192866D01*
X0243191Y0190868D02*
X0218045Y0190868D01*
X0216600Y0188869D02*
X0241546Y0188869D01*
X0241400Y0186870D02*
X0216600Y0186870D01*
X0216600Y0184872D02*
X0239932Y0184872D01*
X0239800Y0182873D02*
X0216600Y0182873D01*
X0216600Y0180875D02*
X0240185Y0180875D01*
X0242184Y0178876D02*
X0216600Y0178876D01*
X0216600Y0176878D02*
X0259201Y0176878D01*
X0261199Y0178876D02*
X0245816Y0178876D01*
X0247815Y0180875D02*
X0263198Y0180875D01*
X0265197Y0182873D02*
X0248200Y0182873D01*
X0248068Y0184872D02*
X0267195Y0184872D01*
X0269194Y0186870D02*
X0246600Y0186870D01*
X0248546Y0188869D02*
X0271192Y0188869D01*
X0273191Y0190868D02*
X0250544Y0190868D01*
X0252543Y0192866D02*
X0275189Y0192866D01*
X0277188Y0194865D02*
X0254541Y0194865D01*
X0256540Y0196863D02*
X0279186Y0196863D01*
X0281185Y0198862D02*
X0258538Y0198862D01*
X0260537Y0200860D02*
X0283183Y0200860D01*
X0285182Y0202859D02*
X0262536Y0202859D01*
X0264534Y0204857D02*
X0287180Y0204857D01*
X0289179Y0206856D02*
X0266533Y0206856D01*
X0268531Y0208854D02*
X0291177Y0208854D01*
X0291400Y0210853D02*
X0286701Y0210853D01*
X0286604Y0210782D02*
X0287237Y0211242D01*
X0287790Y0211795D01*
X0288249Y0212427D01*
X0288604Y0213124D01*
X0288846Y0213868D01*
X0288968Y0214640D01*
X0288968Y0218000D01*
X0288968Y0221360D01*
X0288846Y0222132D01*
X0288604Y0222876D01*
X0288249Y0223573D01*
X0287790Y0224205D01*
X0287237Y0224758D01*
X0286604Y0225218D01*
X0285907Y0225573D01*
X0285163Y0225815D01*
X0284391Y0225937D01*
X0284000Y0225937D01*
X0284000Y0218000D01*
X0284000Y0218000D01*
X0288968Y0218000D01*
X0284000Y0218000D01*
X0284000Y0218000D01*
X0284000Y0218000D01*
X0279031Y0218000D01*
X0279031Y0214640D01*
X0279154Y0213868D01*
X0279396Y0213124D01*
X0279751Y0212427D01*
X0280210Y0211795D01*
X0280763Y0211242D01*
X0281396Y0210782D01*
X0282093Y0210427D01*
X0282837Y0210185D01*
X0283609Y0210063D01*
X0284000Y0210063D01*
X0284391Y0210063D01*
X0285163Y0210185D01*
X0285907Y0210427D01*
X0286604Y0210782D01*
X0284000Y0210853D02*
X0284000Y0210853D01*
X0284000Y0210063D02*
X0284000Y0218000D01*
X0284000Y0225937D01*
X0283609Y0225937D01*
X0282837Y0225815D01*
X0282093Y0225573D01*
X0281396Y0225218D01*
X0280763Y0224758D01*
X0280210Y0224205D01*
X0279751Y0223573D01*
X0279396Y0222876D01*
X0279154Y0222132D01*
X0279031Y0221360D01*
X0279031Y0218000D01*
X0284000Y0218000D01*
X0284000Y0218000D01*
X0284000Y0210063D01*
X0284000Y0212851D02*
X0284000Y0212851D01*
X0284000Y0214850D02*
X0284000Y0214850D01*
X0284000Y0216848D02*
X0284000Y0216848D01*
X0284000Y0218847D02*
X0284000Y0218847D01*
X0284000Y0220845D02*
X0284000Y0220845D01*
X0284000Y0222844D02*
X0284000Y0222844D01*
X0284000Y0224842D02*
X0284000Y0224842D01*
X0280879Y0224842D02*
X0271586Y0224842D01*
X0273168Y0222844D02*
X0279385Y0222844D01*
X0279031Y0220845D02*
X0273568Y0220845D01*
X0273568Y0218847D02*
X0279031Y0218847D01*
X0279031Y0216848D02*
X0273568Y0216848D01*
X0273568Y0214850D02*
X0279031Y0214850D01*
X0279535Y0212851D02*
X0273042Y0212851D01*
X0270849Y0210853D02*
X0281299Y0210853D01*
X0288465Y0212851D02*
X0289958Y0212851D01*
X0289431Y0214850D02*
X0288968Y0214850D01*
X0288968Y0216848D02*
X0289431Y0216848D01*
X0289431Y0218847D02*
X0288968Y0218847D01*
X0288968Y0220845D02*
X0289431Y0220845D01*
X0289832Y0222844D02*
X0288615Y0222844D01*
X0288481Y0224842D02*
X0287121Y0224842D01*
X0286482Y0226841D02*
X0268836Y0226841D01*
X0266838Y0228839D02*
X0284484Y0228839D01*
X0287841Y0232836D02*
X0310487Y0232836D01*
X0312485Y0230838D02*
X0289839Y0230838D01*
X0291838Y0228839D02*
X0314484Y0228839D01*
X0316400Y0226841D02*
X0293836Y0226841D01*
X0285842Y0234835D02*
X0308488Y0234835D01*
X0312121Y0224842D02*
X0316400Y0224842D01*
X0314832Y0222844D02*
X0313615Y0222844D01*
X0313968Y0220845D02*
X0314431Y0220845D01*
X0314431Y0218847D02*
X0313968Y0218847D01*
X0313968Y0216848D02*
X0314431Y0216848D01*
X0314431Y0214850D02*
X0313968Y0214850D01*
X0313465Y0212851D02*
X0314958Y0212851D01*
X0316400Y0210853D02*
X0311701Y0210853D01*
X0316400Y0208854D02*
X0296600Y0208854D01*
X0296340Y0206856D02*
X0316400Y0206856D01*
X0316400Y0204857D02*
X0294534Y0204857D01*
X0292536Y0202859D02*
X0316400Y0202859D01*
X0306069Y0186870D02*
X0353331Y0186870D01*
X0353331Y0184872D02*
X0308068Y0184872D01*
X0301931Y0186870D02*
X0276547Y0186870D01*
X0274549Y0184872D02*
X0299932Y0184872D01*
X0299800Y0182873D02*
X0272550Y0182873D01*
X0270552Y0180875D02*
X0300185Y0180875D01*
X0301400Y0178876D02*
X0268553Y0178876D01*
X0266555Y0176878D02*
X0301400Y0176878D01*
X0301400Y0174879D02*
X0264556Y0174879D01*
X0262558Y0172881D02*
X0301400Y0172881D01*
X0300943Y0170882D02*
X0260559Y0170882D01*
X0258561Y0168884D02*
X0299800Y0168884D01*
X0299800Y0166885D02*
X0256562Y0166885D01*
X0253205Y0170882D02*
X0247057Y0170882D01*
X0240943Y0170882D02*
X0216600Y0170882D01*
X0216600Y0168884D02*
X0239800Y0168884D01*
X0239800Y0166885D02*
X0216600Y0166885D01*
X0216600Y0164887D02*
X0241173Y0164887D01*
X0255204Y0172881D02*
X0216600Y0172881D01*
X0216600Y0174879D02*
X0257202Y0174879D01*
X0244000Y0183000D02*
X0244000Y0188000D01*
X0269000Y0213000D01*
X0269000Y0218000D01*
X0269000Y0223000D01*
X0264000Y0228000D01*
X0263176Y0210853D02*
X0261701Y0210853D01*
X0261177Y0208854D02*
X0252804Y0208854D01*
X0251650Y0206856D02*
X0259179Y0206856D01*
X0257180Y0204857D02*
X0249757Y0204857D01*
X0245559Y0202859D02*
X0255182Y0202859D01*
X0253183Y0200860D02*
X0027600Y0200860D01*
X0027600Y0198862D02*
X0251185Y0198862D01*
X0240787Y0202859D02*
X0027600Y0202859D01*
X0027916Y0204857D02*
X0030638Y0204857D01*
X0030347Y0210853D02*
X0029840Y0210853D01*
X0029840Y0212851D02*
X0071780Y0212851D01*
X0071929Y0213000D02*
X0069000Y0210071D01*
X0069000Y0208000D01*
X0074000Y0208000D01*
X0079000Y0208000D01*
X0079000Y0210071D01*
X0076071Y0213000D01*
X0074000Y0213000D01*
X0074000Y0208000D01*
X0074000Y0208000D01*
X0074000Y0208000D01*
X0079000Y0208000D01*
X0079000Y0205929D01*
X0076071Y0203000D01*
X0074000Y0203000D01*
X0074000Y0208000D01*
X0074000Y0208000D01*
X0074000Y0208000D01*
X0074000Y0213000D01*
X0071929Y0213000D01*
X0072095Y0213400D02*
X0075905Y0213400D01*
X0078600Y0216095D01*
X0078600Y0219905D01*
X0075905Y0222600D01*
X0072095Y0222600D01*
X0069400Y0219905D01*
X0069400Y0216095D01*
X0072095Y0213400D01*
X0074000Y0212851D02*
X0074000Y0212851D01*
X0074000Y0210853D02*
X0074000Y0210853D01*
X0074000Y0208854D02*
X0074000Y0208854D01*
X0074000Y0208000D02*
X0069000Y0208000D01*
X0069000Y0205929D01*
X0071929Y0203000D01*
X0074000Y0203000D01*
X0074000Y0208000D01*
X0074000Y0206856D02*
X0074000Y0206856D01*
X0074000Y0204857D02*
X0074000Y0204857D01*
X0077928Y0204857D02*
X0080638Y0204857D01*
X0079400Y0206095D02*
X0082095Y0203400D01*
X0085905Y0203400D01*
X0088600Y0206095D01*
X0088600Y0209905D01*
X0085905Y0212600D01*
X0082095Y0212600D01*
X0079400Y0209905D01*
X0079400Y0206095D01*
X0079400Y0206856D02*
X0079000Y0206856D01*
X0079000Y0208854D02*
X0079400Y0208854D01*
X0080347Y0210853D02*
X0078218Y0210853D01*
X0076220Y0212851D02*
X0151780Y0212851D01*
X0150645Y0214850D02*
X0147355Y0214850D01*
X0148600Y0216095D02*
X0145905Y0213400D01*
X0142095Y0213400D01*
X0139400Y0216095D01*
X0139400Y0219905D01*
X0142095Y0222600D01*
X0145905Y0222600D01*
X0148600Y0219905D01*
X0148600Y0216095D01*
X0148600Y0216848D02*
X0149400Y0216848D01*
X0149400Y0218847D02*
X0148600Y0218847D01*
X0147660Y0220845D02*
X0150340Y0220845D01*
X0145905Y0212600D02*
X0142095Y0212600D01*
X0139400Y0209905D01*
X0139400Y0206095D01*
X0142095Y0203400D01*
X0145905Y0203400D01*
X0148600Y0206095D01*
X0148600Y0209905D01*
X0145905Y0212600D01*
X0147653Y0210853D02*
X0149782Y0210853D01*
X0149000Y0208854D02*
X0148600Y0208854D01*
X0148600Y0206856D02*
X0149000Y0206856D01*
X0150072Y0204857D02*
X0147362Y0204857D01*
X0140638Y0204857D02*
X0137362Y0204857D01*
X0138600Y0206095D02*
X0135905Y0203400D01*
X0132095Y0203400D01*
X0129400Y0206095D01*
X0129400Y0209905D01*
X0132095Y0212600D01*
X0135905Y0212600D01*
X0138600Y0209905D01*
X0138600Y0206095D01*
X0138600Y0206856D02*
X0139400Y0206856D01*
X0139400Y0208854D02*
X0138600Y0208854D01*
X0137653Y0210853D02*
X0140347Y0210853D01*
X0135905Y0213400D02*
X0138600Y0216095D01*
X0138600Y0219905D01*
X0135905Y0222600D01*
X0132095Y0222600D01*
X0129400Y0219905D01*
X0129400Y0216095D01*
X0132095Y0213400D01*
X0135905Y0213400D01*
X0137355Y0214850D02*
X0140645Y0214850D01*
X0139400Y0216848D02*
X0138600Y0216848D01*
X0138600Y0218847D02*
X0139400Y0218847D01*
X0140340Y0220845D02*
X0137660Y0220845D01*
X0130340Y0220845D02*
X0128226Y0220845D01*
X0129000Y0220071D02*
X0126071Y0223000D01*
X0124000Y0223000D01*
X0124000Y0218000D01*
X0129000Y0218000D01*
X0129000Y0220071D01*
X0129000Y0218847D02*
X0129400Y0218847D01*
X0129000Y0218000D02*
X0124000Y0218000D01*
X0124000Y0218000D01*
X0124000Y0218000D01*
X0124000Y0213000D01*
X0126071Y0213000D01*
X0129000Y0215929D01*
X0129000Y0218000D01*
X0129000Y0216848D02*
X0129400Y0216848D01*
X0130645Y0214850D02*
X0127921Y0214850D01*
X0125905Y0212600D02*
X0122095Y0212600D01*
X0119400Y0209905D01*
X0119400Y0206095D01*
X0122095Y0203400D01*
X0125905Y0203400D01*
X0128600Y0206095D01*
X0128600Y0209905D01*
X0125905Y0212600D01*
X0124000Y0213000D02*
X0124000Y0218000D01*
X0124000Y0218000D01*
X0124000Y0218000D01*
X0119000Y0218000D01*
X0119000Y0220071D01*
X0121929Y0223000D01*
X0124000Y0223000D01*
X0124000Y0218000D01*
X0119000Y0218000D01*
X0119000Y0215929D01*
X0121929Y0213000D01*
X0124000Y0213000D01*
X0124000Y0214850D02*
X0124000Y0214850D01*
X0124000Y0216848D02*
X0124000Y0216848D01*
X0124000Y0218847D02*
X0124000Y0218847D01*
X0124000Y0220845D02*
X0124000Y0220845D01*
X0124000Y0222844D02*
X0124000Y0222844D01*
X0126227Y0222844D02*
X0171773Y0222844D01*
X0174000Y0222844D02*
X0174000Y0222844D01*
X0174000Y0220845D02*
X0174000Y0220845D01*
X0174000Y0218847D02*
X0174000Y0218847D01*
X0174000Y0216848D02*
X0174000Y0216848D01*
X0174000Y0214850D02*
X0174000Y0214850D01*
X0173094Y0197553D02*
X0171421Y0196860D01*
X0170140Y0195579D01*
X0169447Y0193906D01*
X0169447Y0192094D01*
X0170140Y0190421D01*
X0171400Y0189161D01*
X0171400Y0154077D01*
X0145456Y0128133D01*
X0145054Y0128300D01*
X0142946Y0128300D01*
X0140998Y0127493D01*
X0139507Y0126002D01*
X0138700Y0124054D01*
X0138700Y0121946D01*
X0139507Y0119998D01*
X0140998Y0118507D01*
X0142946Y0117700D01*
X0145054Y0117700D01*
X0147002Y0118507D01*
X0148493Y0119998D01*
X0149000Y0121222D01*
X0149507Y0119998D01*
X0150998Y0118507D01*
X0152946Y0117700D01*
X0155054Y0117700D01*
X0157002Y0118507D01*
X0158493Y0119998D01*
X0158780Y0120690D01*
X0159125Y0120013D01*
X0159652Y0119287D01*
X0160287Y0118652D01*
X0161013Y0118125D01*
X0161812Y0117718D01*
X0162665Y0117440D01*
X0163551Y0117300D01*
X0164000Y0117300D01*
X0164000Y0123000D01*
X0164000Y0123000D01*
X0164000Y0128700D01*
X0163551Y0128700D01*
X0163344Y0128667D01*
X0185473Y0150796D01*
X0186204Y0151527D01*
X0186600Y0152483D01*
X0186600Y0189161D01*
X0187860Y0190421D01*
X0188553Y0192094D01*
X0188553Y0193906D01*
X0187860Y0195579D01*
X0186579Y0196860D01*
X0184906Y0197553D01*
X0183094Y0197553D01*
X0181421Y0196860D01*
X0180140Y0195579D01*
X0179447Y0193906D01*
X0179447Y0192094D01*
X0180140Y0190421D01*
X0181400Y0189161D01*
X0181400Y0154077D01*
X0155456Y0128133D01*
X0155054Y0128300D01*
X0152977Y0128300D01*
X0175473Y0150796D01*
X0176204Y0151527D01*
X0176600Y0152483D01*
X0176600Y0189161D01*
X0177860Y0190421D01*
X0178553Y0192094D01*
X0178553Y0193906D01*
X0177860Y0195579D01*
X0176579Y0196860D01*
X0174906Y0197553D01*
X0173094Y0197553D01*
X0171429Y0196863D02*
X0029566Y0196863D01*
X0031141Y0194865D02*
X0169844Y0194865D01*
X0169447Y0192866D02*
X0031537Y0192866D01*
X0031030Y0190868D02*
X0169955Y0190868D01*
X0171400Y0188869D02*
X0028933Y0188869D01*
X0028876Y0187604D02*
X0029573Y0187249D01*
X0030205Y0186790D01*
X0030758Y0186237D01*
X0031218Y0185604D01*
X0031573Y0184907D01*
X0031815Y0184163D01*
X0031937Y0183391D01*
X0031937Y0183000D01*
X0024000Y0183000D01*
X0024000Y0183000D01*
X0024000Y0187968D01*
X0020640Y0187968D01*
X0019868Y0187846D01*
X0019124Y0187604D01*
X0018427Y0187249D01*
X0017795Y0186790D01*
X0017242Y0186237D01*
X0016782Y0185604D01*
X0016427Y0184907D01*
X0016185Y0184163D01*
X0016063Y0183391D01*
X0016063Y0183000D01*
X0024000Y0183000D01*
X0024000Y0183000D01*
X0024000Y0178031D01*
X0027360Y0178031D01*
X0028132Y0178154D01*
X0028876Y0178396D01*
X0029573Y0178751D01*
X0030205Y0179210D01*
X0030758Y0179763D01*
X0031218Y0180396D01*
X0031573Y0181093D01*
X0031815Y0181837D01*
X0031937Y0182609D01*
X0031937Y0183000D01*
X0024000Y0183000D01*
X0024000Y0183000D01*
X0024000Y0183000D01*
X0024000Y0187968D01*
X0027360Y0187968D01*
X0028132Y0187846D01*
X0028876Y0187604D01*
X0030094Y0186870D02*
X0171400Y0186870D01*
X0171400Y0184872D02*
X0031584Y0184872D01*
X0031937Y0182873D02*
X0171400Y0182873D01*
X0171400Y0180875D02*
X0031462Y0180875D01*
X0029746Y0178876D02*
X0171400Y0178876D01*
X0171400Y0176878D02*
X0009000Y0176878D01*
X0009000Y0178876D02*
X0018254Y0178876D01*
X0018427Y0178751D02*
X0019124Y0178396D01*
X0019868Y0178154D01*
X0020640Y0178031D01*
X0024000Y0178031D01*
X0024000Y0183000D01*
X0016063Y0183000D01*
X0016063Y0182609D01*
X0016185Y0181837D01*
X0016427Y0181093D01*
X0016782Y0180396D01*
X0017242Y0179763D01*
X0017795Y0179210D01*
X0018427Y0178751D01*
X0016538Y0180875D02*
X0009000Y0180875D01*
X0009000Y0182873D02*
X0016063Y0182873D01*
X0016416Y0184872D02*
X0009000Y0184872D01*
X0009000Y0186870D02*
X0017906Y0186870D01*
X0019067Y0188869D02*
X0009000Y0188869D01*
X0009000Y0190868D02*
X0016970Y0190868D01*
X0016463Y0192866D02*
X0009000Y0192866D01*
X0009000Y0194865D02*
X0016859Y0194865D01*
X0018434Y0196863D02*
X0009000Y0196863D01*
X0009000Y0198862D02*
X0020400Y0198862D01*
X0020400Y0200860D02*
X0009000Y0200860D01*
X0009000Y0202859D02*
X0012441Y0202859D01*
X0017213Y0202859D02*
X0020400Y0202859D01*
X0029840Y0214850D02*
X0030645Y0214850D01*
X0030340Y0220845D02*
X0028214Y0220845D01*
X0027600Y0222844D02*
X0051773Y0222844D01*
X0051929Y0223000D02*
X0049000Y0220071D01*
X0049000Y0218000D01*
X0054000Y0218000D01*
X0059000Y0218000D01*
X0059000Y0220071D01*
X0056071Y0223000D01*
X0054000Y0223000D01*
X0054000Y0218000D01*
X0054000Y0218000D01*
X0054000Y0218000D01*
X0059000Y0218000D01*
X0059000Y0215929D01*
X0056071Y0213000D01*
X0054000Y0213000D01*
X0054000Y0218000D01*
X0054000Y0218000D01*
X0054000Y0218000D01*
X0054000Y0223000D01*
X0051929Y0223000D01*
X0054000Y0222844D02*
X0054000Y0222844D01*
X0054000Y0220845D02*
X0054000Y0220845D01*
X0054000Y0218847D02*
X0054000Y0218847D01*
X0054000Y0218000D02*
X0049000Y0218000D01*
X0049000Y0215929D01*
X0051929Y0213000D01*
X0054000Y0213000D01*
X0054000Y0218000D01*
X0054000Y0216848D02*
X0054000Y0216848D01*
X0054000Y0214850D02*
X0054000Y0214850D01*
X0052095Y0212600D02*
X0049400Y0209905D01*
X0049400Y0206095D01*
X0052095Y0203400D01*
X0055905Y0203400D01*
X0058600Y0206095D01*
X0058600Y0209905D01*
X0055905Y0212600D01*
X0052095Y0212600D01*
X0050347Y0210853D02*
X0047653Y0210853D01*
X0048600Y0209905D02*
X0045905Y0212600D01*
X0042095Y0212600D01*
X0039400Y0209905D01*
X0039400Y0206095D01*
X0042095Y0203400D01*
X0045905Y0203400D01*
X0048600Y0206095D01*
X0048600Y0209905D01*
X0048600Y0208854D02*
X0049400Y0208854D01*
X0049400Y0206856D02*
X0048600Y0206856D01*
X0047362Y0204857D02*
X0050638Y0204857D01*
X0057362Y0204857D02*
X0060638Y0204857D01*
X0059400Y0206095D02*
X0062095Y0203400D01*
X0065905Y0203400D01*
X0068600Y0206095D01*
X0068600Y0209905D01*
X0065905Y0212600D01*
X0062095Y0212600D01*
X0059400Y0209905D01*
X0059400Y0206095D01*
X0059400Y0206856D02*
X0058600Y0206856D01*
X0058600Y0208854D02*
X0059400Y0208854D01*
X0060347Y0210853D02*
X0057653Y0210853D01*
X0057921Y0214850D02*
X0060645Y0214850D01*
X0059400Y0216095D02*
X0062095Y0213400D01*
X0065905Y0213400D01*
X0068600Y0216095D01*
X0068600Y0219905D01*
X0065905Y0222600D01*
X0062095Y0222600D01*
X0059400Y0219905D01*
X0059400Y0216095D01*
X0059400Y0216848D02*
X0059000Y0216848D01*
X0059000Y0218847D02*
X0059400Y0218847D01*
X0060340Y0220845D02*
X0058226Y0220845D01*
X0056227Y0222844D02*
X0121773Y0222844D01*
X0119774Y0220845D02*
X0117660Y0220845D01*
X0118600Y0219905D02*
X0115905Y0222600D01*
X0112095Y0222600D01*
X0109400Y0219905D01*
X0109400Y0216095D01*
X0112095Y0213400D01*
X0115905Y0213400D01*
X0118600Y0216095D01*
X0118600Y0219905D01*
X0118600Y0218847D02*
X0119000Y0218847D01*
X0119000Y0216848D02*
X0118600Y0216848D01*
X0117355Y0214850D02*
X0120079Y0214850D01*
X0115905Y0212600D02*
X0112095Y0212600D01*
X0109400Y0209905D01*
X0109400Y0206095D01*
X0112095Y0203400D01*
X0115905Y0203400D01*
X0118600Y0206095D01*
X0118600Y0209905D01*
X0115905Y0212600D01*
X0117653Y0210853D02*
X0120347Y0210853D01*
X0119400Y0208854D02*
X0118600Y0208854D01*
X0118600Y0206856D02*
X0119400Y0206856D01*
X0120638Y0204857D02*
X0117362Y0204857D01*
X0110638Y0204857D02*
X0107362Y0204857D01*
X0108600Y0206095D02*
X0105905Y0203400D01*
X0102095Y0203400D01*
X0099400Y0206095D01*
X0099400Y0209905D01*
X0102095Y0212600D01*
X0105905Y0212600D01*
X0108600Y0209905D01*
X0108600Y0206095D01*
X0108600Y0206856D02*
X0109400Y0206856D01*
X0109400Y0208854D02*
X0108600Y0208854D01*
X0107653Y0210853D02*
X0110347Y0210853D01*
X0105905Y0213400D02*
X0108600Y0216095D01*
X0108600Y0219905D01*
X0105905Y0222600D01*
X0102095Y0222600D01*
X0099400Y0219905D01*
X0099400Y0216095D01*
X0102095Y0213400D01*
X0105905Y0213400D01*
X0107355Y0214850D02*
X0110645Y0214850D01*
X0109400Y0216848D02*
X0108600Y0216848D01*
X0108600Y0218847D02*
X0109400Y0218847D01*
X0110340Y0220845D02*
X0107660Y0220845D01*
X0100340Y0220845D02*
X0097660Y0220845D01*
X0098600Y0219905D02*
X0095905Y0222600D01*
X0092095Y0222600D01*
X0089400Y0219905D01*
X0089400Y0216095D01*
X0092095Y0213400D01*
X0095905Y0213400D01*
X0098600Y0216095D01*
X0098600Y0219905D01*
X0098600Y0218847D02*
X0099400Y0218847D01*
X0099400Y0216848D02*
X0098600Y0216848D01*
X0097355Y0214850D02*
X0100645Y0214850D01*
X0095905Y0212600D02*
X0092095Y0212600D01*
X0089400Y0209905D01*
X0089400Y0206095D01*
X0092095Y0203400D01*
X0095905Y0203400D01*
X0098600Y0206095D01*
X0098600Y0209905D01*
X0095905Y0212600D01*
X0097653Y0210853D02*
X0100347Y0210853D01*
X0099400Y0208854D02*
X0098600Y0208854D01*
X0098600Y0206856D02*
X0099400Y0206856D01*
X0100638Y0204857D02*
X0097362Y0204857D01*
X0090638Y0204857D02*
X0087362Y0204857D01*
X0088600Y0206856D02*
X0089400Y0206856D01*
X0089400Y0208854D02*
X0088600Y0208854D01*
X0087653Y0210853D02*
X0090347Y0210853D01*
X0090645Y0214850D02*
X0087355Y0214850D01*
X0088600Y0216095D02*
X0085905Y0213400D01*
X0082095Y0213400D01*
X0079400Y0216095D01*
X0079400Y0219905D01*
X0082095Y0222600D01*
X0085905Y0222600D01*
X0088600Y0219905D01*
X0088600Y0216095D01*
X0088600Y0216848D02*
X0089400Y0216848D01*
X0089400Y0218847D02*
X0088600Y0218847D01*
X0087660Y0220845D02*
X0090340Y0220845D01*
X0080340Y0220845D02*
X0077660Y0220845D01*
X0078600Y0218847D02*
X0079400Y0218847D01*
X0079400Y0216848D02*
X0078600Y0216848D01*
X0077355Y0214850D02*
X0080645Y0214850D01*
X0070645Y0214850D02*
X0067355Y0214850D01*
X0068600Y0216848D02*
X0069400Y0216848D01*
X0069400Y0218847D02*
X0068600Y0218847D01*
X0067660Y0220845D02*
X0070340Y0220845D01*
X0069782Y0210853D02*
X0067653Y0210853D01*
X0068600Y0208854D02*
X0069000Y0208854D01*
X0069000Y0206856D02*
X0068600Y0206856D01*
X0067362Y0204857D02*
X0070072Y0204857D01*
X0050079Y0214850D02*
X0047355Y0214850D01*
X0048600Y0216095D02*
X0045905Y0213400D01*
X0042095Y0213400D01*
X0039400Y0216095D01*
X0039400Y0219905D01*
X0042095Y0222600D01*
X0045905Y0222600D01*
X0048600Y0219905D01*
X0048600Y0216095D01*
X0048600Y0216848D02*
X0049000Y0216848D01*
X0049000Y0218847D02*
X0048600Y0218847D01*
X0047660Y0220845D02*
X0049774Y0220845D01*
X0040340Y0220845D02*
X0037660Y0220845D01*
X0038600Y0218847D02*
X0039400Y0218847D01*
X0039400Y0216848D02*
X0038600Y0216848D01*
X0037355Y0214850D02*
X0040645Y0214850D01*
X0040347Y0210853D02*
X0037653Y0210853D01*
X0038600Y0208854D02*
X0039400Y0208854D01*
X0039400Y0206856D02*
X0038600Y0206856D01*
X0037362Y0204857D02*
X0040638Y0204857D01*
X0024000Y0186870D02*
X0024000Y0186870D01*
X0024000Y0184872D02*
X0024000Y0184872D01*
X0024000Y0182873D02*
X0024000Y0182873D01*
X0024000Y0180875D02*
X0024000Y0180875D01*
X0024000Y0178876D02*
X0024000Y0178876D01*
X0024000Y0172968D02*
X0020640Y0172968D01*
X0019868Y0172846D01*
X0019124Y0172604D01*
X0018427Y0172249D01*
X0017795Y0171790D01*
X0017242Y0171237D01*
X0016782Y0170604D01*
X0016427Y0169907D01*
X0016185Y0169163D01*
X0016063Y0168391D01*
X0016063Y0168000D01*
X0024000Y0168000D01*
X0024000Y0168000D01*
X0024000Y0172968D01*
X0024000Y0168000D01*
X0031937Y0168000D01*
X0031937Y0168391D01*
X0031815Y0169163D01*
X0031573Y0169907D01*
X0031218Y0170604D01*
X0030758Y0171237D01*
X0030205Y0171790D01*
X0029573Y0172249D01*
X0028876Y0172604D01*
X0028132Y0172846D01*
X0027360Y0172968D01*
X0024000Y0172968D01*
X0024000Y0172881D02*
X0024000Y0172881D01*
X0024000Y0170882D02*
X0024000Y0170882D01*
X0024000Y0168884D02*
X0024000Y0168884D01*
X0024000Y0168000D02*
X0024000Y0168000D01*
X0024000Y0168000D01*
X0024000Y0163031D01*
X0027360Y0163031D01*
X0028132Y0163154D01*
X0028876Y0163396D01*
X0029573Y0163751D01*
X0030205Y0164210D01*
X0030758Y0164763D01*
X0031218Y0165396D01*
X0031573Y0166093D01*
X0031815Y0166837D01*
X0031937Y0167609D01*
X0031937Y0168000D01*
X0024000Y0168000D01*
X0024000Y0168000D01*
X0024000Y0163031D01*
X0020640Y0163031D01*
X0019868Y0163154D01*
X0019124Y0163396D01*
X0018427Y0163751D01*
X0017795Y0164210D01*
X0017242Y0164763D01*
X0016782Y0165396D01*
X0016427Y0166093D01*
X0016185Y0166837D01*
X0016063Y0167609D01*
X0016063Y0168000D01*
X0024000Y0168000D01*
X0024000Y0166885D02*
X0024000Y0166885D01*
X0024000Y0164887D02*
X0024000Y0164887D01*
X0030848Y0164887D02*
X0171400Y0164887D01*
X0171400Y0166885D02*
X0031822Y0166885D01*
X0031859Y0168884D02*
X0171400Y0168884D01*
X0171400Y0170882D02*
X0031016Y0170882D01*
X0027913Y0172881D02*
X0171400Y0172881D01*
X0171400Y0174879D02*
X0009000Y0174879D01*
X0009000Y0172881D02*
X0020087Y0172881D01*
X0016984Y0170882D02*
X0009000Y0170882D01*
X0009000Y0168884D02*
X0016141Y0168884D01*
X0016178Y0166885D02*
X0009000Y0166885D01*
X0009000Y0164887D02*
X0017152Y0164887D01*
X0017461Y0160890D02*
X0009000Y0160890D01*
X0009000Y0162888D02*
X0171400Y0162888D01*
X0171400Y0160890D02*
X0030539Y0160890D01*
X0031537Y0158891D02*
X0171400Y0158891D01*
X0171400Y0156893D02*
X0031455Y0156893D01*
X0030324Y0154894D02*
X0171400Y0154894D01*
X0170219Y0152896D02*
X0012573Y0152896D01*
X0011600Y0150897D02*
X0017468Y0150897D01*
X0016463Y0148899D02*
X0011600Y0148899D01*
X0011600Y0146900D02*
X0016542Y0146900D01*
X0017669Y0144902D02*
X0011600Y0144902D01*
X0011600Y0142903D02*
X0041400Y0142903D01*
X0041400Y0140905D02*
X0030525Y0140905D01*
X0031537Y0138906D02*
X0041400Y0138906D01*
X0041400Y0136908D02*
X0031461Y0136908D01*
X0030339Y0134909D02*
X0041400Y0134909D01*
X0041400Y0132911D02*
X0026600Y0132911D01*
X0026600Y0130912D02*
X0041400Y0130912D01*
X0041400Y0128914D02*
X0026600Y0128914D01*
X0026600Y0126915D02*
X0041400Y0126915D01*
X0041400Y0124917D02*
X0026600Y0124917D01*
X0026600Y0122918D02*
X0041400Y0122918D01*
X0041400Y0120920D02*
X0026600Y0120920D01*
X0026600Y0118921D02*
X0041400Y0118921D01*
X0041400Y0116923D02*
X0026600Y0116923D01*
X0026600Y0114924D02*
X0041400Y0114924D01*
X0041400Y0112926D02*
X0026600Y0112926D01*
X0026600Y0110927D02*
X0041400Y0110927D01*
X0041400Y0108929D02*
X0026600Y0108929D01*
X0026600Y0106930D02*
X0041400Y0106930D01*
X0041400Y0104932D02*
X0026600Y0104932D01*
X0026600Y0102933D02*
X0041400Y0102933D01*
X0041400Y0100934D02*
X0026600Y0100934D01*
X0026600Y0098936D02*
X0041400Y0098936D01*
X0041400Y0096937D02*
X0026600Y0096937D01*
X0026600Y0094939D02*
X0041400Y0094939D01*
X0041400Y0092940D02*
X0026600Y0092940D01*
X0026600Y0090942D02*
X0042381Y0090942D01*
X0044000Y0093000D02*
X0044000Y0148000D01*
X0024000Y0148000D01*
X0030331Y0144902D02*
X0041400Y0144902D01*
X0046600Y0144902D02*
X0162225Y0144902D01*
X0164223Y0146900D02*
X0046600Y0146900D01*
X0046442Y0148899D02*
X0166222Y0148899D01*
X0168220Y0150897D02*
X0030532Y0150897D01*
X0024000Y0158000D02*
X0014000Y0158000D01*
X0009000Y0153000D01*
X0009000Y0083000D01*
X0024000Y0068000D01*
X0064000Y0068000D01*
X0074000Y0068000D01*
X0074000Y0048000D01*
X0114000Y0048000D01*
X0124000Y0038000D01*
X0121341Y0036982D02*
X0043695Y0036982D01*
X0041696Y0038981D02*
X0119342Y0038981D01*
X0117344Y0040979D02*
X0056313Y0040979D01*
X0058141Y0042978D02*
X0115345Y0042978D01*
X0113347Y0044976D02*
X0077694Y0044976D01*
X0074000Y0048000D02*
X0054000Y0048000D01*
X0049400Y0048973D02*
X0049000Y0048973D01*
X0049000Y0048000D02*
X0044000Y0048000D01*
X0044000Y0048000D01*
X0044000Y0048000D01*
X0044000Y0056000D01*
X0044394Y0056000D01*
X0045171Y0055877D01*
X0045919Y0055634D01*
X0046621Y0055276D01*
X0047257Y0054814D01*
X0047814Y0054257D01*
X0048276Y0053621D01*
X0048634Y0052919D01*
X0048877Y0052171D01*
X0049000Y0051394D01*
X0049000Y0048000D01*
X0044000Y0048000D01*
X0044000Y0040000D01*
X0044394Y0040000D01*
X0045171Y0040123D01*
X0045919Y0040366D01*
X0046621Y0040724D01*
X0047257Y0041186D01*
X0047814Y0041743D01*
X0048276Y0042379D01*
X0048634Y0043081D01*
X0048877Y0043829D01*
X0049000Y0044606D01*
X0049000Y0048000D01*
X0049000Y0046975D02*
X0049400Y0046975D01*
X0049400Y0044976D02*
X0049000Y0044976D01*
X0048581Y0042978D02*
X0049859Y0042978D01*
X0051687Y0040979D02*
X0046972Y0040979D01*
X0044000Y0040979D02*
X0044000Y0040979D01*
X0044000Y0040000D02*
X0044000Y0048000D01*
X0044000Y0048000D01*
X0044000Y0048000D01*
X0039000Y0048000D01*
X0039000Y0051394D01*
X0039123Y0052171D01*
X0039366Y0052919D01*
X0039724Y0053621D01*
X0040186Y0054257D01*
X0040743Y0054814D01*
X0041379Y0055276D01*
X0042081Y0055634D01*
X0042829Y0055877D01*
X0043606Y0056000D01*
X0044000Y0056000D01*
X0044000Y0048000D01*
X0039000Y0048000D01*
X0039000Y0044606D01*
X0039123Y0043829D01*
X0039366Y0043081D01*
X0039724Y0042379D01*
X0040186Y0041743D01*
X0040743Y0041186D01*
X0041379Y0040724D01*
X0042081Y0040366D01*
X0042829Y0040123D01*
X0043606Y0040000D01*
X0044000Y0040000D01*
X0041028Y0040979D02*
X0039698Y0040979D01*
X0039419Y0042978D02*
X0038141Y0042978D01*
X0038600Y0044976D02*
X0039000Y0044976D01*
X0039000Y0046975D02*
X0038600Y0046975D01*
X0038600Y0048973D02*
X0039000Y0048973D01*
X0039000Y0050972D02*
X0038600Y0050972D01*
X0038163Y0052970D02*
X0039392Y0052970D01*
X0040956Y0054969D02*
X0036439Y0054969D01*
X0031561Y0054969D02*
X0009000Y0054969D01*
X0009000Y0056967D02*
X0071400Y0056967D01*
X0071400Y0054969D02*
X0056439Y0054969D01*
X0058163Y0052970D02*
X0071400Y0052970D01*
X0070254Y0050972D02*
X0058600Y0050972D01*
X0051561Y0054969D02*
X0047044Y0054969D01*
X0048608Y0052970D02*
X0049837Y0052970D01*
X0049400Y0050972D02*
X0049000Y0050972D01*
X0044000Y0050972D02*
X0044000Y0050972D01*
X0044000Y0052970D02*
X0044000Y0052970D01*
X0044000Y0054969D02*
X0044000Y0054969D01*
X0044000Y0048973D02*
X0044000Y0048973D01*
X0044000Y0046975D02*
X0044000Y0046975D01*
X0044000Y0044976D02*
X0044000Y0044976D01*
X0044000Y0042978D02*
X0044000Y0042978D01*
X0040338Y0032985D02*
X0016298Y0032985D01*
X0018297Y0030987D02*
X0042336Y0030987D01*
X0042948Y0028988D02*
X0044335Y0028988D01*
X0044478Y0026990D02*
X0043869Y0026990D01*
X0043968Y0024991D02*
X0044431Y0024991D01*
X0044431Y0022993D02*
X0043968Y0022993D01*
X0043968Y0020994D02*
X0044431Y0020994D01*
X0044484Y0018996D02*
X0043866Y0018996D01*
X0039000Y0024991D02*
X0039000Y0024991D01*
X0039000Y0026990D02*
X0039000Y0026990D01*
X0039000Y0028988D02*
X0039000Y0028988D01*
X0035052Y0028988D02*
X0019150Y0028988D01*
X0019150Y0026990D02*
X0034131Y0026990D01*
X0034031Y0024991D02*
X0018274Y0024991D01*
X0016276Y0022993D02*
X0034031Y0022993D01*
X0034031Y0020994D02*
X0009000Y0020994D01*
X0009000Y0018996D02*
X0034134Y0018996D01*
X0053516Y0018996D02*
X0353331Y0018996D01*
X0353331Y0020994D02*
X0053568Y0020994D01*
X0058600Y0044976D02*
X0070306Y0044976D01*
X0071400Y0058966D02*
X0009000Y0058966D01*
X0009000Y0060964D02*
X0071400Y0060964D01*
X0071400Y0062963D02*
X0009000Y0062963D01*
X0009000Y0064961D02*
X0071400Y0064961D01*
X0064000Y0068000D02*
X0064000Y0103000D01*
X0054000Y0103000D01*
X0049119Y0100934D02*
X0046600Y0100934D01*
X0046600Y0098936D02*
X0050569Y0098936D01*
X0050442Y0096937D02*
X0046600Y0096937D01*
X0044000Y0093000D02*
X0054000Y0093000D01*
X0057439Y0088943D02*
X0061400Y0088943D01*
X0061400Y0086945D02*
X0057550Y0086945D01*
X0058930Y0084946D02*
X0061400Y0084946D01*
X0061400Y0082948D02*
X0059300Y0082948D01*
X0058887Y0080949D02*
X0061400Y0080949D01*
X0061400Y0078951D02*
X0057446Y0078951D01*
X0054000Y0083000D02*
X0024000Y0083000D01*
X0024000Y0138000D01*
X0021400Y0132911D02*
X0011600Y0132911D01*
X0011600Y0134909D02*
X0017661Y0134909D01*
X0016539Y0136908D02*
X0011600Y0136908D01*
X0011600Y0138906D02*
X0016463Y0138906D01*
X0017475Y0140905D02*
X0011600Y0140905D01*
X0011600Y0130912D02*
X0021400Y0130912D01*
X0021400Y0128914D02*
X0011600Y0128914D01*
X0011600Y0126915D02*
X0021400Y0126915D01*
X0021400Y0124917D02*
X0011600Y0124917D01*
X0011600Y0122918D02*
X0021400Y0122918D01*
X0021400Y0120920D02*
X0011600Y0120920D01*
X0011600Y0118921D02*
X0021400Y0118921D01*
X0021400Y0116923D02*
X0011600Y0116923D01*
X0011600Y0114924D02*
X0021400Y0114924D01*
X0021400Y0112926D02*
X0011600Y0112926D01*
X0011600Y0110927D02*
X0021400Y0110927D01*
X0021400Y0108929D02*
X0011600Y0108929D01*
X0011600Y0106930D02*
X0021400Y0106930D01*
X0021400Y0104932D02*
X0011600Y0104932D01*
X0011600Y0102933D02*
X0021400Y0102933D01*
X0021400Y0100934D02*
X0011600Y0100934D01*
X0011600Y0098936D02*
X0021400Y0098936D01*
X0021400Y0096937D02*
X0011600Y0096937D01*
X0011600Y0094939D02*
X0021400Y0094939D01*
X0021400Y0092940D02*
X0011600Y0092940D01*
X0011600Y0090942D02*
X0021400Y0090942D01*
X0021400Y0088943D02*
X0011600Y0088943D01*
X0011600Y0086945D02*
X0021400Y0086945D01*
X0021400Y0084946D02*
X0011600Y0084946D01*
X0012729Y0082948D02*
X0021400Y0082948D01*
X0022374Y0080949D02*
X0014728Y0080949D01*
X0016726Y0078951D02*
X0050554Y0078951D01*
X0050450Y0086945D02*
X0026600Y0086945D01*
X0026600Y0088943D02*
X0050561Y0088943D01*
X0058884Y0090942D02*
X0061400Y0090942D01*
X0061400Y0092940D02*
X0059300Y0092940D01*
X0058934Y0094939D02*
X0061400Y0094939D01*
X0061400Y0096937D02*
X0057558Y0096937D01*
X0057431Y0098936D02*
X0061400Y0098936D01*
X0071086Y0098936D02*
X0090569Y0098936D01*
X0090442Y0096937D02*
X0086391Y0096937D01*
X0090435Y0106930D02*
X0071409Y0106930D01*
X0066591Y0106930D02*
X0057565Y0106930D01*
X0057990Y0108929D02*
X0090010Y0108929D01*
X0088680Y0110927D02*
X0059320Y0110927D01*
X0059700Y0112926D02*
X0088300Y0112926D01*
X0088632Y0114924D02*
X0059368Y0114924D01*
X0058138Y0116923D02*
X0089862Y0116923D01*
X0090584Y0118921D02*
X0057416Y0118921D01*
X0058875Y0120920D02*
X0089125Y0120920D01*
X0088700Y0122918D02*
X0059300Y0122918D01*
X0058943Y0124917D02*
X0089057Y0124917D01*
X0090420Y0126915D02*
X0057580Y0126915D01*
X0057409Y0128914D02*
X0090591Y0128914D01*
X0089128Y0130912D02*
X0058872Y0130912D01*
X0059300Y0132911D02*
X0088700Y0132911D01*
X0089054Y0134909D02*
X0058946Y0134909D01*
X0057588Y0136908D02*
X0090412Y0136908D01*
X0097588Y0136908D02*
X0154231Y0136908D01*
X0156229Y0138906D02*
X0046600Y0138906D01*
X0046600Y0136908D02*
X0050412Y0136908D01*
X0049054Y0134909D02*
X0046600Y0134909D01*
X0046600Y0132911D02*
X0048700Y0132911D01*
X0049128Y0130912D02*
X0046600Y0130912D01*
X0046600Y0128914D02*
X0050591Y0128914D01*
X0050420Y0126915D02*
X0046600Y0126915D01*
X0046600Y0124917D02*
X0049057Y0124917D01*
X0048700Y0122918D02*
X0046600Y0122918D01*
X0046600Y0120920D02*
X0049125Y0120920D01*
X0050584Y0118921D02*
X0046600Y0118921D01*
X0046600Y0116923D02*
X0049862Y0116923D01*
X0048632Y0114924D02*
X0046600Y0114924D01*
X0046600Y0112926D02*
X0048300Y0112926D01*
X0048680Y0110927D02*
X0046600Y0110927D01*
X0046600Y0108929D02*
X0050010Y0108929D01*
X0050435Y0106930D02*
X0046600Y0106930D01*
X0046600Y0104932D02*
X0049063Y0104932D01*
X0048700Y0102933D02*
X0046600Y0102933D01*
X0066600Y0086945D02*
X0076627Y0086945D01*
X0074878Y0084946D02*
X0066600Y0084946D01*
X0066600Y0082948D02*
X0074447Y0082948D01*
X0074922Y0080949D02*
X0066600Y0080949D01*
X0066600Y0078951D02*
X0076879Y0078951D01*
X0081121Y0078951D02*
X0090554Y0078951D01*
X0094000Y0083000D02*
X0079000Y0083000D01*
X0061400Y0076952D02*
X0018725Y0076952D01*
X0020723Y0074954D02*
X0061400Y0074954D01*
X0061400Y0072955D02*
X0022722Y0072955D01*
X0024720Y0070957D02*
X0061400Y0070957D01*
X0029837Y0052970D02*
X0009000Y0052970D01*
X0009000Y0050972D02*
X0010254Y0050972D01*
X0009250Y0048973D02*
X0009000Y0048973D01*
X0009000Y0046975D02*
X0009250Y0046975D01*
X0009000Y0044976D02*
X0010306Y0044976D01*
X0017746Y0050972D02*
X0029400Y0050972D01*
X0021363Y0066960D02*
X0009000Y0066960D01*
X0009000Y0068958D02*
X0019365Y0068958D01*
X0017366Y0070957D02*
X0009000Y0070957D01*
X0009000Y0072955D02*
X0015368Y0072955D01*
X0013369Y0074954D02*
X0009000Y0074954D01*
X0009000Y0076952D02*
X0011371Y0076952D01*
X0009372Y0078951D02*
X0009000Y0078951D01*
X0046600Y0140905D02*
X0158228Y0140905D01*
X0160226Y0142903D02*
X0046600Y0142903D01*
X0017676Y0154894D02*
X0014571Y0154894D01*
X0011214Y0158891D02*
X0009000Y0158891D01*
X0009000Y0156893D02*
X0009216Y0156893D01*
X0097409Y0128914D02*
X0146237Y0128914D01*
X0148235Y0130912D02*
X0098872Y0130912D01*
X0099300Y0132911D02*
X0150234Y0132911D01*
X0152232Y0134909D02*
X0098946Y0134909D01*
X0097580Y0126915D02*
X0140420Y0126915D01*
X0139057Y0124917D02*
X0098943Y0124917D01*
X0099300Y0122918D02*
X0138700Y0122918D01*
X0139125Y0120920D02*
X0098875Y0120920D01*
X0097416Y0118921D02*
X0140584Y0118921D01*
X0144000Y0123000D02*
X0174000Y0153000D01*
X0174000Y0193000D01*
X0178156Y0194865D02*
X0179844Y0194865D01*
X0179447Y0192866D02*
X0178553Y0192866D01*
X0178045Y0190868D02*
X0179955Y0190868D01*
X0181400Y0188869D02*
X0176600Y0188869D01*
X0176600Y0186870D02*
X0181400Y0186870D01*
X0181400Y0184872D02*
X0176600Y0184872D01*
X0176600Y0182873D02*
X0181400Y0182873D01*
X0181400Y0180875D02*
X0176600Y0180875D01*
X0176600Y0178876D02*
X0181400Y0178876D01*
X0181400Y0176878D02*
X0176600Y0176878D01*
X0176600Y0174879D02*
X0181400Y0174879D01*
X0181400Y0172881D02*
X0176600Y0172881D01*
X0176600Y0170882D02*
X0181400Y0170882D01*
X0181400Y0168884D02*
X0176600Y0168884D01*
X0176600Y0166885D02*
X0181400Y0166885D01*
X0181400Y0164887D02*
X0176600Y0164887D01*
X0176600Y0162888D02*
X0181400Y0162888D01*
X0181400Y0160890D02*
X0176600Y0160890D01*
X0176600Y0158891D02*
X0181400Y0158891D01*
X0181400Y0156893D02*
X0176600Y0156893D01*
X0176600Y0154894D02*
X0181400Y0154894D01*
X0180219Y0152896D02*
X0176600Y0152896D01*
X0175574Y0150897D02*
X0178220Y0150897D01*
X0176222Y0148899D02*
X0173576Y0148899D01*
X0174223Y0146900D02*
X0171577Y0146900D01*
X0172225Y0144902D02*
X0169579Y0144902D01*
X0170226Y0142903D02*
X0167580Y0142903D01*
X0168228Y0140905D02*
X0165582Y0140905D01*
X0166229Y0138906D02*
X0163583Y0138906D01*
X0164231Y0136908D02*
X0161585Y0136908D01*
X0162232Y0134909D02*
X0159586Y0134909D01*
X0160234Y0132911D02*
X0157588Y0132911D01*
X0158235Y0130912D02*
X0155589Y0130912D01*
X0156237Y0128914D02*
X0153591Y0128914D01*
X0154000Y0123000D02*
X0184000Y0153000D01*
X0184000Y0193000D01*
X0181429Y0196863D02*
X0176571Y0196863D01*
X0186571Y0196863D02*
X0201429Y0196863D01*
X0199844Y0194865D02*
X0188156Y0194865D01*
X0188553Y0192866D02*
X0199447Y0192866D01*
X0199955Y0190868D02*
X0188045Y0190868D01*
X0186600Y0188869D02*
X0201400Y0188869D01*
X0201400Y0186870D02*
X0186600Y0186870D01*
X0186600Y0184872D02*
X0201400Y0184872D01*
X0201400Y0182873D02*
X0186600Y0182873D01*
X0186600Y0180875D02*
X0201400Y0180875D01*
X0201400Y0178876D02*
X0186600Y0178876D01*
X0186600Y0176878D02*
X0201400Y0176878D01*
X0201400Y0174879D02*
X0186600Y0174879D01*
X0186600Y0172881D02*
X0201400Y0172881D01*
X0201400Y0170882D02*
X0186600Y0170882D01*
X0186600Y0168884D02*
X0201400Y0168884D01*
X0201400Y0166885D02*
X0186600Y0166885D01*
X0186600Y0164887D02*
X0201400Y0164887D01*
X0201400Y0162888D02*
X0186600Y0162888D01*
X0186600Y0160890D02*
X0201400Y0160890D01*
X0201400Y0158891D02*
X0186600Y0158891D01*
X0186600Y0156893D02*
X0201400Y0156893D01*
X0201400Y0154894D02*
X0186600Y0154894D01*
X0186600Y0152896D02*
X0201400Y0152896D01*
X0201400Y0150897D02*
X0185574Y0150897D01*
X0183576Y0148899D02*
X0201400Y0148899D01*
X0201400Y0146900D02*
X0181577Y0146900D01*
X0179579Y0144902D02*
X0201400Y0144902D01*
X0200226Y0142903D02*
X0177580Y0142903D01*
X0175582Y0140905D02*
X0198228Y0140905D01*
X0196229Y0138906D02*
X0173583Y0138906D01*
X0171585Y0136908D02*
X0194231Y0136908D01*
X0192232Y0134909D02*
X0169586Y0134909D01*
X0167588Y0132911D02*
X0190234Y0132911D01*
X0188235Y0130912D02*
X0165589Y0130912D01*
X0163591Y0128914D02*
X0186237Y0128914D01*
X0180420Y0126915D02*
X0177580Y0126915D01*
X0178943Y0124917D02*
X0179057Y0124917D01*
X0184000Y0123000D02*
X0204000Y0143000D01*
X0204000Y0193000D01*
X0208156Y0194865D02*
X0209844Y0194865D01*
X0209447Y0192866D02*
X0208553Y0192866D01*
X0208045Y0190868D02*
X0209955Y0190868D01*
X0211400Y0188869D02*
X0206600Y0188869D01*
X0206600Y0186870D02*
X0211400Y0186870D01*
X0211400Y0184872D02*
X0206600Y0184872D01*
X0206600Y0182873D02*
X0211400Y0182873D01*
X0211400Y0180875D02*
X0206600Y0180875D01*
X0206600Y0178876D02*
X0211400Y0178876D01*
X0211400Y0176878D02*
X0206600Y0176878D01*
X0206600Y0174879D02*
X0211400Y0174879D01*
X0211400Y0172881D02*
X0206600Y0172881D01*
X0206600Y0170882D02*
X0211400Y0170882D01*
X0211400Y0168884D02*
X0206600Y0168884D01*
X0206600Y0166885D02*
X0211400Y0166885D01*
X0211400Y0164887D02*
X0206600Y0164887D01*
X0206600Y0162888D02*
X0211400Y0162888D01*
X0211400Y0160890D02*
X0206600Y0160890D01*
X0206600Y0158891D02*
X0211400Y0158891D01*
X0211400Y0156893D02*
X0206600Y0156893D01*
X0206600Y0154894D02*
X0211400Y0154894D01*
X0211400Y0152896D02*
X0206600Y0152896D01*
X0206600Y0150897D02*
X0211400Y0150897D01*
X0211400Y0148899D02*
X0206600Y0148899D01*
X0206600Y0146900D02*
X0211400Y0146900D01*
X0211400Y0144902D02*
X0206600Y0144902D01*
X0206600Y0142903D02*
X0211400Y0142903D01*
X0211400Y0140905D02*
X0205582Y0140905D01*
X0203583Y0138906D02*
X0211400Y0138906D01*
X0211400Y0136908D02*
X0201585Y0136908D01*
X0199586Y0134909D02*
X0211400Y0134909D01*
X0211400Y0132911D02*
X0197588Y0132911D01*
X0195589Y0130912D02*
X0211400Y0130912D01*
X0211400Y0128914D02*
X0193591Y0128914D01*
X0197580Y0126915D02*
X0211400Y0126915D01*
X0214000Y0123000D02*
X0214000Y0193000D01*
X0211429Y0196863D02*
X0206571Y0196863D01*
X0216600Y0150897D02*
X0265459Y0150897D01*
X0264447Y0148899D02*
X0216600Y0148899D01*
X0216600Y0146900D02*
X0256519Y0146900D01*
X0254860Y0144902D02*
X0216600Y0144902D01*
X0216600Y0142903D02*
X0254447Y0142903D01*
X0254940Y0140905D02*
X0216600Y0140905D01*
X0216600Y0138906D02*
X0256400Y0138906D01*
X0256400Y0136908D02*
X0216600Y0136908D01*
X0216600Y0134909D02*
X0256400Y0134909D01*
X0256400Y0132911D02*
X0216600Y0132911D01*
X0216600Y0130912D02*
X0256400Y0130912D01*
X0256400Y0128914D02*
X0216600Y0128914D01*
X0216600Y0126915D02*
X0255420Y0126915D01*
X0254057Y0124917D02*
X0216600Y0124917D01*
X0216600Y0122918D02*
X0253700Y0122918D01*
X0254125Y0120920D02*
X0215597Y0120920D01*
X0214000Y0123000D02*
X0194000Y0123000D01*
X0189125Y0120920D02*
X0188875Y0120920D01*
X0187416Y0118921D02*
X0190584Y0118921D01*
X0197416Y0118921D02*
X0255584Y0118921D01*
X0259000Y0123000D02*
X0259000Y0143000D01*
X0263140Y0144902D02*
X0265660Y0144902D01*
X0266400Y0142903D02*
X0263553Y0142903D01*
X0263060Y0140905D02*
X0266400Y0140905D01*
X0266400Y0138906D02*
X0261600Y0138906D01*
X0261600Y0136908D02*
X0266400Y0136908D01*
X0266400Y0134909D02*
X0261600Y0134909D01*
X0261600Y0132911D02*
X0266400Y0132911D01*
X0266400Y0130912D02*
X0261600Y0130912D01*
X0261600Y0128914D02*
X0266400Y0128914D01*
X0265420Y0126915D02*
X0262580Y0126915D01*
X0263943Y0124917D02*
X0264057Y0124917D01*
X0269000Y0123000D02*
X0269000Y0148000D01*
X0264528Y0146900D02*
X0261481Y0146900D01*
X0272580Y0126915D02*
X0274854Y0126915D01*
X0279000Y0126915D02*
X0279000Y0126915D01*
X0279000Y0124917D02*
X0279000Y0124917D01*
X0279000Y0122918D02*
X0279000Y0122918D01*
X0279000Y0120920D02*
X0279000Y0120920D01*
X0279000Y0118921D02*
X0279000Y0118921D01*
X0282982Y0118921D02*
X0285584Y0118921D01*
X0286400Y0116923D02*
X0176600Y0116923D01*
X0176600Y0114924D02*
X0286400Y0114924D01*
X0286400Y0112926D02*
X0176600Y0112926D01*
X0176600Y0110927D02*
X0286400Y0110927D01*
X0286400Y0108929D02*
X0176600Y0108929D01*
X0176600Y0106930D02*
X0286400Y0106930D01*
X0275018Y0118921D02*
X0272416Y0118921D01*
X0265584Y0118921D02*
X0262416Y0118921D01*
X0263875Y0120920D02*
X0264125Y0120920D01*
X0283146Y0126915D02*
X0285420Y0126915D01*
X0302416Y0118921D02*
X0305584Y0118921D01*
X0304125Y0120920D02*
X0303875Y0120920D01*
X0321849Y0134909D02*
X0331151Y0134909D01*
X0334000Y0138000D02*
X0319000Y0138000D01*
X0322035Y0140905D02*
X0330965Y0140905D01*
X0313436Y0164887D02*
X0306827Y0164887D01*
X0278546Y0188869D02*
X0353331Y0188869D01*
X0353331Y0190868D02*
X0280544Y0190868D01*
X0282543Y0192866D02*
X0353331Y0192866D01*
X0279000Y0088700D02*
X0278551Y0088700D01*
X0277665Y0088560D01*
X0276812Y0088282D01*
X0276013Y0087875D01*
X0275287Y0087348D01*
X0274652Y0086713D01*
X0274125Y0085987D01*
X0273780Y0085310D01*
X0273493Y0086002D01*
X0272002Y0087493D01*
X0270054Y0088300D01*
X0267946Y0088300D01*
X0265998Y0087493D01*
X0264507Y0086002D01*
X0264000Y0084778D01*
X0263493Y0086002D01*
X0262002Y0087493D01*
X0260054Y0088300D01*
X0257946Y0088300D01*
X0255998Y0087493D01*
X0254507Y0086002D01*
X0253700Y0084054D01*
X0253700Y0081946D01*
X0253867Y0081544D01*
X0247527Y0075204D01*
X0246796Y0074473D01*
X0246400Y0073517D01*
X0246400Y0059829D01*
X0245127Y0058556D01*
X0244431Y0056877D01*
X0244431Y0049123D01*
X0245127Y0047444D01*
X0246412Y0046159D01*
X0248091Y0045463D01*
X0249909Y0045463D01*
X0251588Y0046159D01*
X0252873Y0047444D01*
X0253568Y0049123D01*
X0253568Y0056877D01*
X0252873Y0058556D01*
X0251600Y0059829D01*
X0251600Y0071923D01*
X0257544Y0077867D01*
X0257946Y0077700D01*
X0260023Y0077700D01*
X0257527Y0075204D01*
X0256796Y0074473D01*
X0256400Y0073517D01*
X0256400Y0059829D01*
X0255127Y0058556D01*
X0254431Y0056877D01*
X0254431Y0049123D01*
X0255127Y0047444D01*
X0256412Y0046159D01*
X0258091Y0045463D01*
X0259909Y0045463D01*
X0261588Y0046159D01*
X0262873Y0047444D01*
X0263568Y0049123D01*
X0263568Y0056877D01*
X0262873Y0058556D01*
X0261600Y0059829D01*
X0261600Y0071923D01*
X0267544Y0077867D01*
X0267946Y0077700D01*
X0270054Y0077700D01*
X0272002Y0078507D01*
X0273493Y0079998D01*
X0273780Y0080690D01*
X0274125Y0080013D01*
X0274652Y0079287D01*
X0275287Y0078652D01*
X0276013Y0078125D01*
X0276812Y0077718D01*
X0277665Y0077440D01*
X0278551Y0077300D01*
X0279000Y0077300D01*
X0279000Y0083000D01*
X0279000Y0083000D01*
X0279000Y0088700D01*
X0279000Y0086945D02*
X0279000Y0086945D01*
X0279000Y0084946D02*
X0279000Y0084946D01*
X0279000Y0082948D02*
X0279000Y0082948D01*
X0279000Y0080949D02*
X0279000Y0080949D01*
X0279000Y0078951D02*
X0279000Y0078951D01*
X0283012Y0078951D02*
X0285554Y0078951D01*
X0286400Y0076952D02*
X0266629Y0076952D01*
X0264631Y0074954D02*
X0286400Y0074954D01*
X0286400Y0072955D02*
X0262632Y0072955D01*
X0261600Y0070957D02*
X0286400Y0070957D01*
X0286400Y0068958D02*
X0261600Y0068958D01*
X0261600Y0066960D02*
X0286400Y0066960D01*
X0286400Y0064961D02*
X0261600Y0064961D01*
X0261600Y0062963D02*
X0286400Y0062963D01*
X0286400Y0060964D02*
X0261600Y0060964D01*
X0262464Y0058966D02*
X0265536Y0058966D01*
X0264469Y0056967D02*
X0263531Y0056967D01*
X0263568Y0054969D02*
X0264431Y0054969D01*
X0264431Y0052970D02*
X0263568Y0052970D01*
X0263568Y0050972D02*
X0264431Y0050972D01*
X0264493Y0048973D02*
X0263507Y0048973D01*
X0262404Y0046975D02*
X0265596Y0046975D01*
X0266400Y0044976D02*
X0206600Y0044976D01*
X0206600Y0042978D02*
X0266400Y0042978D01*
X0266400Y0040979D02*
X0206600Y0040979D01*
X0204000Y0038000D02*
X0204000Y0053000D01*
X0208568Y0052970D02*
X0209031Y0052970D01*
X0209031Y0053000D02*
X0209031Y0049640D01*
X0209154Y0048868D01*
X0209396Y0048124D01*
X0209751Y0047427D01*
X0210210Y0046795D01*
X0210763Y0046242D01*
X0211396Y0045782D01*
X0212093Y0045427D01*
X0212837Y0045185D01*
X0213609Y0045063D01*
X0214000Y0045063D01*
X0214391Y0045063D01*
X0215163Y0045185D01*
X0215907Y0045427D01*
X0216604Y0045782D01*
X0217237Y0046242D01*
X0217790Y0046795D01*
X0218249Y0047427D01*
X0218604Y0048124D01*
X0218846Y0048868D01*
X0218968Y0049640D01*
X0218968Y0053000D01*
X0218968Y0056360D01*
X0218846Y0057132D01*
X0218604Y0057876D01*
X0218249Y0058573D01*
X0217790Y0059205D01*
X0217237Y0059758D01*
X0216604Y0060218D01*
X0215907Y0060573D01*
X0215163Y0060815D01*
X0214391Y0060937D01*
X0214000Y0060937D01*
X0214000Y0053000D01*
X0214000Y0053000D01*
X0218968Y0053000D01*
X0214000Y0053000D01*
X0214000Y0053000D01*
X0214000Y0053000D01*
X0209031Y0053000D01*
X0214000Y0053000D01*
X0214000Y0060937D01*
X0213609Y0060937D01*
X0212837Y0060815D01*
X0212093Y0060573D01*
X0211396Y0060218D01*
X0210763Y0059758D01*
X0210210Y0059205D01*
X0209751Y0058573D01*
X0209396Y0057876D01*
X0209154Y0057132D01*
X0209031Y0056360D01*
X0209031Y0053000D01*
X0209031Y0054969D02*
X0208568Y0054969D01*
X0208531Y0056967D02*
X0209128Y0056967D01*
X0210036Y0058966D02*
X0207464Y0058966D01*
X0214000Y0058966D02*
X0214000Y0058966D01*
X0214000Y0056967D02*
X0214000Y0056967D01*
X0214000Y0054969D02*
X0214000Y0054969D01*
X0214000Y0053000D02*
X0214000Y0045063D01*
X0214000Y0053000D01*
X0214000Y0053000D01*
X0214000Y0052970D02*
X0214000Y0052970D01*
X0214000Y0050972D02*
X0214000Y0050972D01*
X0214000Y0048973D02*
X0214000Y0048973D01*
X0214000Y0046975D02*
X0214000Y0046975D01*
X0217920Y0046975D02*
X0245596Y0046975D01*
X0244493Y0048973D02*
X0218863Y0048973D01*
X0218968Y0050972D02*
X0244431Y0050972D01*
X0244431Y0052970D02*
X0218968Y0052970D01*
X0218968Y0054969D02*
X0244431Y0054969D01*
X0244469Y0056967D02*
X0218872Y0056967D01*
X0217964Y0058966D02*
X0245536Y0058966D01*
X0246400Y0060964D02*
X0196600Y0060964D01*
X0196600Y0062963D02*
X0246400Y0062963D01*
X0246400Y0064961D02*
X0196600Y0064961D01*
X0196600Y0066960D02*
X0246400Y0066960D01*
X0246400Y0068958D02*
X0196600Y0068958D01*
X0196600Y0070957D02*
X0246400Y0070957D01*
X0246400Y0072955D02*
X0196600Y0072955D01*
X0196600Y0074954D02*
X0247277Y0074954D01*
X0249000Y0073000D02*
X0249000Y0053000D01*
X0253568Y0052970D02*
X0254431Y0052970D01*
X0254431Y0050972D02*
X0253568Y0050972D01*
X0253507Y0048973D02*
X0254493Y0048973D01*
X0255596Y0046975D02*
X0252404Y0046975D01*
X0259000Y0053000D02*
X0259000Y0073000D01*
X0269000Y0083000D01*
X0264070Y0084946D02*
X0263930Y0084946D01*
X0262550Y0086945D02*
X0265450Y0086945D01*
X0272550Y0086945D02*
X0274884Y0086945D01*
X0283116Y0086945D02*
X0285450Y0086945D01*
X0274988Y0078951D02*
X0272446Y0078951D01*
X0259275Y0076952D02*
X0256629Y0076952D01*
X0257277Y0074954D02*
X0254631Y0074954D01*
X0256400Y0072955D02*
X0252632Y0072955D01*
X0251600Y0070957D02*
X0256400Y0070957D01*
X0256400Y0068958D02*
X0251600Y0068958D01*
X0251600Y0066960D02*
X0256400Y0066960D01*
X0256400Y0064961D02*
X0251600Y0064961D01*
X0251600Y0062963D02*
X0256400Y0062963D01*
X0256400Y0060964D02*
X0251600Y0060964D01*
X0252464Y0058966D02*
X0255536Y0058966D01*
X0254469Y0056967D02*
X0253531Y0056967D01*
X0253568Y0054969D02*
X0254431Y0054969D01*
X0269000Y0053000D02*
X0269000Y0038000D01*
X0271600Y0040979D02*
X0286400Y0040979D01*
X0286400Y0042978D02*
X0271600Y0042978D01*
X0271600Y0044976D02*
X0286400Y0044976D01*
X0286400Y0046975D02*
X0282920Y0046975D01*
X0282790Y0046795D02*
X0283249Y0047427D01*
X0283604Y0048124D01*
X0283846Y0048868D01*
X0283968Y0049640D01*
X0283968Y0053000D01*
X0283968Y0056360D01*
X0283846Y0057132D01*
X0283604Y0057876D01*
X0283249Y0058573D01*
X0282790Y0059205D01*
X0282237Y0059758D01*
X0281604Y0060218D01*
X0280907Y0060573D01*
X0280163Y0060815D01*
X0279391Y0060937D01*
X0279000Y0060937D01*
X0279000Y0053000D01*
X0279000Y0053000D01*
X0283968Y0053000D01*
X0279000Y0053000D01*
X0279000Y0053000D01*
X0279000Y0053000D01*
X0274031Y0053000D01*
X0274031Y0049640D01*
X0274154Y0048868D01*
X0274396Y0048124D01*
X0274751Y0047427D01*
X0275210Y0046795D01*
X0275763Y0046242D01*
X0276396Y0045782D01*
X0277093Y0045427D01*
X0277837Y0045185D01*
X0278609Y0045063D01*
X0279000Y0045063D01*
X0279391Y0045063D01*
X0280163Y0045185D01*
X0280907Y0045427D01*
X0281604Y0045782D01*
X0282237Y0046242D01*
X0282790Y0046795D01*
X0283863Y0048973D02*
X0286400Y0048973D01*
X0286400Y0050972D02*
X0283968Y0050972D01*
X0283968Y0052970D02*
X0286400Y0052970D01*
X0286400Y0054969D02*
X0283968Y0054969D01*
X0283872Y0056967D02*
X0286400Y0056967D01*
X0286400Y0058966D02*
X0282964Y0058966D01*
X0279000Y0058966D02*
X0279000Y0058966D01*
X0279000Y0060937D02*
X0278609Y0060937D01*
X0277837Y0060815D01*
X0277093Y0060573D01*
X0276396Y0060218D01*
X0275763Y0059758D01*
X0275210Y0059205D01*
X0274751Y0058573D01*
X0274396Y0057876D01*
X0274154Y0057132D01*
X0274031Y0056360D01*
X0274031Y0053000D01*
X0279000Y0053000D01*
X0279000Y0060937D01*
X0275036Y0058966D02*
X0272464Y0058966D01*
X0273531Y0056967D02*
X0274128Y0056967D01*
X0274031Y0054969D02*
X0273568Y0054969D01*
X0273568Y0052970D02*
X0274031Y0052970D01*
X0274031Y0050972D02*
X0273568Y0050972D01*
X0273507Y0048973D02*
X0274137Y0048973D01*
X0275079Y0046975D02*
X0272404Y0046975D01*
X0279000Y0046975D02*
X0279000Y0046975D01*
X0279000Y0045063D02*
X0279000Y0053000D01*
X0279000Y0053000D01*
X0279000Y0045063D01*
X0279000Y0048973D02*
X0279000Y0048973D01*
X0279000Y0050972D02*
X0279000Y0050972D01*
X0279000Y0052970D02*
X0279000Y0052970D01*
X0279000Y0054969D02*
X0279000Y0054969D01*
X0279000Y0056967D02*
X0279000Y0056967D01*
X0289000Y0038000D02*
X0319000Y0038000D01*
X0314431Y0054969D02*
X0313568Y0054969D01*
X0313531Y0056967D02*
X0314469Y0056967D01*
X0315536Y0058966D02*
X0312464Y0058966D01*
X0259000Y0083000D02*
X0249000Y0073000D01*
X0249275Y0076952D02*
X0196600Y0076952D01*
X0197446Y0078951D02*
X0251274Y0078951D01*
X0253272Y0080949D02*
X0198887Y0080949D01*
X0199300Y0082948D02*
X0253700Y0082948D01*
X0254070Y0084946D02*
X0198930Y0084946D01*
X0197550Y0086945D02*
X0255450Y0086945D01*
X0209031Y0050972D02*
X0208568Y0050972D01*
X0208507Y0048973D02*
X0209137Y0048973D01*
X0210079Y0046975D02*
X0207404Y0046975D01*
X0200596Y0046975D02*
X0197404Y0046975D01*
X0198507Y0048973D02*
X0199493Y0048973D01*
X0199431Y0050972D02*
X0198568Y0050972D01*
X0198568Y0052970D02*
X0199431Y0052970D01*
X0199431Y0054969D02*
X0198568Y0054969D01*
X0198531Y0056967D02*
X0199469Y0056967D01*
X0200536Y0058966D02*
X0197464Y0058966D01*
X0191400Y0060964D02*
X0186600Y0060964D01*
X0186600Y0062963D02*
X0191400Y0062963D01*
X0191400Y0064961D02*
X0186600Y0064961D01*
X0186600Y0066960D02*
X0191400Y0066960D01*
X0191400Y0068958D02*
X0186600Y0068958D01*
X0186600Y0070957D02*
X0191400Y0070957D01*
X0191400Y0072955D02*
X0186600Y0072955D01*
X0186600Y0074954D02*
X0191400Y0074954D01*
X0191400Y0076952D02*
X0186600Y0076952D01*
X0187446Y0078951D02*
X0190554Y0078951D01*
X0189113Y0080949D02*
X0188887Y0080949D01*
X0188930Y0084946D02*
X0189070Y0084946D01*
X0190450Y0086945D02*
X0187550Y0086945D01*
X0184000Y0083000D02*
X0184000Y0053000D01*
X0188568Y0052970D02*
X0189431Y0052970D01*
X0189431Y0050972D02*
X0188568Y0050972D01*
X0188507Y0048973D02*
X0189493Y0048973D01*
X0190596Y0046975D02*
X0187404Y0046975D01*
X0194000Y0053000D02*
X0194000Y0083000D01*
X0180450Y0086945D02*
X0177550Y0086945D01*
X0178930Y0084946D02*
X0179070Y0084946D01*
X0170450Y0086945D02*
X0168116Y0086945D01*
X0164000Y0086945D02*
X0164000Y0086945D01*
X0164000Y0084946D02*
X0164000Y0084946D01*
X0164000Y0082948D02*
X0164000Y0082948D01*
X0164000Y0080949D02*
X0164000Y0080949D01*
X0164000Y0078951D02*
X0164000Y0078951D01*
X0168012Y0078951D02*
X0170554Y0078951D01*
X0171400Y0076952D02*
X0151629Y0076952D01*
X0149631Y0074954D02*
X0171400Y0074954D01*
X0171400Y0072955D02*
X0147632Y0072955D01*
X0146600Y0070957D02*
X0171400Y0070957D01*
X0171400Y0068958D02*
X0146600Y0068958D01*
X0146600Y0066960D02*
X0171400Y0066960D01*
X0171400Y0064961D02*
X0146600Y0064961D01*
X0146600Y0062963D02*
X0171400Y0062963D01*
X0171400Y0060964D02*
X0146600Y0060964D01*
X0147464Y0058966D02*
X0150536Y0058966D01*
X0149469Y0056967D02*
X0148531Y0056967D01*
X0148568Y0054969D02*
X0149431Y0054969D01*
X0154000Y0053000D02*
X0154000Y0038000D01*
X0156600Y0040979D02*
X0171400Y0040979D01*
X0171400Y0042978D02*
X0156600Y0042978D01*
X0156600Y0044976D02*
X0171400Y0044976D01*
X0171400Y0046975D02*
X0167920Y0046975D01*
X0167790Y0046795D02*
X0168249Y0047427D01*
X0168604Y0048124D01*
X0168846Y0048868D01*
X0168968Y0049640D01*
X0168968Y0053000D01*
X0168968Y0056360D01*
X0168846Y0057132D01*
X0168604Y0057876D01*
X0168249Y0058573D01*
X0167790Y0059205D01*
X0167237Y0059758D01*
X0166604Y0060218D01*
X0165907Y0060573D01*
X0165163Y0060815D01*
X0164391Y0060937D01*
X0164000Y0060937D01*
X0164000Y0053000D01*
X0164000Y0053000D01*
X0168968Y0053000D01*
X0164000Y0053000D01*
X0164000Y0053000D01*
X0164000Y0053000D01*
X0159031Y0053000D01*
X0159031Y0049640D01*
X0159154Y0048868D01*
X0159396Y0048124D01*
X0159751Y0047427D01*
X0160210Y0046795D01*
X0160763Y0046242D01*
X0161396Y0045782D01*
X0162093Y0045427D01*
X0162837Y0045185D01*
X0163609Y0045063D01*
X0164000Y0045063D01*
X0164391Y0045063D01*
X0165163Y0045185D01*
X0165907Y0045427D01*
X0166604Y0045782D01*
X0167237Y0046242D01*
X0167790Y0046795D01*
X0168863Y0048973D02*
X0171400Y0048973D01*
X0171400Y0050972D02*
X0168968Y0050972D01*
X0168968Y0052970D02*
X0171400Y0052970D01*
X0171400Y0054969D02*
X0168968Y0054969D01*
X0168872Y0056967D02*
X0171400Y0056967D01*
X0171400Y0058966D02*
X0167964Y0058966D01*
X0164000Y0058966D02*
X0164000Y0058966D01*
X0164000Y0060937D02*
X0163609Y0060937D01*
X0162837Y0060815D01*
X0162093Y0060573D01*
X0161396Y0060218D01*
X0160763Y0059758D01*
X0160210Y0059205D01*
X0159751Y0058573D01*
X0159396Y0057876D01*
X0159154Y0057132D01*
X0159031Y0056360D01*
X0159031Y0053000D01*
X0164000Y0053000D01*
X0164000Y0060937D01*
X0160036Y0058966D02*
X0157464Y0058966D01*
X0158531Y0056967D02*
X0159128Y0056967D01*
X0159031Y0054969D02*
X0158568Y0054969D01*
X0158568Y0052970D02*
X0159031Y0052970D01*
X0159031Y0050972D02*
X0158568Y0050972D01*
X0158507Y0048973D02*
X0159137Y0048973D01*
X0160079Y0046975D02*
X0157404Y0046975D01*
X0164000Y0046975D02*
X0164000Y0046975D01*
X0164000Y0045063D02*
X0164000Y0053000D01*
X0164000Y0053000D01*
X0164000Y0045063D01*
X0164000Y0048973D02*
X0164000Y0048973D01*
X0164000Y0050972D02*
X0164000Y0050972D01*
X0164000Y0052970D02*
X0164000Y0052970D01*
X0164000Y0054969D02*
X0164000Y0054969D01*
X0164000Y0056967D02*
X0164000Y0056967D01*
X0187464Y0058966D02*
X0190536Y0058966D01*
X0189469Y0056967D02*
X0188531Y0056967D01*
X0188568Y0054969D02*
X0189431Y0054969D01*
X0204000Y0038000D02*
X0174000Y0038000D01*
X0134000Y0053000D02*
X0134000Y0073000D01*
X0144000Y0083000D01*
X0148930Y0084946D02*
X0149070Y0084946D01*
X0150450Y0086945D02*
X0147550Y0086945D01*
X0154000Y0083000D02*
X0144000Y0073000D01*
X0157446Y0078951D02*
X0159988Y0078951D01*
X0159884Y0086945D02*
X0157550Y0086945D01*
X0174000Y0103000D02*
X0174000Y0123000D01*
X0178875Y0120920D02*
X0179125Y0120920D01*
X0180584Y0118921D02*
X0177416Y0118921D01*
X0171400Y0116923D02*
X0098138Y0116923D01*
X0099368Y0114924D02*
X0171400Y0114924D01*
X0171400Y0112926D02*
X0099700Y0112926D01*
X0099320Y0110927D02*
X0171400Y0110927D01*
X0171400Y0108929D02*
X0097990Y0108929D01*
X0097565Y0106930D02*
X0171400Y0106930D01*
X0170584Y0118921D02*
X0167982Y0118921D01*
X0164000Y0118921D02*
X0164000Y0118921D01*
X0164000Y0120920D02*
X0164000Y0120920D01*
X0164000Y0122918D02*
X0164000Y0122918D01*
X0164000Y0124917D02*
X0164000Y0124917D01*
X0164000Y0126915D02*
X0164000Y0126915D01*
X0168146Y0126915D02*
X0170420Y0126915D01*
X0160018Y0118921D02*
X0157416Y0118921D01*
X0150584Y0118921D02*
X0147416Y0118921D01*
X0148875Y0120920D02*
X0149125Y0120920D01*
X0130638Y0204857D02*
X0127362Y0204857D01*
X0128600Y0206856D02*
X0129400Y0206856D01*
X0129400Y0208854D02*
X0128600Y0208854D01*
X0127653Y0210853D02*
X0130347Y0210853D01*
X0060400Y0231600D02*
X0057671Y0231600D01*
X0057814Y0231743D01*
X0058276Y0232379D01*
X0058634Y0233081D01*
X0058877Y0233829D01*
X0059000Y0234606D01*
X0059000Y0238000D01*
X0059000Y0241394D01*
X0058877Y0242171D01*
X0058634Y0242919D01*
X0058276Y0243621D01*
X0057841Y0244220D01*
X0060715Y0244220D01*
X0060100Y0243606D01*
X0059400Y0241915D01*
X0059400Y0234085D01*
X0060100Y0232394D01*
X0060400Y0232095D01*
X0060400Y0231600D01*
X0059917Y0232836D02*
X0058509Y0232836D01*
X0059000Y0234835D02*
X0059400Y0234835D01*
X0059400Y0236833D02*
X0059000Y0236833D01*
X0059000Y0238000D02*
X0054000Y0238000D01*
X0059000Y0238000D01*
X0059000Y0238832D02*
X0059400Y0238832D01*
X0059400Y0240830D02*
X0059000Y0240830D01*
X0058663Y0242829D02*
X0059779Y0242829D01*
X0054000Y0238000D02*
X0054000Y0238000D01*
X0054000Y0238000D01*
X0049000Y0238000D01*
X0049000Y0241394D01*
X0049123Y0242171D01*
X0049366Y0242919D01*
X0049724Y0243621D01*
X0050159Y0244220D01*
X0047841Y0244220D01*
X0048276Y0243621D01*
X0048634Y0242919D01*
X0048877Y0242171D01*
X0049000Y0241394D01*
X0049000Y0238000D01*
X0044000Y0238000D01*
X0044000Y0238000D01*
X0049000Y0238000D01*
X0049000Y0234606D01*
X0049123Y0233829D01*
X0049366Y0233081D01*
X0049724Y0232379D01*
X0050186Y0231743D01*
X0050329Y0231600D01*
X0047671Y0231600D01*
X0047814Y0231743D01*
X0048276Y0232379D01*
X0048634Y0233081D01*
X0048877Y0233829D01*
X0049000Y0234606D01*
X0049000Y0238000D01*
X0054000Y0238000D01*
X0049000Y0238832D02*
X0049000Y0238832D01*
X0049000Y0240830D02*
X0049000Y0240830D01*
X0048663Y0242829D02*
X0049337Y0242829D01*
X0044000Y0238000D02*
X0044000Y0238000D01*
X0039000Y0238000D01*
X0039000Y0241394D01*
X0039123Y0242171D01*
X0039366Y0242919D01*
X0039724Y0243621D01*
X0040159Y0244220D01*
X0037285Y0244220D01*
X0037900Y0243606D01*
X0038600Y0241915D01*
X0038600Y0234085D01*
X0037900Y0232394D01*
X0037105Y0231600D01*
X0040329Y0231600D01*
X0040186Y0231743D01*
X0039724Y0232379D01*
X0039366Y0233081D01*
X0039123Y0233829D01*
X0039000Y0234606D01*
X0039000Y0238000D01*
X0044000Y0238000D01*
X0039000Y0238832D02*
X0038600Y0238832D01*
X0038600Y0240830D02*
X0039000Y0240830D01*
X0039337Y0242829D02*
X0038221Y0242829D01*
X0038600Y0236833D02*
X0039000Y0236833D01*
X0039000Y0234835D02*
X0038600Y0234835D01*
X0038083Y0232836D02*
X0039491Y0232836D01*
X0048509Y0232836D02*
X0049491Y0232836D01*
D18*
X0064000Y0228000D02*
X0064000Y0238000D01*
X0064000Y0228000D02*
X0024000Y0228000D01*
X0024000Y0219968D01*
X0026240Y0217728D01*
X0026240Y0208272D01*
X0024000Y0206032D01*
X0024000Y0193000D01*
M02*
