G75*
%MOIN*%
%OFA0B0*%
%FSLAX25Y25*%
%IPPOS*%
%LPD*%
%AMOC8*
5,1,8,0,0,1.08239X$1,22.5*
%
%ADD10C,0.12611*%
%ADD11C,0.06737*%
%ADD12OC8,0.07100*%
%ADD13C,0.06800*%
%ADD14C,0.05950*%
D10*
X0021333Y0012000D03*
X0161333Y0012000D03*
X0161333Y0212000D03*
X0021333Y0212000D03*
D11*
X0024302Y0137000D02*
X0018365Y0137000D01*
X0018365Y0127000D02*
X0024302Y0127000D01*
X0024302Y0117000D02*
X0018365Y0117000D01*
X0018365Y0107000D02*
X0024302Y0107000D01*
X0024302Y0077000D02*
X0018365Y0077000D01*
X0018365Y0067000D02*
X0024302Y0067000D01*
X0024302Y0057000D02*
X0018365Y0057000D01*
X0018365Y0047000D02*
X0024302Y0047000D01*
X0158365Y0047000D02*
X0164302Y0047000D01*
X0164302Y0057000D02*
X0158365Y0057000D01*
X0158365Y0067000D02*
X0164302Y0067000D01*
X0164302Y0077000D02*
X0158365Y0077000D01*
X0158365Y0102000D02*
X0164302Y0102000D01*
X0164302Y0112000D02*
X0158365Y0112000D01*
D12*
X0151333Y0127000D03*
X0171333Y0127000D03*
X0171333Y0187000D03*
X0151333Y0187000D03*
D13*
X0153333Y0167000D02*
X0159333Y0167000D01*
X0159333Y0157000D02*
X0153333Y0157000D01*
X0153333Y0147000D02*
X0159333Y0147000D01*
D14*
X0136333Y0147000D03*
X0136333Y0157000D03*
X0136333Y0167000D03*
X0136333Y0177000D03*
X0136333Y0187000D03*
X0136333Y0197000D03*
X0136333Y0207000D03*
X0136333Y0137000D03*
X0136333Y0127000D03*
X0136333Y0117000D03*
X0136333Y0107000D03*
X0136333Y0097000D03*
X0136333Y0087000D03*
X0136333Y0077000D03*
X0136333Y0067000D03*
X0136333Y0057000D03*
X0136333Y0047000D03*
X0136333Y0037000D03*
X0136333Y0027000D03*
X0136333Y0017000D03*
X0046333Y0017000D03*
X0046333Y0027000D03*
X0046333Y0037000D03*
X0046333Y0047000D03*
X0046333Y0057000D03*
X0046333Y0067000D03*
X0046333Y0077000D03*
X0046333Y0087000D03*
X0046333Y0097000D03*
X0046333Y0107000D03*
X0046333Y0117000D03*
X0046333Y0127000D03*
X0046333Y0137000D03*
X0046333Y0147000D03*
X0046333Y0157000D03*
X0046333Y0167000D03*
X0046333Y0177000D03*
X0046333Y0187000D03*
X0046333Y0197000D03*
X0046333Y0207000D03*
M02*
