G75*
%MOIN*%
%OFA0B0*%
%FSLAX25Y25*%
%IPPOS*%
%LPD*%
%AMOC8*
5,1,8,0,0,1.08239X$1,22.5*
%
%ADD10C,0.01000*%
%ADD11C,0.01200*%
%ADD12C,0.00600*%
%ADD13C,0.00500*%
%ADD14R,0.03000X0.42000*%
%ADD15R,0.02000X0.07500*%
%ADD16R,0.02000X0.03000*%
D10*
X0009260Y0042000D02*
X0016760Y0042000D01*
X0016760Y0082000D01*
X0034260Y0082000D01*
X0034260Y0042000D01*
X0016760Y0042000D01*
X0009260Y0042000D02*
X0009260Y0082000D01*
X0016760Y0082000D01*
X0016760Y0102000D02*
X0009260Y0102000D01*
X0009260Y0142000D01*
X0016760Y0142000D01*
X0016760Y0102000D01*
X0034260Y0102000D01*
X0034260Y0142000D01*
X0016760Y0142000D01*
X0016760Y0162000D02*
X0009260Y0162000D01*
X0009260Y0182000D01*
X0016760Y0182000D01*
X0016760Y0162000D01*
X0034260Y0162000D01*
X0034260Y0182000D01*
X0016760Y0182000D01*
X0149260Y0132000D02*
X0149260Y0112000D01*
X0166760Y0112000D01*
X0166760Y0132000D01*
X0174260Y0132000D01*
X0174260Y0112000D01*
X0166760Y0112000D01*
X0174260Y0107000D02*
X0174260Y0067000D01*
X0156760Y0067000D01*
X0156760Y0107000D01*
X0174260Y0107000D01*
X0156760Y0107000D02*
X0149260Y0107000D01*
X0149260Y0067000D01*
X0156760Y0067000D01*
X0149260Y0062000D02*
X0166760Y0062000D01*
X0166760Y0022000D01*
X0149260Y0022000D01*
X0149260Y0062000D01*
X0166760Y0062000D02*
X0174260Y0062000D01*
X0174260Y0022000D01*
X0166760Y0022000D01*
X0166760Y0132000D02*
X0149260Y0132000D01*
D11*
X0160560Y0139500D02*
X0160560Y0142000D01*
X0160560Y0144500D01*
X0163060Y0144500D02*
X0163060Y0142000D01*
X0163060Y0139500D01*
X0163060Y0199500D02*
X0163060Y0202000D01*
X0163060Y0204500D01*
X0160560Y0204500D02*
X0160560Y0202000D01*
X0160560Y0199500D01*
D12*
X0160560Y0202000D02*
X0155760Y0202000D01*
X0163060Y0202000D02*
X0167760Y0202000D01*
X0175260Y0197000D02*
X0175320Y0197002D01*
X0175381Y0197007D01*
X0175440Y0197016D01*
X0175499Y0197029D01*
X0175558Y0197045D01*
X0175615Y0197065D01*
X0175670Y0197088D01*
X0175725Y0197115D01*
X0175777Y0197144D01*
X0175828Y0197177D01*
X0175877Y0197213D01*
X0175923Y0197251D01*
X0175967Y0197293D01*
X0176009Y0197337D01*
X0176047Y0197383D01*
X0176083Y0197432D01*
X0176116Y0197483D01*
X0176145Y0197535D01*
X0176172Y0197590D01*
X0176195Y0197645D01*
X0176215Y0197702D01*
X0176231Y0197761D01*
X0176244Y0197820D01*
X0176253Y0197879D01*
X0176258Y0197940D01*
X0176260Y0198000D01*
X0176260Y0206000D01*
X0176258Y0206060D01*
X0176253Y0206121D01*
X0176244Y0206180D01*
X0176231Y0206239D01*
X0176215Y0206298D01*
X0176195Y0206355D01*
X0176172Y0206410D01*
X0176145Y0206465D01*
X0176116Y0206517D01*
X0176083Y0206568D01*
X0176047Y0206617D01*
X0176009Y0206663D01*
X0175967Y0206707D01*
X0175923Y0206749D01*
X0175877Y0206787D01*
X0175828Y0206823D01*
X0175777Y0206856D01*
X0175725Y0206885D01*
X0175670Y0206912D01*
X0175615Y0206935D01*
X0175558Y0206955D01*
X0175499Y0206971D01*
X0175440Y0206984D01*
X0175381Y0206993D01*
X0175320Y0206998D01*
X0175260Y0207000D01*
X0148260Y0207000D01*
X0148200Y0206998D01*
X0148139Y0206993D01*
X0148080Y0206984D01*
X0148021Y0206971D01*
X0147962Y0206955D01*
X0147905Y0206935D01*
X0147850Y0206912D01*
X0147795Y0206885D01*
X0147743Y0206856D01*
X0147692Y0206823D01*
X0147643Y0206787D01*
X0147597Y0206749D01*
X0147553Y0206707D01*
X0147511Y0206663D01*
X0147473Y0206617D01*
X0147437Y0206568D01*
X0147404Y0206517D01*
X0147375Y0206465D01*
X0147348Y0206410D01*
X0147325Y0206355D01*
X0147305Y0206298D01*
X0147289Y0206239D01*
X0147276Y0206180D01*
X0147267Y0206121D01*
X0147262Y0206060D01*
X0147260Y0206000D01*
X0147260Y0198000D01*
X0147262Y0197940D01*
X0147267Y0197879D01*
X0147276Y0197820D01*
X0147289Y0197761D01*
X0147305Y0197702D01*
X0147325Y0197645D01*
X0147348Y0197590D01*
X0147375Y0197535D01*
X0147404Y0197483D01*
X0147437Y0197432D01*
X0147473Y0197383D01*
X0147511Y0197337D01*
X0147553Y0197293D01*
X0147597Y0197251D01*
X0147643Y0197213D01*
X0147692Y0197177D01*
X0147743Y0197144D01*
X0147795Y0197115D01*
X0147850Y0197088D01*
X0147905Y0197065D01*
X0147962Y0197045D01*
X0148021Y0197029D01*
X0148080Y0197016D01*
X0148139Y0197007D01*
X0148200Y0197002D01*
X0148260Y0197000D01*
X0175260Y0197000D01*
X0175260Y0147000D02*
X0148260Y0147000D01*
X0148200Y0146998D01*
X0148139Y0146993D01*
X0148080Y0146984D01*
X0148021Y0146971D01*
X0147962Y0146955D01*
X0147905Y0146935D01*
X0147850Y0146912D01*
X0147795Y0146885D01*
X0147743Y0146856D01*
X0147692Y0146823D01*
X0147643Y0146787D01*
X0147597Y0146749D01*
X0147553Y0146707D01*
X0147511Y0146663D01*
X0147473Y0146617D01*
X0147437Y0146568D01*
X0147404Y0146517D01*
X0147375Y0146465D01*
X0147348Y0146410D01*
X0147325Y0146355D01*
X0147305Y0146298D01*
X0147289Y0146239D01*
X0147276Y0146180D01*
X0147267Y0146121D01*
X0147262Y0146060D01*
X0147260Y0146000D01*
X0147260Y0138000D01*
X0147262Y0137940D01*
X0147267Y0137879D01*
X0147276Y0137820D01*
X0147289Y0137761D01*
X0147305Y0137702D01*
X0147325Y0137645D01*
X0147348Y0137590D01*
X0147375Y0137535D01*
X0147404Y0137483D01*
X0147437Y0137432D01*
X0147473Y0137383D01*
X0147511Y0137337D01*
X0147553Y0137293D01*
X0147597Y0137251D01*
X0147643Y0137213D01*
X0147692Y0137177D01*
X0147743Y0137144D01*
X0147795Y0137115D01*
X0147850Y0137088D01*
X0147905Y0137065D01*
X0147962Y0137045D01*
X0148021Y0137029D01*
X0148080Y0137016D01*
X0148139Y0137007D01*
X0148200Y0137002D01*
X0148260Y0137000D01*
X0175260Y0137000D01*
X0175320Y0137002D01*
X0175381Y0137007D01*
X0175440Y0137016D01*
X0175499Y0137029D01*
X0175558Y0137045D01*
X0175615Y0137065D01*
X0175670Y0137088D01*
X0175725Y0137115D01*
X0175777Y0137144D01*
X0175828Y0137177D01*
X0175877Y0137213D01*
X0175923Y0137251D01*
X0175967Y0137293D01*
X0176009Y0137337D01*
X0176047Y0137383D01*
X0176083Y0137432D01*
X0176116Y0137483D01*
X0176145Y0137535D01*
X0176172Y0137590D01*
X0176195Y0137645D01*
X0176215Y0137702D01*
X0176231Y0137761D01*
X0176244Y0137820D01*
X0176253Y0137879D01*
X0176258Y0137940D01*
X0176260Y0138000D01*
X0176260Y0146000D01*
X0176258Y0146060D01*
X0176253Y0146121D01*
X0176244Y0146180D01*
X0176231Y0146239D01*
X0176215Y0146298D01*
X0176195Y0146355D01*
X0176172Y0146410D01*
X0176145Y0146465D01*
X0176116Y0146517D01*
X0176083Y0146568D01*
X0176047Y0146617D01*
X0176009Y0146663D01*
X0175967Y0146707D01*
X0175923Y0146749D01*
X0175877Y0146787D01*
X0175828Y0146823D01*
X0175777Y0146856D01*
X0175725Y0146885D01*
X0175670Y0146912D01*
X0175615Y0146935D01*
X0175558Y0146955D01*
X0175499Y0146971D01*
X0175440Y0146984D01*
X0175381Y0146993D01*
X0175320Y0146998D01*
X0175260Y0147000D01*
X0167760Y0142000D02*
X0163060Y0142000D01*
X0160560Y0142000D02*
X0155760Y0142000D01*
D13*
X0151260Y0152000D02*
X0162760Y0152500D01*
X0163760Y0153500D01*
X0163760Y0190500D01*
X0162760Y0191500D01*
X0151260Y0192000D01*
X0160360Y0154300D02*
X0160362Y0154363D01*
X0160368Y0154425D01*
X0160378Y0154487D01*
X0160391Y0154549D01*
X0160409Y0154609D01*
X0160430Y0154668D01*
X0160455Y0154726D01*
X0160484Y0154782D01*
X0160516Y0154836D01*
X0160551Y0154888D01*
X0160589Y0154937D01*
X0160631Y0154985D01*
X0160675Y0155029D01*
X0160723Y0155071D01*
X0160772Y0155109D01*
X0160824Y0155144D01*
X0160878Y0155176D01*
X0160934Y0155205D01*
X0160992Y0155230D01*
X0161051Y0155251D01*
X0161111Y0155269D01*
X0161173Y0155282D01*
X0161235Y0155292D01*
X0161297Y0155298D01*
X0161360Y0155300D01*
X0161423Y0155298D01*
X0161485Y0155292D01*
X0161547Y0155282D01*
X0161609Y0155269D01*
X0161669Y0155251D01*
X0161728Y0155230D01*
X0161786Y0155205D01*
X0161842Y0155176D01*
X0161896Y0155144D01*
X0161948Y0155109D01*
X0161997Y0155071D01*
X0162045Y0155029D01*
X0162089Y0154985D01*
X0162131Y0154937D01*
X0162169Y0154888D01*
X0162204Y0154836D01*
X0162236Y0154782D01*
X0162265Y0154726D01*
X0162290Y0154668D01*
X0162311Y0154609D01*
X0162329Y0154549D01*
X0162342Y0154487D01*
X0162352Y0154425D01*
X0162358Y0154363D01*
X0162360Y0154300D01*
X0162358Y0154237D01*
X0162352Y0154175D01*
X0162342Y0154113D01*
X0162329Y0154051D01*
X0162311Y0153991D01*
X0162290Y0153932D01*
X0162265Y0153874D01*
X0162236Y0153818D01*
X0162204Y0153764D01*
X0162169Y0153712D01*
X0162131Y0153663D01*
X0162089Y0153615D01*
X0162045Y0153571D01*
X0161997Y0153529D01*
X0161948Y0153491D01*
X0161896Y0153456D01*
X0161842Y0153424D01*
X0161786Y0153395D01*
X0161728Y0153370D01*
X0161669Y0153349D01*
X0161609Y0153331D01*
X0161547Y0153318D01*
X0161485Y0153308D01*
X0161423Y0153302D01*
X0161360Y0153300D01*
X0161297Y0153302D01*
X0161235Y0153308D01*
X0161173Y0153318D01*
X0161111Y0153331D01*
X0161051Y0153349D01*
X0160992Y0153370D01*
X0160934Y0153395D01*
X0160878Y0153424D01*
X0160824Y0153456D01*
X0160772Y0153491D01*
X0160723Y0153529D01*
X0160675Y0153571D01*
X0160631Y0153615D01*
X0160589Y0153663D01*
X0160551Y0153712D01*
X0160516Y0153764D01*
X0160484Y0153818D01*
X0160455Y0153874D01*
X0160430Y0153932D01*
X0160409Y0153991D01*
X0160391Y0154051D01*
X0160378Y0154113D01*
X0160368Y0154175D01*
X0160362Y0154237D01*
X0160360Y0154300D01*
D14*
X0148260Y0172000D03*
D15*
X0150760Y0154750D03*
X0150760Y0189250D03*
D16*
X0150760Y0177000D03*
X0150760Y0167000D03*
M02*
