G75*
%MOIN*%
%OFA0B0*%
%FSLAX25Y25*%
%IPPOS*%
%LPD*%
%AMOC8*
5,1,8,0,0,1.08239X$1,22.5*
%
%ADD10C,0.05937*%
%ADD11OC8,0.06300*%
%ADD12C,0.06000*%
%ADD13C,0.05150*%
%ADD14C,0.03200*%
%ADD15C,0.02000*%
D10*
X0018791Y0047000D02*
X0024728Y0047000D01*
X0024728Y0057000D02*
X0018791Y0057000D01*
X0018791Y0067000D02*
X0024728Y0067000D01*
X0024728Y0077000D02*
X0018791Y0077000D01*
X0018791Y0107000D02*
X0024728Y0107000D01*
X0024728Y0117000D02*
X0018791Y0117000D01*
X0018791Y0127000D02*
X0024728Y0127000D01*
X0024728Y0137000D02*
X0018791Y0137000D01*
X0018791Y0167000D02*
X0024728Y0167000D01*
X0024728Y0177000D02*
X0018791Y0177000D01*
X0158791Y0127000D02*
X0164728Y0127000D01*
X0164728Y0117000D02*
X0158791Y0117000D01*
X0158791Y0102000D02*
X0164728Y0102000D01*
X0164728Y0092000D02*
X0158791Y0092000D01*
X0158791Y0082000D02*
X0164728Y0082000D01*
X0164728Y0072000D02*
X0158791Y0072000D01*
X0158791Y0057000D02*
X0164728Y0057000D01*
X0164728Y0047000D02*
X0158791Y0047000D01*
X0158791Y0037000D02*
X0164728Y0037000D01*
X0164728Y0027000D02*
X0158791Y0027000D01*
D11*
X0151760Y0142000D03*
X0171760Y0142000D03*
X0171760Y0202000D03*
X0151760Y0202000D03*
D12*
X0153760Y0182000D02*
X0159760Y0182000D01*
X0159760Y0172000D02*
X0153760Y0172000D01*
X0153760Y0162000D02*
X0159760Y0162000D01*
D13*
X0136760Y0157000D03*
X0136760Y0167000D03*
X0136760Y0177000D03*
X0136760Y0187000D03*
X0136760Y0197000D03*
X0136760Y0207000D03*
X0136760Y0147000D03*
X0136760Y0137000D03*
X0136760Y0127000D03*
X0136760Y0117000D03*
X0136760Y0107000D03*
X0136760Y0097000D03*
X0136760Y0087000D03*
X0136760Y0077000D03*
X0136760Y0067000D03*
X0136760Y0057000D03*
X0136760Y0047000D03*
X0136760Y0037000D03*
X0136760Y0027000D03*
X0136760Y0017000D03*
X0046760Y0017000D03*
X0046760Y0027000D03*
X0046760Y0037000D03*
X0046760Y0047000D03*
X0046760Y0057000D03*
X0046760Y0067000D03*
X0046760Y0077000D03*
X0046760Y0087000D03*
X0046760Y0097000D03*
X0046760Y0107000D03*
X0046760Y0117000D03*
X0046760Y0127000D03*
X0046760Y0137000D03*
X0046760Y0147000D03*
X0046760Y0157000D03*
X0046760Y0167000D03*
X0046760Y0177000D03*
X0046760Y0187000D03*
X0046760Y0197000D03*
X0046760Y0207000D03*
D14*
X0046760Y0177000D02*
X0021760Y0177000D01*
X0021760Y0127000D02*
X0046760Y0127000D01*
X0046760Y0117000D02*
X0021760Y0117000D01*
X0021760Y0107000D02*
X0016760Y0107000D01*
X0012360Y0102600D01*
X0012360Y0092000D01*
X0012360Y0051400D01*
X0016760Y0047000D01*
X0021760Y0047000D01*
X0021760Y0057000D02*
X0046760Y0057000D01*
X0046760Y0067000D02*
X0021760Y0067000D01*
X0151760Y0117000D02*
X0151760Y0142000D01*
X0151760Y0147000D01*
X0156760Y0152000D01*
X0156760Y0162000D01*
X0161760Y0117000D02*
X0151760Y0117000D01*
D15*
X0011760Y0047475D02*
X0011760Y0016490D01*
X0013033Y0018696D01*
X0015064Y0020727D01*
X0017551Y0022162D01*
X0020324Y0022905D01*
X0023196Y0022905D01*
X0025969Y0022162D01*
X0028456Y0020727D01*
X0030487Y0018696D01*
X0031922Y0016209D01*
X0032665Y0013436D01*
X0032665Y0010564D01*
X0031922Y0007791D01*
X0031466Y0007000D01*
X0152054Y0007000D01*
X0151598Y0007791D01*
X0150854Y0010564D01*
X0150854Y0013436D01*
X0151598Y0016209D01*
X0153033Y0018696D01*
X0155064Y0020727D01*
X0157551Y0022162D01*
X0157579Y0022170D01*
X0156884Y0022396D01*
X0156187Y0022751D01*
X0155555Y0023210D01*
X0155002Y0023763D01*
X0154542Y0024396D01*
X0154187Y0025093D01*
X0153945Y0025837D01*
X0153823Y0026609D01*
X0153823Y0027000D01*
X0161760Y0027000D01*
X0169697Y0027000D01*
X0169697Y0027391D01*
X0169575Y0028163D01*
X0169333Y0028907D01*
X0168978Y0029604D01*
X0168518Y0030237D01*
X0167965Y0030790D01*
X0167333Y0031249D01*
X0166636Y0031604D01*
X0165892Y0031846D01*
X0165120Y0031968D01*
X0161760Y0031968D01*
X0158400Y0031968D01*
X0157628Y0031846D01*
X0156884Y0031604D01*
X0156187Y0031249D01*
X0155555Y0030790D01*
X0155002Y0030237D01*
X0154542Y0029604D01*
X0154187Y0028907D01*
X0153945Y0028163D01*
X0153823Y0027391D01*
X0153823Y0027000D01*
X0161760Y0027000D01*
X0161760Y0027000D01*
X0161760Y0027000D01*
X0161760Y0031968D01*
X0161760Y0027000D01*
X0169697Y0027000D01*
X0169697Y0026609D01*
X0169575Y0025837D01*
X0169333Y0025093D01*
X0168978Y0024396D01*
X0168518Y0023763D01*
X0167965Y0023210D01*
X0167333Y0022751D01*
X0166636Y0022396D01*
X0165941Y0022170D01*
X0165969Y0022162D01*
X0168456Y0020727D01*
X0170487Y0018696D01*
X0171922Y0016209D01*
X0172665Y0013436D01*
X0172665Y0010564D01*
X0171922Y0007791D01*
X0171466Y0007000D01*
X0175461Y0007000D01*
X0175461Y0138418D01*
X0173893Y0136850D01*
X0171760Y0136850D01*
X0171760Y0142000D01*
X0171760Y0142000D01*
X0171760Y0147150D01*
X0173893Y0147150D01*
X0175461Y0145582D01*
X0175461Y0198418D01*
X0173893Y0196850D01*
X0171760Y0196850D01*
X0171760Y0202000D01*
X0171760Y0202000D01*
X0171760Y0207150D01*
X0173893Y0207150D01*
X0175461Y0205582D01*
X0175461Y0221961D01*
X0171489Y0221961D01*
X0171922Y0221209D01*
X0172665Y0218436D01*
X0172665Y0215564D01*
X0171922Y0212791D01*
X0170487Y0210304D01*
X0168456Y0208273D01*
X0165969Y0206838D01*
X0163196Y0206094D01*
X0160324Y0206094D01*
X0157551Y0206838D01*
X0155064Y0208273D01*
X0153033Y0210304D01*
X0151598Y0212791D01*
X0150854Y0215564D01*
X0150854Y0218436D01*
X0151598Y0221209D01*
X0152031Y0221961D01*
X0031489Y0221961D01*
X0031922Y0221209D01*
X0032665Y0218436D01*
X0032665Y0215564D01*
X0031922Y0212791D01*
X0030487Y0210304D01*
X0028456Y0208273D01*
X0025969Y0206838D01*
X0023196Y0206094D01*
X0020324Y0206094D01*
X0017551Y0206838D01*
X0015064Y0208273D01*
X0013033Y0210304D01*
X0011760Y0212510D01*
X0011760Y0106525D01*
X0014047Y0108813D01*
X0014947Y0109713D01*
X0015111Y0109781D01*
X0016204Y0110873D01*
X0017883Y0111568D01*
X0025637Y0111568D01*
X0027316Y0110873D01*
X0028601Y0109588D01*
X0029297Y0107909D01*
X0029297Y0106091D01*
X0028601Y0104412D01*
X0027316Y0103127D01*
X0025637Y0102431D01*
X0017883Y0102431D01*
X0017058Y0102773D01*
X0015560Y0101275D01*
X0015560Y0094600D01*
X0043256Y0094600D01*
X0043221Y0094635D01*
X0042585Y0096170D01*
X0042585Y0097830D01*
X0043221Y0099365D01*
X0044395Y0100539D01*
X0045930Y0101175D01*
X0047590Y0101175D01*
X0049125Y0100539D01*
X0050299Y0099365D01*
X0050935Y0097830D01*
X0050935Y0096170D01*
X0050299Y0094635D01*
X0050264Y0094600D01*
X0089160Y0094600D01*
X0089160Y0202517D01*
X0089556Y0203473D01*
X0090287Y0204204D01*
X0091243Y0204600D01*
X0133256Y0204600D01*
X0133221Y0204635D01*
X0132585Y0206170D01*
X0132585Y0207830D01*
X0133221Y0209365D01*
X0134395Y0210539D01*
X0135930Y0211175D01*
X0137590Y0211175D01*
X0139125Y0210539D01*
X0140299Y0209365D01*
X0140935Y0207830D01*
X0140935Y0206170D01*
X0140299Y0204635D01*
X0140264Y0204600D01*
X0147642Y0204600D01*
X0149792Y0206750D01*
X0153727Y0206750D01*
X0156510Y0203968D01*
X0156510Y0200927D01*
X0158233Y0199204D01*
X0158964Y0198473D01*
X0159360Y0197517D01*
X0159360Y0186600D01*
X0160675Y0186600D01*
X0162366Y0185900D01*
X0163660Y0184606D01*
X0164360Y0182915D01*
X0164360Y0181085D01*
X0163660Y0179394D01*
X0162366Y0178100D01*
X0160675Y0177400D01*
X0152845Y0177400D01*
X0151154Y0178100D01*
X0149860Y0179394D01*
X0149160Y0181085D01*
X0149160Y0182915D01*
X0149860Y0184606D01*
X0151154Y0185900D01*
X0152845Y0186600D01*
X0154160Y0186600D01*
X0154160Y0195923D01*
X0152833Y0197250D01*
X0149792Y0197250D01*
X0147642Y0199400D01*
X0140264Y0199400D01*
X0140299Y0199365D01*
X0140935Y0197830D01*
X0140935Y0196170D01*
X0140299Y0194635D01*
X0139125Y0193461D01*
X0137590Y0192825D01*
X0135930Y0192825D01*
X0134395Y0193461D01*
X0133221Y0194635D01*
X0132585Y0196170D01*
X0132585Y0197830D01*
X0133221Y0199365D01*
X0133256Y0199400D01*
X0094360Y0199400D01*
X0094360Y0074600D01*
X0133256Y0074600D01*
X0133221Y0074635D01*
X0132585Y0076170D01*
X0132585Y0077830D01*
X0133221Y0079365D01*
X0134395Y0080539D01*
X0135930Y0081175D01*
X0137590Y0081175D01*
X0139125Y0080539D01*
X0140064Y0079600D01*
X0145683Y0079600D01*
X0150287Y0084204D01*
X0151243Y0084600D01*
X0154931Y0084600D01*
X0156204Y0085873D01*
X0157883Y0086568D01*
X0165637Y0086568D01*
X0167316Y0085873D01*
X0168601Y0084588D01*
X0169297Y0082909D01*
X0169297Y0081091D01*
X0168601Y0079412D01*
X0167316Y0078127D01*
X0165637Y0077431D01*
X0157883Y0077431D01*
X0156204Y0078127D01*
X0154931Y0079400D01*
X0152837Y0079400D01*
X0148964Y0075527D01*
X0148233Y0074796D01*
X0147760Y0074600D01*
X0154931Y0074600D01*
X0156204Y0075873D01*
X0157883Y0076568D01*
X0165637Y0076568D01*
X0167316Y0075873D01*
X0168601Y0074588D01*
X0169297Y0072909D01*
X0169297Y0071091D01*
X0168601Y0069412D01*
X0167316Y0068127D01*
X0165637Y0067431D01*
X0164360Y0067431D01*
X0164360Y0061568D01*
X0165637Y0061568D01*
X0167316Y0060873D01*
X0168601Y0059588D01*
X0169297Y0057909D01*
X0169297Y0056091D01*
X0168601Y0054412D01*
X0167316Y0053127D01*
X0165637Y0052431D01*
X0157883Y0052431D01*
X0156204Y0053127D01*
X0154918Y0054412D01*
X0154223Y0056091D01*
X0154223Y0057909D01*
X0154918Y0059588D01*
X0156204Y0060873D01*
X0157883Y0061568D01*
X0159160Y0061568D01*
X0159160Y0067431D01*
X0157883Y0067431D01*
X0156204Y0068127D01*
X0154931Y0069400D01*
X0140264Y0069400D01*
X0140299Y0069365D01*
X0140935Y0067830D01*
X0140935Y0066502D01*
X0156458Y0050979D01*
X0157883Y0051568D01*
X0165637Y0051568D01*
X0167316Y0050873D01*
X0168601Y0049588D01*
X0169297Y0047909D01*
X0169297Y0046091D01*
X0168601Y0044412D01*
X0167316Y0043127D01*
X0165637Y0042431D01*
X0157883Y0042431D01*
X0156204Y0043127D01*
X0154918Y0044412D01*
X0154386Y0045697D01*
X0137258Y0062825D01*
X0135930Y0062825D01*
X0134395Y0063461D01*
X0133221Y0064635D01*
X0132585Y0066170D01*
X0132585Y0067830D01*
X0133221Y0069365D01*
X0133256Y0069400D01*
X0091243Y0069400D01*
X0090287Y0069796D01*
X0089556Y0070527D01*
X0089160Y0071483D01*
X0089160Y0089400D01*
X0050264Y0089400D01*
X0050299Y0089365D01*
X0050935Y0087830D01*
X0050935Y0086170D01*
X0050299Y0084635D01*
X0049125Y0083461D01*
X0047590Y0082825D01*
X0045930Y0082825D01*
X0044395Y0083461D01*
X0043221Y0084635D01*
X0042585Y0086170D01*
X0042585Y0087830D01*
X0043221Y0089365D01*
X0043256Y0089400D01*
X0015560Y0089400D01*
X0015560Y0080794D01*
X0016187Y0081249D01*
X0016884Y0081604D01*
X0017628Y0081846D01*
X0018400Y0081968D01*
X0021760Y0081968D01*
X0021760Y0077000D01*
X0029697Y0077000D01*
X0029697Y0077391D01*
X0029575Y0078163D01*
X0029333Y0078907D01*
X0028978Y0079604D01*
X0028518Y0080237D01*
X0027965Y0080790D01*
X0027333Y0081249D01*
X0026636Y0081604D01*
X0025892Y0081846D01*
X0025120Y0081968D01*
X0021760Y0081968D01*
X0021760Y0077000D01*
X0021760Y0077000D01*
X0021760Y0077000D01*
X0029697Y0077000D01*
X0029697Y0076609D01*
X0029575Y0075837D01*
X0029333Y0075093D01*
X0028978Y0074396D01*
X0028518Y0073763D01*
X0027965Y0073210D01*
X0027333Y0072751D01*
X0026636Y0072396D01*
X0025892Y0072154D01*
X0025120Y0072031D01*
X0021760Y0072031D01*
X0021760Y0077000D01*
X0021760Y0077000D01*
X0021760Y0072031D01*
X0018400Y0072031D01*
X0017628Y0072154D01*
X0016884Y0072396D01*
X0016187Y0072751D01*
X0015560Y0073206D01*
X0015560Y0070229D01*
X0016204Y0070873D01*
X0017883Y0071568D01*
X0025637Y0071568D01*
X0027316Y0070873D01*
X0027989Y0070200D01*
X0044056Y0070200D01*
X0044395Y0070539D01*
X0045930Y0071175D01*
X0047590Y0071175D01*
X0049125Y0070539D01*
X0050299Y0069365D01*
X0050935Y0067830D01*
X0050935Y0066170D01*
X0050299Y0064635D01*
X0049125Y0063461D01*
X0047590Y0062825D01*
X0045930Y0062825D01*
X0044395Y0063461D01*
X0044056Y0063800D01*
X0027989Y0063800D01*
X0027316Y0063127D01*
X0025637Y0062431D01*
X0017883Y0062431D01*
X0016204Y0063127D01*
X0015560Y0063771D01*
X0015560Y0060229D01*
X0016204Y0060873D01*
X0017883Y0061568D01*
X0025637Y0061568D01*
X0027316Y0060873D01*
X0027989Y0060200D01*
X0044056Y0060200D01*
X0044395Y0060539D01*
X0045930Y0061175D01*
X0047590Y0061175D01*
X0049125Y0060539D01*
X0050299Y0059365D01*
X0050935Y0057830D01*
X0050935Y0056170D01*
X0050299Y0054635D01*
X0049125Y0053461D01*
X0047590Y0052825D01*
X0045930Y0052825D01*
X0044395Y0053461D01*
X0044056Y0053800D01*
X0027989Y0053800D01*
X0027316Y0053127D01*
X0025637Y0052431D01*
X0017883Y0052431D01*
X0016204Y0053127D01*
X0015560Y0053771D01*
X0015560Y0052725D01*
X0017058Y0051227D01*
X0017883Y0051568D01*
X0025637Y0051568D01*
X0027316Y0050873D01*
X0028601Y0049588D01*
X0029297Y0047909D01*
X0029297Y0046091D01*
X0028601Y0044412D01*
X0027316Y0043127D01*
X0025637Y0042431D01*
X0017883Y0042431D01*
X0016204Y0043127D01*
X0015111Y0044219D01*
X0014947Y0044287D01*
X0011760Y0047475D01*
X0011760Y0045967D02*
X0013267Y0045967D01*
X0011760Y0043969D02*
X0015362Y0043969D01*
X0011760Y0041970D02*
X0148113Y0041970D01*
X0150111Y0039972D02*
X0139692Y0039972D01*
X0139125Y0040539D02*
X0137590Y0041175D01*
X0135930Y0041175D01*
X0134395Y0040539D01*
X0133221Y0039365D01*
X0132585Y0037830D01*
X0132585Y0036170D01*
X0133221Y0034635D01*
X0134395Y0033461D01*
X0135930Y0032825D01*
X0137590Y0032825D01*
X0139125Y0033461D01*
X0140299Y0034635D01*
X0140935Y0036170D01*
X0140935Y0037830D01*
X0140299Y0039365D01*
X0139125Y0040539D01*
X0137590Y0042825D02*
X0139125Y0043461D01*
X0140299Y0044635D01*
X0140935Y0046170D01*
X0140935Y0047830D01*
X0140299Y0049365D01*
X0139125Y0050539D01*
X0137590Y0051175D01*
X0135930Y0051175D01*
X0134395Y0050539D01*
X0133221Y0049365D01*
X0132585Y0047830D01*
X0132585Y0046170D01*
X0133221Y0044635D01*
X0134395Y0043461D01*
X0135930Y0042825D01*
X0137590Y0042825D01*
X0139633Y0043969D02*
X0146114Y0043969D01*
X0144116Y0045967D02*
X0140851Y0045967D01*
X0140879Y0047966D02*
X0142117Y0047966D01*
X0140119Y0049964D02*
X0139700Y0049964D01*
X0138120Y0051963D02*
X0016323Y0051963D01*
X0015560Y0061955D02*
X0138128Y0061955D01*
X0137590Y0061175D02*
X0135930Y0061175D01*
X0134395Y0060539D01*
X0133221Y0059365D01*
X0132585Y0057830D01*
X0132585Y0056170D01*
X0133221Y0054635D01*
X0134395Y0053461D01*
X0135930Y0052825D01*
X0137258Y0052825D01*
X0154386Y0035697D01*
X0154918Y0034412D01*
X0156204Y0033127D01*
X0157883Y0032431D01*
X0165637Y0032431D01*
X0167316Y0033127D01*
X0168601Y0034412D01*
X0169297Y0036091D01*
X0169297Y0037909D01*
X0168601Y0039588D01*
X0167316Y0040873D01*
X0165637Y0041568D01*
X0157883Y0041568D01*
X0156458Y0040979D01*
X0140935Y0056502D01*
X0140935Y0057830D01*
X0140299Y0059365D01*
X0139125Y0060539D01*
X0137590Y0061175D01*
X0139707Y0059957D02*
X0140126Y0059957D01*
X0140882Y0057958D02*
X0142125Y0057958D01*
X0141477Y0055960D02*
X0144123Y0055960D01*
X0143476Y0053961D02*
X0146122Y0053961D01*
X0145474Y0051963D02*
X0148120Y0051963D01*
X0147473Y0049964D02*
X0150119Y0049964D01*
X0149471Y0047966D02*
X0152117Y0047966D01*
X0151470Y0045967D02*
X0154116Y0045967D01*
X0153468Y0043969D02*
X0155362Y0043969D01*
X0155467Y0041970D02*
X0175461Y0041970D01*
X0175461Y0039972D02*
X0168218Y0039972D01*
X0169270Y0037973D02*
X0175461Y0037973D01*
X0175461Y0035975D02*
X0169249Y0035975D01*
X0168166Y0033976D02*
X0175461Y0033976D01*
X0175461Y0031978D02*
X0011760Y0031978D01*
X0011760Y0033976D02*
X0043880Y0033976D01*
X0044395Y0033461D02*
X0043221Y0034635D01*
X0042585Y0036170D01*
X0042585Y0037830D01*
X0043221Y0039365D01*
X0044395Y0040539D01*
X0045930Y0041175D01*
X0047590Y0041175D01*
X0049125Y0040539D01*
X0050299Y0039365D01*
X0050935Y0037830D01*
X0050935Y0036170D01*
X0050299Y0034635D01*
X0049125Y0033461D01*
X0047590Y0032825D01*
X0045930Y0032825D01*
X0044395Y0033461D01*
X0045930Y0031175D02*
X0044395Y0030539D01*
X0043221Y0029365D01*
X0042585Y0027830D01*
X0042585Y0026170D01*
X0043221Y0024635D01*
X0044395Y0023461D01*
X0045930Y0022825D01*
X0047590Y0022825D01*
X0049125Y0023461D01*
X0050299Y0024635D01*
X0050935Y0026170D01*
X0050935Y0027830D01*
X0050299Y0029365D01*
X0049125Y0030539D01*
X0047590Y0031175D01*
X0045930Y0031175D01*
X0043835Y0029979D02*
X0011760Y0029979D01*
X0011760Y0027981D02*
X0042647Y0027981D01*
X0042663Y0025982D02*
X0011760Y0025982D01*
X0011760Y0023984D02*
X0043872Y0023984D01*
X0045930Y0021175D02*
X0044395Y0020539D01*
X0043221Y0019365D01*
X0042585Y0017830D01*
X0042585Y0016170D01*
X0043221Y0014635D01*
X0044395Y0013461D01*
X0045930Y0012825D01*
X0047590Y0012825D01*
X0049125Y0013461D01*
X0050299Y0014635D01*
X0050935Y0016170D01*
X0050935Y0017830D01*
X0050299Y0019365D01*
X0049125Y0020539D01*
X0047590Y0021175D01*
X0045930Y0021175D01*
X0043843Y0019987D02*
X0029196Y0019987D01*
X0030895Y0017988D02*
X0042651Y0017988D01*
X0042660Y0015990D02*
X0031981Y0015990D01*
X0032517Y0013991D02*
X0043865Y0013991D01*
X0049655Y0013991D02*
X0133865Y0013991D01*
X0134395Y0013461D02*
X0133221Y0014635D01*
X0132585Y0016170D01*
X0132585Y0017830D01*
X0133221Y0019365D01*
X0134395Y0020539D01*
X0135930Y0021175D01*
X0137590Y0021175D01*
X0139125Y0020539D01*
X0140299Y0019365D01*
X0140935Y0017830D01*
X0140935Y0016170D01*
X0140299Y0014635D01*
X0139125Y0013461D01*
X0137590Y0012825D01*
X0135930Y0012825D01*
X0134395Y0013461D01*
X0132660Y0015990D02*
X0050860Y0015990D01*
X0050869Y0017988D02*
X0132651Y0017988D01*
X0133843Y0019987D02*
X0049677Y0019987D01*
X0049648Y0023984D02*
X0133872Y0023984D01*
X0134395Y0023461D02*
X0135930Y0022825D01*
X0137590Y0022825D01*
X0139125Y0023461D01*
X0140299Y0024635D01*
X0140935Y0026170D01*
X0140935Y0027830D01*
X0140299Y0029365D01*
X0139125Y0030539D01*
X0137590Y0031175D01*
X0135930Y0031175D01*
X0134395Y0030539D01*
X0133221Y0029365D01*
X0132585Y0027830D01*
X0132585Y0026170D01*
X0133221Y0024635D01*
X0134395Y0023461D01*
X0132663Y0025982D02*
X0050857Y0025982D01*
X0050873Y0027981D02*
X0132647Y0027981D01*
X0133835Y0029979D02*
X0049685Y0029979D01*
X0049640Y0033976D02*
X0133880Y0033976D01*
X0132666Y0035975D02*
X0050854Y0035975D01*
X0050876Y0037973D02*
X0132644Y0037973D01*
X0133828Y0039972D02*
X0049692Y0039972D01*
X0049125Y0043461D02*
X0047590Y0042825D01*
X0045930Y0042825D01*
X0044395Y0043461D01*
X0043221Y0044635D01*
X0042585Y0046170D01*
X0042585Y0047830D01*
X0043221Y0049365D01*
X0044395Y0050539D01*
X0045930Y0051175D01*
X0047590Y0051175D01*
X0049125Y0050539D01*
X0050299Y0049365D01*
X0050935Y0047830D01*
X0050935Y0046170D01*
X0050299Y0044635D01*
X0049125Y0043461D01*
X0049633Y0043969D02*
X0133887Y0043969D01*
X0132669Y0045967D02*
X0050851Y0045967D01*
X0050879Y0047966D02*
X0132641Y0047966D01*
X0133820Y0049964D02*
X0049700Y0049964D01*
X0049625Y0053961D02*
X0133895Y0053961D01*
X0132672Y0055960D02*
X0050848Y0055960D01*
X0050882Y0057958D02*
X0132638Y0057958D01*
X0133813Y0059957D02*
X0049707Y0059957D01*
X0049618Y0063954D02*
X0133902Y0063954D01*
X0132675Y0065952D02*
X0050845Y0065952D01*
X0050885Y0067951D02*
X0132635Y0067951D01*
X0136760Y0067000D02*
X0156760Y0047000D01*
X0161760Y0047000D01*
X0155474Y0051963D02*
X0175461Y0051963D01*
X0175461Y0053961D02*
X0168151Y0053961D01*
X0169243Y0055960D02*
X0175461Y0055960D01*
X0175461Y0057958D02*
X0169276Y0057958D01*
X0168232Y0059957D02*
X0175461Y0059957D01*
X0175461Y0061955D02*
X0164360Y0061955D01*
X0164360Y0063954D02*
X0175461Y0063954D01*
X0175461Y0065952D02*
X0164360Y0065952D01*
X0166891Y0067951D02*
X0175461Y0067951D01*
X0175461Y0069949D02*
X0168824Y0069949D01*
X0169297Y0071948D02*
X0175461Y0071948D01*
X0175461Y0073946D02*
X0168867Y0073946D01*
X0167143Y0075945D02*
X0175461Y0075945D01*
X0175461Y0077943D02*
X0166873Y0077943D01*
X0168821Y0079942D02*
X0175461Y0079942D01*
X0175461Y0081940D02*
X0169297Y0081940D01*
X0168870Y0083939D02*
X0175461Y0083939D01*
X0175461Y0085937D02*
X0167161Y0085937D01*
X0166855Y0087936D02*
X0175461Y0087936D01*
X0175461Y0089934D02*
X0168818Y0089934D01*
X0168601Y0089412D02*
X0169297Y0091091D01*
X0169297Y0092909D01*
X0168601Y0094588D01*
X0167316Y0095873D01*
X0165637Y0096568D01*
X0157883Y0096568D01*
X0156204Y0095873D01*
X0154931Y0094600D01*
X0151243Y0094600D01*
X0150287Y0094204D01*
X0145683Y0089600D01*
X0140064Y0089600D01*
X0139125Y0090539D01*
X0137590Y0091175D01*
X0135930Y0091175D01*
X0134395Y0090539D01*
X0133221Y0089365D01*
X0132585Y0087830D01*
X0132585Y0086170D01*
X0133221Y0084635D01*
X0134395Y0083461D01*
X0135930Y0082825D01*
X0137590Y0082825D01*
X0139125Y0083461D01*
X0140064Y0084400D01*
X0147277Y0084400D01*
X0148233Y0084796D01*
X0148964Y0085527D01*
X0148964Y0085527D01*
X0152837Y0089400D01*
X0154931Y0089400D01*
X0156204Y0088127D01*
X0157883Y0087431D01*
X0165637Y0087431D01*
X0167316Y0088127D01*
X0168601Y0089412D01*
X0169297Y0091933D02*
X0175461Y0091933D01*
X0175461Y0093932D02*
X0168873Y0093932D01*
X0167179Y0095930D02*
X0175461Y0095930D01*
X0175461Y0097929D02*
X0167578Y0097929D01*
X0167333Y0097751D02*
X0167965Y0098210D01*
X0168518Y0098763D01*
X0168978Y0099396D01*
X0169333Y0100093D01*
X0169575Y0100837D01*
X0169697Y0101609D01*
X0169697Y0102000D01*
X0169697Y0102391D01*
X0169575Y0103163D01*
X0169333Y0103907D01*
X0168978Y0104604D01*
X0168518Y0105237D01*
X0167965Y0105790D01*
X0167333Y0106249D01*
X0166636Y0106604D01*
X0165892Y0106846D01*
X0165120Y0106968D01*
X0161760Y0106968D01*
X0158400Y0106968D01*
X0157628Y0106846D01*
X0156884Y0106604D01*
X0156187Y0106249D01*
X0155555Y0105790D01*
X0155002Y0105237D01*
X0154542Y0104604D01*
X0154187Y0103907D01*
X0153945Y0103163D01*
X0153823Y0102391D01*
X0153823Y0102000D01*
X0161760Y0102000D01*
X0169697Y0102000D01*
X0161760Y0102000D01*
X0161760Y0102000D01*
X0161760Y0102000D01*
X0161760Y0106968D01*
X0161760Y0102000D01*
X0161760Y0097031D01*
X0165120Y0097031D01*
X0165892Y0097154D01*
X0166636Y0097396D01*
X0167333Y0097751D01*
X0169249Y0099927D02*
X0175461Y0099927D01*
X0175461Y0101926D02*
X0169697Y0101926D01*
X0169324Y0103924D02*
X0175461Y0103924D01*
X0175461Y0105923D02*
X0167782Y0105923D01*
X0165637Y0112431D02*
X0167316Y0113127D01*
X0168601Y0114412D01*
X0169297Y0116091D01*
X0169297Y0117909D01*
X0168601Y0119588D01*
X0167316Y0120873D01*
X0165637Y0121568D01*
X0157883Y0121568D01*
X0156204Y0120873D01*
X0155531Y0120200D01*
X0154960Y0120200D01*
X0154960Y0123821D01*
X0155002Y0123763D01*
X0155555Y0123210D01*
X0156187Y0122751D01*
X0156884Y0122396D01*
X0157628Y0122154D01*
X0158400Y0122031D01*
X0161760Y0122031D01*
X0165120Y0122031D01*
X0165892Y0122154D01*
X0166636Y0122396D01*
X0167333Y0122751D01*
X0167965Y0123210D01*
X0168518Y0123763D01*
X0168978Y0124396D01*
X0169333Y0125093D01*
X0169575Y0125837D01*
X0169697Y0126609D01*
X0169697Y0127000D01*
X0169697Y0127391D01*
X0169575Y0128163D01*
X0169333Y0128907D01*
X0168978Y0129604D01*
X0168518Y0130237D01*
X0167965Y0130790D01*
X0167333Y0131249D01*
X0166636Y0131604D01*
X0165892Y0131846D01*
X0165120Y0131968D01*
X0161760Y0131968D01*
X0158400Y0131968D01*
X0157628Y0131846D01*
X0156884Y0131604D01*
X0156187Y0131249D01*
X0155555Y0130790D01*
X0155002Y0130237D01*
X0154960Y0130179D01*
X0154960Y0138482D01*
X0156510Y0140032D01*
X0156510Y0143968D01*
X0154960Y0145518D01*
X0154960Y0145675D01*
X0158573Y0149287D01*
X0159473Y0150187D01*
X0159960Y0151363D01*
X0159960Y0157400D01*
X0160675Y0157400D01*
X0162366Y0158100D01*
X0163660Y0159394D01*
X0164360Y0161085D01*
X0164360Y0162915D01*
X0163660Y0164606D01*
X0162366Y0165900D01*
X0160675Y0166600D01*
X0152845Y0166600D01*
X0151154Y0165900D01*
X0149860Y0164606D01*
X0149160Y0162915D01*
X0149160Y0161085D01*
X0149860Y0159394D01*
X0151154Y0158100D01*
X0152845Y0157400D01*
X0153560Y0157400D01*
X0153560Y0153325D01*
X0149047Y0148813D01*
X0148560Y0147637D01*
X0148560Y0145518D01*
X0147010Y0143968D01*
X0147010Y0140032D01*
X0148560Y0138482D01*
X0148560Y0116363D01*
X0149047Y0115187D01*
X0149947Y0114287D01*
X0151123Y0113800D01*
X0155531Y0113800D01*
X0156204Y0113127D01*
X0157883Y0112431D01*
X0165637Y0112431D01*
X0168106Y0113917D02*
X0175461Y0113917D01*
X0175461Y0115915D02*
X0169224Y0115915D01*
X0169295Y0117914D02*
X0175461Y0117914D01*
X0175461Y0119912D02*
X0168277Y0119912D01*
X0168624Y0123909D02*
X0175461Y0123909D01*
X0175461Y0121911D02*
X0154960Y0121911D01*
X0148560Y0121911D02*
X0094360Y0121911D01*
X0094360Y0123909D02*
X0133947Y0123909D01*
X0134395Y0123461D02*
X0135930Y0122825D01*
X0137590Y0122825D01*
X0139125Y0123461D01*
X0140299Y0124635D01*
X0140935Y0126170D01*
X0140935Y0127830D01*
X0140299Y0129365D01*
X0139125Y0130539D01*
X0137590Y0131175D01*
X0135930Y0131175D01*
X0134395Y0130539D01*
X0133221Y0129365D01*
X0132585Y0127830D01*
X0132585Y0126170D01*
X0133221Y0124635D01*
X0134395Y0123461D01*
X0135930Y0121175D02*
X0134395Y0120539D01*
X0133221Y0119365D01*
X0132585Y0117830D01*
X0132585Y0116170D01*
X0133221Y0114635D01*
X0134395Y0113461D01*
X0135930Y0112825D01*
X0137590Y0112825D01*
X0139125Y0113461D01*
X0140299Y0114635D01*
X0140935Y0116170D01*
X0140935Y0117830D01*
X0140299Y0119365D01*
X0139125Y0120539D01*
X0137590Y0121175D01*
X0135930Y0121175D01*
X0133768Y0119912D02*
X0094360Y0119912D01*
X0094360Y0117914D02*
X0132620Y0117914D01*
X0132691Y0115915D02*
X0094360Y0115915D01*
X0094360Y0113917D02*
X0133939Y0113917D01*
X0135930Y0111175D02*
X0134395Y0110539D01*
X0133221Y0109365D01*
X0132585Y0107830D01*
X0132585Y0106170D01*
X0133221Y0104635D01*
X0134395Y0103461D01*
X0135930Y0102825D01*
X0137590Y0102825D01*
X0139125Y0103461D01*
X0140299Y0104635D01*
X0140935Y0106170D01*
X0140935Y0107830D01*
X0140299Y0109365D01*
X0139125Y0110539D01*
X0137590Y0111175D01*
X0135930Y0111175D01*
X0133776Y0109920D02*
X0094360Y0109920D01*
X0094360Y0111918D02*
X0175461Y0111918D01*
X0175461Y0109920D02*
X0139744Y0109920D01*
X0140897Y0107921D02*
X0175461Y0107921D01*
X0161760Y0105923D02*
X0161760Y0105923D01*
X0161760Y0103924D02*
X0161760Y0103924D01*
X0161760Y0102000D02*
X0161760Y0102000D01*
X0161760Y0102000D01*
X0161760Y0097031D01*
X0158400Y0097031D01*
X0157628Y0097154D01*
X0156884Y0097396D01*
X0156187Y0097751D01*
X0155555Y0098210D01*
X0155002Y0098763D01*
X0154542Y0099396D01*
X0154187Y0100093D01*
X0153945Y0100837D01*
X0153823Y0101609D01*
X0153823Y0102000D01*
X0161760Y0102000D01*
X0161760Y0101926D02*
X0161760Y0101926D01*
X0161760Y0099927D02*
X0161760Y0099927D01*
X0161760Y0097929D02*
X0161760Y0097929D01*
X0156341Y0095930D02*
X0140836Y0095930D01*
X0140935Y0096170D02*
X0140299Y0094635D01*
X0139125Y0093461D01*
X0137590Y0092825D01*
X0135930Y0092825D01*
X0134395Y0093461D01*
X0133221Y0094635D01*
X0132585Y0096170D01*
X0132585Y0097830D01*
X0133221Y0099365D01*
X0134395Y0100539D01*
X0135930Y0101175D01*
X0137590Y0101175D01*
X0139125Y0100539D01*
X0140299Y0099365D01*
X0140935Y0097830D01*
X0140935Y0096170D01*
X0140894Y0097929D02*
X0155942Y0097929D01*
X0154271Y0099927D02*
X0139737Y0099927D01*
X0139588Y0103924D02*
X0154196Y0103924D01*
X0153823Y0101926D02*
X0094360Y0101926D01*
X0094360Y0103924D02*
X0133932Y0103924D01*
X0132687Y0105923D02*
X0094360Y0105923D01*
X0094360Y0107921D02*
X0132623Y0107921D01*
X0133783Y0099927D02*
X0094360Y0099927D01*
X0094360Y0097929D02*
X0132626Y0097929D01*
X0132684Y0095930D02*
X0094360Y0095930D01*
X0094360Y0093932D02*
X0133924Y0093932D01*
X0133790Y0089934D02*
X0094360Y0089934D01*
X0094360Y0087936D02*
X0132629Y0087936D01*
X0132681Y0085937D02*
X0094360Y0085937D01*
X0094360Y0083939D02*
X0133917Y0083939D01*
X0133798Y0079942D02*
X0094360Y0079942D01*
X0094360Y0081940D02*
X0148023Y0081940D01*
X0146025Y0079942D02*
X0139722Y0079942D01*
X0136760Y0077000D02*
X0146760Y0077000D01*
X0151760Y0082000D01*
X0161760Y0082000D01*
X0156647Y0077943D02*
X0151380Y0077943D01*
X0149382Y0075945D02*
X0156377Y0075945D01*
X0161760Y0072000D02*
X0091760Y0072000D01*
X0091760Y0092000D01*
X0091760Y0202000D01*
X0151760Y0202000D01*
X0156760Y0197000D01*
X0156760Y0182000D01*
X0159360Y0187862D02*
X0175461Y0187862D01*
X0175461Y0189860D02*
X0159360Y0189860D01*
X0159360Y0191859D02*
X0175461Y0191859D01*
X0175461Y0193857D02*
X0159360Y0193857D01*
X0159360Y0195856D02*
X0175461Y0195856D01*
X0175461Y0197854D02*
X0174897Y0197854D01*
X0171760Y0197854D02*
X0171760Y0197854D01*
X0171760Y0196850D02*
X0171760Y0202000D01*
X0171760Y0202000D01*
X0171760Y0202000D01*
X0166610Y0202000D01*
X0166610Y0204133D01*
X0169627Y0207150D01*
X0171760Y0207150D01*
X0171760Y0202000D01*
X0166610Y0202000D01*
X0166610Y0199867D01*
X0169627Y0196850D01*
X0171760Y0196850D01*
X0171760Y0199853D02*
X0171760Y0199853D01*
X0171760Y0201851D02*
X0171760Y0201851D01*
X0171760Y0203850D02*
X0171760Y0203850D01*
X0171760Y0205848D02*
X0171760Y0205848D01*
X0168325Y0205848D02*
X0154629Y0205848D01*
X0155803Y0207847D02*
X0140928Y0207847D01*
X0140802Y0205848D02*
X0148891Y0205848D01*
X0153492Y0209845D02*
X0139819Y0209845D01*
X0133701Y0209845D02*
X0050348Y0209845D01*
X0050249Y0209980D02*
X0049740Y0210489D01*
X0049158Y0210913D01*
X0048516Y0211240D01*
X0047831Y0211462D01*
X0047120Y0211575D01*
X0046760Y0211575D01*
X0046760Y0207000D01*
X0051335Y0207000D01*
X0051335Y0207360D01*
X0051222Y0208071D01*
X0051000Y0208756D01*
X0050673Y0209398D01*
X0050249Y0209980D01*
X0051258Y0207847D02*
X0132592Y0207847D01*
X0132718Y0205848D02*
X0051196Y0205848D01*
X0051222Y0205929D02*
X0051335Y0206640D01*
X0051335Y0207000D01*
X0046760Y0207000D01*
X0046760Y0207000D01*
X0046760Y0207000D01*
X0046760Y0202425D01*
X0047120Y0202425D01*
X0047831Y0202538D01*
X0048516Y0202760D01*
X0049158Y0203087D01*
X0049740Y0203511D01*
X0050249Y0204020D01*
X0050673Y0204602D01*
X0051000Y0205244D01*
X0051222Y0205929D01*
X0050079Y0203850D02*
X0089933Y0203850D01*
X0089160Y0201851D02*
X0011760Y0201851D01*
X0011760Y0199853D02*
X0043709Y0199853D01*
X0043221Y0199365D02*
X0042585Y0197830D01*
X0042585Y0196170D01*
X0043221Y0194635D01*
X0044395Y0193461D01*
X0045930Y0192825D01*
X0047590Y0192825D01*
X0049125Y0193461D01*
X0050299Y0194635D01*
X0050935Y0196170D01*
X0050935Y0197830D01*
X0050299Y0199365D01*
X0049125Y0200539D01*
X0047590Y0201175D01*
X0045930Y0201175D01*
X0044395Y0200539D01*
X0043221Y0199365D01*
X0042595Y0197854D02*
X0011760Y0197854D01*
X0011760Y0195856D02*
X0042715Y0195856D01*
X0043999Y0193857D02*
X0011760Y0193857D01*
X0011760Y0191859D02*
X0089160Y0191859D01*
X0089160Y0193857D02*
X0049521Y0193857D01*
X0050805Y0195856D02*
X0089160Y0195856D01*
X0089160Y0197854D02*
X0050925Y0197854D01*
X0049811Y0199853D02*
X0089160Y0199853D01*
X0094360Y0197854D02*
X0132595Y0197854D01*
X0132715Y0195856D02*
X0094360Y0195856D01*
X0094360Y0193857D02*
X0133999Y0193857D01*
X0135930Y0191175D02*
X0134395Y0190539D01*
X0133221Y0189365D01*
X0132585Y0187830D01*
X0132585Y0186170D01*
X0133221Y0184635D01*
X0134395Y0183461D01*
X0135930Y0182825D01*
X0137590Y0182825D01*
X0139125Y0183461D01*
X0140299Y0184635D01*
X0140935Y0186170D01*
X0140935Y0187830D01*
X0140299Y0189365D01*
X0139125Y0190539D01*
X0137590Y0191175D01*
X0135930Y0191175D01*
X0133716Y0189860D02*
X0094360Y0189860D01*
X0094360Y0187862D02*
X0132598Y0187862D01*
X0132712Y0185863D02*
X0094360Y0185863D01*
X0094360Y0183865D02*
X0133991Y0183865D01*
X0135930Y0181175D02*
X0134395Y0180539D01*
X0133221Y0179365D01*
X0132585Y0177830D01*
X0132585Y0176170D01*
X0133221Y0174635D01*
X0134395Y0173461D01*
X0135930Y0172825D01*
X0137590Y0172825D01*
X0139125Y0173461D01*
X0140299Y0174635D01*
X0140935Y0176170D01*
X0140935Y0177830D01*
X0140299Y0179365D01*
X0139125Y0180539D01*
X0137590Y0181175D01*
X0135930Y0181175D01*
X0133723Y0179868D02*
X0094360Y0179868D01*
X0094360Y0181866D02*
X0149160Y0181866D01*
X0149553Y0183865D02*
X0139529Y0183865D01*
X0140808Y0185863D02*
X0151118Y0185863D01*
X0154160Y0187862D02*
X0140922Y0187862D01*
X0139804Y0189860D02*
X0154160Y0189860D01*
X0154160Y0191859D02*
X0094360Y0191859D01*
X0089160Y0189860D02*
X0049804Y0189860D01*
X0050299Y0189365D02*
X0049125Y0190539D01*
X0047590Y0191175D01*
X0045930Y0191175D01*
X0044395Y0190539D01*
X0043221Y0189365D01*
X0042585Y0187830D01*
X0042585Y0186170D01*
X0043221Y0184635D01*
X0044395Y0183461D01*
X0045930Y0182825D01*
X0047590Y0182825D01*
X0049125Y0183461D01*
X0050299Y0184635D01*
X0050935Y0186170D01*
X0050935Y0187830D01*
X0050299Y0189365D01*
X0050922Y0187862D02*
X0089160Y0187862D01*
X0089160Y0185863D02*
X0050808Y0185863D01*
X0049529Y0183865D02*
X0089160Y0183865D01*
X0089160Y0181866D02*
X0011760Y0181866D01*
X0011760Y0179868D02*
X0015198Y0179868D01*
X0014918Y0179588D02*
X0014223Y0177909D01*
X0014223Y0176091D01*
X0014918Y0174412D01*
X0016204Y0173127D01*
X0017883Y0172431D01*
X0025637Y0172431D01*
X0027316Y0173127D01*
X0027989Y0173800D01*
X0044056Y0173800D01*
X0044395Y0173461D01*
X0045930Y0172825D01*
X0047590Y0172825D01*
X0049125Y0173461D01*
X0050299Y0174635D01*
X0050935Y0176170D01*
X0050935Y0177830D01*
X0050299Y0179365D01*
X0049125Y0180539D01*
X0047590Y0181175D01*
X0045930Y0181175D01*
X0044395Y0180539D01*
X0044056Y0180200D01*
X0027989Y0180200D01*
X0027316Y0180873D01*
X0025637Y0181568D01*
X0017883Y0181568D01*
X0016204Y0180873D01*
X0014918Y0179588D01*
X0014223Y0177869D02*
X0011760Y0177869D01*
X0011760Y0175870D02*
X0014314Y0175870D01*
X0015459Y0173872D02*
X0011760Y0173872D01*
X0011760Y0171873D02*
X0017800Y0171873D01*
X0017628Y0171846D02*
X0016884Y0171604D01*
X0016187Y0171249D01*
X0015555Y0170790D01*
X0015002Y0170237D01*
X0014542Y0169604D01*
X0014187Y0168907D01*
X0013945Y0168163D01*
X0013823Y0167391D01*
X0013823Y0167000D01*
X0021760Y0167000D01*
X0029697Y0167000D01*
X0029697Y0167391D01*
X0029575Y0168163D01*
X0029333Y0168907D01*
X0028978Y0169604D01*
X0028518Y0170237D01*
X0027965Y0170790D01*
X0027333Y0171249D01*
X0026636Y0171604D01*
X0025892Y0171846D01*
X0025120Y0171968D01*
X0021760Y0171968D01*
X0018400Y0171968D01*
X0017628Y0171846D01*
X0014739Y0169875D02*
X0011760Y0169875D01*
X0011760Y0167876D02*
X0013900Y0167876D01*
X0013823Y0167000D02*
X0013823Y0166609D01*
X0013945Y0165837D01*
X0014187Y0165093D01*
X0014542Y0164396D01*
X0015002Y0163763D01*
X0015555Y0163210D01*
X0016187Y0162751D01*
X0016884Y0162396D01*
X0017628Y0162154D01*
X0018400Y0162031D01*
X0021760Y0162031D01*
X0025120Y0162031D01*
X0025892Y0162154D01*
X0026636Y0162396D01*
X0027333Y0162751D01*
X0027965Y0163210D01*
X0028518Y0163763D01*
X0028978Y0164396D01*
X0029333Y0165093D01*
X0029575Y0165837D01*
X0029697Y0166609D01*
X0029697Y0167000D01*
X0021760Y0167000D01*
X0021760Y0167000D01*
X0021760Y0167000D01*
X0021760Y0171968D01*
X0021760Y0167000D01*
X0021760Y0162031D01*
X0021760Y0167000D01*
X0021760Y0167000D01*
X0021760Y0167000D01*
X0013823Y0167000D01*
X0013939Y0165878D02*
X0011760Y0165878D01*
X0011760Y0163879D02*
X0014917Y0163879D01*
X0011760Y0161881D02*
X0089160Y0161881D01*
X0089160Y0163879D02*
X0049543Y0163879D01*
X0049125Y0163461D02*
X0050299Y0164635D01*
X0050935Y0166170D01*
X0050935Y0167830D01*
X0050299Y0169365D01*
X0049125Y0170539D01*
X0047590Y0171175D01*
X0045930Y0171175D01*
X0044395Y0170539D01*
X0043221Y0169365D01*
X0042585Y0167830D01*
X0042585Y0166170D01*
X0043221Y0164635D01*
X0044395Y0163461D01*
X0045930Y0162825D01*
X0047590Y0162825D01*
X0049125Y0163461D01*
X0047590Y0161175D02*
X0045930Y0161175D01*
X0044395Y0160539D01*
X0043221Y0159365D01*
X0042585Y0157830D01*
X0042585Y0156170D01*
X0043221Y0154635D01*
X0044395Y0153461D01*
X0045930Y0152825D01*
X0047590Y0152825D01*
X0049125Y0153461D01*
X0050299Y0154635D01*
X0050935Y0156170D01*
X0050935Y0157830D01*
X0050299Y0159365D01*
X0049125Y0160539D01*
X0047590Y0161175D01*
X0049782Y0159882D02*
X0089160Y0159882D01*
X0089160Y0157884D02*
X0050913Y0157884D01*
X0050817Y0155885D02*
X0089160Y0155885D01*
X0089160Y0153887D02*
X0049551Y0153887D01*
X0047590Y0151175D02*
X0045930Y0151175D01*
X0044395Y0150539D01*
X0043221Y0149365D01*
X0042585Y0147830D01*
X0042585Y0146170D01*
X0043221Y0144635D01*
X0044395Y0143461D01*
X0045930Y0142825D01*
X0047590Y0142825D01*
X0049125Y0143461D01*
X0050299Y0144635D01*
X0050935Y0146170D01*
X0050935Y0147830D01*
X0050299Y0149365D01*
X0049125Y0150539D01*
X0047590Y0151175D01*
X0049774Y0149890D02*
X0089160Y0149890D01*
X0089160Y0151888D02*
X0011760Y0151888D01*
X0011760Y0149890D02*
X0043746Y0149890D01*
X0042610Y0147891D02*
X0011760Y0147891D01*
X0011760Y0145893D02*
X0042700Y0145893D01*
X0043962Y0143894D02*
X0011760Y0143894D01*
X0011760Y0141896D02*
X0017941Y0141896D01*
X0017628Y0141846D02*
X0016884Y0141604D01*
X0016187Y0141249D01*
X0015555Y0140790D01*
X0015002Y0140237D01*
X0014542Y0139604D01*
X0014187Y0138907D01*
X0013945Y0138163D01*
X0013823Y0137391D01*
X0013823Y0137000D01*
X0021760Y0137000D01*
X0029697Y0137000D01*
X0029697Y0137391D01*
X0029575Y0138163D01*
X0029333Y0138907D01*
X0028978Y0139604D01*
X0028518Y0140237D01*
X0027965Y0140790D01*
X0027333Y0141249D01*
X0026636Y0141604D01*
X0025892Y0141846D01*
X0025120Y0141968D01*
X0021760Y0141968D01*
X0018400Y0141968D01*
X0017628Y0141846D01*
X0014755Y0139897D02*
X0011760Y0139897D01*
X0011760Y0137899D02*
X0013903Y0137899D01*
X0013823Y0137000D02*
X0013823Y0136609D01*
X0013945Y0135837D01*
X0014187Y0135093D01*
X0014542Y0134396D01*
X0015002Y0133763D01*
X0015555Y0133210D01*
X0016187Y0132751D01*
X0016884Y0132396D01*
X0017628Y0132154D01*
X0018400Y0132031D01*
X0021760Y0132031D01*
X0025120Y0132031D01*
X0025892Y0132154D01*
X0026636Y0132396D01*
X0027333Y0132751D01*
X0027965Y0133210D01*
X0028518Y0133763D01*
X0028978Y0134396D01*
X0029333Y0135093D01*
X0029575Y0135837D01*
X0029697Y0136609D01*
X0029697Y0137000D01*
X0021760Y0137000D01*
X0021760Y0137000D01*
X0021760Y0137000D01*
X0021760Y0141968D01*
X0021760Y0137000D01*
X0021760Y0132031D01*
X0021760Y0137000D01*
X0021760Y0137000D01*
X0021760Y0137000D01*
X0013823Y0137000D01*
X0013935Y0135900D02*
X0011760Y0135900D01*
X0011760Y0133902D02*
X0014901Y0133902D01*
X0016204Y0130873D02*
X0017883Y0131568D01*
X0025637Y0131568D01*
X0027316Y0130873D01*
X0027989Y0130200D01*
X0044056Y0130200D01*
X0044395Y0130539D01*
X0045930Y0131175D01*
X0047590Y0131175D01*
X0049125Y0130539D01*
X0050299Y0129365D01*
X0050935Y0127830D01*
X0050935Y0126170D01*
X0050299Y0124635D01*
X0049125Y0123461D01*
X0047590Y0122825D01*
X0045930Y0122825D01*
X0044395Y0123461D01*
X0044056Y0123800D01*
X0027989Y0123800D01*
X0027316Y0123127D01*
X0025637Y0122431D01*
X0017883Y0122431D01*
X0016204Y0123127D01*
X0014918Y0124412D01*
X0014223Y0126091D01*
X0014223Y0127909D01*
X0014918Y0129588D01*
X0016204Y0130873D01*
X0015235Y0129905D02*
X0011760Y0129905D01*
X0011760Y0131903D02*
X0089160Y0131903D01*
X0089160Y0129905D02*
X0049759Y0129905D01*
X0050903Y0127906D02*
X0089160Y0127906D01*
X0089160Y0125908D02*
X0050826Y0125908D01*
X0049573Y0123909D02*
X0089160Y0123909D01*
X0089160Y0121911D02*
X0011760Y0121911D01*
X0011760Y0123909D02*
X0015421Y0123909D01*
X0014299Y0125908D02*
X0011760Y0125908D01*
X0011760Y0127906D02*
X0014223Y0127906D01*
X0016204Y0120873D02*
X0014918Y0119588D01*
X0014223Y0117909D01*
X0014223Y0116091D01*
X0014918Y0114412D01*
X0016204Y0113127D01*
X0017883Y0112431D01*
X0025637Y0112431D01*
X0027316Y0113127D01*
X0027989Y0113800D01*
X0044056Y0113800D01*
X0044395Y0113461D01*
X0045930Y0112825D01*
X0047590Y0112825D01*
X0049125Y0113461D01*
X0050299Y0114635D01*
X0050935Y0116170D01*
X0050935Y0117830D01*
X0050299Y0119365D01*
X0049125Y0120539D01*
X0047590Y0121175D01*
X0045930Y0121175D01*
X0044395Y0120539D01*
X0044056Y0120200D01*
X0027989Y0120200D01*
X0027316Y0120873D01*
X0025637Y0121568D01*
X0017883Y0121568D01*
X0016204Y0120873D01*
X0015243Y0119912D02*
X0011760Y0119912D01*
X0011760Y0117914D02*
X0014225Y0117914D01*
X0014296Y0115915D02*
X0011760Y0115915D01*
X0011760Y0113917D02*
X0015414Y0113917D01*
X0015250Y0109920D02*
X0011760Y0109920D01*
X0011760Y0111918D02*
X0089160Y0111918D01*
X0089160Y0109920D02*
X0049744Y0109920D01*
X0050299Y0109365D02*
X0049125Y0110539D01*
X0047590Y0111175D01*
X0045930Y0111175D01*
X0044395Y0110539D01*
X0043221Y0109365D01*
X0042585Y0107830D01*
X0042585Y0106170D01*
X0043221Y0104635D01*
X0044395Y0103461D01*
X0045930Y0102825D01*
X0047590Y0102825D01*
X0049125Y0103461D01*
X0050299Y0104635D01*
X0050935Y0106170D01*
X0050935Y0107830D01*
X0050299Y0109365D01*
X0050897Y0107921D02*
X0089160Y0107921D01*
X0089160Y0105923D02*
X0050832Y0105923D01*
X0049588Y0103924D02*
X0089160Y0103924D01*
X0089160Y0101926D02*
X0016211Y0101926D01*
X0015560Y0099927D02*
X0043783Y0099927D01*
X0042626Y0097929D02*
X0015560Y0097929D01*
X0015560Y0095930D02*
X0042684Y0095930D01*
X0042629Y0087936D02*
X0015560Y0087936D01*
X0015560Y0085937D02*
X0042681Y0085937D01*
X0043917Y0083939D02*
X0015560Y0083939D01*
X0015560Y0081940D02*
X0018223Y0081940D01*
X0021760Y0081940D02*
X0021760Y0081940D01*
X0021760Y0079942D02*
X0021760Y0079942D01*
X0021760Y0077943D02*
X0021760Y0077943D01*
X0021760Y0075945D02*
X0021760Y0075945D01*
X0021760Y0073946D02*
X0021760Y0073946D01*
X0015560Y0071948D02*
X0089160Y0071948D01*
X0089160Y0073946D02*
X0049610Y0073946D01*
X0049125Y0073461D02*
X0047590Y0072825D01*
X0045930Y0072825D01*
X0044395Y0073461D01*
X0043221Y0074635D01*
X0042585Y0076170D01*
X0042585Y0077830D01*
X0043221Y0079365D01*
X0044395Y0080539D01*
X0045930Y0081175D01*
X0047590Y0081175D01*
X0049125Y0080539D01*
X0050299Y0079365D01*
X0050935Y0077830D01*
X0050935Y0076170D01*
X0050299Y0074635D01*
X0049125Y0073461D01*
X0050842Y0075945D02*
X0089160Y0075945D01*
X0089160Y0077943D02*
X0050888Y0077943D01*
X0049722Y0079942D02*
X0089160Y0079942D01*
X0089160Y0081940D02*
X0025297Y0081940D01*
X0028732Y0079942D02*
X0043798Y0079942D01*
X0042632Y0077943D02*
X0029609Y0077943D01*
X0029592Y0075945D02*
X0042678Y0075945D01*
X0043910Y0073946D02*
X0028651Y0073946D01*
X0012360Y0092000D02*
X0091760Y0092000D01*
X0089160Y0087936D02*
X0050891Y0087936D01*
X0050839Y0085937D02*
X0089160Y0085937D01*
X0089160Y0083939D02*
X0049603Y0083939D01*
X0050836Y0095930D02*
X0089160Y0095930D01*
X0089160Y0097929D02*
X0050894Y0097929D01*
X0049737Y0099927D02*
X0089160Y0099927D01*
X0094360Y0091933D02*
X0148016Y0091933D01*
X0146018Y0089934D02*
X0139730Y0089934D01*
X0139596Y0093932D02*
X0150015Y0093932D01*
X0151760Y0092000D02*
X0146760Y0087000D01*
X0136760Y0087000D01*
X0139603Y0083939D02*
X0150022Y0083939D01*
X0149374Y0085937D02*
X0156359Y0085937D01*
X0156665Y0087936D02*
X0151373Y0087936D01*
X0151760Y0092000D02*
X0161760Y0092000D01*
X0155738Y0105923D02*
X0140832Y0105923D01*
X0139581Y0113917D02*
X0150842Y0113917D01*
X0148746Y0115915D02*
X0140829Y0115915D01*
X0140900Y0117914D02*
X0148560Y0117914D01*
X0148560Y0119912D02*
X0139752Y0119912D01*
X0139573Y0123909D02*
X0148560Y0123909D01*
X0148560Y0125908D02*
X0140826Y0125908D01*
X0140903Y0127906D02*
X0148560Y0127906D01*
X0148560Y0129905D02*
X0139759Y0129905D01*
X0139125Y0133461D02*
X0137590Y0132825D01*
X0135930Y0132825D01*
X0134395Y0133461D01*
X0133221Y0134635D01*
X0132585Y0136170D01*
X0132585Y0137830D01*
X0133221Y0139365D01*
X0134395Y0140539D01*
X0135930Y0141175D01*
X0137590Y0141175D01*
X0139125Y0140539D01*
X0140299Y0139365D01*
X0140935Y0137830D01*
X0140935Y0136170D01*
X0140299Y0134635D01*
X0139125Y0133461D01*
X0139566Y0133902D02*
X0148560Y0133902D01*
X0148560Y0135900D02*
X0140823Y0135900D01*
X0140906Y0137899D02*
X0148560Y0137899D01*
X0147145Y0139897D02*
X0139767Y0139897D01*
X0139125Y0143461D02*
X0137590Y0142825D01*
X0135930Y0142825D01*
X0134395Y0143461D01*
X0133221Y0144635D01*
X0132585Y0146170D01*
X0132585Y0147830D01*
X0133221Y0149365D01*
X0134395Y0150539D01*
X0135930Y0151175D01*
X0137590Y0151175D01*
X0139125Y0150539D01*
X0140299Y0149365D01*
X0140935Y0147830D01*
X0140935Y0146170D01*
X0140299Y0144635D01*
X0139125Y0143461D01*
X0139558Y0143894D02*
X0147010Y0143894D01*
X0147010Y0141896D02*
X0094360Y0141896D01*
X0094360Y0143894D02*
X0133962Y0143894D01*
X0132700Y0145893D02*
X0094360Y0145893D01*
X0094360Y0147891D02*
X0132610Y0147891D01*
X0133746Y0149890D02*
X0094360Y0149890D01*
X0094360Y0151888D02*
X0152123Y0151888D01*
X0153560Y0153887D02*
X0139551Y0153887D01*
X0139125Y0153461D02*
X0140299Y0154635D01*
X0140935Y0156170D01*
X0140935Y0157830D01*
X0140299Y0159365D01*
X0139125Y0160539D01*
X0137590Y0161175D01*
X0135930Y0161175D01*
X0134395Y0160539D01*
X0133221Y0159365D01*
X0132585Y0157830D01*
X0132585Y0156170D01*
X0133221Y0154635D01*
X0134395Y0153461D01*
X0135930Y0152825D01*
X0137590Y0152825D01*
X0139125Y0153461D01*
X0140817Y0155885D02*
X0153560Y0155885D01*
X0151677Y0157884D02*
X0140913Y0157884D01*
X0139782Y0159882D02*
X0149658Y0159882D01*
X0149160Y0161881D02*
X0094360Y0161881D01*
X0094360Y0163879D02*
X0133977Y0163879D01*
X0134395Y0163461D02*
X0135930Y0162825D01*
X0137590Y0162825D01*
X0139125Y0163461D01*
X0140299Y0164635D01*
X0140935Y0166170D01*
X0140935Y0167830D01*
X0140299Y0169365D01*
X0139125Y0170539D01*
X0137590Y0171175D01*
X0135930Y0171175D01*
X0134395Y0170539D01*
X0133221Y0169365D01*
X0132585Y0167830D01*
X0132585Y0166170D01*
X0133221Y0164635D01*
X0134395Y0163461D01*
X0132706Y0165878D02*
X0094360Y0165878D01*
X0094360Y0167876D02*
X0132604Y0167876D01*
X0133731Y0169875D02*
X0094360Y0169875D01*
X0094360Y0171873D02*
X0148760Y0171873D01*
X0148760Y0172000D02*
X0148760Y0171606D01*
X0148883Y0170829D01*
X0149126Y0170081D01*
X0149484Y0169379D01*
X0149946Y0168743D01*
X0150503Y0168186D01*
X0151139Y0167724D01*
X0151841Y0167366D01*
X0152589Y0167123D01*
X0153366Y0167000D01*
X0156760Y0167000D01*
X0160153Y0167000D01*
X0160931Y0167123D01*
X0161679Y0167366D01*
X0162381Y0167724D01*
X0163017Y0168186D01*
X0163574Y0168743D01*
X0164036Y0169379D01*
X0164394Y0170081D01*
X0164637Y0170829D01*
X0164760Y0171606D01*
X0164760Y0172000D01*
X0164760Y0172394D01*
X0164637Y0173171D01*
X0164394Y0173919D01*
X0164036Y0174621D01*
X0163574Y0175257D01*
X0163017Y0175814D01*
X0162381Y0176276D01*
X0161679Y0176634D01*
X0160931Y0176877D01*
X0160153Y0177000D01*
X0156760Y0177000D01*
X0156760Y0172000D01*
X0164760Y0172000D01*
X0156760Y0172000D01*
X0156760Y0172000D01*
X0156760Y0172000D01*
X0156760Y0167000D01*
X0156760Y0172000D01*
X0156760Y0172000D01*
X0156760Y0177000D01*
X0153366Y0177000D01*
X0152589Y0176877D01*
X0151841Y0176634D01*
X0151139Y0176276D01*
X0150503Y0175814D01*
X0149946Y0175257D01*
X0149484Y0174621D01*
X0149126Y0173919D01*
X0148883Y0173171D01*
X0148760Y0172394D01*
X0148760Y0172000D01*
X0156760Y0172000D01*
X0156760Y0172000D01*
X0148760Y0172000D01*
X0149111Y0173872D02*
X0139536Y0173872D01*
X0140811Y0175870D02*
X0150581Y0175870D01*
X0151713Y0177869D02*
X0140919Y0177869D01*
X0139797Y0179868D02*
X0149664Y0179868D01*
X0156760Y0175870D02*
X0156760Y0175870D01*
X0156760Y0173872D02*
X0156760Y0173872D01*
X0156760Y0171873D02*
X0156760Y0171873D01*
X0156760Y0169875D02*
X0156760Y0169875D01*
X0156760Y0167876D02*
X0156760Y0167876D01*
X0150929Y0167876D02*
X0140916Y0167876D01*
X0140814Y0165878D02*
X0151133Y0165878D01*
X0149559Y0163879D02*
X0139543Y0163879D01*
X0139789Y0169875D02*
X0149231Y0169875D01*
X0159960Y0155885D02*
X0175461Y0155885D01*
X0175461Y0153887D02*
X0159960Y0153887D01*
X0159960Y0151888D02*
X0175461Y0151888D01*
X0175461Y0149890D02*
X0159175Y0149890D01*
X0157177Y0147891D02*
X0175461Y0147891D01*
X0175461Y0145893D02*
X0175150Y0145893D01*
X0171760Y0145893D02*
X0171760Y0145893D01*
X0171760Y0147150D02*
X0169627Y0147150D01*
X0166610Y0144133D01*
X0166610Y0142000D01*
X0171760Y0142000D01*
X0171760Y0142000D01*
X0171760Y0142000D01*
X0171760Y0147150D01*
X0171760Y0143894D02*
X0171760Y0143894D01*
X0171760Y0142000D02*
X0166610Y0142000D01*
X0166610Y0139867D01*
X0169627Y0136850D01*
X0171760Y0136850D01*
X0171760Y0142000D01*
X0171760Y0141896D02*
X0171760Y0141896D01*
X0171760Y0139897D02*
X0171760Y0139897D01*
X0171760Y0137899D02*
X0171760Y0137899D01*
X0168578Y0137899D02*
X0154960Y0137899D01*
X0154960Y0135900D02*
X0175461Y0135900D01*
X0175461Y0133902D02*
X0154960Y0133902D01*
X0154960Y0131903D02*
X0157988Y0131903D01*
X0161760Y0131903D02*
X0161760Y0131903D01*
X0161760Y0131968D02*
X0161760Y0127000D01*
X0169697Y0127000D01*
X0161760Y0127000D01*
X0161760Y0127000D01*
X0161760Y0127000D01*
X0161760Y0131968D01*
X0161760Y0129905D02*
X0161760Y0129905D01*
X0161760Y0127906D02*
X0161760Y0127906D01*
X0161760Y0127000D02*
X0161760Y0122031D01*
X0161760Y0127000D01*
X0161760Y0127000D01*
X0161760Y0125908D02*
X0161760Y0125908D01*
X0161760Y0123909D02*
X0161760Y0123909D01*
X0169586Y0125908D02*
X0175461Y0125908D01*
X0175461Y0127906D02*
X0169615Y0127906D01*
X0168759Y0129905D02*
X0175461Y0129905D01*
X0175461Y0131903D02*
X0165532Y0131903D01*
X0166610Y0139897D02*
X0156375Y0139897D01*
X0156510Y0141896D02*
X0166610Y0141896D01*
X0166610Y0143894D02*
X0156510Y0143894D01*
X0155178Y0145893D02*
X0168370Y0145893D01*
X0174942Y0137899D02*
X0175461Y0137899D01*
X0175461Y0157884D02*
X0161843Y0157884D01*
X0163862Y0159882D02*
X0175461Y0159882D01*
X0175461Y0161881D02*
X0164360Y0161881D01*
X0163961Y0163879D02*
X0175461Y0163879D01*
X0175461Y0165878D02*
X0162387Y0165878D01*
X0162591Y0167876D02*
X0175461Y0167876D01*
X0175461Y0169875D02*
X0164289Y0169875D01*
X0164760Y0171873D02*
X0175461Y0171873D01*
X0175461Y0173872D02*
X0164409Y0173872D01*
X0162939Y0175870D02*
X0175461Y0175870D01*
X0175461Y0177869D02*
X0161807Y0177869D01*
X0163856Y0179868D02*
X0175461Y0179868D01*
X0175461Y0181866D02*
X0164360Y0181866D01*
X0163967Y0183865D02*
X0175461Y0183865D01*
X0175461Y0185863D02*
X0162402Y0185863D01*
X0154160Y0193857D02*
X0139521Y0193857D01*
X0140805Y0195856D02*
X0154160Y0195856D01*
X0157584Y0199853D02*
X0166624Y0199853D01*
X0166610Y0201851D02*
X0156510Y0201851D01*
X0156510Y0203850D02*
X0166610Y0203850D01*
X0167717Y0207847D02*
X0175461Y0207847D01*
X0175461Y0209845D02*
X0170028Y0209845D01*
X0171376Y0211844D02*
X0175461Y0211844D01*
X0175461Y0213842D02*
X0172204Y0213842D01*
X0172665Y0215841D02*
X0175461Y0215841D01*
X0175461Y0217839D02*
X0172665Y0217839D01*
X0172290Y0219838D02*
X0175461Y0219838D01*
X0175461Y0221836D02*
X0171560Y0221836D01*
X0175195Y0205848D02*
X0175461Y0205848D01*
X0168623Y0197854D02*
X0159220Y0197854D01*
X0149188Y0197854D02*
X0140925Y0197854D01*
X0152144Y0211844D02*
X0031376Y0211844D01*
X0032204Y0213842D02*
X0151316Y0213842D01*
X0150854Y0215841D02*
X0032665Y0215841D01*
X0032665Y0217839D02*
X0150854Y0217839D01*
X0151230Y0219838D02*
X0032290Y0219838D01*
X0031560Y0221836D02*
X0151960Y0221836D01*
X0132601Y0177869D02*
X0094360Y0177869D01*
X0094360Y0175870D02*
X0132709Y0175870D01*
X0133984Y0173872D02*
X0094360Y0173872D01*
X0089160Y0173872D02*
X0049536Y0173872D01*
X0050811Y0175870D02*
X0089160Y0175870D01*
X0089160Y0177869D02*
X0050919Y0177869D01*
X0049797Y0179868D02*
X0089160Y0179868D01*
X0089160Y0171873D02*
X0025720Y0171873D01*
X0028781Y0169875D02*
X0043731Y0169875D01*
X0042604Y0167876D02*
X0029620Y0167876D01*
X0029581Y0165878D02*
X0042706Y0165878D01*
X0043977Y0163879D02*
X0028603Y0163879D01*
X0021760Y0163879D02*
X0021760Y0163879D01*
X0021760Y0165878D02*
X0021760Y0165878D01*
X0021760Y0167876D02*
X0021760Y0167876D01*
X0021760Y0169875D02*
X0021760Y0169875D01*
X0021760Y0171873D02*
X0021760Y0171873D01*
X0011760Y0159882D02*
X0043738Y0159882D01*
X0042607Y0157884D02*
X0011760Y0157884D01*
X0011760Y0155885D02*
X0042703Y0155885D01*
X0043969Y0153887D02*
X0011760Y0153887D01*
X0021760Y0141896D02*
X0021760Y0141896D01*
X0021760Y0139897D02*
X0021760Y0139897D01*
X0021760Y0137899D02*
X0021760Y0137899D01*
X0021760Y0135900D02*
X0021760Y0135900D01*
X0021760Y0133902D02*
X0021760Y0133902D01*
X0025579Y0141896D02*
X0089160Y0141896D01*
X0089160Y0143894D02*
X0049558Y0143894D01*
X0050820Y0145893D02*
X0089160Y0145893D01*
X0089160Y0147891D02*
X0050910Y0147891D01*
X0047590Y0141175D02*
X0045930Y0141175D01*
X0044395Y0140539D01*
X0043221Y0139365D01*
X0042585Y0137830D01*
X0042585Y0136170D01*
X0043221Y0134635D01*
X0044395Y0133461D01*
X0045930Y0132825D01*
X0047590Y0132825D01*
X0049125Y0133461D01*
X0050299Y0134635D01*
X0050935Y0136170D01*
X0050935Y0137830D01*
X0050299Y0139365D01*
X0049125Y0140539D01*
X0047590Y0141175D01*
X0049767Y0139897D02*
X0089160Y0139897D01*
X0089160Y0137899D02*
X0050906Y0137899D01*
X0050823Y0135900D02*
X0089160Y0135900D01*
X0089160Y0133902D02*
X0049566Y0133902D01*
X0043954Y0133902D02*
X0028619Y0133902D01*
X0029585Y0135900D02*
X0042697Y0135900D01*
X0042614Y0137899D02*
X0029617Y0137899D01*
X0028765Y0139897D02*
X0043753Y0139897D01*
X0049752Y0119912D02*
X0089160Y0119912D01*
X0089160Y0117914D02*
X0050900Y0117914D01*
X0050829Y0115915D02*
X0089160Y0115915D01*
X0089160Y0113917D02*
X0049581Y0113917D01*
X0043776Y0109920D02*
X0028270Y0109920D01*
X0029292Y0107921D02*
X0042623Y0107921D01*
X0042687Y0105923D02*
X0029227Y0105923D01*
X0028113Y0103924D02*
X0043932Y0103924D01*
X0049715Y0069949D02*
X0090134Y0069949D01*
X0094360Y0075945D02*
X0132678Y0075945D01*
X0132632Y0077943D02*
X0094360Y0077943D01*
X0094360Y0125908D02*
X0132694Y0125908D01*
X0132617Y0127906D02*
X0094360Y0127906D01*
X0094360Y0129905D02*
X0133761Y0129905D01*
X0133954Y0133902D02*
X0094360Y0133902D01*
X0094360Y0135900D02*
X0132697Y0135900D01*
X0132614Y0137899D02*
X0094360Y0137899D01*
X0094360Y0139897D02*
X0133753Y0139897D01*
X0140820Y0145893D02*
X0148560Y0145893D01*
X0148666Y0147891D02*
X0140910Y0147891D01*
X0139774Y0149890D02*
X0150124Y0149890D01*
X0148560Y0131903D02*
X0094360Y0131903D01*
X0094360Y0153887D02*
X0133969Y0153887D01*
X0132703Y0155885D02*
X0094360Y0155885D01*
X0094360Y0157884D02*
X0132607Y0157884D01*
X0133738Y0159882D02*
X0094360Y0159882D01*
X0089160Y0165878D02*
X0050814Y0165878D01*
X0050916Y0167876D02*
X0089160Y0167876D01*
X0089160Y0169875D02*
X0049789Y0169875D01*
X0043991Y0183865D02*
X0011760Y0183865D01*
X0011760Y0185863D02*
X0042712Y0185863D01*
X0042598Y0187862D02*
X0011760Y0187862D01*
X0011760Y0189860D02*
X0043716Y0189860D01*
X0045689Y0202538D02*
X0046400Y0202425D01*
X0046760Y0202425D01*
X0046760Y0207000D01*
X0046760Y0207000D01*
X0046760Y0207000D01*
X0042185Y0207000D01*
X0042185Y0207360D01*
X0042298Y0208071D01*
X0042520Y0208756D01*
X0042847Y0209398D01*
X0043271Y0209980D01*
X0043780Y0210489D01*
X0044362Y0210913D01*
X0045004Y0211240D01*
X0045689Y0211462D01*
X0046400Y0211575D01*
X0046760Y0211575D01*
X0046760Y0207000D01*
X0042185Y0207000D01*
X0042185Y0206640D01*
X0042298Y0205929D01*
X0042520Y0205244D01*
X0042847Y0204602D01*
X0043271Y0204020D01*
X0043780Y0203511D01*
X0044362Y0203087D01*
X0045004Y0202760D01*
X0045689Y0202538D01*
X0046760Y0203850D02*
X0046760Y0203850D01*
X0046760Y0205848D02*
X0046760Y0205848D01*
X0046760Y0207847D02*
X0046760Y0207847D01*
X0046760Y0209845D02*
X0046760Y0209845D01*
X0043172Y0209845D02*
X0030028Y0209845D01*
X0027717Y0207847D02*
X0042262Y0207847D01*
X0042324Y0205848D02*
X0011760Y0205848D01*
X0011760Y0203850D02*
X0043441Y0203850D01*
X0015803Y0207847D02*
X0011760Y0207847D01*
X0011760Y0209845D02*
X0013492Y0209845D01*
X0012144Y0211844D02*
X0011760Y0211844D01*
X0011760Y0107921D02*
X0013156Y0107921D01*
X0028225Y0049964D02*
X0043820Y0049964D01*
X0042641Y0047966D02*
X0029273Y0047966D01*
X0029246Y0045967D02*
X0042669Y0045967D01*
X0043887Y0043969D02*
X0028158Y0043969D01*
X0042644Y0037973D02*
X0011760Y0037973D01*
X0011760Y0035975D02*
X0042666Y0035975D01*
X0043828Y0039972D02*
X0011760Y0039972D01*
X0011760Y0021985D02*
X0017244Y0021985D01*
X0014324Y0019987D02*
X0011760Y0019987D01*
X0011760Y0017988D02*
X0012625Y0017988D01*
X0026276Y0021985D02*
X0157244Y0021985D01*
X0154842Y0023984D02*
X0139648Y0023984D01*
X0140857Y0025982D02*
X0153922Y0025982D01*
X0153916Y0027981D02*
X0140873Y0027981D01*
X0139685Y0029979D02*
X0154815Y0029979D01*
X0155354Y0033976D02*
X0139640Y0033976D01*
X0140854Y0035975D02*
X0154108Y0035975D01*
X0152110Y0037973D02*
X0140876Y0037973D01*
X0153476Y0053961D02*
X0155369Y0053961D01*
X0154277Y0055960D02*
X0151477Y0055960D01*
X0149479Y0057958D02*
X0154244Y0057958D01*
X0155287Y0059957D02*
X0147480Y0059957D01*
X0145482Y0061955D02*
X0159160Y0061955D01*
X0159160Y0063954D02*
X0143483Y0063954D01*
X0141485Y0065952D02*
X0159160Y0065952D01*
X0156629Y0067951D02*
X0140885Y0067951D01*
X0136760Y0057000D02*
X0156760Y0037000D01*
X0161760Y0037000D01*
X0161760Y0029979D02*
X0161760Y0029979D01*
X0161760Y0027981D02*
X0161760Y0027981D01*
X0161760Y0027000D02*
X0161760Y0027000D01*
X0166276Y0021985D02*
X0175461Y0021985D01*
X0175461Y0019987D02*
X0169196Y0019987D01*
X0170895Y0017988D02*
X0175461Y0017988D01*
X0175461Y0015990D02*
X0171981Y0015990D01*
X0172517Y0013991D02*
X0175461Y0013991D01*
X0175461Y0011993D02*
X0172665Y0011993D01*
X0172513Y0009994D02*
X0175461Y0009994D01*
X0175461Y0007996D02*
X0171977Y0007996D01*
X0168678Y0023984D02*
X0175461Y0023984D01*
X0175461Y0025982D02*
X0169598Y0025982D01*
X0169604Y0027981D02*
X0175461Y0027981D01*
X0175461Y0029979D02*
X0168705Y0029979D01*
X0168158Y0043969D02*
X0175461Y0043969D01*
X0175461Y0045967D02*
X0169246Y0045967D01*
X0169273Y0047966D02*
X0175461Y0047966D01*
X0175461Y0049964D02*
X0168225Y0049964D01*
X0161760Y0057000D02*
X0161760Y0072000D01*
X0154324Y0019987D02*
X0139677Y0019987D01*
X0140869Y0017988D02*
X0152625Y0017988D01*
X0151539Y0015990D02*
X0140860Y0015990D01*
X0139655Y0013991D02*
X0151003Y0013991D01*
X0150854Y0011993D02*
X0032665Y0011993D01*
X0032513Y0009994D02*
X0151007Y0009994D01*
X0151543Y0007996D02*
X0031977Y0007996D01*
M02*
