%
M48
M72
T01C0.02559
T02C0.03200
T03C0.03937
T04C0.04000
T05C0.04016
T06C0.04213
T07C0.11811
%
T01
X91000Y106000
X111000Y106000
X146000Y126000
X156000Y126000
X146000Y141000
X136000Y156000
X136000Y166000
X96000Y156000
X71000Y166000
X286000Y201000
T02
X226000Y126000
X226000Y106000
X206000Y106000
X206000Y126000
X131000Y121000
X131000Y91000
X161000Y206000
X171000Y206000
X181000Y206000
X191000Y206000
X201000Y206000
X136000Y236000
X106000Y236000
T03
X106000Y201000
X96000Y201000
X86000Y201000
X76000Y201000
X126000Y201000
X136000Y201000
X146000Y56000
X156000Y56000
X166000Y56000
X176000Y56000
X206000Y56000
X216000Y56000
X111000Y56000
X101000Y56000
X91000Y56000
X81000Y56000
T04
X206000Y86000
X216000Y86000
X226000Y86000
T05
X26000Y28441
X26000Y38441
X26000Y48441
X26000Y58441
X26000Y68441
X26000Y78441
X26000Y88441
X26000Y98441
X26000Y108441
X26000Y118441
X26000Y128441
X26000Y138441
X26000Y148441
X26000Y158441
X26000Y168441
X26000Y178441
X26000Y188441
X26000Y198441
X26000Y208441
X36000Y208441
X36000Y198441
X36000Y188441
X36000Y178441
X36000Y168441
X36000Y158441
X36000Y148441
X36000Y138441
X36000Y128441
X36000Y118441
X36000Y108441
X36000Y98441
X36000Y88441
X36000Y78441
X36000Y68441
X36000Y58441
X36000Y48441
X36000Y38441
X36000Y28441
X266000Y28441
X266000Y38441
X266000Y48441
X266000Y58441
X266000Y68441
X266000Y78441
X266000Y88441
X266000Y98441
X266000Y108441
X266000Y118441
X266000Y128441
X266000Y138441
X266000Y148441
X266000Y158441
X266000Y168441
X266000Y178441
X266000Y188441
X266000Y198441
X266000Y208441
X276000Y208441
X276000Y198441
X276000Y188441
X276000Y178441
X276000Y168441
X276000Y158441
X276000Y148441
X276000Y138441
X276000Y128441
X276000Y118441
X276000Y108441
X276000Y98441
X276000Y88441
X276000Y78441
X276000Y68441
X276000Y58441
X276000Y48441
X276000Y38441
X276000Y28441
T06
X246000Y28441
X246000Y38441
X246000Y48441
X246000Y58441
X246000Y68441
X246000Y78441
X246000Y88441
X246000Y98441
X246000Y114425
X246000Y124425
X246000Y134425
X246000Y144425
X246000Y154425
X246000Y164425
X246000Y174425
X246000Y184425
X246000Y194425
X246000Y204425
X56000Y168441
X56000Y158441
X56000Y148441
X56000Y138441
X56000Y128441
X56000Y118441
X56000Y108441
X56000Y98441
X56000Y78441
X56000Y68441
X56000Y58441
X56000Y48441
X56000Y38441
X56000Y28441
T07
X186000Y18441
X246000Y218441
X56000Y223441
M30
