%
M48
M72
T01C0.03200
T02C0.03937
T03C0.04000
T04C0.10827
%
T01
X14000Y28000
X14000Y48000
X74000Y48000
X74000Y28000
X244000Y168000
X244000Y183000
X304000Y183000
X304000Y168000
X319000Y138000
X334000Y138000
X334000Y198000
X319000Y198000
T02
X39000Y23000
X49000Y23000
X134000Y53000
X144000Y53000
X154000Y53000
X164000Y53000
X184000Y53000
X194000Y53000
X204000Y53000
X214000Y53000
X249000Y53000
X259000Y53000
X269000Y53000
X279000Y53000
X299000Y53000
X309000Y53000
X319000Y53000
X329000Y53000
X259000Y143000
X269000Y148000
X299000Y153000
X309000Y158000
X224000Y193000
X214000Y193000
X204000Y193000
X184000Y193000
X174000Y193000
X154000Y193000
X184000Y228000
X204000Y228000
X259000Y218000
X269000Y218000
X284000Y218000
X294000Y218000
X309000Y218000
X319000Y218000
X334000Y218000
X344000Y218000
X134000Y233000
X114000Y233000
X104000Y233000
X54000Y233000
X54000Y193000
X44000Y193000
X74000Y193000
X24000Y168000
X24000Y158000
X24000Y148000
X24000Y138000
X74000Y103000
T03
X144000Y83000
X154000Y83000
X164000Y83000
X174000Y83000
X184000Y83000
X194000Y83000
X194000Y123000
X184000Y123000
X174000Y123000
X164000Y123000
X154000Y123000
X144000Y123000
X54000Y48000
X44000Y48000
X34000Y48000
X259000Y83000
X269000Y83000
X279000Y83000
X289000Y83000
X299000Y83000
X309000Y83000
X309000Y123000
X299000Y123000
X289000Y123000
X279000Y123000
X269000Y123000
X259000Y123000
X224000Y208000
X214000Y208000
X204000Y208000
X194000Y208000
X184000Y208000
X174000Y208000
X164000Y208000
X154000Y208000
X144000Y208000
X134000Y208000
X124000Y208000
X114000Y208000
X104000Y208000
X94000Y208000
X84000Y208000
X74000Y208000
X64000Y208000
X54000Y208000
X44000Y208000
X34000Y208000
X34000Y218000
X44000Y218000
X54000Y218000
X64000Y218000
X74000Y218000
X84000Y218000
X94000Y218000
X104000Y218000
X114000Y218000
X124000Y218000
X134000Y218000
X144000Y218000
X154000Y218000
X164000Y218000
X174000Y218000
X184000Y218000
X194000Y218000
X204000Y218000
X214000Y218000
X224000Y218000
T04
X243173Y213000
X14827Y213000
M30
