%TF.GenerationSoftware,KiCad,Pcbnew,9.0.3-9.0.3-0~ubuntu24.04.1*%
%TF.CreationDate,2025-09-18T21:20:21+02:00*%
%TF.ProjectId,pami-board,70616d69-2d62-46f6-9172-642e6b696361,rev?*%
%TF.SameCoordinates,Original*%
%TF.FileFunction,Legend,Bot*%
%TF.FilePolarity,Positive*%
%FSLAX46Y46*%
G04 Gerber Fmt 4.6, Leading zero omitted, Abs format (unit mm)*
G04 Created by KiCad (PCBNEW 9.0.3-9.0.3-0~ubuntu24.04.1) date 2025-09-18 21:20:21*
%MOMM*%
%LPD*%
G01*
G04 APERTURE LIST*
G04 Aperture macros list*
%AMRoundRect*
0 Rectangle with rounded corners*
0 $1 Rounding radius*
0 $2 $3 $4 $5 $6 $7 $8 $9 X,Y pos of 4 corners*
0 Add a 4 corners polygon primitive as box body*
4,1,4,$2,$3,$4,$5,$6,$7,$8,$9,$2,$3,0*
0 Add four circle primitives for the rounded corners*
1,1,$1+$1,$2,$3*
1,1,$1+$1,$4,$5*
1,1,$1+$1,$6,$7*
1,1,$1+$1,$8,$9*
0 Add four rect primitives between the rounded corners*
20,1,$1+$1,$2,$3,$4,$5,0*
20,1,$1+$1,$4,$5,$6,$7,0*
20,1,$1+$1,$6,$7,$8,$9,0*
20,1,$1+$1,$8,$9,$2,$3,0*%
G04 Aperture macros list end*
%ADD10C,1.700000*%
%ADD11R,1.700000X1.700000*%
%ADD12O,1.700000X1.950000*%
%ADD13RoundRect,0.250000X-0.600000X-0.725000X0.600000X-0.725000X0.600000X0.725000X-0.600000X0.725000X0*%
%ADD14O,1.700000X2.000000*%
%ADD15RoundRect,0.250000X-0.600000X-0.750000X0.600000X-0.750000X0.600000X0.750000X-0.600000X0.750000X0*%
%ADD16RoundRect,0.250000X0.750000X-0.600000X0.750000X0.600000X-0.750000X0.600000X-0.750000X-0.600000X0*%
%ADD17O,2.000000X1.700000*%
%ADD18C,0.600000*%
%ADD19O,1.300000X2.300000*%
%ADD20O,1.300000X2.100000*%
%ADD21C,0.500000*%
%ADD22C,2.500000*%
G04 APERTURE END LIST*
%LPC*%
D10*
%TO.C,J2*%
X231140000Y-77978000D03*
X231140000Y-75438000D03*
X231140000Y-72898000D03*
X231140000Y-70358000D03*
X231140000Y-67818000D03*
X231140000Y-65278000D03*
X231140000Y-62738000D03*
X231140000Y-60198000D03*
X231140000Y-57658000D03*
X231140000Y-55118000D03*
X231140000Y-52578000D03*
X231140000Y-50038000D03*
X231140000Y-47498000D03*
X231140000Y-44958000D03*
D11*
X231140000Y-42418000D03*
%TD*%
D12*
%TO.C,J12*%
X251674000Y-96520000D03*
X249174000Y-96520000D03*
X246674000Y-96520000D03*
D13*
X244174000Y-96520000D03*
%TD*%
D14*
%TO.C,J5*%
X210566000Y-110236000D03*
D15*
X208066000Y-110236000D03*
%TD*%
D11*
%TO.C,J19*%
X203454000Y-90424000D03*
D10*
X200914000Y-90424000D03*
X203454000Y-87884000D03*
X200914000Y-87884000D03*
X203454000Y-85344000D03*
X200914000Y-85344000D03*
X203454000Y-82804000D03*
X200914000Y-82804000D03*
X203454000Y-80264000D03*
X200914000Y-80264000D03*
X203454000Y-77724000D03*
X200914000Y-77724000D03*
X203454000Y-75184000D03*
X200914000Y-75184000D03*
X203454000Y-72644000D03*
X200914000Y-72644000D03*
X203454000Y-70104000D03*
X200914000Y-70104000D03*
X203454000Y-67564000D03*
X200914000Y-67564000D03*
X203454000Y-65024000D03*
X200914000Y-65024000D03*
X203454000Y-62484000D03*
X200914000Y-62484000D03*
X203454000Y-59944000D03*
X200914000Y-59944000D03*
X203454000Y-57404000D03*
X200914000Y-57404000D03*
X203454000Y-54864000D03*
X200914000Y-54864000D03*
X203454000Y-52324000D03*
X200914000Y-52324000D03*
X203454000Y-49784000D03*
X200914000Y-49784000D03*
X203454000Y-47244000D03*
X200914000Y-47244000D03*
X203454000Y-44704000D03*
X200914000Y-44704000D03*
X203454000Y-42164000D03*
X200914000Y-42164000D03*
%TD*%
D11*
%TO.C,J18*%
X238156000Y-116586000D03*
D10*
X240696000Y-116586000D03*
X243236000Y-116586000D03*
X245776000Y-116586000D03*
X248316000Y-116586000D03*
X250856000Y-116586000D03*
%TD*%
D11*
%TO.C,J17*%
X238188000Y-106426000D03*
D10*
X240728000Y-106426000D03*
X243268000Y-106426000D03*
X245808000Y-106426000D03*
X248348000Y-106426000D03*
X250888000Y-106426000D03*
%TD*%
D11*
%TO.C,J16*%
X219456000Y-106426000D03*
D10*
X221996000Y-106426000D03*
X224536000Y-106426000D03*
X227076000Y-106426000D03*
X229616000Y-106426000D03*
X232156000Y-106426000D03*
%TD*%
D11*
%TO.C,J15*%
X219456000Y-116586000D03*
D10*
X221996000Y-116586000D03*
X224536000Y-116586000D03*
X227076000Y-116586000D03*
X229616000Y-116586000D03*
X232156000Y-116586000D03*
%TD*%
D11*
%TO.C,J1*%
X215900000Y-42418000D03*
D10*
X215900000Y-44958000D03*
X215900000Y-47498000D03*
X215900000Y-50038000D03*
X215900000Y-52578000D03*
X215900000Y-55118000D03*
X215900000Y-57658000D03*
X215900000Y-60198000D03*
X215900000Y-62738000D03*
X215900000Y-65278000D03*
X215900000Y-67818000D03*
X215900000Y-70358000D03*
X215900000Y-72898000D03*
X215900000Y-75438000D03*
X215900000Y-77978000D03*
%TD*%
D16*
%TO.C,J8*%
X241300000Y-57872000D03*
D17*
X241300000Y-55372000D03*
%TD*%
D16*
%TO.C,J9*%
X251460000Y-57872000D03*
D17*
X251460000Y-55372000D03*
%TD*%
D16*
%TO.C,J7*%
X261620000Y-57872000D03*
D17*
X261620000Y-55372000D03*
%TD*%
D18*
%TO.C,J14*%
X226410000Y-44702000D03*
X220630000Y-44702000D03*
D19*
X227850000Y-45222000D03*
D20*
X227850000Y-41022000D03*
D21*
X225520000Y-42402000D03*
X225520000Y-40402000D03*
X221520000Y-42402000D03*
X221520000Y-40402000D03*
D19*
X219190000Y-45222000D03*
D20*
X219190000Y-41022000D03*
%TD*%
D22*
%TO.C,F1*%
X262710000Y-45212000D03*
X240210000Y-45212000D03*
%TD*%
D15*
%TO.C,J4*%
X259842000Y-84057000D03*
D14*
X262342000Y-84057000D03*
%TD*%
D13*
%TO.C,J13*%
X258104000Y-96503000D03*
D12*
X260604000Y-96503000D03*
X263104000Y-96503000D03*
%TD*%
D15*
%TO.C,J3*%
X244348000Y-84074000D03*
D14*
X246848000Y-84074000D03*
%TD*%
D13*
%TO.C,J10*%
X210566000Y-98789000D03*
D12*
X213066000Y-98789000D03*
X215566000Y-98789000D03*
X218066000Y-98789000D03*
%TD*%
D13*
%TO.C,J11*%
X228152000Y-98789000D03*
D12*
X230652000Y-98789000D03*
X233152000Y-98789000D03*
X235652000Y-98789000D03*
%TD*%
D14*
%TO.C,J6*%
X262870000Y-109965000D03*
D15*
X260370000Y-109965000D03*
%TD*%
%LPD*%
M02*
