%
M48
M72
T01C0.03200
T02C0.03937
T03C0.04000
T04C0.11811
%
T01
X47000Y62000
X47000Y72000
X47000Y82000
X47000Y92000
X77000Y92000
X77000Y82000
X77000Y72000
X77000Y62000
T02
X87000Y122000
X97000Y122000
X62000Y122000
X52000Y122000
X42000Y122000
X32000Y122000
X22000Y122000
T03
X32000Y92000
X32000Y82000
X32000Y72000
X32000Y62000
X32000Y52000
X32000Y42000
X32000Y32000
X32000Y22000
X32000Y12000
X87000Y12000
X87000Y22000
X87000Y32000
X87000Y42000
X87000Y52000
X87000Y62000
X87000Y72000
X87000Y82000
X87000Y92000
T04
X12000Y12000
X107000Y12000
X107000Y97000
M30
