G75*
%MOIN*%
%OFA0B0*%
%FSLAX25Y25*%
%IPPOS*%
%LPD*%
%AMOC8*
5,1,8,0,0,1.08239X$1,22.5*
%
%ADD10C,0.12611*%
%ADD11C,0.06800*%
%ADD12C,0.06000*%
%ADD13C,0.06737*%
D10*
X0012000Y0012000D03*
X0107000Y0097000D03*
X0112000Y0012000D03*
D11*
X0095000Y0012000D02*
X0089000Y0012000D01*
X0089000Y0022000D02*
X0095000Y0022000D01*
X0095000Y0032000D02*
X0089000Y0032000D01*
X0089000Y0042000D02*
X0095000Y0042000D01*
X0095000Y0052000D02*
X0089000Y0052000D01*
X0089000Y0062000D02*
X0095000Y0062000D01*
X0095000Y0072000D02*
X0089000Y0072000D01*
X0089000Y0082000D02*
X0095000Y0082000D01*
X0095000Y0092000D02*
X0089000Y0092000D01*
X0035000Y0092000D02*
X0029000Y0092000D01*
X0029000Y0082000D02*
X0035000Y0082000D01*
X0035000Y0072000D02*
X0029000Y0072000D01*
X0029000Y0062000D02*
X0035000Y0062000D01*
X0035000Y0052000D02*
X0029000Y0052000D01*
X0029000Y0042000D02*
X0035000Y0042000D01*
X0035000Y0032000D02*
X0029000Y0032000D01*
X0029000Y0022000D02*
X0035000Y0022000D01*
X0035000Y0012000D02*
X0029000Y0012000D01*
D12*
X0047000Y0062000D03*
X0047000Y0072000D03*
X0047000Y0082000D03*
X0047000Y0092000D03*
X0077000Y0092000D03*
X0077000Y0082000D03*
X0077000Y0072000D03*
X0077000Y0062000D03*
D13*
X0087000Y0119031D02*
X0087000Y0124969D01*
X0097000Y0124969D02*
X0097000Y0119031D01*
X0062000Y0119031D02*
X0062000Y0124969D01*
X0052000Y0124969D02*
X0052000Y0119031D01*
X0042000Y0119031D02*
X0042000Y0124969D01*
X0032000Y0124969D02*
X0032000Y0119031D01*
X0022000Y0119031D02*
X0022000Y0124969D01*
M02*
