G75*
%MOIN*%
%OFA0B0*%
%FSLAX25Y25*%
%IPPOS*%
%LPD*%
%AMOC8*
5,1,8,0,0,1.08239X$1,22.5*
%
%ADD10C,0.00600*%
%ADD11C,0.00500*%
%ADD12C,0.01000*%
D10*
X0027000Y0009500D02*
X0027000Y0014500D01*
X0029500Y0017000D01*
X0027000Y0019500D01*
X0027000Y0024500D01*
X0029500Y0027000D01*
X0027000Y0029500D01*
X0027000Y0034500D01*
X0029500Y0037000D01*
X0027000Y0039500D01*
X0027000Y0044500D01*
X0029500Y0047000D01*
X0027000Y0049500D01*
X0027000Y0054500D01*
X0029500Y0057000D01*
X0027000Y0059500D01*
X0027000Y0064500D01*
X0029500Y0067000D01*
X0027000Y0069500D01*
X0027000Y0074500D01*
X0029500Y0077000D01*
X0027000Y0079500D01*
X0027000Y0084500D01*
X0029500Y0087000D01*
X0027000Y0089500D01*
X0027000Y0094500D01*
X0029500Y0097000D01*
X0034500Y0097000D01*
X0037000Y0094500D01*
X0037000Y0089500D01*
X0034500Y0087000D01*
X0037000Y0084500D01*
X0037000Y0079500D01*
X0034500Y0077000D01*
X0037000Y0074500D01*
X0037000Y0069500D01*
X0034500Y0067000D01*
X0037000Y0064500D01*
X0037000Y0059500D01*
X0034500Y0057000D01*
X0037000Y0054500D01*
X0037000Y0049500D01*
X0034500Y0047000D01*
X0037000Y0044500D01*
X0037000Y0039500D01*
X0034500Y0037000D01*
X0037000Y0034500D01*
X0037000Y0029500D01*
X0034500Y0027000D01*
X0037000Y0024500D01*
X0037000Y0019500D01*
X0034500Y0017000D01*
X0037000Y0014500D01*
X0037000Y0009500D01*
X0034500Y0007000D01*
X0029500Y0007000D01*
X0027000Y0009500D01*
X0050500Y0057000D02*
X0073500Y0057000D01*
X0073500Y0097000D01*
X0066000Y0097000D01*
X0065998Y0096874D01*
X0065992Y0096749D01*
X0065982Y0096624D01*
X0065968Y0096499D01*
X0065951Y0096374D01*
X0065929Y0096250D01*
X0065904Y0096127D01*
X0065874Y0096005D01*
X0065841Y0095884D01*
X0065804Y0095764D01*
X0065764Y0095645D01*
X0065719Y0095528D01*
X0065671Y0095411D01*
X0065619Y0095297D01*
X0065564Y0095184D01*
X0065505Y0095073D01*
X0065443Y0094964D01*
X0065377Y0094857D01*
X0065308Y0094752D01*
X0065236Y0094649D01*
X0065161Y0094548D01*
X0065082Y0094450D01*
X0065000Y0094355D01*
X0064916Y0094262D01*
X0064828Y0094172D01*
X0064738Y0094084D01*
X0064645Y0094000D01*
X0064550Y0093918D01*
X0064452Y0093839D01*
X0064351Y0093764D01*
X0064248Y0093692D01*
X0064143Y0093623D01*
X0064036Y0093557D01*
X0063927Y0093495D01*
X0063816Y0093436D01*
X0063703Y0093381D01*
X0063589Y0093329D01*
X0063472Y0093281D01*
X0063355Y0093236D01*
X0063236Y0093196D01*
X0063116Y0093159D01*
X0062995Y0093126D01*
X0062873Y0093096D01*
X0062750Y0093071D01*
X0062626Y0093049D01*
X0062501Y0093032D01*
X0062376Y0093018D01*
X0062251Y0093008D01*
X0062126Y0093002D01*
X0062000Y0093000D01*
X0061874Y0093002D01*
X0061749Y0093008D01*
X0061624Y0093018D01*
X0061499Y0093032D01*
X0061374Y0093049D01*
X0061250Y0093071D01*
X0061127Y0093096D01*
X0061005Y0093126D01*
X0060884Y0093159D01*
X0060764Y0093196D01*
X0060645Y0093236D01*
X0060528Y0093281D01*
X0060411Y0093329D01*
X0060297Y0093381D01*
X0060184Y0093436D01*
X0060073Y0093495D01*
X0059964Y0093557D01*
X0059857Y0093623D01*
X0059752Y0093692D01*
X0059649Y0093764D01*
X0059548Y0093839D01*
X0059450Y0093918D01*
X0059355Y0094000D01*
X0059262Y0094084D01*
X0059172Y0094172D01*
X0059084Y0094262D01*
X0059000Y0094355D01*
X0058918Y0094450D01*
X0058839Y0094548D01*
X0058764Y0094649D01*
X0058692Y0094752D01*
X0058623Y0094857D01*
X0058557Y0094964D01*
X0058495Y0095073D01*
X0058436Y0095184D01*
X0058381Y0095297D01*
X0058329Y0095411D01*
X0058281Y0095528D01*
X0058236Y0095645D01*
X0058196Y0095764D01*
X0058159Y0095884D01*
X0058126Y0096005D01*
X0058096Y0096127D01*
X0058071Y0096250D01*
X0058049Y0096374D01*
X0058032Y0096499D01*
X0058018Y0096624D01*
X0058008Y0096749D01*
X0058002Y0096874D01*
X0058000Y0097000D01*
X0050500Y0097000D01*
X0050500Y0057000D01*
X0087000Y0054500D02*
X0087000Y0049500D01*
X0089500Y0047000D01*
X0087000Y0044500D01*
X0087000Y0039500D01*
X0089500Y0037000D01*
X0087000Y0034500D01*
X0087000Y0029500D01*
X0089500Y0027000D01*
X0087000Y0024500D01*
X0087000Y0019500D01*
X0089500Y0017000D01*
X0087000Y0014500D01*
X0087000Y0009500D01*
X0089500Y0007000D01*
X0094500Y0007000D01*
X0097000Y0009500D01*
X0097000Y0014500D01*
X0094500Y0017000D01*
X0097000Y0019500D01*
X0097000Y0024500D01*
X0094500Y0027000D01*
X0097000Y0029500D01*
X0097000Y0034500D01*
X0094500Y0037000D01*
X0097000Y0039500D01*
X0097000Y0044500D01*
X0094500Y0047000D01*
X0097000Y0049500D01*
X0097000Y0054500D01*
X0094500Y0057000D01*
X0097000Y0059500D01*
X0097000Y0064500D01*
X0094500Y0067000D01*
X0097000Y0069500D01*
X0097000Y0074500D01*
X0094500Y0077000D01*
X0097000Y0079500D01*
X0097000Y0084500D01*
X0094500Y0087000D01*
X0097000Y0089500D01*
X0097000Y0094500D01*
X0094500Y0097000D01*
X0089500Y0097000D01*
X0087000Y0094500D01*
X0087000Y0089500D01*
X0089500Y0087000D01*
X0087000Y0084500D01*
X0087000Y0079500D01*
X0089500Y0077000D01*
X0087000Y0074500D01*
X0087000Y0069500D01*
X0089500Y0067000D01*
X0087000Y0064500D01*
X0087000Y0059500D01*
X0089500Y0057000D01*
X0087000Y0054500D01*
D11*
X0082250Y0090250D02*
X0082000Y0090250D01*
X0082250Y0090250D02*
X0082310Y0090252D01*
X0082371Y0090257D01*
X0082430Y0090266D01*
X0082489Y0090279D01*
X0082548Y0090295D01*
X0082605Y0090315D01*
X0082660Y0090338D01*
X0082715Y0090365D01*
X0082767Y0090394D01*
X0082818Y0090427D01*
X0082867Y0090463D01*
X0082913Y0090501D01*
X0082957Y0090543D01*
X0082999Y0090587D01*
X0083037Y0090633D01*
X0083073Y0090682D01*
X0083106Y0090733D01*
X0083135Y0090785D01*
X0083162Y0090840D01*
X0083185Y0090895D01*
X0083205Y0090952D01*
X0083221Y0091011D01*
X0083234Y0091070D01*
X0083243Y0091129D01*
X0083248Y0091190D01*
X0083250Y0091250D01*
X0083250Y0092750D01*
X0082000Y0092750D01*
X0081931Y0092748D01*
X0081862Y0092742D01*
X0081794Y0092733D01*
X0081727Y0092720D01*
X0081660Y0092703D01*
X0081594Y0092682D01*
X0081530Y0092658D01*
X0081467Y0092630D01*
X0081405Y0092599D01*
X0081345Y0092565D01*
X0081288Y0092527D01*
X0081232Y0092486D01*
X0081179Y0092443D01*
X0081128Y0092396D01*
X0081080Y0092347D01*
X0081035Y0092295D01*
X0080993Y0092240D01*
X0080954Y0092184D01*
X0080917Y0092125D01*
X0080885Y0092064D01*
X0080855Y0092002D01*
X0080829Y0091938D01*
X0080807Y0091873D01*
X0080788Y0091807D01*
X0080773Y0091740D01*
X0080762Y0091672D01*
X0080754Y0091603D01*
X0080750Y0091534D01*
X0080750Y0091466D01*
X0080754Y0091397D01*
X0080762Y0091328D01*
X0080773Y0091260D01*
X0080788Y0091193D01*
X0080807Y0091127D01*
X0080829Y0091062D01*
X0080855Y0090998D01*
X0080885Y0090936D01*
X0080917Y0090875D01*
X0080954Y0090816D01*
X0080993Y0090760D01*
X0081035Y0090705D01*
X0081080Y0090653D01*
X0081128Y0090604D01*
X0081179Y0090557D01*
X0081232Y0090514D01*
X0081288Y0090473D01*
X0081345Y0090435D01*
X0081405Y0090401D01*
X0081467Y0090370D01*
X0081530Y0090342D01*
X0081594Y0090318D01*
X0081660Y0090297D01*
X0081727Y0090280D01*
X0081794Y0090267D01*
X0081862Y0090258D01*
X0081931Y0090252D01*
X0082000Y0090250D01*
X0083250Y0092750D02*
X0083337Y0092748D01*
X0083424Y0092742D01*
X0083511Y0092733D01*
X0083597Y0092720D01*
X0083683Y0092703D01*
X0083768Y0092682D01*
X0083851Y0092657D01*
X0083934Y0092629D01*
X0084015Y0092598D01*
X0084095Y0092563D01*
X0084173Y0092524D01*
X0084250Y0092482D01*
X0084325Y0092437D01*
X0084397Y0092388D01*
X0084468Y0092337D01*
X0084536Y0092282D01*
X0084601Y0092225D01*
X0084664Y0092164D01*
X0084725Y0092101D01*
X0084782Y0092036D01*
X0084837Y0091968D01*
X0084888Y0091897D01*
X0084937Y0091825D01*
X0084982Y0091750D01*
X0085024Y0091673D01*
X0085063Y0091595D01*
X0085098Y0091515D01*
X0085129Y0091434D01*
X0085157Y0091351D01*
X0085182Y0091268D01*
X0085203Y0091183D01*
X0085220Y0091097D01*
X0085233Y0091011D01*
X0085242Y0090924D01*
X0085248Y0090837D01*
X0085250Y0090750D01*
X0025250Y0091250D02*
X0025250Y0093750D01*
X0025250Y0092500D02*
X0020750Y0092500D01*
X0021750Y0091250D01*
X0040000Y0013750D02*
X0041250Y0013750D01*
X0041250Y0012250D01*
X0041250Y0013750D02*
X0041337Y0013748D01*
X0041424Y0013742D01*
X0041511Y0013733D01*
X0041597Y0013720D01*
X0041683Y0013703D01*
X0041768Y0013682D01*
X0041851Y0013657D01*
X0041934Y0013629D01*
X0042015Y0013598D01*
X0042095Y0013563D01*
X0042173Y0013524D01*
X0042250Y0013482D01*
X0042325Y0013437D01*
X0042397Y0013388D01*
X0042468Y0013337D01*
X0042536Y0013282D01*
X0042601Y0013225D01*
X0042664Y0013164D01*
X0042725Y0013101D01*
X0042782Y0013036D01*
X0042837Y0012968D01*
X0042888Y0012897D01*
X0042937Y0012825D01*
X0042982Y0012750D01*
X0043024Y0012673D01*
X0043063Y0012595D01*
X0043098Y0012515D01*
X0043129Y0012434D01*
X0043157Y0012351D01*
X0043182Y0012268D01*
X0043203Y0012183D01*
X0043220Y0012097D01*
X0043233Y0012011D01*
X0043242Y0011924D01*
X0043248Y0011837D01*
X0043250Y0011750D01*
X0040250Y0011250D02*
X0040000Y0011250D01*
X0040250Y0011250D02*
X0040310Y0011252D01*
X0040371Y0011257D01*
X0040430Y0011266D01*
X0040489Y0011279D01*
X0040548Y0011295D01*
X0040605Y0011315D01*
X0040660Y0011338D01*
X0040715Y0011365D01*
X0040767Y0011394D01*
X0040818Y0011427D01*
X0040867Y0011463D01*
X0040913Y0011501D01*
X0040957Y0011543D01*
X0040999Y0011587D01*
X0041037Y0011633D01*
X0041073Y0011682D01*
X0041106Y0011733D01*
X0041135Y0011785D01*
X0041162Y0011840D01*
X0041185Y0011895D01*
X0041205Y0011952D01*
X0041221Y0012011D01*
X0041234Y0012070D01*
X0041243Y0012129D01*
X0041248Y0012190D01*
X0041250Y0012250D01*
X0040000Y0011250D02*
X0039931Y0011252D01*
X0039862Y0011258D01*
X0039794Y0011267D01*
X0039727Y0011280D01*
X0039660Y0011297D01*
X0039594Y0011318D01*
X0039530Y0011342D01*
X0039467Y0011370D01*
X0039405Y0011401D01*
X0039345Y0011435D01*
X0039288Y0011473D01*
X0039232Y0011514D01*
X0039179Y0011557D01*
X0039128Y0011604D01*
X0039080Y0011653D01*
X0039035Y0011705D01*
X0038993Y0011760D01*
X0038954Y0011816D01*
X0038917Y0011875D01*
X0038885Y0011936D01*
X0038855Y0011998D01*
X0038829Y0012062D01*
X0038807Y0012127D01*
X0038788Y0012193D01*
X0038773Y0012260D01*
X0038762Y0012328D01*
X0038754Y0012397D01*
X0038750Y0012466D01*
X0038750Y0012534D01*
X0038754Y0012603D01*
X0038762Y0012672D01*
X0038773Y0012740D01*
X0038788Y0012807D01*
X0038807Y0012873D01*
X0038829Y0012938D01*
X0038855Y0013002D01*
X0038885Y0013064D01*
X0038917Y0013125D01*
X0038954Y0013184D01*
X0038993Y0013240D01*
X0039035Y0013295D01*
X0039080Y0013347D01*
X0039128Y0013396D01*
X0039179Y0013443D01*
X0039232Y0013486D01*
X0039288Y0013527D01*
X0039345Y0013565D01*
X0039405Y0013599D01*
X0039467Y0013630D01*
X0039530Y0013658D01*
X0039594Y0013682D01*
X0039660Y0013703D01*
X0039727Y0013720D01*
X0039794Y0013733D01*
X0039862Y0013742D01*
X0039931Y0013748D01*
X0040000Y0013750D01*
X0098750Y0011500D02*
X0103250Y0011500D01*
X0103250Y0010250D02*
X0103250Y0012750D01*
X0099750Y0010250D02*
X0098750Y0011500D01*
D12*
X0102000Y0109500D02*
X0082000Y0109500D01*
X0082000Y0127000D01*
X0102000Y0127000D01*
X0102000Y0109500D01*
X0102000Y0127000D02*
X0102000Y0134500D01*
X0082000Y0134500D01*
X0082000Y0127000D01*
X0067000Y0127000D02*
X0067000Y0109500D01*
X0017000Y0109500D01*
X0017000Y0127000D01*
X0067000Y0127000D01*
X0067000Y0134500D01*
X0017000Y0134500D01*
X0017000Y0127000D01*
M02*
