G75*
%MOIN*%
%OFA0B0*%
%FSLAX25Y25*%
%IPPOS*%
%LPD*%
%AMOC8*
5,1,8,0,0,1.08239X$1,22.5*
%
%ADD10C,0.00000*%
%ADD11C,0.00600*%
%ADD12C,0.06000*%
%ADD13C,0.05200*%
%ADD14C,0.05937*%
D10*
X0002000Y0002000D02*
X0002000Y0140701D01*
X0116921Y0140701D01*
X0116921Y0002000D01*
X0002000Y0002000D01*
X0006094Y0012000D02*
X0006096Y0012153D01*
X0006102Y0012307D01*
X0006112Y0012460D01*
X0006126Y0012612D01*
X0006144Y0012765D01*
X0006166Y0012916D01*
X0006191Y0013067D01*
X0006221Y0013218D01*
X0006255Y0013368D01*
X0006292Y0013516D01*
X0006333Y0013664D01*
X0006378Y0013810D01*
X0006427Y0013956D01*
X0006480Y0014100D01*
X0006536Y0014242D01*
X0006596Y0014383D01*
X0006660Y0014523D01*
X0006727Y0014661D01*
X0006798Y0014797D01*
X0006873Y0014931D01*
X0006950Y0015063D01*
X0007032Y0015193D01*
X0007116Y0015321D01*
X0007204Y0015447D01*
X0007295Y0015570D01*
X0007389Y0015691D01*
X0007487Y0015809D01*
X0007587Y0015925D01*
X0007691Y0016038D01*
X0007797Y0016149D01*
X0007906Y0016257D01*
X0008018Y0016362D01*
X0008132Y0016463D01*
X0008250Y0016562D01*
X0008369Y0016658D01*
X0008491Y0016751D01*
X0008616Y0016840D01*
X0008743Y0016927D01*
X0008872Y0017009D01*
X0009003Y0017089D01*
X0009136Y0017165D01*
X0009271Y0017238D01*
X0009408Y0017307D01*
X0009547Y0017372D01*
X0009687Y0017434D01*
X0009829Y0017492D01*
X0009972Y0017547D01*
X0010117Y0017598D01*
X0010263Y0017645D01*
X0010410Y0017688D01*
X0010558Y0017727D01*
X0010707Y0017763D01*
X0010857Y0017794D01*
X0011008Y0017822D01*
X0011159Y0017846D01*
X0011312Y0017866D01*
X0011464Y0017882D01*
X0011617Y0017894D01*
X0011770Y0017902D01*
X0011923Y0017906D01*
X0012077Y0017906D01*
X0012230Y0017902D01*
X0012383Y0017894D01*
X0012536Y0017882D01*
X0012688Y0017866D01*
X0012841Y0017846D01*
X0012992Y0017822D01*
X0013143Y0017794D01*
X0013293Y0017763D01*
X0013442Y0017727D01*
X0013590Y0017688D01*
X0013737Y0017645D01*
X0013883Y0017598D01*
X0014028Y0017547D01*
X0014171Y0017492D01*
X0014313Y0017434D01*
X0014453Y0017372D01*
X0014592Y0017307D01*
X0014729Y0017238D01*
X0014864Y0017165D01*
X0014997Y0017089D01*
X0015128Y0017009D01*
X0015257Y0016927D01*
X0015384Y0016840D01*
X0015509Y0016751D01*
X0015631Y0016658D01*
X0015750Y0016562D01*
X0015868Y0016463D01*
X0015982Y0016362D01*
X0016094Y0016257D01*
X0016203Y0016149D01*
X0016309Y0016038D01*
X0016413Y0015925D01*
X0016513Y0015809D01*
X0016611Y0015691D01*
X0016705Y0015570D01*
X0016796Y0015447D01*
X0016884Y0015321D01*
X0016968Y0015193D01*
X0017050Y0015063D01*
X0017127Y0014931D01*
X0017202Y0014797D01*
X0017273Y0014661D01*
X0017340Y0014523D01*
X0017404Y0014383D01*
X0017464Y0014242D01*
X0017520Y0014100D01*
X0017573Y0013956D01*
X0017622Y0013810D01*
X0017667Y0013664D01*
X0017708Y0013516D01*
X0017745Y0013368D01*
X0017779Y0013218D01*
X0017809Y0013067D01*
X0017834Y0012916D01*
X0017856Y0012765D01*
X0017874Y0012612D01*
X0017888Y0012460D01*
X0017898Y0012307D01*
X0017904Y0012153D01*
X0017906Y0012000D01*
X0017904Y0011847D01*
X0017898Y0011693D01*
X0017888Y0011540D01*
X0017874Y0011388D01*
X0017856Y0011235D01*
X0017834Y0011084D01*
X0017809Y0010933D01*
X0017779Y0010782D01*
X0017745Y0010632D01*
X0017708Y0010484D01*
X0017667Y0010336D01*
X0017622Y0010190D01*
X0017573Y0010044D01*
X0017520Y0009900D01*
X0017464Y0009758D01*
X0017404Y0009617D01*
X0017340Y0009477D01*
X0017273Y0009339D01*
X0017202Y0009203D01*
X0017127Y0009069D01*
X0017050Y0008937D01*
X0016968Y0008807D01*
X0016884Y0008679D01*
X0016796Y0008553D01*
X0016705Y0008430D01*
X0016611Y0008309D01*
X0016513Y0008191D01*
X0016413Y0008075D01*
X0016309Y0007962D01*
X0016203Y0007851D01*
X0016094Y0007743D01*
X0015982Y0007638D01*
X0015868Y0007537D01*
X0015750Y0007438D01*
X0015631Y0007342D01*
X0015509Y0007249D01*
X0015384Y0007160D01*
X0015257Y0007073D01*
X0015128Y0006991D01*
X0014997Y0006911D01*
X0014864Y0006835D01*
X0014729Y0006762D01*
X0014592Y0006693D01*
X0014453Y0006628D01*
X0014313Y0006566D01*
X0014171Y0006508D01*
X0014028Y0006453D01*
X0013883Y0006402D01*
X0013737Y0006355D01*
X0013590Y0006312D01*
X0013442Y0006273D01*
X0013293Y0006237D01*
X0013143Y0006206D01*
X0012992Y0006178D01*
X0012841Y0006154D01*
X0012688Y0006134D01*
X0012536Y0006118D01*
X0012383Y0006106D01*
X0012230Y0006098D01*
X0012077Y0006094D01*
X0011923Y0006094D01*
X0011770Y0006098D01*
X0011617Y0006106D01*
X0011464Y0006118D01*
X0011312Y0006134D01*
X0011159Y0006154D01*
X0011008Y0006178D01*
X0010857Y0006206D01*
X0010707Y0006237D01*
X0010558Y0006273D01*
X0010410Y0006312D01*
X0010263Y0006355D01*
X0010117Y0006402D01*
X0009972Y0006453D01*
X0009829Y0006508D01*
X0009687Y0006566D01*
X0009547Y0006628D01*
X0009408Y0006693D01*
X0009271Y0006762D01*
X0009136Y0006835D01*
X0009003Y0006911D01*
X0008872Y0006991D01*
X0008743Y0007073D01*
X0008616Y0007160D01*
X0008491Y0007249D01*
X0008369Y0007342D01*
X0008250Y0007438D01*
X0008132Y0007537D01*
X0008018Y0007638D01*
X0007906Y0007743D01*
X0007797Y0007851D01*
X0007691Y0007962D01*
X0007587Y0008075D01*
X0007487Y0008191D01*
X0007389Y0008309D01*
X0007295Y0008430D01*
X0007204Y0008553D01*
X0007116Y0008679D01*
X0007032Y0008807D01*
X0006950Y0008937D01*
X0006873Y0009069D01*
X0006798Y0009203D01*
X0006727Y0009339D01*
X0006660Y0009477D01*
X0006596Y0009617D01*
X0006536Y0009758D01*
X0006480Y0009900D01*
X0006427Y0010044D01*
X0006378Y0010190D01*
X0006333Y0010336D01*
X0006292Y0010484D01*
X0006255Y0010632D01*
X0006221Y0010782D01*
X0006191Y0010933D01*
X0006166Y0011084D01*
X0006144Y0011235D01*
X0006126Y0011388D01*
X0006112Y0011540D01*
X0006102Y0011693D01*
X0006096Y0011847D01*
X0006094Y0012000D01*
X0101094Y0097000D02*
X0101096Y0097153D01*
X0101102Y0097307D01*
X0101112Y0097460D01*
X0101126Y0097612D01*
X0101144Y0097765D01*
X0101166Y0097916D01*
X0101191Y0098067D01*
X0101221Y0098218D01*
X0101255Y0098368D01*
X0101292Y0098516D01*
X0101333Y0098664D01*
X0101378Y0098810D01*
X0101427Y0098956D01*
X0101480Y0099100D01*
X0101536Y0099242D01*
X0101596Y0099383D01*
X0101660Y0099523D01*
X0101727Y0099661D01*
X0101798Y0099797D01*
X0101873Y0099931D01*
X0101950Y0100063D01*
X0102032Y0100193D01*
X0102116Y0100321D01*
X0102204Y0100447D01*
X0102295Y0100570D01*
X0102389Y0100691D01*
X0102487Y0100809D01*
X0102587Y0100925D01*
X0102691Y0101038D01*
X0102797Y0101149D01*
X0102906Y0101257D01*
X0103018Y0101362D01*
X0103132Y0101463D01*
X0103250Y0101562D01*
X0103369Y0101658D01*
X0103491Y0101751D01*
X0103616Y0101840D01*
X0103743Y0101927D01*
X0103872Y0102009D01*
X0104003Y0102089D01*
X0104136Y0102165D01*
X0104271Y0102238D01*
X0104408Y0102307D01*
X0104547Y0102372D01*
X0104687Y0102434D01*
X0104829Y0102492D01*
X0104972Y0102547D01*
X0105117Y0102598D01*
X0105263Y0102645D01*
X0105410Y0102688D01*
X0105558Y0102727D01*
X0105707Y0102763D01*
X0105857Y0102794D01*
X0106008Y0102822D01*
X0106159Y0102846D01*
X0106312Y0102866D01*
X0106464Y0102882D01*
X0106617Y0102894D01*
X0106770Y0102902D01*
X0106923Y0102906D01*
X0107077Y0102906D01*
X0107230Y0102902D01*
X0107383Y0102894D01*
X0107536Y0102882D01*
X0107688Y0102866D01*
X0107841Y0102846D01*
X0107992Y0102822D01*
X0108143Y0102794D01*
X0108293Y0102763D01*
X0108442Y0102727D01*
X0108590Y0102688D01*
X0108737Y0102645D01*
X0108883Y0102598D01*
X0109028Y0102547D01*
X0109171Y0102492D01*
X0109313Y0102434D01*
X0109453Y0102372D01*
X0109592Y0102307D01*
X0109729Y0102238D01*
X0109864Y0102165D01*
X0109997Y0102089D01*
X0110128Y0102009D01*
X0110257Y0101927D01*
X0110384Y0101840D01*
X0110509Y0101751D01*
X0110631Y0101658D01*
X0110750Y0101562D01*
X0110868Y0101463D01*
X0110982Y0101362D01*
X0111094Y0101257D01*
X0111203Y0101149D01*
X0111309Y0101038D01*
X0111413Y0100925D01*
X0111513Y0100809D01*
X0111611Y0100691D01*
X0111705Y0100570D01*
X0111796Y0100447D01*
X0111884Y0100321D01*
X0111968Y0100193D01*
X0112050Y0100063D01*
X0112127Y0099931D01*
X0112202Y0099797D01*
X0112273Y0099661D01*
X0112340Y0099523D01*
X0112404Y0099383D01*
X0112464Y0099242D01*
X0112520Y0099100D01*
X0112573Y0098956D01*
X0112622Y0098810D01*
X0112667Y0098664D01*
X0112708Y0098516D01*
X0112745Y0098368D01*
X0112779Y0098218D01*
X0112809Y0098067D01*
X0112834Y0097916D01*
X0112856Y0097765D01*
X0112874Y0097612D01*
X0112888Y0097460D01*
X0112898Y0097307D01*
X0112904Y0097153D01*
X0112906Y0097000D01*
X0112904Y0096847D01*
X0112898Y0096693D01*
X0112888Y0096540D01*
X0112874Y0096388D01*
X0112856Y0096235D01*
X0112834Y0096084D01*
X0112809Y0095933D01*
X0112779Y0095782D01*
X0112745Y0095632D01*
X0112708Y0095484D01*
X0112667Y0095336D01*
X0112622Y0095190D01*
X0112573Y0095044D01*
X0112520Y0094900D01*
X0112464Y0094758D01*
X0112404Y0094617D01*
X0112340Y0094477D01*
X0112273Y0094339D01*
X0112202Y0094203D01*
X0112127Y0094069D01*
X0112050Y0093937D01*
X0111968Y0093807D01*
X0111884Y0093679D01*
X0111796Y0093553D01*
X0111705Y0093430D01*
X0111611Y0093309D01*
X0111513Y0093191D01*
X0111413Y0093075D01*
X0111309Y0092962D01*
X0111203Y0092851D01*
X0111094Y0092743D01*
X0110982Y0092638D01*
X0110868Y0092537D01*
X0110750Y0092438D01*
X0110631Y0092342D01*
X0110509Y0092249D01*
X0110384Y0092160D01*
X0110257Y0092073D01*
X0110128Y0091991D01*
X0109997Y0091911D01*
X0109864Y0091835D01*
X0109729Y0091762D01*
X0109592Y0091693D01*
X0109453Y0091628D01*
X0109313Y0091566D01*
X0109171Y0091508D01*
X0109028Y0091453D01*
X0108883Y0091402D01*
X0108737Y0091355D01*
X0108590Y0091312D01*
X0108442Y0091273D01*
X0108293Y0091237D01*
X0108143Y0091206D01*
X0107992Y0091178D01*
X0107841Y0091154D01*
X0107688Y0091134D01*
X0107536Y0091118D01*
X0107383Y0091106D01*
X0107230Y0091098D01*
X0107077Y0091094D01*
X0106923Y0091094D01*
X0106770Y0091098D01*
X0106617Y0091106D01*
X0106464Y0091118D01*
X0106312Y0091134D01*
X0106159Y0091154D01*
X0106008Y0091178D01*
X0105857Y0091206D01*
X0105707Y0091237D01*
X0105558Y0091273D01*
X0105410Y0091312D01*
X0105263Y0091355D01*
X0105117Y0091402D01*
X0104972Y0091453D01*
X0104829Y0091508D01*
X0104687Y0091566D01*
X0104547Y0091628D01*
X0104408Y0091693D01*
X0104271Y0091762D01*
X0104136Y0091835D01*
X0104003Y0091911D01*
X0103872Y0091991D01*
X0103743Y0092073D01*
X0103616Y0092160D01*
X0103491Y0092249D01*
X0103369Y0092342D01*
X0103250Y0092438D01*
X0103132Y0092537D01*
X0103018Y0092638D01*
X0102906Y0092743D01*
X0102797Y0092851D01*
X0102691Y0092962D01*
X0102587Y0093075D01*
X0102487Y0093191D01*
X0102389Y0093309D01*
X0102295Y0093430D01*
X0102204Y0093553D01*
X0102116Y0093679D01*
X0102032Y0093807D01*
X0101950Y0093937D01*
X0101873Y0094069D01*
X0101798Y0094203D01*
X0101727Y0094339D01*
X0101660Y0094477D01*
X0101596Y0094617D01*
X0101536Y0094758D01*
X0101480Y0094900D01*
X0101427Y0095044D01*
X0101378Y0095190D01*
X0101333Y0095336D01*
X0101292Y0095484D01*
X0101255Y0095632D01*
X0101221Y0095782D01*
X0101191Y0095933D01*
X0101166Y0096084D01*
X0101144Y0096235D01*
X0101126Y0096388D01*
X0101112Y0096540D01*
X0101102Y0096693D01*
X0101096Y0096847D01*
X0101094Y0097000D01*
X0106094Y0012000D02*
X0106096Y0012153D01*
X0106102Y0012307D01*
X0106112Y0012460D01*
X0106126Y0012612D01*
X0106144Y0012765D01*
X0106166Y0012916D01*
X0106191Y0013067D01*
X0106221Y0013218D01*
X0106255Y0013368D01*
X0106292Y0013516D01*
X0106333Y0013664D01*
X0106378Y0013810D01*
X0106427Y0013956D01*
X0106480Y0014100D01*
X0106536Y0014242D01*
X0106596Y0014383D01*
X0106660Y0014523D01*
X0106727Y0014661D01*
X0106798Y0014797D01*
X0106873Y0014931D01*
X0106950Y0015063D01*
X0107032Y0015193D01*
X0107116Y0015321D01*
X0107204Y0015447D01*
X0107295Y0015570D01*
X0107389Y0015691D01*
X0107487Y0015809D01*
X0107587Y0015925D01*
X0107691Y0016038D01*
X0107797Y0016149D01*
X0107906Y0016257D01*
X0108018Y0016362D01*
X0108132Y0016463D01*
X0108250Y0016562D01*
X0108369Y0016658D01*
X0108491Y0016751D01*
X0108616Y0016840D01*
X0108743Y0016927D01*
X0108872Y0017009D01*
X0109003Y0017089D01*
X0109136Y0017165D01*
X0109271Y0017238D01*
X0109408Y0017307D01*
X0109547Y0017372D01*
X0109687Y0017434D01*
X0109829Y0017492D01*
X0109972Y0017547D01*
X0110117Y0017598D01*
X0110263Y0017645D01*
X0110410Y0017688D01*
X0110558Y0017727D01*
X0110707Y0017763D01*
X0110857Y0017794D01*
X0111008Y0017822D01*
X0111159Y0017846D01*
X0111312Y0017866D01*
X0111464Y0017882D01*
X0111617Y0017894D01*
X0111770Y0017902D01*
X0111923Y0017906D01*
X0112077Y0017906D01*
X0112230Y0017902D01*
X0112383Y0017894D01*
X0112536Y0017882D01*
X0112688Y0017866D01*
X0112841Y0017846D01*
X0112992Y0017822D01*
X0113143Y0017794D01*
X0113293Y0017763D01*
X0113442Y0017727D01*
X0113590Y0017688D01*
X0113737Y0017645D01*
X0113883Y0017598D01*
X0114028Y0017547D01*
X0114171Y0017492D01*
X0114313Y0017434D01*
X0114453Y0017372D01*
X0114592Y0017307D01*
X0114729Y0017238D01*
X0114864Y0017165D01*
X0114997Y0017089D01*
X0115128Y0017009D01*
X0115257Y0016927D01*
X0115384Y0016840D01*
X0115509Y0016751D01*
X0115631Y0016658D01*
X0115750Y0016562D01*
X0115868Y0016463D01*
X0115982Y0016362D01*
X0116094Y0016257D01*
X0116203Y0016149D01*
X0116309Y0016038D01*
X0116413Y0015925D01*
X0116513Y0015809D01*
X0116611Y0015691D01*
X0116705Y0015570D01*
X0116796Y0015447D01*
X0116884Y0015321D01*
X0116968Y0015193D01*
X0117050Y0015063D01*
X0117127Y0014931D01*
X0117202Y0014797D01*
X0117273Y0014661D01*
X0117340Y0014523D01*
X0117404Y0014383D01*
X0117464Y0014242D01*
X0117520Y0014100D01*
X0117573Y0013956D01*
X0117622Y0013810D01*
X0117667Y0013664D01*
X0117708Y0013516D01*
X0117745Y0013368D01*
X0117779Y0013218D01*
X0117809Y0013067D01*
X0117834Y0012916D01*
X0117856Y0012765D01*
X0117874Y0012612D01*
X0117888Y0012460D01*
X0117898Y0012307D01*
X0117904Y0012153D01*
X0117906Y0012000D01*
X0117904Y0011847D01*
X0117898Y0011693D01*
X0117888Y0011540D01*
X0117874Y0011388D01*
X0117856Y0011235D01*
X0117834Y0011084D01*
X0117809Y0010933D01*
X0117779Y0010782D01*
X0117745Y0010632D01*
X0117708Y0010484D01*
X0117667Y0010336D01*
X0117622Y0010190D01*
X0117573Y0010044D01*
X0117520Y0009900D01*
X0117464Y0009758D01*
X0117404Y0009617D01*
X0117340Y0009477D01*
X0117273Y0009339D01*
X0117202Y0009203D01*
X0117127Y0009069D01*
X0117050Y0008937D01*
X0116968Y0008807D01*
X0116884Y0008679D01*
X0116796Y0008553D01*
X0116705Y0008430D01*
X0116611Y0008309D01*
X0116513Y0008191D01*
X0116413Y0008075D01*
X0116309Y0007962D01*
X0116203Y0007851D01*
X0116094Y0007743D01*
X0115982Y0007638D01*
X0115868Y0007537D01*
X0115750Y0007438D01*
X0115631Y0007342D01*
X0115509Y0007249D01*
X0115384Y0007160D01*
X0115257Y0007073D01*
X0115128Y0006991D01*
X0114997Y0006911D01*
X0114864Y0006835D01*
X0114729Y0006762D01*
X0114592Y0006693D01*
X0114453Y0006628D01*
X0114313Y0006566D01*
X0114171Y0006508D01*
X0114028Y0006453D01*
X0113883Y0006402D01*
X0113737Y0006355D01*
X0113590Y0006312D01*
X0113442Y0006273D01*
X0113293Y0006237D01*
X0113143Y0006206D01*
X0112992Y0006178D01*
X0112841Y0006154D01*
X0112688Y0006134D01*
X0112536Y0006118D01*
X0112383Y0006106D01*
X0112230Y0006098D01*
X0112077Y0006094D01*
X0111923Y0006094D01*
X0111770Y0006098D01*
X0111617Y0006106D01*
X0111464Y0006118D01*
X0111312Y0006134D01*
X0111159Y0006154D01*
X0111008Y0006178D01*
X0110857Y0006206D01*
X0110707Y0006237D01*
X0110558Y0006273D01*
X0110410Y0006312D01*
X0110263Y0006355D01*
X0110117Y0006402D01*
X0109972Y0006453D01*
X0109829Y0006508D01*
X0109687Y0006566D01*
X0109547Y0006628D01*
X0109408Y0006693D01*
X0109271Y0006762D01*
X0109136Y0006835D01*
X0109003Y0006911D01*
X0108872Y0006991D01*
X0108743Y0007073D01*
X0108616Y0007160D01*
X0108491Y0007249D01*
X0108369Y0007342D01*
X0108250Y0007438D01*
X0108132Y0007537D01*
X0108018Y0007638D01*
X0107906Y0007743D01*
X0107797Y0007851D01*
X0107691Y0007962D01*
X0107587Y0008075D01*
X0107487Y0008191D01*
X0107389Y0008309D01*
X0107295Y0008430D01*
X0107204Y0008553D01*
X0107116Y0008679D01*
X0107032Y0008807D01*
X0106950Y0008937D01*
X0106873Y0009069D01*
X0106798Y0009203D01*
X0106727Y0009339D01*
X0106660Y0009477D01*
X0106596Y0009617D01*
X0106536Y0009758D01*
X0106480Y0009900D01*
X0106427Y0010044D01*
X0106378Y0010190D01*
X0106333Y0010336D01*
X0106292Y0010484D01*
X0106255Y0010632D01*
X0106221Y0010782D01*
X0106191Y0010933D01*
X0106166Y0011084D01*
X0106144Y0011235D01*
X0106126Y0011388D01*
X0106112Y0011540D01*
X0106102Y0011693D01*
X0106096Y0011847D01*
X0106094Y0012000D01*
D11*
X0066469Y0010856D02*
X0066543Y0010858D01*
X0066618Y0010864D01*
X0066691Y0010874D01*
X0066765Y0010887D01*
X0066837Y0010904D01*
X0066908Y0010926D01*
X0066979Y0010950D01*
X0067047Y0010979D01*
X0067115Y0011011D01*
X0067180Y0011047D01*
X0067243Y0011085D01*
X0067305Y0011128D01*
X0067364Y0011173D01*
X0067421Y0011221D01*
X0067475Y0011272D01*
X0067526Y0011326D01*
X0067574Y0011383D01*
X0067619Y0011442D01*
X0067662Y0011504D01*
X0067700Y0011567D01*
X0067736Y0011632D01*
X0067768Y0011700D01*
X0067797Y0011768D01*
X0067821Y0011839D01*
X0067843Y0011910D01*
X0067860Y0011982D01*
X0067873Y0012056D01*
X0067883Y0012129D01*
X0067889Y0012204D01*
X0067891Y0012278D01*
X0067889Y0012352D01*
X0067883Y0012427D01*
X0067873Y0012500D01*
X0067860Y0012574D01*
X0067843Y0012646D01*
X0067821Y0012717D01*
X0067797Y0012788D01*
X0067768Y0012856D01*
X0067736Y0012924D01*
X0067700Y0012989D01*
X0067662Y0013052D01*
X0067619Y0013114D01*
X0067574Y0013173D01*
X0067526Y0013230D01*
X0067475Y0013284D01*
X0067421Y0013335D01*
X0067364Y0013383D01*
X0067305Y0013428D01*
X0067243Y0013471D01*
X0067180Y0013509D01*
X0067115Y0013545D01*
X0067047Y0013577D01*
X0066979Y0013606D01*
X0066908Y0013630D01*
X0066837Y0013652D01*
X0066765Y0013669D01*
X0066691Y0013682D01*
X0066618Y0013692D01*
X0066543Y0013698D01*
X0066469Y0013700D01*
X0064691Y0013700D01*
X0064691Y0007300D01*
X0066469Y0007300D01*
X0066552Y0007302D01*
X0066635Y0007308D01*
X0066718Y0007318D01*
X0066801Y0007331D01*
X0066882Y0007349D01*
X0066963Y0007370D01*
X0067042Y0007395D01*
X0067120Y0007424D01*
X0067197Y0007456D01*
X0067272Y0007492D01*
X0067346Y0007531D01*
X0067417Y0007574D01*
X0067487Y0007620D01*
X0067554Y0007670D01*
X0067619Y0007722D01*
X0067681Y0007777D01*
X0067741Y0007836D01*
X0067798Y0007897D01*
X0067852Y0007960D01*
X0067903Y0008026D01*
X0067950Y0008095D01*
X0067995Y0008165D01*
X0068036Y0008238D01*
X0068073Y0008312D01*
X0068108Y0008388D01*
X0068138Y0008466D01*
X0068165Y0008544D01*
X0068188Y0008625D01*
X0068208Y0008706D01*
X0068223Y0008788D01*
X0068235Y0008870D01*
X0068243Y0008953D01*
X0068247Y0009036D01*
X0068247Y0009120D01*
X0068243Y0009203D01*
X0068235Y0009286D01*
X0068223Y0009368D01*
X0068208Y0009450D01*
X0068188Y0009531D01*
X0068165Y0009612D01*
X0068138Y0009690D01*
X0068108Y0009768D01*
X0068073Y0009844D01*
X0068036Y0009918D01*
X0067995Y0009991D01*
X0067950Y0010061D01*
X0067903Y0010130D01*
X0067852Y0010196D01*
X0067798Y0010259D01*
X0067741Y0010320D01*
X0067681Y0010379D01*
X0067619Y0010434D01*
X0067554Y0010486D01*
X0067487Y0010536D01*
X0067417Y0010582D01*
X0067346Y0010625D01*
X0067272Y0010664D01*
X0067197Y0010700D01*
X0067120Y0010732D01*
X0067042Y0010761D01*
X0066963Y0010786D01*
X0066882Y0010807D01*
X0066801Y0010825D01*
X0066718Y0010838D01*
X0066635Y0010848D01*
X0066552Y0010854D01*
X0066469Y0010856D01*
X0064691Y0010856D01*
X0061298Y0009967D02*
X0059343Y0011033D01*
X0060054Y0013700D02*
X0060155Y0013698D01*
X0060256Y0013692D01*
X0060356Y0013683D01*
X0060456Y0013669D01*
X0060556Y0013652D01*
X0060655Y0013632D01*
X0060752Y0013607D01*
X0060849Y0013579D01*
X0060945Y0013547D01*
X0061040Y0013511D01*
X0061133Y0013472D01*
X0061224Y0013430D01*
X0061314Y0013384D01*
X0061402Y0013334D01*
X0061488Y0013282D01*
X0061572Y0013226D01*
X0061654Y0013167D01*
X0059343Y0011034D02*
X0059279Y0011074D01*
X0059218Y0011117D01*
X0059159Y0011163D01*
X0059102Y0011212D01*
X0059048Y0011264D01*
X0058997Y0011318D01*
X0058949Y0011376D01*
X0058903Y0011435D01*
X0058861Y0011497D01*
X0058822Y0011562D01*
X0058787Y0011628D01*
X0058755Y0011695D01*
X0058726Y0011765D01*
X0058701Y0011835D01*
X0058680Y0011907D01*
X0058663Y0011980D01*
X0058649Y0012054D01*
X0058640Y0012128D01*
X0058634Y0012203D01*
X0058632Y0012278D01*
X0058634Y0012352D01*
X0058640Y0012427D01*
X0058650Y0012500D01*
X0058663Y0012574D01*
X0058680Y0012646D01*
X0058702Y0012717D01*
X0058726Y0012788D01*
X0058755Y0012856D01*
X0058787Y0012924D01*
X0058823Y0012989D01*
X0058861Y0013052D01*
X0058904Y0013114D01*
X0058949Y0013173D01*
X0058997Y0013230D01*
X0059048Y0013284D01*
X0059103Y0013335D01*
X0059159Y0013383D01*
X0059218Y0013428D01*
X0059280Y0013471D01*
X0059343Y0013509D01*
X0059408Y0013545D01*
X0059476Y0013577D01*
X0059544Y0013606D01*
X0059615Y0013630D01*
X0059686Y0013652D01*
X0059758Y0013669D01*
X0059832Y0013682D01*
X0059905Y0013692D01*
X0059980Y0013698D01*
X0060054Y0013700D01*
X0058454Y0008189D02*
X0058531Y0008114D01*
X0058611Y0008041D01*
X0058694Y0007972D01*
X0058779Y0007905D01*
X0058866Y0007842D01*
X0058955Y0007782D01*
X0059047Y0007725D01*
X0059140Y0007671D01*
X0059236Y0007621D01*
X0059333Y0007574D01*
X0059432Y0007531D01*
X0059532Y0007491D01*
X0059633Y0007455D01*
X0059736Y0007423D01*
X0059840Y0007394D01*
X0059945Y0007369D01*
X0060051Y0007348D01*
X0060157Y0007331D01*
X0060264Y0007317D01*
X0060372Y0007308D01*
X0060479Y0007302D01*
X0060587Y0007300D01*
X0060661Y0007302D01*
X0060736Y0007308D01*
X0060809Y0007318D01*
X0060883Y0007331D01*
X0060955Y0007348D01*
X0061026Y0007370D01*
X0061097Y0007394D01*
X0061165Y0007423D01*
X0061233Y0007455D01*
X0061298Y0007491D01*
X0061361Y0007529D01*
X0061423Y0007572D01*
X0061482Y0007617D01*
X0061539Y0007665D01*
X0061593Y0007716D01*
X0061644Y0007770D01*
X0061692Y0007827D01*
X0061737Y0007886D01*
X0061780Y0007948D01*
X0061818Y0008011D01*
X0061854Y0008076D01*
X0061886Y0008144D01*
X0061915Y0008212D01*
X0061939Y0008283D01*
X0061961Y0008354D01*
X0061978Y0008426D01*
X0061991Y0008500D01*
X0062001Y0008573D01*
X0062007Y0008648D01*
X0062009Y0008722D01*
X0062007Y0008797D01*
X0062001Y0008872D01*
X0061992Y0008946D01*
X0061978Y0009020D01*
X0061961Y0009093D01*
X0061940Y0009165D01*
X0061915Y0009235D01*
X0061886Y0009305D01*
X0061854Y0009372D01*
X0061819Y0009438D01*
X0061780Y0009503D01*
X0061738Y0009565D01*
X0061692Y0009624D01*
X0061644Y0009682D01*
X0061593Y0009736D01*
X0061539Y0009788D01*
X0061482Y0009837D01*
X0061423Y0009883D01*
X0061362Y0009926D01*
X0061298Y0009966D01*
X0055856Y0009078D02*
X0055856Y0013700D01*
X0052300Y0013700D02*
X0052300Y0009078D01*
X0052302Y0008995D01*
X0052308Y0008912D01*
X0052318Y0008829D01*
X0052331Y0008746D01*
X0052349Y0008665D01*
X0052370Y0008584D01*
X0052395Y0008505D01*
X0052424Y0008427D01*
X0052456Y0008350D01*
X0052492Y0008275D01*
X0052531Y0008201D01*
X0052574Y0008130D01*
X0052620Y0008060D01*
X0052670Y0007993D01*
X0052722Y0007928D01*
X0052777Y0007866D01*
X0052836Y0007806D01*
X0052897Y0007749D01*
X0052960Y0007695D01*
X0053026Y0007644D01*
X0053095Y0007597D01*
X0053165Y0007552D01*
X0053238Y0007511D01*
X0053312Y0007474D01*
X0053388Y0007439D01*
X0053466Y0007409D01*
X0053544Y0007382D01*
X0053625Y0007359D01*
X0053706Y0007339D01*
X0053788Y0007324D01*
X0053870Y0007312D01*
X0053953Y0007304D01*
X0054036Y0007300D01*
X0054120Y0007300D01*
X0054203Y0007304D01*
X0054286Y0007312D01*
X0054368Y0007324D01*
X0054450Y0007339D01*
X0054531Y0007359D01*
X0054612Y0007382D01*
X0054690Y0007409D01*
X0054768Y0007439D01*
X0054844Y0007474D01*
X0054918Y0007511D01*
X0054991Y0007552D01*
X0055061Y0007597D01*
X0055130Y0007644D01*
X0055196Y0007695D01*
X0055259Y0007749D01*
X0055320Y0007806D01*
X0055379Y0007866D01*
X0055434Y0007928D01*
X0055486Y0007993D01*
X0055536Y0008060D01*
X0055582Y0008130D01*
X0055625Y0008201D01*
X0055664Y0008275D01*
X0055700Y0008350D01*
X0055732Y0008427D01*
X0055761Y0008505D01*
X0055786Y0008584D01*
X0055807Y0008665D01*
X0055825Y0008746D01*
X0055838Y0008829D01*
X0055848Y0008912D01*
X0055854Y0008995D01*
X0055856Y0009078D01*
D12*
X0035000Y0012000D02*
X0029000Y0012000D01*
X0029000Y0022000D02*
X0035000Y0022000D01*
X0035000Y0032000D02*
X0029000Y0032000D01*
X0029000Y0042000D02*
X0035000Y0042000D01*
X0035000Y0052000D02*
X0029000Y0052000D01*
X0029000Y0062000D02*
X0035000Y0062000D01*
X0035000Y0072000D02*
X0029000Y0072000D01*
X0029000Y0082000D02*
X0035000Y0082000D01*
X0035000Y0092000D02*
X0029000Y0092000D01*
X0089000Y0092000D02*
X0095000Y0092000D01*
X0095000Y0082000D02*
X0089000Y0082000D01*
X0089000Y0072000D02*
X0095000Y0072000D01*
X0095000Y0062000D02*
X0089000Y0062000D01*
X0089000Y0052000D02*
X0095000Y0052000D01*
X0095000Y0042000D02*
X0089000Y0042000D01*
X0089000Y0032000D02*
X0095000Y0032000D01*
X0095000Y0022000D02*
X0089000Y0022000D01*
X0089000Y0012000D02*
X0095000Y0012000D01*
D13*
X0077000Y0062000D03*
X0077000Y0072000D03*
X0077000Y0082000D03*
X0077000Y0092000D03*
X0047000Y0092000D03*
X0047000Y0082000D03*
X0047000Y0072000D03*
X0047000Y0062000D03*
D14*
X0042000Y0119031D02*
X0042000Y0124969D01*
X0052000Y0124969D02*
X0052000Y0119031D01*
X0062000Y0119031D02*
X0062000Y0124969D01*
X0087000Y0124969D02*
X0087000Y0119031D01*
X0097000Y0119031D02*
X0097000Y0124969D01*
X0032000Y0124969D02*
X0032000Y0119031D01*
X0022000Y0119031D02*
X0022000Y0124969D01*
M02*
