G75*
%MOIN*%
%OFA0B0*%
%FSLAX25Y25*%
%IPPOS*%
%LPD*%
%AMOC8*
5,1,8,0,0,1.08239X$1,22.5*
%
%ADD10C,0.06000*%
%ADD11C,0.05200*%
%ADD12C,0.05937*%
%ADD13C,0.04000*%
%ADD14C,0.02000*%
D10*
X0029000Y0012000D02*
X0035000Y0012000D01*
X0035000Y0022000D02*
X0029000Y0022000D01*
X0029000Y0032000D02*
X0035000Y0032000D01*
X0035000Y0042000D02*
X0029000Y0042000D01*
X0029000Y0052000D02*
X0035000Y0052000D01*
X0035000Y0062000D02*
X0029000Y0062000D01*
X0029000Y0072000D02*
X0035000Y0072000D01*
X0035000Y0082000D02*
X0029000Y0082000D01*
X0029000Y0092000D02*
X0035000Y0092000D01*
X0089000Y0092000D02*
X0095000Y0092000D01*
X0095000Y0082000D02*
X0089000Y0082000D01*
X0089000Y0072000D02*
X0095000Y0072000D01*
X0095000Y0062000D02*
X0089000Y0062000D01*
X0089000Y0052000D02*
X0095000Y0052000D01*
X0095000Y0042000D02*
X0089000Y0042000D01*
X0089000Y0032000D02*
X0095000Y0032000D01*
X0095000Y0022000D02*
X0089000Y0022000D01*
X0089000Y0012000D02*
X0095000Y0012000D01*
D11*
X0077000Y0062000D03*
X0077000Y0072000D03*
X0077000Y0082000D03*
X0077000Y0092000D03*
X0047000Y0092000D03*
X0047000Y0082000D03*
X0047000Y0072000D03*
X0047000Y0062000D03*
D12*
X0042000Y0119031D02*
X0042000Y0124969D01*
X0052000Y0124969D02*
X0052000Y0119031D01*
X0062000Y0119031D02*
X0062000Y0124969D01*
X0087000Y0124969D02*
X0087000Y0119031D01*
X0097000Y0119031D02*
X0097000Y0124969D01*
X0032000Y0124969D02*
X0032000Y0119031D01*
X0022000Y0119031D02*
X0022000Y0124969D01*
D13*
X0022000Y0122000D02*
X0022000Y0132000D01*
X0077000Y0132000D01*
X0077000Y0092000D01*
X0077000Y0062000D02*
X0062000Y0062000D01*
X0062000Y0122000D01*
X0077000Y0132000D02*
X0097000Y0132000D01*
X0097000Y0122000D01*
X0047000Y0082000D02*
X0032000Y0082000D01*
X0032000Y0092000D02*
X0042000Y0102000D01*
X0042000Y0122000D01*
X0032000Y0122000D02*
X0032000Y0102000D01*
X0022000Y0102000D01*
X0022000Y0052000D01*
X0032000Y0052000D01*
D14*
X0007000Y0021706D02*
X0007000Y0135701D01*
X0111921Y0135701D01*
X0111921Y0106751D01*
X0111209Y0107162D01*
X0108436Y0107905D01*
X0105564Y0107905D01*
X0102791Y0107162D01*
X0100304Y0105727D01*
X0098273Y0103696D01*
X0096838Y0101209D01*
X0096094Y0098436D01*
X0096094Y0096889D01*
X0095394Y0097000D01*
X0092000Y0097000D01*
X0092000Y0092000D01*
X0092000Y0092000D01*
X0092000Y0097000D01*
X0088606Y0097000D01*
X0087829Y0096877D01*
X0087081Y0096634D01*
X0086379Y0096276D01*
X0085743Y0095814D01*
X0085186Y0095257D01*
X0084724Y0094621D01*
X0084366Y0093919D01*
X0084123Y0093171D01*
X0084000Y0092394D01*
X0084000Y0092000D01*
X0092000Y0092000D01*
X0092000Y0087000D01*
X0095394Y0087000D01*
X0096171Y0087123D01*
X0096919Y0087366D01*
X0097621Y0087724D01*
X0098257Y0088186D01*
X0098814Y0088743D01*
X0099243Y0089334D01*
X0100304Y0088273D01*
X0102791Y0086838D01*
X0105564Y0086094D01*
X0108436Y0086094D01*
X0111209Y0086838D01*
X0111921Y0087249D01*
X0111921Y0022905D01*
X0110564Y0022905D01*
X0107791Y0022162D01*
X0105304Y0020727D01*
X0103273Y0018696D01*
X0101838Y0016209D01*
X0101094Y0013436D01*
X0101094Y0010564D01*
X0101838Y0007791D01*
X0102294Y0007000D01*
X0021706Y0007000D01*
X0022162Y0007791D01*
X0022905Y0010564D01*
X0022905Y0013436D01*
X0022162Y0016209D01*
X0020727Y0018696D01*
X0018696Y0020727D01*
X0016209Y0022162D01*
X0013436Y0022905D01*
X0010564Y0022905D01*
X0007791Y0022162D01*
X0007000Y0021706D01*
X0007000Y0021985D02*
X0007484Y0021985D01*
X0007000Y0023984D02*
X0024843Y0023984D01*
X0025100Y0024606D02*
X0024400Y0022915D01*
X0024400Y0021085D01*
X0025100Y0019394D01*
X0026394Y0018100D01*
X0028085Y0017400D01*
X0035915Y0017400D01*
X0037606Y0018100D01*
X0038900Y0019394D01*
X0039600Y0021085D01*
X0039600Y0022915D01*
X0038900Y0024606D01*
X0037606Y0025900D01*
X0035915Y0026600D01*
X0028085Y0026600D01*
X0026394Y0025900D01*
X0025100Y0024606D01*
X0026593Y0025982D02*
X0007000Y0025982D01*
X0007000Y0027981D02*
X0026683Y0027981D01*
X0026394Y0028100D02*
X0028085Y0027400D01*
X0035915Y0027400D01*
X0037606Y0028100D01*
X0038900Y0029394D01*
X0039600Y0031085D01*
X0039600Y0032915D01*
X0038900Y0034606D01*
X0037606Y0035900D01*
X0035915Y0036600D01*
X0028085Y0036600D01*
X0026394Y0035900D01*
X0025100Y0034606D01*
X0024400Y0032915D01*
X0024400Y0031085D01*
X0025100Y0029394D01*
X0026394Y0028100D01*
X0024858Y0029979D02*
X0007000Y0029979D01*
X0007000Y0031978D02*
X0024400Y0031978D01*
X0024840Y0033976D02*
X0007000Y0033976D01*
X0007000Y0035975D02*
X0026575Y0035975D01*
X0028085Y0037400D02*
X0035915Y0037400D01*
X0037606Y0038100D01*
X0038900Y0039394D01*
X0039600Y0041085D01*
X0039600Y0042915D01*
X0038900Y0044606D01*
X0037606Y0045900D01*
X0035915Y0046600D01*
X0028085Y0046600D01*
X0026394Y0045900D01*
X0025100Y0044606D01*
X0024400Y0042915D01*
X0024400Y0041085D01*
X0025100Y0039394D01*
X0026394Y0038100D01*
X0028085Y0037400D01*
X0026701Y0037973D02*
X0007000Y0037973D01*
X0007000Y0039972D02*
X0024861Y0039972D01*
X0024400Y0041970D02*
X0007000Y0041970D01*
X0007000Y0043969D02*
X0024836Y0043969D01*
X0026557Y0045967D02*
X0007000Y0045967D01*
X0007000Y0047966D02*
X0026719Y0047966D01*
X0026394Y0048100D02*
X0028085Y0047400D01*
X0035915Y0047400D01*
X0037606Y0048100D01*
X0038900Y0049394D01*
X0039600Y0051085D01*
X0039600Y0052915D01*
X0038900Y0054606D01*
X0037606Y0055900D01*
X0035915Y0056600D01*
X0028085Y0056600D01*
X0026394Y0055900D01*
X0026095Y0055600D01*
X0025600Y0055600D01*
X0025600Y0058895D01*
X0026394Y0058100D01*
X0028085Y0057400D01*
X0035915Y0057400D01*
X0037606Y0058100D01*
X0038900Y0059394D01*
X0039600Y0061085D01*
X0039600Y0062915D01*
X0038900Y0064606D01*
X0037606Y0065900D01*
X0035915Y0066600D01*
X0028085Y0066600D01*
X0026394Y0065900D01*
X0025600Y0065105D01*
X0025600Y0068895D01*
X0026394Y0068100D01*
X0028085Y0067400D01*
X0035915Y0067400D01*
X0037606Y0068100D01*
X0038900Y0069394D01*
X0039600Y0071085D01*
X0039600Y0072915D01*
X0038900Y0074606D01*
X0037606Y0075900D01*
X0035915Y0076600D01*
X0028085Y0076600D01*
X0026394Y0075900D01*
X0025600Y0075105D01*
X0025600Y0078895D01*
X0026394Y0078100D01*
X0028085Y0077400D01*
X0035915Y0077400D01*
X0037606Y0078100D01*
X0037905Y0078400D01*
X0044716Y0078400D01*
X0046165Y0077800D01*
X0047835Y0077800D01*
X0049379Y0078439D01*
X0050561Y0079621D01*
X0051200Y0081165D01*
X0051200Y0082835D01*
X0050561Y0084379D01*
X0049379Y0085561D01*
X0047835Y0086200D01*
X0046165Y0086200D01*
X0044716Y0085600D01*
X0037905Y0085600D01*
X0037606Y0085900D01*
X0035915Y0086600D01*
X0028085Y0086600D01*
X0026394Y0085900D01*
X0025600Y0085105D01*
X0025600Y0088895D01*
X0026394Y0088100D01*
X0028085Y0087400D01*
X0035915Y0087400D01*
X0037606Y0088100D01*
X0038900Y0089394D01*
X0039600Y0091085D01*
X0039600Y0092915D01*
X0039133Y0094042D01*
X0045052Y0099961D01*
X0045600Y0101284D01*
X0045600Y0116171D01*
X0045873Y0116444D01*
X0046568Y0118123D01*
X0046568Y0125877D01*
X0045873Y0127556D01*
X0045029Y0128400D01*
X0048405Y0128400D01*
X0048210Y0128205D01*
X0047751Y0127573D01*
X0047396Y0126876D01*
X0047154Y0126132D01*
X0047031Y0125360D01*
X0047031Y0122000D01*
X0047031Y0118640D01*
X0047154Y0117868D01*
X0047396Y0117124D01*
X0047751Y0116427D01*
X0048210Y0115795D01*
X0048763Y0115242D01*
X0049396Y0114782D01*
X0050093Y0114427D01*
X0050837Y0114185D01*
X0051609Y0114063D01*
X0052000Y0114063D01*
X0052391Y0114063D01*
X0053163Y0114185D01*
X0053907Y0114427D01*
X0054604Y0114782D01*
X0055237Y0115242D01*
X0055790Y0115795D01*
X0056249Y0116427D01*
X0056604Y0117124D01*
X0056846Y0117868D01*
X0056968Y0118640D01*
X0056968Y0122000D01*
X0056968Y0125360D01*
X0056846Y0126132D01*
X0056604Y0126876D01*
X0056249Y0127573D01*
X0055790Y0128205D01*
X0055595Y0128400D01*
X0058971Y0128400D01*
X0058127Y0127556D01*
X0057431Y0125877D01*
X0057431Y0118123D01*
X0058127Y0116444D01*
X0058400Y0116171D01*
X0058400Y0061284D01*
X0058948Y0059961D01*
X0059961Y0058948D01*
X0061284Y0058400D01*
X0074716Y0058400D01*
X0076165Y0057800D01*
X0077835Y0057800D01*
X0079379Y0058439D01*
X0080561Y0059621D01*
X0081200Y0061165D01*
X0081200Y0062835D01*
X0080561Y0064379D01*
X0079379Y0065561D01*
X0077835Y0066200D01*
X0076165Y0066200D01*
X0074716Y0065600D01*
X0065600Y0065600D01*
X0065600Y0116171D01*
X0065873Y0116444D01*
X0066568Y0118123D01*
X0066568Y0125877D01*
X0065873Y0127556D01*
X0065029Y0128400D01*
X0073400Y0128400D01*
X0073400Y0094284D01*
X0072800Y0092835D01*
X0072800Y0091165D01*
X0073439Y0089621D01*
X0074621Y0088439D01*
X0076165Y0087800D01*
X0077835Y0087800D01*
X0079379Y0088439D01*
X0080561Y0089621D01*
X0081200Y0091165D01*
X0081200Y0092835D01*
X0080600Y0094284D01*
X0080600Y0128400D01*
X0083405Y0128400D01*
X0083210Y0128205D01*
X0082751Y0127573D01*
X0082396Y0126876D01*
X0082154Y0126132D01*
X0082031Y0125360D01*
X0082031Y0122000D01*
X0082031Y0118640D01*
X0082154Y0117868D01*
X0082396Y0117124D01*
X0082751Y0116427D01*
X0083210Y0115795D01*
X0083763Y0115242D01*
X0084396Y0114782D01*
X0085093Y0114427D01*
X0085837Y0114185D01*
X0086609Y0114063D01*
X0087000Y0114063D01*
X0087391Y0114063D01*
X0088163Y0114185D01*
X0088907Y0114427D01*
X0089604Y0114782D01*
X0090237Y0115242D01*
X0090790Y0115795D01*
X0091249Y0116427D01*
X0091604Y0117124D01*
X0091846Y0117868D01*
X0091968Y0118640D01*
X0091968Y0122000D01*
X0091968Y0125360D01*
X0091846Y0126132D01*
X0091604Y0126876D01*
X0091249Y0127573D01*
X0090790Y0128205D01*
X0090595Y0128400D01*
X0093400Y0128400D01*
X0093400Y0127829D01*
X0093127Y0127556D01*
X0092431Y0125877D01*
X0092431Y0118123D01*
X0093127Y0116444D01*
X0094412Y0115159D01*
X0096091Y0114463D01*
X0097909Y0114463D01*
X0099588Y0115159D01*
X0100873Y0116444D01*
X0101568Y0118123D01*
X0101568Y0125877D01*
X0100873Y0127556D01*
X0100600Y0127829D01*
X0100600Y0132716D01*
X0100052Y0134039D01*
X0099039Y0135052D01*
X0097716Y0135600D01*
X0021284Y0135600D01*
X0019961Y0135052D01*
X0018948Y0134039D01*
X0018400Y0132716D01*
X0018400Y0127829D01*
X0018127Y0127556D01*
X0017431Y0125877D01*
X0017431Y0118123D01*
X0018127Y0116444D01*
X0019412Y0115159D01*
X0021091Y0114463D01*
X0022909Y0114463D01*
X0024588Y0115159D01*
X0025873Y0116444D01*
X0026568Y0118123D01*
X0026568Y0125877D01*
X0025873Y0127556D01*
X0025600Y0127829D01*
X0025600Y0128400D01*
X0028971Y0128400D01*
X0028127Y0127556D01*
X0027431Y0125877D01*
X0027431Y0118123D01*
X0028127Y0116444D01*
X0028400Y0116171D01*
X0028400Y0105600D01*
X0021284Y0105600D01*
X0019961Y0105052D01*
X0018948Y0104039D01*
X0018400Y0102716D01*
X0018400Y0051284D01*
X0018948Y0049961D01*
X0019961Y0048948D01*
X0021284Y0048400D01*
X0026095Y0048400D01*
X0026394Y0048100D01*
X0026539Y0055960D02*
X0025600Y0055960D01*
X0025600Y0057958D02*
X0026737Y0057958D01*
X0026521Y0065952D02*
X0025600Y0065952D01*
X0025600Y0067951D02*
X0026755Y0067951D01*
X0026504Y0075945D02*
X0025600Y0075945D01*
X0025600Y0077943D02*
X0026773Y0077943D01*
X0026486Y0085937D02*
X0025600Y0085937D01*
X0025600Y0087936D02*
X0026791Y0087936D01*
X0018400Y0087936D02*
X0007000Y0087936D01*
X0007000Y0089934D02*
X0018400Y0089934D01*
X0018400Y0091933D02*
X0007000Y0091933D01*
X0007000Y0093932D02*
X0018400Y0093932D01*
X0018400Y0095930D02*
X0007000Y0095930D01*
X0007000Y0097929D02*
X0018400Y0097929D01*
X0018400Y0099927D02*
X0007000Y0099927D01*
X0007000Y0101926D02*
X0018400Y0101926D01*
X0018900Y0103924D02*
X0007000Y0103924D01*
X0007000Y0105923D02*
X0028400Y0105923D01*
X0028400Y0107921D02*
X0007000Y0107921D01*
X0007000Y0109920D02*
X0028400Y0109920D01*
X0028400Y0111918D02*
X0007000Y0111918D01*
X0007000Y0113917D02*
X0028400Y0113917D01*
X0028400Y0115915D02*
X0025344Y0115915D01*
X0026482Y0117914D02*
X0027518Y0117914D01*
X0027431Y0119912D02*
X0026568Y0119912D01*
X0026568Y0121911D02*
X0027431Y0121911D01*
X0027431Y0123909D02*
X0026568Y0123909D01*
X0026556Y0125908D02*
X0027444Y0125908D01*
X0028477Y0127906D02*
X0025600Y0127906D01*
X0018400Y0127906D02*
X0007000Y0127906D01*
X0007000Y0125908D02*
X0017444Y0125908D01*
X0017431Y0123909D02*
X0007000Y0123909D01*
X0007000Y0121911D02*
X0017431Y0121911D01*
X0017431Y0119912D02*
X0007000Y0119912D01*
X0007000Y0117914D02*
X0017518Y0117914D01*
X0018655Y0115915D02*
X0007000Y0115915D01*
X0007000Y0129905D02*
X0018400Y0129905D01*
X0018400Y0131903D02*
X0007000Y0131903D01*
X0007000Y0133902D02*
X0018891Y0133902D01*
X0045523Y0127906D02*
X0047993Y0127906D01*
X0047118Y0125908D02*
X0046556Y0125908D01*
X0046568Y0123909D02*
X0047031Y0123909D01*
X0047031Y0122000D02*
X0052000Y0122000D01*
X0056968Y0122000D01*
X0052000Y0122000D01*
X0052000Y0122000D01*
X0052000Y0114063D01*
X0052000Y0122000D01*
X0052000Y0122000D01*
X0052000Y0122000D01*
X0047031Y0122000D01*
X0047031Y0121911D02*
X0046568Y0121911D01*
X0046568Y0119912D02*
X0047031Y0119912D01*
X0047147Y0117914D02*
X0046482Y0117914D01*
X0045600Y0115915D02*
X0048123Y0115915D01*
X0045600Y0113917D02*
X0058400Y0113917D01*
X0058400Y0115915D02*
X0055877Y0115915D01*
X0056853Y0117914D02*
X0057518Y0117914D01*
X0057431Y0119912D02*
X0056968Y0119912D01*
X0056968Y0121911D02*
X0057431Y0121911D01*
X0057431Y0123909D02*
X0056968Y0123909D01*
X0056882Y0125908D02*
X0057444Y0125908D01*
X0058477Y0127906D02*
X0056007Y0127906D01*
X0052000Y0121911D02*
X0052000Y0121911D01*
X0052000Y0119912D02*
X0052000Y0119912D01*
X0052000Y0117914D02*
X0052000Y0117914D01*
X0052000Y0115915D02*
X0052000Y0115915D01*
X0045600Y0111918D02*
X0058400Y0111918D01*
X0058400Y0109920D02*
X0045600Y0109920D01*
X0045600Y0107921D02*
X0058400Y0107921D01*
X0058400Y0105923D02*
X0045600Y0105923D01*
X0045600Y0103924D02*
X0058400Y0103924D01*
X0058400Y0101926D02*
X0045600Y0101926D01*
X0045018Y0099927D02*
X0058400Y0099927D01*
X0058400Y0097929D02*
X0043020Y0097929D01*
X0041021Y0095930D02*
X0045513Y0095930D01*
X0046165Y0096200D02*
X0044621Y0095561D01*
X0043439Y0094379D01*
X0042800Y0092835D01*
X0042800Y0091165D01*
X0043439Y0089621D01*
X0044621Y0088439D01*
X0046165Y0087800D01*
X0047835Y0087800D01*
X0049379Y0088439D01*
X0050561Y0089621D01*
X0051200Y0091165D01*
X0051200Y0092835D01*
X0050561Y0094379D01*
X0049379Y0095561D01*
X0047835Y0096200D01*
X0046165Y0096200D01*
X0048487Y0095930D02*
X0058400Y0095930D01*
X0058400Y0093932D02*
X0050746Y0093932D01*
X0051200Y0091933D02*
X0058400Y0091933D01*
X0058400Y0089934D02*
X0050690Y0089934D01*
X0048164Y0087936D02*
X0058400Y0087936D01*
X0058400Y0085937D02*
X0048469Y0085937D01*
X0045531Y0085937D02*
X0037514Y0085937D01*
X0037209Y0087936D02*
X0045836Y0087936D01*
X0043309Y0089934D02*
X0039123Y0089934D01*
X0039600Y0091933D02*
X0042800Y0091933D01*
X0043254Y0093932D02*
X0039179Y0093932D01*
X0050743Y0083939D02*
X0058400Y0083939D01*
X0058400Y0081940D02*
X0051200Y0081940D01*
X0050694Y0079942D02*
X0058400Y0079942D01*
X0058400Y0077943D02*
X0048182Y0077943D01*
X0047835Y0076200D02*
X0046165Y0076200D01*
X0044621Y0075561D01*
X0043439Y0074379D01*
X0042800Y0072835D01*
X0042800Y0071165D01*
X0043439Y0069621D01*
X0044621Y0068439D01*
X0046165Y0067800D01*
X0047835Y0067800D01*
X0049379Y0068439D01*
X0050561Y0069621D01*
X0051200Y0071165D01*
X0051200Y0072835D01*
X0050561Y0074379D01*
X0049379Y0075561D01*
X0047835Y0076200D01*
X0048451Y0075945D02*
X0058400Y0075945D01*
X0058400Y0073946D02*
X0050740Y0073946D01*
X0051200Y0071948D02*
X0058400Y0071948D01*
X0058400Y0069949D02*
X0050697Y0069949D01*
X0048200Y0067951D02*
X0058400Y0067951D01*
X0058400Y0065952D02*
X0049375Y0065952D01*
X0049411Y0065934D02*
X0048766Y0066263D01*
X0048077Y0066487D01*
X0047362Y0066600D01*
X0047000Y0066600D01*
X0047000Y0062000D01*
X0051600Y0062000D01*
X0051600Y0062362D01*
X0051487Y0063077D01*
X0051263Y0063766D01*
X0050934Y0064411D01*
X0050509Y0064997D01*
X0049997Y0065509D01*
X0049411Y0065934D01*
X0051167Y0063954D02*
X0058400Y0063954D01*
X0058400Y0061955D02*
X0051600Y0061955D01*
X0051600Y0062000D02*
X0047000Y0062000D01*
X0047000Y0062000D01*
X0047000Y0062000D01*
X0047000Y0057400D01*
X0047362Y0057400D01*
X0048077Y0057513D01*
X0048766Y0057737D01*
X0049411Y0058066D01*
X0049997Y0058491D01*
X0050509Y0059003D01*
X0050934Y0059589D01*
X0051263Y0060234D01*
X0051487Y0060923D01*
X0051600Y0061638D01*
X0051600Y0062000D01*
X0051122Y0059957D02*
X0058952Y0059957D01*
X0065600Y0065952D02*
X0075567Y0065952D01*
X0076165Y0067800D02*
X0074621Y0068439D01*
X0073439Y0069621D01*
X0072800Y0071165D01*
X0072800Y0072835D01*
X0073439Y0074379D01*
X0074621Y0075561D01*
X0076165Y0076200D01*
X0077835Y0076200D01*
X0079379Y0075561D01*
X0080561Y0074379D01*
X0081200Y0072835D01*
X0081200Y0071165D01*
X0080561Y0069621D01*
X0079379Y0068439D01*
X0077835Y0067800D01*
X0076165Y0067800D01*
X0075800Y0067951D02*
X0065600Y0067951D01*
X0065600Y0069949D02*
X0073303Y0069949D01*
X0072800Y0071948D02*
X0065600Y0071948D01*
X0065600Y0073946D02*
X0073260Y0073946D01*
X0075549Y0075945D02*
X0065600Y0075945D01*
X0065600Y0077943D02*
X0075818Y0077943D01*
X0076165Y0077800D02*
X0077835Y0077800D01*
X0079379Y0078439D01*
X0080561Y0079621D01*
X0081200Y0081165D01*
X0081200Y0082835D01*
X0080561Y0084379D01*
X0079379Y0085561D01*
X0077835Y0086200D01*
X0076165Y0086200D01*
X0074621Y0085561D01*
X0073439Y0084379D01*
X0072800Y0082835D01*
X0072800Y0081165D01*
X0073439Y0079621D01*
X0074621Y0078439D01*
X0076165Y0077800D01*
X0078182Y0077943D02*
X0086773Y0077943D01*
X0086394Y0078100D02*
X0088085Y0077400D01*
X0095915Y0077400D01*
X0097606Y0078100D01*
X0098900Y0079394D01*
X0099600Y0081085D01*
X0099600Y0082915D01*
X0098900Y0084606D01*
X0097606Y0085900D01*
X0095915Y0086600D01*
X0088085Y0086600D01*
X0086394Y0085900D01*
X0085100Y0084606D01*
X0084400Y0082915D01*
X0084400Y0081085D01*
X0085100Y0079394D01*
X0086394Y0078100D01*
X0086394Y0075900D02*
X0088085Y0076600D01*
X0095915Y0076600D01*
X0097606Y0075900D01*
X0098900Y0074606D01*
X0099600Y0072915D01*
X0099600Y0071085D01*
X0098900Y0069394D01*
X0097606Y0068100D01*
X0095915Y0067400D01*
X0088085Y0067400D01*
X0086394Y0068100D01*
X0085100Y0069394D01*
X0084400Y0071085D01*
X0084400Y0072915D01*
X0085100Y0074606D01*
X0086394Y0075900D01*
X0086504Y0075945D02*
X0078451Y0075945D01*
X0080740Y0073946D02*
X0084827Y0073946D01*
X0084400Y0071948D02*
X0081200Y0071948D01*
X0080697Y0069949D02*
X0084870Y0069949D01*
X0086755Y0067951D02*
X0078200Y0067951D01*
X0078433Y0065952D02*
X0086521Y0065952D01*
X0086394Y0065900D02*
X0085100Y0064606D01*
X0084400Y0062915D01*
X0084400Y0061085D01*
X0085100Y0059394D01*
X0086394Y0058100D01*
X0088085Y0057400D01*
X0095915Y0057400D01*
X0097606Y0058100D01*
X0098900Y0059394D01*
X0099600Y0061085D01*
X0099600Y0062915D01*
X0098900Y0064606D01*
X0097606Y0065900D01*
X0095915Y0066600D01*
X0088085Y0066600D01*
X0086394Y0065900D01*
X0084830Y0063954D02*
X0080737Y0063954D01*
X0081200Y0061955D02*
X0084400Y0061955D01*
X0084867Y0059957D02*
X0080700Y0059957D01*
X0078218Y0057958D02*
X0086737Y0057958D01*
X0088085Y0056600D02*
X0086394Y0055900D01*
X0085100Y0054606D01*
X0084400Y0052915D01*
X0084400Y0051085D01*
X0085100Y0049394D01*
X0086394Y0048100D01*
X0088085Y0047400D01*
X0095915Y0047400D01*
X0097606Y0048100D01*
X0098900Y0049394D01*
X0099600Y0051085D01*
X0099600Y0052915D01*
X0098900Y0054606D01*
X0097606Y0055900D01*
X0095915Y0056600D01*
X0088085Y0056600D01*
X0086539Y0055960D02*
X0037461Y0055960D01*
X0039167Y0053961D02*
X0084833Y0053961D01*
X0084400Y0051963D02*
X0039600Y0051963D01*
X0039136Y0049964D02*
X0084864Y0049964D01*
X0086719Y0047966D02*
X0037281Y0047966D01*
X0037443Y0045967D02*
X0086557Y0045967D01*
X0086394Y0045900D02*
X0085100Y0044606D01*
X0084400Y0042915D01*
X0084400Y0041085D01*
X0085100Y0039394D01*
X0086394Y0038100D01*
X0088085Y0037400D01*
X0095915Y0037400D01*
X0097606Y0038100D01*
X0098900Y0039394D01*
X0099600Y0041085D01*
X0099600Y0042915D01*
X0098900Y0044606D01*
X0097606Y0045900D01*
X0095915Y0046600D01*
X0088085Y0046600D01*
X0086394Y0045900D01*
X0084836Y0043969D02*
X0039164Y0043969D01*
X0039600Y0041970D02*
X0084400Y0041970D01*
X0084861Y0039972D02*
X0039139Y0039972D01*
X0037299Y0037973D02*
X0086701Y0037973D01*
X0088085Y0036600D02*
X0086394Y0035900D01*
X0085100Y0034606D01*
X0084400Y0032915D01*
X0084400Y0031085D01*
X0085100Y0029394D01*
X0086394Y0028100D01*
X0088085Y0027400D01*
X0095915Y0027400D01*
X0097606Y0028100D01*
X0098900Y0029394D01*
X0099600Y0031085D01*
X0099600Y0032915D01*
X0098900Y0034606D01*
X0097606Y0035900D01*
X0095915Y0036600D01*
X0088085Y0036600D01*
X0086575Y0035975D02*
X0037425Y0035975D01*
X0039160Y0033976D02*
X0084840Y0033976D01*
X0084400Y0031978D02*
X0039600Y0031978D01*
X0039142Y0029979D02*
X0084858Y0029979D01*
X0086683Y0027981D02*
X0037317Y0027981D01*
X0037407Y0025982D02*
X0086593Y0025982D01*
X0086394Y0025900D02*
X0085100Y0024606D01*
X0084400Y0022915D01*
X0084400Y0021085D01*
X0085100Y0019394D01*
X0086394Y0018100D01*
X0088085Y0017400D01*
X0095915Y0017400D01*
X0097606Y0018100D01*
X0098900Y0019394D01*
X0099600Y0021085D01*
X0099600Y0022915D01*
X0098900Y0024606D01*
X0097606Y0025900D01*
X0095915Y0026600D01*
X0088085Y0026600D01*
X0086394Y0025900D01*
X0084843Y0023984D02*
X0039157Y0023984D01*
X0039600Y0021985D02*
X0084400Y0021985D01*
X0084855Y0019987D02*
X0039145Y0019987D01*
X0037335Y0017988D02*
X0086665Y0017988D01*
X0088085Y0016600D02*
X0086394Y0015900D01*
X0085100Y0014606D01*
X0084400Y0012915D01*
X0084400Y0011085D01*
X0085100Y0009394D01*
X0086394Y0008100D01*
X0088085Y0007400D01*
X0095915Y0007400D01*
X0097606Y0008100D01*
X0098900Y0009394D01*
X0099600Y0011085D01*
X0099600Y0012915D01*
X0098900Y0014606D01*
X0097606Y0015900D01*
X0095915Y0016600D01*
X0088085Y0016600D01*
X0086611Y0015990D02*
X0037389Y0015990D01*
X0037606Y0015900D02*
X0035915Y0016600D01*
X0028085Y0016600D01*
X0026394Y0015900D01*
X0025100Y0014606D01*
X0024400Y0012915D01*
X0024400Y0011085D01*
X0025100Y0009394D01*
X0026394Y0008100D01*
X0028085Y0007400D01*
X0035915Y0007400D01*
X0037606Y0008100D01*
X0038900Y0009394D01*
X0039600Y0011085D01*
X0039600Y0012915D01*
X0038900Y0014606D01*
X0037606Y0015900D01*
X0039154Y0013991D02*
X0084846Y0013991D01*
X0084400Y0011993D02*
X0039600Y0011993D01*
X0039148Y0009994D02*
X0084852Y0009994D01*
X0086647Y0007996D02*
X0037353Y0007996D01*
X0026647Y0007996D02*
X0022217Y0007996D01*
X0022753Y0009994D02*
X0024852Y0009994D01*
X0024400Y0011993D02*
X0022905Y0011993D01*
X0022757Y0013991D02*
X0024846Y0013991D01*
X0026611Y0015990D02*
X0022221Y0015990D01*
X0021135Y0017988D02*
X0026665Y0017988D01*
X0024855Y0019987D02*
X0019436Y0019987D01*
X0016516Y0021985D02*
X0024400Y0021985D01*
X0018947Y0049964D02*
X0007000Y0049964D01*
X0007000Y0051963D02*
X0018400Y0051963D01*
X0018400Y0053961D02*
X0007000Y0053961D01*
X0007000Y0055960D02*
X0018400Y0055960D01*
X0018400Y0057958D02*
X0007000Y0057958D01*
X0007000Y0059957D02*
X0018400Y0059957D01*
X0018400Y0061955D02*
X0007000Y0061955D01*
X0007000Y0063954D02*
X0018400Y0063954D01*
X0018400Y0065952D02*
X0007000Y0065952D01*
X0007000Y0067951D02*
X0018400Y0067951D01*
X0018400Y0069949D02*
X0007000Y0069949D01*
X0007000Y0071948D02*
X0018400Y0071948D01*
X0018400Y0073946D02*
X0007000Y0073946D01*
X0007000Y0075945D02*
X0018400Y0075945D01*
X0018400Y0077943D02*
X0007000Y0077943D01*
X0007000Y0079942D02*
X0018400Y0079942D01*
X0018400Y0081940D02*
X0007000Y0081940D01*
X0007000Y0083939D02*
X0018400Y0083939D01*
X0018400Y0085937D02*
X0007000Y0085937D01*
X0037227Y0077943D02*
X0045818Y0077943D01*
X0045549Y0075945D02*
X0037496Y0075945D01*
X0039173Y0073946D02*
X0043260Y0073946D01*
X0042800Y0071948D02*
X0039600Y0071948D01*
X0039130Y0069949D02*
X0043303Y0069949D01*
X0045800Y0067951D02*
X0037245Y0067951D01*
X0037479Y0065952D02*
X0044625Y0065952D01*
X0044589Y0065934D02*
X0044003Y0065509D01*
X0043491Y0064997D01*
X0043066Y0064411D01*
X0042737Y0063766D01*
X0042513Y0063077D01*
X0042400Y0062362D01*
X0042400Y0062000D01*
X0047000Y0062000D01*
X0047000Y0062000D01*
X0047000Y0062000D01*
X0047000Y0066600D01*
X0046638Y0066600D01*
X0045923Y0066487D01*
X0045234Y0066263D01*
X0044589Y0065934D01*
X0047000Y0065952D02*
X0047000Y0065952D01*
X0047000Y0063954D02*
X0047000Y0063954D01*
X0047000Y0062000D02*
X0042400Y0062000D01*
X0042400Y0061638D01*
X0042513Y0060923D01*
X0042737Y0060234D01*
X0043066Y0059589D01*
X0043491Y0059003D01*
X0044003Y0058491D01*
X0044589Y0058066D01*
X0045234Y0057737D01*
X0045923Y0057513D01*
X0046638Y0057400D01*
X0047000Y0057400D01*
X0047000Y0062000D01*
X0047000Y0061955D02*
X0047000Y0061955D01*
X0047000Y0059957D02*
X0047000Y0059957D01*
X0047000Y0057958D02*
X0047000Y0057958D01*
X0049200Y0057958D02*
X0075782Y0057958D01*
X0073306Y0079942D02*
X0065600Y0079942D01*
X0065600Y0081940D02*
X0072800Y0081940D01*
X0073257Y0083939D02*
X0065600Y0083939D01*
X0065600Y0085937D02*
X0075531Y0085937D01*
X0075836Y0087936D02*
X0065600Y0087936D01*
X0065600Y0089934D02*
X0073309Y0089934D01*
X0072800Y0091933D02*
X0065600Y0091933D01*
X0065600Y0093932D02*
X0073254Y0093932D01*
X0073400Y0095930D02*
X0065600Y0095930D01*
X0065600Y0097929D02*
X0073400Y0097929D01*
X0073400Y0099927D02*
X0065600Y0099927D01*
X0065600Y0101926D02*
X0073400Y0101926D01*
X0073400Y0103924D02*
X0065600Y0103924D01*
X0065600Y0105923D02*
X0073400Y0105923D01*
X0073400Y0107921D02*
X0065600Y0107921D01*
X0065600Y0109920D02*
X0073400Y0109920D01*
X0073400Y0111918D02*
X0065600Y0111918D01*
X0065600Y0113917D02*
X0073400Y0113917D01*
X0073400Y0115915D02*
X0065600Y0115915D01*
X0066482Y0117914D02*
X0073400Y0117914D01*
X0073400Y0119912D02*
X0066568Y0119912D01*
X0066568Y0121911D02*
X0073400Y0121911D01*
X0073400Y0123909D02*
X0066568Y0123909D01*
X0066556Y0125908D02*
X0073400Y0125908D01*
X0073400Y0127906D02*
X0065523Y0127906D01*
X0080600Y0127906D02*
X0082993Y0127906D01*
X0082118Y0125908D02*
X0080600Y0125908D01*
X0080600Y0123909D02*
X0082031Y0123909D01*
X0082031Y0122000D02*
X0087000Y0122000D01*
X0091968Y0122000D01*
X0087000Y0122000D01*
X0087000Y0122000D01*
X0087000Y0114063D01*
X0087000Y0122000D01*
X0087000Y0122000D01*
X0087000Y0122000D01*
X0082031Y0122000D01*
X0082031Y0121911D02*
X0080600Y0121911D01*
X0080600Y0119912D02*
X0082031Y0119912D01*
X0082147Y0117914D02*
X0080600Y0117914D01*
X0080600Y0115915D02*
X0083123Y0115915D01*
X0080600Y0113917D02*
X0111921Y0113917D01*
X0111921Y0115915D02*
X0100344Y0115915D01*
X0101482Y0117914D02*
X0111921Y0117914D01*
X0111921Y0119912D02*
X0101568Y0119912D01*
X0101568Y0121911D02*
X0111921Y0121911D01*
X0111921Y0123909D02*
X0101568Y0123909D01*
X0101556Y0125908D02*
X0111921Y0125908D01*
X0111921Y0127906D02*
X0100600Y0127906D01*
X0100600Y0129905D02*
X0111921Y0129905D01*
X0111921Y0131903D02*
X0100600Y0131903D01*
X0100109Y0133902D02*
X0111921Y0133902D01*
X0093400Y0127906D02*
X0091007Y0127906D01*
X0091882Y0125908D02*
X0092444Y0125908D01*
X0092431Y0123909D02*
X0091968Y0123909D01*
X0091968Y0121911D02*
X0092431Y0121911D01*
X0092431Y0119912D02*
X0091968Y0119912D01*
X0091853Y0117914D02*
X0092518Y0117914D01*
X0093655Y0115915D02*
X0090877Y0115915D01*
X0087000Y0115915D02*
X0087000Y0115915D01*
X0087000Y0117914D02*
X0087000Y0117914D01*
X0087000Y0119912D02*
X0087000Y0119912D01*
X0087000Y0121911D02*
X0087000Y0121911D01*
X0080600Y0111918D02*
X0111921Y0111918D01*
X0111921Y0109920D02*
X0080600Y0109920D01*
X0080600Y0107921D02*
X0111921Y0107921D01*
X0100643Y0105923D02*
X0080600Y0105923D01*
X0080600Y0103924D02*
X0098501Y0103924D01*
X0097251Y0101926D02*
X0080600Y0101926D01*
X0080600Y0099927D02*
X0096494Y0099927D01*
X0096094Y0097929D02*
X0080600Y0097929D01*
X0080600Y0095930D02*
X0085903Y0095930D01*
X0084373Y0093932D02*
X0080746Y0093932D01*
X0081200Y0091933D02*
X0084000Y0091933D01*
X0084000Y0092000D02*
X0084000Y0091606D01*
X0084123Y0090829D01*
X0084366Y0090081D01*
X0084724Y0089379D01*
X0085186Y0088743D01*
X0085743Y0088186D01*
X0086379Y0087724D01*
X0087081Y0087366D01*
X0087829Y0087123D01*
X0088606Y0087000D01*
X0092000Y0087000D01*
X0092000Y0092000D01*
X0092000Y0092000D01*
X0092000Y0092000D01*
X0084000Y0092000D01*
X0084441Y0089934D02*
X0080690Y0089934D01*
X0078164Y0087936D02*
X0086087Y0087936D01*
X0086486Y0085937D02*
X0078469Y0085937D01*
X0080743Y0083939D02*
X0084824Y0083939D01*
X0084400Y0081940D02*
X0081200Y0081940D01*
X0080694Y0079942D02*
X0084873Y0079942D01*
X0092000Y0087936D02*
X0092000Y0087936D01*
X0092000Y0089934D02*
X0092000Y0089934D01*
X0092000Y0091933D02*
X0092000Y0091933D01*
X0092000Y0093932D02*
X0092000Y0093932D01*
X0092000Y0095930D02*
X0092000Y0095930D01*
X0097913Y0087936D02*
X0100888Y0087936D01*
X0097514Y0085937D02*
X0111921Y0085937D01*
X0111921Y0083939D02*
X0099176Y0083939D01*
X0099600Y0081940D02*
X0111921Y0081940D01*
X0111921Y0079942D02*
X0099127Y0079942D01*
X0097227Y0077943D02*
X0111921Y0077943D01*
X0111921Y0075945D02*
X0097496Y0075945D01*
X0099173Y0073946D02*
X0111921Y0073946D01*
X0111921Y0071948D02*
X0099600Y0071948D01*
X0099130Y0069949D02*
X0111921Y0069949D01*
X0111921Y0067951D02*
X0097245Y0067951D01*
X0097479Y0065952D02*
X0111921Y0065952D01*
X0111921Y0063954D02*
X0099170Y0063954D01*
X0099600Y0061955D02*
X0111921Y0061955D01*
X0111921Y0059957D02*
X0099133Y0059957D01*
X0097263Y0057958D02*
X0111921Y0057958D01*
X0111921Y0055960D02*
X0097461Y0055960D01*
X0099167Y0053961D02*
X0111921Y0053961D01*
X0111921Y0051963D02*
X0099600Y0051963D01*
X0099136Y0049964D02*
X0111921Y0049964D01*
X0111921Y0047966D02*
X0097281Y0047966D01*
X0097443Y0045967D02*
X0111921Y0045967D01*
X0111921Y0043969D02*
X0099164Y0043969D01*
X0099600Y0041970D02*
X0111921Y0041970D01*
X0111921Y0039972D02*
X0099139Y0039972D01*
X0097299Y0037973D02*
X0111921Y0037973D01*
X0111921Y0035975D02*
X0097425Y0035975D01*
X0099160Y0033976D02*
X0111921Y0033976D01*
X0111921Y0031978D02*
X0099600Y0031978D01*
X0099142Y0029979D02*
X0111921Y0029979D01*
X0111921Y0027981D02*
X0097317Y0027981D01*
X0097407Y0025982D02*
X0111921Y0025982D01*
X0111921Y0023984D02*
X0099157Y0023984D01*
X0099600Y0021985D02*
X0107484Y0021985D01*
X0104564Y0019987D02*
X0099145Y0019987D01*
X0097335Y0017988D02*
X0102865Y0017988D01*
X0101779Y0015990D02*
X0097389Y0015990D01*
X0099154Y0013991D02*
X0101243Y0013991D01*
X0101094Y0011993D02*
X0099600Y0011993D01*
X0099148Y0009994D02*
X0101247Y0009994D01*
X0101783Y0007996D02*
X0097353Y0007996D01*
X0044800Y0057958D02*
X0037263Y0057958D01*
X0039133Y0059957D02*
X0042878Y0059957D01*
X0042400Y0061955D02*
X0039600Y0061955D01*
X0039170Y0063954D02*
X0042833Y0063954D01*
M02*
