%
M48
M72
T01C0.03150
T02C0.03200
T03C0.03937
T04C0.04000
T05C0.11811
%
T01
X46333Y17000
X46333Y27000
X46333Y37000
X46333Y47000
X46333Y57000
X46333Y67000
X46333Y77000
X46333Y87000
X46333Y97000
X46333Y107000
X46333Y117000
X46333Y127000
X46333Y137000
X46333Y147000
X46333Y157000
X46333Y167000
X46333Y177000
X46333Y187000
X46333Y197000
X46333Y207000
X136333Y207000
X136333Y197000
X136333Y187000
X136333Y177000
X136333Y167000
X136333Y157000
X136333Y147000
X136333Y137000
X136333Y127000
X136333Y117000
X136333Y107000
X136333Y97000
X136333Y87000
X136333Y77000
X136333Y67000
X136333Y57000
X136333Y47000
X136333Y37000
X136333Y27000
X136333Y17000
T02
X151333Y142000
X171333Y142000
X171333Y202000
X151333Y202000
T03
X161333Y127000
X161333Y117000
X161333Y102000
X161333Y92000
X161333Y82000
X161333Y72000
X161333Y57000
X161333Y47000
X161333Y37000
X161333Y27000
X21333Y47000
X21333Y57000
X21333Y67000
X21333Y77000
X21333Y107000
X21333Y117000
X21333Y127000
X21333Y137000
T04
X156333Y162000
X156333Y172000
X156333Y182000
T05
X21333Y12000
X161333Y12000
X161333Y217000
X21333Y217000
M30
