G75*
%MOIN*%
%OFA0B0*%
%FSLAX25Y25*%
%IPPOS*%
%LPD*%
%AMOC8*
5,1,8,0,0,1.08239X$1,22.5*
%
%ADD10C,0.01000*%
%ADD11C,0.01200*%
%ADD12C,0.00600*%
%ADD13C,0.00500*%
%ADD14R,0.03000X0.42000*%
%ADD15R,0.02000X0.07500*%
%ADD16R,0.02000X0.03000*%
D10*
X0008833Y0042000D02*
X0016333Y0042000D01*
X0016333Y0082000D01*
X0033833Y0082000D01*
X0033833Y0042000D01*
X0016333Y0042000D01*
X0008833Y0042000D02*
X0008833Y0082000D01*
X0016333Y0082000D01*
X0016333Y0102000D02*
X0008833Y0102000D01*
X0008833Y0142000D01*
X0016333Y0142000D01*
X0016333Y0102000D01*
X0033833Y0102000D01*
X0033833Y0142000D01*
X0016333Y0142000D01*
X0148833Y0132000D02*
X0148833Y0112000D01*
X0166333Y0112000D01*
X0166333Y0132000D01*
X0173833Y0132000D01*
X0173833Y0112000D01*
X0166333Y0112000D01*
X0173833Y0107000D02*
X0173833Y0067000D01*
X0156333Y0067000D01*
X0156333Y0107000D01*
X0173833Y0107000D01*
X0156333Y0107000D02*
X0148833Y0107000D01*
X0148833Y0067000D01*
X0156333Y0067000D01*
X0148833Y0062000D02*
X0166333Y0062000D01*
X0166333Y0022000D01*
X0148833Y0022000D01*
X0148833Y0062000D01*
X0166333Y0062000D02*
X0173833Y0062000D01*
X0173833Y0022000D01*
X0166333Y0022000D01*
X0166333Y0132000D02*
X0148833Y0132000D01*
D11*
X0160133Y0139500D02*
X0160133Y0142000D01*
X0160133Y0144500D01*
X0162633Y0144500D02*
X0162633Y0142000D01*
X0162633Y0139500D01*
X0162633Y0199500D02*
X0162633Y0202000D01*
X0162633Y0204500D01*
X0160133Y0204500D02*
X0160133Y0202000D01*
X0160133Y0199500D01*
D12*
X0160133Y0202000D02*
X0155333Y0202000D01*
X0162633Y0202000D02*
X0167333Y0202000D01*
X0174833Y0197000D02*
X0174893Y0197002D01*
X0174954Y0197007D01*
X0175013Y0197016D01*
X0175072Y0197029D01*
X0175131Y0197045D01*
X0175188Y0197065D01*
X0175243Y0197088D01*
X0175298Y0197115D01*
X0175350Y0197144D01*
X0175401Y0197177D01*
X0175450Y0197213D01*
X0175496Y0197251D01*
X0175540Y0197293D01*
X0175582Y0197337D01*
X0175620Y0197383D01*
X0175656Y0197432D01*
X0175689Y0197483D01*
X0175718Y0197535D01*
X0175745Y0197590D01*
X0175768Y0197645D01*
X0175788Y0197702D01*
X0175804Y0197761D01*
X0175817Y0197820D01*
X0175826Y0197879D01*
X0175831Y0197940D01*
X0175833Y0198000D01*
X0175833Y0206000D01*
X0175831Y0206060D01*
X0175826Y0206121D01*
X0175817Y0206180D01*
X0175804Y0206239D01*
X0175788Y0206298D01*
X0175768Y0206355D01*
X0175745Y0206410D01*
X0175718Y0206465D01*
X0175689Y0206517D01*
X0175656Y0206568D01*
X0175620Y0206617D01*
X0175582Y0206663D01*
X0175540Y0206707D01*
X0175496Y0206749D01*
X0175450Y0206787D01*
X0175401Y0206823D01*
X0175350Y0206856D01*
X0175298Y0206885D01*
X0175243Y0206912D01*
X0175188Y0206935D01*
X0175131Y0206955D01*
X0175072Y0206971D01*
X0175013Y0206984D01*
X0174954Y0206993D01*
X0174893Y0206998D01*
X0174833Y0207000D01*
X0147833Y0207000D01*
X0147773Y0206998D01*
X0147712Y0206993D01*
X0147653Y0206984D01*
X0147594Y0206971D01*
X0147535Y0206955D01*
X0147478Y0206935D01*
X0147423Y0206912D01*
X0147368Y0206885D01*
X0147316Y0206856D01*
X0147265Y0206823D01*
X0147216Y0206787D01*
X0147170Y0206749D01*
X0147126Y0206707D01*
X0147084Y0206663D01*
X0147046Y0206617D01*
X0147010Y0206568D01*
X0146977Y0206517D01*
X0146948Y0206465D01*
X0146921Y0206410D01*
X0146898Y0206355D01*
X0146878Y0206298D01*
X0146862Y0206239D01*
X0146849Y0206180D01*
X0146840Y0206121D01*
X0146835Y0206060D01*
X0146833Y0206000D01*
X0146833Y0198000D01*
X0146835Y0197940D01*
X0146840Y0197879D01*
X0146849Y0197820D01*
X0146862Y0197761D01*
X0146878Y0197702D01*
X0146898Y0197645D01*
X0146921Y0197590D01*
X0146948Y0197535D01*
X0146977Y0197483D01*
X0147010Y0197432D01*
X0147046Y0197383D01*
X0147084Y0197337D01*
X0147126Y0197293D01*
X0147170Y0197251D01*
X0147216Y0197213D01*
X0147265Y0197177D01*
X0147316Y0197144D01*
X0147368Y0197115D01*
X0147423Y0197088D01*
X0147478Y0197065D01*
X0147535Y0197045D01*
X0147594Y0197029D01*
X0147653Y0197016D01*
X0147712Y0197007D01*
X0147773Y0197002D01*
X0147833Y0197000D01*
X0174833Y0197000D01*
X0174833Y0147000D02*
X0147833Y0147000D01*
X0147773Y0146998D01*
X0147712Y0146993D01*
X0147653Y0146984D01*
X0147594Y0146971D01*
X0147535Y0146955D01*
X0147478Y0146935D01*
X0147423Y0146912D01*
X0147368Y0146885D01*
X0147316Y0146856D01*
X0147265Y0146823D01*
X0147216Y0146787D01*
X0147170Y0146749D01*
X0147126Y0146707D01*
X0147084Y0146663D01*
X0147046Y0146617D01*
X0147010Y0146568D01*
X0146977Y0146517D01*
X0146948Y0146465D01*
X0146921Y0146410D01*
X0146898Y0146355D01*
X0146878Y0146298D01*
X0146862Y0146239D01*
X0146849Y0146180D01*
X0146840Y0146121D01*
X0146835Y0146060D01*
X0146833Y0146000D01*
X0146833Y0138000D01*
X0146835Y0137940D01*
X0146840Y0137879D01*
X0146849Y0137820D01*
X0146862Y0137761D01*
X0146878Y0137702D01*
X0146898Y0137645D01*
X0146921Y0137590D01*
X0146948Y0137535D01*
X0146977Y0137483D01*
X0147010Y0137432D01*
X0147046Y0137383D01*
X0147084Y0137337D01*
X0147126Y0137293D01*
X0147170Y0137251D01*
X0147216Y0137213D01*
X0147265Y0137177D01*
X0147316Y0137144D01*
X0147368Y0137115D01*
X0147423Y0137088D01*
X0147478Y0137065D01*
X0147535Y0137045D01*
X0147594Y0137029D01*
X0147653Y0137016D01*
X0147712Y0137007D01*
X0147773Y0137002D01*
X0147833Y0137000D01*
X0174833Y0137000D01*
X0174893Y0137002D01*
X0174954Y0137007D01*
X0175013Y0137016D01*
X0175072Y0137029D01*
X0175131Y0137045D01*
X0175188Y0137065D01*
X0175243Y0137088D01*
X0175298Y0137115D01*
X0175350Y0137144D01*
X0175401Y0137177D01*
X0175450Y0137213D01*
X0175496Y0137251D01*
X0175540Y0137293D01*
X0175582Y0137337D01*
X0175620Y0137383D01*
X0175656Y0137432D01*
X0175689Y0137483D01*
X0175718Y0137535D01*
X0175745Y0137590D01*
X0175768Y0137645D01*
X0175788Y0137702D01*
X0175804Y0137761D01*
X0175817Y0137820D01*
X0175826Y0137879D01*
X0175831Y0137940D01*
X0175833Y0138000D01*
X0175833Y0146000D01*
X0175831Y0146060D01*
X0175826Y0146121D01*
X0175817Y0146180D01*
X0175804Y0146239D01*
X0175788Y0146298D01*
X0175768Y0146355D01*
X0175745Y0146410D01*
X0175718Y0146465D01*
X0175689Y0146517D01*
X0175656Y0146568D01*
X0175620Y0146617D01*
X0175582Y0146663D01*
X0175540Y0146707D01*
X0175496Y0146749D01*
X0175450Y0146787D01*
X0175401Y0146823D01*
X0175350Y0146856D01*
X0175298Y0146885D01*
X0175243Y0146912D01*
X0175188Y0146935D01*
X0175131Y0146955D01*
X0175072Y0146971D01*
X0175013Y0146984D01*
X0174954Y0146993D01*
X0174893Y0146998D01*
X0174833Y0147000D01*
X0167333Y0142000D02*
X0162633Y0142000D01*
X0160133Y0142000D02*
X0155333Y0142000D01*
D13*
X0150833Y0152000D02*
X0162333Y0152500D01*
X0163333Y0153500D01*
X0163333Y0190500D01*
X0162333Y0191500D01*
X0150833Y0192000D01*
X0159933Y0154300D02*
X0159935Y0154363D01*
X0159941Y0154425D01*
X0159951Y0154487D01*
X0159964Y0154549D01*
X0159982Y0154609D01*
X0160003Y0154668D01*
X0160028Y0154726D01*
X0160057Y0154782D01*
X0160089Y0154836D01*
X0160124Y0154888D01*
X0160162Y0154937D01*
X0160204Y0154985D01*
X0160248Y0155029D01*
X0160296Y0155071D01*
X0160345Y0155109D01*
X0160397Y0155144D01*
X0160451Y0155176D01*
X0160507Y0155205D01*
X0160565Y0155230D01*
X0160624Y0155251D01*
X0160684Y0155269D01*
X0160746Y0155282D01*
X0160808Y0155292D01*
X0160870Y0155298D01*
X0160933Y0155300D01*
X0160996Y0155298D01*
X0161058Y0155292D01*
X0161120Y0155282D01*
X0161182Y0155269D01*
X0161242Y0155251D01*
X0161301Y0155230D01*
X0161359Y0155205D01*
X0161415Y0155176D01*
X0161469Y0155144D01*
X0161521Y0155109D01*
X0161570Y0155071D01*
X0161618Y0155029D01*
X0161662Y0154985D01*
X0161704Y0154937D01*
X0161742Y0154888D01*
X0161777Y0154836D01*
X0161809Y0154782D01*
X0161838Y0154726D01*
X0161863Y0154668D01*
X0161884Y0154609D01*
X0161902Y0154549D01*
X0161915Y0154487D01*
X0161925Y0154425D01*
X0161931Y0154363D01*
X0161933Y0154300D01*
X0161931Y0154237D01*
X0161925Y0154175D01*
X0161915Y0154113D01*
X0161902Y0154051D01*
X0161884Y0153991D01*
X0161863Y0153932D01*
X0161838Y0153874D01*
X0161809Y0153818D01*
X0161777Y0153764D01*
X0161742Y0153712D01*
X0161704Y0153663D01*
X0161662Y0153615D01*
X0161618Y0153571D01*
X0161570Y0153529D01*
X0161521Y0153491D01*
X0161469Y0153456D01*
X0161415Y0153424D01*
X0161359Y0153395D01*
X0161301Y0153370D01*
X0161242Y0153349D01*
X0161182Y0153331D01*
X0161120Y0153318D01*
X0161058Y0153308D01*
X0160996Y0153302D01*
X0160933Y0153300D01*
X0160870Y0153302D01*
X0160808Y0153308D01*
X0160746Y0153318D01*
X0160684Y0153331D01*
X0160624Y0153349D01*
X0160565Y0153370D01*
X0160507Y0153395D01*
X0160451Y0153424D01*
X0160397Y0153456D01*
X0160345Y0153491D01*
X0160296Y0153529D01*
X0160248Y0153571D01*
X0160204Y0153615D01*
X0160162Y0153663D01*
X0160124Y0153712D01*
X0160089Y0153764D01*
X0160057Y0153818D01*
X0160028Y0153874D01*
X0160003Y0153932D01*
X0159982Y0153991D01*
X0159964Y0154051D01*
X0159951Y0154113D01*
X0159941Y0154175D01*
X0159935Y0154237D01*
X0159933Y0154300D01*
D14*
X0147833Y0172000D03*
D15*
X0150333Y0154750D03*
X0150333Y0189250D03*
D16*
X0150333Y0177000D03*
X0150333Y0167000D03*
M02*
