G75*
%MOIN*%
%OFA0B0*%
%FSLAX25Y25*%
%IPPOS*%
%LPD*%
%AMOC8*
5,1,8,0,0,1.08239X$1,22.5*
%
%ADD10C,0.05937*%
%ADD11OC8,0.06300*%
%ADD12C,0.06000*%
%ADD13C,0.05150*%
%ADD14C,0.03200*%
%ADD15C,0.02000*%
D10*
X0018365Y0047000D02*
X0024302Y0047000D01*
X0024302Y0057000D02*
X0018365Y0057000D01*
X0018365Y0067000D02*
X0024302Y0067000D01*
X0024302Y0077000D02*
X0018365Y0077000D01*
X0018365Y0107000D02*
X0024302Y0107000D01*
X0024302Y0117000D02*
X0018365Y0117000D01*
X0018365Y0127000D02*
X0024302Y0127000D01*
X0024302Y0137000D02*
X0018365Y0137000D01*
X0158365Y0127000D02*
X0164302Y0127000D01*
X0164302Y0117000D02*
X0158365Y0117000D01*
X0158365Y0102000D02*
X0164302Y0102000D01*
X0164302Y0092000D02*
X0158365Y0092000D01*
X0158365Y0082000D02*
X0164302Y0082000D01*
X0164302Y0072000D02*
X0158365Y0072000D01*
X0158365Y0057000D02*
X0164302Y0057000D01*
X0164302Y0047000D02*
X0158365Y0047000D01*
X0158365Y0037000D02*
X0164302Y0037000D01*
X0164302Y0027000D02*
X0158365Y0027000D01*
D11*
X0151333Y0142000D03*
X0171333Y0142000D03*
X0171333Y0202000D03*
X0151333Y0202000D03*
D12*
X0153333Y0182000D02*
X0159333Y0182000D01*
X0159333Y0172000D02*
X0153333Y0172000D01*
X0153333Y0162000D02*
X0159333Y0162000D01*
D13*
X0136333Y0157000D03*
X0136333Y0147000D03*
X0136333Y0137000D03*
X0136333Y0127000D03*
X0136333Y0117000D03*
X0136333Y0107000D03*
X0136333Y0097000D03*
X0136333Y0087000D03*
X0136333Y0077000D03*
X0136333Y0067000D03*
X0136333Y0057000D03*
X0136333Y0047000D03*
X0136333Y0037000D03*
X0136333Y0027000D03*
X0136333Y0017000D03*
X0046333Y0017000D03*
X0046333Y0027000D03*
X0046333Y0037000D03*
X0046333Y0047000D03*
X0046333Y0057000D03*
X0046333Y0067000D03*
X0046333Y0077000D03*
X0046333Y0087000D03*
X0046333Y0097000D03*
X0046333Y0107000D03*
X0046333Y0117000D03*
X0046333Y0127000D03*
X0046333Y0137000D03*
X0046333Y0147000D03*
X0046333Y0157000D03*
X0046333Y0167000D03*
X0046333Y0177000D03*
X0046333Y0187000D03*
X0046333Y0197000D03*
X0046333Y0207000D03*
X0136333Y0207000D03*
X0136333Y0197000D03*
X0136333Y0187000D03*
X0136333Y0177000D03*
X0136333Y0167000D03*
D14*
X0151333Y0147000D02*
X0156333Y0152000D01*
X0156333Y0162000D01*
X0151333Y0147000D02*
X0151333Y0142000D01*
X0151333Y0117000D01*
X0161333Y0117000D01*
X0046333Y0117000D02*
X0021333Y0117000D01*
X0021333Y0107000D02*
X0016333Y0107000D01*
X0011933Y0102600D01*
X0011933Y0092000D01*
X0011933Y0051400D01*
X0016333Y0047000D01*
X0021333Y0047000D01*
X0021333Y0057000D02*
X0046333Y0057000D01*
X0046333Y0067000D02*
X0021333Y0067000D01*
X0021333Y0127000D02*
X0046333Y0127000D01*
D15*
X0011333Y0047475D02*
X0011333Y0016490D01*
X0012607Y0018696D01*
X0014637Y0020727D01*
X0017124Y0022162D01*
X0019898Y0022905D01*
X0022769Y0022905D01*
X0025543Y0022162D01*
X0028029Y0020727D01*
X0030060Y0018696D01*
X0031496Y0016209D01*
X0032239Y0013436D01*
X0032239Y0010564D01*
X0031496Y0007791D01*
X0031039Y0007000D01*
X0151627Y0007000D01*
X0151171Y0007791D01*
X0150428Y0010564D01*
X0150428Y0013436D01*
X0151171Y0016209D01*
X0152607Y0018696D01*
X0154637Y0020727D01*
X0157124Y0022162D01*
X0157152Y0022170D01*
X0156458Y0022396D01*
X0155761Y0022751D01*
X0155128Y0023210D01*
X0154575Y0023763D01*
X0154115Y0024396D01*
X0153760Y0025093D01*
X0153519Y0025837D01*
X0153396Y0026609D01*
X0153396Y0027000D01*
X0161333Y0027000D01*
X0161333Y0027000D01*
X0153396Y0027000D01*
X0153396Y0027391D01*
X0153519Y0028163D01*
X0153760Y0028907D01*
X0154115Y0029604D01*
X0154575Y0030237D01*
X0155128Y0030790D01*
X0155761Y0031249D01*
X0156458Y0031604D01*
X0157201Y0031846D01*
X0157974Y0031968D01*
X0161333Y0031968D01*
X0161333Y0027000D01*
X0161333Y0027000D01*
X0161333Y0031968D01*
X0164693Y0031968D01*
X0165465Y0031846D01*
X0166209Y0031604D01*
X0166906Y0031249D01*
X0167539Y0030790D01*
X0168092Y0030237D01*
X0168551Y0029604D01*
X0168906Y0028907D01*
X0169148Y0028163D01*
X0169270Y0027391D01*
X0169270Y0027000D01*
X0161333Y0027000D01*
X0161333Y0027000D01*
X0169270Y0027000D01*
X0169270Y0026609D01*
X0169148Y0025837D01*
X0168906Y0025093D01*
X0168551Y0024396D01*
X0168092Y0023763D01*
X0167539Y0023210D01*
X0166906Y0022751D01*
X0166209Y0022396D01*
X0165515Y0022170D01*
X0165543Y0022162D01*
X0168029Y0020727D01*
X0170060Y0018696D01*
X0171496Y0016209D01*
X0172239Y0013436D01*
X0172239Y0010564D01*
X0171496Y0007791D01*
X0171039Y0007000D01*
X0175034Y0007000D01*
X0175034Y0138418D01*
X0173467Y0136850D01*
X0171333Y0136850D01*
X0171333Y0142000D01*
X0171333Y0142000D01*
X0166183Y0142000D01*
X0166183Y0139867D01*
X0169200Y0136850D01*
X0171333Y0136850D01*
X0171333Y0142000D01*
X0166183Y0142000D01*
X0166183Y0144133D01*
X0169200Y0147150D01*
X0171333Y0147150D01*
X0171333Y0142000D01*
X0171333Y0142000D01*
X0171333Y0142000D01*
X0171333Y0147150D01*
X0173467Y0147150D01*
X0175034Y0145582D01*
X0175034Y0198418D01*
X0173467Y0196850D01*
X0171333Y0196850D01*
X0171333Y0202000D01*
X0171333Y0202000D01*
X0166183Y0202000D01*
X0166183Y0199867D01*
X0169200Y0196850D01*
X0171333Y0196850D01*
X0171333Y0202000D01*
X0166183Y0202000D01*
X0166183Y0204133D01*
X0169200Y0207150D01*
X0171333Y0207150D01*
X0171333Y0202000D01*
X0171333Y0202000D01*
X0171333Y0202000D01*
X0171333Y0207150D01*
X0173467Y0207150D01*
X0175034Y0205582D01*
X0175034Y0221961D01*
X0171062Y0221961D01*
X0171496Y0221209D01*
X0172239Y0218436D01*
X0172239Y0215564D01*
X0171496Y0212791D01*
X0170060Y0210304D01*
X0168029Y0208273D01*
X0165543Y0206838D01*
X0162769Y0206094D01*
X0159898Y0206094D01*
X0157124Y0206838D01*
X0154637Y0208273D01*
X0152607Y0210304D01*
X0151171Y0212791D01*
X0150428Y0215564D01*
X0150428Y0218436D01*
X0151171Y0221209D01*
X0151605Y0221961D01*
X0031062Y0221961D01*
X0031496Y0221209D01*
X0032239Y0218436D01*
X0032239Y0215564D01*
X0031496Y0212791D01*
X0030060Y0210304D01*
X0028029Y0208273D01*
X0025543Y0206838D01*
X0022769Y0206094D01*
X0019898Y0206094D01*
X0017124Y0206838D01*
X0014637Y0208273D01*
X0012607Y0210304D01*
X0011333Y0212510D01*
X0011333Y0106525D01*
X0013620Y0108813D01*
X0014521Y0109713D01*
X0014685Y0109781D01*
X0015777Y0110873D01*
X0017456Y0111568D01*
X0025211Y0111568D01*
X0026890Y0110873D01*
X0028175Y0109588D01*
X0028870Y0107909D01*
X0028870Y0106091D01*
X0028175Y0104412D01*
X0026890Y0103127D01*
X0025211Y0102431D01*
X0017456Y0102431D01*
X0016632Y0102773D01*
X0015133Y0101275D01*
X0015133Y0094600D01*
X0042829Y0094600D01*
X0042794Y0094635D01*
X0042159Y0096170D01*
X0042159Y0097830D01*
X0042794Y0099365D01*
X0043968Y0100539D01*
X0045503Y0101175D01*
X0047164Y0101175D01*
X0048698Y0100539D01*
X0049873Y0099365D01*
X0050508Y0097830D01*
X0050508Y0096170D01*
X0049873Y0094635D01*
X0049837Y0094600D01*
X0088733Y0094600D01*
X0088733Y0202517D01*
X0089129Y0203473D01*
X0089861Y0204204D01*
X0090816Y0204600D01*
X0132829Y0204600D01*
X0132794Y0204635D01*
X0132159Y0206170D01*
X0132159Y0207830D01*
X0132794Y0209365D01*
X0133968Y0210539D01*
X0135503Y0211175D01*
X0137164Y0211175D01*
X0138698Y0210539D01*
X0139873Y0209365D01*
X0140508Y0207830D01*
X0140508Y0206170D01*
X0139873Y0204635D01*
X0139837Y0204600D01*
X0147216Y0204600D01*
X0149366Y0206750D01*
X0153301Y0206750D01*
X0156083Y0203968D01*
X0156083Y0200927D01*
X0157806Y0199204D01*
X0158537Y0198473D01*
X0158933Y0197517D01*
X0158933Y0186600D01*
X0160248Y0186600D01*
X0161939Y0185900D01*
X0163233Y0184606D01*
X0163933Y0182915D01*
X0163933Y0181085D01*
X0163233Y0179394D01*
X0161939Y0178100D01*
X0160248Y0177400D01*
X0152418Y0177400D01*
X0150728Y0178100D01*
X0149434Y0179394D01*
X0148733Y0181085D01*
X0148733Y0182915D01*
X0149434Y0184606D01*
X0150728Y0185900D01*
X0152418Y0186600D01*
X0153733Y0186600D01*
X0153733Y0195923D01*
X0152406Y0197250D01*
X0149366Y0197250D01*
X0147216Y0199400D01*
X0139837Y0199400D01*
X0139873Y0199365D01*
X0140508Y0197830D01*
X0140508Y0196170D01*
X0139873Y0194635D01*
X0138698Y0193461D01*
X0137164Y0192825D01*
X0135503Y0192825D01*
X0133968Y0193461D01*
X0132794Y0194635D01*
X0132159Y0196170D01*
X0132159Y0197830D01*
X0132794Y0199365D01*
X0132829Y0199400D01*
X0093933Y0199400D01*
X0093933Y0074600D01*
X0132829Y0074600D01*
X0132794Y0074635D01*
X0132159Y0076170D01*
X0132159Y0077830D01*
X0132794Y0079365D01*
X0133968Y0080539D01*
X0135503Y0081175D01*
X0137164Y0081175D01*
X0138698Y0080539D01*
X0139637Y0079600D01*
X0145256Y0079600D01*
X0149861Y0084204D01*
X0150816Y0084600D01*
X0154504Y0084600D01*
X0155777Y0085873D01*
X0157456Y0086568D01*
X0165211Y0086568D01*
X0166890Y0085873D01*
X0168175Y0084588D01*
X0168870Y0082909D01*
X0168870Y0081091D01*
X0168175Y0079412D01*
X0166890Y0078127D01*
X0165211Y0077431D01*
X0157456Y0077431D01*
X0155777Y0078127D01*
X0154504Y0079400D01*
X0152410Y0079400D01*
X0148537Y0075527D01*
X0147806Y0074796D01*
X0147333Y0074600D01*
X0154504Y0074600D01*
X0155777Y0075873D01*
X0157456Y0076568D01*
X0165211Y0076568D01*
X0166890Y0075873D01*
X0168175Y0074588D01*
X0168870Y0072909D01*
X0168870Y0071091D01*
X0168175Y0069412D01*
X0166890Y0068127D01*
X0165211Y0067431D01*
X0163933Y0067431D01*
X0163933Y0061568D01*
X0165211Y0061568D01*
X0166890Y0060873D01*
X0168175Y0059588D01*
X0168870Y0057909D01*
X0168870Y0056091D01*
X0168175Y0054412D01*
X0166890Y0053127D01*
X0165211Y0052431D01*
X0157456Y0052431D01*
X0155777Y0053127D01*
X0154492Y0054412D01*
X0153796Y0056091D01*
X0153796Y0057909D01*
X0154492Y0059588D01*
X0155777Y0060873D01*
X0157456Y0061568D01*
X0158733Y0061568D01*
X0158733Y0067431D01*
X0157456Y0067431D01*
X0155777Y0068127D01*
X0154504Y0069400D01*
X0139837Y0069400D01*
X0139873Y0069365D01*
X0140508Y0067830D01*
X0140508Y0066502D01*
X0156032Y0050979D01*
X0157456Y0051568D01*
X0165211Y0051568D01*
X0166890Y0050873D01*
X0168175Y0049588D01*
X0168870Y0047909D01*
X0168870Y0046091D01*
X0168175Y0044412D01*
X0166890Y0043127D01*
X0165211Y0042431D01*
X0157456Y0042431D01*
X0155777Y0043127D01*
X0154492Y0044412D01*
X0153960Y0045697D01*
X0136831Y0062825D01*
X0135503Y0062825D01*
X0133968Y0063461D01*
X0132794Y0064635D01*
X0132159Y0066170D01*
X0132159Y0067830D01*
X0132794Y0069365D01*
X0132829Y0069400D01*
X0090816Y0069400D01*
X0089861Y0069796D01*
X0089129Y0070527D01*
X0088733Y0071483D01*
X0088733Y0089400D01*
X0049837Y0089400D01*
X0049873Y0089365D01*
X0050508Y0087830D01*
X0050508Y0086170D01*
X0049873Y0084635D01*
X0048698Y0083461D01*
X0047164Y0082825D01*
X0045503Y0082825D01*
X0043968Y0083461D01*
X0042794Y0084635D01*
X0042159Y0086170D01*
X0042159Y0087830D01*
X0042794Y0089365D01*
X0042829Y0089400D01*
X0015133Y0089400D01*
X0015133Y0080794D01*
X0015761Y0081249D01*
X0016458Y0081604D01*
X0017201Y0081846D01*
X0017974Y0081968D01*
X0021333Y0081968D01*
X0021333Y0077000D01*
X0021333Y0077000D01*
X0021333Y0077000D01*
X0021333Y0072031D01*
X0017974Y0072031D01*
X0017201Y0072154D01*
X0016458Y0072396D01*
X0015761Y0072751D01*
X0015133Y0073206D01*
X0015133Y0070229D01*
X0015777Y0070873D01*
X0017456Y0071568D01*
X0025211Y0071568D01*
X0026890Y0070873D01*
X0027563Y0070200D01*
X0043629Y0070200D01*
X0043968Y0070539D01*
X0045503Y0071175D01*
X0047164Y0071175D01*
X0048698Y0070539D01*
X0049873Y0069365D01*
X0050508Y0067830D01*
X0050508Y0066170D01*
X0049873Y0064635D01*
X0048698Y0063461D01*
X0047164Y0062825D01*
X0045503Y0062825D01*
X0043968Y0063461D01*
X0043629Y0063800D01*
X0027563Y0063800D01*
X0026890Y0063127D01*
X0025211Y0062431D01*
X0017456Y0062431D01*
X0015777Y0063127D01*
X0015133Y0063771D01*
X0015133Y0060229D01*
X0015777Y0060873D01*
X0017456Y0061568D01*
X0025211Y0061568D01*
X0026890Y0060873D01*
X0027563Y0060200D01*
X0043629Y0060200D01*
X0043968Y0060539D01*
X0045503Y0061175D01*
X0047164Y0061175D01*
X0048698Y0060539D01*
X0049873Y0059365D01*
X0050508Y0057830D01*
X0050508Y0056170D01*
X0049873Y0054635D01*
X0048698Y0053461D01*
X0047164Y0052825D01*
X0045503Y0052825D01*
X0043968Y0053461D01*
X0043629Y0053800D01*
X0027563Y0053800D01*
X0026890Y0053127D01*
X0025211Y0052431D01*
X0017456Y0052431D01*
X0015777Y0053127D01*
X0015133Y0053771D01*
X0015133Y0052725D01*
X0016632Y0051227D01*
X0017456Y0051568D01*
X0025211Y0051568D01*
X0026890Y0050873D01*
X0028175Y0049588D01*
X0028870Y0047909D01*
X0028870Y0046091D01*
X0028175Y0044412D01*
X0026890Y0043127D01*
X0025211Y0042431D01*
X0017456Y0042431D01*
X0015777Y0043127D01*
X0014685Y0044219D01*
X0014521Y0044287D01*
X0011333Y0047475D01*
X0011333Y0045967D02*
X0012841Y0045967D01*
X0011333Y0043969D02*
X0014935Y0043969D01*
X0011333Y0041970D02*
X0147686Y0041970D01*
X0149685Y0039972D02*
X0139266Y0039972D01*
X0138698Y0040539D02*
X0137164Y0041175D01*
X0135503Y0041175D01*
X0133968Y0040539D01*
X0132794Y0039365D01*
X0132159Y0037830D01*
X0132159Y0036170D01*
X0132794Y0034635D01*
X0133968Y0033461D01*
X0135503Y0032825D01*
X0137164Y0032825D01*
X0138698Y0033461D01*
X0139873Y0034635D01*
X0140508Y0036170D01*
X0140508Y0037830D01*
X0139873Y0039365D01*
X0138698Y0040539D01*
X0137164Y0042825D02*
X0138698Y0043461D01*
X0139873Y0044635D01*
X0140508Y0046170D01*
X0140508Y0047830D01*
X0139873Y0049365D01*
X0138698Y0050539D01*
X0137164Y0051175D01*
X0135503Y0051175D01*
X0133968Y0050539D01*
X0132794Y0049365D01*
X0132159Y0047830D01*
X0132159Y0046170D01*
X0132794Y0044635D01*
X0133968Y0043461D01*
X0135503Y0042825D01*
X0137164Y0042825D01*
X0139206Y0043969D02*
X0145688Y0043969D01*
X0149045Y0047966D02*
X0151691Y0047966D01*
X0151043Y0045967D02*
X0153689Y0045967D01*
X0153042Y0043969D02*
X0154935Y0043969D01*
X0155040Y0041970D02*
X0175034Y0041970D01*
X0175034Y0039972D02*
X0167791Y0039972D01*
X0168175Y0039588D02*
X0166890Y0040873D01*
X0165211Y0041568D01*
X0157456Y0041568D01*
X0156032Y0040979D01*
X0140508Y0056502D01*
X0140508Y0057830D01*
X0139873Y0059365D01*
X0138698Y0060539D01*
X0137164Y0061175D01*
X0135503Y0061175D01*
X0133968Y0060539D01*
X0132794Y0059365D01*
X0132159Y0057830D01*
X0132159Y0056170D01*
X0132794Y0054635D01*
X0133968Y0053461D01*
X0135503Y0052825D01*
X0136831Y0052825D01*
X0153960Y0035697D01*
X0154492Y0034412D01*
X0155777Y0033127D01*
X0157456Y0032431D01*
X0165211Y0032431D01*
X0166890Y0033127D01*
X0168175Y0034412D01*
X0168870Y0036091D01*
X0168870Y0037909D01*
X0168175Y0039588D01*
X0168844Y0037973D02*
X0175034Y0037973D01*
X0175034Y0035975D02*
X0168822Y0035975D01*
X0167739Y0033976D02*
X0175034Y0033976D01*
X0175034Y0031978D02*
X0011333Y0031978D01*
X0011333Y0033976D02*
X0043453Y0033976D01*
X0043968Y0033461D02*
X0045503Y0032825D01*
X0047164Y0032825D01*
X0048698Y0033461D01*
X0049873Y0034635D01*
X0050508Y0036170D01*
X0050508Y0037830D01*
X0049873Y0039365D01*
X0048698Y0040539D01*
X0047164Y0041175D01*
X0045503Y0041175D01*
X0043968Y0040539D01*
X0042794Y0039365D01*
X0042159Y0037830D01*
X0042159Y0036170D01*
X0042794Y0034635D01*
X0043968Y0033461D01*
X0045503Y0031175D02*
X0043968Y0030539D01*
X0042794Y0029365D01*
X0042159Y0027830D01*
X0042159Y0026170D01*
X0042794Y0024635D01*
X0043968Y0023461D01*
X0045503Y0022825D01*
X0047164Y0022825D01*
X0048698Y0023461D01*
X0049873Y0024635D01*
X0050508Y0026170D01*
X0050508Y0027830D01*
X0049873Y0029365D01*
X0048698Y0030539D01*
X0047164Y0031175D01*
X0045503Y0031175D01*
X0043408Y0029979D02*
X0011333Y0029979D01*
X0011333Y0027981D02*
X0042221Y0027981D01*
X0042236Y0025982D02*
X0011333Y0025982D01*
X0011333Y0023984D02*
X0043446Y0023984D01*
X0045503Y0021175D02*
X0043968Y0020539D01*
X0042794Y0019365D01*
X0042159Y0017830D01*
X0042159Y0016170D01*
X0042794Y0014635D01*
X0043968Y0013461D01*
X0045503Y0012825D01*
X0047164Y0012825D01*
X0048698Y0013461D01*
X0049873Y0014635D01*
X0050508Y0016170D01*
X0050508Y0017830D01*
X0049873Y0019365D01*
X0048698Y0020539D01*
X0047164Y0021175D01*
X0045503Y0021175D01*
X0043416Y0019987D02*
X0028769Y0019987D01*
X0030469Y0017988D02*
X0042224Y0017988D01*
X0042233Y0015990D02*
X0031555Y0015990D01*
X0032090Y0013991D02*
X0043438Y0013991D01*
X0049228Y0013991D02*
X0133438Y0013991D01*
X0133968Y0013461D02*
X0132794Y0014635D01*
X0132159Y0016170D01*
X0132159Y0017830D01*
X0132794Y0019365D01*
X0133968Y0020539D01*
X0135503Y0021175D01*
X0137164Y0021175D01*
X0138698Y0020539D01*
X0139873Y0019365D01*
X0140508Y0017830D01*
X0140508Y0016170D01*
X0139873Y0014635D01*
X0138698Y0013461D01*
X0137164Y0012825D01*
X0135503Y0012825D01*
X0133968Y0013461D01*
X0132233Y0015990D02*
X0050434Y0015990D01*
X0050443Y0017988D02*
X0132224Y0017988D01*
X0133416Y0019987D02*
X0049251Y0019987D01*
X0049221Y0023984D02*
X0133446Y0023984D01*
X0133968Y0023461D02*
X0135503Y0022825D01*
X0137164Y0022825D01*
X0138698Y0023461D01*
X0139873Y0024635D01*
X0140508Y0026170D01*
X0140508Y0027830D01*
X0139873Y0029365D01*
X0138698Y0030539D01*
X0137164Y0031175D01*
X0135503Y0031175D01*
X0133968Y0030539D01*
X0132794Y0029365D01*
X0132159Y0027830D01*
X0132159Y0026170D01*
X0132794Y0024635D01*
X0133968Y0023461D01*
X0132236Y0025982D02*
X0050430Y0025982D01*
X0050446Y0027981D02*
X0132221Y0027981D01*
X0133408Y0029979D02*
X0049258Y0029979D01*
X0049214Y0033976D02*
X0133453Y0033976D01*
X0132239Y0035975D02*
X0050427Y0035975D01*
X0050449Y0037973D02*
X0132218Y0037973D01*
X0133401Y0039972D02*
X0049266Y0039972D01*
X0048698Y0043461D02*
X0047164Y0042825D01*
X0045503Y0042825D01*
X0043968Y0043461D01*
X0042794Y0044635D01*
X0042159Y0046170D01*
X0042159Y0047830D01*
X0042794Y0049365D01*
X0043968Y0050539D01*
X0045503Y0051175D01*
X0047164Y0051175D01*
X0048698Y0050539D01*
X0049873Y0049365D01*
X0050508Y0047830D01*
X0050508Y0046170D01*
X0049873Y0044635D01*
X0048698Y0043461D01*
X0049206Y0043969D02*
X0133461Y0043969D01*
X0132242Y0045967D02*
X0050424Y0045967D01*
X0050452Y0047966D02*
X0132215Y0047966D01*
X0133394Y0049964D02*
X0049273Y0049964D01*
X0049199Y0053961D02*
X0133468Y0053961D01*
X0132245Y0055960D02*
X0050421Y0055960D01*
X0050455Y0057958D02*
X0132212Y0057958D01*
X0133386Y0059957D02*
X0049281Y0059957D01*
X0049191Y0063954D02*
X0133475Y0063954D01*
X0132248Y0065952D02*
X0050418Y0065952D01*
X0050458Y0067951D02*
X0132208Y0067951D01*
X0136333Y0067000D02*
X0156333Y0047000D01*
X0161333Y0047000D01*
X0167731Y0043969D02*
X0175034Y0043969D01*
X0175034Y0045967D02*
X0168819Y0045967D01*
X0168847Y0047966D02*
X0175034Y0047966D01*
X0175034Y0049964D02*
X0167798Y0049964D01*
X0167724Y0053961D02*
X0175034Y0053961D01*
X0175034Y0051963D02*
X0155047Y0051963D01*
X0154943Y0053961D02*
X0153049Y0053961D01*
X0153851Y0055960D02*
X0151050Y0055960D01*
X0149052Y0057958D02*
X0153817Y0057958D01*
X0154861Y0059957D02*
X0147053Y0059957D01*
X0145055Y0061955D02*
X0158733Y0061955D01*
X0158733Y0063954D02*
X0143056Y0063954D01*
X0141058Y0065952D02*
X0158733Y0065952D01*
X0156202Y0067951D02*
X0140458Y0067951D01*
X0137701Y0061955D02*
X0015133Y0061955D01*
X0015896Y0051963D02*
X0137694Y0051963D01*
X0139273Y0049964D02*
X0139692Y0049964D01*
X0140452Y0047966D02*
X0141691Y0047966D01*
X0140424Y0045967D02*
X0143689Y0045967D01*
X0147046Y0049964D02*
X0149692Y0049964D01*
X0147694Y0051963D02*
X0145047Y0051963D01*
X0145695Y0053961D02*
X0143049Y0053961D01*
X0143697Y0055960D02*
X0141050Y0055960D01*
X0140455Y0057958D02*
X0141698Y0057958D01*
X0139700Y0059957D02*
X0139281Y0059957D01*
X0136333Y0057000D02*
X0156333Y0037000D01*
X0161333Y0037000D01*
X0161333Y0029979D02*
X0161333Y0029979D01*
X0161333Y0027981D02*
X0161333Y0027981D01*
X0156817Y0021985D02*
X0025850Y0021985D01*
X0032239Y0011993D02*
X0150428Y0011993D01*
X0150577Y0013991D02*
X0139228Y0013991D01*
X0140434Y0015990D02*
X0151112Y0015990D01*
X0152198Y0017988D02*
X0140443Y0017988D01*
X0139251Y0019987D02*
X0153897Y0019987D01*
X0154415Y0023984D02*
X0139221Y0023984D01*
X0140430Y0025982D02*
X0153496Y0025982D01*
X0153490Y0027981D02*
X0140446Y0027981D01*
X0139258Y0029979D02*
X0154388Y0029979D01*
X0154928Y0033976D02*
X0139214Y0033976D01*
X0140427Y0035975D02*
X0153682Y0035975D01*
X0151683Y0037973D02*
X0140449Y0037973D01*
X0161333Y0057000D02*
X0161333Y0072000D01*
X0091333Y0072000D01*
X0091333Y0092000D01*
X0091333Y0202000D01*
X0151333Y0202000D01*
X0156333Y0197000D01*
X0156333Y0182000D01*
X0156333Y0177000D02*
X0152940Y0177000D01*
X0152162Y0176877D01*
X0151414Y0176634D01*
X0150713Y0176276D01*
X0150076Y0175814D01*
X0149520Y0175257D01*
X0149057Y0174621D01*
X0148700Y0173919D01*
X0148456Y0173171D01*
X0148333Y0172394D01*
X0148333Y0172000D01*
X0156333Y0172000D01*
X0156333Y0172000D01*
X0148333Y0172000D01*
X0148333Y0171606D01*
X0148456Y0170829D01*
X0148700Y0170081D01*
X0149057Y0169379D01*
X0149520Y0168743D01*
X0150076Y0168186D01*
X0150713Y0167724D01*
X0151414Y0167366D01*
X0152162Y0167123D01*
X0152940Y0167000D01*
X0156333Y0167000D01*
X0156333Y0172000D01*
X0156333Y0177000D01*
X0156333Y0172000D01*
X0156333Y0172000D01*
X0156333Y0172000D01*
X0156333Y0167000D01*
X0159727Y0167000D01*
X0160504Y0167123D01*
X0161253Y0167366D01*
X0161954Y0167724D01*
X0162591Y0168186D01*
X0163147Y0168743D01*
X0163610Y0169379D01*
X0163967Y0170081D01*
X0164210Y0170829D01*
X0164333Y0171606D01*
X0164333Y0172000D01*
X0164333Y0172394D01*
X0164210Y0173171D01*
X0163967Y0173919D01*
X0163610Y0174621D01*
X0163147Y0175257D01*
X0162591Y0175814D01*
X0161954Y0176276D01*
X0161253Y0176634D01*
X0160504Y0176877D01*
X0159727Y0177000D01*
X0156333Y0177000D01*
X0156333Y0175870D02*
X0156333Y0175870D01*
X0156333Y0173872D02*
X0156333Y0173872D01*
X0156333Y0172000D02*
X0164333Y0172000D01*
X0156333Y0172000D01*
X0156333Y0172000D01*
X0156333Y0171873D02*
X0156333Y0171873D01*
X0156333Y0169875D02*
X0156333Y0169875D01*
X0156333Y0167876D02*
X0156333Y0167876D01*
X0152418Y0166600D02*
X0150728Y0165900D01*
X0149434Y0164606D01*
X0148733Y0162915D01*
X0148733Y0161085D01*
X0149434Y0159394D01*
X0150728Y0158100D01*
X0152418Y0157400D01*
X0153133Y0157400D01*
X0153133Y0153325D01*
X0148620Y0148813D01*
X0148133Y0147637D01*
X0148133Y0145518D01*
X0146583Y0143968D01*
X0146583Y0140032D01*
X0148133Y0138482D01*
X0148133Y0116363D01*
X0148620Y0115187D01*
X0149521Y0114287D01*
X0150697Y0113800D01*
X0155104Y0113800D01*
X0155777Y0113127D01*
X0157456Y0112431D01*
X0165211Y0112431D01*
X0166890Y0113127D01*
X0168175Y0114412D01*
X0168870Y0116091D01*
X0168870Y0117909D01*
X0168175Y0119588D01*
X0166890Y0120873D01*
X0165211Y0121568D01*
X0157456Y0121568D01*
X0155777Y0120873D01*
X0155104Y0120200D01*
X0154533Y0120200D01*
X0154533Y0123821D01*
X0154575Y0123763D01*
X0155128Y0123210D01*
X0155761Y0122751D01*
X0156458Y0122396D01*
X0157201Y0122154D01*
X0157974Y0122031D01*
X0161333Y0122031D01*
X0161333Y0127000D01*
X0161333Y0131968D01*
X0157974Y0131968D01*
X0157201Y0131846D01*
X0156458Y0131604D01*
X0155761Y0131249D01*
X0155128Y0130790D01*
X0154575Y0130237D01*
X0154533Y0130179D01*
X0154533Y0138482D01*
X0156083Y0140032D01*
X0156083Y0143968D01*
X0154533Y0145518D01*
X0154533Y0145675D01*
X0158146Y0149287D01*
X0159046Y0150187D01*
X0159533Y0151363D01*
X0159533Y0157400D01*
X0160248Y0157400D01*
X0161939Y0158100D01*
X0163233Y0159394D01*
X0163933Y0161085D01*
X0163933Y0162915D01*
X0163233Y0164606D01*
X0161939Y0165900D01*
X0160248Y0166600D01*
X0152418Y0166600D01*
X0150706Y0165878D02*
X0140387Y0165878D01*
X0140508Y0166170D02*
X0139873Y0164635D01*
X0138698Y0163461D01*
X0137164Y0162825D01*
X0135503Y0162825D01*
X0133968Y0163461D01*
X0132794Y0164635D01*
X0132159Y0166170D01*
X0132159Y0167830D01*
X0132794Y0169365D01*
X0133968Y0170539D01*
X0135503Y0171175D01*
X0137164Y0171175D01*
X0138698Y0170539D01*
X0139873Y0169365D01*
X0140508Y0167830D01*
X0140508Y0166170D01*
X0140489Y0167876D02*
X0150502Y0167876D01*
X0148804Y0169875D02*
X0139362Y0169875D01*
X0138698Y0173461D02*
X0137164Y0172825D01*
X0135503Y0172825D01*
X0133968Y0173461D01*
X0132794Y0174635D01*
X0132159Y0176170D01*
X0132159Y0177830D01*
X0132794Y0179365D01*
X0133968Y0180539D01*
X0135503Y0181175D01*
X0137164Y0181175D01*
X0138698Y0180539D01*
X0139873Y0179365D01*
X0140508Y0177830D01*
X0140508Y0176170D01*
X0139873Y0174635D01*
X0138698Y0173461D01*
X0139109Y0173872D02*
X0148684Y0173872D01*
X0148333Y0171873D02*
X0093933Y0171873D01*
X0093933Y0169875D02*
X0133304Y0169875D01*
X0132178Y0167876D02*
X0093933Y0167876D01*
X0093933Y0165878D02*
X0132279Y0165878D01*
X0133550Y0163879D02*
X0093933Y0163879D01*
X0093933Y0161881D02*
X0148733Y0161881D01*
X0149133Y0163879D02*
X0139117Y0163879D01*
X0137164Y0161175D02*
X0135503Y0161175D01*
X0133968Y0160539D01*
X0132794Y0159365D01*
X0132159Y0157830D01*
X0132159Y0156170D01*
X0132794Y0154635D01*
X0133968Y0153461D01*
X0135503Y0152825D01*
X0137164Y0152825D01*
X0138698Y0153461D01*
X0139873Y0154635D01*
X0140508Y0156170D01*
X0140508Y0157830D01*
X0139873Y0159365D01*
X0138698Y0160539D01*
X0137164Y0161175D01*
X0139355Y0159882D02*
X0149231Y0159882D01*
X0151250Y0157884D02*
X0140486Y0157884D01*
X0140390Y0155885D02*
X0153133Y0155885D01*
X0153133Y0153887D02*
X0139124Y0153887D01*
X0137164Y0151175D02*
X0135503Y0151175D01*
X0133968Y0150539D01*
X0132794Y0149365D01*
X0132159Y0147830D01*
X0132159Y0146170D01*
X0132794Y0144635D01*
X0133968Y0143461D01*
X0135503Y0142825D01*
X0137164Y0142825D01*
X0138698Y0143461D01*
X0139873Y0144635D01*
X0140508Y0146170D01*
X0140508Y0147830D01*
X0139873Y0149365D01*
X0138698Y0150539D01*
X0137164Y0151175D01*
X0139348Y0149890D02*
X0149698Y0149890D01*
X0148239Y0147891D02*
X0140483Y0147891D01*
X0140393Y0145893D02*
X0148133Y0145893D01*
X0146583Y0143894D02*
X0139132Y0143894D01*
X0137164Y0141175D02*
X0135503Y0141175D01*
X0133968Y0140539D01*
X0132794Y0139365D01*
X0132159Y0137830D01*
X0132159Y0136170D01*
X0132794Y0134635D01*
X0133968Y0133461D01*
X0135503Y0132825D01*
X0137164Y0132825D01*
X0138698Y0133461D01*
X0139873Y0134635D01*
X0140508Y0136170D01*
X0140508Y0137830D01*
X0139873Y0139365D01*
X0138698Y0140539D01*
X0137164Y0141175D01*
X0139340Y0139897D02*
X0146719Y0139897D01*
X0146583Y0141896D02*
X0093933Y0141896D01*
X0093933Y0143894D02*
X0133535Y0143894D01*
X0132273Y0145893D02*
X0093933Y0145893D01*
X0093933Y0147891D02*
X0132184Y0147891D01*
X0133319Y0149890D02*
X0093933Y0149890D01*
X0093933Y0151888D02*
X0151696Y0151888D01*
X0156750Y0147891D02*
X0175034Y0147891D01*
X0175034Y0145893D02*
X0174724Y0145893D01*
X0171333Y0145893D02*
X0171333Y0145893D01*
X0171333Y0143894D02*
X0171333Y0143894D01*
X0171333Y0141896D02*
X0171333Y0141896D01*
X0171333Y0139897D02*
X0171333Y0139897D01*
X0171333Y0137899D02*
X0171333Y0137899D01*
X0168151Y0137899D02*
X0154533Y0137899D01*
X0154533Y0135900D02*
X0175034Y0135900D01*
X0175034Y0133902D02*
X0154533Y0133902D01*
X0154533Y0131903D02*
X0157562Y0131903D01*
X0161333Y0131903D02*
X0161333Y0131903D01*
X0161333Y0131968D02*
X0161333Y0127000D01*
X0161333Y0127000D01*
X0161333Y0127000D01*
X0161333Y0122031D01*
X0164693Y0122031D01*
X0165465Y0122154D01*
X0166209Y0122396D01*
X0166906Y0122751D01*
X0167539Y0123210D01*
X0168092Y0123763D01*
X0168551Y0124396D01*
X0168906Y0125093D01*
X0169148Y0125837D01*
X0169270Y0126609D01*
X0169270Y0127000D01*
X0169270Y0127391D01*
X0169148Y0128163D01*
X0168906Y0128907D01*
X0168551Y0129604D01*
X0168092Y0130237D01*
X0167539Y0130790D01*
X0166906Y0131249D01*
X0166209Y0131604D01*
X0165465Y0131846D01*
X0164693Y0131968D01*
X0161333Y0131968D01*
X0161333Y0129905D02*
X0161333Y0129905D01*
X0161333Y0127906D02*
X0161333Y0127906D01*
X0161333Y0127000D02*
X0169270Y0127000D01*
X0161333Y0127000D01*
X0161333Y0127000D01*
X0161333Y0125908D02*
X0161333Y0125908D01*
X0161333Y0123909D02*
X0161333Y0123909D01*
X0168198Y0123909D02*
X0175034Y0123909D01*
X0175034Y0121911D02*
X0154533Y0121911D01*
X0148133Y0121911D02*
X0093933Y0121911D01*
X0093933Y0123909D02*
X0133520Y0123909D01*
X0133968Y0123461D02*
X0135503Y0122825D01*
X0137164Y0122825D01*
X0138698Y0123461D01*
X0139873Y0124635D01*
X0140508Y0126170D01*
X0140508Y0127830D01*
X0139873Y0129365D01*
X0138698Y0130539D01*
X0137164Y0131175D01*
X0135503Y0131175D01*
X0133968Y0130539D01*
X0132794Y0129365D01*
X0132159Y0127830D01*
X0132159Y0126170D01*
X0132794Y0124635D01*
X0133968Y0123461D01*
X0135503Y0121175D02*
X0133968Y0120539D01*
X0132794Y0119365D01*
X0132159Y0117830D01*
X0132159Y0116170D01*
X0132794Y0114635D01*
X0133968Y0113461D01*
X0135503Y0112825D01*
X0137164Y0112825D01*
X0138698Y0113461D01*
X0139873Y0114635D01*
X0140508Y0116170D01*
X0140508Y0117830D01*
X0139873Y0119365D01*
X0138698Y0120539D01*
X0137164Y0121175D01*
X0135503Y0121175D01*
X0133341Y0119912D02*
X0093933Y0119912D01*
X0093933Y0117914D02*
X0132193Y0117914D01*
X0132264Y0115915D02*
X0093933Y0115915D01*
X0093933Y0113917D02*
X0133513Y0113917D01*
X0135503Y0111175D02*
X0133968Y0110539D01*
X0132794Y0109365D01*
X0132159Y0107830D01*
X0132159Y0106170D01*
X0132794Y0104635D01*
X0133968Y0103461D01*
X0135503Y0102825D01*
X0137164Y0102825D01*
X0138698Y0103461D01*
X0139873Y0104635D01*
X0140508Y0106170D01*
X0140508Y0107830D01*
X0139873Y0109365D01*
X0138698Y0110539D01*
X0137164Y0111175D01*
X0135503Y0111175D01*
X0133349Y0109920D02*
X0093933Y0109920D01*
X0093933Y0111918D02*
X0175034Y0111918D01*
X0175034Y0109920D02*
X0139318Y0109920D01*
X0140471Y0107921D02*
X0175034Y0107921D01*
X0175034Y0105923D02*
X0167356Y0105923D01*
X0167539Y0105790D02*
X0166906Y0106249D01*
X0166209Y0106604D01*
X0165465Y0106846D01*
X0164693Y0106968D01*
X0161333Y0106968D01*
X0157974Y0106968D01*
X0157201Y0106846D01*
X0156458Y0106604D01*
X0155761Y0106249D01*
X0155128Y0105790D01*
X0154575Y0105237D01*
X0154115Y0104604D01*
X0153760Y0103907D01*
X0153519Y0103163D01*
X0153396Y0102391D01*
X0153396Y0102000D01*
X0153396Y0101609D01*
X0153519Y0100837D01*
X0153760Y0100093D01*
X0154115Y0099396D01*
X0154575Y0098763D01*
X0155128Y0098210D01*
X0155761Y0097751D01*
X0156458Y0097396D01*
X0157201Y0097154D01*
X0157974Y0097031D01*
X0161333Y0097031D01*
X0161333Y0102000D01*
X0161333Y0102000D01*
X0153396Y0102000D01*
X0161333Y0102000D01*
X0161333Y0106968D01*
X0161333Y0102000D01*
X0161333Y0102000D01*
X0161333Y0102000D01*
X0161333Y0097031D01*
X0164693Y0097031D01*
X0165465Y0097154D01*
X0166209Y0097396D01*
X0166906Y0097751D01*
X0167539Y0098210D01*
X0168092Y0098763D01*
X0168551Y0099396D01*
X0168906Y0100093D01*
X0169148Y0100837D01*
X0169270Y0101609D01*
X0169270Y0102000D01*
X0169270Y0102391D01*
X0169148Y0103163D01*
X0168906Y0103907D01*
X0168551Y0104604D01*
X0168092Y0105237D01*
X0167539Y0105790D01*
X0168898Y0103924D02*
X0175034Y0103924D01*
X0175034Y0101926D02*
X0169270Y0101926D01*
X0169270Y0102000D02*
X0161333Y0102000D01*
X0169270Y0102000D01*
X0168822Y0099927D02*
X0175034Y0099927D01*
X0175034Y0097929D02*
X0167151Y0097929D01*
X0166752Y0095930D02*
X0175034Y0095930D01*
X0175034Y0093932D02*
X0168447Y0093932D01*
X0168175Y0094588D02*
X0168870Y0092909D01*
X0168870Y0091091D01*
X0168175Y0089412D01*
X0166890Y0088127D01*
X0165211Y0087431D01*
X0157456Y0087431D01*
X0155777Y0088127D01*
X0154504Y0089400D01*
X0152410Y0089400D01*
X0148537Y0085527D01*
X0147806Y0084796D01*
X0146851Y0084400D01*
X0139637Y0084400D01*
X0138698Y0083461D01*
X0137164Y0082825D01*
X0135503Y0082825D01*
X0133968Y0083461D01*
X0132794Y0084635D01*
X0132159Y0086170D01*
X0132159Y0087830D01*
X0132794Y0089365D01*
X0133968Y0090539D01*
X0135503Y0091175D01*
X0137164Y0091175D01*
X0138698Y0090539D01*
X0139637Y0089600D01*
X0145256Y0089600D01*
X0149861Y0094204D01*
X0150816Y0094600D01*
X0154504Y0094600D01*
X0155777Y0095873D01*
X0157456Y0096568D01*
X0165211Y0096568D01*
X0166890Y0095873D01*
X0168175Y0094588D01*
X0168870Y0091933D02*
X0175034Y0091933D01*
X0175034Y0089934D02*
X0168391Y0089934D01*
X0166429Y0087936D02*
X0175034Y0087936D01*
X0175034Y0085937D02*
X0166734Y0085937D01*
X0168444Y0083939D02*
X0175034Y0083939D01*
X0175034Y0081940D02*
X0168870Y0081940D01*
X0168394Y0079942D02*
X0175034Y0079942D01*
X0175034Y0077943D02*
X0166446Y0077943D01*
X0166716Y0075945D02*
X0175034Y0075945D01*
X0175034Y0073946D02*
X0168441Y0073946D01*
X0168870Y0071948D02*
X0175034Y0071948D01*
X0175034Y0069949D02*
X0168397Y0069949D01*
X0166464Y0067951D02*
X0175034Y0067951D01*
X0175034Y0065952D02*
X0163933Y0065952D01*
X0163933Y0063954D02*
X0175034Y0063954D01*
X0175034Y0061955D02*
X0163933Y0061955D01*
X0167806Y0059957D02*
X0175034Y0059957D01*
X0175034Y0057958D02*
X0168850Y0057958D01*
X0168816Y0055960D02*
X0175034Y0055960D01*
X0155951Y0075945D02*
X0148955Y0075945D01*
X0146333Y0077000D02*
X0136333Y0077000D01*
X0133371Y0079942D02*
X0093933Y0079942D01*
X0093933Y0081940D02*
X0147597Y0081940D01*
X0149595Y0083939D02*
X0139176Y0083939D01*
X0139295Y0079942D02*
X0145598Y0079942D01*
X0146333Y0077000D02*
X0151333Y0082000D01*
X0161333Y0082000D01*
X0156220Y0077943D02*
X0150954Y0077943D01*
X0148948Y0085937D02*
X0155933Y0085937D01*
X0156238Y0087936D02*
X0150946Y0087936D01*
X0151333Y0092000D02*
X0146333Y0087000D01*
X0136333Y0087000D01*
X0133490Y0083939D02*
X0093933Y0083939D01*
X0093933Y0085937D02*
X0132255Y0085937D01*
X0132202Y0087936D02*
X0093933Y0087936D01*
X0093933Y0089934D02*
X0133364Y0089934D01*
X0133968Y0093461D02*
X0135503Y0092825D01*
X0137164Y0092825D01*
X0138698Y0093461D01*
X0139873Y0094635D01*
X0140508Y0096170D01*
X0140508Y0097830D01*
X0139873Y0099365D01*
X0138698Y0100539D01*
X0137164Y0101175D01*
X0135503Y0101175D01*
X0133968Y0100539D01*
X0132794Y0099365D01*
X0132159Y0097830D01*
X0132159Y0096170D01*
X0132794Y0094635D01*
X0133968Y0093461D01*
X0133498Y0093932D02*
X0093933Y0093932D01*
X0093933Y0095930D02*
X0132258Y0095930D01*
X0132199Y0097929D02*
X0093933Y0097929D01*
X0093933Y0099927D02*
X0133356Y0099927D01*
X0133505Y0103924D02*
X0093933Y0103924D01*
X0093933Y0101926D02*
X0153396Y0101926D01*
X0153769Y0103924D02*
X0139161Y0103924D01*
X0140406Y0105923D02*
X0155311Y0105923D01*
X0161333Y0105923D02*
X0161333Y0105923D01*
X0161333Y0103924D02*
X0161333Y0103924D01*
X0161333Y0102000D02*
X0161333Y0102000D01*
X0161333Y0101926D02*
X0161333Y0101926D01*
X0161333Y0099927D02*
X0161333Y0099927D01*
X0161333Y0097929D02*
X0161333Y0097929D01*
X0161333Y0092000D02*
X0151333Y0092000D01*
X0149588Y0093932D02*
X0139169Y0093932D01*
X0140409Y0095930D02*
X0155915Y0095930D01*
X0155516Y0097929D02*
X0140467Y0097929D01*
X0139310Y0099927D02*
X0153845Y0099927D01*
X0147589Y0091933D02*
X0093933Y0091933D01*
X0091333Y0092000D02*
X0011933Y0092000D01*
X0015133Y0095930D02*
X0042258Y0095930D01*
X0042199Y0097929D02*
X0015133Y0097929D01*
X0015133Y0099927D02*
X0043356Y0099927D01*
X0043968Y0103461D02*
X0045503Y0102825D01*
X0047164Y0102825D01*
X0048698Y0103461D01*
X0049873Y0104635D01*
X0050508Y0106170D01*
X0050508Y0107830D01*
X0049873Y0109365D01*
X0048698Y0110539D01*
X0047164Y0111175D01*
X0045503Y0111175D01*
X0043968Y0110539D01*
X0042794Y0109365D01*
X0042159Y0107830D01*
X0042159Y0106170D01*
X0042794Y0104635D01*
X0043968Y0103461D01*
X0043505Y0103924D02*
X0027687Y0103924D01*
X0028800Y0105923D02*
X0042261Y0105923D01*
X0042196Y0107921D02*
X0028865Y0107921D01*
X0027843Y0109920D02*
X0043349Y0109920D01*
X0043968Y0113461D02*
X0045503Y0112825D01*
X0047164Y0112825D01*
X0048698Y0113461D01*
X0049873Y0114635D01*
X0050508Y0116170D01*
X0050508Y0117830D01*
X0049873Y0119365D01*
X0048698Y0120539D01*
X0047164Y0121175D01*
X0045503Y0121175D01*
X0043968Y0120539D01*
X0043629Y0120200D01*
X0027563Y0120200D01*
X0026890Y0120873D01*
X0025211Y0121568D01*
X0017456Y0121568D01*
X0015777Y0120873D01*
X0014492Y0119588D01*
X0013796Y0117909D01*
X0013796Y0116091D01*
X0014492Y0114412D01*
X0015777Y0113127D01*
X0017456Y0112431D01*
X0025211Y0112431D01*
X0026890Y0113127D01*
X0027563Y0113800D01*
X0043629Y0113800D01*
X0043968Y0113461D01*
X0049154Y0113917D02*
X0088733Y0113917D01*
X0088733Y0115915D02*
X0050403Y0115915D01*
X0050474Y0117914D02*
X0088733Y0117914D01*
X0088733Y0119912D02*
X0049325Y0119912D01*
X0048698Y0123461D02*
X0047164Y0122825D01*
X0045503Y0122825D01*
X0043968Y0123461D01*
X0043629Y0123800D01*
X0027563Y0123800D01*
X0026890Y0123127D01*
X0025211Y0122431D01*
X0017456Y0122431D01*
X0015777Y0123127D01*
X0014492Y0124412D01*
X0013796Y0126091D01*
X0013796Y0127909D01*
X0014492Y0129588D01*
X0015777Y0130873D01*
X0017456Y0131568D01*
X0025211Y0131568D01*
X0026890Y0130873D01*
X0027563Y0130200D01*
X0043629Y0130200D01*
X0043968Y0130539D01*
X0045503Y0131175D01*
X0047164Y0131175D01*
X0048698Y0130539D01*
X0049873Y0129365D01*
X0050508Y0127830D01*
X0050508Y0126170D01*
X0049873Y0124635D01*
X0048698Y0123461D01*
X0049147Y0123909D02*
X0088733Y0123909D01*
X0088733Y0121911D02*
X0011333Y0121911D01*
X0011333Y0123909D02*
X0014995Y0123909D01*
X0013872Y0125908D02*
X0011333Y0125908D01*
X0011333Y0127906D02*
X0013796Y0127906D01*
X0014809Y0129905D02*
X0011333Y0129905D01*
X0011333Y0131903D02*
X0088733Y0131903D01*
X0088733Y0129905D02*
X0049333Y0129905D01*
X0050477Y0127906D02*
X0088733Y0127906D01*
X0088733Y0125908D02*
X0050400Y0125908D01*
X0047164Y0132825D02*
X0045503Y0132825D01*
X0043968Y0133461D01*
X0042794Y0134635D01*
X0042159Y0136170D01*
X0042159Y0137830D01*
X0042794Y0139365D01*
X0043968Y0140539D01*
X0045503Y0141175D01*
X0047164Y0141175D01*
X0048698Y0140539D01*
X0049873Y0139365D01*
X0050508Y0137830D01*
X0050508Y0136170D01*
X0049873Y0134635D01*
X0048698Y0133461D01*
X0047164Y0132825D01*
X0049139Y0133902D02*
X0088733Y0133902D01*
X0088733Y0135900D02*
X0050397Y0135900D01*
X0050480Y0137899D02*
X0088733Y0137899D01*
X0088733Y0139897D02*
X0049340Y0139897D01*
X0048698Y0143461D02*
X0047164Y0142825D01*
X0045503Y0142825D01*
X0043968Y0143461D01*
X0042794Y0144635D01*
X0042159Y0146170D01*
X0042159Y0147830D01*
X0042794Y0149365D01*
X0043968Y0150539D01*
X0045503Y0151175D01*
X0047164Y0151175D01*
X0048698Y0150539D01*
X0049873Y0149365D01*
X0050508Y0147830D01*
X0050508Y0146170D01*
X0049873Y0144635D01*
X0048698Y0143461D01*
X0049132Y0143894D02*
X0088733Y0143894D01*
X0088733Y0141896D02*
X0025152Y0141896D01*
X0025465Y0141846D02*
X0024693Y0141968D01*
X0021333Y0141968D01*
X0017974Y0141968D01*
X0017201Y0141846D01*
X0016458Y0141604D01*
X0015761Y0141249D01*
X0015128Y0140790D01*
X0014575Y0140237D01*
X0014115Y0139604D01*
X0013760Y0138907D01*
X0013519Y0138163D01*
X0013396Y0137391D01*
X0013396Y0137000D01*
X0013396Y0136609D01*
X0013519Y0135837D01*
X0013760Y0135093D01*
X0014115Y0134396D01*
X0014575Y0133763D01*
X0015128Y0133210D01*
X0015761Y0132751D01*
X0016458Y0132396D01*
X0017201Y0132154D01*
X0017974Y0132031D01*
X0021333Y0132031D01*
X0021333Y0137000D01*
X0021333Y0137000D01*
X0013396Y0137000D01*
X0021333Y0137000D01*
X0021333Y0141968D01*
X0021333Y0137000D01*
X0021333Y0137000D01*
X0021333Y0137000D01*
X0021333Y0132031D01*
X0024693Y0132031D01*
X0025465Y0132154D01*
X0026209Y0132396D01*
X0026906Y0132751D01*
X0027539Y0133210D01*
X0028092Y0133763D01*
X0028551Y0134396D01*
X0028906Y0135093D01*
X0029148Y0135837D01*
X0029270Y0136609D01*
X0029270Y0137000D01*
X0029270Y0137391D01*
X0029148Y0138163D01*
X0028906Y0138907D01*
X0028551Y0139604D01*
X0028092Y0140237D01*
X0027539Y0140790D01*
X0026906Y0141249D01*
X0026209Y0141604D01*
X0025465Y0141846D01*
X0028338Y0139897D02*
X0043327Y0139897D01*
X0042187Y0137899D02*
X0029190Y0137899D01*
X0029270Y0137000D02*
X0021333Y0137000D01*
X0021333Y0137000D01*
X0029270Y0137000D01*
X0029158Y0135900D02*
X0042270Y0135900D01*
X0043528Y0133902D02*
X0028192Y0133902D01*
X0021333Y0133902D02*
X0021333Y0133902D01*
X0021333Y0135900D02*
X0021333Y0135900D01*
X0021333Y0137899D02*
X0021333Y0137899D01*
X0021333Y0139897D02*
X0021333Y0139897D01*
X0021333Y0141896D02*
X0021333Y0141896D01*
X0017515Y0141896D02*
X0011333Y0141896D01*
X0011333Y0143894D02*
X0043535Y0143894D01*
X0042273Y0145893D02*
X0011333Y0145893D01*
X0011333Y0147891D02*
X0042184Y0147891D01*
X0043319Y0149890D02*
X0011333Y0149890D01*
X0011333Y0151888D02*
X0088733Y0151888D01*
X0088733Y0149890D02*
X0049348Y0149890D01*
X0050483Y0147891D02*
X0088733Y0147891D01*
X0088733Y0145893D02*
X0050393Y0145893D01*
X0047164Y0152825D02*
X0045503Y0152825D01*
X0043968Y0153461D01*
X0042794Y0154635D01*
X0042159Y0156170D01*
X0042159Y0157830D01*
X0042794Y0159365D01*
X0043968Y0160539D01*
X0045503Y0161175D01*
X0047164Y0161175D01*
X0048698Y0160539D01*
X0049873Y0159365D01*
X0050508Y0157830D01*
X0050508Y0156170D01*
X0049873Y0154635D01*
X0048698Y0153461D01*
X0047164Y0152825D01*
X0049124Y0153887D02*
X0088733Y0153887D01*
X0088733Y0155885D02*
X0050390Y0155885D01*
X0050486Y0157884D02*
X0088733Y0157884D01*
X0088733Y0159882D02*
X0049355Y0159882D01*
X0048698Y0163461D02*
X0047164Y0162825D01*
X0045503Y0162825D01*
X0043968Y0163461D01*
X0042794Y0164635D01*
X0042159Y0166170D01*
X0042159Y0167830D01*
X0042794Y0169365D01*
X0043968Y0170539D01*
X0045503Y0171175D01*
X0047164Y0171175D01*
X0048698Y0170539D01*
X0049873Y0169365D01*
X0050508Y0167830D01*
X0050508Y0166170D01*
X0049873Y0164635D01*
X0048698Y0163461D01*
X0049117Y0163879D02*
X0088733Y0163879D01*
X0088733Y0161881D02*
X0011333Y0161881D01*
X0011333Y0163879D02*
X0043550Y0163879D01*
X0042279Y0165878D02*
X0011333Y0165878D01*
X0011333Y0167876D02*
X0042178Y0167876D01*
X0043304Y0169875D02*
X0011333Y0169875D01*
X0011333Y0171873D02*
X0088733Y0171873D01*
X0088733Y0169875D02*
X0049362Y0169875D01*
X0050489Y0167876D02*
X0088733Y0167876D01*
X0088733Y0165878D02*
X0050387Y0165878D01*
X0047164Y0172825D02*
X0045503Y0172825D01*
X0043968Y0173461D01*
X0042794Y0174635D01*
X0042159Y0176170D01*
X0042159Y0177830D01*
X0042794Y0179365D01*
X0043968Y0180539D01*
X0045503Y0181175D01*
X0047164Y0181175D01*
X0048698Y0180539D01*
X0049873Y0179365D01*
X0050508Y0177830D01*
X0050508Y0176170D01*
X0049873Y0174635D01*
X0048698Y0173461D01*
X0047164Y0172825D01*
X0049109Y0173872D02*
X0088733Y0173872D01*
X0088733Y0175870D02*
X0050384Y0175870D01*
X0050492Y0177869D02*
X0088733Y0177869D01*
X0088733Y0179868D02*
X0049370Y0179868D01*
X0048698Y0183461D02*
X0047164Y0182825D01*
X0045503Y0182825D01*
X0043968Y0183461D01*
X0042794Y0184635D01*
X0042159Y0186170D01*
X0042159Y0187830D01*
X0042794Y0189365D01*
X0043968Y0190539D01*
X0045503Y0191175D01*
X0047164Y0191175D01*
X0048698Y0190539D01*
X0049873Y0189365D01*
X0050508Y0187830D01*
X0050508Y0186170D01*
X0049873Y0184635D01*
X0048698Y0183461D01*
X0049102Y0183865D02*
X0088733Y0183865D01*
X0088733Y0185863D02*
X0050381Y0185863D01*
X0050495Y0187862D02*
X0088733Y0187862D01*
X0088733Y0189860D02*
X0049377Y0189860D01*
X0048698Y0193461D02*
X0047164Y0192825D01*
X0045503Y0192825D01*
X0043968Y0193461D01*
X0042794Y0194635D01*
X0042159Y0196170D01*
X0042159Y0197830D01*
X0042794Y0199365D01*
X0043968Y0200539D01*
X0045503Y0201175D01*
X0047164Y0201175D01*
X0048698Y0200539D01*
X0049873Y0199365D01*
X0050508Y0197830D01*
X0050508Y0196170D01*
X0049873Y0194635D01*
X0048698Y0193461D01*
X0049094Y0193857D02*
X0088733Y0193857D01*
X0088733Y0191859D02*
X0011333Y0191859D01*
X0011333Y0193857D02*
X0043572Y0193857D01*
X0042289Y0195856D02*
X0011333Y0195856D01*
X0011333Y0197854D02*
X0042168Y0197854D01*
X0043282Y0199853D02*
X0011333Y0199853D01*
X0011333Y0201851D02*
X0088733Y0201851D01*
X0088733Y0199853D02*
X0049385Y0199853D01*
X0050498Y0197854D02*
X0088733Y0197854D01*
X0088733Y0195856D02*
X0050378Y0195856D01*
X0048089Y0202760D02*
X0047405Y0202538D01*
X0046693Y0202425D01*
X0046333Y0202425D01*
X0046333Y0207000D01*
X0046333Y0207000D01*
X0041759Y0207000D01*
X0041759Y0206640D01*
X0041871Y0205929D01*
X0042094Y0205244D01*
X0042421Y0204602D01*
X0042844Y0204020D01*
X0043353Y0203511D01*
X0043936Y0203087D01*
X0044577Y0202760D01*
X0045262Y0202538D01*
X0045973Y0202425D01*
X0046333Y0202425D01*
X0046333Y0207000D01*
X0041759Y0207000D01*
X0041759Y0207360D01*
X0041871Y0208071D01*
X0042094Y0208756D01*
X0042421Y0209398D01*
X0042844Y0209980D01*
X0043353Y0210489D01*
X0043936Y0210913D01*
X0044577Y0211240D01*
X0045262Y0211462D01*
X0045973Y0211575D01*
X0046333Y0211575D01*
X0046333Y0207000D01*
X0046333Y0207000D01*
X0046333Y0207000D01*
X0046333Y0211575D01*
X0046693Y0211575D01*
X0047405Y0211462D01*
X0048089Y0211240D01*
X0048731Y0210913D01*
X0049314Y0210489D01*
X0049823Y0209980D01*
X0050246Y0209398D01*
X0050573Y0208756D01*
X0050795Y0208071D01*
X0050908Y0207360D01*
X0050908Y0207000D01*
X0046333Y0207000D01*
X0046333Y0207000D01*
X0050908Y0207000D01*
X0050908Y0206640D01*
X0050795Y0205929D01*
X0050573Y0205244D01*
X0050246Y0204602D01*
X0049823Y0204020D01*
X0049314Y0203511D01*
X0048731Y0203087D01*
X0048089Y0202760D01*
X0049653Y0203850D02*
X0089506Y0203850D01*
X0093933Y0197854D02*
X0132168Y0197854D01*
X0132289Y0195856D02*
X0093933Y0195856D01*
X0093933Y0193857D02*
X0133572Y0193857D01*
X0135503Y0191175D02*
X0133968Y0190539D01*
X0132794Y0189365D01*
X0132159Y0187830D01*
X0132159Y0186170D01*
X0132794Y0184635D01*
X0133968Y0183461D01*
X0135503Y0182825D01*
X0137164Y0182825D01*
X0138698Y0183461D01*
X0139873Y0184635D01*
X0140508Y0186170D01*
X0140508Y0187830D01*
X0139873Y0189365D01*
X0138698Y0190539D01*
X0137164Y0191175D01*
X0135503Y0191175D01*
X0133289Y0189860D02*
X0093933Y0189860D01*
X0093933Y0187862D02*
X0132171Y0187862D01*
X0132285Y0185863D02*
X0093933Y0185863D01*
X0093933Y0183865D02*
X0133565Y0183865D01*
X0133297Y0179868D02*
X0093933Y0179868D01*
X0093933Y0181866D02*
X0148733Y0181866D01*
X0149127Y0183865D02*
X0139102Y0183865D01*
X0140381Y0185863D02*
X0150691Y0185863D01*
X0153733Y0187862D02*
X0140495Y0187862D01*
X0139377Y0189860D02*
X0153733Y0189860D01*
X0153733Y0191859D02*
X0093933Y0191859D01*
X0088733Y0181866D02*
X0011333Y0181866D01*
X0011333Y0179868D02*
X0043297Y0179868D01*
X0042175Y0177869D02*
X0011333Y0177869D01*
X0011333Y0175870D02*
X0042282Y0175870D01*
X0043557Y0173872D02*
X0011333Y0173872D01*
X0011333Y0183865D02*
X0043565Y0183865D01*
X0042285Y0185863D02*
X0011333Y0185863D01*
X0011333Y0187862D02*
X0042171Y0187862D01*
X0043289Y0189860D02*
X0011333Y0189860D01*
X0011333Y0203850D02*
X0043014Y0203850D01*
X0041897Y0205848D02*
X0011333Y0205848D01*
X0011333Y0207847D02*
X0015376Y0207847D01*
X0013065Y0209845D02*
X0011333Y0209845D01*
X0011333Y0211844D02*
X0011718Y0211844D01*
X0027290Y0207847D02*
X0041836Y0207847D01*
X0042746Y0209845D02*
X0029601Y0209845D01*
X0030949Y0211844D02*
X0151718Y0211844D01*
X0150889Y0213842D02*
X0031777Y0213842D01*
X0032239Y0215841D02*
X0150428Y0215841D01*
X0150428Y0217839D02*
X0032239Y0217839D01*
X0031863Y0219838D02*
X0150803Y0219838D01*
X0151533Y0221836D02*
X0031134Y0221836D01*
X0046333Y0209845D02*
X0046333Y0209845D01*
X0046333Y0207847D02*
X0046333Y0207847D01*
X0046333Y0205848D02*
X0046333Y0205848D01*
X0046333Y0203850D02*
X0046333Y0203850D01*
X0050769Y0205848D02*
X0132292Y0205848D01*
X0132165Y0207847D02*
X0050831Y0207847D01*
X0049921Y0209845D02*
X0133274Y0209845D01*
X0139392Y0209845D02*
X0153065Y0209845D01*
X0155376Y0207847D02*
X0140501Y0207847D01*
X0140375Y0205848D02*
X0148464Y0205848D01*
X0154203Y0205848D02*
X0167898Y0205848D01*
X0167290Y0207847D02*
X0175034Y0207847D01*
X0175034Y0209845D02*
X0169601Y0209845D01*
X0170949Y0211844D02*
X0175034Y0211844D01*
X0175034Y0213842D02*
X0171777Y0213842D01*
X0172239Y0215841D02*
X0175034Y0215841D01*
X0175034Y0217839D02*
X0172239Y0217839D01*
X0171863Y0219838D02*
X0175034Y0219838D01*
X0175034Y0221836D02*
X0171134Y0221836D01*
X0171333Y0205848D02*
X0171333Y0205848D01*
X0171333Y0203850D02*
X0171333Y0203850D01*
X0171333Y0201851D02*
X0171333Y0201851D01*
X0171333Y0199853D02*
X0171333Y0199853D01*
X0171333Y0197854D02*
X0171333Y0197854D01*
X0168196Y0197854D02*
X0158794Y0197854D01*
X0158933Y0195856D02*
X0175034Y0195856D01*
X0175034Y0197854D02*
X0174471Y0197854D01*
X0175034Y0193857D02*
X0158933Y0193857D01*
X0158933Y0191859D02*
X0175034Y0191859D01*
X0175034Y0189860D02*
X0158933Y0189860D01*
X0158933Y0187862D02*
X0175034Y0187862D01*
X0175034Y0185863D02*
X0161976Y0185863D01*
X0163540Y0183865D02*
X0175034Y0183865D01*
X0175034Y0181866D02*
X0163933Y0181866D01*
X0163429Y0179868D02*
X0175034Y0179868D01*
X0175034Y0177869D02*
X0161381Y0177869D01*
X0162513Y0175870D02*
X0175034Y0175870D01*
X0175034Y0173872D02*
X0163982Y0173872D01*
X0164333Y0171873D02*
X0175034Y0171873D01*
X0175034Y0169875D02*
X0163862Y0169875D01*
X0162164Y0167876D02*
X0175034Y0167876D01*
X0175034Y0165878D02*
X0161961Y0165878D01*
X0163534Y0163879D02*
X0175034Y0163879D01*
X0175034Y0161881D02*
X0163933Y0161881D01*
X0163435Y0159882D02*
X0175034Y0159882D01*
X0175034Y0157884D02*
X0161417Y0157884D01*
X0159533Y0155885D02*
X0175034Y0155885D01*
X0175034Y0153887D02*
X0159533Y0153887D01*
X0159533Y0151888D02*
X0175034Y0151888D01*
X0175034Y0149890D02*
X0158749Y0149890D01*
X0154752Y0145893D02*
X0167943Y0145893D01*
X0166183Y0143894D02*
X0156083Y0143894D01*
X0156083Y0141896D02*
X0166183Y0141896D01*
X0166183Y0139897D02*
X0155948Y0139897D01*
X0148133Y0137899D02*
X0140480Y0137899D01*
X0140397Y0135900D02*
X0148133Y0135900D01*
X0148133Y0133902D02*
X0139139Y0133902D01*
X0139333Y0129905D02*
X0148133Y0129905D01*
X0148133Y0131903D02*
X0093933Y0131903D01*
X0093933Y0129905D02*
X0133334Y0129905D01*
X0132190Y0127906D02*
X0093933Y0127906D01*
X0093933Y0125908D02*
X0132267Y0125908D01*
X0139147Y0123909D02*
X0148133Y0123909D01*
X0148133Y0125908D02*
X0140400Y0125908D01*
X0140477Y0127906D02*
X0148133Y0127906D01*
X0148133Y0119912D02*
X0139325Y0119912D01*
X0140474Y0117914D02*
X0148133Y0117914D01*
X0148319Y0115915D02*
X0140403Y0115915D01*
X0139154Y0113917D02*
X0150415Y0113917D01*
X0165105Y0131903D02*
X0175034Y0131903D01*
X0175034Y0129905D02*
X0168333Y0129905D01*
X0169189Y0127906D02*
X0175034Y0127906D01*
X0175034Y0125908D02*
X0169159Y0125908D01*
X0167850Y0119912D02*
X0175034Y0119912D01*
X0175034Y0117914D02*
X0168868Y0117914D01*
X0168797Y0115915D02*
X0175034Y0115915D01*
X0175034Y0113917D02*
X0167679Y0113917D01*
X0174515Y0137899D02*
X0175034Y0137899D01*
X0150154Y0175870D02*
X0140384Y0175870D01*
X0140492Y0177869D02*
X0151286Y0177869D01*
X0149238Y0179868D02*
X0139370Y0179868D01*
X0133557Y0173872D02*
X0093933Y0173872D01*
X0093933Y0175870D02*
X0132282Y0175870D01*
X0132175Y0177869D02*
X0093933Y0177869D01*
X0093933Y0159882D02*
X0133312Y0159882D01*
X0132181Y0157884D02*
X0093933Y0157884D01*
X0093933Y0155885D02*
X0132276Y0155885D01*
X0133542Y0153887D02*
X0093933Y0153887D01*
X0093933Y0139897D02*
X0133327Y0139897D01*
X0132187Y0137899D02*
X0093933Y0137899D01*
X0093933Y0135900D02*
X0132270Y0135900D01*
X0133528Y0133902D02*
X0093933Y0133902D01*
X0088733Y0111918D02*
X0011333Y0111918D01*
X0011333Y0109920D02*
X0014824Y0109920D01*
X0012729Y0107921D02*
X0011333Y0107921D01*
X0015784Y0101926D02*
X0088733Y0101926D01*
X0088733Y0103924D02*
X0049161Y0103924D01*
X0050406Y0105923D02*
X0088733Y0105923D01*
X0088733Y0107921D02*
X0050471Y0107921D01*
X0049318Y0109920D02*
X0088733Y0109920D01*
X0093933Y0107921D02*
X0132196Y0107921D01*
X0132261Y0105923D02*
X0093933Y0105923D01*
X0088733Y0099927D02*
X0049310Y0099927D01*
X0050467Y0097929D02*
X0088733Y0097929D01*
X0088733Y0095930D02*
X0050409Y0095930D01*
X0050464Y0087936D02*
X0088733Y0087936D01*
X0088733Y0085937D02*
X0050412Y0085937D01*
X0049176Y0083939D02*
X0088733Y0083939D01*
X0088733Y0081940D02*
X0024870Y0081940D01*
X0024693Y0081968D02*
X0021333Y0081968D01*
X0021333Y0077000D01*
X0021333Y0072031D01*
X0024693Y0072031D01*
X0025465Y0072154D01*
X0026209Y0072396D01*
X0026906Y0072751D01*
X0027539Y0073210D01*
X0028092Y0073763D01*
X0028551Y0074396D01*
X0028906Y0075093D01*
X0029148Y0075837D01*
X0029270Y0076609D01*
X0029270Y0077000D01*
X0029270Y0077391D01*
X0029148Y0078163D01*
X0028906Y0078907D01*
X0028551Y0079604D01*
X0028092Y0080237D01*
X0027539Y0080790D01*
X0026906Y0081249D01*
X0026209Y0081604D01*
X0025465Y0081846D01*
X0024693Y0081968D01*
X0021333Y0081940D02*
X0021333Y0081940D01*
X0021333Y0079942D02*
X0021333Y0079942D01*
X0021333Y0077943D02*
X0021333Y0077943D01*
X0021333Y0077000D02*
X0029270Y0077000D01*
X0021333Y0077000D01*
X0021333Y0077000D01*
X0021333Y0075945D02*
X0021333Y0075945D01*
X0021333Y0073946D02*
X0021333Y0073946D01*
X0015133Y0071948D02*
X0088733Y0071948D01*
X0088733Y0073946D02*
X0049184Y0073946D01*
X0048698Y0073461D02*
X0047164Y0072825D01*
X0045503Y0072825D01*
X0043968Y0073461D01*
X0042794Y0074635D01*
X0042159Y0076170D01*
X0042159Y0077830D01*
X0042794Y0079365D01*
X0043968Y0080539D01*
X0045503Y0081175D01*
X0047164Y0081175D01*
X0048698Y0080539D01*
X0049873Y0079365D01*
X0050508Y0077830D01*
X0050508Y0076170D01*
X0049873Y0074635D01*
X0048698Y0073461D01*
X0049288Y0069949D02*
X0089707Y0069949D01*
X0088733Y0075945D02*
X0050415Y0075945D01*
X0050461Y0077943D02*
X0088733Y0077943D01*
X0088733Y0079942D02*
X0049295Y0079942D01*
X0043371Y0079942D02*
X0028306Y0079942D01*
X0029183Y0077943D02*
X0042205Y0077943D01*
X0042252Y0075945D02*
X0029165Y0075945D01*
X0028225Y0073946D02*
X0043483Y0073946D01*
X0043490Y0083939D02*
X0015133Y0083939D01*
X0015133Y0085937D02*
X0042255Y0085937D01*
X0042202Y0087936D02*
X0015133Y0087936D01*
X0015133Y0081940D02*
X0017797Y0081940D01*
X0014987Y0113917D02*
X0011333Y0113917D01*
X0011333Y0115915D02*
X0013869Y0115915D01*
X0013798Y0117914D02*
X0011333Y0117914D01*
X0011333Y0119912D02*
X0014816Y0119912D01*
X0014474Y0133902D02*
X0011333Y0133902D01*
X0011333Y0135900D02*
X0013509Y0135900D01*
X0013477Y0137899D02*
X0011333Y0137899D01*
X0011333Y0139897D02*
X0014328Y0139897D01*
X0011333Y0153887D02*
X0043542Y0153887D01*
X0042276Y0155885D02*
X0011333Y0155885D01*
X0011333Y0157884D02*
X0042181Y0157884D01*
X0043312Y0159882D02*
X0011333Y0159882D01*
X0093933Y0077943D02*
X0132205Y0077943D01*
X0132252Y0075945D02*
X0093933Y0075945D01*
X0139303Y0089934D02*
X0145591Y0089934D01*
X0168279Y0029979D02*
X0175034Y0029979D01*
X0175034Y0027981D02*
X0169177Y0027981D01*
X0169171Y0025982D02*
X0175034Y0025982D01*
X0175034Y0023984D02*
X0168252Y0023984D01*
X0165850Y0021985D02*
X0175034Y0021985D01*
X0175034Y0019987D02*
X0168769Y0019987D01*
X0170469Y0017988D02*
X0175034Y0017988D01*
X0175034Y0015990D02*
X0171555Y0015990D01*
X0172090Y0013991D02*
X0175034Y0013991D01*
X0175034Y0011993D02*
X0172239Y0011993D01*
X0172086Y0009994D02*
X0175034Y0009994D01*
X0175034Y0007996D02*
X0171551Y0007996D01*
X0151116Y0007996D02*
X0031551Y0007996D01*
X0032086Y0009994D02*
X0150581Y0009994D01*
X0043401Y0039972D02*
X0011333Y0039972D01*
X0011333Y0037973D02*
X0042218Y0037973D01*
X0042239Y0035975D02*
X0011333Y0035975D01*
X0011333Y0021985D02*
X0016817Y0021985D01*
X0013897Y0019987D02*
X0011333Y0019987D01*
X0011333Y0017988D02*
X0012198Y0017988D01*
X0027731Y0043969D02*
X0043461Y0043969D01*
X0042242Y0045967D02*
X0028819Y0045967D01*
X0028847Y0047966D02*
X0042215Y0047966D01*
X0043394Y0049964D02*
X0027798Y0049964D01*
X0139094Y0193857D02*
X0153733Y0193857D01*
X0153733Y0195856D02*
X0140378Y0195856D01*
X0140498Y0197854D02*
X0148762Y0197854D01*
X0156083Y0201851D02*
X0166183Y0201851D01*
X0166198Y0199853D02*
X0157158Y0199853D01*
X0156083Y0203850D02*
X0166183Y0203850D01*
X0174768Y0205848D02*
X0175034Y0205848D01*
M02*
