G75*
%MOIN*%
%OFA0B0*%
%FSLAX25Y25*%
%IPPOS*%
%LPD*%
%AMOC8*
5,1,8,0,0,1.08239X$1,22.5*
%
%ADD10C,0.12611*%
%ADD11C,0.06737*%
%ADD12OC8,0.07100*%
%ADD13C,0.06800*%
%ADD14C,0.05950*%
D10*
X0021760Y0012000D03*
X0161760Y0012000D03*
X0161760Y0217000D03*
X0021760Y0217000D03*
D11*
X0024728Y0177000D02*
X0018791Y0177000D01*
X0018791Y0167000D02*
X0024728Y0167000D01*
X0024728Y0137000D02*
X0018791Y0137000D01*
X0018791Y0127000D02*
X0024728Y0127000D01*
X0024728Y0117000D02*
X0018791Y0117000D01*
X0018791Y0107000D02*
X0024728Y0107000D01*
X0024728Y0077000D02*
X0018791Y0077000D01*
X0018791Y0067000D02*
X0024728Y0067000D01*
X0024728Y0057000D02*
X0018791Y0057000D01*
X0018791Y0047000D02*
X0024728Y0047000D01*
X0158791Y0047000D02*
X0164728Y0047000D01*
X0164728Y0037000D02*
X0158791Y0037000D01*
X0158791Y0027000D02*
X0164728Y0027000D01*
X0164728Y0057000D02*
X0158791Y0057000D01*
X0158791Y0072000D02*
X0164728Y0072000D01*
X0164728Y0082000D02*
X0158791Y0082000D01*
X0158791Y0092000D02*
X0164728Y0092000D01*
X0164728Y0102000D02*
X0158791Y0102000D01*
X0158791Y0117000D02*
X0164728Y0117000D01*
X0164728Y0127000D02*
X0158791Y0127000D01*
D12*
X0151760Y0142000D03*
X0171760Y0142000D03*
X0171760Y0202000D03*
X0151760Y0202000D03*
D13*
X0153760Y0182000D02*
X0159760Y0182000D01*
X0159760Y0172000D02*
X0153760Y0172000D01*
X0153760Y0162000D02*
X0159760Y0162000D01*
D14*
X0136760Y0157000D03*
X0136760Y0167000D03*
X0136760Y0177000D03*
X0136760Y0187000D03*
X0136760Y0197000D03*
X0136760Y0207000D03*
X0136760Y0147000D03*
X0136760Y0137000D03*
X0136760Y0127000D03*
X0136760Y0117000D03*
X0136760Y0107000D03*
X0136760Y0097000D03*
X0136760Y0087000D03*
X0136760Y0077000D03*
X0136760Y0067000D03*
X0136760Y0057000D03*
X0136760Y0047000D03*
X0136760Y0037000D03*
X0136760Y0027000D03*
X0136760Y0017000D03*
X0046760Y0017000D03*
X0046760Y0027000D03*
X0046760Y0037000D03*
X0046760Y0047000D03*
X0046760Y0057000D03*
X0046760Y0067000D03*
X0046760Y0077000D03*
X0046760Y0087000D03*
X0046760Y0097000D03*
X0046760Y0107000D03*
X0046760Y0117000D03*
X0046760Y0127000D03*
X0046760Y0137000D03*
X0046760Y0147000D03*
X0046760Y0157000D03*
X0046760Y0167000D03*
X0046760Y0177000D03*
X0046760Y0187000D03*
X0046760Y0197000D03*
X0046760Y0207000D03*
M02*
