%
M48
M72
T01C0.03150
T02C0.03200
T03C0.03937
T04C0.04000
T05C0.11811
%
T01
X46760Y17000
X46760Y27000
X46760Y37000
X46760Y47000
X46760Y57000
X46760Y67000
X46760Y77000
X46760Y87000
X46760Y97000
X46760Y107000
X46760Y117000
X46760Y127000
X46760Y137000
X46760Y147000
X46760Y157000
X46760Y167000
X46760Y177000
X46760Y187000
X46760Y197000
X46760Y207000
X136760Y207000
X136760Y197000
X136760Y187000
X136760Y177000
X136760Y167000
X136760Y157000
X136760Y147000
X136760Y137000
X136760Y127000
X136760Y117000
X136760Y107000
X136760Y97000
X136760Y87000
X136760Y77000
X136760Y67000
X136760Y57000
X136760Y47000
X136760Y37000
X136760Y27000
X136760Y17000
T02
X151760Y142000
X171760Y142000
X171760Y202000
X151760Y202000
T03
X161760Y127000
X161760Y117000
X161760Y102000
X161760Y92000
X161760Y82000
X161760Y72000
X161760Y57000
X161760Y47000
X161760Y37000
X161760Y27000
X21760Y47000
X21760Y57000
X21760Y67000
X21760Y77000
X21760Y107000
X21760Y117000
X21760Y127000
X21760Y137000
X21760Y167000
X21760Y177000
T04
X156760Y172000
X156760Y162000
X156760Y182000
T05
X21760Y12000
X161760Y12000
X161760Y217000
X21760Y217000
M30
