G75*
%MOIN*%
%OFA0B0*%
%FSLAX25Y25*%
%IPPOS*%
%LPD*%
%AMOC8*
5,1,8,0,0,1.08239X$1,22.5*
%
%ADD10C,0.00000*%
%ADD11C,0.00600*%
%ADD12C,0.00300*%
%ADD13C,0.00200*%
%ADD14C,0.05937*%
%ADD15OC8,0.06300*%
%ADD16C,0.06000*%
%ADD17C,0.05150*%
D10*
X0006760Y0002000D02*
X0006760Y0226961D01*
X0180461Y0226961D01*
X0180461Y0002000D01*
X0006760Y0002000D01*
X0015854Y0012000D02*
X0015856Y0012153D01*
X0015862Y0012307D01*
X0015872Y0012460D01*
X0015886Y0012612D01*
X0015904Y0012765D01*
X0015926Y0012916D01*
X0015951Y0013067D01*
X0015981Y0013218D01*
X0016015Y0013368D01*
X0016052Y0013516D01*
X0016093Y0013664D01*
X0016138Y0013810D01*
X0016187Y0013956D01*
X0016240Y0014100D01*
X0016296Y0014242D01*
X0016356Y0014383D01*
X0016420Y0014523D01*
X0016487Y0014661D01*
X0016558Y0014797D01*
X0016633Y0014931D01*
X0016710Y0015063D01*
X0016792Y0015193D01*
X0016876Y0015321D01*
X0016964Y0015447D01*
X0017055Y0015570D01*
X0017149Y0015691D01*
X0017247Y0015809D01*
X0017347Y0015925D01*
X0017451Y0016038D01*
X0017557Y0016149D01*
X0017666Y0016257D01*
X0017778Y0016362D01*
X0017892Y0016463D01*
X0018010Y0016562D01*
X0018129Y0016658D01*
X0018251Y0016751D01*
X0018376Y0016840D01*
X0018503Y0016927D01*
X0018632Y0017009D01*
X0018763Y0017089D01*
X0018896Y0017165D01*
X0019031Y0017238D01*
X0019168Y0017307D01*
X0019307Y0017372D01*
X0019447Y0017434D01*
X0019589Y0017492D01*
X0019732Y0017547D01*
X0019877Y0017598D01*
X0020023Y0017645D01*
X0020170Y0017688D01*
X0020318Y0017727D01*
X0020467Y0017763D01*
X0020617Y0017794D01*
X0020768Y0017822D01*
X0020919Y0017846D01*
X0021072Y0017866D01*
X0021224Y0017882D01*
X0021377Y0017894D01*
X0021530Y0017902D01*
X0021683Y0017906D01*
X0021837Y0017906D01*
X0021990Y0017902D01*
X0022143Y0017894D01*
X0022296Y0017882D01*
X0022448Y0017866D01*
X0022601Y0017846D01*
X0022752Y0017822D01*
X0022903Y0017794D01*
X0023053Y0017763D01*
X0023202Y0017727D01*
X0023350Y0017688D01*
X0023497Y0017645D01*
X0023643Y0017598D01*
X0023788Y0017547D01*
X0023931Y0017492D01*
X0024073Y0017434D01*
X0024213Y0017372D01*
X0024352Y0017307D01*
X0024489Y0017238D01*
X0024624Y0017165D01*
X0024757Y0017089D01*
X0024888Y0017009D01*
X0025017Y0016927D01*
X0025144Y0016840D01*
X0025269Y0016751D01*
X0025391Y0016658D01*
X0025510Y0016562D01*
X0025628Y0016463D01*
X0025742Y0016362D01*
X0025854Y0016257D01*
X0025963Y0016149D01*
X0026069Y0016038D01*
X0026173Y0015925D01*
X0026273Y0015809D01*
X0026371Y0015691D01*
X0026465Y0015570D01*
X0026556Y0015447D01*
X0026644Y0015321D01*
X0026728Y0015193D01*
X0026810Y0015063D01*
X0026887Y0014931D01*
X0026962Y0014797D01*
X0027033Y0014661D01*
X0027100Y0014523D01*
X0027164Y0014383D01*
X0027224Y0014242D01*
X0027280Y0014100D01*
X0027333Y0013956D01*
X0027382Y0013810D01*
X0027427Y0013664D01*
X0027468Y0013516D01*
X0027505Y0013368D01*
X0027539Y0013218D01*
X0027569Y0013067D01*
X0027594Y0012916D01*
X0027616Y0012765D01*
X0027634Y0012612D01*
X0027648Y0012460D01*
X0027658Y0012307D01*
X0027664Y0012153D01*
X0027666Y0012000D01*
X0027664Y0011847D01*
X0027658Y0011693D01*
X0027648Y0011540D01*
X0027634Y0011388D01*
X0027616Y0011235D01*
X0027594Y0011084D01*
X0027569Y0010933D01*
X0027539Y0010782D01*
X0027505Y0010632D01*
X0027468Y0010484D01*
X0027427Y0010336D01*
X0027382Y0010190D01*
X0027333Y0010044D01*
X0027280Y0009900D01*
X0027224Y0009758D01*
X0027164Y0009617D01*
X0027100Y0009477D01*
X0027033Y0009339D01*
X0026962Y0009203D01*
X0026887Y0009069D01*
X0026810Y0008937D01*
X0026728Y0008807D01*
X0026644Y0008679D01*
X0026556Y0008553D01*
X0026465Y0008430D01*
X0026371Y0008309D01*
X0026273Y0008191D01*
X0026173Y0008075D01*
X0026069Y0007962D01*
X0025963Y0007851D01*
X0025854Y0007743D01*
X0025742Y0007638D01*
X0025628Y0007537D01*
X0025510Y0007438D01*
X0025391Y0007342D01*
X0025269Y0007249D01*
X0025144Y0007160D01*
X0025017Y0007073D01*
X0024888Y0006991D01*
X0024757Y0006911D01*
X0024624Y0006835D01*
X0024489Y0006762D01*
X0024352Y0006693D01*
X0024213Y0006628D01*
X0024073Y0006566D01*
X0023931Y0006508D01*
X0023788Y0006453D01*
X0023643Y0006402D01*
X0023497Y0006355D01*
X0023350Y0006312D01*
X0023202Y0006273D01*
X0023053Y0006237D01*
X0022903Y0006206D01*
X0022752Y0006178D01*
X0022601Y0006154D01*
X0022448Y0006134D01*
X0022296Y0006118D01*
X0022143Y0006106D01*
X0021990Y0006098D01*
X0021837Y0006094D01*
X0021683Y0006094D01*
X0021530Y0006098D01*
X0021377Y0006106D01*
X0021224Y0006118D01*
X0021072Y0006134D01*
X0020919Y0006154D01*
X0020768Y0006178D01*
X0020617Y0006206D01*
X0020467Y0006237D01*
X0020318Y0006273D01*
X0020170Y0006312D01*
X0020023Y0006355D01*
X0019877Y0006402D01*
X0019732Y0006453D01*
X0019589Y0006508D01*
X0019447Y0006566D01*
X0019307Y0006628D01*
X0019168Y0006693D01*
X0019031Y0006762D01*
X0018896Y0006835D01*
X0018763Y0006911D01*
X0018632Y0006991D01*
X0018503Y0007073D01*
X0018376Y0007160D01*
X0018251Y0007249D01*
X0018129Y0007342D01*
X0018010Y0007438D01*
X0017892Y0007537D01*
X0017778Y0007638D01*
X0017666Y0007743D01*
X0017557Y0007851D01*
X0017451Y0007962D01*
X0017347Y0008075D01*
X0017247Y0008191D01*
X0017149Y0008309D01*
X0017055Y0008430D01*
X0016964Y0008553D01*
X0016876Y0008679D01*
X0016792Y0008807D01*
X0016710Y0008937D01*
X0016633Y0009069D01*
X0016558Y0009203D01*
X0016487Y0009339D01*
X0016420Y0009477D01*
X0016356Y0009617D01*
X0016296Y0009758D01*
X0016240Y0009900D01*
X0016187Y0010044D01*
X0016138Y0010190D01*
X0016093Y0010336D01*
X0016052Y0010484D01*
X0016015Y0010632D01*
X0015981Y0010782D01*
X0015951Y0010933D01*
X0015926Y0011084D01*
X0015904Y0011235D01*
X0015886Y0011388D01*
X0015872Y0011540D01*
X0015862Y0011693D01*
X0015856Y0011847D01*
X0015854Y0012000D01*
X0155854Y0012000D02*
X0155856Y0012153D01*
X0155862Y0012307D01*
X0155872Y0012460D01*
X0155886Y0012612D01*
X0155904Y0012765D01*
X0155926Y0012916D01*
X0155951Y0013067D01*
X0155981Y0013218D01*
X0156015Y0013368D01*
X0156052Y0013516D01*
X0156093Y0013664D01*
X0156138Y0013810D01*
X0156187Y0013956D01*
X0156240Y0014100D01*
X0156296Y0014242D01*
X0156356Y0014383D01*
X0156420Y0014523D01*
X0156487Y0014661D01*
X0156558Y0014797D01*
X0156633Y0014931D01*
X0156710Y0015063D01*
X0156792Y0015193D01*
X0156876Y0015321D01*
X0156964Y0015447D01*
X0157055Y0015570D01*
X0157149Y0015691D01*
X0157247Y0015809D01*
X0157347Y0015925D01*
X0157451Y0016038D01*
X0157557Y0016149D01*
X0157666Y0016257D01*
X0157778Y0016362D01*
X0157892Y0016463D01*
X0158010Y0016562D01*
X0158129Y0016658D01*
X0158251Y0016751D01*
X0158376Y0016840D01*
X0158503Y0016927D01*
X0158632Y0017009D01*
X0158763Y0017089D01*
X0158896Y0017165D01*
X0159031Y0017238D01*
X0159168Y0017307D01*
X0159307Y0017372D01*
X0159447Y0017434D01*
X0159589Y0017492D01*
X0159732Y0017547D01*
X0159877Y0017598D01*
X0160023Y0017645D01*
X0160170Y0017688D01*
X0160318Y0017727D01*
X0160467Y0017763D01*
X0160617Y0017794D01*
X0160768Y0017822D01*
X0160919Y0017846D01*
X0161072Y0017866D01*
X0161224Y0017882D01*
X0161377Y0017894D01*
X0161530Y0017902D01*
X0161683Y0017906D01*
X0161837Y0017906D01*
X0161990Y0017902D01*
X0162143Y0017894D01*
X0162296Y0017882D01*
X0162448Y0017866D01*
X0162601Y0017846D01*
X0162752Y0017822D01*
X0162903Y0017794D01*
X0163053Y0017763D01*
X0163202Y0017727D01*
X0163350Y0017688D01*
X0163497Y0017645D01*
X0163643Y0017598D01*
X0163788Y0017547D01*
X0163931Y0017492D01*
X0164073Y0017434D01*
X0164213Y0017372D01*
X0164352Y0017307D01*
X0164489Y0017238D01*
X0164624Y0017165D01*
X0164757Y0017089D01*
X0164888Y0017009D01*
X0165017Y0016927D01*
X0165144Y0016840D01*
X0165269Y0016751D01*
X0165391Y0016658D01*
X0165510Y0016562D01*
X0165628Y0016463D01*
X0165742Y0016362D01*
X0165854Y0016257D01*
X0165963Y0016149D01*
X0166069Y0016038D01*
X0166173Y0015925D01*
X0166273Y0015809D01*
X0166371Y0015691D01*
X0166465Y0015570D01*
X0166556Y0015447D01*
X0166644Y0015321D01*
X0166728Y0015193D01*
X0166810Y0015063D01*
X0166887Y0014931D01*
X0166962Y0014797D01*
X0167033Y0014661D01*
X0167100Y0014523D01*
X0167164Y0014383D01*
X0167224Y0014242D01*
X0167280Y0014100D01*
X0167333Y0013956D01*
X0167382Y0013810D01*
X0167427Y0013664D01*
X0167468Y0013516D01*
X0167505Y0013368D01*
X0167539Y0013218D01*
X0167569Y0013067D01*
X0167594Y0012916D01*
X0167616Y0012765D01*
X0167634Y0012612D01*
X0167648Y0012460D01*
X0167658Y0012307D01*
X0167664Y0012153D01*
X0167666Y0012000D01*
X0167664Y0011847D01*
X0167658Y0011693D01*
X0167648Y0011540D01*
X0167634Y0011388D01*
X0167616Y0011235D01*
X0167594Y0011084D01*
X0167569Y0010933D01*
X0167539Y0010782D01*
X0167505Y0010632D01*
X0167468Y0010484D01*
X0167427Y0010336D01*
X0167382Y0010190D01*
X0167333Y0010044D01*
X0167280Y0009900D01*
X0167224Y0009758D01*
X0167164Y0009617D01*
X0167100Y0009477D01*
X0167033Y0009339D01*
X0166962Y0009203D01*
X0166887Y0009069D01*
X0166810Y0008937D01*
X0166728Y0008807D01*
X0166644Y0008679D01*
X0166556Y0008553D01*
X0166465Y0008430D01*
X0166371Y0008309D01*
X0166273Y0008191D01*
X0166173Y0008075D01*
X0166069Y0007962D01*
X0165963Y0007851D01*
X0165854Y0007743D01*
X0165742Y0007638D01*
X0165628Y0007537D01*
X0165510Y0007438D01*
X0165391Y0007342D01*
X0165269Y0007249D01*
X0165144Y0007160D01*
X0165017Y0007073D01*
X0164888Y0006991D01*
X0164757Y0006911D01*
X0164624Y0006835D01*
X0164489Y0006762D01*
X0164352Y0006693D01*
X0164213Y0006628D01*
X0164073Y0006566D01*
X0163931Y0006508D01*
X0163788Y0006453D01*
X0163643Y0006402D01*
X0163497Y0006355D01*
X0163350Y0006312D01*
X0163202Y0006273D01*
X0163053Y0006237D01*
X0162903Y0006206D01*
X0162752Y0006178D01*
X0162601Y0006154D01*
X0162448Y0006134D01*
X0162296Y0006118D01*
X0162143Y0006106D01*
X0161990Y0006098D01*
X0161837Y0006094D01*
X0161683Y0006094D01*
X0161530Y0006098D01*
X0161377Y0006106D01*
X0161224Y0006118D01*
X0161072Y0006134D01*
X0160919Y0006154D01*
X0160768Y0006178D01*
X0160617Y0006206D01*
X0160467Y0006237D01*
X0160318Y0006273D01*
X0160170Y0006312D01*
X0160023Y0006355D01*
X0159877Y0006402D01*
X0159732Y0006453D01*
X0159589Y0006508D01*
X0159447Y0006566D01*
X0159307Y0006628D01*
X0159168Y0006693D01*
X0159031Y0006762D01*
X0158896Y0006835D01*
X0158763Y0006911D01*
X0158632Y0006991D01*
X0158503Y0007073D01*
X0158376Y0007160D01*
X0158251Y0007249D01*
X0158129Y0007342D01*
X0158010Y0007438D01*
X0157892Y0007537D01*
X0157778Y0007638D01*
X0157666Y0007743D01*
X0157557Y0007851D01*
X0157451Y0007962D01*
X0157347Y0008075D01*
X0157247Y0008191D01*
X0157149Y0008309D01*
X0157055Y0008430D01*
X0156964Y0008553D01*
X0156876Y0008679D01*
X0156792Y0008807D01*
X0156710Y0008937D01*
X0156633Y0009069D01*
X0156558Y0009203D01*
X0156487Y0009339D01*
X0156420Y0009477D01*
X0156356Y0009617D01*
X0156296Y0009758D01*
X0156240Y0009900D01*
X0156187Y0010044D01*
X0156138Y0010190D01*
X0156093Y0010336D01*
X0156052Y0010484D01*
X0156015Y0010632D01*
X0155981Y0010782D01*
X0155951Y0010933D01*
X0155926Y0011084D01*
X0155904Y0011235D01*
X0155886Y0011388D01*
X0155872Y0011540D01*
X0155862Y0011693D01*
X0155856Y0011847D01*
X0155854Y0012000D01*
X0155854Y0217000D02*
X0155856Y0217153D01*
X0155862Y0217307D01*
X0155872Y0217460D01*
X0155886Y0217612D01*
X0155904Y0217765D01*
X0155926Y0217916D01*
X0155951Y0218067D01*
X0155981Y0218218D01*
X0156015Y0218368D01*
X0156052Y0218516D01*
X0156093Y0218664D01*
X0156138Y0218810D01*
X0156187Y0218956D01*
X0156240Y0219100D01*
X0156296Y0219242D01*
X0156356Y0219383D01*
X0156420Y0219523D01*
X0156487Y0219661D01*
X0156558Y0219797D01*
X0156633Y0219931D01*
X0156710Y0220063D01*
X0156792Y0220193D01*
X0156876Y0220321D01*
X0156964Y0220447D01*
X0157055Y0220570D01*
X0157149Y0220691D01*
X0157247Y0220809D01*
X0157347Y0220925D01*
X0157451Y0221038D01*
X0157557Y0221149D01*
X0157666Y0221257D01*
X0157778Y0221362D01*
X0157892Y0221463D01*
X0158010Y0221562D01*
X0158129Y0221658D01*
X0158251Y0221751D01*
X0158376Y0221840D01*
X0158503Y0221927D01*
X0158632Y0222009D01*
X0158763Y0222089D01*
X0158896Y0222165D01*
X0159031Y0222238D01*
X0159168Y0222307D01*
X0159307Y0222372D01*
X0159447Y0222434D01*
X0159589Y0222492D01*
X0159732Y0222547D01*
X0159877Y0222598D01*
X0160023Y0222645D01*
X0160170Y0222688D01*
X0160318Y0222727D01*
X0160467Y0222763D01*
X0160617Y0222794D01*
X0160768Y0222822D01*
X0160919Y0222846D01*
X0161072Y0222866D01*
X0161224Y0222882D01*
X0161377Y0222894D01*
X0161530Y0222902D01*
X0161683Y0222906D01*
X0161837Y0222906D01*
X0161990Y0222902D01*
X0162143Y0222894D01*
X0162296Y0222882D01*
X0162448Y0222866D01*
X0162601Y0222846D01*
X0162752Y0222822D01*
X0162903Y0222794D01*
X0163053Y0222763D01*
X0163202Y0222727D01*
X0163350Y0222688D01*
X0163497Y0222645D01*
X0163643Y0222598D01*
X0163788Y0222547D01*
X0163931Y0222492D01*
X0164073Y0222434D01*
X0164213Y0222372D01*
X0164352Y0222307D01*
X0164489Y0222238D01*
X0164624Y0222165D01*
X0164757Y0222089D01*
X0164888Y0222009D01*
X0165017Y0221927D01*
X0165144Y0221840D01*
X0165269Y0221751D01*
X0165391Y0221658D01*
X0165510Y0221562D01*
X0165628Y0221463D01*
X0165742Y0221362D01*
X0165854Y0221257D01*
X0165963Y0221149D01*
X0166069Y0221038D01*
X0166173Y0220925D01*
X0166273Y0220809D01*
X0166371Y0220691D01*
X0166465Y0220570D01*
X0166556Y0220447D01*
X0166644Y0220321D01*
X0166728Y0220193D01*
X0166810Y0220063D01*
X0166887Y0219931D01*
X0166962Y0219797D01*
X0167033Y0219661D01*
X0167100Y0219523D01*
X0167164Y0219383D01*
X0167224Y0219242D01*
X0167280Y0219100D01*
X0167333Y0218956D01*
X0167382Y0218810D01*
X0167427Y0218664D01*
X0167468Y0218516D01*
X0167505Y0218368D01*
X0167539Y0218218D01*
X0167569Y0218067D01*
X0167594Y0217916D01*
X0167616Y0217765D01*
X0167634Y0217612D01*
X0167648Y0217460D01*
X0167658Y0217307D01*
X0167664Y0217153D01*
X0167666Y0217000D01*
X0167664Y0216847D01*
X0167658Y0216693D01*
X0167648Y0216540D01*
X0167634Y0216388D01*
X0167616Y0216235D01*
X0167594Y0216084D01*
X0167569Y0215933D01*
X0167539Y0215782D01*
X0167505Y0215632D01*
X0167468Y0215484D01*
X0167427Y0215336D01*
X0167382Y0215190D01*
X0167333Y0215044D01*
X0167280Y0214900D01*
X0167224Y0214758D01*
X0167164Y0214617D01*
X0167100Y0214477D01*
X0167033Y0214339D01*
X0166962Y0214203D01*
X0166887Y0214069D01*
X0166810Y0213937D01*
X0166728Y0213807D01*
X0166644Y0213679D01*
X0166556Y0213553D01*
X0166465Y0213430D01*
X0166371Y0213309D01*
X0166273Y0213191D01*
X0166173Y0213075D01*
X0166069Y0212962D01*
X0165963Y0212851D01*
X0165854Y0212743D01*
X0165742Y0212638D01*
X0165628Y0212537D01*
X0165510Y0212438D01*
X0165391Y0212342D01*
X0165269Y0212249D01*
X0165144Y0212160D01*
X0165017Y0212073D01*
X0164888Y0211991D01*
X0164757Y0211911D01*
X0164624Y0211835D01*
X0164489Y0211762D01*
X0164352Y0211693D01*
X0164213Y0211628D01*
X0164073Y0211566D01*
X0163931Y0211508D01*
X0163788Y0211453D01*
X0163643Y0211402D01*
X0163497Y0211355D01*
X0163350Y0211312D01*
X0163202Y0211273D01*
X0163053Y0211237D01*
X0162903Y0211206D01*
X0162752Y0211178D01*
X0162601Y0211154D01*
X0162448Y0211134D01*
X0162296Y0211118D01*
X0162143Y0211106D01*
X0161990Y0211098D01*
X0161837Y0211094D01*
X0161683Y0211094D01*
X0161530Y0211098D01*
X0161377Y0211106D01*
X0161224Y0211118D01*
X0161072Y0211134D01*
X0160919Y0211154D01*
X0160768Y0211178D01*
X0160617Y0211206D01*
X0160467Y0211237D01*
X0160318Y0211273D01*
X0160170Y0211312D01*
X0160023Y0211355D01*
X0159877Y0211402D01*
X0159732Y0211453D01*
X0159589Y0211508D01*
X0159447Y0211566D01*
X0159307Y0211628D01*
X0159168Y0211693D01*
X0159031Y0211762D01*
X0158896Y0211835D01*
X0158763Y0211911D01*
X0158632Y0211991D01*
X0158503Y0212073D01*
X0158376Y0212160D01*
X0158251Y0212249D01*
X0158129Y0212342D01*
X0158010Y0212438D01*
X0157892Y0212537D01*
X0157778Y0212638D01*
X0157666Y0212743D01*
X0157557Y0212851D01*
X0157451Y0212962D01*
X0157347Y0213075D01*
X0157247Y0213191D01*
X0157149Y0213309D01*
X0157055Y0213430D01*
X0156964Y0213553D01*
X0156876Y0213679D01*
X0156792Y0213807D01*
X0156710Y0213937D01*
X0156633Y0214069D01*
X0156558Y0214203D01*
X0156487Y0214339D01*
X0156420Y0214477D01*
X0156356Y0214617D01*
X0156296Y0214758D01*
X0156240Y0214900D01*
X0156187Y0215044D01*
X0156138Y0215190D01*
X0156093Y0215336D01*
X0156052Y0215484D01*
X0156015Y0215632D01*
X0155981Y0215782D01*
X0155951Y0215933D01*
X0155926Y0216084D01*
X0155904Y0216235D01*
X0155886Y0216388D01*
X0155872Y0216540D01*
X0155862Y0216693D01*
X0155856Y0216847D01*
X0155854Y0217000D01*
X0015854Y0217000D02*
X0015856Y0217153D01*
X0015862Y0217307D01*
X0015872Y0217460D01*
X0015886Y0217612D01*
X0015904Y0217765D01*
X0015926Y0217916D01*
X0015951Y0218067D01*
X0015981Y0218218D01*
X0016015Y0218368D01*
X0016052Y0218516D01*
X0016093Y0218664D01*
X0016138Y0218810D01*
X0016187Y0218956D01*
X0016240Y0219100D01*
X0016296Y0219242D01*
X0016356Y0219383D01*
X0016420Y0219523D01*
X0016487Y0219661D01*
X0016558Y0219797D01*
X0016633Y0219931D01*
X0016710Y0220063D01*
X0016792Y0220193D01*
X0016876Y0220321D01*
X0016964Y0220447D01*
X0017055Y0220570D01*
X0017149Y0220691D01*
X0017247Y0220809D01*
X0017347Y0220925D01*
X0017451Y0221038D01*
X0017557Y0221149D01*
X0017666Y0221257D01*
X0017778Y0221362D01*
X0017892Y0221463D01*
X0018010Y0221562D01*
X0018129Y0221658D01*
X0018251Y0221751D01*
X0018376Y0221840D01*
X0018503Y0221927D01*
X0018632Y0222009D01*
X0018763Y0222089D01*
X0018896Y0222165D01*
X0019031Y0222238D01*
X0019168Y0222307D01*
X0019307Y0222372D01*
X0019447Y0222434D01*
X0019589Y0222492D01*
X0019732Y0222547D01*
X0019877Y0222598D01*
X0020023Y0222645D01*
X0020170Y0222688D01*
X0020318Y0222727D01*
X0020467Y0222763D01*
X0020617Y0222794D01*
X0020768Y0222822D01*
X0020919Y0222846D01*
X0021072Y0222866D01*
X0021224Y0222882D01*
X0021377Y0222894D01*
X0021530Y0222902D01*
X0021683Y0222906D01*
X0021837Y0222906D01*
X0021990Y0222902D01*
X0022143Y0222894D01*
X0022296Y0222882D01*
X0022448Y0222866D01*
X0022601Y0222846D01*
X0022752Y0222822D01*
X0022903Y0222794D01*
X0023053Y0222763D01*
X0023202Y0222727D01*
X0023350Y0222688D01*
X0023497Y0222645D01*
X0023643Y0222598D01*
X0023788Y0222547D01*
X0023931Y0222492D01*
X0024073Y0222434D01*
X0024213Y0222372D01*
X0024352Y0222307D01*
X0024489Y0222238D01*
X0024624Y0222165D01*
X0024757Y0222089D01*
X0024888Y0222009D01*
X0025017Y0221927D01*
X0025144Y0221840D01*
X0025269Y0221751D01*
X0025391Y0221658D01*
X0025510Y0221562D01*
X0025628Y0221463D01*
X0025742Y0221362D01*
X0025854Y0221257D01*
X0025963Y0221149D01*
X0026069Y0221038D01*
X0026173Y0220925D01*
X0026273Y0220809D01*
X0026371Y0220691D01*
X0026465Y0220570D01*
X0026556Y0220447D01*
X0026644Y0220321D01*
X0026728Y0220193D01*
X0026810Y0220063D01*
X0026887Y0219931D01*
X0026962Y0219797D01*
X0027033Y0219661D01*
X0027100Y0219523D01*
X0027164Y0219383D01*
X0027224Y0219242D01*
X0027280Y0219100D01*
X0027333Y0218956D01*
X0027382Y0218810D01*
X0027427Y0218664D01*
X0027468Y0218516D01*
X0027505Y0218368D01*
X0027539Y0218218D01*
X0027569Y0218067D01*
X0027594Y0217916D01*
X0027616Y0217765D01*
X0027634Y0217612D01*
X0027648Y0217460D01*
X0027658Y0217307D01*
X0027664Y0217153D01*
X0027666Y0217000D01*
X0027664Y0216847D01*
X0027658Y0216693D01*
X0027648Y0216540D01*
X0027634Y0216388D01*
X0027616Y0216235D01*
X0027594Y0216084D01*
X0027569Y0215933D01*
X0027539Y0215782D01*
X0027505Y0215632D01*
X0027468Y0215484D01*
X0027427Y0215336D01*
X0027382Y0215190D01*
X0027333Y0215044D01*
X0027280Y0214900D01*
X0027224Y0214758D01*
X0027164Y0214617D01*
X0027100Y0214477D01*
X0027033Y0214339D01*
X0026962Y0214203D01*
X0026887Y0214069D01*
X0026810Y0213937D01*
X0026728Y0213807D01*
X0026644Y0213679D01*
X0026556Y0213553D01*
X0026465Y0213430D01*
X0026371Y0213309D01*
X0026273Y0213191D01*
X0026173Y0213075D01*
X0026069Y0212962D01*
X0025963Y0212851D01*
X0025854Y0212743D01*
X0025742Y0212638D01*
X0025628Y0212537D01*
X0025510Y0212438D01*
X0025391Y0212342D01*
X0025269Y0212249D01*
X0025144Y0212160D01*
X0025017Y0212073D01*
X0024888Y0211991D01*
X0024757Y0211911D01*
X0024624Y0211835D01*
X0024489Y0211762D01*
X0024352Y0211693D01*
X0024213Y0211628D01*
X0024073Y0211566D01*
X0023931Y0211508D01*
X0023788Y0211453D01*
X0023643Y0211402D01*
X0023497Y0211355D01*
X0023350Y0211312D01*
X0023202Y0211273D01*
X0023053Y0211237D01*
X0022903Y0211206D01*
X0022752Y0211178D01*
X0022601Y0211154D01*
X0022448Y0211134D01*
X0022296Y0211118D01*
X0022143Y0211106D01*
X0021990Y0211098D01*
X0021837Y0211094D01*
X0021683Y0211094D01*
X0021530Y0211098D01*
X0021377Y0211106D01*
X0021224Y0211118D01*
X0021072Y0211134D01*
X0020919Y0211154D01*
X0020768Y0211178D01*
X0020617Y0211206D01*
X0020467Y0211237D01*
X0020318Y0211273D01*
X0020170Y0211312D01*
X0020023Y0211355D01*
X0019877Y0211402D01*
X0019732Y0211453D01*
X0019589Y0211508D01*
X0019447Y0211566D01*
X0019307Y0211628D01*
X0019168Y0211693D01*
X0019031Y0211762D01*
X0018896Y0211835D01*
X0018763Y0211911D01*
X0018632Y0211991D01*
X0018503Y0212073D01*
X0018376Y0212160D01*
X0018251Y0212249D01*
X0018129Y0212342D01*
X0018010Y0212438D01*
X0017892Y0212537D01*
X0017778Y0212638D01*
X0017666Y0212743D01*
X0017557Y0212851D01*
X0017451Y0212962D01*
X0017347Y0213075D01*
X0017247Y0213191D01*
X0017149Y0213309D01*
X0017055Y0213430D01*
X0016964Y0213553D01*
X0016876Y0213679D01*
X0016792Y0213807D01*
X0016710Y0213937D01*
X0016633Y0214069D01*
X0016558Y0214203D01*
X0016487Y0214339D01*
X0016420Y0214477D01*
X0016356Y0214617D01*
X0016296Y0214758D01*
X0016240Y0214900D01*
X0016187Y0215044D01*
X0016138Y0215190D01*
X0016093Y0215336D01*
X0016052Y0215484D01*
X0016015Y0215632D01*
X0015981Y0215782D01*
X0015951Y0215933D01*
X0015926Y0216084D01*
X0015904Y0216235D01*
X0015886Y0216388D01*
X0015872Y0216540D01*
X0015862Y0216693D01*
X0015856Y0216847D01*
X0015854Y0217000D01*
D11*
X0067060Y0218705D02*
X0067060Y0212300D01*
X0071330Y0212300D02*
X0071330Y0218705D01*
X0069195Y0216570D01*
X0067060Y0218705D01*
X0073505Y0218705D02*
X0073505Y0212300D01*
X0076708Y0212300D01*
X0077776Y0213368D01*
X0077776Y0214435D01*
X0076708Y0215503D01*
X0073505Y0215503D01*
X0073505Y0218705D02*
X0076708Y0218705D01*
X0077776Y0217638D01*
X0077776Y0216570D01*
X0076708Y0215503D01*
X0079951Y0215503D02*
X0082086Y0215503D01*
X0079951Y0218705D02*
X0079951Y0212300D01*
X0084221Y0212300D01*
X0086396Y0212300D02*
X0089599Y0212300D01*
X0090667Y0213368D01*
X0090667Y0217638D01*
X0089599Y0218705D01*
X0086396Y0218705D01*
X0086396Y0212300D01*
X0084221Y0218705D02*
X0079951Y0218705D01*
X0099287Y0215503D02*
X0103558Y0215503D01*
X0112178Y0213368D02*
X0113246Y0212300D01*
X0115381Y0212300D01*
X0116449Y0213368D01*
X0116449Y0218705D01*
X0118624Y0217638D02*
X0118624Y0216570D01*
X0119692Y0215503D01*
X0121827Y0215503D01*
X0122894Y0214435D01*
X0122894Y0213368D01*
X0121827Y0212300D01*
X0119692Y0212300D01*
X0118624Y0213368D01*
X0118624Y0217638D02*
X0119692Y0218705D01*
X0121827Y0218705D01*
X0122894Y0217638D01*
X0125069Y0218705D02*
X0128272Y0218705D01*
X0129340Y0217638D01*
X0129340Y0216570D01*
X0128272Y0215503D01*
X0125069Y0215503D01*
X0125069Y0218705D02*
X0125069Y0212300D01*
X0128272Y0212300D01*
X0129340Y0213368D01*
X0129340Y0214435D01*
X0128272Y0215503D01*
X0112178Y0213368D02*
X0112178Y0218705D01*
D12*
X0141910Y0110853D02*
X0143144Y0110853D01*
X0142527Y0110853D02*
X0142527Y0107150D01*
X0141910Y0107150D02*
X0143144Y0107150D01*
X0144365Y0107150D02*
X0146834Y0109619D01*
X0146834Y0110236D01*
X0146217Y0110853D01*
X0144983Y0110853D01*
X0144365Y0110236D01*
X0144365Y0107150D02*
X0146834Y0107150D01*
X0148049Y0107767D02*
X0148049Y0110236D01*
X0148666Y0110853D01*
X0149900Y0110853D01*
X0150517Y0110236D01*
X0150517Y0107767D02*
X0149900Y0107150D01*
X0148666Y0107150D01*
X0148049Y0107767D01*
X0146610Y0031104D02*
X0146610Y0028635D01*
X0146610Y0029869D02*
X0142907Y0029869D01*
X0144141Y0028635D01*
X0144141Y0027417D02*
X0144141Y0026800D01*
X0145376Y0025566D01*
X0146610Y0025566D02*
X0144141Y0025566D01*
X0144141Y0024351D02*
X0146610Y0024351D01*
X0146610Y0022500D01*
X0145993Y0021883D01*
X0144141Y0021883D01*
X0144758Y0020668D02*
X0145376Y0020668D01*
X0145376Y0018199D01*
X0145993Y0018199D02*
X0144758Y0018199D01*
X0144141Y0018817D01*
X0144141Y0020051D01*
X0144758Y0020668D01*
X0146610Y0020051D02*
X0146610Y0018817D01*
X0145993Y0018199D01*
X0146610Y0016985D02*
X0146610Y0015133D01*
X0145993Y0014516D01*
X0144758Y0014516D01*
X0144141Y0015133D01*
X0144141Y0016985D01*
X0142907Y0016985D02*
X0146610Y0016985D01*
X0145993Y0013302D02*
X0144758Y0013302D01*
X0144141Y0012685D01*
X0144141Y0011450D01*
X0144758Y0010833D01*
X0145993Y0010833D01*
X0146610Y0011450D01*
X0146610Y0012685D01*
X0145993Y0013302D01*
X0145993Y0009619D02*
X0146610Y0009002D01*
X0146610Y0007767D01*
X0145993Y0007150D01*
X0143524Y0007150D01*
X0142907Y0007767D01*
X0142907Y0009002D01*
X0143524Y0009619D01*
X0035864Y0037150D02*
X0033395Y0037150D01*
X0035864Y0039619D01*
X0035864Y0040236D01*
X0035247Y0040853D01*
X0034012Y0040853D01*
X0033395Y0040236D01*
X0032177Y0039619D02*
X0031560Y0039619D01*
X0030326Y0038384D01*
X0030326Y0037150D02*
X0030326Y0039619D01*
X0029111Y0039619D02*
X0029111Y0037150D01*
X0027260Y0037150D01*
X0026643Y0037767D01*
X0026643Y0039619D01*
X0025428Y0039002D02*
X0025428Y0038384D01*
X0022959Y0038384D01*
X0022959Y0037767D02*
X0022959Y0039002D01*
X0023577Y0039619D01*
X0024811Y0039619D01*
X0025428Y0039002D01*
X0024811Y0037150D02*
X0023577Y0037150D01*
X0022959Y0037767D01*
X0021745Y0037150D02*
X0021745Y0040853D01*
X0021745Y0039619D02*
X0019893Y0039619D01*
X0019276Y0039002D01*
X0019276Y0037767D01*
X0019893Y0037150D01*
X0021745Y0037150D01*
X0018062Y0037767D02*
X0018062Y0039002D01*
X0017445Y0039619D01*
X0016210Y0039619D01*
X0015593Y0039002D01*
X0015593Y0037767D01*
X0016210Y0037150D01*
X0017445Y0037150D01*
X0018062Y0037767D01*
X0014379Y0037767D02*
X0013762Y0037150D01*
X0012527Y0037150D01*
X0011910Y0037767D01*
X0011910Y0040236D01*
X0012527Y0040853D01*
X0013762Y0040853D01*
X0014379Y0040236D01*
X0016910Y0097150D02*
X0018144Y0097150D01*
X0017527Y0097150D02*
X0017527Y0100853D01*
X0016910Y0100853D02*
X0018144Y0100853D01*
X0019365Y0100236D02*
X0019983Y0100853D01*
X0021217Y0100853D01*
X0021834Y0100236D01*
X0021834Y0099619D01*
X0019365Y0097150D01*
X0021834Y0097150D01*
X0023049Y0097767D02*
X0023049Y0100236D01*
X0023666Y0100853D01*
X0024900Y0100853D01*
X0025517Y0100236D01*
X0025517Y0097767D02*
X0024900Y0097150D01*
X0023666Y0097150D01*
X0023049Y0097767D01*
D13*
X0039458Y0112467D02*
X0039825Y0112100D01*
X0040192Y0112100D01*
X0040559Y0112467D01*
X0040559Y0113201D01*
X0040926Y0113568D01*
X0041293Y0113568D01*
X0041660Y0113201D01*
X0041660Y0112467D01*
X0041293Y0112100D01*
X0039458Y0112467D02*
X0039458Y0113201D01*
X0039825Y0113568D01*
X0039825Y0114310D02*
X0041293Y0114310D01*
X0041660Y0114677D01*
X0041660Y0115411D01*
X0041293Y0115778D01*
X0041660Y0116520D02*
X0041660Y0117988D01*
X0041660Y0116520D02*
X0039458Y0116520D01*
X0039825Y0115778D02*
X0039458Y0115411D01*
X0039458Y0114677D01*
X0039825Y0114310D01*
X0039825Y0127100D02*
X0040192Y0127100D01*
X0040559Y0127467D01*
X0040559Y0128201D01*
X0040926Y0128568D01*
X0041293Y0128568D01*
X0041660Y0128201D01*
X0041660Y0127467D01*
X0041293Y0127100D01*
X0039825Y0127100D02*
X0039458Y0127467D01*
X0039458Y0128201D01*
X0039825Y0128568D01*
X0039458Y0129310D02*
X0039458Y0130411D01*
X0039825Y0130778D01*
X0041293Y0130778D01*
X0041660Y0130411D01*
X0041660Y0129310D01*
X0039458Y0129310D01*
X0040192Y0131520D02*
X0039458Y0132254D01*
X0040192Y0132988D01*
X0041660Y0132988D01*
X0040559Y0132988D02*
X0040559Y0131520D01*
X0040192Y0131520D02*
X0041660Y0131520D01*
X0026433Y0157100D02*
X0026066Y0157467D01*
X0026066Y0158935D01*
X0025700Y0158568D02*
X0026433Y0158568D01*
X0024958Y0158201D02*
X0024958Y0157834D01*
X0023490Y0157834D01*
X0023490Y0158201D02*
X0023857Y0158568D01*
X0024591Y0158568D01*
X0024958Y0158201D01*
X0024591Y0157100D02*
X0023857Y0157100D01*
X0023490Y0157467D01*
X0023490Y0158201D01*
X0022748Y0158568D02*
X0021647Y0158568D01*
X0021280Y0158201D01*
X0021647Y0157834D01*
X0022381Y0157834D01*
X0022748Y0157467D01*
X0022381Y0157100D01*
X0021280Y0157100D01*
X0020538Y0157834D02*
X0019070Y0157834D01*
X0019070Y0158201D02*
X0019437Y0158568D01*
X0020171Y0158568D01*
X0020538Y0158201D01*
X0020538Y0157834D01*
X0020171Y0157100D02*
X0019437Y0157100D01*
X0019070Y0157467D01*
X0019070Y0158201D01*
X0018328Y0158201D02*
X0018328Y0158935D01*
X0017961Y0159302D01*
X0016860Y0159302D01*
X0016860Y0157100D01*
X0016860Y0157834D02*
X0017961Y0157834D01*
X0018328Y0158201D01*
X0017594Y0157834D02*
X0018328Y0157100D01*
X0144458Y0092254D02*
X0145192Y0091520D01*
X0146660Y0091520D01*
X0146293Y0090778D02*
X0144825Y0090778D01*
X0144458Y0090411D01*
X0144458Y0089310D01*
X0146660Y0089310D01*
X0146660Y0090411D01*
X0146293Y0090778D01*
X0145559Y0091520D02*
X0145559Y0092988D01*
X0145192Y0092988D02*
X0146660Y0092988D01*
X0145192Y0092988D02*
X0144458Y0092254D01*
X0144825Y0088568D02*
X0144458Y0088201D01*
X0144458Y0087467D01*
X0144825Y0087100D01*
X0145192Y0087100D01*
X0145559Y0087467D01*
X0145559Y0088201D01*
X0145926Y0088568D01*
X0146293Y0088568D01*
X0146660Y0088201D01*
X0146660Y0087467D01*
X0146293Y0087100D01*
X0146660Y0077988D02*
X0146660Y0076520D01*
X0144458Y0076520D01*
X0144825Y0075778D02*
X0144458Y0075411D01*
X0144458Y0074677D01*
X0144825Y0074310D01*
X0146293Y0074310D01*
X0146660Y0074677D01*
X0146660Y0075411D01*
X0146293Y0075778D01*
X0146293Y0073568D02*
X0145926Y0073568D01*
X0145559Y0073201D01*
X0145559Y0072467D01*
X0145192Y0072100D01*
X0144825Y0072100D01*
X0144458Y0072467D01*
X0144458Y0073201D01*
X0144825Y0073568D01*
X0146293Y0073568D02*
X0146660Y0073201D01*
X0146660Y0072467D01*
X0146293Y0072100D01*
D14*
X0158791Y0072000D02*
X0164728Y0072000D01*
X0164728Y0082000D02*
X0158791Y0082000D01*
X0158791Y0092000D02*
X0164728Y0092000D01*
X0164728Y0102000D02*
X0158791Y0102000D01*
X0158791Y0117000D02*
X0164728Y0117000D01*
X0164728Y0127000D02*
X0158791Y0127000D01*
X0158791Y0057000D02*
X0164728Y0057000D01*
X0164728Y0047000D02*
X0158791Y0047000D01*
X0158791Y0037000D02*
X0164728Y0037000D01*
X0164728Y0027000D02*
X0158791Y0027000D01*
X0024728Y0047000D02*
X0018791Y0047000D01*
X0018791Y0057000D02*
X0024728Y0057000D01*
X0024728Y0067000D02*
X0018791Y0067000D01*
X0018791Y0077000D02*
X0024728Y0077000D01*
X0024728Y0107000D02*
X0018791Y0107000D01*
X0018791Y0117000D02*
X0024728Y0117000D01*
X0024728Y0127000D02*
X0018791Y0127000D01*
X0018791Y0137000D02*
X0024728Y0137000D01*
X0024728Y0167000D02*
X0018791Y0167000D01*
X0018791Y0177000D02*
X0024728Y0177000D01*
D15*
X0151760Y0202000D03*
X0171760Y0202000D03*
X0171760Y0142000D03*
X0151760Y0142000D03*
D16*
X0153760Y0162000D02*
X0159760Y0162000D01*
X0159760Y0172000D02*
X0153760Y0172000D01*
X0153760Y0182000D02*
X0159760Y0182000D01*
D17*
X0136760Y0177000D03*
X0136760Y0167000D03*
X0136760Y0157000D03*
X0136760Y0147000D03*
X0136760Y0137000D03*
X0136760Y0127000D03*
X0136760Y0117000D03*
X0136760Y0107000D03*
X0136760Y0097000D03*
X0136760Y0087000D03*
X0136760Y0077000D03*
X0136760Y0067000D03*
X0136760Y0057000D03*
X0136760Y0047000D03*
X0136760Y0037000D03*
X0136760Y0027000D03*
X0136760Y0017000D03*
X0046760Y0017000D03*
X0046760Y0027000D03*
X0046760Y0037000D03*
X0046760Y0047000D03*
X0046760Y0057000D03*
X0046760Y0067000D03*
X0046760Y0077000D03*
X0046760Y0087000D03*
X0046760Y0097000D03*
X0046760Y0107000D03*
X0046760Y0117000D03*
X0046760Y0127000D03*
X0046760Y0137000D03*
X0046760Y0147000D03*
X0046760Y0157000D03*
X0046760Y0167000D03*
X0046760Y0177000D03*
X0046760Y0187000D03*
X0046760Y0197000D03*
X0046760Y0207000D03*
X0136760Y0207000D03*
X0136760Y0197000D03*
X0136760Y0187000D03*
M02*
