%TF.GenerationSoftware,KiCad,Pcbnew,9.0.7-9.0.7~ubuntu24.04.1*%
%TF.CreationDate,2026-03-23T21:50:19+01:00*%
%TF.ProjectId,iasserv,69617373-6572-4762-9e6b-696361645f70,rev?*%
%TF.SameCoordinates,Original*%
%TF.FileFunction,Copper,L3,Inr*%
%TF.FilePolarity,Positive*%
%FSLAX46Y46*%
G04 Gerber Fmt 4.6, Leading zero omitted, Abs format (unit mm)*
G04 Created by KiCad (PCBNEW 9.0.7-9.0.7~ubuntu24.04.1) date 2026-03-23 21:50:19*
%MOMM*%
%LPD*%
G01*
G04 APERTURE LIST*
G04 Aperture macros list*
%AMRoundRect*
0 Rectangle with rounded corners*
0 $1 Rounding radius*
0 $2 $3 $4 $5 $6 $7 $8 $9 X,Y pos of 4 corners*
0 Add a 4 corners polygon primitive as box body*
4,1,4,$2,$3,$4,$5,$6,$7,$8,$9,$2,$3,0*
0 Add four circle primitives for the rounded corners*
1,1,$1+$1,$2,$3*
1,1,$1+$1,$4,$5*
1,1,$1+$1,$6,$7*
1,1,$1+$1,$8,$9*
0 Add four rect primitives between the rounded corners*
20,1,$1+$1,$2,$3,$4,$5,0*
20,1,$1+$1,$4,$5,$6,$7,0*
20,1,$1+$1,$6,$7,$8,$9,0*
20,1,$1+$1,$8,$9,$2,$3,0*%
G04 Aperture macros list end*
%TA.AperFunction,ComponentPad*%
%ADD10RoundRect,0.250000X0.600000X0.725000X-0.600000X0.725000X-0.600000X-0.725000X0.600000X-0.725000X0*%
%TD*%
%TA.AperFunction,ComponentPad*%
%ADD11O,1.700000X1.950000*%
%TD*%
%TA.AperFunction,ComponentPad*%
%ADD12RoundRect,0.250000X0.725000X-0.600000X0.725000X0.600000X-0.725000X0.600000X-0.725000X-0.600000X0*%
%TD*%
%TA.AperFunction,ComponentPad*%
%ADD13O,1.950000X1.700000*%
%TD*%
%TA.AperFunction,ComponentPad*%
%ADD14RoundRect,0.250000X-0.750000X0.600000X-0.750000X-0.600000X0.750000X-0.600000X0.750000X0.600000X0*%
%TD*%
%TA.AperFunction,ComponentPad*%
%ADD15O,2.000000X1.700000*%
%TD*%
%TA.AperFunction,ComponentPad*%
%ADD16R,1.700000X1.700000*%
%TD*%
%TA.AperFunction,ComponentPad*%
%ADD17C,1.700000*%
%TD*%
%TA.AperFunction,ComponentPad*%
%ADD18RoundRect,0.250000X-0.725000X0.600000X-0.725000X-0.600000X0.725000X-0.600000X0.725000X0.600000X0*%
%TD*%
%TA.AperFunction,ComponentPad*%
%ADD19RoundRect,0.250000X0.750000X-0.600000X0.750000X0.600000X-0.750000X0.600000X-0.750000X-0.600000X0*%
%TD*%
%TA.AperFunction,ComponentPad*%
%ADD20R,1.875000X1.875000*%
%TD*%
%TA.AperFunction,ComponentPad*%
%ADD21C,1.875000*%
%TD*%
%TA.AperFunction,ComponentPad*%
%ADD22O,1.300000X2.300000*%
%TD*%
%TA.AperFunction,ComponentPad*%
%ADD23O,1.300000X2.100000*%
%TD*%
%TA.AperFunction,ComponentPad*%
%ADD24C,0.500000*%
%TD*%
%TA.AperFunction,ViaPad*%
%ADD25C,0.600000*%
%TD*%
%TA.AperFunction,Conductor*%
%ADD26C,0.750000*%
%TD*%
%TA.AperFunction,Conductor*%
%ADD27C,0.300000*%
%TD*%
G04 APERTURE END LIST*
D10*
%TO.N,GND*%
%TO.C,J2*%
X73540000Y-41148000D03*
D11*
%TO.N,+5V*%
X71040000Y-41148000D03*
%TO.N,Net-(J17-Pin_6)*%
X68540000Y-41148000D03*
%TO.N,Net-(J17-Pin_5)*%
X66040000Y-41148000D03*
%TD*%
D12*
%TO.N,ENC1-B*%
%TO.C,J7*%
X101078000Y-65920000D03*
D13*
%TO.N,ENC1-A*%
X101078000Y-63420000D03*
%TO.N,+5V*%
X101078000Y-60920000D03*
%TO.N,GND*%
X101078000Y-58420000D03*
%TD*%
D14*
%TO.N,Couleur*%
%TO.C,J3*%
X38354000Y-87630000D03*
D15*
%TO.N,GND*%
X38354000Y-90130000D03*
%TD*%
D16*
%TO.N,unconnected-(J6-Pin_1-Pad1)*%
%TO.C,J6*%
X95250000Y-38862000D03*
D17*
%TO.N,GND*%
X95250000Y-41402000D03*
%TO.N,unconnected-(J6-Pin_3-Pad3)*%
X95250000Y-43942000D03*
%TO.N,+5V*%
X95250000Y-46482000D03*
%TO.N,unconnected-(J6-Pin_5-Pad5)*%
X95250000Y-49022000D03*
%TO.N,unconnected-(J6-Pin_6-Pad6)*%
X95250000Y-51562000D03*
%TO.N,unconnected-(J6-Pin_7-Pad7)*%
X95250000Y-54102000D03*
%TO.N,unconnected-(J6-Pin_8-Pad8)*%
X95250000Y-56642000D03*
%TO.N,ENC1-B*%
X95250000Y-59182000D03*
%TO.N,unconnected-(J6-Pin_10-Pad10)*%
X95250000Y-61722000D03*
%TO.N,unconnected-(J6-Pin_11-Pad11)*%
X95250000Y-64262000D03*
%TO.N,unconnected-(J6-Pin_12-Pad12)*%
X95250000Y-66802000D03*
%TO.N,unconnected-(J6-Pin_13-Pad13)*%
X95250000Y-69342000D03*
%TO.N,unconnected-(J6-Pin_14-Pad14)*%
X95250000Y-71882000D03*
%TO.N,unconnected-(J6-Pin_15-Pad15)*%
X95250000Y-74422000D03*
%TD*%
D10*
%TO.N,GND*%
%TO.C,J10*%
X73914000Y-64516000D03*
D11*
%TO.N,+5V*%
X71414000Y-64516000D03*
%TO.N,Net-(J10-Pin_3)*%
X68914000Y-64516000D03*
%TO.N,Net-(J10-Pin_4)*%
X66414000Y-64516000D03*
%TD*%
D16*
%TO.N,Net-(J1-Pin_4)*%
%TO.C,J17*%
X54998000Y-46228000D03*
D17*
%TO.N,Net-(J1-Pin_3)*%
X57538000Y-46228000D03*
%TO.N,GND*%
X60078000Y-46228000D03*
%TO.N,+5V*%
X62618000Y-46228000D03*
%TO.N,Net-(J17-Pin_5)*%
X65158000Y-46228000D03*
%TO.N,Net-(J17-Pin_6)*%
X67698000Y-46228000D03*
%TD*%
D16*
%TO.N,+3.3V*%
%TO.C,J19*%
X46990000Y-107696000D03*
D17*
%TO.N,+5V*%
X44450000Y-107696000D03*
%TO.N,SDA*%
X46990000Y-105156000D03*
%TO.N,+5V*%
X44450000Y-105156000D03*
%TO.N,SCL*%
X46990000Y-102616000D03*
%TO.N,GND*%
X44450000Y-102616000D03*
%TO.N,unconnected-(J19-Pin_7-Pad7)*%
X46990000Y-100076000D03*
%TO.N,IA-RX*%
X44450000Y-100076000D03*
%TO.N,GND*%
X46990000Y-97536000D03*
%TO.N,IA-TX*%
X44450000Y-97536000D03*
%TO.N,GPIO00*%
X46990000Y-94996000D03*
%TO.N,unconnected-(J19-Pin_12-Pad12)*%
X44450000Y-94996000D03*
%TO.N,GPIO02*%
X46990000Y-92456000D03*
%TO.N,GND*%
X44450000Y-92456000D03*
%TO.N,unconnected-(J19-Pin_15-Pad15)*%
X46990000Y-89916000D03*
%TO.N,Tirette*%
X44450000Y-89916000D03*
%TO.N,unconnected-(J19-Pin_17-Pad17)*%
X46990000Y-87376000D03*
%TO.N,Couleur*%
X44450000Y-87376000D03*
%TO.N,GPIO12*%
X46990000Y-84836000D03*
%TO.N,GND*%
X44450000Y-84836000D03*
%TO.N,GPIO13*%
X46990000Y-82296000D03*
%TO.N,unconnected-(J19-Pin_22-Pad22)*%
X44450000Y-82296000D03*
%TO.N,unconnected-(J19-Pin_23-Pad23)*%
X46990000Y-79756000D03*
%TO.N,unconnected-(J19-Pin_24-Pad24)*%
X44450000Y-79756000D03*
%TO.N,GND*%
X46990000Y-77216000D03*
%TO.N,unconnected-(J19-Pin_26-Pad26)*%
X44450000Y-77216000D03*
%TO.N,unconnected-(J19-Pin_27-Pad27)*%
X46990000Y-74676000D03*
%TO.N,unconnected-(J19-Pin_28-Pad28)*%
X44450000Y-74676000D03*
%TO.N,GPIO21*%
X46990000Y-72136000D03*
%TO.N,GND*%
X44450000Y-72136000D03*
%TO.N,GPIO22*%
X46990000Y-69596000D03*
%TO.N,unconnected-(J19-Pin_32-Pad32)*%
X44450000Y-69596000D03*
%TO.N,unconnected-(J19-Pin_33-Pad33)*%
X46990000Y-67056000D03*
%TO.N,GND*%
X44450000Y-67056000D03*
%TO.N,GPIO24*%
X46990000Y-64516000D03*
%TO.N,unconnected-(J19-Pin_36-Pad36)*%
X44450000Y-64516000D03*
%TO.N,GPIO25*%
X46990000Y-61976000D03*
%TO.N,unconnected-(J19-Pin_38-Pad38)*%
X44450000Y-61976000D03*
%TO.N,GND*%
X46990000Y-59436000D03*
%TO.N,unconnected-(J19-Pin_40-Pad40)*%
X44450000Y-59436000D03*
%TD*%
D16*
%TO.N,GPIO00*%
%TO.C,J15*%
X55626000Y-79756000D03*
D17*
%TO.N,GPIO02*%
X58166000Y-79756000D03*
%TO.N,GND*%
X60706000Y-79756000D03*
%TO.N,+3.3V*%
X63246000Y-79756000D03*
%TO.N,GPIO12*%
X65786000Y-79756000D03*
%TO.N,GPIO13*%
X68326000Y-79756000D03*
%TD*%
D16*
%TO.N,Net-(J11-Pin_4)*%
%TO.C,J16*%
X55626000Y-69596000D03*
D17*
%TO.N,Net-(J11-Pin_3)*%
X58166000Y-69596000D03*
%TO.N,GND*%
X60706000Y-69596000D03*
%TO.N,+5V*%
X63246000Y-69596000D03*
%TO.N,Net-(J10-Pin_4)*%
X65786000Y-69596000D03*
%TO.N,Net-(J10-Pin_3)*%
X68326000Y-69596000D03*
%TD*%
D18*
%TO.N,MD22-SDA*%
%TO.C,J13*%
X74422000Y-48634000D03*
D13*
%TO.N,MD22-SCL*%
X74422000Y-51134000D03*
%TO.N,+5V*%
X74422000Y-53634000D03*
%TO.N,GND*%
X74422000Y-56134000D03*
%TD*%
D10*
%TO.N,GND*%
%TO.C,J1*%
X59570000Y-41148000D03*
D11*
%TO.N,+5V*%
X57070000Y-41148000D03*
%TO.N,Net-(J1-Pin_3)*%
X54570000Y-41148000D03*
%TO.N,Net-(J1-Pin_4)*%
X52070000Y-41148000D03*
%TD*%
D10*
%TO.N,GND*%
%TO.C,J11*%
X60078000Y-64516000D03*
D11*
%TO.N,+5V*%
X57578000Y-64516000D03*
%TO.N,Net-(J11-Pin_3)*%
X55078000Y-64516000D03*
%TO.N,Net-(J11-Pin_4)*%
X52578000Y-64516000D03*
%TD*%
D16*
%TO.N,GPIO21*%
%TO.C,J18*%
X54998000Y-56388000D03*
D17*
%TO.N,GPIO22*%
X57538000Y-56388000D03*
%TO.N,GND*%
X60078000Y-56388000D03*
%TO.N,+3.3V*%
X62618000Y-56388000D03*
%TO.N,GPIO24*%
X65158000Y-56388000D03*
%TO.N,GPIO25*%
X67698000Y-56388000D03*
%TD*%
D14*
%TO.N,Tirette*%
%TO.C,J4*%
X38608000Y-77216000D03*
D15*
%TO.N,GND*%
X38608000Y-79716000D03*
%TD*%
D16*
%TO.N,IA-TX*%
%TO.C,J5*%
X80010000Y-38862000D03*
D17*
%TO.N,IA-RX*%
X80010000Y-41402000D03*
%TO.N,unconnected-(J5-Pin_3-Pad3)*%
X80010000Y-43942000D03*
%TO.N,GND*%
X80010000Y-46482000D03*
%TO.N,USB-D+*%
X80010000Y-49022000D03*
%TO.N,unconnected-(J5-Pin_6-Pad6)*%
X80010000Y-51562000D03*
%TO.N,ENC2-B*%
X80010000Y-54102000D03*
%TO.N,unconnected-(J5-Pin_8-Pad8)*%
X80010000Y-56642000D03*
%TO.N,ENC2-A*%
X80010000Y-59182000D03*
%TO.N,unconnected-(J5-Pin_10-Pad10)*%
X80010000Y-61722000D03*
%TO.N,unconnected-(J5-Pin_11-Pad11)*%
X80010000Y-64262000D03*
%TO.N,MD22-SCL*%
X80010000Y-66802000D03*
%TO.N,USB-D-*%
X80010000Y-69342000D03*
%TO.N,MD22-SDA*%
X80010000Y-71882000D03*
%TO.N,ENC1-A*%
X80010000Y-74422000D03*
%TD*%
D19*
%TO.N,Net-(J8-Pin_1)*%
%TO.C,J8*%
X101092000Y-74890000D03*
D15*
%TO.N,Net-(J8-Pin_2)*%
X101092000Y-72390000D03*
%TD*%
D20*
%TO.N,Net-(J8-Pin_1)*%
%TO.C,PS1*%
X97790000Y-89408000D03*
D21*
%TO.N,Net-(J8-Pin_2)*%
X97790000Y-94488000D03*
%TO.N,unconnected-(PS1-REMOTE_ON{slash}OFF-Pad3)*%
X97790000Y-104648000D03*
%TO.N,+5V*%
X52070000Y-86868000D03*
%TO.N,GND*%
X52070000Y-97028000D03*
%TO.N,unconnected-(PS1-TRIM-Pad6)*%
X52070000Y-107188000D03*
%TD*%
D12*
%TO.N,ENC2-B*%
%TO.C,J9*%
X101092000Y-51950000D03*
D13*
%TO.N,ENC2-A*%
X101092000Y-49450000D03*
%TO.N,+5V*%
X101092000Y-46950000D03*
%TO.N,GND*%
X101092000Y-44450000D03*
%TD*%
D18*
%TO.N,SDA*%
%TO.C,J12*%
X38354000Y-96386000D03*
D13*
%TO.N,SCL*%
X38354000Y-98886000D03*
%TO.N,+5V*%
X38354000Y-101386000D03*
%TO.N,GND*%
X38354000Y-103886000D03*
%TD*%
D22*
%TO.N,unconnected-(J14-SHIELD-PadS1)*%
%TO.C,J14*%
X91978000Y-41190000D03*
D23*
X91978000Y-36990000D03*
D24*
X89648000Y-38370000D03*
X89648000Y-36370000D03*
X85648000Y-38370000D03*
X85648000Y-36370000D03*
D22*
X83318000Y-41190000D03*
D23*
X83318000Y-36990000D03*
%TD*%
D25*
%TO.N,GND*%
X84448000Y-43434000D03*
X90848000Y-43604000D03*
%TO.N,IA-TX*%
X82804000Y-45720000D03*
%TO.N,USB-D+*%
X86614000Y-44450000D03*
%TO.N,USB-D-*%
X87398000Y-43412000D03*
X88900000Y-43434000D03*
%TO.N,GPIO02*%
X57912000Y-92456000D03*
%TO.N,+3.3V*%
X36830000Y-70612000D03*
X36772000Y-81788000D03*
%TO.N,GPIO12*%
X65786000Y-84836000D03*
%TO.N,GPIO25*%
X63754000Y-59436000D03*
%TO.N,GPIO21*%
X50800000Y-60706000D03*
%TD*%
D26*
%TO.N,Tirette*%
X38608000Y-77216000D02*
X39878000Y-77216000D01*
X42672000Y-89916000D02*
X44450000Y-89916000D01*
X39878000Y-77216000D02*
X42164000Y-79502000D01*
X42164000Y-79502000D02*
X42164000Y-89408000D01*
X42164000Y-89408000D02*
X42672000Y-89916000D01*
D27*
%TO.N,IA-TX*%
X44450000Y-97536000D02*
X45651000Y-96335000D01*
X50546000Y-94488000D02*
X81026000Y-94488000D01*
X82804000Y-92710000D02*
X82804000Y-45720000D01*
X81026000Y-94488000D02*
X82804000Y-92710000D01*
X45651000Y-96335000D02*
X48699000Y-96335000D01*
X48699000Y-96335000D02*
X50546000Y-94488000D01*
D26*
%TO.N,MD22-SDA*%
X77978000Y-49530000D02*
X77082000Y-48634000D01*
X80010000Y-71882000D02*
X77978000Y-69850000D01*
X77082000Y-48634000D02*
X74422000Y-48634000D01*
X77978000Y-69850000D02*
X77978000Y-49530000D01*
D27*
%TO.N,IA-RX*%
X45651000Y-98875000D02*
X82735000Y-98875000D01*
X82735000Y-98875000D02*
X85090000Y-96520000D01*
X85090000Y-46482000D02*
X80010000Y-41402000D01*
X85090000Y-96520000D02*
X85090000Y-46482000D01*
X44450000Y-100076000D02*
X45651000Y-98875000D01*
D26*
%TO.N,ENC1-B*%
X99448000Y-65920000D02*
X101078000Y-65920000D01*
X98552000Y-65024000D02*
X99448000Y-65920000D01*
X96774000Y-59182000D02*
X98552000Y-60960000D01*
X98552000Y-60960000D02*
X98552000Y-65024000D01*
X95250000Y-59182000D02*
X96774000Y-59182000D01*
D27*
%TO.N,SDA*%
X41656000Y-101520471D02*
X44090529Y-103955000D01*
X38354000Y-96386000D02*
X38982000Y-96386000D01*
X38982000Y-96386000D02*
X41656000Y-99060000D01*
X45027000Y-103955000D02*
X46228000Y-105156000D01*
X46228000Y-105156000D02*
X46990000Y-105156000D01*
X44090529Y-103955000D02*
X45027000Y-103955000D01*
X41656000Y-99060000D02*
X41656000Y-101520471D01*
D26*
%TO.N,unconnected-(J14-SHIELD-PadS1)*%
X91358000Y-36370000D02*
X91978000Y-36990000D01*
X85648000Y-38370000D02*
X83318000Y-40700000D01*
X83938000Y-36370000D02*
X83318000Y-36990000D01*
X89648000Y-38370000D02*
X91978000Y-40700000D01*
X89648000Y-36370000D02*
X91358000Y-36370000D01*
X91978000Y-40700000D02*
X91978000Y-41190000D01*
X85648000Y-36370000D02*
X83938000Y-36370000D01*
X83318000Y-40700000D02*
X83318000Y-41190000D01*
D27*
%TO.N,GPIO02*%
X57912000Y-92456000D02*
X58166000Y-92202000D01*
X58166000Y-92202000D02*
X58166000Y-79756000D01*
%TO.N,GPIO00*%
X55626000Y-90424000D02*
X55626000Y-79756000D01*
X46990000Y-94996000D02*
X49022000Y-92964000D01*
X53086000Y-92964000D02*
X55626000Y-90424000D01*
X49022000Y-92964000D02*
X53086000Y-92964000D01*
%TO.N,GPIO12*%
X65786000Y-84836000D02*
X65786000Y-79756000D01*
%TO.N,GPIO25*%
X63754000Y-59436000D02*
X65786000Y-59436000D01*
X67698000Y-57524000D02*
X67698000Y-56388000D01*
X65786000Y-59436000D02*
X67698000Y-57524000D01*
%TO.N,GPIO22*%
X57538000Y-58540000D02*
X57538000Y-56388000D01*
X49276000Y-67310000D02*
X49276000Y-60960000D01*
X46990000Y-69596000D02*
X49276000Y-67310000D01*
X50800000Y-59436000D02*
X56642000Y-59436000D01*
X56642000Y-59436000D02*
X57538000Y-58540000D01*
X49276000Y-60960000D02*
X50800000Y-59436000D01*
%TO.N,GPIO21*%
X50800000Y-68326000D02*
X50800000Y-60706000D01*
X46990000Y-72136000D02*
X50800000Y-68326000D01*
%TD*%
M02*
