%TF.GenerationSoftware,KiCad,Pcbnew,9.0.3-9.0.3-0~ubuntu24.04.1*%
%TF.CreationDate,2026-02-07T15:21:19+01:00*%
%TF.ProjectId,iasserv,69617373-6572-4762-9e6b-696361645f70,rev?*%
%TF.SameCoordinates,Original*%
%TF.FileFunction,Legend,Top*%
%TF.FilePolarity,Positive*%
%FSLAX46Y46*%
G04 Gerber Fmt 4.6, Leading zero omitted, Abs format (unit mm)*
G04 Created by KiCad (PCBNEW 9.0.3-9.0.3-0~ubuntu24.04.1) date 2026-02-07 15:21:19*
%MOMM*%
%LPD*%
G01*
G04 APERTURE LIST*
G04 Aperture macros list*
%AMRoundRect*
0 Rectangle with rounded corners*
0 $1 Rounding radius*
0 $2 $3 $4 $5 $6 $7 $8 $9 X,Y pos of 4 corners*
0 Add a 4 corners polygon primitive as box body*
4,1,4,$2,$3,$4,$5,$6,$7,$8,$9,$2,$3,0*
0 Add four circle primitives for the rounded corners*
1,1,$1+$1,$2,$3*
1,1,$1+$1,$4,$5*
1,1,$1+$1,$6,$7*
1,1,$1+$1,$8,$9*
0 Add four rect primitives between the rounded corners*
20,1,$1+$1,$2,$3,$4,$5,0*
20,1,$1+$1,$4,$5,$6,$7,0*
20,1,$1+$1,$6,$7,$8,$9,0*
20,1,$1+$1,$8,$9,$2,$3,0*%
G04 Aperture macros list end*
%ADD10C,0.100000*%
%ADD11C,0.150000*%
%ADD12C,0.120000*%
%ADD13C,0.127000*%
%ADD14C,0.200000*%
%ADD15RoundRect,0.219000X0.294000X-0.219000X0.294000X0.219000X-0.294000X0.219000X-0.294000X-0.219000X0*%
%ADD16RoundRect,0.250000X0.600000X0.725000X-0.600000X0.725000X-0.600000X-0.725000X0.600000X-0.725000X0*%
%ADD17O,1.700000X1.950000*%
%ADD18RoundRect,0.250000X0.725000X-0.600000X0.725000X0.600000X-0.725000X0.600000X-0.725000X-0.600000X0*%
%ADD19O,1.950000X1.700000*%
%ADD20RoundRect,0.250000X-0.750000X0.600000X-0.750000X-0.600000X0.750000X-0.600000X0.750000X0.600000X0*%
%ADD21O,2.000000X1.700000*%
%ADD22R,1.700000X1.700000*%
%ADD23C,1.700000*%
%ADD24C,2.200000*%
%ADD25RoundRect,0.250000X-0.725000X0.600000X-0.725000X-0.600000X0.725000X-0.600000X0.725000X0.600000X0*%
%ADD26RoundRect,0.250000X0.600000X0.750000X-0.600000X0.750000X-0.600000X-0.750000X0.600000X-0.750000X0*%
%ADD27O,1.700000X2.000000*%
%ADD28RoundRect,0.102000X-0.937500X0.937500X-0.937500X-0.937500X0.937500X-0.937500X0.937500X0.937500X0*%
%ADD29C,2.079000*%
%ADD30C,0.600000*%
%ADD31R,0.300000X1.400000*%
%ADD32R,0.500000X1.400000*%
%ADD33O,1.300000X2.300000*%
%ADD34O,1.300000X2.100000*%
%ADD35C,0.500000*%
%ADD36RoundRect,0.500000X2.000000X1.000000X-2.000000X1.000000X-2.000000X-1.000000X2.000000X-1.000000X0*%
G04 APERTURE END LIST*
D10*
X66042265Y-60022800D02*
X66185122Y-60070419D01*
X66185122Y-60070419D02*
X66423217Y-60070419D01*
X66423217Y-60070419D02*
X66518455Y-60022800D01*
X66518455Y-60022800D02*
X66566074Y-59975180D01*
X66566074Y-59975180D02*
X66613693Y-59879942D01*
X66613693Y-59879942D02*
X66613693Y-59784704D01*
X66613693Y-59784704D02*
X66566074Y-59689466D01*
X66566074Y-59689466D02*
X66518455Y-59641847D01*
X66518455Y-59641847D02*
X66423217Y-59594228D01*
X66423217Y-59594228D02*
X66232741Y-59546609D01*
X66232741Y-59546609D02*
X66137503Y-59498990D01*
X66137503Y-59498990D02*
X66089884Y-59451371D01*
X66089884Y-59451371D02*
X66042265Y-59356133D01*
X66042265Y-59356133D02*
X66042265Y-59260895D01*
X66042265Y-59260895D02*
X66089884Y-59165657D01*
X66089884Y-59165657D02*
X66137503Y-59118038D01*
X66137503Y-59118038D02*
X66232741Y-59070419D01*
X66232741Y-59070419D02*
X66470836Y-59070419D01*
X66470836Y-59070419D02*
X66613693Y-59118038D01*
X67613693Y-60070419D02*
X67280360Y-59594228D01*
X67042265Y-60070419D02*
X67042265Y-59070419D01*
X67042265Y-59070419D02*
X67423217Y-59070419D01*
X67423217Y-59070419D02*
X67518455Y-59118038D01*
X67518455Y-59118038D02*
X67566074Y-59165657D01*
X67566074Y-59165657D02*
X67613693Y-59260895D01*
X67613693Y-59260895D02*
X67613693Y-59403752D01*
X67613693Y-59403752D02*
X67566074Y-59498990D01*
X67566074Y-59498990D02*
X67518455Y-59546609D01*
X67518455Y-59546609D02*
X67423217Y-59594228D01*
X67423217Y-59594228D02*
X67042265Y-59594228D01*
X68375598Y-59546609D02*
X68042265Y-59546609D01*
X68042265Y-60070419D02*
X68042265Y-59070419D01*
X68042265Y-59070419D02*
X68518455Y-59070419D01*
X69232741Y-59546609D02*
X69375598Y-59594228D01*
X69375598Y-59594228D02*
X69423217Y-59641847D01*
X69423217Y-59641847D02*
X69470836Y-59737085D01*
X69470836Y-59737085D02*
X69470836Y-59879942D01*
X69470836Y-59879942D02*
X69423217Y-59975180D01*
X69423217Y-59975180D02*
X69375598Y-60022800D01*
X69375598Y-60022800D02*
X69280360Y-60070419D01*
X69280360Y-60070419D02*
X68899408Y-60070419D01*
X68899408Y-60070419D02*
X68899408Y-59070419D01*
X68899408Y-59070419D02*
X69232741Y-59070419D01*
X69232741Y-59070419D02*
X69327979Y-59118038D01*
X69327979Y-59118038D02*
X69375598Y-59165657D01*
X69375598Y-59165657D02*
X69423217Y-59260895D01*
X69423217Y-59260895D02*
X69423217Y-59356133D01*
X69423217Y-59356133D02*
X69375598Y-59451371D01*
X69375598Y-59451371D02*
X69327979Y-59498990D01*
X69327979Y-59498990D02*
X69232741Y-59546609D01*
X69232741Y-59546609D02*
X68899408Y-59546609D01*
X53850265Y-60022800D02*
X53993122Y-60070419D01*
X53993122Y-60070419D02*
X54231217Y-60070419D01*
X54231217Y-60070419D02*
X54326455Y-60022800D01*
X54326455Y-60022800D02*
X54374074Y-59975180D01*
X54374074Y-59975180D02*
X54421693Y-59879942D01*
X54421693Y-59879942D02*
X54421693Y-59784704D01*
X54421693Y-59784704D02*
X54374074Y-59689466D01*
X54374074Y-59689466D02*
X54326455Y-59641847D01*
X54326455Y-59641847D02*
X54231217Y-59594228D01*
X54231217Y-59594228D02*
X54040741Y-59546609D01*
X54040741Y-59546609D02*
X53945503Y-59498990D01*
X53945503Y-59498990D02*
X53897884Y-59451371D01*
X53897884Y-59451371D02*
X53850265Y-59356133D01*
X53850265Y-59356133D02*
X53850265Y-59260895D01*
X53850265Y-59260895D02*
X53897884Y-59165657D01*
X53897884Y-59165657D02*
X53945503Y-59118038D01*
X53945503Y-59118038D02*
X54040741Y-59070419D01*
X54040741Y-59070419D02*
X54278836Y-59070419D01*
X54278836Y-59070419D02*
X54421693Y-59118038D01*
X55421693Y-60070419D02*
X55088360Y-59594228D01*
X54850265Y-60070419D02*
X54850265Y-59070419D01*
X54850265Y-59070419D02*
X55231217Y-59070419D01*
X55231217Y-59070419D02*
X55326455Y-59118038D01*
X55326455Y-59118038D02*
X55374074Y-59165657D01*
X55374074Y-59165657D02*
X55421693Y-59260895D01*
X55421693Y-59260895D02*
X55421693Y-59403752D01*
X55421693Y-59403752D02*
X55374074Y-59498990D01*
X55374074Y-59498990D02*
X55326455Y-59546609D01*
X55326455Y-59546609D02*
X55231217Y-59594228D01*
X55231217Y-59594228D02*
X54850265Y-59594228D01*
X56183598Y-59546609D02*
X55850265Y-59546609D01*
X55850265Y-60070419D02*
X55850265Y-59070419D01*
X55850265Y-59070419D02*
X56326455Y-59070419D01*
X56659789Y-59784704D02*
X57135979Y-59784704D01*
X56564551Y-60070419D02*
X56897884Y-59070419D01*
X56897884Y-59070419D02*
X57231217Y-60070419D01*
X57564551Y-60070419D02*
X57564551Y-59070419D01*
X57564551Y-59070419D02*
X57802646Y-59070419D01*
X57802646Y-59070419D02*
X57945503Y-59118038D01*
X57945503Y-59118038D02*
X58040741Y-59213276D01*
X58040741Y-59213276D02*
X58088360Y-59308514D01*
X58088360Y-59308514D02*
X58135979Y-59498990D01*
X58135979Y-59498990D02*
X58135979Y-59641847D01*
X58135979Y-59641847D02*
X58088360Y-59832323D01*
X58088360Y-59832323D02*
X58040741Y-59927561D01*
X58040741Y-59927561D02*
X57945503Y-60022800D01*
X57945503Y-60022800D02*
X57802646Y-60070419D01*
X57802646Y-60070419D02*
X57564551Y-60070419D01*
X35927312Y-93249180D02*
X35879693Y-93296800D01*
X35879693Y-93296800D02*
X35736836Y-93344419D01*
X35736836Y-93344419D02*
X35641598Y-93344419D01*
X35641598Y-93344419D02*
X35498741Y-93296800D01*
X35498741Y-93296800D02*
X35403503Y-93201561D01*
X35403503Y-93201561D02*
X35355884Y-93106323D01*
X35355884Y-93106323D02*
X35308265Y-92915847D01*
X35308265Y-92915847D02*
X35308265Y-92772990D01*
X35308265Y-92772990D02*
X35355884Y-92582514D01*
X35355884Y-92582514D02*
X35403503Y-92487276D01*
X35403503Y-92487276D02*
X35498741Y-92392038D01*
X35498741Y-92392038D02*
X35641598Y-92344419D01*
X35641598Y-92344419D02*
X35736836Y-92344419D01*
X35736836Y-92344419D02*
X35879693Y-92392038D01*
X35879693Y-92392038D02*
X35927312Y-92439657D01*
X36546360Y-92344419D02*
X36736836Y-92344419D01*
X36736836Y-92344419D02*
X36832074Y-92392038D01*
X36832074Y-92392038D02*
X36927312Y-92487276D01*
X36927312Y-92487276D02*
X36974931Y-92677752D01*
X36974931Y-92677752D02*
X36974931Y-93011085D01*
X36974931Y-93011085D02*
X36927312Y-93201561D01*
X36927312Y-93201561D02*
X36832074Y-93296800D01*
X36832074Y-93296800D02*
X36736836Y-93344419D01*
X36736836Y-93344419D02*
X36546360Y-93344419D01*
X36546360Y-93344419D02*
X36451122Y-93296800D01*
X36451122Y-93296800D02*
X36355884Y-93201561D01*
X36355884Y-93201561D02*
X36308265Y-93011085D01*
X36308265Y-93011085D02*
X36308265Y-92677752D01*
X36308265Y-92677752D02*
X36355884Y-92487276D01*
X36355884Y-92487276D02*
X36451122Y-92392038D01*
X36451122Y-92392038D02*
X36546360Y-92344419D01*
X37403503Y-92344419D02*
X37403503Y-93153942D01*
X37403503Y-93153942D02*
X37451122Y-93249180D01*
X37451122Y-93249180D02*
X37498741Y-93296800D01*
X37498741Y-93296800D02*
X37593979Y-93344419D01*
X37593979Y-93344419D02*
X37784455Y-93344419D01*
X37784455Y-93344419D02*
X37879693Y-93296800D01*
X37879693Y-93296800D02*
X37927312Y-93249180D01*
X37927312Y-93249180D02*
X37974931Y-93153942D01*
X37974931Y-93153942D02*
X37974931Y-92344419D01*
X38927312Y-93344419D02*
X38451122Y-93344419D01*
X38451122Y-93344419D02*
X38451122Y-92344419D01*
X39260646Y-92820609D02*
X39593979Y-92820609D01*
X39736836Y-93344419D02*
X39260646Y-93344419D01*
X39260646Y-93344419D02*
X39260646Y-92344419D01*
X39260646Y-92344419D02*
X39736836Y-92344419D01*
X40165408Y-92344419D02*
X40165408Y-93153942D01*
X40165408Y-93153942D02*
X40213027Y-93249180D01*
X40213027Y-93249180D02*
X40260646Y-93296800D01*
X40260646Y-93296800D02*
X40355884Y-93344419D01*
X40355884Y-93344419D02*
X40546360Y-93344419D01*
X40546360Y-93344419D02*
X40641598Y-93296800D01*
X40641598Y-93296800D02*
X40689217Y-93249180D01*
X40689217Y-93249180D02*
X40736836Y-93153942D01*
X40736836Y-93153942D02*
X40736836Y-92344419D01*
X41784455Y-93344419D02*
X41451122Y-92868228D01*
X41213027Y-93344419D02*
X41213027Y-92344419D01*
X41213027Y-92344419D02*
X41593979Y-92344419D01*
X41593979Y-92344419D02*
X41689217Y-92392038D01*
X41689217Y-92392038D02*
X41736836Y-92439657D01*
X41736836Y-92439657D02*
X41784455Y-92534895D01*
X41784455Y-92534895D02*
X41784455Y-92677752D01*
X41784455Y-92677752D02*
X41736836Y-92772990D01*
X41736836Y-92772990D02*
X41689217Y-92820609D01*
X41689217Y-92820609D02*
X41593979Y-92868228D01*
X41593979Y-92868228D02*
X41213027Y-92868228D01*
X67820265Y-36654800D02*
X67963122Y-36702419D01*
X67963122Y-36702419D02*
X68201217Y-36702419D01*
X68201217Y-36702419D02*
X68296455Y-36654800D01*
X68296455Y-36654800D02*
X68344074Y-36607180D01*
X68344074Y-36607180D02*
X68391693Y-36511942D01*
X68391693Y-36511942D02*
X68391693Y-36416704D01*
X68391693Y-36416704D02*
X68344074Y-36321466D01*
X68344074Y-36321466D02*
X68296455Y-36273847D01*
X68296455Y-36273847D02*
X68201217Y-36226228D01*
X68201217Y-36226228D02*
X68010741Y-36178609D01*
X68010741Y-36178609D02*
X67915503Y-36130990D01*
X67915503Y-36130990D02*
X67867884Y-36083371D01*
X67867884Y-36083371D02*
X67820265Y-35988133D01*
X67820265Y-35988133D02*
X67820265Y-35892895D01*
X67820265Y-35892895D02*
X67867884Y-35797657D01*
X67867884Y-35797657D02*
X67915503Y-35750038D01*
X67915503Y-35750038D02*
X68010741Y-35702419D01*
X68010741Y-35702419D02*
X68248836Y-35702419D01*
X68248836Y-35702419D02*
X68391693Y-35750038D01*
X69391693Y-36702419D02*
X69058360Y-36226228D01*
X68820265Y-36702419D02*
X68820265Y-35702419D01*
X68820265Y-35702419D02*
X69201217Y-35702419D01*
X69201217Y-35702419D02*
X69296455Y-35750038D01*
X69296455Y-35750038D02*
X69344074Y-35797657D01*
X69344074Y-35797657D02*
X69391693Y-35892895D01*
X69391693Y-35892895D02*
X69391693Y-36035752D01*
X69391693Y-36035752D02*
X69344074Y-36130990D01*
X69344074Y-36130990D02*
X69296455Y-36178609D01*
X69296455Y-36178609D02*
X69201217Y-36226228D01*
X69201217Y-36226228D02*
X68820265Y-36226228D01*
X70153598Y-36178609D02*
X69820265Y-36178609D01*
X69820265Y-36702419D02*
X69820265Y-35702419D01*
X69820265Y-35702419D02*
X70296455Y-35702419D01*
X70629789Y-36416704D02*
X71105979Y-36416704D01*
X70534551Y-36702419D02*
X70867884Y-35702419D01*
X70867884Y-35702419D02*
X71201217Y-36702419D01*
X71534551Y-36702419D02*
X71534551Y-35702419D01*
X71534551Y-35702419D02*
X71867884Y-36416704D01*
X71867884Y-36416704D02*
X72201217Y-35702419D01*
X72201217Y-35702419D02*
X72201217Y-36702419D01*
X92307884Y-79865419D02*
X92307884Y-78865419D01*
X92307884Y-78865419D02*
X92688836Y-78865419D01*
X92688836Y-78865419D02*
X92784074Y-78913038D01*
X92784074Y-78913038D02*
X92831693Y-78960657D01*
X92831693Y-78960657D02*
X92879312Y-79055895D01*
X92879312Y-79055895D02*
X92879312Y-79198752D01*
X92879312Y-79198752D02*
X92831693Y-79293990D01*
X92831693Y-79293990D02*
X92784074Y-79341609D01*
X92784074Y-79341609D02*
X92688836Y-79389228D01*
X92688836Y-79389228D02*
X92307884Y-79389228D01*
X93450741Y-79865419D02*
X93355503Y-79817800D01*
X93355503Y-79817800D02*
X93307884Y-79770180D01*
X93307884Y-79770180D02*
X93260265Y-79674942D01*
X93260265Y-79674942D02*
X93260265Y-79389228D01*
X93260265Y-79389228D02*
X93307884Y-79293990D01*
X93307884Y-79293990D02*
X93355503Y-79246371D01*
X93355503Y-79246371D02*
X93450741Y-79198752D01*
X93450741Y-79198752D02*
X93593598Y-79198752D01*
X93593598Y-79198752D02*
X93688836Y-79246371D01*
X93688836Y-79246371D02*
X93736455Y-79293990D01*
X93736455Y-79293990D02*
X93784074Y-79389228D01*
X93784074Y-79389228D02*
X93784074Y-79674942D01*
X93784074Y-79674942D02*
X93736455Y-79770180D01*
X93736455Y-79770180D02*
X93688836Y-79817800D01*
X93688836Y-79817800D02*
X93593598Y-79865419D01*
X93593598Y-79865419D02*
X93450741Y-79865419D01*
X94117408Y-79198752D02*
X94307884Y-79865419D01*
X94307884Y-79865419D02*
X94498360Y-79389228D01*
X94498360Y-79389228D02*
X94688836Y-79865419D01*
X94688836Y-79865419D02*
X94879312Y-79198752D01*
X95641217Y-79817800D02*
X95545979Y-79865419D01*
X95545979Y-79865419D02*
X95355503Y-79865419D01*
X95355503Y-79865419D02*
X95260265Y-79817800D01*
X95260265Y-79817800D02*
X95212646Y-79722561D01*
X95212646Y-79722561D02*
X95212646Y-79341609D01*
X95212646Y-79341609D02*
X95260265Y-79246371D01*
X95260265Y-79246371D02*
X95355503Y-79198752D01*
X95355503Y-79198752D02*
X95545979Y-79198752D01*
X95545979Y-79198752D02*
X95641217Y-79246371D01*
X95641217Y-79246371D02*
X95688836Y-79341609D01*
X95688836Y-79341609D02*
X95688836Y-79436847D01*
X95688836Y-79436847D02*
X95212646Y-79532085D01*
X96117408Y-79865419D02*
X96117408Y-79198752D01*
X96117408Y-79389228D02*
X96165027Y-79293990D01*
X96165027Y-79293990D02*
X96212646Y-79246371D01*
X96212646Y-79246371D02*
X96307884Y-79198752D01*
X96307884Y-79198752D02*
X96403122Y-79198752D01*
X35721027Y-90566419D02*
X36292455Y-90566419D01*
X36006741Y-91566419D02*
X36006741Y-90566419D01*
X36625789Y-91566419D02*
X36625789Y-90566419D01*
X37673407Y-91566419D02*
X37340074Y-91090228D01*
X37101979Y-91566419D02*
X37101979Y-90566419D01*
X37101979Y-90566419D02*
X37482931Y-90566419D01*
X37482931Y-90566419D02*
X37578169Y-90614038D01*
X37578169Y-90614038D02*
X37625788Y-90661657D01*
X37625788Y-90661657D02*
X37673407Y-90756895D01*
X37673407Y-90756895D02*
X37673407Y-90899752D01*
X37673407Y-90899752D02*
X37625788Y-90994990D01*
X37625788Y-90994990D02*
X37578169Y-91042609D01*
X37578169Y-91042609D02*
X37482931Y-91090228D01*
X37482931Y-91090228D02*
X37101979Y-91090228D01*
X38101979Y-91042609D02*
X38435312Y-91042609D01*
X38578169Y-91566419D02*
X38101979Y-91566419D01*
X38101979Y-91566419D02*
X38101979Y-90566419D01*
X38101979Y-90566419D02*
X38578169Y-90566419D01*
X38863884Y-90566419D02*
X39435312Y-90566419D01*
X39149598Y-91566419D02*
X39149598Y-90566419D01*
X39625789Y-90566419D02*
X40197217Y-90566419D01*
X39911503Y-91566419D02*
X39911503Y-90566419D01*
X40530551Y-91042609D02*
X40863884Y-91042609D01*
X41006741Y-91566419D02*
X40530551Y-91566419D01*
X40530551Y-91566419D02*
X40530551Y-90566419D01*
X40530551Y-90566419D02*
X41006741Y-90566419D01*
X100948609Y-80214115D02*
X100948609Y-79880782D01*
X101472419Y-79737925D02*
X101472419Y-80214115D01*
X101472419Y-80214115D02*
X100472419Y-80214115D01*
X100472419Y-80214115D02*
X100472419Y-79737925D01*
X101472419Y-79309353D02*
X100472419Y-79309353D01*
X100472419Y-79309353D02*
X101472419Y-78737925D01*
X101472419Y-78737925D02*
X100472419Y-78737925D01*
X101377180Y-77690306D02*
X101424800Y-77737925D01*
X101424800Y-77737925D02*
X101472419Y-77880782D01*
X101472419Y-77880782D02*
X101472419Y-77976020D01*
X101472419Y-77976020D02*
X101424800Y-78118877D01*
X101424800Y-78118877D02*
X101329561Y-78214115D01*
X101329561Y-78214115D02*
X101234323Y-78261734D01*
X101234323Y-78261734D02*
X101043847Y-78309353D01*
X101043847Y-78309353D02*
X100900990Y-78309353D01*
X100900990Y-78309353D02*
X100710514Y-78261734D01*
X100710514Y-78261734D02*
X100615276Y-78214115D01*
X100615276Y-78214115D02*
X100520038Y-78118877D01*
X100520038Y-78118877D02*
X100472419Y-77976020D01*
X100472419Y-77976020D02*
X100472419Y-77880782D01*
X100472419Y-77880782D02*
X100520038Y-77737925D01*
X100520038Y-77737925D02*
X100567657Y-77690306D01*
X101472419Y-77261734D02*
X100472419Y-77261734D01*
X100472419Y-77261734D02*
X100472419Y-77023639D01*
X100472419Y-77023639D02*
X100520038Y-76880782D01*
X100520038Y-76880782D02*
X100615276Y-76785544D01*
X100615276Y-76785544D02*
X100710514Y-76737925D01*
X100710514Y-76737925D02*
X100900990Y-76690306D01*
X100900990Y-76690306D02*
X101043847Y-76690306D01*
X101043847Y-76690306D02*
X101234323Y-76737925D01*
X101234323Y-76737925D02*
X101329561Y-76785544D01*
X101329561Y-76785544D02*
X101424800Y-76880782D01*
X101424800Y-76880782D02*
X101472419Y-77023639D01*
X101472419Y-77023639D02*
X101472419Y-77261734D01*
X100186609Y-47702115D02*
X100186609Y-47368782D01*
X100710419Y-47225925D02*
X100710419Y-47702115D01*
X100710419Y-47702115D02*
X99710419Y-47702115D01*
X99710419Y-47702115D02*
X99710419Y-47225925D01*
X100710419Y-46797353D02*
X99710419Y-46797353D01*
X99710419Y-46797353D02*
X100710419Y-46225925D01*
X100710419Y-46225925D02*
X99710419Y-46225925D01*
X100615180Y-45178306D02*
X100662800Y-45225925D01*
X100662800Y-45225925D02*
X100710419Y-45368782D01*
X100710419Y-45368782D02*
X100710419Y-45464020D01*
X100710419Y-45464020D02*
X100662800Y-45606877D01*
X100662800Y-45606877D02*
X100567561Y-45702115D01*
X100567561Y-45702115D02*
X100472323Y-45749734D01*
X100472323Y-45749734D02*
X100281847Y-45797353D01*
X100281847Y-45797353D02*
X100138990Y-45797353D01*
X100138990Y-45797353D02*
X99948514Y-45749734D01*
X99948514Y-45749734D02*
X99853276Y-45702115D01*
X99853276Y-45702115D02*
X99758038Y-45606877D01*
X99758038Y-45606877D02*
X99710419Y-45464020D01*
X99710419Y-45464020D02*
X99710419Y-45368782D01*
X99710419Y-45368782D02*
X99758038Y-45225925D01*
X99758038Y-45225925D02*
X99805657Y-45178306D01*
X99758038Y-44225925D02*
X99710419Y-44321163D01*
X99710419Y-44321163D02*
X99710419Y-44464020D01*
X99710419Y-44464020D02*
X99758038Y-44606877D01*
X99758038Y-44606877D02*
X99853276Y-44702115D01*
X99853276Y-44702115D02*
X99948514Y-44749734D01*
X99948514Y-44749734D02*
X100138990Y-44797353D01*
X100138990Y-44797353D02*
X100281847Y-44797353D01*
X100281847Y-44797353D02*
X100472323Y-44749734D01*
X100472323Y-44749734D02*
X100567561Y-44702115D01*
X100567561Y-44702115D02*
X100662800Y-44606877D01*
X100662800Y-44606877D02*
X100710419Y-44464020D01*
X100710419Y-44464020D02*
X100710419Y-44368782D01*
X100710419Y-44368782D02*
X100662800Y-44225925D01*
X100662800Y-44225925D02*
X100615180Y-44178306D01*
X100615180Y-44178306D02*
X100281847Y-44178306D01*
X100281847Y-44178306D02*
X100281847Y-44368782D01*
X53596265Y-36654800D02*
X53739122Y-36702419D01*
X53739122Y-36702419D02*
X53977217Y-36702419D01*
X53977217Y-36702419D02*
X54072455Y-36654800D01*
X54072455Y-36654800D02*
X54120074Y-36607180D01*
X54120074Y-36607180D02*
X54167693Y-36511942D01*
X54167693Y-36511942D02*
X54167693Y-36416704D01*
X54167693Y-36416704D02*
X54120074Y-36321466D01*
X54120074Y-36321466D02*
X54072455Y-36273847D01*
X54072455Y-36273847D02*
X53977217Y-36226228D01*
X53977217Y-36226228D02*
X53786741Y-36178609D01*
X53786741Y-36178609D02*
X53691503Y-36130990D01*
X53691503Y-36130990D02*
X53643884Y-36083371D01*
X53643884Y-36083371D02*
X53596265Y-35988133D01*
X53596265Y-35988133D02*
X53596265Y-35892895D01*
X53596265Y-35892895D02*
X53643884Y-35797657D01*
X53643884Y-35797657D02*
X53691503Y-35750038D01*
X53691503Y-35750038D02*
X53786741Y-35702419D01*
X53786741Y-35702419D02*
X54024836Y-35702419D01*
X54024836Y-35702419D02*
X54167693Y-35750038D01*
X55167693Y-36702419D02*
X54834360Y-36226228D01*
X54596265Y-36702419D02*
X54596265Y-35702419D01*
X54596265Y-35702419D02*
X54977217Y-35702419D01*
X54977217Y-35702419D02*
X55072455Y-35750038D01*
X55072455Y-35750038D02*
X55120074Y-35797657D01*
X55120074Y-35797657D02*
X55167693Y-35892895D01*
X55167693Y-35892895D02*
X55167693Y-36035752D01*
X55167693Y-36035752D02*
X55120074Y-36130990D01*
X55120074Y-36130990D02*
X55072455Y-36178609D01*
X55072455Y-36178609D02*
X54977217Y-36226228D01*
X54977217Y-36226228D02*
X54596265Y-36226228D01*
X55929598Y-36178609D02*
X55596265Y-36178609D01*
X55596265Y-36702419D02*
X55596265Y-35702419D01*
X55596265Y-35702419D02*
X56072455Y-35702419D01*
X56405789Y-36416704D02*
X56881979Y-36416704D01*
X56310551Y-36702419D02*
X56643884Y-35702419D01*
X56643884Y-35702419D02*
X56977217Y-36702419D01*
X57310551Y-36702419D02*
X57310551Y-35702419D01*
X57310551Y-35702419D02*
X57548646Y-35702419D01*
X57548646Y-35702419D02*
X57691503Y-35750038D01*
X57691503Y-35750038D02*
X57786741Y-35845276D01*
X57786741Y-35845276D02*
X57834360Y-35940514D01*
X57834360Y-35940514D02*
X57881979Y-36130990D01*
X57881979Y-36130990D02*
X57881979Y-36273847D01*
X57881979Y-36273847D02*
X57834360Y-36464323D01*
X57834360Y-36464323D02*
X57786741Y-36559561D01*
X57786741Y-36559561D02*
X57691503Y-36654800D01*
X57691503Y-36654800D02*
X57548646Y-36702419D01*
X57548646Y-36702419D02*
X57310551Y-36702419D01*
X37387884Y-58292419D02*
X37387884Y-57292419D01*
X37816455Y-57387657D02*
X37864074Y-57340038D01*
X37864074Y-57340038D02*
X37959312Y-57292419D01*
X37959312Y-57292419D02*
X38197407Y-57292419D01*
X38197407Y-57292419D02*
X38292645Y-57340038D01*
X38292645Y-57340038D02*
X38340264Y-57387657D01*
X38340264Y-57387657D02*
X38387883Y-57482895D01*
X38387883Y-57482895D02*
X38387883Y-57578133D01*
X38387883Y-57578133D02*
X38340264Y-57720990D01*
X38340264Y-57720990D02*
X37768836Y-58292419D01*
X37768836Y-58292419D02*
X38387883Y-58292419D01*
X39387883Y-58197180D02*
X39340264Y-58244800D01*
X39340264Y-58244800D02*
X39197407Y-58292419D01*
X39197407Y-58292419D02*
X39102169Y-58292419D01*
X39102169Y-58292419D02*
X38959312Y-58244800D01*
X38959312Y-58244800D02*
X38864074Y-58149561D01*
X38864074Y-58149561D02*
X38816455Y-58054323D01*
X38816455Y-58054323D02*
X38768836Y-57863847D01*
X38768836Y-57863847D02*
X38768836Y-57720990D01*
X38768836Y-57720990D02*
X38816455Y-57530514D01*
X38816455Y-57530514D02*
X38864074Y-57435276D01*
X38864074Y-57435276D02*
X38959312Y-57340038D01*
X38959312Y-57340038D02*
X39102169Y-57292419D01*
X39102169Y-57292419D02*
X39197407Y-57292419D01*
X39197407Y-57292419D02*
X39340264Y-57340038D01*
X39340264Y-57340038D02*
X39387883Y-57387657D01*
X69976419Y-53290115D02*
X68976419Y-53290115D01*
X68976419Y-53290115D02*
X69690704Y-52956782D01*
X69690704Y-52956782D02*
X68976419Y-52623449D01*
X68976419Y-52623449D02*
X69976419Y-52623449D01*
X69976419Y-52147258D02*
X68976419Y-52147258D01*
X68976419Y-52147258D02*
X68976419Y-51909163D01*
X68976419Y-51909163D02*
X69024038Y-51766306D01*
X69024038Y-51766306D02*
X69119276Y-51671068D01*
X69119276Y-51671068D02*
X69214514Y-51623449D01*
X69214514Y-51623449D02*
X69404990Y-51575830D01*
X69404990Y-51575830D02*
X69547847Y-51575830D01*
X69547847Y-51575830D02*
X69738323Y-51623449D01*
X69738323Y-51623449D02*
X69833561Y-51671068D01*
X69833561Y-51671068D02*
X69928800Y-51766306D01*
X69928800Y-51766306D02*
X69976419Y-51909163D01*
X69976419Y-51909163D02*
X69976419Y-52147258D01*
X69071657Y-51194877D02*
X69024038Y-51147258D01*
X69024038Y-51147258D02*
X68976419Y-51052020D01*
X68976419Y-51052020D02*
X68976419Y-50813925D01*
X68976419Y-50813925D02*
X69024038Y-50718687D01*
X69024038Y-50718687D02*
X69071657Y-50671068D01*
X69071657Y-50671068D02*
X69166895Y-50623449D01*
X69166895Y-50623449D02*
X69262133Y-50623449D01*
X69262133Y-50623449D02*
X69404990Y-50671068D01*
X69404990Y-50671068D02*
X69976419Y-51242496D01*
X69976419Y-51242496D02*
X69976419Y-50623449D01*
X69071657Y-50242496D02*
X69024038Y-50194877D01*
X69024038Y-50194877D02*
X68976419Y-50099639D01*
X68976419Y-50099639D02*
X68976419Y-49861544D01*
X68976419Y-49861544D02*
X69024038Y-49766306D01*
X69024038Y-49766306D02*
X69071657Y-49718687D01*
X69071657Y-49718687D02*
X69166895Y-49671068D01*
X69166895Y-49671068D02*
X69262133Y-49671068D01*
X69262133Y-49671068D02*
X69404990Y-49718687D01*
X69404990Y-49718687D02*
X69976419Y-50290115D01*
X69976419Y-50290115D02*
X69976419Y-49671068D01*
D11*
X71822666Y-67266819D02*
X71822666Y-67981104D01*
X71822666Y-67981104D02*
X71775047Y-68123961D01*
X71775047Y-68123961D02*
X71679809Y-68219200D01*
X71679809Y-68219200D02*
X71536952Y-68266819D01*
X71536952Y-68266819D02*
X71441714Y-68266819D01*
X72251238Y-67362057D02*
X72298857Y-67314438D01*
X72298857Y-67314438D02*
X72394095Y-67266819D01*
X72394095Y-67266819D02*
X72632190Y-67266819D01*
X72632190Y-67266819D02*
X72727428Y-67314438D01*
X72727428Y-67314438D02*
X72775047Y-67362057D01*
X72775047Y-67362057D02*
X72822666Y-67457295D01*
X72822666Y-67457295D02*
X72822666Y-67552533D01*
X72822666Y-67552533D02*
X72775047Y-67695390D01*
X72775047Y-67695390D02*
X72203619Y-68266819D01*
X72203619Y-68266819D02*
X72822666Y-68266819D01*
X96982819Y-69885333D02*
X97697104Y-69885333D01*
X97697104Y-69885333D02*
X97839961Y-69932952D01*
X97839961Y-69932952D02*
X97935200Y-70028190D01*
X97935200Y-70028190D02*
X97982819Y-70171047D01*
X97982819Y-70171047D02*
X97982819Y-70266285D01*
X96982819Y-69504380D02*
X96982819Y-68837714D01*
X96982819Y-68837714D02*
X97982819Y-69266285D01*
X94916666Y-35936819D02*
X94916666Y-36651104D01*
X94916666Y-36651104D02*
X94869047Y-36793961D01*
X94869047Y-36793961D02*
X94773809Y-36889200D01*
X94773809Y-36889200D02*
X94630952Y-36936819D01*
X94630952Y-36936819D02*
X94535714Y-36936819D01*
X95821428Y-35936819D02*
X95630952Y-35936819D01*
X95630952Y-35936819D02*
X95535714Y-35984438D01*
X95535714Y-35984438D02*
X95488095Y-36032057D01*
X95488095Y-36032057D02*
X95392857Y-36174914D01*
X95392857Y-36174914D02*
X95345238Y-36365390D01*
X95345238Y-36365390D02*
X95345238Y-36746342D01*
X95345238Y-36746342D02*
X95392857Y-36841580D01*
X95392857Y-36841580D02*
X95440476Y-36889200D01*
X95440476Y-36889200D02*
X95535714Y-36936819D01*
X95535714Y-36936819D02*
X95726190Y-36936819D01*
X95726190Y-36936819D02*
X95821428Y-36889200D01*
X95821428Y-36889200D02*
X95869047Y-36841580D01*
X95869047Y-36841580D02*
X95916666Y-36746342D01*
X95916666Y-36746342D02*
X95916666Y-36508247D01*
X95916666Y-36508247D02*
X95869047Y-36413009D01*
X95869047Y-36413009D02*
X95821428Y-36365390D01*
X95821428Y-36365390D02*
X95726190Y-36317771D01*
X95726190Y-36317771D02*
X95535714Y-36317771D01*
X95535714Y-36317771D02*
X95440476Y-36365390D01*
X95440476Y-36365390D02*
X95392857Y-36413009D01*
X95392857Y-36413009D02*
X95345238Y-36508247D01*
X52446819Y-70405523D02*
X53161104Y-70405523D01*
X53161104Y-70405523D02*
X53303961Y-70453142D01*
X53303961Y-70453142D02*
X53399200Y-70548380D01*
X53399200Y-70548380D02*
X53446819Y-70691237D01*
X53446819Y-70691237D02*
X53446819Y-70786475D01*
X53446819Y-69405523D02*
X53446819Y-69976951D01*
X53446819Y-69691237D02*
X52446819Y-69691237D01*
X52446819Y-69691237D02*
X52589676Y-69786475D01*
X52589676Y-69786475D02*
X52684914Y-69881713D01*
X52684914Y-69881713D02*
X52732533Y-69976951D01*
X52446819Y-69072189D02*
X52446819Y-68405523D01*
X52446819Y-68405523D02*
X53446819Y-68834094D01*
X44148476Y-56510819D02*
X44148476Y-57225104D01*
X44148476Y-57225104D02*
X44100857Y-57367961D01*
X44100857Y-57367961D02*
X44005619Y-57463200D01*
X44005619Y-57463200D02*
X43862762Y-57510819D01*
X43862762Y-57510819D02*
X43767524Y-57510819D01*
X45148476Y-57510819D02*
X44577048Y-57510819D01*
X44862762Y-57510819D02*
X44862762Y-56510819D01*
X44862762Y-56510819D02*
X44767524Y-56653676D01*
X44767524Y-56653676D02*
X44672286Y-56748914D01*
X44672286Y-56748914D02*
X44577048Y-56796533D01*
X45624667Y-57510819D02*
X45815143Y-57510819D01*
X45815143Y-57510819D02*
X45910381Y-57463200D01*
X45910381Y-57463200D02*
X45958000Y-57415580D01*
X45958000Y-57415580D02*
X46053238Y-57272723D01*
X46053238Y-57272723D02*
X46100857Y-57082247D01*
X46100857Y-57082247D02*
X46100857Y-56701295D01*
X46100857Y-56701295D02*
X46053238Y-56606057D01*
X46053238Y-56606057D02*
X46005619Y-56558438D01*
X46005619Y-56558438D02*
X45910381Y-56510819D01*
X45910381Y-56510819D02*
X45719905Y-56510819D01*
X45719905Y-56510819D02*
X45624667Y-56558438D01*
X45624667Y-56558438D02*
X45577048Y-56606057D01*
X45577048Y-56606057D02*
X45529429Y-56701295D01*
X45529429Y-56701295D02*
X45529429Y-56939390D01*
X45529429Y-56939390D02*
X45577048Y-57034628D01*
X45577048Y-57034628D02*
X45624667Y-57082247D01*
X45624667Y-57082247D02*
X45719905Y-57129866D01*
X45719905Y-57129866D02*
X45910381Y-57129866D01*
X45910381Y-57129866D02*
X46005619Y-57082247D01*
X46005619Y-57082247D02*
X46053238Y-57034628D01*
X46053238Y-57034628D02*
X46100857Y-56939390D01*
X52192819Y-57197523D02*
X52907104Y-57197523D01*
X52907104Y-57197523D02*
X53049961Y-57245142D01*
X53049961Y-57245142D02*
X53145200Y-57340380D01*
X53145200Y-57340380D02*
X53192819Y-57483237D01*
X53192819Y-57483237D02*
X53192819Y-57578475D01*
X53192819Y-56197523D02*
X53192819Y-56768951D01*
X53192819Y-56483237D02*
X52192819Y-56483237D01*
X52192819Y-56483237D02*
X52335676Y-56578475D01*
X52335676Y-56578475D02*
X52430914Y-56673713D01*
X52430914Y-56673713D02*
X52478533Y-56768951D01*
X52192819Y-55292761D02*
X52192819Y-55768951D01*
X52192819Y-55768951D02*
X52669009Y-55816570D01*
X52669009Y-55816570D02*
X52621390Y-55768951D01*
X52621390Y-55768951D02*
X52573771Y-55673713D01*
X52573771Y-55673713D02*
X52573771Y-55435618D01*
X52573771Y-55435618D02*
X52621390Y-55340380D01*
X52621390Y-55340380D02*
X52669009Y-55292761D01*
X52669009Y-55292761D02*
X52764247Y-55245142D01*
X52764247Y-55245142D02*
X53002342Y-55245142D01*
X53002342Y-55245142D02*
X53097580Y-55292761D01*
X53097580Y-55292761D02*
X53145200Y-55340380D01*
X53145200Y-55340380D02*
X53192819Y-55435618D01*
X53192819Y-55435618D02*
X53192819Y-55673713D01*
X53192819Y-55673713D02*
X53145200Y-55768951D01*
X53145200Y-55768951D02*
X53097580Y-55816570D01*
X101282666Y-105000819D02*
X100949333Y-104524628D01*
X100711238Y-105000819D02*
X100711238Y-104000819D01*
X100711238Y-104000819D02*
X101092190Y-104000819D01*
X101092190Y-104000819D02*
X101187428Y-104048438D01*
X101187428Y-104048438D02*
X101235047Y-104096057D01*
X101235047Y-104096057D02*
X101282666Y-104191295D01*
X101282666Y-104191295D02*
X101282666Y-104334152D01*
X101282666Y-104334152D02*
X101235047Y-104429390D01*
X101235047Y-104429390D02*
X101187428Y-104477009D01*
X101187428Y-104477009D02*
X101092190Y-104524628D01*
X101092190Y-104524628D02*
X100711238Y-104524628D01*
X101711238Y-104477009D02*
X102044571Y-104477009D01*
X102187428Y-105000819D02*
X101711238Y-105000819D01*
X101711238Y-105000819D02*
X101711238Y-104000819D01*
X101711238Y-104000819D02*
X102187428Y-104000819D01*
X102949333Y-104477009D02*
X102616000Y-104477009D01*
X102616000Y-105000819D02*
X102616000Y-104000819D01*
X102616000Y-104000819D02*
X103092190Y-104000819D01*
X103616000Y-104000819D02*
X103616000Y-104238914D01*
X103377905Y-104143676D02*
X103616000Y-104238914D01*
X103616000Y-104238914D02*
X103854095Y-104143676D01*
X103473143Y-104429390D02*
X103616000Y-104238914D01*
X103616000Y-104238914D02*
X103758857Y-104429390D01*
X104377905Y-104000819D02*
X104377905Y-104238914D01*
X104139810Y-104143676D02*
X104377905Y-104238914D01*
X104377905Y-104238914D02*
X104616000Y-104143676D01*
X104235048Y-104429390D02*
X104377905Y-104238914D01*
X104377905Y-104238914D02*
X104520762Y-104429390D01*
X52192819Y-47037523D02*
X52907104Y-47037523D01*
X52907104Y-47037523D02*
X53049961Y-47085142D01*
X53049961Y-47085142D02*
X53145200Y-47180380D01*
X53145200Y-47180380D02*
X53192819Y-47323237D01*
X53192819Y-47323237D02*
X53192819Y-47418475D01*
X53192819Y-46037523D02*
X53192819Y-46608951D01*
X53192819Y-46323237D02*
X52192819Y-46323237D01*
X52192819Y-46323237D02*
X52335676Y-46418475D01*
X52335676Y-46418475D02*
X52430914Y-46513713D01*
X52430914Y-46513713D02*
X52478533Y-46608951D01*
X52192819Y-45180380D02*
X52192819Y-45370856D01*
X52192819Y-45370856D02*
X52240438Y-45466094D01*
X52240438Y-45466094D02*
X52288057Y-45513713D01*
X52288057Y-45513713D02*
X52430914Y-45608951D01*
X52430914Y-45608951D02*
X52621390Y-45656570D01*
X52621390Y-45656570D02*
X53002342Y-45656570D01*
X53002342Y-45656570D02*
X53097580Y-45608951D01*
X53097580Y-45608951D02*
X53145200Y-45561332D01*
X53145200Y-45561332D02*
X53192819Y-45466094D01*
X53192819Y-45466094D02*
X53192819Y-45275618D01*
X53192819Y-45275618D02*
X53145200Y-45180380D01*
X53145200Y-45180380D02*
X53097580Y-45132761D01*
X53097580Y-45132761D02*
X53002342Y-45085142D01*
X53002342Y-45085142D02*
X52764247Y-45085142D01*
X52764247Y-45085142D02*
X52669009Y-45132761D01*
X52669009Y-45132761D02*
X52621390Y-45180380D01*
X52621390Y-45180380D02*
X52573771Y-45275618D01*
X52573771Y-45275618D02*
X52573771Y-45466094D01*
X52573771Y-45466094D02*
X52621390Y-45561332D01*
X52621390Y-45561332D02*
X52669009Y-45608951D01*
X52669009Y-45608951D02*
X52764247Y-45656570D01*
X52446819Y-80565523D02*
X53161104Y-80565523D01*
X53161104Y-80565523D02*
X53303961Y-80613142D01*
X53303961Y-80613142D02*
X53399200Y-80708380D01*
X53399200Y-80708380D02*
X53446819Y-80851237D01*
X53446819Y-80851237D02*
X53446819Y-80946475D01*
X53446819Y-79565523D02*
X53446819Y-80136951D01*
X53446819Y-79851237D02*
X52446819Y-79851237D01*
X52446819Y-79851237D02*
X52589676Y-79946475D01*
X52589676Y-79946475D02*
X52684914Y-80041713D01*
X52684914Y-80041713D02*
X52732533Y-80136951D01*
X52875390Y-78994094D02*
X52827771Y-79089332D01*
X52827771Y-79089332D02*
X52780152Y-79136951D01*
X52780152Y-79136951D02*
X52684914Y-79184570D01*
X52684914Y-79184570D02*
X52637295Y-79184570D01*
X52637295Y-79184570D02*
X52542057Y-79136951D01*
X52542057Y-79136951D02*
X52494438Y-79089332D01*
X52494438Y-79089332D02*
X52446819Y-78994094D01*
X52446819Y-78994094D02*
X52446819Y-78803618D01*
X52446819Y-78803618D02*
X52494438Y-78708380D01*
X52494438Y-78708380D02*
X52542057Y-78660761D01*
X52542057Y-78660761D02*
X52637295Y-78613142D01*
X52637295Y-78613142D02*
X52684914Y-78613142D01*
X52684914Y-78613142D02*
X52780152Y-78660761D01*
X52780152Y-78660761D02*
X52827771Y-78708380D01*
X52827771Y-78708380D02*
X52875390Y-78803618D01*
X52875390Y-78803618D02*
X52875390Y-78994094D01*
X52875390Y-78994094D02*
X52923009Y-79089332D01*
X52923009Y-79089332D02*
X52970628Y-79136951D01*
X52970628Y-79136951D02*
X53065866Y-79184570D01*
X53065866Y-79184570D02*
X53256342Y-79184570D01*
X53256342Y-79184570D02*
X53351580Y-79136951D01*
X53351580Y-79136951D02*
X53399200Y-79089332D01*
X53399200Y-79089332D02*
X53446819Y-78994094D01*
X53446819Y-78994094D02*
X53446819Y-78803618D01*
X53446819Y-78803618D02*
X53399200Y-78708380D01*
X53399200Y-78708380D02*
X53351580Y-78660761D01*
X53351580Y-78660761D02*
X53256342Y-78613142D01*
X53256342Y-78613142D02*
X53065866Y-78613142D01*
X53065866Y-78613142D02*
X52970628Y-78660761D01*
X52970628Y-78660761D02*
X52923009Y-78708380D01*
X52923009Y-78708380D02*
X52875390Y-78803618D01*
X100012666Y-36166819D02*
X99679333Y-35690628D01*
X99441238Y-36166819D02*
X99441238Y-35166819D01*
X99441238Y-35166819D02*
X99822190Y-35166819D01*
X99822190Y-35166819D02*
X99917428Y-35214438D01*
X99917428Y-35214438D02*
X99965047Y-35262057D01*
X99965047Y-35262057D02*
X100012666Y-35357295D01*
X100012666Y-35357295D02*
X100012666Y-35500152D01*
X100012666Y-35500152D02*
X99965047Y-35595390D01*
X99965047Y-35595390D02*
X99917428Y-35643009D01*
X99917428Y-35643009D02*
X99822190Y-35690628D01*
X99822190Y-35690628D02*
X99441238Y-35690628D01*
X100441238Y-35643009D02*
X100774571Y-35643009D01*
X100917428Y-36166819D02*
X100441238Y-36166819D01*
X100441238Y-36166819D02*
X100441238Y-35166819D01*
X100441238Y-35166819D02*
X100917428Y-35166819D01*
X101679333Y-35643009D02*
X101346000Y-35643009D01*
X101346000Y-36166819D02*
X101346000Y-35166819D01*
X101346000Y-35166819D02*
X101822190Y-35166819D01*
X102346000Y-35166819D02*
X102346000Y-35404914D01*
X102107905Y-35309676D02*
X102346000Y-35404914D01*
X102346000Y-35404914D02*
X102584095Y-35309676D01*
X102203143Y-35595390D02*
X102346000Y-35404914D01*
X102346000Y-35404914D02*
X102488857Y-35595390D01*
X103107905Y-35166819D02*
X103107905Y-35404914D01*
X102869810Y-35309676D02*
X103107905Y-35404914D01*
X103107905Y-35404914D02*
X103346000Y-35309676D01*
X102965048Y-35595390D02*
X103107905Y-35404914D01*
X103107905Y-35404914D02*
X103250762Y-35595390D01*
X79676666Y-35936819D02*
X79676666Y-36651104D01*
X79676666Y-36651104D02*
X79629047Y-36793961D01*
X79629047Y-36793961D02*
X79533809Y-36889200D01*
X79533809Y-36889200D02*
X79390952Y-36936819D01*
X79390952Y-36936819D02*
X79295714Y-36936819D01*
X80629047Y-35936819D02*
X80152857Y-35936819D01*
X80152857Y-35936819D02*
X80105238Y-36413009D01*
X80105238Y-36413009D02*
X80152857Y-36365390D01*
X80152857Y-36365390D02*
X80248095Y-36317771D01*
X80248095Y-36317771D02*
X80486190Y-36317771D01*
X80486190Y-36317771D02*
X80581428Y-36365390D01*
X80581428Y-36365390D02*
X80629047Y-36413009D01*
X80629047Y-36413009D02*
X80676666Y-36508247D01*
X80676666Y-36508247D02*
X80676666Y-36746342D01*
X80676666Y-36746342D02*
X80629047Y-36841580D01*
X80629047Y-36841580D02*
X80581428Y-36889200D01*
X80581428Y-36889200D02*
X80486190Y-36936819D01*
X80486190Y-36936819D02*
X80248095Y-36936819D01*
X80248095Y-36936819D02*
X80152857Y-36889200D01*
X80152857Y-36889200D02*
X80105238Y-36841580D01*
X102669819Y-88467285D02*
X101669819Y-88467285D01*
X101669819Y-88467285D02*
X101669819Y-88086333D01*
X101669819Y-88086333D02*
X101717438Y-87991095D01*
X101717438Y-87991095D02*
X101765057Y-87943476D01*
X101765057Y-87943476D02*
X101860295Y-87895857D01*
X101860295Y-87895857D02*
X102003152Y-87895857D01*
X102003152Y-87895857D02*
X102098390Y-87943476D01*
X102098390Y-87943476D02*
X102146009Y-87991095D01*
X102146009Y-87991095D02*
X102193628Y-88086333D01*
X102193628Y-88086333D02*
X102193628Y-88467285D01*
X102622200Y-87514904D02*
X102669819Y-87372047D01*
X102669819Y-87372047D02*
X102669819Y-87133952D01*
X102669819Y-87133952D02*
X102622200Y-87038714D01*
X102622200Y-87038714D02*
X102574580Y-86991095D01*
X102574580Y-86991095D02*
X102479342Y-86943476D01*
X102479342Y-86943476D02*
X102384104Y-86943476D01*
X102384104Y-86943476D02*
X102288866Y-86991095D01*
X102288866Y-86991095D02*
X102241247Y-87038714D01*
X102241247Y-87038714D02*
X102193628Y-87133952D01*
X102193628Y-87133952D02*
X102146009Y-87324428D01*
X102146009Y-87324428D02*
X102098390Y-87419666D01*
X102098390Y-87419666D02*
X102050771Y-87467285D01*
X102050771Y-87467285D02*
X101955533Y-87514904D01*
X101955533Y-87514904D02*
X101860295Y-87514904D01*
X101860295Y-87514904D02*
X101765057Y-87467285D01*
X101765057Y-87467285D02*
X101717438Y-87419666D01*
X101717438Y-87419666D02*
X101669819Y-87324428D01*
X101669819Y-87324428D02*
X101669819Y-87086333D01*
X101669819Y-87086333D02*
X101717438Y-86943476D01*
X102669819Y-85991095D02*
X102669819Y-86562523D01*
X102669819Y-86276809D02*
X101669819Y-86276809D01*
X101669819Y-86276809D02*
X101812676Y-86372047D01*
X101812676Y-86372047D02*
X101907914Y-86467285D01*
X101907914Y-86467285D02*
X101955533Y-86562523D01*
X96982819Y-55661333D02*
X97697104Y-55661333D01*
X97697104Y-55661333D02*
X97839961Y-55708952D01*
X97839961Y-55708952D02*
X97935200Y-55804190D01*
X97935200Y-55804190D02*
X97982819Y-55947047D01*
X97982819Y-55947047D02*
X97982819Y-56042285D01*
X97982819Y-55137523D02*
X97982819Y-54947047D01*
X97982819Y-54947047D02*
X97935200Y-54851809D01*
X97935200Y-54851809D02*
X97887580Y-54804190D01*
X97887580Y-54804190D02*
X97744723Y-54708952D01*
X97744723Y-54708952D02*
X97554247Y-54661333D01*
X97554247Y-54661333D02*
X97173295Y-54661333D01*
X97173295Y-54661333D02*
X97078057Y-54708952D01*
X97078057Y-54708952D02*
X97030438Y-54756571D01*
X97030438Y-54756571D02*
X96982819Y-54851809D01*
X96982819Y-54851809D02*
X96982819Y-55042285D01*
X96982819Y-55042285D02*
X97030438Y-55137523D01*
X97030438Y-55137523D02*
X97078057Y-55185142D01*
X97078057Y-55185142D02*
X97173295Y-55232761D01*
X97173295Y-55232761D02*
X97411390Y-55232761D01*
X97411390Y-55232761D02*
X97506628Y-55185142D01*
X97506628Y-55185142D02*
X97554247Y-55137523D01*
X97554247Y-55137523D02*
X97601866Y-55042285D01*
X97601866Y-55042285D02*
X97601866Y-54851809D01*
X97601866Y-54851809D02*
X97554247Y-54756571D01*
X97554247Y-54756571D02*
X97506628Y-54708952D01*
X97506628Y-54708952D02*
X97411390Y-54661333D01*
D12*
%TO.C,J2*%
X63854000Y-61006000D02*
X63854000Y-66976000D01*
X63854000Y-66976000D02*
X76474000Y-66976000D01*
X63864000Y-64716000D02*
X64614000Y-64716000D01*
X63864000Y-66216000D02*
X63864000Y-66966000D01*
X63864000Y-66966000D02*
X65664000Y-66966000D01*
X64614000Y-61766000D02*
X70164000Y-61766000D01*
X64614000Y-64716000D02*
X64614000Y-61766000D01*
X65664000Y-66216000D02*
X63864000Y-66216000D01*
X65664000Y-66966000D02*
X65664000Y-66216000D01*
X67164000Y-66216000D02*
X67164000Y-66966000D01*
X67164000Y-66966000D02*
X73164000Y-66966000D01*
X73164000Y-66216000D02*
X67164000Y-66216000D01*
X73164000Y-66966000D02*
X73164000Y-66216000D01*
X74664000Y-66216000D02*
X74664000Y-66966000D01*
X74664000Y-66966000D02*
X76464000Y-66966000D01*
X75514000Y-67266000D02*
X76764000Y-67266000D01*
X75714000Y-61766000D02*
X70164000Y-61766000D01*
X75714000Y-64716000D02*
X75714000Y-61766000D01*
X76464000Y-64716000D02*
X75714000Y-64716000D01*
X76464000Y-66216000D02*
X74664000Y-66216000D01*
X76464000Y-66966000D02*
X76464000Y-66216000D01*
X76474000Y-61006000D02*
X63854000Y-61006000D01*
X76474000Y-66976000D02*
X76474000Y-61006000D01*
X76764000Y-67266000D02*
X76764000Y-66016000D01*
%TO.C,J7*%
X98328000Y-74902000D02*
X98328000Y-76152000D01*
X98328000Y-76152000D02*
X99578000Y-76152000D01*
X98618000Y-63242000D02*
X98618000Y-75862000D01*
X98618000Y-75862000D02*
X104588000Y-75862000D01*
X98628000Y-63252000D02*
X98628000Y-65052000D01*
X98628000Y-65052000D02*
X99378000Y-65052000D01*
X98628000Y-66552000D02*
X98628000Y-72552000D01*
X98628000Y-72552000D02*
X99378000Y-72552000D01*
X98628000Y-74052000D02*
X98628000Y-75852000D01*
X98628000Y-75852000D02*
X99378000Y-75852000D01*
X99378000Y-63252000D02*
X98628000Y-63252000D01*
X99378000Y-65052000D02*
X99378000Y-63252000D01*
X99378000Y-66552000D02*
X98628000Y-66552000D01*
X99378000Y-72552000D02*
X99378000Y-66552000D01*
X99378000Y-74052000D02*
X98628000Y-74052000D01*
X99378000Y-75852000D02*
X99378000Y-74052000D01*
X100878000Y-63252000D02*
X100878000Y-64002000D01*
X100878000Y-64002000D02*
X103828000Y-64002000D01*
X100878000Y-75102000D02*
X103828000Y-75102000D01*
X100878000Y-75852000D02*
X100878000Y-75102000D01*
X103828000Y-64002000D02*
X103828000Y-69552000D01*
X103828000Y-75102000D02*
X103828000Y-69552000D01*
X104588000Y-63242000D02*
X98618000Y-63242000D01*
X104588000Y-75862000D02*
X104588000Y-63242000D01*
%TO.C,J3*%
X35098000Y-81808000D02*
X35098000Y-89428000D01*
X35098000Y-89428000D02*
X41068000Y-89428000D01*
X35858000Y-82568000D02*
X35858000Y-85618000D01*
X35858000Y-88668000D02*
X35858000Y-85618000D01*
X38808000Y-81818000D02*
X38808000Y-82568000D01*
X38808000Y-82568000D02*
X35858000Y-82568000D01*
X38808000Y-88668000D02*
X35858000Y-88668000D01*
X38808000Y-89418000D02*
X38808000Y-88668000D01*
X40308000Y-81818000D02*
X40308000Y-83618000D01*
X40308000Y-83618000D02*
X41058000Y-83618000D01*
X40308000Y-85118000D02*
X40308000Y-86118000D01*
X40308000Y-86118000D02*
X41058000Y-86118000D01*
X40308000Y-87618000D02*
X40308000Y-89418000D01*
X40308000Y-89418000D02*
X41058000Y-89418000D01*
X41058000Y-81818000D02*
X40308000Y-81818000D01*
X41058000Y-83618000D02*
X41058000Y-81818000D01*
X41058000Y-85118000D02*
X40308000Y-85118000D01*
X41058000Y-86118000D02*
X41058000Y-85118000D01*
X41058000Y-87618000D02*
X40308000Y-87618000D01*
X41058000Y-89418000D02*
X41058000Y-87618000D01*
X41068000Y-81808000D02*
X35098000Y-81808000D01*
X41068000Y-89428000D02*
X41068000Y-81808000D01*
X41358000Y-81518000D02*
X40108000Y-81518000D01*
X41358000Y-82768000D02*
X41358000Y-81518000D01*
%TO.C,J6*%
X93870000Y-37482000D02*
X95250000Y-37482000D01*
X93870000Y-38862000D02*
X93870000Y-37482000D01*
X93870000Y-40132000D02*
X93870000Y-75802000D01*
X93870000Y-40132000D02*
X96630000Y-40132000D01*
X93870000Y-75802000D02*
X96630000Y-75802000D01*
X96630000Y-40132000D02*
X96630000Y-75802000D01*
%TO.C,J10*%
X63346000Y-37638000D02*
X63346000Y-43608000D01*
X63346000Y-43608000D02*
X75966000Y-43608000D01*
X63356000Y-41348000D02*
X64106000Y-41348000D01*
X63356000Y-42848000D02*
X63356000Y-43598000D01*
X63356000Y-43598000D02*
X65156000Y-43598000D01*
X64106000Y-38398000D02*
X69656000Y-38398000D01*
X64106000Y-41348000D02*
X64106000Y-38398000D01*
X65156000Y-42848000D02*
X63356000Y-42848000D01*
X65156000Y-43598000D02*
X65156000Y-42848000D01*
X66656000Y-42848000D02*
X66656000Y-43598000D01*
X66656000Y-43598000D02*
X72656000Y-43598000D01*
X72656000Y-42848000D02*
X66656000Y-42848000D01*
X72656000Y-43598000D02*
X72656000Y-42848000D01*
X74156000Y-42848000D02*
X74156000Y-43598000D01*
X74156000Y-43598000D02*
X75956000Y-43598000D01*
X75006000Y-43898000D02*
X76256000Y-43898000D01*
X75206000Y-38398000D02*
X69656000Y-38398000D01*
X75206000Y-41348000D02*
X75206000Y-38398000D01*
X75956000Y-41348000D02*
X75206000Y-41348000D01*
X75956000Y-42848000D02*
X74156000Y-42848000D01*
X75956000Y-43598000D02*
X75956000Y-42848000D01*
X75966000Y-37638000D02*
X63346000Y-37638000D01*
X75966000Y-43608000D02*
X75966000Y-37638000D01*
X76256000Y-43898000D02*
X76256000Y-42648000D01*
%TO.C,J17*%
X53992000Y-70976000D02*
X53992000Y-69596000D01*
X55372000Y-70976000D02*
X53992000Y-70976000D01*
X56642000Y-68216000D02*
X69452000Y-68216000D01*
X56642000Y-70976000D02*
X56642000Y-68216000D01*
X56642000Y-70976000D02*
X69452000Y-70976000D01*
X69452000Y-70976000D02*
X69452000Y-68216000D01*
%TO.C,J19*%
X42308000Y-58056000D02*
X43688000Y-58056000D01*
X42308000Y-59436000D02*
X42308000Y-58056000D01*
X42308000Y-60706000D02*
X42308000Y-109076000D01*
X42308000Y-60706000D02*
X44958000Y-60706000D01*
X42308000Y-109076000D02*
X47608000Y-109076000D01*
X44958000Y-58056000D02*
X47608000Y-58056000D01*
X44958000Y-60706000D02*
X44958000Y-58056000D01*
X47608000Y-58056000D02*
X47608000Y-109076000D01*
%TO.C,J15*%
X53738000Y-57768000D02*
X53738000Y-56388000D01*
X55118000Y-57768000D02*
X53738000Y-57768000D01*
X56388000Y-55008000D02*
X69198000Y-55008000D01*
X56388000Y-57768000D02*
X56388000Y-55008000D01*
X56388000Y-57768000D02*
X69198000Y-57768000D01*
X69198000Y-57768000D02*
X69198000Y-55008000D01*
%TO.C,J16*%
X53738000Y-47608000D02*
X53738000Y-46228000D01*
X55118000Y-47608000D02*
X53738000Y-47608000D01*
X56388000Y-44848000D02*
X69198000Y-44848000D01*
X56388000Y-47608000D02*
X56388000Y-44848000D01*
X56388000Y-47608000D02*
X69198000Y-47608000D01*
X69198000Y-47608000D02*
X69198000Y-44848000D01*
%TO.C,J13*%
X70912000Y-46074000D02*
X70912000Y-58694000D01*
X70912000Y-58694000D02*
X76882000Y-58694000D01*
X71672000Y-46834000D02*
X71672000Y-52384000D01*
X71672000Y-57934000D02*
X71672000Y-52384000D01*
X74622000Y-46084000D02*
X74622000Y-46834000D01*
X74622000Y-46834000D02*
X71672000Y-46834000D01*
X74622000Y-57934000D02*
X71672000Y-57934000D01*
X74622000Y-58684000D02*
X74622000Y-57934000D01*
X76122000Y-46084000D02*
X76122000Y-47884000D01*
X76122000Y-47884000D02*
X76872000Y-47884000D01*
X76122000Y-49384000D02*
X76122000Y-55384000D01*
X76122000Y-55384000D02*
X76872000Y-55384000D01*
X76122000Y-56884000D02*
X76122000Y-58684000D01*
X76122000Y-58684000D02*
X76872000Y-58684000D01*
X76872000Y-46084000D02*
X76122000Y-46084000D01*
X76872000Y-47884000D02*
X76872000Y-46084000D01*
X76872000Y-49384000D02*
X76122000Y-49384000D01*
X76872000Y-55384000D02*
X76872000Y-49384000D01*
X76872000Y-56884000D02*
X76122000Y-56884000D01*
X76872000Y-58684000D02*
X76872000Y-56884000D01*
X76882000Y-46074000D02*
X70912000Y-46074000D01*
X76882000Y-58694000D02*
X76882000Y-46074000D01*
X77172000Y-45784000D02*
X75922000Y-45784000D01*
X77172000Y-47034000D02*
X77172000Y-45784000D01*
%TO.C,J1*%
X49884000Y-61006000D02*
X49884000Y-66976000D01*
X49884000Y-66976000D02*
X62504000Y-66976000D01*
X49894000Y-64716000D02*
X50644000Y-64716000D01*
X49894000Y-66216000D02*
X49894000Y-66966000D01*
X49894000Y-66966000D02*
X51694000Y-66966000D01*
X50644000Y-61766000D02*
X56194000Y-61766000D01*
X50644000Y-64716000D02*
X50644000Y-61766000D01*
X51694000Y-66216000D02*
X49894000Y-66216000D01*
X51694000Y-66966000D02*
X51694000Y-66216000D01*
X53194000Y-66216000D02*
X53194000Y-66966000D01*
X53194000Y-66966000D02*
X59194000Y-66966000D01*
X59194000Y-66216000D02*
X53194000Y-66216000D01*
X59194000Y-66966000D02*
X59194000Y-66216000D01*
X60694000Y-66216000D02*
X60694000Y-66966000D01*
X60694000Y-66966000D02*
X62494000Y-66966000D01*
X61544000Y-67266000D02*
X62794000Y-67266000D01*
X61744000Y-61766000D02*
X56194000Y-61766000D01*
X61744000Y-64716000D02*
X61744000Y-61766000D01*
X62494000Y-64716000D02*
X61744000Y-64716000D01*
X62494000Y-66216000D02*
X60694000Y-66216000D01*
X62494000Y-66966000D02*
X62494000Y-66216000D01*
X62504000Y-61006000D02*
X49884000Y-61006000D01*
X62504000Y-66976000D02*
X62504000Y-61006000D01*
X62794000Y-67266000D02*
X62794000Y-66016000D01*
%TO.C,J11*%
X49510000Y-37638000D02*
X49510000Y-43608000D01*
X49510000Y-43608000D02*
X62130000Y-43608000D01*
X49520000Y-41348000D02*
X50270000Y-41348000D01*
X49520000Y-42848000D02*
X49520000Y-43598000D01*
X49520000Y-43598000D02*
X51320000Y-43598000D01*
X50270000Y-38398000D02*
X55820000Y-38398000D01*
X50270000Y-41348000D02*
X50270000Y-38398000D01*
X51320000Y-42848000D02*
X49520000Y-42848000D01*
X51320000Y-43598000D02*
X51320000Y-42848000D01*
X52820000Y-42848000D02*
X52820000Y-43598000D01*
X52820000Y-43598000D02*
X58820000Y-43598000D01*
X58820000Y-42848000D02*
X52820000Y-42848000D01*
X58820000Y-43598000D02*
X58820000Y-42848000D01*
X60320000Y-42848000D02*
X60320000Y-43598000D01*
X60320000Y-43598000D02*
X62120000Y-43598000D01*
X61170000Y-43898000D02*
X62420000Y-43898000D01*
X61370000Y-38398000D02*
X55820000Y-38398000D01*
X61370000Y-41348000D02*
X61370000Y-38398000D01*
X62120000Y-41348000D02*
X61370000Y-41348000D01*
X62120000Y-42848000D02*
X60320000Y-42848000D01*
X62120000Y-43598000D02*
X62120000Y-42848000D01*
X62130000Y-37638000D02*
X49510000Y-37638000D01*
X62130000Y-43608000D02*
X62130000Y-37638000D01*
X62420000Y-43898000D02*
X62420000Y-42648000D01*
%TO.C,J18*%
X53992000Y-81136000D02*
X53992000Y-79756000D01*
X55372000Y-81136000D02*
X53992000Y-81136000D01*
X56642000Y-78376000D02*
X69452000Y-78376000D01*
X56642000Y-81136000D02*
X56642000Y-78376000D01*
X56642000Y-81136000D02*
X69452000Y-81136000D01*
X69452000Y-81136000D02*
X69452000Y-78376000D01*
%TO.C,J4*%
X35098000Y-73172000D02*
X35098000Y-80792000D01*
X35098000Y-80792000D02*
X41068000Y-80792000D01*
X35858000Y-73932000D02*
X35858000Y-76982000D01*
X35858000Y-80032000D02*
X35858000Y-76982000D01*
X38808000Y-73182000D02*
X38808000Y-73932000D01*
X38808000Y-73932000D02*
X35858000Y-73932000D01*
X38808000Y-80032000D02*
X35858000Y-80032000D01*
X38808000Y-80782000D02*
X38808000Y-80032000D01*
X40308000Y-73182000D02*
X40308000Y-74982000D01*
X40308000Y-74982000D02*
X41058000Y-74982000D01*
X40308000Y-76482000D02*
X40308000Y-77482000D01*
X40308000Y-77482000D02*
X41058000Y-77482000D01*
X40308000Y-78982000D02*
X40308000Y-80782000D01*
X40308000Y-80782000D02*
X41058000Y-80782000D01*
X41058000Y-73182000D02*
X40308000Y-73182000D01*
X41058000Y-74982000D02*
X41058000Y-73182000D01*
X41058000Y-76482000D02*
X40308000Y-76482000D01*
X41058000Y-77482000D02*
X41058000Y-76482000D01*
X41058000Y-78982000D02*
X40308000Y-78982000D01*
X41058000Y-80782000D02*
X41058000Y-78982000D01*
X41068000Y-73172000D02*
X35098000Y-73172000D01*
X41068000Y-80792000D02*
X41068000Y-73172000D01*
X41358000Y-72882000D02*
X40108000Y-72882000D01*
X41358000Y-74132000D02*
X41358000Y-72882000D01*
%TO.C,J5*%
X78630000Y-37482000D02*
X80010000Y-37482000D01*
X78630000Y-38862000D02*
X78630000Y-37482000D01*
X78630000Y-40132000D02*
X78630000Y-75802000D01*
X78630000Y-40132000D02*
X81390000Y-40132000D01*
X78630000Y-75802000D02*
X81390000Y-75802000D01*
X81390000Y-40132000D02*
X81390000Y-75802000D01*
%TO.C,J8*%
X84094000Y-77008000D02*
X84094000Y-82978000D01*
X84094000Y-82978000D02*
X91714000Y-82978000D01*
X84104000Y-80718000D02*
X84854000Y-80718000D01*
X84104000Y-82218000D02*
X84104000Y-82968000D01*
X84104000Y-82968000D02*
X85904000Y-82968000D01*
X84854000Y-77768000D02*
X87904000Y-77768000D01*
X84854000Y-80718000D02*
X84854000Y-77768000D01*
X85904000Y-82218000D02*
X84104000Y-82218000D01*
X85904000Y-82968000D02*
X85904000Y-82218000D01*
X87404000Y-82218000D02*
X87404000Y-82968000D01*
X87404000Y-82968000D02*
X88404000Y-82968000D01*
X88404000Y-82218000D02*
X87404000Y-82218000D01*
X88404000Y-82968000D02*
X88404000Y-82218000D01*
X89904000Y-82218000D02*
X89904000Y-82968000D01*
X89904000Y-82968000D02*
X91704000Y-82968000D01*
X90754000Y-83268000D02*
X92004000Y-83268000D01*
X90954000Y-77768000D02*
X87904000Y-77768000D01*
X90954000Y-80718000D02*
X90954000Y-77768000D01*
X91704000Y-80718000D02*
X90954000Y-80718000D01*
X91704000Y-82218000D02*
X89904000Y-82218000D01*
X91704000Y-82968000D02*
X91704000Y-82218000D01*
X91714000Y-77008000D02*
X84094000Y-77008000D01*
X91714000Y-82978000D02*
X91714000Y-77008000D01*
X92004000Y-83268000D02*
X92004000Y-82018000D01*
D13*
%TO.C,PS1*%
X49530000Y-84328000D02*
X49530000Y-109728000D01*
X49530000Y-109728000D02*
X100330000Y-109728000D01*
X100330000Y-84328000D02*
X49530000Y-84328000D01*
X100330000Y-109728000D02*
X100330000Y-84328000D01*
D14*
X97890000Y-83578000D02*
G75*
G02*
X97690000Y-83578000I-100000J0D01*
G01*
X97690000Y-83578000D02*
G75*
G02*
X97890000Y-83578000I100000J0D01*
G01*
D12*
%TO.C,J9*%
X98328000Y-60678000D02*
X98328000Y-61928000D01*
X98328000Y-61928000D02*
X99578000Y-61928000D01*
X98618000Y-49018000D02*
X98618000Y-61638000D01*
X98618000Y-61638000D02*
X104588000Y-61638000D01*
X98628000Y-49028000D02*
X98628000Y-50828000D01*
X98628000Y-50828000D02*
X99378000Y-50828000D01*
X98628000Y-52328000D02*
X98628000Y-58328000D01*
X98628000Y-58328000D02*
X99378000Y-58328000D01*
X98628000Y-59828000D02*
X98628000Y-61628000D01*
X98628000Y-61628000D02*
X99378000Y-61628000D01*
X99378000Y-49028000D02*
X98628000Y-49028000D01*
X99378000Y-50828000D02*
X99378000Y-49028000D01*
X99378000Y-52328000D02*
X98628000Y-52328000D01*
X99378000Y-58328000D02*
X99378000Y-52328000D01*
X99378000Y-59828000D02*
X98628000Y-59828000D01*
X99378000Y-61628000D02*
X99378000Y-59828000D01*
X100878000Y-49028000D02*
X100878000Y-49778000D01*
X100878000Y-49778000D02*
X103828000Y-49778000D01*
X100878000Y-60878000D02*
X103828000Y-60878000D01*
X100878000Y-61628000D02*
X100878000Y-60878000D01*
X103828000Y-49778000D02*
X103828000Y-55328000D01*
X103828000Y-60878000D02*
X103828000Y-55328000D01*
X104588000Y-49018000D02*
X98618000Y-49018000D01*
X104588000Y-61638000D02*
X104588000Y-49018000D01*
%TO.C,J12*%
X35098000Y-59416000D02*
X35098000Y-72036000D01*
X35098000Y-72036000D02*
X41068000Y-72036000D01*
X35858000Y-60176000D02*
X35858000Y-65726000D01*
X35858000Y-71276000D02*
X35858000Y-65726000D01*
X38808000Y-59426000D02*
X38808000Y-60176000D01*
X38808000Y-60176000D02*
X35858000Y-60176000D01*
X38808000Y-71276000D02*
X35858000Y-71276000D01*
X38808000Y-72026000D02*
X38808000Y-71276000D01*
X40308000Y-59426000D02*
X40308000Y-61226000D01*
X40308000Y-61226000D02*
X41058000Y-61226000D01*
X40308000Y-62726000D02*
X40308000Y-68726000D01*
X40308000Y-68726000D02*
X41058000Y-68726000D01*
X40308000Y-70226000D02*
X40308000Y-72026000D01*
X40308000Y-72026000D02*
X41058000Y-72026000D01*
X41058000Y-59426000D02*
X40308000Y-59426000D01*
X41058000Y-61226000D02*
X41058000Y-59426000D01*
X41058000Y-62726000D02*
X40308000Y-62726000D01*
X41058000Y-68726000D02*
X41058000Y-62726000D01*
X41058000Y-70226000D02*
X40308000Y-70226000D01*
X41058000Y-72026000D02*
X41058000Y-70226000D01*
X41068000Y-59416000D02*
X35098000Y-59416000D01*
X41068000Y-72036000D02*
X41068000Y-59416000D01*
X41358000Y-59126000D02*
X40108000Y-59126000D01*
X41358000Y-60376000D02*
X41358000Y-59126000D01*
%TD*%
%LPC*%
D15*
%TO.C,R8*%
X48768000Y-76708000D03*
X48768000Y-75068000D03*
%TD*%
D16*
%TO.C,J2*%
X73914000Y-64516000D03*
D17*
X71414000Y-64516000D03*
X68914000Y-64516000D03*
X66414000Y-64516000D03*
%TD*%
D18*
%TO.C,J7*%
X101078000Y-73302000D03*
D19*
X101078000Y-70802000D03*
X101078000Y-68302000D03*
X101078000Y-65802000D03*
%TD*%
D20*
%TO.C,J3*%
X38608000Y-84368000D03*
D21*
X38608000Y-86868000D03*
%TD*%
D22*
%TO.C,J6*%
X95250000Y-38862000D03*
D23*
X95250000Y-41402000D03*
X95250000Y-43942000D03*
X95250000Y-46482000D03*
X95250000Y-49022000D03*
X95250000Y-51562000D03*
X95250000Y-54102000D03*
X95250000Y-56642000D03*
X95250000Y-59182000D03*
X95250000Y-61722000D03*
X95250000Y-64262000D03*
X95250000Y-66802000D03*
X95250000Y-69342000D03*
X95250000Y-71882000D03*
X95250000Y-74422000D03*
%TD*%
D16*
%TO.C,J10*%
X73406000Y-41148000D03*
D17*
X70906000Y-41148000D03*
X68406000Y-41148000D03*
X65906000Y-41148000D03*
%TD*%
D22*
%TO.C,J17*%
X55372000Y-69596000D03*
D23*
X57912000Y-69596000D03*
X60452000Y-69596000D03*
X62992000Y-69596000D03*
X65532000Y-69596000D03*
X68072000Y-69596000D03*
%TD*%
D22*
%TO.C,J19*%
X43688000Y-59436000D03*
D23*
X46228000Y-59436000D03*
X43688000Y-61976000D03*
X46228000Y-61976000D03*
X43688000Y-64516000D03*
X46228000Y-64516000D03*
X43688000Y-67056000D03*
X46228000Y-67056000D03*
X43688000Y-69596000D03*
X46228000Y-69596000D03*
X43688000Y-72136000D03*
X46228000Y-72136000D03*
X43688000Y-74676000D03*
X46228000Y-74676000D03*
X43688000Y-77216000D03*
X46228000Y-77216000D03*
X43688000Y-79756000D03*
X46228000Y-79756000D03*
X43688000Y-82296000D03*
X46228000Y-82296000D03*
X43688000Y-84836000D03*
X46228000Y-84836000D03*
X43688000Y-87376000D03*
X46228000Y-87376000D03*
X43688000Y-89916000D03*
X46228000Y-89916000D03*
X43688000Y-92456000D03*
X46228000Y-92456000D03*
X43688000Y-94996000D03*
X46228000Y-94996000D03*
X43688000Y-97536000D03*
X46228000Y-97536000D03*
X43688000Y-100076000D03*
X46228000Y-100076000D03*
X43688000Y-102616000D03*
X46228000Y-102616000D03*
X43688000Y-105156000D03*
X46228000Y-105156000D03*
X43688000Y-107696000D03*
X46228000Y-107696000D03*
%TD*%
D22*
%TO.C,J15*%
X55118000Y-56388000D03*
D23*
X57658000Y-56388000D03*
X60198000Y-56388000D03*
X62738000Y-56388000D03*
X65278000Y-56388000D03*
X67818000Y-56388000D03*
%TD*%
D24*
%TO.C,REF\u002A\u002A*%
X102616000Y-107696000D03*
%TD*%
D22*
%TO.C,J16*%
X55118000Y-46228000D03*
D23*
X57658000Y-46228000D03*
X60198000Y-46228000D03*
X62738000Y-46228000D03*
X65278000Y-46228000D03*
X67818000Y-46228000D03*
%TD*%
D25*
%TO.C,J13*%
X74422000Y-48634000D03*
D19*
X74422000Y-51134000D03*
X74422000Y-53634000D03*
X74422000Y-56134000D03*
%TD*%
D16*
%TO.C,J1*%
X59944000Y-64516000D03*
D17*
X57444000Y-64516000D03*
X54944000Y-64516000D03*
X52444000Y-64516000D03*
%TD*%
D15*
%TO.C,R7*%
X48768000Y-79756000D03*
X48768000Y-78116000D03*
%TD*%
D16*
%TO.C,J11*%
X59570000Y-41148000D03*
D17*
X57070000Y-41148000D03*
X54570000Y-41148000D03*
X52070000Y-41148000D03*
%TD*%
D22*
%TO.C,J18*%
X55372000Y-79756000D03*
D23*
X57912000Y-79756000D03*
X60452000Y-79756000D03*
X62992000Y-79756000D03*
X65532000Y-79756000D03*
X68072000Y-79756000D03*
%TD*%
D20*
%TO.C,J4*%
X38608000Y-75732000D03*
D21*
X38608000Y-78232000D03*
%TD*%
D24*
%TO.C,REF\u002A\u002A*%
X101346000Y-38862000D03*
%TD*%
D22*
%TO.C,J5*%
X80010000Y-38862000D03*
D23*
X80010000Y-41402000D03*
X80010000Y-43942000D03*
X80010000Y-46482000D03*
X80010000Y-49022000D03*
X80010000Y-51562000D03*
X80010000Y-54102000D03*
X80010000Y-56642000D03*
X80010000Y-59182000D03*
X80010000Y-61722000D03*
X80010000Y-64262000D03*
X80010000Y-66802000D03*
X80010000Y-69342000D03*
X80010000Y-71882000D03*
X80010000Y-74422000D03*
%TD*%
D26*
%TO.C,J8*%
X89154000Y-80518000D03*
D27*
X86654000Y-80518000D03*
%TD*%
D28*
%TO.C,PS1*%
X97790000Y-89408000D03*
D29*
X97790000Y-94488000D03*
X97790000Y-104648000D03*
X52070000Y-86868000D03*
X52070000Y-97028000D03*
X52070000Y-107188000D03*
%TD*%
D18*
%TO.C,J9*%
X101078000Y-59078000D03*
D19*
X101078000Y-56578000D03*
X101078000Y-54078000D03*
X101078000Y-51578000D03*
%TD*%
D25*
%TO.C,J12*%
X38608000Y-61976000D03*
D19*
X38608000Y-64476000D03*
X38608000Y-66976000D03*
X38608000Y-69476000D03*
%TD*%
D30*
%TO.C,J14*%
X90538000Y-40670000D03*
X84758000Y-40670000D03*
D31*
X88898000Y-41870000D03*
X87898000Y-41870000D03*
X87398000Y-41870000D03*
X86398000Y-41870000D03*
D32*
X85248000Y-41870000D03*
X84448000Y-41870000D03*
D31*
X85898000Y-41870000D03*
X86898000Y-41870000D03*
X88398000Y-41870000D03*
X89398000Y-41870000D03*
D32*
X90048000Y-41870000D03*
X90848000Y-41870000D03*
D33*
X91978000Y-41190000D03*
D34*
X91978000Y-36990000D03*
D35*
X89648000Y-38370000D03*
X89648000Y-36370000D03*
D36*
X87648000Y-37370000D03*
D35*
X85648000Y-38370000D03*
X85648000Y-36370000D03*
D33*
X83318000Y-41190000D03*
D34*
X83318000Y-36990000D03*
%TD*%
%LPD*%
M02*
