%TF.GenerationSoftware,KiCad,Pcbnew,9.0.3-9.0.3-0~ubuntu24.04.1*%
%TF.CreationDate,2026-02-07T15:21:19+01:00*%
%TF.ProjectId,iasserv,69617373-6572-4762-9e6b-696361645f70,rev?*%
%TF.SameCoordinates,Original*%
%TF.FileFunction,Copper,L1,Top*%
%TF.FilePolarity,Positive*%
%FSLAX46Y46*%
G04 Gerber Fmt 4.6, Leading zero omitted, Abs format (unit mm)*
G04 Created by KiCad (PCBNEW 9.0.3-9.0.3-0~ubuntu24.04.1) date 2026-02-07 15:21:19*
%MOMM*%
%LPD*%
G01*
G04 APERTURE LIST*
G04 Aperture macros list*
%AMRoundRect*
0 Rectangle with rounded corners*
0 $1 Rounding radius*
0 $2 $3 $4 $5 $6 $7 $8 $9 X,Y pos of 4 corners*
0 Add a 4 corners polygon primitive as box body*
4,1,4,$2,$3,$4,$5,$6,$7,$8,$9,$2,$3,0*
0 Add four circle primitives for the rounded corners*
1,1,$1+$1,$2,$3*
1,1,$1+$1,$4,$5*
1,1,$1+$1,$6,$7*
1,1,$1+$1,$8,$9*
0 Add four rect primitives between the rounded corners*
20,1,$1+$1,$2,$3,$4,$5,0*
20,1,$1+$1,$4,$5,$6,$7,0*
20,1,$1+$1,$6,$7,$8,$9,0*
20,1,$1+$1,$8,$9,$2,$3,0*%
G04 Aperture macros list end*
%TA.AperFunction,SMDPad,CuDef*%
%ADD10RoundRect,0.200000X0.275000X-0.200000X0.275000X0.200000X-0.275000X0.200000X-0.275000X-0.200000X0*%
%TD*%
%TA.AperFunction,ComponentPad*%
%ADD11RoundRect,0.250000X0.600000X0.725000X-0.600000X0.725000X-0.600000X-0.725000X0.600000X-0.725000X0*%
%TD*%
%TA.AperFunction,ComponentPad*%
%ADD12O,1.700000X1.950000*%
%TD*%
%TA.AperFunction,ComponentPad*%
%ADD13RoundRect,0.250000X0.725000X-0.600000X0.725000X0.600000X-0.725000X0.600000X-0.725000X-0.600000X0*%
%TD*%
%TA.AperFunction,ComponentPad*%
%ADD14O,1.950000X1.700000*%
%TD*%
%TA.AperFunction,ComponentPad*%
%ADD15RoundRect,0.250000X-0.750000X0.600000X-0.750000X-0.600000X0.750000X-0.600000X0.750000X0.600000X0*%
%TD*%
%TA.AperFunction,ComponentPad*%
%ADD16O,2.000000X1.700000*%
%TD*%
%TA.AperFunction,ComponentPad*%
%ADD17R,1.700000X1.700000*%
%TD*%
%TA.AperFunction,ComponentPad*%
%ADD18C,1.700000*%
%TD*%
%TA.AperFunction,ComponentPad*%
%ADD19RoundRect,0.250000X-0.725000X0.600000X-0.725000X-0.600000X0.725000X-0.600000X0.725000X0.600000X0*%
%TD*%
%TA.AperFunction,ComponentPad*%
%ADD20RoundRect,0.250000X0.600000X0.750000X-0.600000X0.750000X-0.600000X-0.750000X0.600000X-0.750000X0*%
%TD*%
%TA.AperFunction,ComponentPad*%
%ADD21O,1.700000X2.000000*%
%TD*%
%TA.AperFunction,ComponentPad*%
%ADD22R,1.875000X1.875000*%
%TD*%
%TA.AperFunction,ComponentPad*%
%ADD23C,1.875000*%
%TD*%
%TA.AperFunction,SMDPad,CuDef*%
%ADD24R,0.300000X1.400000*%
%TD*%
%TA.AperFunction,SMDPad,CuDef*%
%ADD25R,0.500000X1.400000*%
%TD*%
%TA.AperFunction,ComponentPad*%
%ADD26O,1.300000X2.300000*%
%TD*%
%TA.AperFunction,ComponentPad*%
%ADD27O,1.300000X2.100000*%
%TD*%
%TA.AperFunction,ComponentPad*%
%ADD28C,0.500000*%
%TD*%
%TA.AperFunction,SMDPad,CuDef*%
%ADD29RoundRect,0.500000X2.000000X1.000000X-2.000000X1.000000X-2.000000X-1.000000X2.000000X-1.000000X0*%
%TD*%
%TA.AperFunction,ViaPad*%
%ADD30C,0.600000*%
%TD*%
%TA.AperFunction,Conductor*%
%ADD31C,0.300000*%
%TD*%
%TA.AperFunction,Conductor*%
%ADD32C,0.750000*%
%TD*%
%TA.AperFunction,Conductor*%
%ADD33C,0.200000*%
%TD*%
G04 APERTURE END LIST*
D10*
%TO.P,R8,1*%
%TO.N,Tirette*%
X48768000Y-76708000D03*
%TO.P,R8,2*%
%TO.N,+3.3V*%
X48768000Y-75068000D03*
%TD*%
D11*
%TO.P,J2,1,Pin_1*%
%TO.N,GND*%
X73914000Y-64516000D03*
D12*
%TO.P,J2,2,Pin_2*%
%TO.N,+5V*%
X71414000Y-64516000D03*
%TO.P,J2,3,Pin_3*%
%TO.N,Net-(J17-Pin_6)*%
X68914000Y-64516000D03*
%TO.P,J2,4,Pin_4*%
%TO.N,Net-(J17-Pin_5)*%
X66414000Y-64516000D03*
%TD*%
D13*
%TO.P,J7,1,Pin_1*%
%TO.N,ENC1-B*%
X101078000Y-73302000D03*
D14*
%TO.P,J7,2,Pin_2*%
%TO.N,ENC1-A*%
X101078000Y-70802000D03*
%TO.P,J7,3,Pin_3*%
%TO.N,+5V*%
X101078000Y-68302000D03*
%TO.P,J7,4,Pin_4*%
%TO.N,GND*%
X101078000Y-65802000D03*
%TD*%
D15*
%TO.P,J3,1,Pin_1*%
%TO.N,Couleur*%
X38608000Y-84368000D03*
D16*
%TO.P,J3,2,Pin_2*%
%TO.N,GND*%
X38608000Y-86868000D03*
%TD*%
D17*
%TO.P,J6,1,Pin_1*%
%TO.N,unconnected-(J6-Pin_1-Pad1)*%
X95250000Y-38862000D03*
D18*
%TO.P,J6,2,Pin_2*%
%TO.N,GND*%
X95250000Y-41402000D03*
%TO.P,J6,3,Pin_3*%
%TO.N,unconnected-(J6-Pin_3-Pad3)*%
X95250000Y-43942000D03*
%TO.P,J6,4,Pin_4*%
%TO.N,+5V*%
X95250000Y-46482000D03*
%TO.P,J6,5,Pin_5*%
%TO.N,unconnected-(J6-Pin_5-Pad5)*%
X95250000Y-49022000D03*
%TO.P,J6,6,Pin_6*%
%TO.N,unconnected-(J6-Pin_6-Pad6)*%
X95250000Y-51562000D03*
%TO.P,J6,7,Pin_7*%
%TO.N,unconnected-(J6-Pin_7-Pad7)*%
X95250000Y-54102000D03*
%TO.P,J6,8,Pin_8*%
%TO.N,unconnected-(J6-Pin_8-Pad8)*%
X95250000Y-56642000D03*
%TO.P,J6,9,Pin_9*%
%TO.N,ENC1-B*%
X95250000Y-59182000D03*
%TO.P,J6,10,Pin_10*%
%TO.N,unconnected-(J6-Pin_10-Pad10)*%
X95250000Y-61722000D03*
%TO.P,J6,11,Pin_11*%
%TO.N,unconnected-(J6-Pin_11-Pad11)*%
X95250000Y-64262000D03*
%TO.P,J6,12,Pin_12*%
%TO.N,unconnected-(J6-Pin_12-Pad12)*%
X95250000Y-66802000D03*
%TO.P,J6,13,Pin_13*%
%TO.N,unconnected-(J6-Pin_13-Pad13)*%
X95250000Y-69342000D03*
%TO.P,J6,14,Pin_14*%
%TO.N,unconnected-(J6-Pin_14-Pad14)*%
X95250000Y-71882000D03*
%TO.P,J6,15,Pin_15*%
%TO.N,unconnected-(J6-Pin_15-Pad15)*%
X95250000Y-74422000D03*
%TD*%
D11*
%TO.P,J10,1,Pin_1*%
%TO.N,GND*%
X73406000Y-41148000D03*
D12*
%TO.P,J10,2,Pin_2*%
%TO.N,+5V*%
X70906000Y-41148000D03*
%TO.P,J10,3,Pin_3*%
%TO.N,Net-(J10-Pin_3)*%
X68406000Y-41148000D03*
%TO.P,J10,4,Pin_4*%
%TO.N,Net-(J10-Pin_4)*%
X65906000Y-41148000D03*
%TD*%
D17*
%TO.P,J17,1,Pin_1*%
%TO.N,Net-(J1-Pin_4)*%
X55372000Y-69596000D03*
D18*
%TO.P,J17,2,Pin_2*%
%TO.N,Net-(J1-Pin_3)*%
X57912000Y-69596000D03*
%TO.P,J17,3,Pin_3*%
%TO.N,GND*%
X60452000Y-69596000D03*
%TO.P,J17,4,Pin_4*%
%TO.N,+5V*%
X62992000Y-69596000D03*
%TO.P,J17,5,Pin_5*%
%TO.N,Net-(J17-Pin_5)*%
X65532000Y-69596000D03*
%TO.P,J17,6,Pin_6*%
%TO.N,Net-(J17-Pin_6)*%
X68072000Y-69596000D03*
%TD*%
D17*
%TO.P,J19,1,Pin_1*%
%TO.N,+3.3V*%
X43688000Y-59436000D03*
D18*
%TO.P,J19,2,Pin_2*%
%TO.N,+5V*%
X46228000Y-59436000D03*
%TO.P,J19,3,Pin_3*%
%TO.N,SDA*%
X43688000Y-61976000D03*
%TO.P,J19,4,Pin_4*%
%TO.N,unconnected-(J19-Pin_4-Pad4)*%
X46228000Y-61976000D03*
%TO.P,J19,5,Pin_5*%
%TO.N,SCL*%
X43688000Y-64516000D03*
%TO.P,J19,6,Pin_6*%
%TO.N,GND*%
X46228000Y-64516000D03*
%TO.P,J19,7,Pin_7*%
%TO.N,unconnected-(J19-Pin_7-Pad7)*%
X43688000Y-67056000D03*
%TO.P,J19,8,Pin_8*%
%TO.N,IA-RX*%
X46228000Y-67056000D03*
%TO.P,J19,9,Pin_9*%
%TO.N,GND*%
X43688000Y-69596000D03*
%TO.P,J19,10,Pin_10*%
%TO.N,IA-TX*%
X46228000Y-69596000D03*
%TO.P,J19,11,Pin_11*%
%TO.N,GPIO00*%
X43688000Y-72136000D03*
%TO.P,J19,12,Pin_12*%
%TO.N,unconnected-(J19-Pin_12-Pad12)*%
X46228000Y-72136000D03*
%TO.P,J19,13,Pin_13*%
%TO.N,GPIO02*%
X43688000Y-74676000D03*
%TO.P,J19,14,Pin_14*%
%TO.N,GND*%
X46228000Y-74676000D03*
%TO.P,J19,15,Pin_15*%
%TO.N,unconnected-(J19-Pin_15-Pad15)*%
X43688000Y-77216000D03*
%TO.P,J19,16,Pin_16*%
%TO.N,Tirette*%
X46228000Y-77216000D03*
%TO.P,J19,17,Pin_17*%
%TO.N,unconnected-(J19-Pin_17-Pad17)*%
X43688000Y-79756000D03*
%TO.P,J19,18,Pin_18*%
%TO.N,Couleur*%
X46228000Y-79756000D03*
%TO.P,J19,19,Pin_19*%
%TO.N,GPIO12*%
X43688000Y-82296000D03*
%TO.P,J19,20,Pin_20*%
%TO.N,GND*%
X46228000Y-82296000D03*
%TO.P,J19,21,Pin_21*%
%TO.N,GPIO13*%
X43688000Y-84836000D03*
%TO.P,J19,22,Pin_22*%
%TO.N,unconnected-(J19-Pin_22-Pad22)*%
X46228000Y-84836000D03*
%TO.P,J19,23,Pin_23*%
%TO.N,unconnected-(J19-Pin_23-Pad23)*%
X43688000Y-87376000D03*
%TO.P,J19,24,Pin_24*%
%TO.N,unconnected-(J19-Pin_24-Pad24)*%
X46228000Y-87376000D03*
%TO.P,J19,25,Pin_25*%
%TO.N,GND*%
X43688000Y-89916000D03*
%TO.P,J19,26,Pin_26*%
%TO.N,unconnected-(J19-Pin_26-Pad26)*%
X46228000Y-89916000D03*
%TO.P,J19,27,Pin_27*%
%TO.N,unconnected-(J19-Pin_27-Pad27)*%
X43688000Y-92456000D03*
%TO.P,J19,28,Pin_28*%
%TO.N,unconnected-(J19-Pin_28-Pad28)*%
X46228000Y-92456000D03*
%TO.P,J19,29,Pin_29*%
%TO.N,GPIO21*%
X43688000Y-94996000D03*
%TO.P,J19,30,Pin_30*%
%TO.N,GND*%
X46228000Y-94996000D03*
%TO.P,J19,31,Pin_31*%
%TO.N,GPIO22*%
X43688000Y-97536000D03*
%TO.P,J19,32,Pin_32*%
%TO.N,unconnected-(J19-Pin_32-Pad32)*%
X46228000Y-97536000D03*
%TO.P,J19,33,Pin_33*%
%TO.N,unconnected-(J19-Pin_33-Pad33)*%
X43688000Y-100076000D03*
%TO.P,J19,34,Pin_34*%
%TO.N,GND*%
X46228000Y-100076000D03*
%TO.P,J19,35,Pin_35*%
%TO.N,GPIO24*%
X43688000Y-102616000D03*
%TO.P,J19,36,Pin_36*%
%TO.N,unconnected-(J19-Pin_36-Pad36)*%
X46228000Y-102616000D03*
%TO.P,J19,37,Pin_37*%
%TO.N,GPIO25*%
X43688000Y-105156000D03*
%TO.P,J19,38,Pin_38*%
%TO.N,unconnected-(J19-Pin_38-Pad38)*%
X46228000Y-105156000D03*
%TO.P,J19,39,Pin_39*%
%TO.N,GND*%
X43688000Y-107696000D03*
%TO.P,J19,40,Pin_40*%
%TO.N,unconnected-(J19-Pin_40-Pad40)*%
X46228000Y-107696000D03*
%TD*%
D17*
%TO.P,J15,1,Pin_1*%
%TO.N,GPIO00*%
X55118000Y-56388000D03*
D18*
%TO.P,J15,2,Pin_2*%
%TO.N,GPIO02*%
X57658000Y-56388000D03*
%TO.P,J15,3,Pin_3*%
%TO.N,GND*%
X60198000Y-56388000D03*
%TO.P,J15,4,Pin_4*%
%TO.N,+3.3V*%
X62738000Y-56388000D03*
%TO.P,J15,5,Pin_5*%
%TO.N,GPIO12*%
X65278000Y-56388000D03*
%TO.P,J15,6,Pin_6*%
%TO.N,GPIO13*%
X67818000Y-56388000D03*
%TD*%
D17*
%TO.P,J16,1,Pin_1*%
%TO.N,Net-(J11-Pin_4)*%
X55118000Y-46228000D03*
D18*
%TO.P,J16,2,Pin_2*%
%TO.N,Net-(J11-Pin_3)*%
X57658000Y-46228000D03*
%TO.P,J16,3,Pin_3*%
%TO.N,GND*%
X60198000Y-46228000D03*
%TO.P,J16,4,Pin_4*%
%TO.N,+5V*%
X62738000Y-46228000D03*
%TO.P,J16,5,Pin_5*%
%TO.N,Net-(J10-Pin_4)*%
X65278000Y-46228000D03*
%TO.P,J16,6,Pin_6*%
%TO.N,Net-(J10-Pin_3)*%
X67818000Y-46228000D03*
%TD*%
D19*
%TO.P,J13,1,Pin_1*%
%TO.N,MD22-SDA*%
X74422000Y-48634000D03*
D14*
%TO.P,J13,2,Pin_2*%
%TO.N,MD22-SCL*%
X74422000Y-51134000D03*
%TO.P,J13,3,Pin_3*%
%TO.N,+5V*%
X74422000Y-53634000D03*
%TO.P,J13,4,Pin_4*%
%TO.N,GND*%
X74422000Y-56134000D03*
%TD*%
D11*
%TO.P,J1,1,Pin_1*%
%TO.N,GND*%
X59944000Y-64516000D03*
D12*
%TO.P,J1,2,Pin_2*%
%TO.N,+5V*%
X57444000Y-64516000D03*
%TO.P,J1,3,Pin_3*%
%TO.N,Net-(J1-Pin_3)*%
X54944000Y-64516000D03*
%TO.P,J1,4,Pin_4*%
%TO.N,Net-(J1-Pin_4)*%
X52444000Y-64516000D03*
%TD*%
D10*
%TO.P,R7,1*%
%TO.N,Couleur*%
X48768000Y-79756000D03*
%TO.P,R7,2*%
%TO.N,+3.3V*%
X48768000Y-78116000D03*
%TD*%
D11*
%TO.P,J11,1,Pin_1*%
%TO.N,GND*%
X59570000Y-41148000D03*
D12*
%TO.P,J11,2,Pin_2*%
%TO.N,+5V*%
X57070000Y-41148000D03*
%TO.P,J11,3,Pin_3*%
%TO.N,Net-(J11-Pin_3)*%
X54570000Y-41148000D03*
%TO.P,J11,4,Pin_4*%
%TO.N,Net-(J11-Pin_4)*%
X52070000Y-41148000D03*
%TD*%
D17*
%TO.P,J18,1,Pin_1*%
%TO.N,GPIO21*%
X55372000Y-79756000D03*
D18*
%TO.P,J18,2,Pin_2*%
%TO.N,GPIO22*%
X57912000Y-79756000D03*
%TO.P,J18,3,Pin_3*%
%TO.N,GND*%
X60452000Y-79756000D03*
%TO.P,J18,4,Pin_4*%
%TO.N,+3.3V*%
X62992000Y-79756000D03*
%TO.P,J18,5,Pin_5*%
%TO.N,GPIO24*%
X65532000Y-79756000D03*
%TO.P,J18,6,Pin_6*%
%TO.N,GPIO25*%
X68072000Y-79756000D03*
%TD*%
D15*
%TO.P,J4,1,Pin_1*%
%TO.N,Tirette*%
X38608000Y-75732000D03*
D16*
%TO.P,J4,2,Pin_2*%
%TO.N,GND*%
X38608000Y-78232000D03*
%TD*%
D17*
%TO.P,J5,1,Pin_1*%
%TO.N,IA-TX*%
X80010000Y-38862000D03*
D18*
%TO.P,J5,2,Pin_2*%
%TO.N,IA-RX*%
X80010000Y-41402000D03*
%TO.P,J5,3,Pin_3*%
%TO.N,unconnected-(J5-Pin_3-Pad3)*%
X80010000Y-43942000D03*
%TO.P,J5,4,Pin_4*%
%TO.N,GND*%
X80010000Y-46482000D03*
%TO.P,J5,5,Pin_5*%
%TO.N,USB-D+*%
X80010000Y-49022000D03*
%TO.P,J5,6,Pin_6*%
%TO.N,unconnected-(J5-Pin_6-Pad6)*%
X80010000Y-51562000D03*
%TO.P,J5,7,Pin_7*%
%TO.N,ENC2-B*%
X80010000Y-54102000D03*
%TO.P,J5,8,Pin_8*%
%TO.N,unconnected-(J5-Pin_8-Pad8)*%
X80010000Y-56642000D03*
%TO.P,J5,9,Pin_9*%
%TO.N,ENC2-A*%
X80010000Y-59182000D03*
%TO.P,J5,10,Pin_10*%
%TO.N,unconnected-(J5-Pin_10-Pad10)*%
X80010000Y-61722000D03*
%TO.P,J5,11,Pin_11*%
%TO.N,unconnected-(J5-Pin_11-Pad11)*%
X80010000Y-64262000D03*
%TO.P,J5,12,Pin_12*%
%TO.N,MD22-SCL*%
X80010000Y-66802000D03*
%TO.P,J5,13,Pin_13*%
%TO.N,USB-D-*%
X80010000Y-69342000D03*
%TO.P,J5,14,Pin_14*%
%TO.N,MD22-SDA*%
X80010000Y-71882000D03*
%TO.P,J5,15,Pin_15*%
%TO.N,ENC1-A*%
X80010000Y-74422000D03*
%TD*%
D20*
%TO.P,J8,1,Pin_1*%
%TO.N,Net-(J8-Pin_1)*%
X89154000Y-80518000D03*
D21*
%TO.P,J8,2,Pin_2*%
%TO.N,Net-(J8-Pin_2)*%
X86654000Y-80518000D03*
%TD*%
D22*
%TO.P,PS1,1,+VIN(VCC)*%
%TO.N,Net-(J8-Pin_1)*%
X97790000Y-89408000D03*
D23*
%TO.P,PS1,2,-VIN(GND)*%
%TO.N,Net-(J8-Pin_2)*%
X97790000Y-94488000D03*
%TO.P,PS1,3,REMOTE_ON/OFF*%
%TO.N,unconnected-(PS1-REMOTE_ON{slash}OFF-Pad3)*%
X97790000Y-104648000D03*
%TO.P,PS1,4,+VOUT*%
%TO.N,+5V*%
X52070000Y-86868000D03*
%TO.P,PS1,5,-VOUT*%
%TO.N,GND*%
X52070000Y-97028000D03*
%TO.P,PS1,6,TRIM*%
%TO.N,unconnected-(PS1-TRIM-Pad6)*%
X52070000Y-107188000D03*
%TD*%
D13*
%TO.P,J9,1,Pin_1*%
%TO.N,ENC2-B*%
X101078000Y-59078000D03*
D14*
%TO.P,J9,2,Pin_2*%
%TO.N,ENC2-A*%
X101078000Y-56578000D03*
%TO.P,J9,3,Pin_3*%
%TO.N,+5V*%
X101078000Y-54078000D03*
%TO.P,J9,4,Pin_4*%
%TO.N,GND*%
X101078000Y-51578000D03*
%TD*%
D19*
%TO.P,J12,1,Pin_1*%
%TO.N,SDA*%
X38608000Y-61976000D03*
D14*
%TO.P,J12,2,Pin_2*%
%TO.N,SCL*%
X38608000Y-64476000D03*
%TO.P,J12,3,Pin_3*%
%TO.N,+5V*%
X38608000Y-66976000D03*
%TO.P,J12,4,Pin_4*%
%TO.N,GND*%
X38608000Y-69476000D03*
%TD*%
D24*
%TO.P,J14,A5,CC1*%
%TO.N,unconnected-(J14-CC1-PadA5)*%
X88898000Y-41870000D03*
%TO.P,J14,A6,D+*%
%TO.N,USB-D+*%
X87898000Y-41870000D03*
%TO.P,J14,A7,D-*%
%TO.N,USB-D-*%
X87398000Y-41870000D03*
%TO.P,J14,A8,SBU1*%
%TO.N,unconnected-(J14-SBU1-PadA8)*%
X86398000Y-41870000D03*
D25*
%TO.P,J14,A9B4,VBUS*%
%TO.N,+5V*%
X85248000Y-41870000D03*
%TO.P,J14,A12B1,GND*%
%TO.N,GND*%
X84448000Y-41870000D03*
D24*
%TO.P,J14,B5,CC2*%
%TO.N,unconnected-(J14-CC2-PadB5)*%
X85898000Y-41870000D03*
%TO.P,J14,B6,D+*%
%TO.N,USB-D+*%
X86898000Y-41870000D03*
%TO.P,J14,B7,D-*%
%TO.N,USB-D-*%
X88398000Y-41870000D03*
%TO.P,J14,B8,SBU2*%
%TO.N,unconnected-(J14-SBU2-PadB8)*%
X89398000Y-41870000D03*
D25*
%TO.P,J14,B9A4,VBUS*%
%TO.N,+5V*%
X90048000Y-41870000D03*
%TO.P,J14,B12A1,GND*%
%TO.N,GND*%
X90848000Y-41870000D03*
D26*
%TO.P,J14,S1,SHIELD*%
%TO.N,unconnected-(J14-SHIELD-PadS1)*%
X91978000Y-41190000D03*
D27*
X91978000Y-36990000D03*
D28*
X89648000Y-38370000D03*
X89648000Y-36370000D03*
D29*
X87648000Y-37370000D03*
D28*
X85648000Y-38370000D03*
X85648000Y-36370000D03*
D26*
X83318000Y-41190000D03*
D27*
X83318000Y-36990000D03*
%TD*%
D30*
%TO.N,GND*%
X84448000Y-43434000D03*
X90848000Y-43604000D03*
%TO.N,USB-D+*%
X86614000Y-44450000D03*
%TO.N,USB-D-*%
X87398000Y-43412000D03*
X88900000Y-43434000D03*
%TD*%
D31*
%TO.N,GND*%
X84448000Y-43434000D02*
X84448000Y-43568000D01*
X84448000Y-41870000D02*
X84448000Y-43434000D01*
X90848000Y-41870000D02*
X90848000Y-43604000D01*
D32*
%TO.N,Net-(J8-Pin_1)*%
X89154000Y-80518000D02*
X92456000Y-80518000D01*
X97790000Y-85852000D02*
X97790000Y-89408000D01*
X92456000Y-80518000D02*
X97790000Y-85852000D01*
D31*
%TO.N,+5V*%
X91948000Y-46482000D02*
X95250000Y-46482000D01*
X85248000Y-45370000D02*
X86360000Y-46482000D01*
X86360000Y-46482000D02*
X90170000Y-46482000D01*
X90048000Y-46360000D02*
X90170000Y-46482000D01*
X90170000Y-46482000D02*
X91948000Y-46482000D01*
X90048000Y-41870000D02*
X90048000Y-46360000D01*
X85248000Y-41870000D02*
X85248000Y-45370000D01*
%TO.N,Couleur*%
X42019000Y-80957000D02*
X45027000Y-80957000D01*
X45027000Y-80957000D02*
X46228000Y-79756000D01*
X38608000Y-84368000D02*
X42019000Y-80957000D01*
D32*
X48768000Y-79756000D02*
X46228000Y-79756000D01*
D31*
%TO.N,Tirette*%
X38608000Y-75732000D02*
X38753000Y-75877000D01*
X38753000Y-75877000D02*
X44889000Y-75877000D01*
D32*
X46736000Y-76708000D02*
X46228000Y-77216000D01*
X48768000Y-76708000D02*
X46736000Y-76708000D01*
D31*
X44889000Y-75877000D02*
X46228000Y-77216000D01*
%TO.N,USB-D+*%
X87280654Y-44450000D02*
X86614000Y-44450000D01*
X87898000Y-42940000D02*
X88049000Y-43091000D01*
D33*
X86898000Y-41870000D02*
X86898000Y-43062057D01*
X86898000Y-43062057D02*
X86614000Y-43346057D01*
X86614000Y-43346057D02*
X86614000Y-44450000D01*
D31*
X88049000Y-43091000D02*
X88049000Y-43681654D01*
X88049000Y-43681654D02*
X87280654Y-44450000D01*
X87898000Y-41870000D02*
X87898000Y-42940000D01*
D33*
%TO.N,USB-D-*%
X88900000Y-43304190D02*
X88900000Y-43434000D01*
D31*
X87398000Y-41870000D02*
X87398000Y-43412000D01*
D33*
X88398000Y-42802190D02*
X88900000Y-43304190D01*
X88398000Y-41870000D02*
X88398000Y-42802190D01*
D32*
%TO.N,ENC2-A*%
X101078000Y-56578000D02*
X102552000Y-56578000D01*
X103886000Y-75184000D02*
X101346000Y-77724000D01*
X103886000Y-57912000D02*
X103886000Y-75184000D01*
X82296000Y-59182000D02*
X80010000Y-59182000D01*
X89408000Y-77724000D02*
X83820000Y-72136000D01*
X101346000Y-77724000D02*
X89408000Y-77724000D01*
X83820000Y-60706000D02*
X82296000Y-59182000D01*
X83820000Y-72136000D02*
X83820000Y-60706000D01*
X102552000Y-56578000D02*
X103886000Y-57912000D01*
%TO.N,+3.3V*%
X48768000Y-75068000D02*
X48768000Y-53594000D01*
X48768000Y-75068000D02*
X49668000Y-75068000D01*
X61468000Y-53594000D02*
X62738000Y-54864000D01*
X61352000Y-78116000D02*
X62992000Y-79756000D01*
X48768000Y-53594000D02*
X61468000Y-53594000D01*
X49784000Y-78116000D02*
X61352000Y-78116000D01*
X62738000Y-54864000D02*
X62738000Y-56388000D01*
X50038000Y-75438000D02*
X50038000Y-77862000D01*
X50038000Y-77862000D02*
X49784000Y-78116000D01*
X43688000Y-59436000D02*
X43688000Y-56388000D01*
X49668000Y-75068000D02*
X50038000Y-75438000D01*
X48768000Y-78116000D02*
X49784000Y-78116000D01*
X46482000Y-53594000D02*
X48768000Y-53594000D01*
X43688000Y-56388000D02*
X46482000Y-53594000D01*
%TO.N,Net-(J8-Pin_2)*%
X94488000Y-94488000D02*
X97790000Y-94488000D01*
X86654000Y-86654000D02*
X94488000Y-94488000D01*
X86654000Y-80518000D02*
X86654000Y-86654000D01*
%TD*%
%TA.AperFunction,Conductor*%
%TO.N,+5V*%
G36*
X47835539Y-54489185D02*
G01*
X47881294Y-54541989D01*
X47892500Y-54593500D01*
X47892500Y-74472732D01*
X47890668Y-74479303D01*
X47891828Y-74485625D01*
X47883200Y-74519848D01*
X47879565Y-74528696D01*
X47849522Y-74578394D01*
X47819266Y-74675489D01*
X47817200Y-74680520D01*
X47798624Y-74703710D01*
X47782148Y-74728442D01*
X47777018Y-74730683D01*
X47773519Y-74735052D01*
X47745355Y-74744517D01*
X47718123Y-74756416D01*
X47712594Y-74755528D01*
X47707290Y-74757311D01*
X47678483Y-74750048D01*
X47649138Y-74745335D01*
X47644967Y-74741599D01*
X47639540Y-74740231D01*
X47619227Y-74718541D01*
X47597095Y-74698716D01*
X47595606Y-74693319D01*
X47591780Y-74689234D01*
X47578500Y-74633404D01*
X47578500Y-74569713D01*
X47571939Y-74528287D01*
X47545246Y-74359757D01*
X47479557Y-74157588D01*
X47383051Y-73968184D01*
X47383049Y-73968181D01*
X47383048Y-73968179D01*
X47258109Y-73796213D01*
X47107786Y-73645890D01*
X46935820Y-73520951D01*
X46935115Y-73520591D01*
X46927054Y-73516485D01*
X46876259Y-73468512D01*
X46859463Y-73400692D01*
X46881999Y-73334556D01*
X46927054Y-73295515D01*
X46935816Y-73291051D01*
X47041164Y-73214512D01*
X47107786Y-73166109D01*
X47107788Y-73166106D01*
X47107792Y-73166104D01*
X47258104Y-73015792D01*
X47258106Y-73015788D01*
X47258109Y-73015786D01*
X47383048Y-72843820D01*
X47383047Y-72843820D01*
X47383051Y-72843816D01*
X47479557Y-72654412D01*
X47545246Y-72452243D01*
X47578500Y-72242287D01*
X47578500Y-72029713D01*
X47545246Y-71819757D01*
X47479557Y-71617588D01*
X47383051Y-71428184D01*
X47383049Y-71428181D01*
X47383048Y-71428179D01*
X47258109Y-71256213D01*
X47107786Y-71105890D01*
X46935820Y-70980951D01*
X46935115Y-70980591D01*
X46927054Y-70976485D01*
X46876259Y-70928512D01*
X46859463Y-70860692D01*
X46881999Y-70794556D01*
X46927054Y-70755515D01*
X46935816Y-70751051D01*
X47022138Y-70688335D01*
X47107786Y-70626109D01*
X47107788Y-70626106D01*
X47107792Y-70626104D01*
X47258104Y-70475792D01*
X47258106Y-70475788D01*
X47258109Y-70475786D01*
X47383048Y-70303820D01*
X47383047Y-70303820D01*
X47383051Y-70303816D01*
X47479557Y-70114412D01*
X47545246Y-69912243D01*
X47578500Y-69702287D01*
X47578500Y-69489713D01*
X47545246Y-69279757D01*
X47479557Y-69077588D01*
X47383051Y-68888184D01*
X47383049Y-68888181D01*
X47383048Y-68888179D01*
X47258109Y-68716213D01*
X47107786Y-68565890D01*
X46935820Y-68440951D01*
X46935115Y-68440591D01*
X46927054Y-68436485D01*
X46876259Y-68388512D01*
X46859463Y-68320692D01*
X46881999Y-68254556D01*
X46927054Y-68215515D01*
X46935816Y-68211051D01*
X46975135Y-68182484D01*
X47107786Y-68086109D01*
X47107788Y-68086106D01*
X47107792Y-68086104D01*
X47258104Y-67935792D01*
X47258106Y-67935788D01*
X47258109Y-67935786D01*
X47383048Y-67763820D01*
X47383047Y-67763820D01*
X47383051Y-67763816D01*
X47479557Y-67574412D01*
X47545246Y-67372243D01*
X47578500Y-67162287D01*
X47578500Y-66949713D01*
X47545246Y-66739757D01*
X47479557Y-66537588D01*
X47383051Y-66348184D01*
X47383049Y-66348181D01*
X47383048Y-66348179D01*
X47258109Y-66176213D01*
X47107786Y-66025890D01*
X46935820Y-65900951D01*
X46935115Y-65900591D01*
X46927054Y-65896485D01*
X46876259Y-65848512D01*
X46859463Y-65780692D01*
X46881999Y-65714556D01*
X46927054Y-65675515D01*
X46935816Y-65671051D01*
X47041164Y-65594512D01*
X47107786Y-65546109D01*
X47107788Y-65546106D01*
X47107792Y-65546104D01*
X47258104Y-65395792D01*
X47258106Y-65395788D01*
X47258109Y-65395786D01*
X47383048Y-65223820D01*
X47383047Y-65223820D01*
X47383051Y-65223816D01*
X47479557Y-65034412D01*
X47545246Y-64832243D01*
X47578500Y-64622287D01*
X47578500Y-64409713D01*
X47545246Y-64199757D01*
X47479557Y-63997588D01*
X47383051Y-63808184D01*
X47383049Y-63808181D01*
X47383048Y-63808179D01*
X47258109Y-63636213D01*
X47107786Y-63485890D01*
X46935820Y-63360951D01*
X46935115Y-63360591D01*
X46927054Y-63356485D01*
X46876259Y-63308512D01*
X46859463Y-63240692D01*
X46881999Y-63174556D01*
X46927054Y-63135515D01*
X46935816Y-63131051D01*
X47014679Y-63073754D01*
X47107786Y-63006109D01*
X47107788Y-63006106D01*
X47107792Y-63006104D01*
X47258104Y-62855792D01*
X47258106Y-62855788D01*
X47258109Y-62855786D01*
X47383048Y-62683820D01*
X47383047Y-62683820D01*
X47383051Y-62683816D01*
X47479557Y-62494412D01*
X47545246Y-62292243D01*
X47578500Y-62082287D01*
X47578500Y-61869713D01*
X47545246Y-61659757D01*
X47479557Y-61457588D01*
X47383051Y-61268184D01*
X47383049Y-61268181D01*
X47383048Y-61268179D01*
X47258109Y-61096213D01*
X47107786Y-60945890D01*
X46935817Y-60820949D01*
X46926504Y-60816204D01*
X46875707Y-60768230D01*
X46858912Y-60700409D01*
X46881449Y-60634274D01*
X46926507Y-60595232D01*
X46935555Y-60590622D01*
X46989716Y-60551270D01*
X46989717Y-60551270D01*
X46357408Y-59918962D01*
X46420993Y-59901925D01*
X46535007Y-59836099D01*
X46628099Y-59743007D01*
X46693925Y-59628993D01*
X46710962Y-59565408D01*
X47343270Y-60197717D01*
X47343270Y-60197716D01*
X47382622Y-60143554D01*
X47479095Y-59954217D01*
X47544757Y-59752130D01*
X47544757Y-59752127D01*
X47578000Y-59542246D01*
X47578000Y-59329753D01*
X47544757Y-59119872D01*
X47544757Y-59119869D01*
X47479095Y-58917782D01*
X47382624Y-58728449D01*
X47343270Y-58674282D01*
X47343269Y-58674282D01*
X46710962Y-59306590D01*
X46693925Y-59243007D01*
X46628099Y-59128993D01*
X46535007Y-59035901D01*
X46420993Y-58970075D01*
X46357409Y-58953037D01*
X46989716Y-58320728D01*
X46935550Y-58281375D01*
X46746217Y-58184904D01*
X46544129Y-58119242D01*
X46334246Y-58086000D01*
X46121754Y-58086000D01*
X45911872Y-58119242D01*
X45911869Y-58119242D01*
X45709782Y-58184904D01*
X45520439Y-58281380D01*
X45466282Y-58320727D01*
X45466282Y-58320728D01*
X46098591Y-58953037D01*
X46035007Y-58970075D01*
X45920993Y-59035901D01*
X45827901Y-59128993D01*
X45762075Y-59243007D01*
X45745037Y-59306591D01*
X45074818Y-58636372D01*
X45041333Y-58575049D01*
X45041330Y-58575036D01*
X45038499Y-58562015D01*
X45038499Y-58538128D01*
X45032091Y-58478517D01*
X45003926Y-58403002D01*
X44981798Y-58343673D01*
X44981793Y-58343664D01*
X44895547Y-58228455D01*
X44895544Y-58228452D01*
X44780335Y-58142206D01*
X44780330Y-58142203D01*
X44644166Y-58091417D01*
X44588233Y-58049545D01*
X44563816Y-57984081D01*
X44563500Y-57975235D01*
X44563500Y-56802006D01*
X44583185Y-56734967D01*
X44599819Y-56714325D01*
X46808325Y-54505819D01*
X46869648Y-54472334D01*
X46896006Y-54469500D01*
X47768500Y-54469500D01*
X47835539Y-54489185D01*
G37*
%TD.AperFunction*%
%TA.AperFunction,Conductor*%
G36*
X45762075Y-59628993D02*
G01*
X45827901Y-59743007D01*
X45920993Y-59836099D01*
X46035007Y-59901925D01*
X46098590Y-59918962D01*
X45466282Y-60551269D01*
X45466282Y-60551270D01*
X45520452Y-60590626D01*
X45520451Y-60590626D01*
X45529495Y-60595234D01*
X45580292Y-60643208D01*
X45597087Y-60711029D01*
X45574550Y-60777164D01*
X45529499Y-60816202D01*
X45520182Y-60820949D01*
X45348213Y-60945890D01*
X45197890Y-61096213D01*
X45072949Y-61268182D01*
X45068484Y-61276946D01*
X45020509Y-61327742D01*
X44952688Y-61344536D01*
X44886553Y-61321998D01*
X44847516Y-61276946D01*
X44843050Y-61268182D01*
X44718109Y-61096213D01*
X44604569Y-60982673D01*
X44571084Y-60921350D01*
X44576068Y-60851658D01*
X44617940Y-60795725D01*
X44648915Y-60778810D01*
X44780331Y-60729796D01*
X44895546Y-60643546D01*
X44981796Y-60528331D01*
X45032091Y-60393483D01*
X45038500Y-60333873D01*
X45038499Y-60323312D01*
X45058179Y-60256275D01*
X45074818Y-60235626D01*
X45745037Y-59565408D01*
X45762075Y-59628993D01*
G37*
%TD.AperFunction*%
%TA.AperFunction,Conductor*%
G36*
X105360539Y-34556185D02*
G01*
X105406294Y-34608989D01*
X105417500Y-34660500D01*
X105417500Y-110373500D01*
X105397815Y-110440539D01*
X105345011Y-110486294D01*
X105293500Y-110497500D01*
X34406500Y-110497500D01*
X34339461Y-110477815D01*
X34293706Y-110425011D01*
X34282500Y-110373500D01*
X34282500Y-75081983D01*
X37107500Y-75081983D01*
X37107500Y-76382001D01*
X37107501Y-76382018D01*
X37118000Y-76484796D01*
X37118001Y-76484799D01*
X37173185Y-76651331D01*
X37173187Y-76651336D01*
X37265289Y-76800657D01*
X37389344Y-76924712D01*
X37544120Y-77020178D01*
X37590845Y-77072126D01*
X37602068Y-77141088D01*
X37574224Y-77205171D01*
X37566706Y-77213398D01*
X37427889Y-77352215D01*
X37302951Y-77524179D01*
X37206444Y-77713585D01*
X37140753Y-77915760D01*
X37107500Y-78125713D01*
X37107500Y-78338286D01*
X37133816Y-78504443D01*
X37140754Y-78548243D01*
X37198477Y-78725896D01*
X37206444Y-78750414D01*
X37302951Y-78939820D01*
X37427890Y-79111786D01*
X37578213Y-79262109D01*
X37750179Y-79387048D01*
X37750181Y-79387049D01*
X37750184Y-79387051D01*
X37939588Y-79483557D01*
X38141757Y-79549246D01*
X38351713Y-79582500D01*
X38351714Y-79582500D01*
X38864286Y-79582500D01*
X38864287Y-79582500D01*
X39074243Y-79549246D01*
X39276412Y-79483557D01*
X39465816Y-79387051D01*
X39533481Y-79337890D01*
X39637786Y-79262109D01*
X39637788Y-79262106D01*
X39637792Y-79262104D01*
X39788104Y-79111792D01*
X39788106Y-79111788D01*
X39788109Y-79111786D01*
X39913048Y-78939820D01*
X39913047Y-78939820D01*
X39913051Y-78939816D01*
X40009557Y-78750412D01*
X40075246Y-78548243D01*
X40108500Y-78338287D01*
X40108500Y-78125713D01*
X40075246Y-77915757D01*
X40009557Y-77713588D01*
X39913051Y-77524184D01*
X39913049Y-77524181D01*
X39913048Y-77524179D01*
X39788109Y-77352213D01*
X39649294Y-77213398D01*
X39615809Y-77152075D01*
X39620793Y-77082383D01*
X39662665Y-77026450D01*
X39671879Y-77020178D01*
X39677331Y-77016814D01*
X39677334Y-77016814D01*
X39826656Y-76924712D01*
X39950712Y-76800656D01*
X40042814Y-76651334D01*
X40055684Y-76612494D01*
X40095457Y-76555050D01*
X40159974Y-76528228D01*
X40173390Y-76527500D01*
X42321317Y-76527500D01*
X42388356Y-76547185D01*
X42434111Y-76599989D01*
X42444055Y-76669147D01*
X42437558Y-76692827D01*
X42437949Y-76692954D01*
X42436443Y-76697586D01*
X42436443Y-76697588D01*
X42375736Y-76884421D01*
X42370753Y-76899760D01*
X42343473Y-77071999D01*
X42337500Y-77109713D01*
X42337500Y-77322287D01*
X42342239Y-77352208D01*
X42369477Y-77524184D01*
X42370754Y-77532243D01*
X42419776Y-77683117D01*
X42436444Y-77734414D01*
X42532951Y-77923820D01*
X42657890Y-78095786D01*
X42808213Y-78246109D01*
X42980182Y-78371050D01*
X42988946Y-78375516D01*
X43039742Y-78423491D01*
X43056536Y-78491312D01*
X43033998Y-78557447D01*
X42988946Y-78596484D01*
X42980182Y-78600949D01*
X42808213Y-78725890D01*
X42657890Y-78876213D01*
X42532951Y-79048179D01*
X42436444Y-79237585D01*
X42370753Y-79439760D01*
X42337500Y-79649713D01*
X42337500Y-79862286D01*
X42370753Y-80072239D01*
X42394129Y-80144182D01*
X42396124Y-80214023D01*
X42360044Y-80273856D01*
X42297343Y-80304684D01*
X42276198Y-80306500D01*
X41954929Y-80306500D01*
X41829261Y-80331497D01*
X41829255Y-80331499D01*
X41710870Y-80380535D01*
X41604331Y-80451722D01*
X41604324Y-80451728D01*
X39074871Y-82981181D01*
X39013548Y-83014666D01*
X38987190Y-83017500D01*
X37807998Y-83017500D01*
X37807981Y-83017501D01*
X37705203Y-83028000D01*
X37705200Y-83028001D01*
X37538668Y-83083185D01*
X37538663Y-83083187D01*
X37389342Y-83175289D01*
X37265289Y-83299342D01*
X37173187Y-83448663D01*
X37173185Y-83448668D01*
X37155019Y-83503491D01*
X37118001Y-83615203D01*
X37118001Y-83615204D01*
X37118000Y-83615204D01*
X37107500Y-83717983D01*
X37107500Y-85018001D01*
X37107501Y-85018018D01*
X37118000Y-85120796D01*
X37118001Y-85120799D01*
X37173185Y-85287331D01*
X37173187Y-85287336D01*
X37265289Y-85436657D01*
X37389344Y-85560712D01*
X37544120Y-85656178D01*
X37590845Y-85708126D01*
X37602068Y-85777088D01*
X37574224Y-85841171D01*
X37566706Y-85849398D01*
X37427889Y-85988215D01*
X37302951Y-86160179D01*
X37206444Y-86349585D01*
X37140753Y-86551760D01*
X37107500Y-86761713D01*
X37107500Y-86974286D01*
X37140753Y-87184239D01*
X37206444Y-87386414D01*
X37302951Y-87575820D01*
X37427890Y-87747786D01*
X37578213Y-87898109D01*
X37750179Y-88023048D01*
X37750181Y-88023049D01*
X37750184Y-88023051D01*
X37939588Y-88119557D01*
X38141757Y-88185246D01*
X38351713Y-88218500D01*
X38351714Y-88218500D01*
X38864286Y-88218500D01*
X38864287Y-88218500D01*
X39074243Y-88185246D01*
X39276412Y-88119557D01*
X39465816Y-88023051D01*
X39538835Y-87970000D01*
X39637786Y-87898109D01*
X39637788Y-87898106D01*
X39637792Y-87898104D01*
X39788104Y-87747792D01*
X39788106Y-87747788D01*
X39788109Y-87747786D01*
X39913048Y-87575820D01*
X39913047Y-87575820D01*
X39913051Y-87575816D01*
X40009557Y-87386412D01*
X40075246Y-87184243D01*
X40108500Y-86974287D01*
X40108500Y-86761713D01*
X40075246Y-86551757D01*
X40009557Y-86349588D01*
X39913051Y-86160184D01*
X39913049Y-86160181D01*
X39913048Y-86160179D01*
X39788109Y-85988213D01*
X39649294Y-85849398D01*
X39615809Y-85788075D01*
X39620793Y-85718383D01*
X39662665Y-85662450D01*
X39671879Y-85656178D01*
X39677331Y-85652814D01*
X39677334Y-85652814D01*
X39826656Y-85560712D01*
X39950712Y-85436656D01*
X40042814Y-85287334D01*
X40097999Y-85120797D01*
X40108500Y-85018009D01*
X40108499Y-83838806D01*
X40128184Y-83771768D01*
X40144813Y-83751131D01*
X42224323Y-81671622D01*
X42285644Y-81638139D01*
X42355336Y-81643123D01*
X42411269Y-81684995D01*
X42435686Y-81750459D01*
X42429933Y-81797623D01*
X42370753Y-81979759D01*
X42337500Y-82189713D01*
X42337500Y-82402286D01*
X42370753Y-82612239D01*
X42436444Y-82814414D01*
X42532951Y-83003820D01*
X42657890Y-83175786D01*
X42808213Y-83326109D01*
X42980182Y-83451050D01*
X42988946Y-83455516D01*
X43039742Y-83503491D01*
X43056536Y-83571312D01*
X43033998Y-83637447D01*
X42988946Y-83676484D01*
X42980182Y-83680949D01*
X42808213Y-83805890D01*
X42657890Y-83956213D01*
X42532951Y-84128179D01*
X42436444Y-84317585D01*
X42370753Y-84519760D01*
X42337500Y-84729713D01*
X42337500Y-84942286D01*
X42370753Y-85152239D01*
X42436444Y-85354414D01*
X42532951Y-85543820D01*
X42657890Y-85715786D01*
X42808213Y-85866109D01*
X42980182Y-85991050D01*
X42988946Y-85995516D01*
X43039742Y-86043491D01*
X43056536Y-86111312D01*
X43033998Y-86177447D01*
X42988946Y-86216484D01*
X42980182Y-86220949D01*
X42808213Y-86345890D01*
X42657890Y-86496213D01*
X42532951Y-86668179D01*
X42436444Y-86857585D01*
X42370753Y-87059760D01*
X42354236Y-87164048D01*
X42337500Y-87269713D01*
X42337500Y-87482287D01*
X42370754Y-87692243D01*
X42433697Y-87885962D01*
X42436444Y-87894414D01*
X42532951Y-88083820D01*
X42657890Y-88255786D01*
X42808213Y-88406109D01*
X42980182Y-88531050D01*
X42988946Y-88535516D01*
X43039742Y-88583491D01*
X43056536Y-88651312D01*
X43033998Y-88717447D01*
X42988946Y-88756484D01*
X42980182Y-88760949D01*
X42808213Y-88885890D01*
X42657890Y-89036213D01*
X42532951Y-89208179D01*
X42436444Y-89397585D01*
X42370753Y-89599760D01*
X42337500Y-89809713D01*
X42337500Y-90022287D01*
X42370754Y-90232243D01*
X42423108Y-90393372D01*
X42436444Y-90434414D01*
X42532951Y-90623820D01*
X42657890Y-90795786D01*
X42808213Y-90946109D01*
X42980182Y-91071050D01*
X42988946Y-91075516D01*
X43039742Y-91123491D01*
X43056536Y-91191312D01*
X43033998Y-91257447D01*
X42988946Y-91296484D01*
X42980182Y-91300949D01*
X42808213Y-91425890D01*
X42657890Y-91576213D01*
X42532951Y-91748179D01*
X42436444Y-91937585D01*
X42370753Y-92139760D01*
X42337500Y-92349713D01*
X42337500Y-92562286D01*
X42370753Y-92772239D01*
X42436444Y-92974414D01*
X42532951Y-93163820D01*
X42657890Y-93335786D01*
X42808213Y-93486109D01*
X42980182Y-93611050D01*
X42988946Y-93615516D01*
X43039742Y-93663491D01*
X43056536Y-93731312D01*
X43033998Y-93797447D01*
X42988946Y-93836484D01*
X42980182Y-93840949D01*
X42808213Y-93965890D01*
X42657890Y-94116213D01*
X42532951Y-94288179D01*
X42436444Y-94477585D01*
X42370753Y-94679760D01*
X42337500Y-94889713D01*
X42337500Y-95102286D01*
X42363090Y-95263858D01*
X42370754Y-95312243D01*
X42407324Y-95424794D01*
X42436444Y-95514414D01*
X42532951Y-95703820D01*
X42657890Y-95875786D01*
X42808213Y-96026109D01*
X42980182Y-96151050D01*
X42988946Y-96155516D01*
X43039742Y-96203491D01*
X43056536Y-96271312D01*
X43033998Y-96337447D01*
X42988946Y-96376484D01*
X42980182Y-96380949D01*
X42808213Y-96505890D01*
X42657890Y-96656213D01*
X42532951Y-96828179D01*
X42436444Y-97017585D01*
X42370753Y-97219760D01*
X42347792Y-97364733D01*
X42337500Y-97429713D01*
X42337500Y-97642287D01*
X42370754Y-97852243D01*
X42407324Y-97964794D01*
X42436444Y-98054414D01*
X42532951Y-98243820D01*
X42657890Y-98415786D01*
X42808213Y-98566109D01*
X42980182Y-98691050D01*
X42988946Y-98695516D01*
X43039742Y-98743491D01*
X43056536Y-98811312D01*
X43033998Y-98877447D01*
X42988946Y-98916484D01*
X42980182Y-98920949D01*
X42808213Y-99045890D01*
X42657890Y-99196213D01*
X42532951Y-99368179D01*
X42436444Y-99557585D01*
X42370753Y-99759760D01*
X42337500Y-99969713D01*
X42337500Y-100182286D01*
X42370753Y-100392239D01*
X42436444Y-100594414D01*
X42532951Y-100783820D01*
X42657890Y-100955786D01*
X42808213Y-101106109D01*
X42980182Y-101231050D01*
X42988946Y-101235516D01*
X43039742Y-101283491D01*
X43056536Y-101351312D01*
X43033998Y-101417447D01*
X42988946Y-101456484D01*
X42980182Y-101460949D01*
X42808213Y-101585890D01*
X42657890Y-101736213D01*
X42532951Y-101908179D01*
X42436444Y-102097585D01*
X42370753Y-102299760D01*
X42337500Y-102509713D01*
X42337500Y-102722286D01*
X42370753Y-102932239D01*
X42436444Y-103134414D01*
X42532951Y-103323820D01*
X42657890Y-103495786D01*
X42808213Y-103646109D01*
X42980182Y-103771050D01*
X42988946Y-103775516D01*
X43039742Y-103823491D01*
X43056536Y-103891312D01*
X43033998Y-103957447D01*
X42988946Y-103996484D01*
X42980182Y-104000949D01*
X42808213Y-104125890D01*
X42657890Y-104276213D01*
X42532951Y-104448179D01*
X42436444Y-104637585D01*
X42370753Y-104839760D01*
X42347792Y-104984733D01*
X42337500Y-105049713D01*
X42337500Y-105262287D01*
X42370754Y-105472243D01*
X42407324Y-105584794D01*
X42436444Y-105674414D01*
X42532951Y-105863820D01*
X42657890Y-106035786D01*
X42808213Y-106186109D01*
X42980182Y-106311050D01*
X42988946Y-106315516D01*
X43039742Y-106363491D01*
X43056536Y-106431312D01*
X43033998Y-106497447D01*
X42988946Y-106536484D01*
X42980182Y-106540949D01*
X42808213Y-106665890D01*
X42657890Y-106816213D01*
X42532951Y-106988179D01*
X42436444Y-107177585D01*
X42370753Y-107379760D01*
X42344341Y-107546520D01*
X42337500Y-107589713D01*
X42337500Y-107802287D01*
X42370754Y-108012243D01*
X42407324Y-108124794D01*
X42436444Y-108214414D01*
X42532951Y-108403820D01*
X42657890Y-108575786D01*
X42808213Y-108726109D01*
X42980179Y-108851048D01*
X42980181Y-108851049D01*
X42980184Y-108851051D01*
X43169588Y-108947557D01*
X43371757Y-109013246D01*
X43581713Y-109046500D01*
X43581714Y-109046500D01*
X43794286Y-109046500D01*
X43794287Y-109046500D01*
X44004243Y-109013246D01*
X44206412Y-108947557D01*
X44395816Y-108851051D01*
X44417789Y-108835086D01*
X44567786Y-108726109D01*
X44567788Y-108726106D01*
X44567792Y-108726104D01*
X44718104Y-108575792D01*
X44718106Y-108575788D01*
X44718109Y-108575786D01*
X44843048Y-108403820D01*
X44843047Y-108403820D01*
X44843051Y-108403816D01*
X44847514Y-108395054D01*
X44895488Y-108344259D01*
X44963308Y-108327463D01*
X45029444Y-108349999D01*
X45068486Y-108395056D01*
X45072951Y-108403820D01*
X45197890Y-108575786D01*
X45348213Y-108726109D01*
X45520179Y-108851048D01*
X45520181Y-108851049D01*
X45520184Y-108851051D01*
X45709588Y-108947557D01*
X45911757Y-109013246D01*
X46121713Y-109046500D01*
X46121714Y-109046500D01*
X46334286Y-109046500D01*
X46334287Y-109046500D01*
X46544243Y-109013246D01*
X46746412Y-108947557D01*
X46935816Y-108851051D01*
X46957789Y-108835086D01*
X47107786Y-108726109D01*
X47107788Y-108726106D01*
X47107792Y-108726104D01*
X47258104Y-108575792D01*
X47258106Y-108575788D01*
X47258109Y-108575786D01*
X47383048Y-108403820D01*
X47383047Y-108403820D01*
X47383051Y-108403816D01*
X47479557Y-108214412D01*
X47545246Y-108012243D01*
X47578500Y-107802287D01*
X47578500Y-107589713D01*
X47545246Y-107379757D01*
X47479557Y-107177588D01*
X47427195Y-107074821D01*
X50632000Y-107074821D01*
X50632000Y-107301178D01*
X50667407Y-107524733D01*
X50737354Y-107740005D01*
X50769089Y-107802287D01*
X50840112Y-107941676D01*
X50973155Y-108124794D01*
X51133206Y-108284845D01*
X51316324Y-108417888D01*
X51411605Y-108466436D01*
X51517994Y-108520645D01*
X51517996Y-108520645D01*
X51517999Y-108520647D01*
X51633388Y-108558139D01*
X51733266Y-108590592D01*
X51956822Y-108626000D01*
X51956827Y-108626000D01*
X52183178Y-108626000D01*
X52406733Y-108590592D01*
X52622001Y-108520647D01*
X52823676Y-108417888D01*
X53006794Y-108284845D01*
X53166845Y-108124794D01*
X53299888Y-107941676D01*
X53402647Y-107740001D01*
X53451479Y-107589713D01*
X101265500Y-107589713D01*
X101265500Y-107802287D01*
X101298754Y-108012243D01*
X101335324Y-108124794D01*
X101364444Y-108214414D01*
X101460951Y-108403820D01*
X101585890Y-108575786D01*
X101736213Y-108726109D01*
X101908179Y-108851048D01*
X101908181Y-108851049D01*
X101908184Y-108851051D01*
X102097588Y-108947557D01*
X102299757Y-109013246D01*
X102509713Y-109046500D01*
X102509714Y-109046500D01*
X102722286Y-109046500D01*
X102722287Y-109046500D01*
X102932243Y-109013246D01*
X103134412Y-108947557D01*
X103323816Y-108851051D01*
X103345789Y-108835086D01*
X103495786Y-108726109D01*
X103495788Y-108726106D01*
X103495792Y-108726104D01*
X103646104Y-108575792D01*
X103646106Y-108575788D01*
X103646109Y-108575786D01*
X103771048Y-108403820D01*
X103771047Y-108403820D01*
X103771051Y-108403816D01*
X103867557Y-108214412D01*
X103933246Y-108012243D01*
X103966500Y-107802287D01*
X103966500Y-107589713D01*
X103933246Y-107379757D01*
X103867557Y-107177588D01*
X103771051Y-106988184D01*
X103771049Y-106988181D01*
X103771048Y-106988179D01*
X103646109Y-106816213D01*
X103495786Y-106665890D01*
X103323820Y-106540951D01*
X103134414Y-106444444D01*
X103134413Y-106444443D01*
X103134412Y-106444443D01*
X102932243Y-106378754D01*
X102932241Y-106378753D01*
X102932240Y-106378753D01*
X102770957Y-106353208D01*
X102722287Y-106345500D01*
X102509713Y-106345500D01*
X102461042Y-106353208D01*
X102299760Y-106378753D01*
X102097585Y-106444444D01*
X101908179Y-106540951D01*
X101736213Y-106665890D01*
X101585890Y-106816213D01*
X101460951Y-106988179D01*
X101364444Y-107177585D01*
X101298753Y-107379760D01*
X101272341Y-107546520D01*
X101265500Y-107589713D01*
X53451479Y-107589713D01*
X53465513Y-107546522D01*
X53465514Y-107546520D01*
X53472590Y-107524741D01*
X53472590Y-107524737D01*
X53472592Y-107524733D01*
X53495554Y-107379757D01*
X53508000Y-107301178D01*
X53508000Y-107074821D01*
X53472592Y-106851266D01*
X53402645Y-106635994D01*
X53305044Y-106444444D01*
X53299888Y-106434324D01*
X53166845Y-106251206D01*
X53006794Y-106091155D01*
X52823676Y-105958112D01*
X52622005Y-105855354D01*
X52406733Y-105785407D01*
X52183178Y-105750000D01*
X52183173Y-105750000D01*
X51956827Y-105750000D01*
X51956822Y-105750000D01*
X51733266Y-105785407D01*
X51517994Y-105855354D01*
X51316323Y-105958112D01*
X51133203Y-106091157D01*
X50973157Y-106251203D01*
X50840112Y-106434323D01*
X50737354Y-106635994D01*
X50667407Y-106851266D01*
X50632000Y-107074821D01*
X47427195Y-107074821D01*
X47383051Y-106988184D01*
X47383049Y-106988181D01*
X47383048Y-106988179D01*
X47258109Y-106816213D01*
X47107786Y-106665890D01*
X46935820Y-106540951D01*
X46935115Y-106540591D01*
X46927054Y-106536485D01*
X46876259Y-106488512D01*
X46859463Y-106420692D01*
X46881999Y-106354556D01*
X46927054Y-106315515D01*
X46935816Y-106311051D01*
X46957789Y-106295086D01*
X47107786Y-106186109D01*
X47107788Y-106186106D01*
X47107792Y-106186104D01*
X47258104Y-106035792D01*
X47258106Y-106035788D01*
X47258109Y-106035786D01*
X47383048Y-105863820D01*
X47383047Y-105863820D01*
X47383051Y-105863816D01*
X47479557Y-105674412D01*
X47545246Y-105472243D01*
X47578500Y-105262287D01*
X47578500Y-105049713D01*
X47545246Y-104839757D01*
X47479557Y-104637588D01*
X47427195Y-104534821D01*
X96352000Y-104534821D01*
X96352000Y-104761178D01*
X96387407Y-104984733D01*
X96457354Y-105200005D01*
X96489089Y-105262287D01*
X96560112Y-105401676D01*
X96693155Y-105584794D01*
X96853206Y-105744845D01*
X97036324Y-105877888D01*
X97131605Y-105926436D01*
X97237994Y-105980645D01*
X97237996Y-105980645D01*
X97237999Y-105980647D01*
X97353388Y-106018139D01*
X97453266Y-106050592D01*
X97676822Y-106086000D01*
X97676827Y-106086000D01*
X97903178Y-106086000D01*
X98126733Y-106050592D01*
X98342001Y-105980647D01*
X98543676Y-105877888D01*
X98726794Y-105744845D01*
X98886845Y-105584794D01*
X99019888Y-105401676D01*
X99122647Y-105200001D01*
X99192592Y-104984733D01*
X99228000Y-104761178D01*
X99228000Y-104534821D01*
X99192592Y-104311266D01*
X99122645Y-104095994D01*
X99047498Y-103948512D01*
X99019888Y-103894324D01*
X98886845Y-103711206D01*
X98726794Y-103551155D01*
X98543676Y-103418112D01*
X98342005Y-103315354D01*
X98126733Y-103245407D01*
X97903178Y-103210000D01*
X97903173Y-103210000D01*
X97676827Y-103210000D01*
X97676822Y-103210000D01*
X97453266Y-103245407D01*
X97237994Y-103315354D01*
X97036323Y-103418112D01*
X96853203Y-103551157D01*
X96693157Y-103711203D01*
X96560112Y-103894323D01*
X96457354Y-104095994D01*
X96387407Y-104311266D01*
X96352000Y-104534821D01*
X47427195Y-104534821D01*
X47383051Y-104448184D01*
X47383049Y-104448181D01*
X47383048Y-104448179D01*
X47258109Y-104276213D01*
X47107786Y-104125890D01*
X46935820Y-104000951D01*
X46935115Y-104000591D01*
X46927054Y-103996485D01*
X46876259Y-103948512D01*
X46859463Y-103880692D01*
X46881999Y-103814556D01*
X46927054Y-103775515D01*
X46935816Y-103771051D01*
X46957789Y-103755086D01*
X47107786Y-103646109D01*
X47107788Y-103646106D01*
X47107792Y-103646104D01*
X47258104Y-103495792D01*
X47258106Y-103495788D01*
X47258109Y-103495786D01*
X47383048Y-103323820D01*
X47383047Y-103323820D01*
X47383051Y-103323816D01*
X47479557Y-103134412D01*
X47545246Y-102932243D01*
X47578500Y-102722287D01*
X47578500Y-102509713D01*
X47545246Y-102299757D01*
X47479557Y-102097588D01*
X47383051Y-101908184D01*
X47383049Y-101908181D01*
X47383048Y-101908179D01*
X47258109Y-101736213D01*
X47107786Y-101585890D01*
X46935820Y-101460951D01*
X46935115Y-101460591D01*
X46927054Y-101456485D01*
X46876259Y-101408512D01*
X46859463Y-101340692D01*
X46881999Y-101274556D01*
X46927054Y-101235515D01*
X46935816Y-101231051D01*
X46957789Y-101215086D01*
X47107786Y-101106109D01*
X47107788Y-101106106D01*
X47107792Y-101106104D01*
X47258104Y-100955792D01*
X47258106Y-100955788D01*
X47258109Y-100955786D01*
X47383048Y-100783820D01*
X47383047Y-100783820D01*
X47383051Y-100783816D01*
X47479557Y-100594412D01*
X47545246Y-100392243D01*
X47578500Y-100182287D01*
X47578500Y-99969713D01*
X47545246Y-99759757D01*
X47479557Y-99557588D01*
X47383051Y-99368184D01*
X47383049Y-99368181D01*
X47383048Y-99368179D01*
X47258109Y-99196213D01*
X47107786Y-99045890D01*
X46935820Y-98920951D01*
X46935115Y-98920591D01*
X46927054Y-98916485D01*
X46876259Y-98868512D01*
X46859463Y-98800692D01*
X46881999Y-98734556D01*
X46927054Y-98695515D01*
X46935816Y-98691051D01*
X46957789Y-98675086D01*
X47107786Y-98566109D01*
X47107788Y-98566106D01*
X47107792Y-98566104D01*
X47258104Y-98415792D01*
X47258106Y-98415788D01*
X47258109Y-98415786D01*
X47383048Y-98243820D01*
X47383047Y-98243820D01*
X47383051Y-98243816D01*
X47479557Y-98054412D01*
X47545246Y-97852243D01*
X47578500Y-97642287D01*
X47578500Y-97429713D01*
X47545246Y-97219757D01*
X47479557Y-97017588D01*
X47427195Y-96914821D01*
X50632000Y-96914821D01*
X50632000Y-97141178D01*
X50667407Y-97364733D01*
X50737354Y-97580005D01*
X50769089Y-97642287D01*
X50840112Y-97781676D01*
X50973155Y-97964794D01*
X51133206Y-98124845D01*
X51316324Y-98257888D01*
X51411605Y-98306436D01*
X51517994Y-98360645D01*
X51517996Y-98360645D01*
X51517999Y-98360647D01*
X51633388Y-98398139D01*
X51733266Y-98430592D01*
X51956822Y-98466000D01*
X51956827Y-98466000D01*
X52183178Y-98466000D01*
X52406733Y-98430592D01*
X52622001Y-98360647D01*
X52823676Y-98257888D01*
X53006794Y-98124845D01*
X53166845Y-97964794D01*
X53299888Y-97781676D01*
X53402647Y-97580001D01*
X53472592Y-97364733D01*
X53508000Y-97141178D01*
X53508000Y-96914821D01*
X53472592Y-96691266D01*
X53402645Y-96475994D01*
X53327498Y-96328512D01*
X53299888Y-96274324D01*
X53166845Y-96091206D01*
X53006794Y-95931155D01*
X52823676Y-95798112D01*
X52622005Y-95695354D01*
X52406733Y-95625407D01*
X52183178Y-95590000D01*
X52183173Y-95590000D01*
X51956827Y-95590000D01*
X51956822Y-95590000D01*
X51733266Y-95625407D01*
X51517994Y-95695354D01*
X51316323Y-95798112D01*
X51133203Y-95931157D01*
X50973157Y-96091203D01*
X50840112Y-96274323D01*
X50737354Y-96475994D01*
X50667407Y-96691266D01*
X50632000Y-96914821D01*
X47427195Y-96914821D01*
X47383051Y-96828184D01*
X47383049Y-96828181D01*
X47383048Y-96828179D01*
X47258109Y-96656213D01*
X47107786Y-96505890D01*
X46935820Y-96380951D01*
X46935115Y-96380591D01*
X46927054Y-96376485D01*
X46876259Y-96328512D01*
X46859463Y-96260692D01*
X46881999Y-96194556D01*
X46927054Y-96155515D01*
X46935816Y-96151051D01*
X46957789Y-96135086D01*
X47107786Y-96026109D01*
X47107788Y-96026106D01*
X47107792Y-96026104D01*
X47258104Y-95875792D01*
X47258106Y-95875788D01*
X47258109Y-95875786D01*
X47383048Y-95703820D01*
X47383047Y-95703820D01*
X47383051Y-95703816D01*
X47479557Y-95514412D01*
X47545246Y-95312243D01*
X47578500Y-95102287D01*
X47578500Y-94889713D01*
X47545246Y-94679757D01*
X47479557Y-94477588D01*
X47383051Y-94288184D01*
X47383049Y-94288181D01*
X47383048Y-94288179D01*
X47258109Y-94116213D01*
X47107786Y-93965890D01*
X46935820Y-93840951D01*
X46935115Y-93840591D01*
X46927054Y-93836485D01*
X46876259Y-93788512D01*
X46859463Y-93720692D01*
X46881999Y-93654556D01*
X46927054Y-93615515D01*
X46935816Y-93611051D01*
X47018182Y-93551209D01*
X47107786Y-93486109D01*
X47107788Y-93486106D01*
X47107792Y-93486104D01*
X47258104Y-93335792D01*
X47258106Y-93335788D01*
X47258109Y-93335786D01*
X47383048Y-93163820D01*
X47383047Y-93163820D01*
X47383051Y-93163816D01*
X47479557Y-92974412D01*
X47545246Y-92772243D01*
X47578500Y-92562287D01*
X47578500Y-92349713D01*
X47545246Y-92139757D01*
X47479557Y-91937588D01*
X47383051Y-91748184D01*
X47383049Y-91748181D01*
X47383048Y-91748179D01*
X47258109Y-91576213D01*
X47107786Y-91425890D01*
X46935820Y-91300951D01*
X46935115Y-91300591D01*
X46927054Y-91296485D01*
X46876259Y-91248512D01*
X46859463Y-91180692D01*
X46881999Y-91114556D01*
X46927054Y-91075515D01*
X46935816Y-91071051D01*
X46957789Y-91055086D01*
X47107786Y-90946109D01*
X47107788Y-90946106D01*
X47107792Y-90946104D01*
X47258104Y-90795792D01*
X47258106Y-90795788D01*
X47258109Y-90795786D01*
X47383048Y-90623820D01*
X47383047Y-90623820D01*
X47383051Y-90623816D01*
X47479557Y-90434412D01*
X47545246Y-90232243D01*
X47578500Y-90022287D01*
X47578500Y-89809713D01*
X47545246Y-89599757D01*
X47479557Y-89397588D01*
X47383051Y-89208184D01*
X47383049Y-89208181D01*
X47383048Y-89208179D01*
X47258109Y-89036213D01*
X47107786Y-88885890D01*
X46935820Y-88760951D01*
X46935115Y-88760591D01*
X46927054Y-88756485D01*
X46876259Y-88708512D01*
X46859463Y-88640692D01*
X46881999Y-88574556D01*
X46927054Y-88535515D01*
X46935816Y-88531051D01*
X46957789Y-88515086D01*
X47107786Y-88406109D01*
X47107788Y-88406106D01*
X47107792Y-88406104D01*
X47258104Y-88255792D01*
X47258106Y-88255788D01*
X47258109Y-88255786D01*
X47312899Y-88180371D01*
X47383051Y-88083816D01*
X47447400Y-87957523D01*
X47455127Y-87942359D01*
X47469656Y-87913843D01*
X47479557Y-87894412D01*
X47545246Y-87692243D01*
X47578500Y-87482287D01*
X47578500Y-87269713D01*
X47545246Y-87059757D01*
X47479557Y-86857588D01*
X47427218Y-86754866D01*
X50632500Y-86754866D01*
X50632500Y-86981133D01*
X50667895Y-87204611D01*
X50737818Y-87419810D01*
X50840542Y-87621418D01*
X50892084Y-87692359D01*
X50892085Y-87692360D01*
X51488092Y-87096353D01*
X51516132Y-87164048D01*
X51584531Y-87266414D01*
X51671586Y-87353469D01*
X51773952Y-87421868D01*
X51841645Y-87449907D01*
X51245638Y-88045913D01*
X51316585Y-88097459D01*
X51518189Y-88200181D01*
X51733388Y-88270104D01*
X51733387Y-88270104D01*
X51956867Y-88305500D01*
X52183133Y-88305500D01*
X52406611Y-88270104D01*
X52621810Y-88200181D01*
X52823406Y-88097463D01*
X52823412Y-88097459D01*
X52894359Y-88045913D01*
X52894360Y-88045913D01*
X52298353Y-87449907D01*
X52366048Y-87421868D01*
X52468414Y-87353469D01*
X52555469Y-87266414D01*
X52623868Y-87164048D01*
X52651907Y-87096354D01*
X53247913Y-87692360D01*
X53247913Y-87692359D01*
X53299459Y-87621412D01*
X53299463Y-87621406D01*
X53402181Y-87419810D01*
X53472104Y-87204611D01*
X53507500Y-86981133D01*
X53507500Y-86754866D01*
X53472104Y-86531388D01*
X53402181Y-86316189D01*
X53299459Y-86114585D01*
X53247913Y-86043639D01*
X53247913Y-86043638D01*
X52651907Y-86639645D01*
X52623868Y-86571952D01*
X52555469Y-86469586D01*
X52468414Y-86382531D01*
X52366048Y-86314132D01*
X52298353Y-86286092D01*
X52894360Y-85690085D01*
X52894359Y-85690084D01*
X52823418Y-85638542D01*
X52621810Y-85535818D01*
X52406611Y-85465895D01*
X52406612Y-85465895D01*
X52183133Y-85430500D01*
X51956867Y-85430500D01*
X51733388Y-85465895D01*
X51518189Y-85535818D01*
X51316587Y-85638539D01*
X51245639Y-85690085D01*
X51841646Y-86286092D01*
X51773952Y-86314132D01*
X51671586Y-86382531D01*
X51584531Y-86469586D01*
X51516132Y-86571952D01*
X51488092Y-86639646D01*
X50892085Y-86043639D01*
X50840539Y-86114587D01*
X50737818Y-86316189D01*
X50667895Y-86531388D01*
X50632500Y-86754866D01*
X47427218Y-86754866D01*
X47383051Y-86668184D01*
X47383049Y-86668181D01*
X47383048Y-86668179D01*
X47258109Y-86496213D01*
X47107786Y-86345890D01*
X46935820Y-86220951D01*
X46935115Y-86220591D01*
X46927054Y-86216485D01*
X46876259Y-86168512D01*
X46859463Y-86100692D01*
X46881999Y-86034556D01*
X46927054Y-85995515D01*
X46935816Y-85991051D01*
X46957789Y-85975086D01*
X47107786Y-85866109D01*
X47107788Y-85866106D01*
X47107792Y-85866104D01*
X47258104Y-85715792D01*
X47383051Y-85543816D01*
X47479557Y-85354412D01*
X47545246Y-85152243D01*
X47578500Y-84942287D01*
X47578500Y-84729713D01*
X47545246Y-84519757D01*
X47479557Y-84317588D01*
X47383051Y-84128184D01*
X47383049Y-84128181D01*
X47383048Y-84128179D01*
X47258109Y-83956213D01*
X47107786Y-83805890D01*
X46935820Y-83680951D01*
X46935115Y-83680591D01*
X46927054Y-83676485D01*
X46876259Y-83628512D01*
X46859463Y-83560692D01*
X46881999Y-83494556D01*
X46927054Y-83455515D01*
X46935816Y-83451051D01*
X46957789Y-83435086D01*
X47107786Y-83326109D01*
X47107788Y-83326106D01*
X47107792Y-83326104D01*
X47258104Y-83175792D01*
X47258106Y-83175788D01*
X47258109Y-83175786D01*
X47383048Y-83003820D01*
X47383047Y-83003820D01*
X47383051Y-83003816D01*
X47479557Y-82814412D01*
X47545246Y-82612243D01*
X47578500Y-82402287D01*
X47578500Y-82189713D01*
X47545246Y-81979757D01*
X47479557Y-81777588D01*
X47383051Y-81588184D01*
X47383049Y-81588181D01*
X47383048Y-81588179D01*
X47258109Y-81416213D01*
X47107786Y-81265890D01*
X46935820Y-81140951D01*
X46935115Y-81140591D01*
X46927054Y-81136485D01*
X46876259Y-81088512D01*
X46859463Y-81020692D01*
X46881999Y-80954556D01*
X46927054Y-80915515D01*
X46935816Y-80911051D01*
X47022138Y-80848335D01*
X47107786Y-80786109D01*
X47107788Y-80786106D01*
X47107792Y-80786104D01*
X47226077Y-80667819D01*
X47287400Y-80634334D01*
X47313758Y-80631500D01*
X48287285Y-80631500D01*
X48324173Y-80637114D01*
X48340257Y-80642125D01*
X48365804Y-80650086D01*
X48436384Y-80656500D01*
X48436387Y-80656500D01*
X49099613Y-80656500D01*
X49099616Y-80656500D01*
X49170196Y-80650086D01*
X49332606Y-80599478D01*
X49478185Y-80511472D01*
X49598472Y-80391185D01*
X49686478Y-80245606D01*
X49737086Y-80083196D01*
X49743500Y-80012616D01*
X49743500Y-79499384D01*
X49737086Y-79428804D01*
X49686478Y-79266394D01*
X49634038Y-79179649D01*
X49616203Y-79112095D01*
X49637721Y-79045622D01*
X49691761Y-79001334D01*
X49740156Y-78991500D01*
X49870229Y-78991500D01*
X53897500Y-78991500D01*
X53964539Y-79011185D01*
X54010294Y-79063989D01*
X54021500Y-79115500D01*
X54021500Y-80653870D01*
X54021501Y-80653876D01*
X54027908Y-80713483D01*
X54078202Y-80848328D01*
X54078206Y-80848335D01*
X54164452Y-80963544D01*
X54164455Y-80963547D01*
X54279664Y-81049793D01*
X54279671Y-81049797D01*
X54414517Y-81100091D01*
X54414516Y-81100091D01*
X54421444Y-81100835D01*
X54474127Y-81106500D01*
X56269872Y-81106499D01*
X56329483Y-81100091D01*
X56464331Y-81049796D01*
X56579546Y-80963546D01*
X56665796Y-80848331D01*
X56714810Y-80716916D01*
X56756681Y-80660984D01*
X56822145Y-80636566D01*
X56890418Y-80651417D01*
X56918673Y-80672569D01*
X57032213Y-80786109D01*
X57204179Y-80911048D01*
X57204181Y-80911049D01*
X57204184Y-80911051D01*
X57393588Y-81007557D01*
X57595757Y-81073246D01*
X57805713Y-81106500D01*
X57805714Y-81106500D01*
X58018286Y-81106500D01*
X58018287Y-81106500D01*
X58228243Y-81073246D01*
X58430412Y-81007557D01*
X58619816Y-80911051D01*
X58706138Y-80848335D01*
X58791786Y-80786109D01*
X58791788Y-80786106D01*
X58791792Y-80786104D01*
X58942104Y-80635792D01*
X58942106Y-80635788D01*
X58942109Y-80635786D01*
X59067048Y-80463820D01*
X59067047Y-80463820D01*
X59067051Y-80463816D01*
X59071514Y-80455054D01*
X59119488Y-80404259D01*
X59187308Y-80387463D01*
X59253444Y-80409999D01*
X59292486Y-80455056D01*
X59296951Y-80463820D01*
X59421890Y-80635786D01*
X59572213Y-80786109D01*
X59744179Y-80911048D01*
X59744181Y-80911049D01*
X59744184Y-80911051D01*
X59933588Y-81007557D01*
X60135757Y-81073246D01*
X60345713Y-81106500D01*
X60345714Y-81106500D01*
X60558286Y-81106500D01*
X60558287Y-81106500D01*
X60768243Y-81073246D01*
X60970412Y-81007557D01*
X61159816Y-80911051D01*
X61246138Y-80848335D01*
X61331786Y-80786109D01*
X61331788Y-80786106D01*
X61331792Y-80786104D01*
X61482104Y-80635792D01*
X61482106Y-80635788D01*
X61482109Y-80635786D01*
X61607048Y-80463820D01*
X61607047Y-80463820D01*
X61607051Y-80463816D01*
X61611514Y-80455054D01*
X61659488Y-80404259D01*
X61727308Y-80387463D01*
X61793444Y-80409999D01*
X61832486Y-80455056D01*
X61836951Y-80463820D01*
X61961890Y-80635786D01*
X62112213Y-80786109D01*
X62284179Y-80911048D01*
X62284181Y-80911049D01*
X62284184Y-80911051D01*
X62473588Y-81007557D01*
X62675757Y-81073246D01*
X62885713Y-81106500D01*
X62885714Y-81106500D01*
X63098286Y-81106500D01*
X63098287Y-81106500D01*
X63308243Y-81073246D01*
X63510412Y-81007557D01*
X63699816Y-80911051D01*
X63786138Y-80848335D01*
X63871786Y-80786109D01*
X63871788Y-80786106D01*
X63871792Y-80786104D01*
X64022104Y-80635792D01*
X64022106Y-80635788D01*
X64022109Y-80635786D01*
X64147048Y-80463820D01*
X64147047Y-80463820D01*
X64147051Y-80463816D01*
X64151514Y-80455054D01*
X64199488Y-80404259D01*
X64267308Y-80387463D01*
X64333444Y-80409999D01*
X64372486Y-80455056D01*
X64376951Y-80463820D01*
X64501890Y-80635786D01*
X64652213Y-80786109D01*
X64824179Y-80911048D01*
X64824181Y-80911049D01*
X64824184Y-80911051D01*
X65013588Y-81007557D01*
X65215757Y-81073246D01*
X65425713Y-81106500D01*
X65425714Y-81106500D01*
X65638286Y-81106500D01*
X65638287Y-81106500D01*
X65848243Y-81073246D01*
X66050412Y-81007557D01*
X66239816Y-80911051D01*
X66326138Y-80848335D01*
X66411786Y-80786109D01*
X66411788Y-80786106D01*
X66411792Y-80786104D01*
X66562104Y-80635792D01*
X66562106Y-80635788D01*
X66562109Y-80635786D01*
X66687048Y-80463820D01*
X66687047Y-80463820D01*
X66687051Y-80463816D01*
X66691514Y-80455054D01*
X66739488Y-80404259D01*
X66807308Y-80387463D01*
X66873444Y-80409999D01*
X66912486Y-80455056D01*
X66916951Y-80463820D01*
X67041890Y-80635786D01*
X67192213Y-80786109D01*
X67364179Y-80911048D01*
X67364181Y-80911049D01*
X67364184Y-80911051D01*
X67553588Y-81007557D01*
X67755757Y-81073246D01*
X67965713Y-81106500D01*
X67965714Y-81106500D01*
X68178286Y-81106500D01*
X68178287Y-81106500D01*
X68388243Y-81073246D01*
X68590412Y-81007557D01*
X68779816Y-80911051D01*
X68866138Y-80848335D01*
X68951786Y-80786109D01*
X68951788Y-80786106D01*
X68951792Y-80786104D01*
X69102104Y-80635792D01*
X69102106Y-80635788D01*
X69102109Y-80635786D01*
X69227048Y-80463820D01*
X69227047Y-80463820D01*
X69227051Y-80463816D01*
X69323557Y-80274412D01*
X69327683Y-80261713D01*
X85303500Y-80261713D01*
X85303500Y-80774287D01*
X85313534Y-80837644D01*
X85333475Y-80963544D01*
X85336754Y-80984243D01*
X85376477Y-81106498D01*
X85402444Y-81186414D01*
X85498951Y-81375820D01*
X85623890Y-81547786D01*
X85742181Y-81666077D01*
X85775666Y-81727400D01*
X85778500Y-81753758D01*
X85778500Y-86740233D01*
X85812143Y-86909366D01*
X85812146Y-86909378D01*
X85878138Y-87068698D01*
X85878145Y-87068711D01*
X85973954Y-87212098D01*
X85973957Y-87212102D01*
X93929897Y-95168042D01*
X93929901Y-95168045D01*
X94073288Y-95263854D01*
X94073301Y-95263861D01*
X94232621Y-95329853D01*
X94232626Y-95329855D01*
X94401766Y-95363499D01*
X94401769Y-95363500D01*
X94401771Y-95363500D01*
X94574229Y-95363500D01*
X96585441Y-95363500D01*
X96652480Y-95383185D01*
X96685757Y-95414612D01*
X96693155Y-95424794D01*
X96853206Y-95584845D01*
X97036324Y-95717888D01*
X97131605Y-95766436D01*
X97237994Y-95820645D01*
X97237996Y-95820645D01*
X97237999Y-95820647D01*
X97353388Y-95858139D01*
X97453266Y-95890592D01*
X97676822Y-95926000D01*
X97676827Y-95926000D01*
X97903178Y-95926000D01*
X98126733Y-95890592D01*
X98342001Y-95820647D01*
X98543676Y-95717888D01*
X98726794Y-95584845D01*
X98886845Y-95424794D01*
X99019888Y-95241676D01*
X99122647Y-95040001D01*
X99192592Y-94824733D01*
X99228000Y-94601178D01*
X99228000Y-94374821D01*
X99192592Y-94151266D01*
X99122645Y-93935994D01*
X99047498Y-93788512D01*
X99019888Y-93734324D01*
X98886845Y-93551206D01*
X98726794Y-93391155D01*
X98543676Y-93258112D01*
X98342005Y-93155354D01*
X98126733Y-93085407D01*
X97903178Y-93050000D01*
X97903173Y-93050000D01*
X97676827Y-93050000D01*
X97676822Y-93050000D01*
X97453266Y-93085407D01*
X97237994Y-93155354D01*
X97036323Y-93258112D01*
X96853203Y-93391157D01*
X96693157Y-93551203D01*
X96693152Y-93551209D01*
X96685757Y-93561388D01*
X96630427Y-93604052D01*
X96585441Y-93612500D01*
X94902006Y-93612500D01*
X94834967Y-93592815D01*
X94814325Y-93576181D01*
X87565819Y-86327675D01*
X87532334Y-86266352D01*
X87529500Y-86239994D01*
X87529500Y-81753758D01*
X87538145Y-81724314D01*
X87544668Y-81694332D01*
X87548422Y-81689316D01*
X87549185Y-81686719D01*
X87565813Y-81666082D01*
X87672604Y-81559291D01*
X87733923Y-81525809D01*
X87803615Y-81530793D01*
X87859549Y-81572664D01*
X87865821Y-81581878D01*
X87869185Y-81587333D01*
X87869186Y-81587334D01*
X87961288Y-81736656D01*
X88085344Y-81860712D01*
X88234666Y-81952814D01*
X88401203Y-82007999D01*
X88503991Y-82018500D01*
X89804008Y-82018499D01*
X89906797Y-82007999D01*
X90073334Y-81952814D01*
X90222656Y-81860712D01*
X90346712Y-81736656D01*
X90438814Y-81587334D01*
X90474879Y-81478494D01*
X90514652Y-81421051D01*
X90579167Y-81394228D01*
X90592585Y-81393500D01*
X92041994Y-81393500D01*
X92109033Y-81413185D01*
X92129675Y-81429819D01*
X96878181Y-86178325D01*
X96911666Y-86239648D01*
X96914500Y-86266006D01*
X96914500Y-87846804D01*
X96894815Y-87913843D01*
X96842011Y-87959598D01*
X96803755Y-87970094D01*
X96745016Y-87976409D01*
X96610171Y-88026702D01*
X96610164Y-88026706D01*
X96494955Y-88112952D01*
X96494952Y-88112955D01*
X96408706Y-88228164D01*
X96408702Y-88228171D01*
X96358408Y-88363017D01*
X96353776Y-88406104D01*
X96352001Y-88422623D01*
X96352000Y-88422635D01*
X96352000Y-90393370D01*
X96352001Y-90393376D01*
X96358408Y-90452983D01*
X96408702Y-90587828D01*
X96408706Y-90587835D01*
X96494952Y-90703044D01*
X96494955Y-90703047D01*
X96610164Y-90789293D01*
X96610171Y-90789297D01*
X96745017Y-90839591D01*
X96745016Y-90839591D01*
X96751944Y-90840335D01*
X96804627Y-90846000D01*
X98775372Y-90845999D01*
X98834983Y-90839591D01*
X98969831Y-90789296D01*
X99085046Y-90703046D01*
X99171296Y-90587831D01*
X99221591Y-90452983D01*
X99228000Y-90393373D01*
X99227999Y-88422628D01*
X99221591Y-88363017D01*
X99181596Y-88255786D01*
X99171297Y-88228171D01*
X99171293Y-88228164D01*
X99085047Y-88112955D01*
X99085044Y-88112952D01*
X98969835Y-88026706D01*
X98969828Y-88026702D01*
X98834982Y-87976408D01*
X98834983Y-87976408D01*
X98776244Y-87970093D01*
X98711693Y-87943355D01*
X98671845Y-87885962D01*
X98665500Y-87846804D01*
X98665500Y-85765768D01*
X98665499Y-85765766D01*
X98656074Y-85718383D01*
X98631855Y-85596626D01*
X98609982Y-85543819D01*
X98565861Y-85437301D01*
X98565854Y-85437288D01*
X98470046Y-85293902D01*
X98463475Y-85287331D01*
X98348099Y-85171955D01*
X95788383Y-82612239D01*
X93014102Y-79837957D01*
X93014098Y-79837954D01*
X92870711Y-79742145D01*
X92870698Y-79742138D01*
X92711378Y-79676146D01*
X92711366Y-79676143D01*
X92542232Y-79642500D01*
X92542229Y-79642500D01*
X90592585Y-79642500D01*
X90525546Y-79622815D01*
X90479791Y-79570011D01*
X90474879Y-79557504D01*
X90456104Y-79500845D01*
X90438814Y-79448666D01*
X90346712Y-79299344D01*
X90222656Y-79175288D01*
X90073334Y-79083186D01*
X89906797Y-79028001D01*
X89906795Y-79028000D01*
X89804010Y-79017500D01*
X88503998Y-79017500D01*
X88503981Y-79017501D01*
X88401203Y-79028000D01*
X88401200Y-79028001D01*
X88234668Y-79083185D01*
X88234663Y-79083187D01*
X88085342Y-79175289D01*
X87961289Y-79299342D01*
X87865821Y-79454121D01*
X87813873Y-79500845D01*
X87744910Y-79512068D01*
X87680828Y-79484224D01*
X87672601Y-79476705D01*
X87533786Y-79337890D01*
X87361820Y-79212951D01*
X87172414Y-79116444D01*
X87172413Y-79116443D01*
X87172412Y-79116443D01*
X86970243Y-79050754D01*
X86970241Y-79050753D01*
X86970240Y-79050753D01*
X86808957Y-79025208D01*
X86760287Y-79017500D01*
X86547713Y-79017500D01*
X86499042Y-79025208D01*
X86337760Y-79050753D01*
X86135585Y-79116444D01*
X85946179Y-79212951D01*
X85774213Y-79337890D01*
X85623890Y-79488213D01*
X85498951Y-79660179D01*
X85402444Y-79849585D01*
X85336753Y-80051760D01*
X85322115Y-80144182D01*
X85303500Y-80261713D01*
X69327683Y-80261713D01*
X69389246Y-80072243D01*
X69422500Y-79862287D01*
X69422500Y-79649713D01*
X69389246Y-79439757D01*
X69323557Y-79237588D01*
X69227051Y-79048184D01*
X69227049Y-79048181D01*
X69227048Y-79048179D01*
X69102109Y-78876213D01*
X68951786Y-78725890D01*
X68779820Y-78600951D01*
X68590414Y-78504444D01*
X68590413Y-78504443D01*
X68590412Y-78504443D01*
X68388243Y-78438754D01*
X68388241Y-78438753D01*
X68388240Y-78438753D01*
X68226957Y-78413208D01*
X68178287Y-78405500D01*
X67965713Y-78405500D01*
X67917042Y-78413208D01*
X67755760Y-78438753D01*
X67553585Y-78504444D01*
X67364179Y-78600951D01*
X67192213Y-78725890D01*
X67041890Y-78876213D01*
X66916949Y-79048182D01*
X66912484Y-79056946D01*
X66864509Y-79107742D01*
X66796688Y-79124536D01*
X66730553Y-79101998D01*
X66691516Y-79056946D01*
X66687050Y-79048182D01*
X66562109Y-78876213D01*
X66411786Y-78725890D01*
X66239820Y-78600951D01*
X66050414Y-78504444D01*
X66050413Y-78504443D01*
X66050412Y-78504443D01*
X65848243Y-78438754D01*
X65848241Y-78438753D01*
X65848240Y-78438753D01*
X65686957Y-78413208D01*
X65638287Y-78405500D01*
X65425713Y-78405500D01*
X65377042Y-78413208D01*
X65215760Y-78438753D01*
X65013585Y-78504444D01*
X64824179Y-78600951D01*
X64652213Y-78725890D01*
X64501890Y-78876213D01*
X64376949Y-79048182D01*
X64372484Y-79056946D01*
X64324509Y-79107742D01*
X64256688Y-79124536D01*
X64190553Y-79101998D01*
X64151516Y-79056946D01*
X64147050Y-79048182D01*
X64022109Y-78876213D01*
X63871786Y-78725890D01*
X63699820Y-78600951D01*
X63510414Y-78504444D01*
X63510413Y-78504443D01*
X63510412Y-78504443D01*
X63308243Y-78438754D01*
X63308241Y-78438753D01*
X63308240Y-78438753D01*
X63146957Y-78413208D01*
X63098287Y-78405500D01*
X62931006Y-78405500D01*
X62863967Y-78385815D01*
X62843325Y-78369181D01*
X61910102Y-77435957D01*
X61910098Y-77435954D01*
X61766711Y-77340145D01*
X61766698Y-77340138D01*
X61607378Y-77274146D01*
X61607366Y-77274143D01*
X61438232Y-77240500D01*
X61438229Y-77240500D01*
X51037500Y-77240500D01*
X50970461Y-77220815D01*
X50924706Y-77168011D01*
X50913500Y-77116500D01*
X50913500Y-75351768D01*
X50913499Y-75351766D01*
X50879855Y-75182626D01*
X50868002Y-75154011D01*
X50813861Y-75023301D01*
X50813854Y-75023288D01*
X50718046Y-74879902D01*
X50659500Y-74821356D01*
X50596099Y-74757955D01*
X50416538Y-74578394D01*
X50226102Y-74387957D01*
X50226098Y-74387954D01*
X50082711Y-74292145D01*
X50082698Y-74292138D01*
X49923378Y-74226146D01*
X49923366Y-74226143D01*
X49748255Y-74191311D01*
X49748542Y-74189866D01*
X49690542Y-74166435D01*
X49650193Y-74109393D01*
X49643500Y-74069206D01*
X49643500Y-68698135D01*
X54021500Y-68698135D01*
X54021500Y-70493870D01*
X54021501Y-70493876D01*
X54027908Y-70553483D01*
X54078202Y-70688328D01*
X54078206Y-70688335D01*
X54164452Y-70803544D01*
X54164455Y-70803547D01*
X54279664Y-70889793D01*
X54279671Y-70889797D01*
X54414517Y-70940091D01*
X54414516Y-70940091D01*
X54421444Y-70940835D01*
X54474127Y-70946500D01*
X56269872Y-70946499D01*
X56329483Y-70940091D01*
X56464331Y-70889796D01*
X56579546Y-70803546D01*
X56665796Y-70688331D01*
X56714810Y-70556916D01*
X56756681Y-70500984D01*
X56822145Y-70476566D01*
X56890418Y-70491417D01*
X56918673Y-70512569D01*
X57032213Y-70626109D01*
X57204179Y-70751048D01*
X57204181Y-70751049D01*
X57204184Y-70751051D01*
X57393588Y-70847557D01*
X57595757Y-70913246D01*
X57805713Y-70946500D01*
X57805714Y-70946500D01*
X58018286Y-70946500D01*
X58018287Y-70946500D01*
X58228243Y-70913246D01*
X58430412Y-70847557D01*
X58619816Y-70751051D01*
X58706138Y-70688335D01*
X58791786Y-70626109D01*
X58791788Y-70626106D01*
X58791792Y-70626104D01*
X58942104Y-70475792D01*
X58942106Y-70475788D01*
X58942109Y-70475786D01*
X59067048Y-70303820D01*
X59067047Y-70303820D01*
X59067051Y-70303816D01*
X59071514Y-70295054D01*
X59119488Y-70244259D01*
X59187308Y-70227463D01*
X59253444Y-70249999D01*
X59292486Y-70295056D01*
X59296951Y-70303820D01*
X59421890Y-70475786D01*
X59572213Y-70626109D01*
X59744179Y-70751048D01*
X59744181Y-70751049D01*
X59744184Y-70751051D01*
X59933588Y-70847557D01*
X60135757Y-70913246D01*
X60345713Y-70946500D01*
X60345714Y-70946500D01*
X60558286Y-70946500D01*
X60558287Y-70946500D01*
X60768243Y-70913246D01*
X60970412Y-70847557D01*
X61159816Y-70751051D01*
X61246138Y-70688335D01*
X61331786Y-70626109D01*
X61331788Y-70626106D01*
X61331792Y-70626104D01*
X61482104Y-70475792D01*
X61482106Y-70475788D01*
X61482109Y-70475786D01*
X61567890Y-70357717D01*
X61607051Y-70303816D01*
X61611793Y-70294508D01*
X61659763Y-70243711D01*
X61727583Y-70226911D01*
X61793719Y-70249445D01*
X61832763Y-70294500D01*
X61837373Y-70303547D01*
X61876728Y-70357716D01*
X62509037Y-69725408D01*
X62526075Y-69788993D01*
X62591901Y-69903007D01*
X62684993Y-69996099D01*
X62799007Y-70061925D01*
X62862590Y-70078962D01*
X62230282Y-70711269D01*
X62230282Y-70711270D01*
X62284449Y-70750624D01*
X62473782Y-70847095D01*
X62675870Y-70912757D01*
X62885754Y-70946000D01*
X63098246Y-70946000D01*
X63308127Y-70912757D01*
X63308130Y-70912757D01*
X63510217Y-70847095D01*
X63699554Y-70750622D01*
X63753716Y-70711270D01*
X63753717Y-70711270D01*
X63121408Y-70078962D01*
X63184993Y-70061925D01*
X63299007Y-69996099D01*
X63392099Y-69903007D01*
X63457925Y-69788993D01*
X63474962Y-69725408D01*
X64107270Y-70357717D01*
X64107270Y-70357716D01*
X64146622Y-70303555D01*
X64151232Y-70294507D01*
X64199205Y-70243709D01*
X64267025Y-70226912D01*
X64333161Y-70249447D01*
X64372204Y-70294504D01*
X64376949Y-70303817D01*
X64501890Y-70475786D01*
X64652213Y-70626109D01*
X64824179Y-70751048D01*
X64824181Y-70751049D01*
X64824184Y-70751051D01*
X65013588Y-70847557D01*
X65215757Y-70913246D01*
X65425713Y-70946500D01*
X65425714Y-70946500D01*
X65638286Y-70946500D01*
X65638287Y-70946500D01*
X65848243Y-70913246D01*
X66050412Y-70847557D01*
X66239816Y-70751051D01*
X66326138Y-70688335D01*
X66411786Y-70626109D01*
X66411788Y-70626106D01*
X66411792Y-70626104D01*
X66562104Y-70475792D01*
X66562106Y-70475788D01*
X66562109Y-70475786D01*
X66687048Y-70303820D01*
X66687047Y-70303820D01*
X66687051Y-70303816D01*
X66691514Y-70295054D01*
X66739488Y-70244259D01*
X66807308Y-70227463D01*
X66873444Y-70249999D01*
X66912486Y-70295056D01*
X66916951Y-70303820D01*
X67041890Y-70475786D01*
X67192213Y-70626109D01*
X67364179Y-70751048D01*
X67364181Y-70751049D01*
X67364184Y-70751051D01*
X67553588Y-70847557D01*
X67755757Y-70913246D01*
X67965713Y-70946500D01*
X67965714Y-70946500D01*
X68178286Y-70946500D01*
X68178287Y-70946500D01*
X68388243Y-70913246D01*
X68590412Y-70847557D01*
X68779816Y-70751051D01*
X68866138Y-70688335D01*
X68951786Y-70626109D01*
X68951788Y-70626106D01*
X68951792Y-70626104D01*
X69102104Y-70475792D01*
X69102106Y-70475788D01*
X69102109Y-70475786D01*
X69227048Y-70303820D01*
X69227047Y-70303820D01*
X69227051Y-70303816D01*
X69323557Y-70114412D01*
X69389246Y-69912243D01*
X69422500Y-69702287D01*
X69422500Y-69489713D01*
X69389246Y-69279757D01*
X69323557Y-69077588D01*
X69227051Y-68888184D01*
X69227049Y-68888181D01*
X69227048Y-68888179D01*
X69102109Y-68716213D01*
X68951786Y-68565890D01*
X68779820Y-68440951D01*
X68590414Y-68344444D01*
X68590413Y-68344443D01*
X68590412Y-68344443D01*
X68388243Y-68278754D01*
X68388241Y-68278753D01*
X68388240Y-68278753D01*
X68226957Y-68253208D01*
X68178287Y-68245500D01*
X67965713Y-68245500D01*
X67917042Y-68253208D01*
X67755760Y-68278753D01*
X67553585Y-68344444D01*
X67364179Y-68440951D01*
X67192213Y-68565890D01*
X67041890Y-68716213D01*
X66916949Y-68888182D01*
X66912484Y-68896946D01*
X66864509Y-68947742D01*
X66796688Y-68964536D01*
X66730553Y-68941998D01*
X66691516Y-68896946D01*
X66687050Y-68888182D01*
X66562109Y-68716213D01*
X66411786Y-68565890D01*
X66239820Y-68440951D01*
X66050414Y-68344444D01*
X66050413Y-68344443D01*
X66050412Y-68344443D01*
X65848243Y-68278754D01*
X65848241Y-68278753D01*
X65848240Y-68278753D01*
X65686957Y-68253208D01*
X65638287Y-68245500D01*
X65425713Y-68245500D01*
X65377042Y-68253208D01*
X65215760Y-68278753D01*
X65013585Y-68344444D01*
X64824179Y-68440951D01*
X64652213Y-68565890D01*
X64501890Y-68716213D01*
X64376949Y-68888182D01*
X64372202Y-68897499D01*
X64324227Y-68948293D01*
X64256405Y-68965087D01*
X64190271Y-68942548D01*
X64151234Y-68897495D01*
X64146626Y-68888452D01*
X64107270Y-68834282D01*
X64107269Y-68834282D01*
X63474962Y-69466590D01*
X63457925Y-69403007D01*
X63392099Y-69288993D01*
X63299007Y-69195901D01*
X63184993Y-69130075D01*
X63121409Y-69113037D01*
X63753716Y-68480728D01*
X63699550Y-68441375D01*
X63510217Y-68344904D01*
X63308129Y-68279242D01*
X63098246Y-68246000D01*
X62885754Y-68246000D01*
X62675872Y-68279242D01*
X62675869Y-68279242D01*
X62473782Y-68344904D01*
X62284439Y-68441380D01*
X62230282Y-68480727D01*
X62230282Y-68480728D01*
X62862591Y-69113037D01*
X62799007Y-69130075D01*
X62684993Y-69195901D01*
X62591901Y-69288993D01*
X62526075Y-69403007D01*
X62509037Y-69466591D01*
X61876728Y-68834282D01*
X61876727Y-68834282D01*
X61837380Y-68888440D01*
X61837376Y-68888446D01*
X61832760Y-68897505D01*
X61784781Y-68948297D01*
X61716959Y-68965087D01*
X61650826Y-68942543D01*
X61611794Y-68897493D01*
X61607051Y-68888184D01*
X61607049Y-68888181D01*
X61607048Y-68888179D01*
X61482109Y-68716213D01*
X61331786Y-68565890D01*
X61159820Y-68440951D01*
X60970414Y-68344444D01*
X60970413Y-68344443D01*
X60970412Y-68344443D01*
X60768243Y-68278754D01*
X60768241Y-68278753D01*
X60768240Y-68278753D01*
X60606957Y-68253208D01*
X60558287Y-68245500D01*
X60345713Y-68245500D01*
X60297042Y-68253208D01*
X60135760Y-68278753D01*
X59933585Y-68344444D01*
X59744179Y-68440951D01*
X59572213Y-68565890D01*
X59421890Y-68716213D01*
X59296949Y-68888182D01*
X59292484Y-68896946D01*
X59244509Y-68947742D01*
X59176688Y-68964536D01*
X59110553Y-68941998D01*
X59071516Y-68896946D01*
X59067050Y-68888182D01*
X58942109Y-68716213D01*
X58791786Y-68565890D01*
X58619820Y-68440951D01*
X58430414Y-68344444D01*
X58430413Y-68344443D01*
X58430412Y-68344443D01*
X58228243Y-68278754D01*
X58228241Y-68278753D01*
X58228240Y-68278753D01*
X58066957Y-68253208D01*
X58018287Y-68245500D01*
X57805713Y-68245500D01*
X57757042Y-68253208D01*
X57595760Y-68278753D01*
X57393585Y-68344444D01*
X57204179Y-68440951D01*
X57032215Y-68565889D01*
X56918673Y-68679431D01*
X56857350Y-68712915D01*
X56787658Y-68707931D01*
X56731725Y-68666059D01*
X56714810Y-68635082D01*
X56665797Y-68503671D01*
X56665793Y-68503664D01*
X56579547Y-68388455D01*
X56579544Y-68388452D01*
X56464335Y-68302206D01*
X56464328Y-68302202D01*
X56329482Y-68251908D01*
X56329483Y-68251908D01*
X56269883Y-68245501D01*
X56269881Y-68245500D01*
X56269873Y-68245500D01*
X56269864Y-68245500D01*
X54474129Y-68245500D01*
X54474123Y-68245501D01*
X54414516Y-68251908D01*
X54279671Y-68302202D01*
X54279664Y-68302206D01*
X54164455Y-68388452D01*
X54164452Y-68388455D01*
X54078206Y-68503664D01*
X54078202Y-68503671D01*
X54027908Y-68638517D01*
X54021501Y-68698116D01*
X54021500Y-68698135D01*
X49643500Y-68698135D01*
X49643500Y-64284713D01*
X51093500Y-64284713D01*
X51093500Y-64747286D01*
X51121205Y-64922213D01*
X51126754Y-64957243D01*
X51171247Y-65094179D01*
X51192444Y-65159414D01*
X51288951Y-65348820D01*
X51413890Y-65520786D01*
X51564213Y-65671109D01*
X51736179Y-65796048D01*
X51736181Y-65796049D01*
X51736184Y-65796051D01*
X51925588Y-65892557D01*
X52127757Y-65958246D01*
X52337713Y-65991500D01*
X52337714Y-65991500D01*
X52550286Y-65991500D01*
X52550287Y-65991500D01*
X52760243Y-65958246D01*
X52962412Y-65892557D01*
X53151816Y-65796051D01*
X53251687Y-65723491D01*
X53323786Y-65671109D01*
X53323788Y-65671106D01*
X53323792Y-65671104D01*
X53474104Y-65520792D01*
X53593683Y-65356204D01*
X53649011Y-65313540D01*
X53718624Y-65307561D01*
X53780420Y-65340166D01*
X53794313Y-65356199D01*
X53876624Y-65469491D01*
X53913896Y-65520792D01*
X54064213Y-65671109D01*
X54236179Y-65796048D01*
X54236181Y-65796049D01*
X54236184Y-65796051D01*
X54425588Y-65892557D01*
X54627757Y-65958246D01*
X54837713Y-65991500D01*
X54837714Y-65991500D01*
X55050286Y-65991500D01*
X55050287Y-65991500D01*
X55260243Y-65958246D01*
X55462412Y-65892557D01*
X55651816Y-65796051D01*
X55751687Y-65723491D01*
X55823786Y-65671109D01*
X55823788Y-65671106D01*
X55823792Y-65671104D01*
X55974104Y-65520792D01*
X56093991Y-65355779D01*
X56149320Y-65313115D01*
X56218933Y-65307136D01*
X56280729Y-65339741D01*
X56294627Y-65355781D01*
X56414272Y-65520459D01*
X56414276Y-65520464D01*
X56564535Y-65670723D01*
X56564540Y-65670727D01*
X56736442Y-65795620D01*
X56925782Y-65892095D01*
X57127871Y-65957757D01*
X57194000Y-65968231D01*
X57194000Y-64920145D01*
X57260657Y-64958630D01*
X57381465Y-64991000D01*
X57506535Y-64991000D01*
X57627343Y-64958630D01*
X57694000Y-64920145D01*
X57694000Y-65968230D01*
X57760126Y-65957757D01*
X57760129Y-65957757D01*
X57962217Y-65892095D01*
X58151557Y-65795620D01*
X58323458Y-65670728D01*
X58462330Y-65531856D01*
X58523653Y-65498371D01*
X58593345Y-65503355D01*
X58649279Y-65545226D01*
X58655551Y-65554440D01*
X58659185Y-65560331D01*
X58659186Y-65560334D01*
X58751288Y-65709656D01*
X58875344Y-65833712D01*
X59024666Y-65925814D01*
X59191203Y-65980999D01*
X59293991Y-65991500D01*
X60594008Y-65991499D01*
X60696797Y-65980999D01*
X60863334Y-65925814D01*
X61012656Y-65833712D01*
X61136712Y-65709656D01*
X61228814Y-65560334D01*
X61283999Y-65393797D01*
X61294500Y-65291009D01*
X61294499Y-64284713D01*
X65063500Y-64284713D01*
X65063500Y-64747286D01*
X65091205Y-64922213D01*
X65096754Y-64957243D01*
X65141247Y-65094179D01*
X65162444Y-65159414D01*
X65258951Y-65348820D01*
X65383890Y-65520786D01*
X65534213Y-65671109D01*
X65706179Y-65796048D01*
X65706181Y-65796049D01*
X65706184Y-65796051D01*
X65895588Y-65892557D01*
X66097757Y-65958246D01*
X66307713Y-65991500D01*
X66307714Y-65991500D01*
X66520286Y-65991500D01*
X66520287Y-65991500D01*
X66730243Y-65958246D01*
X66932412Y-65892557D01*
X67121816Y-65796051D01*
X67221687Y-65723491D01*
X67293786Y-65671109D01*
X67293788Y-65671106D01*
X67293792Y-65671104D01*
X67444104Y-65520792D01*
X67563683Y-65356204D01*
X67619011Y-65313540D01*
X67688624Y-65307561D01*
X67750420Y-65340166D01*
X67764313Y-65356199D01*
X67846624Y-65469491D01*
X67883896Y-65520792D01*
X68034213Y-65671109D01*
X68206179Y-65796048D01*
X68206181Y-65796049D01*
X68206184Y-65796051D01*
X68395588Y-65892557D01*
X68597757Y-65958246D01*
X68807713Y-65991500D01*
X68807714Y-65991500D01*
X69020286Y-65991500D01*
X69020287Y-65991500D01*
X69230243Y-65958246D01*
X69432412Y-65892557D01*
X69621816Y-65796051D01*
X69721687Y-65723491D01*
X69793786Y-65671109D01*
X69793788Y-65671106D01*
X69793792Y-65671104D01*
X69944104Y-65520792D01*
X70063991Y-65355779D01*
X70119320Y-65313115D01*
X70188933Y-65307136D01*
X70250729Y-65339741D01*
X70264627Y-65355781D01*
X70384272Y-65520459D01*
X70384276Y-65520464D01*
X70534535Y-65670723D01*
X70534540Y-65670727D01*
X70706442Y-65795620D01*
X70895782Y-65892095D01*
X71097871Y-65957757D01*
X71164000Y-65968231D01*
X71164000Y-64920145D01*
X71230657Y-64958630D01*
X71351465Y-64991000D01*
X71476535Y-64991000D01*
X71597343Y-64958630D01*
X71664000Y-64920145D01*
X71664000Y-65968230D01*
X71730126Y-65957757D01*
X71730129Y-65957757D01*
X71932217Y-65892095D01*
X72121557Y-65795620D01*
X72293458Y-65670728D01*
X72432330Y-65531856D01*
X72493653Y-65498371D01*
X72563345Y-65503355D01*
X72619279Y-65545226D01*
X72625551Y-65554440D01*
X72629185Y-65560331D01*
X72629186Y-65560334D01*
X72721288Y-65709656D01*
X72845344Y-65833712D01*
X72994666Y-65925814D01*
X73161203Y-65980999D01*
X73263991Y-65991500D01*
X74564008Y-65991499D01*
X74666797Y-65980999D01*
X74833334Y-65925814D01*
X74982656Y-65833712D01*
X75106712Y-65709656D01*
X75198814Y-65560334D01*
X75253999Y-65393797D01*
X75264500Y-65291009D01*
X75264499Y-63740992D01*
X75262851Y-63724863D01*
X75253999Y-63638203D01*
X75253998Y-63638200D01*
X75253338Y-63636208D01*
X75198814Y-63471666D01*
X75106712Y-63322344D01*
X74982656Y-63198288D01*
X74873642Y-63131048D01*
X74833336Y-63106187D01*
X74833331Y-63106185D01*
X74822162Y-63102484D01*
X74666797Y-63051001D01*
X74666795Y-63051000D01*
X74564010Y-63040500D01*
X73263998Y-63040500D01*
X73263981Y-63040501D01*
X73161203Y-63051000D01*
X73161200Y-63051001D01*
X72994668Y-63106185D01*
X72994663Y-63106187D01*
X72845342Y-63198289D01*
X72721289Y-63322342D01*
X72625551Y-63477559D01*
X72573603Y-63524283D01*
X72504640Y-63535506D01*
X72440558Y-63507662D01*
X72432331Y-63500143D01*
X72293464Y-63361276D01*
X72293459Y-63361272D01*
X72121557Y-63236379D01*
X71932215Y-63139903D01*
X71730124Y-63074241D01*
X71664000Y-63063768D01*
X71664000Y-64111854D01*
X71597343Y-64073370D01*
X71476535Y-64041000D01*
X71351465Y-64041000D01*
X71230657Y-64073370D01*
X71164000Y-64111854D01*
X71164000Y-63063768D01*
X71163999Y-63063768D01*
X71097875Y-63074241D01*
X70895784Y-63139903D01*
X70706442Y-63236379D01*
X70534540Y-63361272D01*
X70534535Y-63361276D01*
X70384276Y-63511535D01*
X70384272Y-63511540D01*
X70264627Y-63676218D01*
X70209297Y-63718884D01*
X70139684Y-63724863D01*
X70077889Y-63692257D01*
X70063991Y-63676218D01*
X69944109Y-63511214D01*
X69944105Y-63511209D01*
X69793786Y-63360890D01*
X69621820Y-63235951D01*
X69432414Y-63139444D01*
X69432413Y-63139443D01*
X69432412Y-63139443D01*
X69230243Y-63073754D01*
X69230241Y-63073753D01*
X69230240Y-63073753D01*
X69046533Y-63044657D01*
X69020287Y-63040500D01*
X68807713Y-63040500D01*
X68781467Y-63044657D01*
X68597760Y-63073753D01*
X68395585Y-63139444D01*
X68206179Y-63235951D01*
X68034213Y-63360890D01*
X67883894Y-63511209D01*
X67883890Y-63511214D01*
X67764318Y-63675793D01*
X67708989Y-63718459D01*
X67639375Y-63724438D01*
X67577580Y-63691833D01*
X67563682Y-63675793D01*
X67444109Y-63511214D01*
X67444105Y-63511209D01*
X67293786Y-63360890D01*
X67121820Y-63235951D01*
X66932414Y-63139444D01*
X66932413Y-63139443D01*
X66932412Y-63139443D01*
X66730243Y-63073754D01*
X66730241Y-63073753D01*
X66730240Y-63073753D01*
X66546533Y-63044657D01*
X66520287Y-63040500D01*
X66307713Y-63040500D01*
X66281467Y-63044657D01*
X66097760Y-63073753D01*
X65895585Y-63139444D01*
X65706179Y-63235951D01*
X65534213Y-63360890D01*
X65383890Y-63511213D01*
X65258951Y-63683179D01*
X65162444Y-63872585D01*
X65096753Y-64074760D01*
X65063500Y-64284713D01*
X61294499Y-64284713D01*
X61294499Y-63740992D01*
X61292851Y-63724863D01*
X61283999Y-63638203D01*
X61283998Y-63638200D01*
X61283338Y-63636208D01*
X61228814Y-63471666D01*
X61136712Y-63322344D01*
X61012656Y-63198288D01*
X60903642Y-63131048D01*
X60863336Y-63106187D01*
X60863331Y-63106185D01*
X60852162Y-63102484D01*
X60696797Y-63051001D01*
X60696795Y-63051000D01*
X60594010Y-63040500D01*
X59293998Y-63040500D01*
X59293981Y-63040501D01*
X59191203Y-63051000D01*
X59191200Y-63051001D01*
X59024668Y-63106185D01*
X59024663Y-63106187D01*
X58875342Y-63198289D01*
X58751289Y-63322342D01*
X58655551Y-63477559D01*
X58603603Y-63524283D01*
X58534640Y-63535506D01*
X58470558Y-63507662D01*
X58462331Y-63500143D01*
X58323464Y-63361276D01*
X58323459Y-63361272D01*
X58151557Y-63236379D01*
X57962215Y-63139903D01*
X57760124Y-63074241D01*
X57694000Y-63063768D01*
X57694000Y-64111854D01*
X57627343Y-64073370D01*
X57506535Y-64041000D01*
X57381465Y-64041000D01*
X57260657Y-64073370D01*
X57194000Y-64111854D01*
X57194000Y-63063768D01*
X57193999Y-63063768D01*
X57127875Y-63074241D01*
X56925784Y-63139903D01*
X56736442Y-63236379D01*
X56564540Y-63361272D01*
X56564535Y-63361276D01*
X56414276Y-63511535D01*
X56414272Y-63511540D01*
X56294627Y-63676218D01*
X56239297Y-63718884D01*
X56169684Y-63724863D01*
X56107889Y-63692257D01*
X56093991Y-63676218D01*
X55974109Y-63511214D01*
X55974105Y-63511209D01*
X55823786Y-63360890D01*
X55651820Y-63235951D01*
X55462414Y-63139444D01*
X55462413Y-63139443D01*
X55462412Y-63139443D01*
X55260243Y-63073754D01*
X55260241Y-63073753D01*
X55260240Y-63073753D01*
X55076533Y-63044657D01*
X55050287Y-63040500D01*
X54837713Y-63040500D01*
X54811467Y-63044657D01*
X54627760Y-63073753D01*
X54425585Y-63139444D01*
X54236179Y-63235951D01*
X54064213Y-63360890D01*
X53913894Y-63511209D01*
X53913890Y-63511214D01*
X53794318Y-63675793D01*
X53738989Y-63718459D01*
X53669375Y-63724438D01*
X53607580Y-63691833D01*
X53593682Y-63675793D01*
X53474109Y-63511214D01*
X53474105Y-63511209D01*
X53323786Y-63360890D01*
X53151820Y-63235951D01*
X52962414Y-63139444D01*
X52962413Y-63139443D01*
X52962412Y-63139443D01*
X52760243Y-63073754D01*
X52760241Y-63073753D01*
X52760240Y-63073753D01*
X52576533Y-63044657D01*
X52550287Y-63040500D01*
X52337713Y-63040500D01*
X52311467Y-63044657D01*
X52127760Y-63073753D01*
X51925585Y-63139444D01*
X51736179Y-63235951D01*
X51564213Y-63360890D01*
X51413890Y-63511213D01*
X51288951Y-63683179D01*
X51192444Y-63872585D01*
X51126753Y-64074760D01*
X51093500Y-64284713D01*
X49643500Y-64284713D01*
X49643500Y-54593500D01*
X49663185Y-54526461D01*
X49715989Y-54480706D01*
X49767500Y-54469500D01*
X61053994Y-54469500D01*
X61121033Y-54489185D01*
X61141675Y-54505819D01*
X61826181Y-55190325D01*
X61840884Y-55217252D01*
X61857477Y-55243071D01*
X61858368Y-55249271D01*
X61859666Y-55251648D01*
X61862500Y-55278006D01*
X61862500Y-55302241D01*
X61842815Y-55369280D01*
X61826182Y-55389922D01*
X61707889Y-55508215D01*
X61582949Y-55680182D01*
X61578484Y-55688946D01*
X61530509Y-55739742D01*
X61462688Y-55756536D01*
X61396553Y-55733998D01*
X61357516Y-55688946D01*
X61353050Y-55680182D01*
X61228109Y-55508213D01*
X61077786Y-55357890D01*
X60905820Y-55232951D01*
X60716414Y-55136444D01*
X60716413Y-55136443D01*
X60716412Y-55136443D01*
X60514243Y-55070754D01*
X60514241Y-55070753D01*
X60514240Y-55070753D01*
X60352957Y-55045208D01*
X60304287Y-55037500D01*
X60091713Y-55037500D01*
X60043042Y-55045208D01*
X59881760Y-55070753D01*
X59679585Y-55136444D01*
X59490179Y-55232951D01*
X59318213Y-55357890D01*
X59167890Y-55508213D01*
X59042949Y-55680182D01*
X59038484Y-55688946D01*
X58990509Y-55739742D01*
X58922688Y-55756536D01*
X58856553Y-55733998D01*
X58817516Y-55688946D01*
X58813050Y-55680182D01*
X58688109Y-55508213D01*
X58537786Y-55357890D01*
X58365820Y-55232951D01*
X58176414Y-55136444D01*
X58176413Y-55136443D01*
X58176412Y-55136443D01*
X57974243Y-55070754D01*
X57974241Y-55070753D01*
X57974240Y-55070753D01*
X57812957Y-55045208D01*
X57764287Y-55037500D01*
X57551713Y-55037500D01*
X57503042Y-55045208D01*
X57341760Y-55070753D01*
X57139585Y-55136444D01*
X56950179Y-55232951D01*
X56778215Y-55357889D01*
X56664673Y-55471431D01*
X56603350Y-55504915D01*
X56533658Y-55499931D01*
X56477725Y-55458059D01*
X56460810Y-55427082D01*
X56411797Y-55295671D01*
X56411793Y-55295664D01*
X56325547Y-55180455D01*
X56325544Y-55180452D01*
X56210335Y-55094206D01*
X56210328Y-55094202D01*
X56075482Y-55043908D01*
X56075483Y-55043908D01*
X56015883Y-55037501D01*
X56015881Y-55037500D01*
X56015873Y-55037500D01*
X56015864Y-55037500D01*
X54220129Y-55037500D01*
X54220123Y-55037501D01*
X54160516Y-55043908D01*
X54025671Y-55094202D01*
X54025664Y-55094206D01*
X53910455Y-55180452D01*
X53910452Y-55180455D01*
X53824206Y-55295664D01*
X53824202Y-55295671D01*
X53773908Y-55430517D01*
X53767501Y-55490116D01*
X53767500Y-55490135D01*
X53767500Y-57285870D01*
X53767501Y-57285876D01*
X53773908Y-57345483D01*
X53824202Y-57480328D01*
X53824206Y-57480335D01*
X53910452Y-57595544D01*
X53910455Y-57595547D01*
X54025664Y-57681793D01*
X54025671Y-57681797D01*
X54160517Y-57732091D01*
X54160516Y-57732091D01*
X54167444Y-57732835D01*
X54220127Y-57738500D01*
X56015872Y-57738499D01*
X56075483Y-57732091D01*
X56210331Y-57681796D01*
X56325546Y-57595546D01*
X56411796Y-57480331D01*
X56460810Y-57348916D01*
X56502681Y-57292984D01*
X56568145Y-57268566D01*
X56636418Y-57283417D01*
X56664673Y-57304569D01*
X56778213Y-57418109D01*
X56950179Y-57543048D01*
X56950181Y-57543049D01*
X56950184Y-57543051D01*
X57139588Y-57639557D01*
X57341757Y-57705246D01*
X57551713Y-57738500D01*
X57551714Y-57738500D01*
X57764286Y-57738500D01*
X57764287Y-57738500D01*
X57974243Y-57705246D01*
X58176412Y-57639557D01*
X58365816Y-57543051D01*
X58452138Y-57480335D01*
X58537786Y-57418109D01*
X58537788Y-57418106D01*
X58537792Y-57418104D01*
X58688104Y-57267792D01*
X58688106Y-57267788D01*
X58688109Y-57267786D01*
X58797086Y-57117789D01*
X58813051Y-57095816D01*
X58817514Y-57087054D01*
X58865488Y-57036259D01*
X58933308Y-57019463D01*
X58999444Y-57041999D01*
X59038486Y-57087056D01*
X59042951Y-57095820D01*
X59167890Y-57267786D01*
X59318213Y-57418109D01*
X59490179Y-57543048D01*
X59490181Y-57543049D01*
X59490184Y-57543051D01*
X59679588Y-57639557D01*
X59881757Y-57705246D01*
X60091713Y-57738500D01*
X60091714Y-57738500D01*
X60304286Y-57738500D01*
X60304287Y-57738500D01*
X60514243Y-57705246D01*
X60716412Y-57639557D01*
X60905816Y-57543051D01*
X60992138Y-57480335D01*
X61077786Y-57418109D01*
X61077788Y-57418106D01*
X61077792Y-57418104D01*
X61228104Y-57267792D01*
X61228106Y-57267788D01*
X61228109Y-57267786D01*
X61337086Y-57117789D01*
X61353051Y-57095816D01*
X61357514Y-57087054D01*
X61405488Y-57036259D01*
X61473308Y-57019463D01*
X61539444Y-57041999D01*
X61578486Y-57087056D01*
X61582951Y-57095820D01*
X61707890Y-57267786D01*
X61858213Y-57418109D01*
X62030179Y-57543048D01*
X62030181Y-57543049D01*
X62030184Y-57543051D01*
X62219588Y-57639557D01*
X62421757Y-57705246D01*
X62631713Y-57738500D01*
X62631714Y-57738500D01*
X62844286Y-57738500D01*
X62844287Y-57738500D01*
X63054243Y-57705246D01*
X63256412Y-57639557D01*
X63445816Y-57543051D01*
X63532138Y-57480335D01*
X63617786Y-57418109D01*
X63617788Y-57418106D01*
X63617792Y-57418104D01*
X63768104Y-57267792D01*
X63768106Y-57267788D01*
X63768109Y-57267786D01*
X63877086Y-57117789D01*
X63893051Y-57095816D01*
X63897514Y-57087054D01*
X63945488Y-57036259D01*
X64013308Y-57019463D01*
X64079444Y-57041999D01*
X64118486Y-57087056D01*
X64122951Y-57095820D01*
X64247890Y-57267786D01*
X64398213Y-57418109D01*
X64570179Y-57543048D01*
X64570181Y-57543049D01*
X64570184Y-57543051D01*
X64759588Y-57639557D01*
X64961757Y-57705246D01*
X65171713Y-57738500D01*
X65171714Y-57738500D01*
X65384286Y-57738500D01*
X65384287Y-57738500D01*
X65594243Y-57705246D01*
X65796412Y-57639557D01*
X65985816Y-57543051D01*
X66072138Y-57480335D01*
X66157786Y-57418109D01*
X66157788Y-57418106D01*
X66157792Y-57418104D01*
X66308104Y-57267792D01*
X66308106Y-57267788D01*
X66308109Y-57267786D01*
X66417086Y-57117789D01*
X66433051Y-57095816D01*
X66437514Y-57087054D01*
X66485488Y-57036259D01*
X66553308Y-57019463D01*
X66619444Y-57041999D01*
X66658486Y-57087056D01*
X66662951Y-57095820D01*
X66787890Y-57267786D01*
X66938213Y-57418109D01*
X67110179Y-57543048D01*
X67110181Y-57543049D01*
X67110184Y-57543051D01*
X67299588Y-57639557D01*
X67501757Y-57705246D01*
X67711713Y-57738500D01*
X67711714Y-57738500D01*
X67924286Y-57738500D01*
X67924287Y-57738500D01*
X68134243Y-57705246D01*
X68336412Y-57639557D01*
X68525816Y-57543051D01*
X68612138Y-57480335D01*
X68697786Y-57418109D01*
X68697788Y-57418106D01*
X68697792Y-57418104D01*
X68848104Y-57267792D01*
X68848106Y-57267788D01*
X68848109Y-57267786D01*
X68957086Y-57117789D01*
X68973051Y-57095816D01*
X69069557Y-56906412D01*
X69135246Y-56704243D01*
X69168500Y-56494287D01*
X69168500Y-56281713D01*
X69135246Y-56071757D01*
X69069557Y-55869588D01*
X68973051Y-55680184D01*
X68973049Y-55680181D01*
X68973048Y-55680179D01*
X68848109Y-55508213D01*
X68697786Y-55357890D01*
X68525820Y-55232951D01*
X68336414Y-55136444D01*
X68336413Y-55136443D01*
X68336412Y-55136443D01*
X68134243Y-55070754D01*
X68134241Y-55070753D01*
X68134240Y-55070753D01*
X67972957Y-55045208D01*
X67924287Y-55037500D01*
X67711713Y-55037500D01*
X67663042Y-55045208D01*
X67501760Y-55070753D01*
X67299585Y-55136444D01*
X67110179Y-55232951D01*
X66938213Y-55357890D01*
X66787890Y-55508213D01*
X66662949Y-55680182D01*
X66658484Y-55688946D01*
X66610509Y-55739742D01*
X66542688Y-55756536D01*
X66476553Y-55733998D01*
X66437516Y-55688946D01*
X66433050Y-55680182D01*
X66308109Y-55508213D01*
X66157786Y-55357890D01*
X65985820Y-55232951D01*
X65796414Y-55136444D01*
X65796413Y-55136443D01*
X65796412Y-55136443D01*
X65594243Y-55070754D01*
X65594241Y-55070753D01*
X65594240Y-55070753D01*
X65432957Y-55045208D01*
X65384287Y-55037500D01*
X65171713Y-55037500D01*
X65123042Y-55045208D01*
X64961760Y-55070753D01*
X64759585Y-55136444D01*
X64570179Y-55232951D01*
X64398213Y-55357890D01*
X64247890Y-55508213D01*
X64122949Y-55680182D01*
X64118484Y-55688946D01*
X64070509Y-55739742D01*
X64002688Y-55756536D01*
X63936553Y-55733998D01*
X63897516Y-55688946D01*
X63893050Y-55680182D01*
X63768110Y-55508215D01*
X63768106Y-55508211D01*
X63768104Y-55508208D01*
X63649818Y-55389922D01*
X63616334Y-55328599D01*
X63613500Y-55302241D01*
X63613500Y-54777768D01*
X63613499Y-54777766D01*
X63590814Y-54663721D01*
X63579855Y-54608626D01*
X63526869Y-54480706D01*
X63513861Y-54449301D01*
X63513854Y-54449288D01*
X63418046Y-54305902D01*
X63373487Y-54261343D01*
X63296099Y-54183955D01*
X62671926Y-53559782D01*
X62026102Y-52913957D01*
X62026098Y-52913954D01*
X61882711Y-52818145D01*
X61882698Y-52818138D01*
X61723378Y-52752146D01*
X61723366Y-52752143D01*
X61554232Y-52718500D01*
X61554229Y-52718500D01*
X48854229Y-52718500D01*
X46395771Y-52718500D01*
X46395768Y-52718500D01*
X46226633Y-52752143D01*
X46226621Y-52752146D01*
X46067299Y-52818139D01*
X46067297Y-52818140D01*
X45975847Y-52879246D01*
X45975846Y-52879247D01*
X45923898Y-52913956D01*
X45923897Y-52913957D01*
X43800356Y-55037500D01*
X43129901Y-55707955D01*
X43098114Y-55739742D01*
X43007953Y-55829902D01*
X42912145Y-55973288D01*
X42912138Y-55973301D01*
X42846146Y-56132621D01*
X42846143Y-56132633D01*
X42812500Y-56301766D01*
X42812500Y-57975235D01*
X42792815Y-58042274D01*
X42740011Y-58088029D01*
X42731834Y-58091417D01*
X42595669Y-58142203D01*
X42595664Y-58142206D01*
X42480455Y-58228452D01*
X42480452Y-58228455D01*
X42394206Y-58343664D01*
X42394202Y-58343671D01*
X42343908Y-58478517D01*
X42337501Y-58538116D01*
X42337500Y-58538135D01*
X42337500Y-60333870D01*
X42337501Y-60333876D01*
X42343908Y-60393483D01*
X42394202Y-60528328D01*
X42394206Y-60528335D01*
X42480452Y-60643544D01*
X42480455Y-60643547D01*
X42595664Y-60729793D01*
X42595671Y-60729797D01*
X42727082Y-60778810D01*
X42783016Y-60820681D01*
X42807433Y-60886145D01*
X42792582Y-60954418D01*
X42771431Y-60982673D01*
X42657889Y-61096215D01*
X42532951Y-61268179D01*
X42436444Y-61457585D01*
X42370753Y-61659760D01*
X42337500Y-61869713D01*
X42337500Y-62082286D01*
X42362544Y-62240412D01*
X42370754Y-62292243D01*
X42415454Y-62429816D01*
X42436444Y-62494414D01*
X42532951Y-62683820D01*
X42657890Y-62855786D01*
X42808213Y-63006109D01*
X42980182Y-63131050D01*
X42988946Y-63135516D01*
X43039742Y-63183491D01*
X43056536Y-63251312D01*
X43033998Y-63317447D01*
X42988946Y-63356484D01*
X42980182Y-63360949D01*
X42808213Y-63485890D01*
X42657890Y-63636213D01*
X42532951Y-63808179D01*
X42436444Y-63997585D01*
X42370753Y-64199760D01*
X42344061Y-64368286D01*
X42337500Y-64409713D01*
X42337500Y-64622287D01*
X42347534Y-64685644D01*
X42364418Y-64792243D01*
X42370754Y-64832243D01*
X42415454Y-64969816D01*
X42436444Y-65034414D01*
X42532951Y-65223820D01*
X42657890Y-65395786D01*
X42808213Y-65546109D01*
X42980182Y-65671050D01*
X42988946Y-65675516D01*
X43039742Y-65723491D01*
X43056536Y-65791312D01*
X43033998Y-65857447D01*
X42988946Y-65896484D01*
X42980182Y-65900949D01*
X42808213Y-66025890D01*
X42657890Y-66176213D01*
X42532951Y-66348179D01*
X42436444Y-66537585D01*
X42370753Y-66739760D01*
X42337500Y-66949713D01*
X42337500Y-67162286D01*
X42362544Y-67320412D01*
X42370754Y-67372243D01*
X42415454Y-67509816D01*
X42436444Y-67574414D01*
X42532951Y-67763820D01*
X42657890Y-67935786D01*
X42808213Y-68086109D01*
X42980182Y-68211050D01*
X42988946Y-68215516D01*
X43039742Y-68263491D01*
X43056536Y-68331312D01*
X43033998Y-68397447D01*
X42988946Y-68436484D01*
X42980182Y-68440949D01*
X42808213Y-68565890D01*
X42657890Y-68716213D01*
X42532951Y-68888179D01*
X42436444Y-69077585D01*
X42370753Y-69279760D01*
X42337500Y-69489713D01*
X42337500Y-69702286D01*
X42362544Y-69860412D01*
X42370754Y-69912243D01*
X42429870Y-70094184D01*
X42436444Y-70114414D01*
X42532951Y-70303820D01*
X42657890Y-70475786D01*
X42808213Y-70626109D01*
X42980182Y-70751050D01*
X42988946Y-70755516D01*
X43039742Y-70803491D01*
X43056536Y-70871312D01*
X43033998Y-70937447D01*
X42988946Y-70976484D01*
X42980182Y-70980949D01*
X42808213Y-71105890D01*
X42657890Y-71256213D01*
X42532951Y-71428179D01*
X42436444Y-71617585D01*
X42370753Y-71819760D01*
X42337500Y-72029713D01*
X42337500Y-72242286D01*
X42362544Y-72400412D01*
X42370754Y-72452243D01*
X42435656Y-72651991D01*
X42436444Y-72654414D01*
X42532951Y-72843820D01*
X42657890Y-73015786D01*
X42808213Y-73166109D01*
X42980182Y-73291050D01*
X42988946Y-73295516D01*
X43039742Y-73343491D01*
X43056536Y-73411312D01*
X43033998Y-73477447D01*
X42988946Y-73516484D01*
X42980182Y-73520949D01*
X42808213Y-73645890D01*
X42657890Y-73796213D01*
X42532951Y-73968179D01*
X42436444Y-74157585D01*
X42370753Y-74359760D01*
X42337500Y-74569713D01*
X42337500Y-74782286D01*
X42368688Y-74979204D01*
X42370754Y-74992243D01*
X42380845Y-75023301D01*
X42394129Y-75064182D01*
X42396124Y-75134023D01*
X42360044Y-75193856D01*
X42297343Y-75224684D01*
X42276198Y-75226500D01*
X40232499Y-75226500D01*
X40165460Y-75206815D01*
X40119705Y-75154011D01*
X40108499Y-75102500D01*
X40108499Y-75081998D01*
X40108498Y-75081981D01*
X40097999Y-74979203D01*
X40097998Y-74979200D01*
X40042814Y-74812666D01*
X39950712Y-74663344D01*
X39826656Y-74539288D01*
X39677334Y-74447186D01*
X39510797Y-74392001D01*
X39510795Y-74392000D01*
X39408010Y-74381500D01*
X37807998Y-74381500D01*
X37807981Y-74381501D01*
X37705203Y-74392000D01*
X37705200Y-74392001D01*
X37538668Y-74447185D01*
X37538663Y-74447187D01*
X37389342Y-74539289D01*
X37265289Y-74663342D01*
X37173187Y-74812663D01*
X37173185Y-74812668D01*
X37158271Y-74857675D01*
X37118001Y-74979203D01*
X37118001Y-74979204D01*
X37118000Y-74979204D01*
X37107500Y-75081983D01*
X34282500Y-75081983D01*
X34282500Y-61325983D01*
X37132500Y-61325983D01*
X37132500Y-62626001D01*
X37132501Y-62626018D01*
X37143000Y-62728796D01*
X37143001Y-62728799D01*
X37185081Y-62855786D01*
X37198186Y-62895334D01*
X37290288Y-63044656D01*
X37414344Y-63168712D01*
X37509747Y-63227557D01*
X37569120Y-63264178D01*
X37615845Y-63316126D01*
X37627068Y-63385088D01*
X37599224Y-63449171D01*
X37591706Y-63457398D01*
X37452889Y-63596215D01*
X37327951Y-63768179D01*
X37231444Y-63957585D01*
X37165753Y-64159760D01*
X37132500Y-64369713D01*
X37132500Y-64582286D01*
X37158633Y-64747287D01*
X37165754Y-64792243D01*
X37230334Y-64991000D01*
X37231444Y-64994414D01*
X37327951Y-65183820D01*
X37452890Y-65355786D01*
X37603209Y-65506105D01*
X37603214Y-65506109D01*
X37768218Y-65625991D01*
X37810884Y-65681320D01*
X37816863Y-65750934D01*
X37784258Y-65812729D01*
X37768218Y-65826627D01*
X37603540Y-65946272D01*
X37603535Y-65946276D01*
X37453276Y-66096535D01*
X37453272Y-66096540D01*
X37328379Y-66268442D01*
X37231904Y-66457782D01*
X37166242Y-66659870D01*
X37166242Y-66659873D01*
X37155769Y-66726000D01*
X38203854Y-66726000D01*
X38165370Y-66792657D01*
X38133000Y-66913465D01*
X38133000Y-67038535D01*
X38165370Y-67159343D01*
X38203854Y-67226000D01*
X37155769Y-67226000D01*
X37166242Y-67292126D01*
X37166242Y-67292129D01*
X37231904Y-67494217D01*
X37328379Y-67683557D01*
X37453272Y-67855459D01*
X37453276Y-67855464D01*
X37603535Y-68005723D01*
X37603540Y-68005727D01*
X37768218Y-68125372D01*
X37810884Y-68180701D01*
X37816863Y-68250315D01*
X37784258Y-68312110D01*
X37768218Y-68326008D01*
X37603214Y-68445890D01*
X37603209Y-68445894D01*
X37452890Y-68596213D01*
X37327951Y-68768179D01*
X37231444Y-68957585D01*
X37165753Y-69159760D01*
X37152657Y-69242446D01*
X37132500Y-69369713D01*
X37132500Y-69582287D01*
X37165754Y-69792243D01*
X37207982Y-69922208D01*
X37231444Y-69994414D01*
X37327951Y-70183820D01*
X37452890Y-70355786D01*
X37603213Y-70506109D01*
X37775179Y-70631048D01*
X37775181Y-70631049D01*
X37775184Y-70631051D01*
X37964588Y-70727557D01*
X38166757Y-70793246D01*
X38376713Y-70826500D01*
X38376714Y-70826500D01*
X38839286Y-70826500D01*
X38839287Y-70826500D01*
X39049243Y-70793246D01*
X39251412Y-70727557D01*
X39440816Y-70631051D01*
X39485499Y-70598587D01*
X39612786Y-70506109D01*
X39612788Y-70506106D01*
X39612792Y-70506104D01*
X39763104Y-70355792D01*
X39763106Y-70355788D01*
X39763109Y-70355786D01*
X39888048Y-70183820D01*
X39888047Y-70183820D01*
X39888051Y-70183816D01*
X39984557Y-69994412D01*
X40050246Y-69792243D01*
X40083500Y-69582287D01*
X40083500Y-69369713D01*
X40050246Y-69159757D01*
X39984557Y-68957588D01*
X39888051Y-68768184D01*
X39888049Y-68768181D01*
X39888048Y-68768179D01*
X39763109Y-68596213D01*
X39612790Y-68445894D01*
X39612785Y-68445890D01*
X39447781Y-68326008D01*
X39405115Y-68270678D01*
X39399136Y-68201065D01*
X39431741Y-68139270D01*
X39447781Y-68125371D01*
X39612466Y-68005721D01*
X39762723Y-67855464D01*
X39762727Y-67855459D01*
X39887620Y-67683557D01*
X39984095Y-67494217D01*
X40049757Y-67292129D01*
X40049757Y-67292126D01*
X40060231Y-67226000D01*
X39012146Y-67226000D01*
X39050630Y-67159343D01*
X39083000Y-67038535D01*
X39083000Y-66913465D01*
X39050630Y-66792657D01*
X39012146Y-66726000D01*
X40060231Y-66726000D01*
X40049757Y-66659873D01*
X40049757Y-66659870D01*
X39984095Y-66457782D01*
X39887620Y-66268442D01*
X39762727Y-66096540D01*
X39762723Y-66096535D01*
X39612464Y-65946276D01*
X39612459Y-65946272D01*
X39447781Y-65826627D01*
X39405115Y-65771297D01*
X39399136Y-65701684D01*
X39431741Y-65639889D01*
X39447776Y-65625994D01*
X39612792Y-65506104D01*
X39763104Y-65355792D01*
X39763106Y-65355788D01*
X39763109Y-65355786D01*
X39888048Y-65183820D01*
X39888047Y-65183820D01*
X39888051Y-65183816D01*
X39984557Y-64994412D01*
X40050246Y-64792243D01*
X40083500Y-64582287D01*
X40083500Y-64369713D01*
X40050246Y-64159757D01*
X39984557Y-63957588D01*
X39888051Y-63768184D01*
X39888049Y-63768181D01*
X39888048Y-63768179D01*
X39763109Y-63596213D01*
X39624294Y-63457398D01*
X39590809Y-63396075D01*
X39595793Y-63326383D01*
X39637665Y-63270450D01*
X39646879Y-63264178D01*
X39652331Y-63260814D01*
X39652334Y-63260814D01*
X39801656Y-63168712D01*
X39925712Y-63044656D01*
X40017814Y-62895334D01*
X40072999Y-62728797D01*
X40083500Y-62626009D01*
X40083499Y-61325992D01*
X40072999Y-61223203D01*
X40017814Y-61056666D01*
X39925712Y-60907344D01*
X39801656Y-60783288D01*
X39653485Y-60691896D01*
X39652336Y-60691187D01*
X39652331Y-60691185D01*
X39650862Y-60690698D01*
X39485797Y-60636001D01*
X39485795Y-60636000D01*
X39383010Y-60625500D01*
X37832998Y-60625500D01*
X37832981Y-60625501D01*
X37730203Y-60636000D01*
X37730200Y-60636001D01*
X37563668Y-60691185D01*
X37563663Y-60691187D01*
X37414342Y-60783289D01*
X37290289Y-60907342D01*
X37198187Y-61056663D01*
X37198186Y-61056666D01*
X37143001Y-61223203D01*
X37143001Y-61223204D01*
X37143000Y-61223204D01*
X37132500Y-61325983D01*
X34282500Y-61325983D01*
X34282500Y-47983983D01*
X72946500Y-47983983D01*
X72946500Y-49284001D01*
X72946501Y-49284018D01*
X72957000Y-49386796D01*
X72957001Y-49386799D01*
X73012185Y-49553331D01*
X73012187Y-49553336D01*
X73104289Y-49702657D01*
X73228344Y-49826712D01*
X73383120Y-49922178D01*
X73429845Y-49974126D01*
X73441068Y-50043088D01*
X73413224Y-50107171D01*
X73405706Y-50115398D01*
X73266889Y-50254215D01*
X73141951Y-50426179D01*
X73045444Y-50615585D01*
X72979753Y-50817760D01*
X72973985Y-50854179D01*
X72946500Y-51027713D01*
X72946500Y-51240287D01*
X72979754Y-51450243D01*
X72981531Y-51455713D01*
X73045444Y-51652414D01*
X73141951Y-51841820D01*
X73266890Y-52013786D01*
X73417209Y-52164105D01*
X73417214Y-52164109D01*
X73582218Y-52283991D01*
X73624884Y-52339320D01*
X73630863Y-52408934D01*
X73598258Y-52470729D01*
X73582218Y-52484627D01*
X73417540Y-52604272D01*
X73417535Y-52604276D01*
X73267276Y-52754535D01*
X73267272Y-52754540D01*
X73142379Y-52926442D01*
X73045904Y-53115782D01*
X72980242Y-53317870D01*
X72980242Y-53317873D01*
X72969769Y-53384000D01*
X74017854Y-53384000D01*
X73979370Y-53450657D01*
X73947000Y-53571465D01*
X73947000Y-53696535D01*
X73979370Y-53817343D01*
X74017854Y-53884000D01*
X72969769Y-53884000D01*
X72980242Y-53950126D01*
X72980242Y-53950129D01*
X73045904Y-54152217D01*
X73142379Y-54341557D01*
X73267272Y-54513459D01*
X73267276Y-54513464D01*
X73417535Y-54663723D01*
X73417540Y-54663727D01*
X73582218Y-54783372D01*
X73624884Y-54838701D01*
X73630863Y-54908315D01*
X73598258Y-54970110D01*
X73582218Y-54984008D01*
X73417214Y-55103890D01*
X73417209Y-55103894D01*
X73266890Y-55254213D01*
X73141951Y-55426179D01*
X73045444Y-55615585D01*
X72979753Y-55817760D01*
X72946500Y-56027713D01*
X72946500Y-56240286D01*
X72979753Y-56450239D01*
X73045444Y-56652414D01*
X73141951Y-56841820D01*
X73266890Y-57013786D01*
X73417213Y-57164109D01*
X73589179Y-57289048D01*
X73589181Y-57289049D01*
X73589184Y-57289051D01*
X73778588Y-57385557D01*
X73980757Y-57451246D01*
X74190713Y-57484500D01*
X74190714Y-57484500D01*
X74653286Y-57484500D01*
X74653287Y-57484500D01*
X74863243Y-57451246D01*
X75065412Y-57385557D01*
X75254816Y-57289051D01*
X75333401Y-57231956D01*
X75426786Y-57164109D01*
X75426788Y-57164106D01*
X75426792Y-57164104D01*
X75577104Y-57013792D01*
X75577106Y-57013788D01*
X75577109Y-57013786D01*
X75702048Y-56841820D01*
X75702047Y-56841820D01*
X75702051Y-56841816D01*
X75798557Y-56652412D01*
X75864246Y-56450243D01*
X75897500Y-56240287D01*
X75897500Y-56027713D01*
X75864246Y-55817757D01*
X75798557Y-55615588D01*
X75702051Y-55426184D01*
X75702049Y-55426181D01*
X75702048Y-55426179D01*
X75577109Y-55254213D01*
X75426790Y-55103894D01*
X75426785Y-55103890D01*
X75261781Y-54984008D01*
X75219115Y-54928678D01*
X75213136Y-54859065D01*
X75245741Y-54797270D01*
X75261781Y-54783371D01*
X75426466Y-54663721D01*
X75576723Y-54513464D01*
X75576727Y-54513459D01*
X75701620Y-54341557D01*
X75798095Y-54152217D01*
X75863757Y-53950129D01*
X75863757Y-53950126D01*
X75874231Y-53884000D01*
X74826146Y-53884000D01*
X74864630Y-53817343D01*
X74897000Y-53696535D01*
X74897000Y-53571465D01*
X74864630Y-53450657D01*
X74826146Y-53384000D01*
X75874231Y-53384000D01*
X75863757Y-53317873D01*
X75863757Y-53317870D01*
X75798095Y-53115782D01*
X75701620Y-52926442D01*
X75576727Y-52754540D01*
X75576723Y-52754535D01*
X75426464Y-52604276D01*
X75426459Y-52604272D01*
X75261781Y-52484627D01*
X75219115Y-52429297D01*
X75213136Y-52359684D01*
X75245741Y-52297889D01*
X75261776Y-52283994D01*
X75426792Y-52164104D01*
X75577104Y-52013792D01*
X75577106Y-52013788D01*
X75577109Y-52013786D01*
X75702048Y-51841820D01*
X75702047Y-51841820D01*
X75702051Y-51841816D01*
X75798557Y-51652412D01*
X75864246Y-51450243D01*
X75897500Y-51240287D01*
X75897500Y-51027713D01*
X75864246Y-50817757D01*
X75798557Y-50615588D01*
X75702051Y-50426184D01*
X75702049Y-50426181D01*
X75702048Y-50426179D01*
X75577109Y-50254213D01*
X75438294Y-50115398D01*
X75404809Y-50054075D01*
X75409793Y-49984383D01*
X75451665Y-49928450D01*
X75460879Y-49922178D01*
X75466331Y-49918814D01*
X75466334Y-49918814D01*
X75615656Y-49826712D01*
X75739712Y-49702656D01*
X75831814Y-49553334D01*
X75886999Y-49386797D01*
X75897500Y-49284009D01*
X75897499Y-47983992D01*
X75886999Y-47881203D01*
X75831814Y-47714666D01*
X75739712Y-47565344D01*
X75615656Y-47441288D01*
X75466334Y-47349186D01*
X75299797Y-47294001D01*
X75299795Y-47294000D01*
X75197010Y-47283500D01*
X73646998Y-47283500D01*
X73646981Y-47283501D01*
X73544203Y-47294000D01*
X73544200Y-47294001D01*
X73377668Y-47349185D01*
X73377663Y-47349187D01*
X73228342Y-47441289D01*
X73104289Y-47565342D01*
X73012187Y-47714663D01*
X73012185Y-47714668D01*
X72999815Y-47752000D01*
X72957001Y-47881203D01*
X72957001Y-47881204D01*
X72957000Y-47881204D01*
X72946500Y-47983983D01*
X34282500Y-47983983D01*
X34282500Y-45330135D01*
X53767500Y-45330135D01*
X53767500Y-47125870D01*
X53767501Y-47125876D01*
X53773908Y-47185483D01*
X53824202Y-47320328D01*
X53824206Y-47320335D01*
X53910452Y-47435544D01*
X53910455Y-47435547D01*
X54025664Y-47521793D01*
X54025671Y-47521797D01*
X54160517Y-47572091D01*
X54160516Y-47572091D01*
X54167444Y-47572835D01*
X54220127Y-47578500D01*
X56015872Y-47578499D01*
X56075483Y-47572091D01*
X56210331Y-47521796D01*
X56325546Y-47435546D01*
X56411796Y-47320331D01*
X56460810Y-47188916D01*
X56502681Y-47132984D01*
X56568145Y-47108566D01*
X56636418Y-47123417D01*
X56664673Y-47144569D01*
X56778213Y-47258109D01*
X56950179Y-47383048D01*
X56950181Y-47383049D01*
X56950184Y-47383051D01*
X57139588Y-47479557D01*
X57341757Y-47545246D01*
X57551713Y-47578500D01*
X57551714Y-47578500D01*
X57764286Y-47578500D01*
X57764287Y-47578500D01*
X57974243Y-47545246D01*
X58176412Y-47479557D01*
X58365816Y-47383051D01*
X58452138Y-47320335D01*
X58537786Y-47258109D01*
X58537788Y-47258106D01*
X58537792Y-47258104D01*
X58688104Y-47107792D01*
X58688106Y-47107788D01*
X58688109Y-47107786D01*
X58813048Y-46935820D01*
X58813047Y-46935820D01*
X58813051Y-46935816D01*
X58817514Y-46927054D01*
X58865488Y-46876259D01*
X58933308Y-46859463D01*
X58999444Y-46881999D01*
X59038486Y-46927056D01*
X59042951Y-46935820D01*
X59167890Y-47107786D01*
X59318213Y-47258109D01*
X59490179Y-47383048D01*
X59490181Y-47383049D01*
X59490184Y-47383051D01*
X59679588Y-47479557D01*
X59881757Y-47545246D01*
X60091713Y-47578500D01*
X60091714Y-47578500D01*
X60304286Y-47578500D01*
X60304287Y-47578500D01*
X60514243Y-47545246D01*
X60716412Y-47479557D01*
X60905816Y-47383051D01*
X60992138Y-47320335D01*
X61077786Y-47258109D01*
X61077788Y-47258106D01*
X61077792Y-47258104D01*
X61228104Y-47107792D01*
X61228106Y-47107788D01*
X61228109Y-47107786D01*
X61306118Y-47000414D01*
X61353051Y-46935816D01*
X61357793Y-46926508D01*
X61405763Y-46875711D01*
X61473583Y-46858911D01*
X61539719Y-46881445D01*
X61578763Y-46926500D01*
X61583373Y-46935547D01*
X61622728Y-46989716D01*
X62255037Y-46357408D01*
X62272075Y-46420993D01*
X62337901Y-46535007D01*
X62430993Y-46628099D01*
X62545007Y-46693925D01*
X62608590Y-46710962D01*
X61976282Y-47343269D01*
X61976282Y-47343270D01*
X62030449Y-47382624D01*
X62219782Y-47479095D01*
X62421870Y-47544757D01*
X62631754Y-47578000D01*
X62844246Y-47578000D01*
X63054127Y-47544757D01*
X63054130Y-47544757D01*
X63256217Y-47479095D01*
X63445554Y-47382622D01*
X63499716Y-47343270D01*
X63499717Y-47343270D01*
X62867408Y-46710962D01*
X62930993Y-46693925D01*
X63045007Y-46628099D01*
X63138099Y-46535007D01*
X63203925Y-46420993D01*
X63220962Y-46357408D01*
X63853270Y-46989717D01*
X63853270Y-46989716D01*
X63892622Y-46935555D01*
X63897232Y-46926507D01*
X63945205Y-46875709D01*
X64013025Y-46858912D01*
X64079161Y-46881447D01*
X64118204Y-46926504D01*
X64122949Y-46935817D01*
X64247890Y-47107786D01*
X64398213Y-47258109D01*
X64570179Y-47383048D01*
X64570181Y-47383049D01*
X64570184Y-47383051D01*
X64759588Y-47479557D01*
X64961757Y-47545246D01*
X65171713Y-47578500D01*
X65171714Y-47578500D01*
X65384286Y-47578500D01*
X65384287Y-47578500D01*
X65594243Y-47545246D01*
X65796412Y-47479557D01*
X65985816Y-47383051D01*
X66072138Y-47320335D01*
X66157786Y-47258109D01*
X66157788Y-47258106D01*
X66157792Y-47258104D01*
X66308104Y-47107792D01*
X66308106Y-47107788D01*
X66308109Y-47107786D01*
X66433048Y-46935820D01*
X66433047Y-46935820D01*
X66433051Y-46935816D01*
X66437514Y-46927054D01*
X66485488Y-46876259D01*
X66553308Y-46859463D01*
X66619444Y-46881999D01*
X66658486Y-46927056D01*
X66662951Y-46935820D01*
X66787890Y-47107786D01*
X66938213Y-47258109D01*
X67110179Y-47383048D01*
X67110181Y-47383049D01*
X67110184Y-47383051D01*
X67299588Y-47479557D01*
X67501757Y-47545246D01*
X67711713Y-47578500D01*
X67711714Y-47578500D01*
X67924286Y-47578500D01*
X67924287Y-47578500D01*
X68134243Y-47545246D01*
X68336412Y-47479557D01*
X68525816Y-47383051D01*
X68612138Y-47320335D01*
X68697786Y-47258109D01*
X68697788Y-47258106D01*
X68697792Y-47258104D01*
X68848104Y-47107792D01*
X68848106Y-47107788D01*
X68848109Y-47107786D01*
X68973048Y-46935820D01*
X68973047Y-46935820D01*
X68973051Y-46935816D01*
X69069557Y-46746412D01*
X69135246Y-46544243D01*
X69168500Y-46334287D01*
X69168500Y-46121713D01*
X69135246Y-45911757D01*
X69069557Y-45709588D01*
X68973051Y-45520184D01*
X68973049Y-45520181D01*
X68973048Y-45520179D01*
X68848109Y-45348213D01*
X68697786Y-45197890D01*
X68525820Y-45072951D01*
X68336414Y-44976444D01*
X68336413Y-44976443D01*
X68336412Y-44976443D01*
X68134243Y-44910754D01*
X68134241Y-44910753D01*
X68134240Y-44910753D01*
X67972957Y-44885208D01*
X67924287Y-44877500D01*
X67711713Y-44877500D01*
X67663042Y-44885208D01*
X67501760Y-44910753D01*
X67299585Y-44976444D01*
X67110179Y-45072951D01*
X66938213Y-45197890D01*
X66787890Y-45348213D01*
X66662949Y-45520182D01*
X66658484Y-45528946D01*
X66610509Y-45579742D01*
X66542688Y-45596536D01*
X66476553Y-45573998D01*
X66437516Y-45528946D01*
X66433050Y-45520182D01*
X66308109Y-45348213D01*
X66157786Y-45197890D01*
X65985820Y-45072951D01*
X65796414Y-44976444D01*
X65796413Y-44976443D01*
X65796412Y-44976443D01*
X65594243Y-44910754D01*
X65594241Y-44910753D01*
X65594240Y-44910753D01*
X65432957Y-44885208D01*
X65384287Y-44877500D01*
X65171713Y-44877500D01*
X65123042Y-44885208D01*
X64961760Y-44910753D01*
X64759585Y-44976444D01*
X64570179Y-45072951D01*
X64398213Y-45197890D01*
X64247890Y-45348213D01*
X64122949Y-45520182D01*
X64118202Y-45529499D01*
X64070227Y-45580293D01*
X64002405Y-45597087D01*
X63936271Y-45574548D01*
X63897234Y-45529495D01*
X63892626Y-45520452D01*
X63853270Y-45466282D01*
X63853269Y-45466282D01*
X63220962Y-46098590D01*
X63203925Y-46035007D01*
X63138099Y-45920993D01*
X63045007Y-45827901D01*
X62930993Y-45762075D01*
X62867409Y-45745037D01*
X63499716Y-45112728D01*
X63445550Y-45073375D01*
X63256217Y-44976904D01*
X63054129Y-44911242D01*
X62844246Y-44878000D01*
X62631754Y-44878000D01*
X62421872Y-44911242D01*
X62421869Y-44911242D01*
X62219782Y-44976904D01*
X62030439Y-45073380D01*
X61976282Y-45112727D01*
X61976282Y-45112728D01*
X62608591Y-45745037D01*
X62545007Y-45762075D01*
X62430993Y-45827901D01*
X62337901Y-45920993D01*
X62272075Y-46035007D01*
X62255037Y-46098591D01*
X61622728Y-45466282D01*
X61622727Y-45466282D01*
X61583380Y-45520440D01*
X61583376Y-45520446D01*
X61578760Y-45529505D01*
X61530781Y-45580297D01*
X61462959Y-45597087D01*
X61396826Y-45574543D01*
X61357794Y-45529493D01*
X61353051Y-45520184D01*
X61353049Y-45520181D01*
X61353048Y-45520179D01*
X61228109Y-45348213D01*
X61077786Y-45197890D01*
X60905820Y-45072951D01*
X60716414Y-44976444D01*
X60716413Y-44976443D01*
X60716412Y-44976443D01*
X60514243Y-44910754D01*
X60514241Y-44910753D01*
X60514240Y-44910753D01*
X60352957Y-44885208D01*
X60304287Y-44877500D01*
X60091713Y-44877500D01*
X60043042Y-44885208D01*
X59881760Y-44910753D01*
X59679585Y-44976444D01*
X59490179Y-45072951D01*
X59318213Y-45197890D01*
X59167890Y-45348213D01*
X59042949Y-45520182D01*
X59038484Y-45528946D01*
X58990509Y-45579742D01*
X58922688Y-45596536D01*
X58856553Y-45573998D01*
X58817516Y-45528946D01*
X58813050Y-45520182D01*
X58688109Y-45348213D01*
X58537786Y-45197890D01*
X58365820Y-45072951D01*
X58176414Y-44976444D01*
X58176413Y-44976443D01*
X58176412Y-44976443D01*
X57974243Y-44910754D01*
X57974241Y-44910753D01*
X57974240Y-44910753D01*
X57812957Y-44885208D01*
X57764287Y-44877500D01*
X57551713Y-44877500D01*
X57503042Y-44885208D01*
X57341760Y-44910753D01*
X57139585Y-44976444D01*
X56950179Y-45072951D01*
X56778215Y-45197889D01*
X56664673Y-45311431D01*
X56603350Y-45344915D01*
X56533658Y-45339931D01*
X56477725Y-45298059D01*
X56460810Y-45267082D01*
X56411797Y-45135671D01*
X56411793Y-45135664D01*
X56325547Y-45020455D01*
X56325544Y-45020452D01*
X56210335Y-44934206D01*
X56210328Y-44934202D01*
X56075482Y-44883908D01*
X56075483Y-44883908D01*
X56015883Y-44877501D01*
X56015881Y-44877500D01*
X56015873Y-44877500D01*
X56015864Y-44877500D01*
X54220129Y-44877500D01*
X54220123Y-44877501D01*
X54160516Y-44883908D01*
X54025671Y-44934202D01*
X54025664Y-44934206D01*
X53910455Y-45020452D01*
X53910452Y-45020455D01*
X53824206Y-45135664D01*
X53824202Y-45135671D01*
X53773908Y-45270517D01*
X53767501Y-45330116D01*
X53767500Y-45330135D01*
X34282500Y-45330135D01*
X34282500Y-40916713D01*
X50719500Y-40916713D01*
X50719500Y-41379286D01*
X50739931Y-41508286D01*
X50752754Y-41589243D01*
X50814912Y-41780546D01*
X50818444Y-41791414D01*
X50914951Y-41980820D01*
X51039890Y-42152786D01*
X51190213Y-42303109D01*
X51362179Y-42428048D01*
X51362181Y-42428049D01*
X51362184Y-42428051D01*
X51551588Y-42524557D01*
X51753757Y-42590246D01*
X51963713Y-42623500D01*
X51963714Y-42623500D01*
X52176286Y-42623500D01*
X52176287Y-42623500D01*
X52386243Y-42590246D01*
X52588412Y-42524557D01*
X52777816Y-42428051D01*
X52799789Y-42412086D01*
X52949786Y-42303109D01*
X52949788Y-42303106D01*
X52949792Y-42303104D01*
X53100104Y-42152792D01*
X53219683Y-41988204D01*
X53275011Y-41945540D01*
X53344624Y-41939561D01*
X53406420Y-41972166D01*
X53420313Y-41988199D01*
X53508675Y-42109820D01*
X53539896Y-42152792D01*
X53690213Y-42303109D01*
X53862179Y-42428048D01*
X53862181Y-42428049D01*
X53862184Y-42428051D01*
X54051588Y-42524557D01*
X54253757Y-42590246D01*
X54463713Y-42623500D01*
X54463714Y-42623500D01*
X54676286Y-42623500D01*
X54676287Y-42623500D01*
X54886243Y-42590246D01*
X55088412Y-42524557D01*
X55277816Y-42428051D01*
X55299789Y-42412086D01*
X55449786Y-42303109D01*
X55449788Y-42303106D01*
X55449792Y-42303104D01*
X55600104Y-42152792D01*
X55719991Y-41987779D01*
X55775320Y-41945115D01*
X55844933Y-41939136D01*
X55906729Y-41971741D01*
X55920627Y-41987781D01*
X56040272Y-42152459D01*
X56040276Y-42152464D01*
X56190535Y-42302723D01*
X56190540Y-42302727D01*
X56362442Y-42427620D01*
X56551782Y-42524095D01*
X56753871Y-42589757D01*
X56820000Y-42600231D01*
X56820000Y-41552145D01*
X56886657Y-41590630D01*
X57007465Y-41623000D01*
X57132535Y-41623000D01*
X57253343Y-41590630D01*
X57320000Y-41552145D01*
X57320000Y-42600230D01*
X57386126Y-42589757D01*
X57386129Y-42589757D01*
X57588217Y-42524095D01*
X57777557Y-42427620D01*
X57949458Y-42302728D01*
X58088330Y-42163856D01*
X58149653Y-42130371D01*
X58219345Y-42135355D01*
X58275279Y-42177226D01*
X58281551Y-42186440D01*
X58285185Y-42192331D01*
X58285186Y-42192334D01*
X58377288Y-42341656D01*
X58501344Y-42465712D01*
X58650666Y-42557814D01*
X58817203Y-42612999D01*
X58919991Y-42623500D01*
X60220008Y-42623499D01*
X60322797Y-42612999D01*
X60489334Y-42557814D01*
X60638656Y-42465712D01*
X60762712Y-42341656D01*
X60854814Y-42192334D01*
X60909999Y-42025797D01*
X60920500Y-41923009D01*
X60920499Y-40916713D01*
X64555500Y-40916713D01*
X64555500Y-41379286D01*
X64575931Y-41508286D01*
X64588754Y-41589243D01*
X64650912Y-41780546D01*
X64654444Y-41791414D01*
X64750951Y-41980820D01*
X64875890Y-42152786D01*
X65026213Y-42303109D01*
X65198179Y-42428048D01*
X65198181Y-42428049D01*
X65198184Y-42428051D01*
X65387588Y-42524557D01*
X65589757Y-42590246D01*
X65799713Y-42623500D01*
X65799714Y-42623500D01*
X66012286Y-42623500D01*
X66012287Y-42623500D01*
X66222243Y-42590246D01*
X66424412Y-42524557D01*
X66613816Y-42428051D01*
X66635789Y-42412086D01*
X66785786Y-42303109D01*
X66785788Y-42303106D01*
X66785792Y-42303104D01*
X66936104Y-42152792D01*
X67055683Y-41988204D01*
X67111011Y-41945540D01*
X67180624Y-41939561D01*
X67242420Y-41972166D01*
X67256313Y-41988199D01*
X67344675Y-42109820D01*
X67375896Y-42152792D01*
X67526213Y-42303109D01*
X67698179Y-42428048D01*
X67698181Y-42428049D01*
X67698184Y-42428051D01*
X67887588Y-42524557D01*
X68089757Y-42590246D01*
X68299713Y-42623500D01*
X68299714Y-42623500D01*
X68512286Y-42623500D01*
X68512287Y-42623500D01*
X68722243Y-42590246D01*
X68924412Y-42524557D01*
X69113816Y-42428051D01*
X69135789Y-42412086D01*
X69285786Y-42303109D01*
X69285788Y-42303106D01*
X69285792Y-42303104D01*
X69436104Y-42152792D01*
X69555991Y-41987779D01*
X69611320Y-41945115D01*
X69680933Y-41939136D01*
X69742729Y-41971741D01*
X69756627Y-41987781D01*
X69876272Y-42152459D01*
X69876276Y-42152464D01*
X70026535Y-42302723D01*
X70026540Y-42302727D01*
X70198442Y-42427620D01*
X70387782Y-42524095D01*
X70589871Y-42589757D01*
X70656000Y-42600231D01*
X70656000Y-41552145D01*
X70722657Y-41590630D01*
X70843465Y-41623000D01*
X70968535Y-41623000D01*
X71089343Y-41590630D01*
X71156000Y-41552145D01*
X71156000Y-42600230D01*
X71222126Y-42589757D01*
X71222129Y-42589757D01*
X71424217Y-42524095D01*
X71613557Y-42427620D01*
X71785458Y-42302728D01*
X71924330Y-42163856D01*
X71985653Y-42130371D01*
X72055345Y-42135355D01*
X72111279Y-42177226D01*
X72117551Y-42186440D01*
X72121185Y-42192331D01*
X72121186Y-42192334D01*
X72213288Y-42341656D01*
X72337344Y-42465712D01*
X72486666Y-42557814D01*
X72653203Y-42612999D01*
X72755991Y-42623500D01*
X74056008Y-42623499D01*
X74158797Y-42612999D01*
X74325334Y-42557814D01*
X74474656Y-42465712D01*
X74598712Y-42341656D01*
X74690814Y-42192334D01*
X74745999Y-42025797D01*
X74756500Y-41923009D01*
X74756499Y-40372992D01*
X74754851Y-40356863D01*
X74745999Y-40270203D01*
X74745998Y-40270200D01*
X74738293Y-40246949D01*
X74690814Y-40103666D01*
X74598712Y-39954344D01*
X74474656Y-39830288D01*
X74360499Y-39759876D01*
X74325336Y-39738187D01*
X74325331Y-39738185D01*
X74323862Y-39737698D01*
X74158797Y-39683001D01*
X74158795Y-39683000D01*
X74056010Y-39672500D01*
X72755998Y-39672500D01*
X72755981Y-39672501D01*
X72653203Y-39683000D01*
X72653200Y-39683001D01*
X72486668Y-39738185D01*
X72486663Y-39738187D01*
X72337342Y-39830289D01*
X72213289Y-39954342D01*
X72117551Y-40109559D01*
X72065603Y-40156283D01*
X71996640Y-40167506D01*
X71932558Y-40139662D01*
X71924331Y-40132143D01*
X71785464Y-39993276D01*
X71785459Y-39993272D01*
X71613557Y-39868379D01*
X71424215Y-39771903D01*
X71222124Y-39706241D01*
X71156000Y-39695768D01*
X71156000Y-40743854D01*
X71089343Y-40705370D01*
X70968535Y-40673000D01*
X70843465Y-40673000D01*
X70722657Y-40705370D01*
X70656000Y-40743854D01*
X70656000Y-39695768D01*
X70655999Y-39695768D01*
X70589875Y-39706241D01*
X70387784Y-39771903D01*
X70198442Y-39868379D01*
X70026540Y-39993272D01*
X70026535Y-39993276D01*
X69876276Y-40143535D01*
X69876272Y-40143540D01*
X69756627Y-40308218D01*
X69701297Y-40350884D01*
X69631684Y-40356863D01*
X69569889Y-40324257D01*
X69555991Y-40308218D01*
X69436109Y-40143214D01*
X69436105Y-40143209D01*
X69285786Y-39992890D01*
X69113820Y-39867951D01*
X68924414Y-39771444D01*
X68924413Y-39771443D01*
X68924412Y-39771443D01*
X68722243Y-39705754D01*
X68722241Y-39705753D01*
X68722240Y-39705753D01*
X68560957Y-39680208D01*
X68512287Y-39672500D01*
X68299713Y-39672500D01*
X68251042Y-39680208D01*
X68089760Y-39705753D01*
X67887585Y-39771444D01*
X67698179Y-39867951D01*
X67526213Y-39992890D01*
X67375894Y-40143209D01*
X67375890Y-40143214D01*
X67256318Y-40307793D01*
X67200989Y-40350459D01*
X67131375Y-40356438D01*
X67069580Y-40323833D01*
X67055682Y-40307793D01*
X66936109Y-40143214D01*
X66936105Y-40143209D01*
X66785786Y-39992890D01*
X66613820Y-39867951D01*
X66424414Y-39771444D01*
X66424413Y-39771443D01*
X66424412Y-39771443D01*
X66222243Y-39705754D01*
X66222241Y-39705753D01*
X66222240Y-39705753D01*
X66060957Y-39680208D01*
X66012287Y-39672500D01*
X65799713Y-39672500D01*
X65751042Y-39680208D01*
X65589760Y-39705753D01*
X65387585Y-39771444D01*
X65198179Y-39867951D01*
X65026213Y-39992890D01*
X64875890Y-40143213D01*
X64750951Y-40315179D01*
X64654444Y-40504585D01*
X64588753Y-40706760D01*
X64555500Y-40916713D01*
X60920499Y-40916713D01*
X60920499Y-40372992D01*
X60918851Y-40356863D01*
X60909999Y-40270203D01*
X60909998Y-40270200D01*
X60902293Y-40246949D01*
X60854814Y-40103666D01*
X60762712Y-39954344D01*
X60638656Y-39830288D01*
X60524499Y-39759876D01*
X60489336Y-39738187D01*
X60489331Y-39738185D01*
X60487862Y-39737698D01*
X60322797Y-39683001D01*
X60322795Y-39683000D01*
X60220010Y-39672500D01*
X58919998Y-39672500D01*
X58919981Y-39672501D01*
X58817203Y-39683000D01*
X58817200Y-39683001D01*
X58650668Y-39738185D01*
X58650663Y-39738187D01*
X58501342Y-39830289D01*
X58377289Y-39954342D01*
X58281551Y-40109559D01*
X58229603Y-40156283D01*
X58160640Y-40167506D01*
X58096558Y-40139662D01*
X58088331Y-40132143D01*
X57949464Y-39993276D01*
X57949459Y-39993272D01*
X57777557Y-39868379D01*
X57588215Y-39771903D01*
X57386124Y-39706241D01*
X57320000Y-39695768D01*
X57320000Y-40743854D01*
X57253343Y-40705370D01*
X57132535Y-40673000D01*
X57007465Y-40673000D01*
X56886657Y-40705370D01*
X56820000Y-40743854D01*
X56820000Y-39695768D01*
X56819999Y-39695768D01*
X56753875Y-39706241D01*
X56551784Y-39771903D01*
X56362442Y-39868379D01*
X56190540Y-39993272D01*
X56190535Y-39993276D01*
X56040276Y-40143535D01*
X56040272Y-40143540D01*
X55920627Y-40308218D01*
X55865297Y-40350884D01*
X55795684Y-40356863D01*
X55733889Y-40324257D01*
X55719991Y-40308218D01*
X55600109Y-40143214D01*
X55600105Y-40143209D01*
X55449786Y-39992890D01*
X55277820Y-39867951D01*
X55088414Y-39771444D01*
X55088413Y-39771443D01*
X55088412Y-39771443D01*
X54886243Y-39705754D01*
X54886241Y-39705753D01*
X54886240Y-39705753D01*
X54724957Y-39680208D01*
X54676287Y-39672500D01*
X54463713Y-39672500D01*
X54415042Y-39680208D01*
X54253760Y-39705753D01*
X54051585Y-39771444D01*
X53862179Y-39867951D01*
X53690213Y-39992890D01*
X53539894Y-40143209D01*
X53539890Y-40143214D01*
X53420318Y-40307793D01*
X53364989Y-40350459D01*
X53295375Y-40356438D01*
X53233580Y-40323833D01*
X53219682Y-40307793D01*
X53100109Y-40143214D01*
X53100105Y-40143209D01*
X52949786Y-39992890D01*
X52777820Y-39867951D01*
X52588414Y-39771444D01*
X52588413Y-39771443D01*
X52588412Y-39771443D01*
X52386243Y-39705754D01*
X52386241Y-39705753D01*
X52386240Y-39705753D01*
X52224957Y-39680208D01*
X52176287Y-39672500D01*
X51963713Y-39672500D01*
X51915042Y-39680208D01*
X51753760Y-39705753D01*
X51551585Y-39771444D01*
X51362179Y-39867951D01*
X51190213Y-39992890D01*
X51039890Y-40143213D01*
X50914951Y-40315179D01*
X50818444Y-40504585D01*
X50752753Y-40706760D01*
X50719500Y-40916713D01*
X34282500Y-40916713D01*
X34282500Y-37964135D01*
X78659500Y-37964135D01*
X78659500Y-39759870D01*
X78659501Y-39759876D01*
X78665908Y-39819483D01*
X78716202Y-39954328D01*
X78716206Y-39954335D01*
X78802452Y-40069544D01*
X78802455Y-40069547D01*
X78917664Y-40155793D01*
X78917671Y-40155797D01*
X79049082Y-40204810D01*
X79105016Y-40246681D01*
X79129433Y-40312145D01*
X79114582Y-40380418D01*
X79093431Y-40408673D01*
X78979889Y-40522215D01*
X78854951Y-40694179D01*
X78758444Y-40883585D01*
X78692753Y-41085760D01*
X78686993Y-41122128D01*
X78659500Y-41295713D01*
X78659500Y-41508287D01*
X78692754Y-41718243D01*
X78712999Y-41780551D01*
X78758444Y-41920414D01*
X78854951Y-42109820D01*
X78979890Y-42281786D01*
X79130213Y-42432109D01*
X79302182Y-42557050D01*
X79310946Y-42561516D01*
X79361742Y-42609491D01*
X79378536Y-42677312D01*
X79355998Y-42743447D01*
X79310946Y-42782484D01*
X79302182Y-42786949D01*
X79130213Y-42911890D01*
X78979890Y-43062213D01*
X78854951Y-43234179D01*
X78758444Y-43423585D01*
X78692753Y-43625760D01*
X78659500Y-43835713D01*
X78659500Y-44048286D01*
X78687613Y-44225789D01*
X78692754Y-44258243D01*
X78730280Y-44373737D01*
X78758444Y-44460414D01*
X78854951Y-44649820D01*
X78979890Y-44821786D01*
X79130213Y-44972109D01*
X79302182Y-45097050D01*
X79310946Y-45101516D01*
X79361742Y-45149491D01*
X79378536Y-45217312D01*
X79355998Y-45283447D01*
X79310946Y-45322484D01*
X79302182Y-45326949D01*
X79130213Y-45451890D01*
X78979890Y-45602213D01*
X78854951Y-45774179D01*
X78758444Y-45963585D01*
X78692753Y-46165760D01*
X78659500Y-46375713D01*
X78659500Y-46588286D01*
X78692735Y-46798127D01*
X78692754Y-46798243D01*
X78737454Y-46935816D01*
X78758444Y-47000414D01*
X78854951Y-47189820D01*
X78979890Y-47361786D01*
X79130213Y-47512109D01*
X79302182Y-47637050D01*
X79310946Y-47641516D01*
X79361742Y-47689491D01*
X79378536Y-47757312D01*
X79355998Y-47823447D01*
X79310946Y-47862484D01*
X79302182Y-47866949D01*
X79130213Y-47991890D01*
X78979890Y-48142213D01*
X78854951Y-48314179D01*
X78758444Y-48503585D01*
X78692753Y-48705760D01*
X78659500Y-48915713D01*
X78659500Y-49128286D01*
X78684165Y-49284018D01*
X78692754Y-49338243D01*
X78708530Y-49386797D01*
X78758444Y-49540414D01*
X78854951Y-49729820D01*
X78979890Y-49901786D01*
X79130213Y-50052109D01*
X79302182Y-50177050D01*
X79310946Y-50181516D01*
X79361742Y-50229491D01*
X79378536Y-50297312D01*
X79355998Y-50363447D01*
X79310946Y-50402484D01*
X79302182Y-50406949D01*
X79130213Y-50531890D01*
X78979890Y-50682213D01*
X78854951Y-50854179D01*
X78758444Y-51043585D01*
X78692753Y-51245760D01*
X78690219Y-51261760D01*
X78659500Y-51455713D01*
X78659500Y-51668287D01*
X78692754Y-51878243D01*
X78697951Y-51894239D01*
X78758444Y-52080414D01*
X78854951Y-52269820D01*
X78979890Y-52441786D01*
X79130213Y-52592109D01*
X79302182Y-52717050D01*
X79310946Y-52721516D01*
X79361742Y-52769491D01*
X79378536Y-52837312D01*
X79355998Y-52903447D01*
X79310946Y-52942484D01*
X79302182Y-52946949D01*
X79130213Y-53071890D01*
X78979890Y-53222213D01*
X78854951Y-53394179D01*
X78758444Y-53583585D01*
X78692753Y-53785760D01*
X78659500Y-53995713D01*
X78659500Y-54208286D01*
X78688934Y-54394129D01*
X78692754Y-54418243D01*
X78754613Y-54608626D01*
X78758444Y-54620414D01*
X78854951Y-54809820D01*
X78979890Y-54981786D01*
X79130213Y-55132109D01*
X79302182Y-55257050D01*
X79310946Y-55261516D01*
X79361742Y-55309491D01*
X79378536Y-55377312D01*
X79355998Y-55443447D01*
X79310946Y-55482484D01*
X79302182Y-55486949D01*
X79130213Y-55611890D01*
X78979890Y-55762213D01*
X78854951Y-55934179D01*
X78758444Y-56123585D01*
X78692753Y-56325760D01*
X78659500Y-56535713D01*
X78659500Y-56748286D01*
X78684544Y-56906412D01*
X78692754Y-56958243D01*
X78737454Y-57095816D01*
X78758444Y-57160414D01*
X78854951Y-57349820D01*
X78979890Y-57521786D01*
X79130213Y-57672109D01*
X79302182Y-57797050D01*
X79310946Y-57801516D01*
X79361742Y-57849491D01*
X79378536Y-57917312D01*
X79355998Y-57983447D01*
X79310946Y-58022484D01*
X79302182Y-58026949D01*
X79130213Y-58151890D01*
X78979890Y-58302213D01*
X78854951Y-58474179D01*
X78758444Y-58663585D01*
X78692753Y-58865760D01*
X78659500Y-59075713D01*
X78659500Y-59288286D01*
X78682895Y-59436000D01*
X78692754Y-59498243D01*
X78735237Y-59628993D01*
X78758444Y-59700414D01*
X78854951Y-59889820D01*
X78979890Y-60061786D01*
X79130213Y-60212109D01*
X79302182Y-60337050D01*
X79310946Y-60341516D01*
X79361742Y-60389491D01*
X79378536Y-60457312D01*
X79355998Y-60523447D01*
X79310946Y-60562484D01*
X79302182Y-60566949D01*
X79130213Y-60691890D01*
X78979890Y-60842213D01*
X78854951Y-61014179D01*
X78758444Y-61203585D01*
X78692753Y-61405760D01*
X78659500Y-61615713D01*
X78659500Y-61828286D01*
X78692753Y-62038239D01*
X78758444Y-62240414D01*
X78854951Y-62429820D01*
X78979890Y-62601786D01*
X79130213Y-62752109D01*
X79302182Y-62877050D01*
X79310946Y-62881516D01*
X79361742Y-62929491D01*
X79378536Y-62997312D01*
X79355998Y-63063447D01*
X79310946Y-63102484D01*
X79302182Y-63106949D01*
X79130213Y-63231890D01*
X78979890Y-63382213D01*
X78854951Y-63554179D01*
X78758444Y-63743585D01*
X78692753Y-63945760D01*
X78659500Y-64155713D01*
X78659500Y-64368286D01*
X78692753Y-64578239D01*
X78758444Y-64780414D01*
X78854951Y-64969820D01*
X78979890Y-65141786D01*
X79130213Y-65292109D01*
X79302182Y-65417050D01*
X79310946Y-65421516D01*
X79361742Y-65469491D01*
X79378536Y-65537312D01*
X79355998Y-65603447D01*
X79310946Y-65642484D01*
X79302182Y-65646949D01*
X79130213Y-65771890D01*
X78979890Y-65922213D01*
X78854951Y-66094179D01*
X78758444Y-66283585D01*
X78692753Y-66485760D01*
X78659500Y-66695713D01*
X78659500Y-66908286D01*
X78682508Y-67053557D01*
X78692754Y-67118243D01*
X78749253Y-67292129D01*
X78758444Y-67320414D01*
X78854951Y-67509820D01*
X78979890Y-67681786D01*
X79130213Y-67832109D01*
X79302182Y-67957050D01*
X79310946Y-67961516D01*
X79361742Y-68009491D01*
X79378536Y-68077312D01*
X79355998Y-68143447D01*
X79310946Y-68182484D01*
X79302182Y-68186949D01*
X79130213Y-68311890D01*
X78979890Y-68462213D01*
X78854951Y-68634179D01*
X78758444Y-68823585D01*
X78692753Y-69025760D01*
X78671530Y-69159757D01*
X78659500Y-69235713D01*
X78659500Y-69448287D01*
X78659989Y-69451372D01*
X78682895Y-69596000D01*
X78692754Y-69658243D01*
X78736293Y-69792243D01*
X78758444Y-69860414D01*
X78854951Y-70049820D01*
X78979890Y-70221786D01*
X79130213Y-70372109D01*
X79302182Y-70497050D01*
X79310946Y-70501516D01*
X79361742Y-70549491D01*
X79378536Y-70617312D01*
X79355998Y-70683447D01*
X79310946Y-70722484D01*
X79302182Y-70726949D01*
X79130213Y-70851890D01*
X78979890Y-71002213D01*
X78854951Y-71174179D01*
X78758444Y-71363585D01*
X78692753Y-71565760D01*
X78668008Y-71721994D01*
X78659500Y-71775713D01*
X78659500Y-71988287D01*
X78692754Y-72198243D01*
X78755506Y-72391374D01*
X78758444Y-72400414D01*
X78854951Y-72589820D01*
X78979890Y-72761786D01*
X79130213Y-72912109D01*
X79302182Y-73037050D01*
X79310946Y-73041516D01*
X79361742Y-73089491D01*
X79378536Y-73157312D01*
X79355998Y-73223447D01*
X79310946Y-73262484D01*
X79302182Y-73266949D01*
X79130213Y-73391890D01*
X78979890Y-73542213D01*
X78854951Y-73714179D01*
X78758444Y-73903585D01*
X78692753Y-74105760D01*
X78673686Y-74226145D01*
X78659500Y-74315713D01*
X78659500Y-74528287D01*
X78661243Y-74539289D01*
X78692248Y-74735052D01*
X78692754Y-74738243D01*
X78741492Y-74888243D01*
X78758444Y-74940414D01*
X78854951Y-75129820D01*
X78979890Y-75301786D01*
X79130213Y-75452109D01*
X79302179Y-75577048D01*
X79302181Y-75577049D01*
X79302184Y-75577051D01*
X79491588Y-75673557D01*
X79693757Y-75739246D01*
X79903713Y-75772500D01*
X79903714Y-75772500D01*
X80116286Y-75772500D01*
X80116287Y-75772500D01*
X80326243Y-75739246D01*
X80528412Y-75673557D01*
X80717816Y-75577051D01*
X80747077Y-75555792D01*
X80889786Y-75452109D01*
X80889788Y-75452106D01*
X80889792Y-75452104D01*
X81040104Y-75301792D01*
X81040106Y-75301788D01*
X81040109Y-75301786D01*
X81165048Y-75129820D01*
X81165047Y-75129820D01*
X81165051Y-75129816D01*
X81261557Y-74940412D01*
X81327246Y-74738243D01*
X81360500Y-74528287D01*
X81360500Y-74315713D01*
X81327246Y-74105757D01*
X81261557Y-73903588D01*
X81165051Y-73714184D01*
X81165049Y-73714181D01*
X81165048Y-73714179D01*
X81040109Y-73542213D01*
X80889786Y-73391890D01*
X80717820Y-73266951D01*
X80717115Y-73266591D01*
X80709054Y-73262485D01*
X80658259Y-73214512D01*
X80641463Y-73146692D01*
X80663999Y-73080556D01*
X80709054Y-73041515D01*
X80717816Y-73037051D01*
X80747085Y-73015786D01*
X80889786Y-72912109D01*
X80889788Y-72912106D01*
X80889792Y-72912104D01*
X81040104Y-72761792D01*
X81040106Y-72761788D01*
X81040109Y-72761786D01*
X81165048Y-72589820D01*
X81165047Y-72589820D01*
X81165051Y-72589816D01*
X81261557Y-72400412D01*
X81327246Y-72198243D01*
X81360500Y-71988287D01*
X81360500Y-71775713D01*
X81327246Y-71565757D01*
X81261557Y-71363588D01*
X81165051Y-71174184D01*
X81165049Y-71174181D01*
X81165048Y-71174179D01*
X81040109Y-71002213D01*
X80889786Y-70851890D01*
X80717820Y-70726951D01*
X80717115Y-70726591D01*
X80709054Y-70722485D01*
X80658259Y-70674512D01*
X80641463Y-70606692D01*
X80663999Y-70540556D01*
X80709054Y-70501515D01*
X80717816Y-70497051D01*
X80747077Y-70475792D01*
X80889786Y-70372109D01*
X80889788Y-70372106D01*
X80889792Y-70372104D01*
X81040104Y-70221792D01*
X81040106Y-70221788D01*
X81040109Y-70221786D01*
X81165048Y-70049820D01*
X81165047Y-70049820D01*
X81165051Y-70049816D01*
X81261557Y-69860412D01*
X81327246Y-69658243D01*
X81360500Y-69448287D01*
X81360500Y-69235713D01*
X81327246Y-69025757D01*
X81261557Y-68823588D01*
X81165051Y-68634184D01*
X81165049Y-68634181D01*
X81165048Y-68634179D01*
X81040109Y-68462213D01*
X80889786Y-68311890D01*
X80717820Y-68186951D01*
X80717115Y-68186591D01*
X80709054Y-68182485D01*
X80658259Y-68134512D01*
X80641463Y-68066692D01*
X80663999Y-68000556D01*
X80709054Y-67961515D01*
X80717816Y-67957051D01*
X80766191Y-67921905D01*
X80889786Y-67832109D01*
X80889788Y-67832106D01*
X80889792Y-67832104D01*
X81040104Y-67681792D01*
X81040106Y-67681788D01*
X81040109Y-67681786D01*
X81165048Y-67509820D01*
X81165047Y-67509820D01*
X81165051Y-67509816D01*
X81261557Y-67320412D01*
X81327246Y-67118243D01*
X81360500Y-66908287D01*
X81360500Y-66695713D01*
X81327246Y-66485757D01*
X81261557Y-66283588D01*
X81165051Y-66094184D01*
X81165049Y-66094181D01*
X81165048Y-66094179D01*
X81040109Y-65922213D01*
X80889786Y-65771890D01*
X80717820Y-65646951D01*
X80717115Y-65646591D01*
X80709054Y-65642485D01*
X80658259Y-65594512D01*
X80641463Y-65526692D01*
X80663999Y-65460556D01*
X80709054Y-65421515D01*
X80717816Y-65417051D01*
X80801563Y-65356206D01*
X80889786Y-65292109D01*
X80889788Y-65292106D01*
X80889792Y-65292104D01*
X81040104Y-65141792D01*
X81040106Y-65141788D01*
X81040109Y-65141786D01*
X81165048Y-64969820D01*
X81165047Y-64969820D01*
X81165051Y-64969816D01*
X81261557Y-64780412D01*
X81327246Y-64578243D01*
X81360500Y-64368287D01*
X81360500Y-64155713D01*
X81327246Y-63945757D01*
X81261557Y-63743588D01*
X81165051Y-63554184D01*
X81165049Y-63554181D01*
X81165048Y-63554179D01*
X81040109Y-63382213D01*
X80889786Y-63231890D01*
X80717820Y-63106951D01*
X80716320Y-63106187D01*
X80709054Y-63102485D01*
X80658259Y-63054512D01*
X80641463Y-62986692D01*
X80663999Y-62920556D01*
X80709054Y-62881515D01*
X80717816Y-62877051D01*
X80747085Y-62855786D01*
X80889786Y-62752109D01*
X80889788Y-62752106D01*
X80889792Y-62752104D01*
X81040104Y-62601792D01*
X81040106Y-62601788D01*
X81040109Y-62601786D01*
X81165048Y-62429820D01*
X81165047Y-62429820D01*
X81165051Y-62429816D01*
X81261557Y-62240412D01*
X81327246Y-62038243D01*
X81360500Y-61828287D01*
X81360500Y-61615713D01*
X81327246Y-61405757D01*
X81261557Y-61203588D01*
X81165051Y-61014184D01*
X81165049Y-61014181D01*
X81165048Y-61014179D01*
X81040109Y-60842213D01*
X80889786Y-60691890D01*
X80717820Y-60566951D01*
X80717115Y-60566591D01*
X80709054Y-60562485D01*
X80658259Y-60514512D01*
X80641463Y-60446692D01*
X80663999Y-60380556D01*
X80709054Y-60341515D01*
X80717816Y-60337051D01*
X80780804Y-60291288D01*
X80889786Y-60212109D01*
X80889788Y-60212106D01*
X80889792Y-60212104D01*
X81008077Y-60093819D01*
X81069400Y-60060334D01*
X81095758Y-60057500D01*
X81881994Y-60057500D01*
X81949033Y-60077185D01*
X81969675Y-60093819D01*
X82908181Y-61032325D01*
X82941666Y-61093648D01*
X82944500Y-61120006D01*
X82944500Y-72222233D01*
X82978143Y-72391366D01*
X82978146Y-72391378D01*
X83044138Y-72550698D01*
X83044145Y-72550711D01*
X83139954Y-72694098D01*
X83139957Y-72694102D01*
X88849897Y-78404042D01*
X88849901Y-78404045D01*
X88993288Y-78499854D01*
X88993301Y-78499861D01*
X89110756Y-78548512D01*
X89152626Y-78565855D01*
X89306609Y-78596484D01*
X89321766Y-78599499D01*
X89321769Y-78599500D01*
X89321771Y-78599500D01*
X101432231Y-78599500D01*
X101432232Y-78599499D01*
X101601374Y-78565855D01*
X101724604Y-78514811D01*
X101760698Y-78499861D01*
X101760698Y-78499860D01*
X101760705Y-78499858D01*
X101904099Y-78404045D01*
X104566045Y-75742099D01*
X104661858Y-75598705D01*
X104727855Y-75439374D01*
X104761500Y-75270229D01*
X104761500Y-75097771D01*
X104761500Y-57825771D01*
X104761500Y-57825768D01*
X104761499Y-57825766D01*
X104754349Y-57789821D01*
X104727855Y-57656626D01*
X104702992Y-57596601D01*
X104661861Y-57497301D01*
X104661854Y-57497288D01*
X104566046Y-57353902D01*
X104505128Y-57292984D01*
X104444099Y-57231955D01*
X103864556Y-56652412D01*
X103110102Y-55897957D01*
X103110098Y-55897954D01*
X102966711Y-55802145D01*
X102966698Y-55802138D01*
X102807378Y-55736146D01*
X102807366Y-55736143D01*
X102638232Y-55702500D01*
X102638229Y-55702500D01*
X102288758Y-55702500D01*
X102221719Y-55682815D01*
X102201077Y-55666181D01*
X102082790Y-55547894D01*
X102082785Y-55547890D01*
X101917781Y-55428008D01*
X101875115Y-55372678D01*
X101869136Y-55303065D01*
X101901741Y-55241270D01*
X101917781Y-55227371D01*
X102082466Y-55107721D01*
X102232723Y-54957464D01*
X102232727Y-54957459D01*
X102357620Y-54785557D01*
X102454095Y-54596217D01*
X102519757Y-54394129D01*
X102519757Y-54394126D01*
X102530231Y-54328000D01*
X101482146Y-54328000D01*
X101520630Y-54261343D01*
X101553000Y-54140535D01*
X101553000Y-54015465D01*
X101520630Y-53894657D01*
X101482146Y-53828000D01*
X102530231Y-53828000D01*
X102519757Y-53761873D01*
X102519757Y-53761870D01*
X102454095Y-53559782D01*
X102357620Y-53370442D01*
X102232727Y-53198540D01*
X102232723Y-53198535D01*
X102082464Y-53048276D01*
X102082459Y-53048272D01*
X101917781Y-52928627D01*
X101875115Y-52873297D01*
X101869136Y-52803684D01*
X101901741Y-52741889D01*
X101917776Y-52727994D01*
X102082792Y-52608104D01*
X102233104Y-52457792D01*
X102233106Y-52457788D01*
X102233109Y-52457786D01*
X102342086Y-52307789D01*
X102358051Y-52285816D01*
X102454557Y-52096412D01*
X102520246Y-51894243D01*
X102553500Y-51684287D01*
X102553500Y-51471713D01*
X102520246Y-51261757D01*
X102454557Y-51059588D01*
X102358051Y-50870184D01*
X102358049Y-50870181D01*
X102358048Y-50870179D01*
X102233109Y-50698213D01*
X102082786Y-50547890D01*
X101910820Y-50422951D01*
X101721414Y-50326444D01*
X101721413Y-50326443D01*
X101721412Y-50326443D01*
X101519243Y-50260754D01*
X101519241Y-50260753D01*
X101519240Y-50260753D01*
X101357957Y-50235208D01*
X101309287Y-50227500D01*
X100846713Y-50227500D01*
X100798042Y-50235208D01*
X100636760Y-50260753D01*
X100434585Y-50326444D01*
X100245179Y-50422951D01*
X100073213Y-50547890D01*
X99922890Y-50698213D01*
X99797951Y-50870179D01*
X99701444Y-51059585D01*
X99635753Y-51261760D01*
X99605034Y-51455713D01*
X99602500Y-51471713D01*
X99602500Y-51684287D01*
X99635754Y-51894243D01*
X99696244Y-52080412D01*
X99701444Y-52096414D01*
X99797951Y-52285820D01*
X99922890Y-52457786D01*
X100073209Y-52608105D01*
X100073214Y-52608109D01*
X100238218Y-52727991D01*
X100280884Y-52783320D01*
X100286863Y-52852934D01*
X100254258Y-52914729D01*
X100238218Y-52928627D01*
X100073540Y-53048272D01*
X100073535Y-53048276D01*
X99923276Y-53198535D01*
X99923272Y-53198540D01*
X99798379Y-53370442D01*
X99701904Y-53559782D01*
X99636242Y-53761870D01*
X99636242Y-53761873D01*
X99625769Y-53828000D01*
X100673854Y-53828000D01*
X100635370Y-53894657D01*
X100603000Y-54015465D01*
X100603000Y-54140535D01*
X100635370Y-54261343D01*
X100673854Y-54328000D01*
X99625769Y-54328000D01*
X99636242Y-54394126D01*
X99636242Y-54394129D01*
X99701904Y-54596217D01*
X99798379Y-54785557D01*
X99923272Y-54957459D01*
X99923276Y-54957464D01*
X100073535Y-55107723D01*
X100073540Y-55107727D01*
X100238218Y-55227372D01*
X100280884Y-55282701D01*
X100286863Y-55352315D01*
X100254258Y-55414110D01*
X100238218Y-55428008D01*
X100073214Y-55547890D01*
X100073209Y-55547894D01*
X99922890Y-55698213D01*
X99797951Y-55870179D01*
X99701444Y-56059585D01*
X99635753Y-56261760D01*
X99602500Y-56471713D01*
X99602500Y-56684287D01*
X99635754Y-56894243D01*
X99701249Y-57095816D01*
X99701444Y-57096414D01*
X99797951Y-57285820D01*
X99922890Y-57457786D01*
X100061705Y-57596601D01*
X100095190Y-57657924D01*
X100090206Y-57727616D01*
X100048334Y-57783549D01*
X100039121Y-57789821D01*
X99884342Y-57885289D01*
X99760289Y-58009342D01*
X99668187Y-58158663D01*
X99668185Y-58158668D01*
X99645060Y-58228455D01*
X99613001Y-58325203D01*
X99613001Y-58325204D01*
X99613000Y-58325204D01*
X99602500Y-58427983D01*
X99602500Y-59728001D01*
X99602501Y-59728018D01*
X99613000Y-59830796D01*
X99613001Y-59830799D01*
X99647862Y-59936000D01*
X99668186Y-59997334D01*
X99760288Y-60146656D01*
X99884344Y-60270712D01*
X100033666Y-60362814D01*
X100200203Y-60417999D01*
X100302991Y-60428500D01*
X101853008Y-60428499D01*
X101955797Y-60417999D01*
X102122334Y-60362814D01*
X102271656Y-60270712D01*
X102395712Y-60146656D01*
X102487814Y-59997334D01*
X102542999Y-59830797D01*
X102553500Y-59728009D01*
X102553499Y-58427992D01*
X102542999Y-58325203D01*
X102487814Y-58158666D01*
X102395712Y-58009344D01*
X102395710Y-58009342D01*
X102391920Y-58003197D01*
X102393046Y-58002502D01*
X102369763Y-57944793D01*
X102382803Y-57876151D01*
X102430883Y-57825455D01*
X102498739Y-57808801D01*
X102564827Y-57831477D01*
X102580851Y-57844995D01*
X102974181Y-58238325D01*
X103007666Y-58299648D01*
X103010500Y-58326006D01*
X103010500Y-74769994D01*
X102990815Y-74837033D01*
X102974181Y-74857675D01*
X101019675Y-76812181D01*
X100958352Y-76845666D01*
X100931994Y-76848500D01*
X89822006Y-76848500D01*
X89754967Y-76828815D01*
X89734325Y-76812181D01*
X84731819Y-71809675D01*
X84698334Y-71748352D01*
X84695500Y-71721994D01*
X84695500Y-60619768D01*
X84695499Y-60619766D01*
X84676340Y-60523447D01*
X84661855Y-60450626D01*
X84661853Y-60450621D01*
X84595861Y-60291301D01*
X84595854Y-60291288D01*
X84500046Y-60147902D01*
X84445963Y-60093819D01*
X84378099Y-60025955D01*
X83640430Y-59288286D01*
X82854102Y-58501957D01*
X82854098Y-58501954D01*
X82710711Y-58406145D01*
X82710698Y-58406138D01*
X82551378Y-58340146D01*
X82551366Y-58340143D01*
X82382232Y-58306500D01*
X82382229Y-58306500D01*
X81095758Y-58306500D01*
X81028719Y-58286815D01*
X81008077Y-58270181D01*
X80889786Y-58151890D01*
X80717820Y-58026951D01*
X80717115Y-58026591D01*
X80709054Y-58022485D01*
X80658259Y-57974512D01*
X80641463Y-57906692D01*
X80663999Y-57840556D01*
X80709054Y-57801515D01*
X80717816Y-57797051D01*
X80798405Y-57738500D01*
X80889786Y-57672109D01*
X80889788Y-57672106D01*
X80889792Y-57672104D01*
X81040104Y-57521792D01*
X81040106Y-57521788D01*
X81040109Y-57521786D01*
X81165048Y-57349820D01*
X81165047Y-57349820D01*
X81165051Y-57349816D01*
X81261557Y-57160412D01*
X81327246Y-56958243D01*
X81360500Y-56748287D01*
X81360500Y-56535713D01*
X81327246Y-56325757D01*
X81261557Y-56123588D01*
X81165051Y-55934184D01*
X81165049Y-55934181D01*
X81165048Y-55934179D01*
X81040109Y-55762213D01*
X80889786Y-55611890D01*
X80717820Y-55486951D01*
X80717115Y-55486591D01*
X80709054Y-55482485D01*
X80658259Y-55434512D01*
X80641463Y-55366692D01*
X80663999Y-55300556D01*
X80709054Y-55261515D01*
X80717816Y-55257051D01*
X80772595Y-55217252D01*
X80889786Y-55132109D01*
X80889788Y-55132106D01*
X80889792Y-55132104D01*
X81040104Y-54981792D01*
X81040106Y-54981788D01*
X81040109Y-54981786D01*
X81165048Y-54809820D01*
X81165047Y-54809820D01*
X81165051Y-54809816D01*
X81261557Y-54620412D01*
X81327246Y-54418243D01*
X81360500Y-54208287D01*
X81360500Y-53995713D01*
X81327246Y-53785757D01*
X81261557Y-53583588D01*
X81165051Y-53394184D01*
X81165049Y-53394181D01*
X81165048Y-53394179D01*
X81040109Y-53222213D01*
X80889786Y-53071890D01*
X80717820Y-52946951D01*
X80717115Y-52946591D01*
X80709054Y-52942485D01*
X80658259Y-52894512D01*
X80641463Y-52826692D01*
X80663999Y-52760556D01*
X80709054Y-52721515D01*
X80717816Y-52717051D01*
X80739789Y-52701086D01*
X80889786Y-52592109D01*
X80889788Y-52592106D01*
X80889792Y-52592104D01*
X81040104Y-52441792D01*
X81040106Y-52441788D01*
X81040109Y-52441786D01*
X81165048Y-52269820D01*
X81165047Y-52269820D01*
X81165051Y-52269816D01*
X81261557Y-52080412D01*
X81327246Y-51878243D01*
X81360500Y-51668287D01*
X81360500Y-51455713D01*
X81327246Y-51245757D01*
X81261557Y-51043588D01*
X81165051Y-50854184D01*
X81165049Y-50854181D01*
X81165048Y-50854179D01*
X81040109Y-50682213D01*
X80889786Y-50531890D01*
X80717820Y-50406951D01*
X80717115Y-50406591D01*
X80709054Y-50402485D01*
X80658259Y-50354512D01*
X80641463Y-50286692D01*
X80663999Y-50220556D01*
X80709054Y-50181515D01*
X80717816Y-50177051D01*
X80802675Y-50115398D01*
X80889786Y-50052109D01*
X80889788Y-50052106D01*
X80889792Y-50052104D01*
X81040104Y-49901792D01*
X81040106Y-49901788D01*
X81040109Y-49901786D01*
X81165048Y-49729820D01*
X81165047Y-49729820D01*
X81165051Y-49729816D01*
X81261557Y-49540412D01*
X81327246Y-49338243D01*
X81360500Y-49128287D01*
X81360500Y-48915713D01*
X81327246Y-48705757D01*
X81261557Y-48503588D01*
X81165051Y-48314184D01*
X81165049Y-48314181D01*
X81165048Y-48314179D01*
X81040109Y-48142213D01*
X80889786Y-47991890D01*
X80717820Y-47866951D01*
X80717115Y-47866591D01*
X80709054Y-47862485D01*
X80658259Y-47814512D01*
X80641463Y-47746692D01*
X80663999Y-47680556D01*
X80709054Y-47641515D01*
X80717816Y-47637051D01*
X80798405Y-47578500D01*
X80889786Y-47512109D01*
X80889788Y-47512106D01*
X80889792Y-47512104D01*
X81040104Y-47361792D01*
X81040106Y-47361788D01*
X81040109Y-47361786D01*
X81165048Y-47189820D01*
X81165047Y-47189820D01*
X81165051Y-47189816D01*
X81261557Y-47000412D01*
X81327246Y-46798243D01*
X81360500Y-46588287D01*
X81360500Y-46375713D01*
X81327246Y-46165757D01*
X81261557Y-45963588D01*
X81165051Y-45774184D01*
X81165049Y-45774181D01*
X81165048Y-45774179D01*
X81040109Y-45602213D01*
X80889786Y-45451890D01*
X80717820Y-45326951D01*
X80709600Y-45322763D01*
X80709054Y-45322485D01*
X80658259Y-45274512D01*
X80641463Y-45206692D01*
X80663999Y-45140556D01*
X80709054Y-45101515D01*
X80717816Y-45097051D01*
X80750397Y-45073380D01*
X80889786Y-44972109D01*
X80889788Y-44972106D01*
X80889792Y-44972104D01*
X81040104Y-44821792D01*
X81040106Y-44821788D01*
X81040109Y-44821786D01*
X81165048Y-44649820D01*
X81165047Y-44649820D01*
X81165051Y-44649816D01*
X81261557Y-44460412D01*
X81327246Y-44258243D01*
X81360500Y-44048287D01*
X81360500Y-43835713D01*
X81327246Y-43625757D01*
X81261557Y-43423588D01*
X81165051Y-43234184D01*
X81165049Y-43234181D01*
X81165048Y-43234179D01*
X81040109Y-43062213D01*
X80889786Y-42911890D01*
X80717820Y-42786951D01*
X80717115Y-42786591D01*
X80709054Y-42782485D01*
X80658259Y-42734512D01*
X80641463Y-42666692D01*
X80663999Y-42600556D01*
X80709054Y-42561515D01*
X80717816Y-42557051D01*
X80739789Y-42541086D01*
X80889786Y-42432109D01*
X80889788Y-42432106D01*
X80889792Y-42432104D01*
X81040104Y-42281792D01*
X81040106Y-42281788D01*
X81040109Y-42281786D01*
X81165048Y-42109820D01*
X81165047Y-42109820D01*
X81165051Y-42109816D01*
X81261557Y-41920412D01*
X81327246Y-41718243D01*
X81360500Y-41508287D01*
X81360500Y-41295713D01*
X81327246Y-41085757D01*
X81261557Y-40883588D01*
X81165051Y-40694184D01*
X81145639Y-40667466D01*
X81145639Y-40667464D01*
X81096223Y-40599448D01*
X82167500Y-40599448D01*
X82167500Y-41780551D01*
X82195829Y-41959410D01*
X82251787Y-42131636D01*
X82251788Y-42131639D01*
X82307664Y-42241300D01*
X82328296Y-42281792D01*
X82334006Y-42292997D01*
X82440441Y-42439494D01*
X82440445Y-42439499D01*
X82568500Y-42567554D01*
X82568505Y-42567558D01*
X82686874Y-42653557D01*
X82715006Y-42673996D01*
X82820484Y-42727740D01*
X82876360Y-42756211D01*
X82876363Y-42756212D01*
X82957222Y-42782484D01*
X83048591Y-42812171D01*
X83131429Y-42825291D01*
X83227449Y-42840500D01*
X83227454Y-42840500D01*
X83408551Y-42840500D01*
X83495259Y-42826765D01*
X83587409Y-42812171D01*
X83635180Y-42796648D01*
X83663300Y-42795844D01*
X83691147Y-42791841D01*
X83697756Y-42794859D01*
X83705020Y-42794652D01*
X83729111Y-42809178D01*
X83754703Y-42820866D01*
X83758631Y-42826978D01*
X83764854Y-42830731D01*
X83777266Y-42855975D01*
X83792477Y-42879644D01*
X83793953Y-42889915D01*
X83795683Y-42893432D01*
X83797500Y-42914579D01*
X83797500Y-42929064D01*
X83777815Y-42996103D01*
X83776603Y-42997954D01*
X83738608Y-43054817D01*
X83738602Y-43054828D01*
X83678264Y-43200498D01*
X83678261Y-43200510D01*
X83647500Y-43355153D01*
X83647500Y-43512846D01*
X83678261Y-43667489D01*
X83678264Y-43667501D01*
X83738602Y-43813172D01*
X83738609Y-43813185D01*
X83826210Y-43944288D01*
X83826213Y-43944292D01*
X83937707Y-44055786D01*
X83937711Y-44055789D01*
X84068814Y-44143390D01*
X84068827Y-44143397D01*
X84200633Y-44197992D01*
X84214503Y-44203737D01*
X84369153Y-44234499D01*
X84369156Y-44234500D01*
X84369158Y-44234500D01*
X84526844Y-44234500D01*
X84526845Y-44234499D01*
X84681497Y-44203737D01*
X84827179Y-44143394D01*
X84958289Y-44055789D01*
X85069789Y-43944289D01*
X85157394Y-43813179D01*
X85217737Y-43667497D01*
X85248500Y-43512842D01*
X85248500Y-43355158D01*
X85248500Y-43355155D01*
X85248499Y-43355153D01*
X85230964Y-43267000D01*
X85217737Y-43200503D01*
X85193913Y-43142987D01*
X85157397Y-43054828D01*
X85157396Y-43054827D01*
X85157394Y-43054821D01*
X85119396Y-42997953D01*
X85113746Y-42979907D01*
X85103523Y-42963999D01*
X85099071Y-42933036D01*
X85098520Y-42931276D01*
X85098500Y-42929064D01*
X85098500Y-42911438D01*
X85118185Y-42844399D01*
X85123147Y-42837242D01*
X85123660Y-42836556D01*
X85150289Y-42816580D01*
X85170989Y-42798644D01*
X85174960Y-42798073D01*
X85179547Y-42794632D01*
X85218586Y-42791800D01*
X85240147Y-42788700D01*
X85243049Y-42790025D01*
X85249234Y-42789577D01*
X85286406Y-42809825D01*
X85303703Y-42817725D01*
X85305208Y-42820068D01*
X85310591Y-42823000D01*
X85322266Y-42836459D01*
X85322342Y-42836560D01*
X85378738Y-42911896D01*
X85390452Y-42927543D01*
X85390455Y-42927547D01*
X85397788Y-42933036D01*
X85448311Y-42970858D01*
X85490182Y-43026789D01*
X85497972Y-43069972D01*
X85498000Y-43070000D01*
X85545828Y-43070000D01*
X85545839Y-43069999D01*
X85607395Y-43063380D01*
X85633909Y-43063380D01*
X85640514Y-43064090D01*
X85640517Y-43064091D01*
X85700127Y-43070500D01*
X85904551Y-43070499D01*
X85971590Y-43090183D01*
X86017345Y-43142987D01*
X86028309Y-43202240D01*
X86027534Y-43214618D01*
X86013499Y-43267000D01*
X86013499Y-43425114D01*
X86013500Y-43425117D01*
X86013500Y-43438988D01*
X86013500Y-43870234D01*
X85993815Y-43937273D01*
X85992602Y-43939125D01*
X85904609Y-44070814D01*
X85904602Y-44070827D01*
X85844264Y-44216498D01*
X85844261Y-44216510D01*
X85813500Y-44371153D01*
X85813500Y-44528846D01*
X85844261Y-44683489D01*
X85844264Y-44683501D01*
X85904602Y-44829172D01*
X85904609Y-44829185D01*
X85992210Y-44960288D01*
X85992213Y-44960292D01*
X86103707Y-45071786D01*
X86103711Y-45071789D01*
X86234814Y-45159390D01*
X86234827Y-45159397D01*
X86361824Y-45212000D01*
X86380503Y-45219737D01*
X86535153Y-45250499D01*
X86535156Y-45250500D01*
X86535158Y-45250500D01*
X86692844Y-45250500D01*
X86692845Y-45250499D01*
X86847497Y-45219737D01*
X86993179Y-45159394D01*
X87050044Y-45121397D01*
X87116721Y-45100520D01*
X87118935Y-45100500D01*
X87344725Y-45100500D01*
X87429269Y-45083682D01*
X87470398Y-45075501D01*
X87588781Y-45026465D01*
X87614056Y-45009577D01*
X87695323Y-44955277D01*
X88452608Y-44197990D01*
X88513929Y-44164507D01*
X88583620Y-44169491D01*
X88587713Y-44171101D01*
X88666503Y-44203737D01*
X88821153Y-44234499D01*
X88821156Y-44234500D01*
X88821158Y-44234500D01*
X88978844Y-44234500D01*
X88978845Y-44234499D01*
X89133497Y-44203737D01*
X89279179Y-44143394D01*
X89410289Y-44055789D01*
X89521789Y-43944289D01*
X89609394Y-43813179D01*
X89669737Y-43667497D01*
X89700500Y-43512842D01*
X89700500Y-43355158D01*
X89700500Y-43355155D01*
X89700499Y-43355153D01*
X89673256Y-43218191D01*
X89679483Y-43148600D01*
X89708334Y-43105191D01*
X89835461Y-42981314D01*
X89840375Y-42978712D01*
X89847686Y-42970859D01*
X89905546Y-42927546D01*
X89973734Y-42836457D01*
X89994889Y-42820621D01*
X90013579Y-42801934D01*
X90022423Y-42800010D01*
X90029667Y-42794588D01*
X90056024Y-42792702D01*
X90081853Y-42787086D01*
X90090332Y-42790249D01*
X90099358Y-42789604D01*
X90122551Y-42802268D01*
X90147316Y-42811507D01*
X90156750Y-42820942D01*
X90160681Y-42823089D01*
X90172271Y-42836465D01*
X90172771Y-42837133D01*
X90197185Y-42902599D01*
X90197500Y-42911438D01*
X90197500Y-43099064D01*
X90177815Y-43166103D01*
X90176603Y-43167954D01*
X90138608Y-43224817D01*
X90138602Y-43224828D01*
X90078264Y-43370498D01*
X90078261Y-43370510D01*
X90047500Y-43525153D01*
X90047500Y-43682846D01*
X90078261Y-43837489D01*
X90078264Y-43837501D01*
X90138602Y-43983172D01*
X90138609Y-43983185D01*
X90226210Y-44114288D01*
X90226213Y-44114292D01*
X90337707Y-44225786D01*
X90337711Y-44225789D01*
X90468814Y-44313390D01*
X90468827Y-44313397D01*
X90614498Y-44373735D01*
X90614503Y-44373737D01*
X90769153Y-44404499D01*
X90769156Y-44404500D01*
X90769158Y-44404500D01*
X90926844Y-44404500D01*
X90926845Y-44404499D01*
X91081497Y-44373737D01*
X91227179Y-44313394D01*
X91358289Y-44225789D01*
X91469789Y-44114289D01*
X91557394Y-43983179D01*
X91617737Y-43837497D01*
X91648500Y-43682842D01*
X91648500Y-43525158D01*
X91648500Y-43525155D01*
X91648499Y-43525153D01*
X91646050Y-43512842D01*
X91617737Y-43370503D01*
X91557394Y-43224821D01*
X91519396Y-43167953D01*
X91513746Y-43149907D01*
X91503523Y-43133999D01*
X91499071Y-43103036D01*
X91498520Y-43101276D01*
X91498500Y-43099064D01*
X91498500Y-42914580D01*
X91518185Y-42847541D01*
X91570989Y-42801786D01*
X91640147Y-42791842D01*
X91660819Y-42796649D01*
X91708590Y-42812171D01*
X91887449Y-42840500D01*
X91887454Y-42840500D01*
X92068551Y-42840500D01*
X92155259Y-42826765D01*
X92247409Y-42812171D01*
X92419639Y-42756211D01*
X92580994Y-42673996D01*
X92727501Y-42567553D01*
X92855553Y-42439501D01*
X92961996Y-42292994D01*
X93044211Y-42131639D01*
X93100171Y-41959409D01*
X93114765Y-41867259D01*
X93128500Y-41780551D01*
X93128500Y-40599448D01*
X93106019Y-40457515D01*
X93100171Y-40420591D01*
X93064935Y-40312145D01*
X93044212Y-40248363D01*
X93044211Y-40248360D01*
X93003013Y-40167506D01*
X92961996Y-40087006D01*
X92893895Y-39993272D01*
X92855558Y-39940505D01*
X92855554Y-39940500D01*
X92727499Y-39812445D01*
X92727494Y-39812441D01*
X92580997Y-39706006D01*
X92580996Y-39706005D01*
X92580994Y-39706004D01*
X92515239Y-39672500D01*
X92419639Y-39623788D01*
X92419636Y-39623787D01*
X92247410Y-39567829D01*
X92068551Y-39539500D01*
X92068546Y-39539500D01*
X91887454Y-39539500D01*
X91887449Y-39539500D01*
X91708589Y-39567829D01*
X91536363Y-39623787D01*
X91536360Y-39623788D01*
X91375002Y-39706006D01*
X91228505Y-39812441D01*
X91228500Y-39812445D01*
X91100445Y-39940500D01*
X91100441Y-39940505D01*
X90994005Y-40087002D01*
X90970408Y-40133314D01*
X90922433Y-40184109D01*
X90854611Y-40200903D01*
X90797924Y-40184404D01*
X90750488Y-40157017D01*
X90750489Y-40157017D01*
X90700192Y-40143540D01*
X90610475Y-40119500D01*
X90465525Y-40119500D01*
X90375808Y-40143540D01*
X90325511Y-40157017D01*
X90199988Y-40229488D01*
X90199982Y-40229493D01*
X90097493Y-40331982D01*
X90097488Y-40331988D01*
X90025017Y-40457511D01*
X90025016Y-40457515D01*
X90007680Y-40522215D01*
X89992707Y-40578094D01*
X89979364Y-40599982D01*
X89969590Y-40623673D01*
X89961484Y-40629317D01*
X89956342Y-40637754D01*
X89933285Y-40648953D01*
X89912253Y-40663600D01*
X89898539Y-40665832D01*
X89893494Y-40668283D01*
X89877528Y-40669915D01*
X89679938Y-40677244D01*
X89677475Y-40676619D01*
X89662088Y-40676619D01*
X89652818Y-40675622D01*
X89595873Y-40669500D01*
X89595865Y-40669500D01*
X89200130Y-40669500D01*
X89200119Y-40669501D01*
X89161253Y-40673679D01*
X89134748Y-40673679D01*
X89095874Y-40669500D01*
X88700130Y-40669500D01*
X88700119Y-40669501D01*
X88661253Y-40673679D01*
X88634748Y-40673679D01*
X88595874Y-40669500D01*
X88200130Y-40669500D01*
X88200119Y-40669501D01*
X88161253Y-40673679D01*
X88134748Y-40673679D01*
X88095874Y-40669500D01*
X87700130Y-40669500D01*
X87700119Y-40669501D01*
X87661253Y-40673679D01*
X87634748Y-40673679D01*
X87595874Y-40669500D01*
X87200130Y-40669500D01*
X87200119Y-40669501D01*
X87161253Y-40673679D01*
X87134748Y-40673679D01*
X87095874Y-40669500D01*
X86700130Y-40669500D01*
X86700119Y-40669501D01*
X86661253Y-40673679D01*
X86634748Y-40673679D01*
X86595874Y-40669500D01*
X86200130Y-40669500D01*
X86200119Y-40669501D01*
X86161253Y-40673679D01*
X86134748Y-40673679D01*
X86095874Y-40669500D01*
X85700129Y-40669500D01*
X85700125Y-40669501D01*
X85652160Y-40674657D01*
X85640517Y-40675909D01*
X85640516Y-40675909D01*
X85633904Y-40676620D01*
X85616053Y-40677245D01*
X85418471Y-40669915D01*
X85387424Y-40659533D01*
X85356029Y-40650315D01*
X85354468Y-40648514D01*
X85352207Y-40647758D01*
X85331694Y-40622231D01*
X85310274Y-40597511D01*
X85309014Y-40594007D01*
X85308441Y-40593294D01*
X85308308Y-40592043D01*
X85303293Y-40578094D01*
X85270984Y-40457515D01*
X85222184Y-40372992D01*
X85198511Y-40331988D01*
X85198506Y-40331982D01*
X85096017Y-40229493D01*
X85096011Y-40229488D01*
X84970488Y-40157017D01*
X84970489Y-40157017D01*
X84920192Y-40143540D01*
X84830475Y-40119500D01*
X84685525Y-40119500D01*
X84545515Y-40157016D01*
X84545514Y-40157016D01*
X84545512Y-40157017D01*
X84498074Y-40184405D01*
X84430173Y-40200876D01*
X84364147Y-40178024D01*
X84325590Y-40133312D01*
X84301996Y-40087006D01*
X84233895Y-39993272D01*
X84195558Y-39940505D01*
X84195554Y-39940500D01*
X84067499Y-39812445D01*
X84067494Y-39812441D01*
X83920997Y-39706006D01*
X83920996Y-39706005D01*
X83920994Y-39706004D01*
X83855239Y-39672500D01*
X83759639Y-39623788D01*
X83759636Y-39623787D01*
X83587410Y-39567829D01*
X83408551Y-39539500D01*
X83408546Y-39539500D01*
X83227454Y-39539500D01*
X83227449Y-39539500D01*
X83048589Y-39567829D01*
X82876363Y-39623787D01*
X82876360Y-39623788D01*
X82715002Y-39706006D01*
X82568505Y-39812441D01*
X82568500Y-39812445D01*
X82440445Y-39940500D01*
X82440441Y-39940505D01*
X82334006Y-40087002D01*
X82251788Y-40248360D01*
X82251787Y-40248363D01*
X82195829Y-40420589D01*
X82167500Y-40599448D01*
X81096223Y-40599448D01*
X81040109Y-40522214D01*
X81040105Y-40522209D01*
X80926569Y-40408673D01*
X80893084Y-40347350D01*
X80898068Y-40277658D01*
X80939940Y-40221725D01*
X80970915Y-40204810D01*
X81102331Y-40155796D01*
X81217546Y-40069546D01*
X81303796Y-39954331D01*
X81354091Y-39819483D01*
X81360500Y-39759873D01*
X81360499Y-37964128D01*
X81354091Y-37904517D01*
X81354088Y-37904510D01*
X81303797Y-37769671D01*
X81303793Y-37769664D01*
X81217547Y-37654455D01*
X81217544Y-37654452D01*
X81102335Y-37568206D01*
X81102328Y-37568202D01*
X80967482Y-37517908D01*
X80967483Y-37517908D01*
X80907883Y-37511501D01*
X80907881Y-37511500D01*
X80907873Y-37511500D01*
X80907864Y-37511500D01*
X79112129Y-37511500D01*
X79112123Y-37511501D01*
X79052516Y-37517908D01*
X78917671Y-37568202D01*
X78917664Y-37568206D01*
X78802455Y-37654452D01*
X78802452Y-37654455D01*
X78716206Y-37769664D01*
X78716202Y-37769671D01*
X78665908Y-37904517D01*
X78659501Y-37964116D01*
X78659501Y-37964123D01*
X78659500Y-37964135D01*
X34282500Y-37964135D01*
X34282500Y-36499448D01*
X82167500Y-36499448D01*
X82167500Y-37480551D01*
X82195829Y-37659410D01*
X82251787Y-37831636D01*
X82251788Y-37831639D01*
X82288919Y-37904510D01*
X82328508Y-37982208D01*
X82334006Y-37992997D01*
X82440441Y-38139494D01*
X82440445Y-38139499D01*
X82568500Y-38267554D01*
X82568505Y-38267558D01*
X82673153Y-38343588D01*
X82715006Y-38373996D01*
X82820484Y-38427740D01*
X82876360Y-38456211D01*
X82876363Y-38456212D01*
X82962476Y-38484191D01*
X83048591Y-38512171D01*
X83131429Y-38525291D01*
X83227449Y-38540500D01*
X83227454Y-38540500D01*
X83408551Y-38540500D01*
X83495259Y-38526765D01*
X83587409Y-38512171D01*
X83759639Y-38456211D01*
X83920994Y-38373996D01*
X84067501Y-38267553D01*
X84195553Y-38139501D01*
X84301996Y-37992994D01*
X84384211Y-37831639D01*
X84405569Y-37765902D01*
X84445005Y-37708229D01*
X84509363Y-37681029D01*
X84578210Y-37692943D01*
X84629686Y-37740186D01*
X84647500Y-37804221D01*
X84647500Y-38428028D01*
X84647501Y-38428034D01*
X84658113Y-38547415D01*
X84714089Y-38743045D01*
X84714090Y-38743048D01*
X84714091Y-38743049D01*
X84808302Y-38923407D01*
X84808304Y-38923409D01*
X84936890Y-39081109D01*
X85030803Y-39157684D01*
X85094593Y-39209698D01*
X85274951Y-39303909D01*
X85470582Y-39359886D01*
X85589963Y-39370500D01*
X89706036Y-39370499D01*
X89825418Y-39359886D01*
X90021049Y-39303909D01*
X90201407Y-39209698D01*
X90359109Y-39081109D01*
X90487698Y-38923407D01*
X90581909Y-38743049D01*
X90637886Y-38547418D01*
X90648500Y-38428037D01*
X90648499Y-37804219D01*
X90668183Y-37737183D01*
X90720987Y-37691428D01*
X90790146Y-37681484D01*
X90853702Y-37710509D01*
X90890430Y-37765904D01*
X90911787Y-37831636D01*
X90911788Y-37831639D01*
X90948919Y-37904510D01*
X90988508Y-37982208D01*
X90994006Y-37992997D01*
X91100441Y-38139494D01*
X91100445Y-38139499D01*
X91228500Y-38267554D01*
X91228505Y-38267558D01*
X91333153Y-38343588D01*
X91375006Y-38373996D01*
X91480484Y-38427740D01*
X91536360Y-38456211D01*
X91536363Y-38456212D01*
X91622476Y-38484191D01*
X91708591Y-38512171D01*
X91791429Y-38525291D01*
X91887449Y-38540500D01*
X91887454Y-38540500D01*
X92068551Y-38540500D01*
X92155259Y-38526765D01*
X92247409Y-38512171D01*
X92419639Y-38456211D01*
X92580994Y-38373996D01*
X92727501Y-38267553D01*
X92855553Y-38139501D01*
X92961996Y-37992994D01*
X92976701Y-37964135D01*
X93899500Y-37964135D01*
X93899500Y-39759870D01*
X93899501Y-39759876D01*
X93905908Y-39819483D01*
X93956202Y-39954328D01*
X93956206Y-39954335D01*
X94042452Y-40069544D01*
X94042455Y-40069547D01*
X94157664Y-40155793D01*
X94157671Y-40155797D01*
X94289082Y-40204810D01*
X94345016Y-40246681D01*
X94369433Y-40312145D01*
X94354582Y-40380418D01*
X94333431Y-40408673D01*
X94219889Y-40522215D01*
X94094951Y-40694179D01*
X93998444Y-40883585D01*
X93932753Y-41085760D01*
X93926993Y-41122128D01*
X93899500Y-41295713D01*
X93899500Y-41508287D01*
X93932754Y-41718243D01*
X93952999Y-41780551D01*
X93998444Y-41920414D01*
X94094951Y-42109820D01*
X94219890Y-42281786D01*
X94370213Y-42432109D01*
X94542182Y-42557050D01*
X94550946Y-42561516D01*
X94601742Y-42609491D01*
X94618536Y-42677312D01*
X94595998Y-42743447D01*
X94550946Y-42782484D01*
X94542182Y-42786949D01*
X94370213Y-42911890D01*
X94219890Y-43062213D01*
X94094951Y-43234179D01*
X93998444Y-43423585D01*
X93932753Y-43625760D01*
X93899500Y-43835713D01*
X93899500Y-44048286D01*
X93927613Y-44225789D01*
X93932754Y-44258243D01*
X93970280Y-44373737D01*
X93998444Y-44460414D01*
X94094951Y-44649820D01*
X94219890Y-44821786D01*
X94370213Y-44972109D01*
X94542179Y-45097048D01*
X94542181Y-45097049D01*
X94542184Y-45097051D01*
X94551493Y-45101794D01*
X94602290Y-45149766D01*
X94619087Y-45217587D01*
X94596552Y-45283722D01*
X94551505Y-45322760D01*
X94542446Y-45327376D01*
X94542440Y-45327380D01*
X94488282Y-45366727D01*
X94488282Y-45366728D01*
X95120591Y-45999037D01*
X95057007Y-46016075D01*
X94942993Y-46081901D01*
X94849901Y-46174993D01*
X94784075Y-46289007D01*
X94767037Y-46352591D01*
X94134728Y-45720282D01*
X94134727Y-45720282D01*
X94095380Y-45774439D01*
X93998904Y-45963782D01*
X93933242Y-46165869D01*
X93933242Y-46165872D01*
X93900000Y-46375753D01*
X93900000Y-46588246D01*
X93933242Y-46798127D01*
X93933242Y-46798130D01*
X93998904Y-47000217D01*
X94095375Y-47189550D01*
X94134728Y-47243716D01*
X94767037Y-46611408D01*
X94784075Y-46674993D01*
X94849901Y-46789007D01*
X94942993Y-46882099D01*
X95057007Y-46947925D01*
X95120590Y-46964962D01*
X94488282Y-47597269D01*
X94488282Y-47597270D01*
X94542452Y-47636626D01*
X94542451Y-47636626D01*
X94551495Y-47641234D01*
X94602292Y-47689208D01*
X94619087Y-47757029D01*
X94596550Y-47823164D01*
X94551499Y-47862202D01*
X94542182Y-47866949D01*
X94370213Y-47991890D01*
X94219890Y-48142213D01*
X94094951Y-48314179D01*
X93998444Y-48503585D01*
X93932753Y-48705760D01*
X93899500Y-48915713D01*
X93899500Y-49128286D01*
X93924165Y-49284018D01*
X93932754Y-49338243D01*
X93948530Y-49386797D01*
X93998444Y-49540414D01*
X94094951Y-49729820D01*
X94219890Y-49901786D01*
X94370213Y-50052109D01*
X94542182Y-50177050D01*
X94550946Y-50181516D01*
X94601742Y-50229491D01*
X94618536Y-50297312D01*
X94595998Y-50363447D01*
X94550946Y-50402484D01*
X94542182Y-50406949D01*
X94370213Y-50531890D01*
X94219890Y-50682213D01*
X94094951Y-50854179D01*
X93998444Y-51043585D01*
X93932753Y-51245760D01*
X93930219Y-51261760D01*
X93899500Y-51455713D01*
X93899500Y-51668287D01*
X93932754Y-51878243D01*
X93937951Y-51894239D01*
X93998444Y-52080414D01*
X94094951Y-52269820D01*
X94219890Y-52441786D01*
X94370213Y-52592109D01*
X94542182Y-52717050D01*
X94550946Y-52721516D01*
X94601742Y-52769491D01*
X94618536Y-52837312D01*
X94595998Y-52903447D01*
X94550946Y-52942484D01*
X94542182Y-52946949D01*
X94370213Y-53071890D01*
X94219890Y-53222213D01*
X94094951Y-53394179D01*
X93998444Y-53583585D01*
X93932753Y-53785760D01*
X93899500Y-53995713D01*
X93899500Y-54208286D01*
X93928934Y-54394129D01*
X93932754Y-54418243D01*
X93994613Y-54608626D01*
X93998444Y-54620414D01*
X94094951Y-54809820D01*
X94219890Y-54981786D01*
X94370213Y-55132109D01*
X94542182Y-55257050D01*
X94550946Y-55261516D01*
X94601742Y-55309491D01*
X94618536Y-55377312D01*
X94595998Y-55443447D01*
X94550946Y-55482484D01*
X94542182Y-55486949D01*
X94370213Y-55611890D01*
X94219890Y-55762213D01*
X94094951Y-55934179D01*
X93998444Y-56123585D01*
X93932753Y-56325760D01*
X93899500Y-56535713D01*
X93899500Y-56748286D01*
X93924544Y-56906412D01*
X93932754Y-56958243D01*
X93977454Y-57095816D01*
X93998444Y-57160414D01*
X94094951Y-57349820D01*
X94219890Y-57521786D01*
X94370213Y-57672109D01*
X94542182Y-57797050D01*
X94550946Y-57801516D01*
X94601742Y-57849491D01*
X94618536Y-57917312D01*
X94595998Y-57983447D01*
X94550946Y-58022484D01*
X94542182Y-58026949D01*
X94370213Y-58151890D01*
X94219890Y-58302213D01*
X94094951Y-58474179D01*
X93998444Y-58663585D01*
X93932753Y-58865760D01*
X93899500Y-59075713D01*
X93899500Y-59288286D01*
X93922895Y-59436000D01*
X93932754Y-59498243D01*
X93975237Y-59628993D01*
X93998444Y-59700414D01*
X94094951Y-59889820D01*
X94219890Y-60061786D01*
X94370213Y-60212109D01*
X94542182Y-60337050D01*
X94550946Y-60341516D01*
X94601742Y-60389491D01*
X94618536Y-60457312D01*
X94595998Y-60523447D01*
X94550946Y-60562484D01*
X94542182Y-60566949D01*
X94370213Y-60691890D01*
X94219890Y-60842213D01*
X94094951Y-61014179D01*
X93998444Y-61203585D01*
X93932753Y-61405760D01*
X93899500Y-61615713D01*
X93899500Y-61828286D01*
X93932753Y-62038239D01*
X93998444Y-62240414D01*
X94094951Y-62429820D01*
X94219890Y-62601786D01*
X94370213Y-62752109D01*
X94542182Y-62877050D01*
X94550946Y-62881516D01*
X94601742Y-62929491D01*
X94618536Y-62997312D01*
X94595998Y-63063447D01*
X94550946Y-63102484D01*
X94542182Y-63106949D01*
X94370213Y-63231890D01*
X94219890Y-63382213D01*
X94094951Y-63554179D01*
X93998444Y-63743585D01*
X93932753Y-63945760D01*
X93899500Y-64155713D01*
X93899500Y-64368286D01*
X93932753Y-64578239D01*
X93998444Y-64780414D01*
X94094951Y-64969820D01*
X94219890Y-65141786D01*
X94370213Y-65292109D01*
X94542182Y-65417050D01*
X94550946Y-65421516D01*
X94601742Y-65469491D01*
X94618536Y-65537312D01*
X94595998Y-65603447D01*
X94550946Y-65642484D01*
X94542182Y-65646949D01*
X94370213Y-65771890D01*
X94219890Y-65922213D01*
X94094951Y-66094179D01*
X93998444Y-66283585D01*
X93932753Y-66485760D01*
X93899500Y-66695713D01*
X93899500Y-66908286D01*
X93922508Y-67053557D01*
X93932754Y-67118243D01*
X93989253Y-67292129D01*
X93998444Y-67320414D01*
X94094951Y-67509820D01*
X94219890Y-67681786D01*
X94370213Y-67832109D01*
X94542182Y-67957050D01*
X94550946Y-67961516D01*
X94601742Y-68009491D01*
X94618536Y-68077312D01*
X94595998Y-68143447D01*
X94550946Y-68182484D01*
X94542182Y-68186949D01*
X94370213Y-68311890D01*
X94219890Y-68462213D01*
X94094951Y-68634179D01*
X93998444Y-68823585D01*
X93932753Y-69025760D01*
X93911530Y-69159757D01*
X93899500Y-69235713D01*
X93899500Y-69448287D01*
X93899989Y-69451372D01*
X93922895Y-69596000D01*
X93932754Y-69658243D01*
X93976293Y-69792243D01*
X93998444Y-69860414D01*
X94094951Y-70049820D01*
X94219890Y-70221786D01*
X94370213Y-70372109D01*
X94542182Y-70497050D01*
X94550946Y-70501516D01*
X94601742Y-70549491D01*
X94618536Y-70617312D01*
X94595998Y-70683447D01*
X94550946Y-70722484D01*
X94542182Y-70726949D01*
X94370213Y-70851890D01*
X94219890Y-71002213D01*
X94094951Y-71174179D01*
X93998444Y-71363585D01*
X93932753Y-71565760D01*
X93908008Y-71721994D01*
X93899500Y-71775713D01*
X93899500Y-71988287D01*
X93932754Y-72198243D01*
X93995506Y-72391374D01*
X93998444Y-72400414D01*
X94094951Y-72589820D01*
X94219890Y-72761786D01*
X94370213Y-72912109D01*
X94542182Y-73037050D01*
X94550946Y-73041516D01*
X94601742Y-73089491D01*
X94618536Y-73157312D01*
X94595998Y-73223447D01*
X94550946Y-73262484D01*
X94542182Y-73266949D01*
X94370213Y-73391890D01*
X94219890Y-73542213D01*
X94094951Y-73714179D01*
X93998444Y-73903585D01*
X93932753Y-74105760D01*
X93913686Y-74226145D01*
X93899500Y-74315713D01*
X93899500Y-74528287D01*
X93901243Y-74539289D01*
X93932248Y-74735052D01*
X93932754Y-74738243D01*
X93981492Y-74888243D01*
X93998444Y-74940414D01*
X94094951Y-75129820D01*
X94219890Y-75301786D01*
X94370213Y-75452109D01*
X94542179Y-75577048D01*
X94542181Y-75577049D01*
X94542184Y-75577051D01*
X94731588Y-75673557D01*
X94933757Y-75739246D01*
X95143713Y-75772500D01*
X95143714Y-75772500D01*
X95356286Y-75772500D01*
X95356287Y-75772500D01*
X95566243Y-75739246D01*
X95768412Y-75673557D01*
X95957816Y-75577051D01*
X95987077Y-75555792D01*
X96129786Y-75452109D01*
X96129788Y-75452106D01*
X96129792Y-75452104D01*
X96280104Y-75301792D01*
X96280106Y-75301788D01*
X96280109Y-75301786D01*
X96405048Y-75129820D01*
X96405047Y-75129820D01*
X96405051Y-75129816D01*
X96501557Y-74940412D01*
X96567246Y-74738243D01*
X96600500Y-74528287D01*
X96600500Y-74315713D01*
X96567246Y-74105757D01*
X96501557Y-73903588D01*
X96405051Y-73714184D01*
X96405049Y-73714181D01*
X96405048Y-73714179D01*
X96280109Y-73542213D01*
X96129786Y-73391890D01*
X95957820Y-73266951D01*
X95957115Y-73266591D01*
X95949054Y-73262485D01*
X95898259Y-73214512D01*
X95881463Y-73146692D01*
X95903999Y-73080556D01*
X95949054Y-73041515D01*
X95957816Y-73037051D01*
X95987085Y-73015786D01*
X96129786Y-72912109D01*
X96129788Y-72912106D01*
X96129792Y-72912104D01*
X96280104Y-72761792D01*
X96280106Y-72761788D01*
X96280109Y-72761786D01*
X96405048Y-72589820D01*
X96405047Y-72589820D01*
X96405051Y-72589816D01*
X96501557Y-72400412D01*
X96567246Y-72198243D01*
X96600500Y-71988287D01*
X96600500Y-71775713D01*
X96567246Y-71565757D01*
X96501557Y-71363588D01*
X96405051Y-71174184D01*
X96405049Y-71174181D01*
X96405048Y-71174179D01*
X96280109Y-71002213D01*
X96129792Y-70851896D01*
X96094837Y-70826500D01*
X95957816Y-70726949D01*
X95941589Y-70718681D01*
X95934704Y-70713908D01*
X95917813Y-70692979D01*
X95898259Y-70674512D01*
X95896200Y-70666200D01*
X95890823Y-70659537D01*
X95887928Y-70632798D01*
X95881463Y-70606692D01*
X95884224Y-70598587D01*
X95883303Y-70590073D01*
X95895324Y-70566013D01*
X95903999Y-70540556D01*
X95911132Y-70534374D01*
X95914532Y-70527571D01*
X95928707Y-70519146D01*
X95949054Y-70501515D01*
X95957816Y-70497051D01*
X95987077Y-70475792D01*
X96129786Y-70372109D01*
X96129788Y-70372106D01*
X96129792Y-70372104D01*
X96280104Y-70221792D01*
X96280106Y-70221788D01*
X96280109Y-70221786D01*
X96405048Y-70049820D01*
X96405047Y-70049820D01*
X96405051Y-70049816D01*
X96501557Y-69860412D01*
X96567246Y-69658243D01*
X96600500Y-69448287D01*
X96600500Y-69235713D01*
X96567246Y-69025757D01*
X96501557Y-68823588D01*
X96405051Y-68634184D01*
X96405049Y-68634181D01*
X96405048Y-68634179D01*
X96280109Y-68462213D01*
X96129786Y-68311890D01*
X95957820Y-68186951D01*
X95957115Y-68186591D01*
X95949054Y-68182485D01*
X95898259Y-68134512D01*
X95881463Y-68066692D01*
X95903999Y-68000556D01*
X95949054Y-67961515D01*
X95957816Y-67957051D01*
X96006191Y-67921905D01*
X96129786Y-67832109D01*
X96129788Y-67832106D01*
X96129792Y-67832104D01*
X96280104Y-67681792D01*
X96280106Y-67681788D01*
X96280109Y-67681786D01*
X96405048Y-67509820D01*
X96405047Y-67509820D01*
X96405051Y-67509816D01*
X96501557Y-67320412D01*
X96567246Y-67118243D01*
X96600500Y-66908287D01*
X96600500Y-66695713D01*
X96567246Y-66485757D01*
X96501557Y-66283588D01*
X96405051Y-66094184D01*
X96405049Y-66094181D01*
X96405048Y-66094179D01*
X96280109Y-65922213D01*
X96129786Y-65771890D01*
X96024936Y-65695713D01*
X99602500Y-65695713D01*
X99602500Y-65908286D01*
X99635753Y-66118239D01*
X99701444Y-66320414D01*
X99797951Y-66509820D01*
X99922890Y-66681786D01*
X100073209Y-66832105D01*
X100073214Y-66832109D01*
X100238218Y-66951991D01*
X100280884Y-67007320D01*
X100286863Y-67076934D01*
X100254258Y-67138729D01*
X100238218Y-67152627D01*
X100073540Y-67272272D01*
X100073535Y-67272276D01*
X99923276Y-67422535D01*
X99923272Y-67422540D01*
X99798379Y-67594442D01*
X99701904Y-67783782D01*
X99636242Y-67985870D01*
X99636242Y-67985873D01*
X99625769Y-68052000D01*
X100673854Y-68052000D01*
X100635370Y-68118657D01*
X100603000Y-68239465D01*
X100603000Y-68364535D01*
X100635370Y-68485343D01*
X100673854Y-68552000D01*
X99625769Y-68552000D01*
X99636242Y-68618126D01*
X99636242Y-68618129D01*
X99701904Y-68820217D01*
X99798379Y-69009557D01*
X99923272Y-69181459D01*
X99923276Y-69181464D01*
X100073535Y-69331723D01*
X100073540Y-69331727D01*
X100238218Y-69451372D01*
X100280884Y-69506701D01*
X100286863Y-69576315D01*
X100254258Y-69638110D01*
X100238218Y-69652008D01*
X100073214Y-69771890D01*
X100073209Y-69771894D01*
X99922890Y-69922213D01*
X99797951Y-70094179D01*
X99701444Y-70283585D01*
X99701443Y-70283587D01*
X99701443Y-70283588D01*
X99694870Y-70303817D01*
X99635753Y-70485760D01*
X99612465Y-70632798D01*
X99602500Y-70695713D01*
X99602500Y-70908287D01*
X99605703Y-70928512D01*
X99617376Y-71002213D01*
X99635754Y-71118243D01*
X99680583Y-71256213D01*
X99701444Y-71320414D01*
X99797951Y-71509820D01*
X99922890Y-71681786D01*
X100061705Y-71820601D01*
X100095190Y-71881924D01*
X100090206Y-71951616D01*
X100048334Y-72007549D01*
X100039121Y-72013821D01*
X99884342Y-72109289D01*
X99760289Y-72233342D01*
X99668187Y-72382663D01*
X99668185Y-72382668D01*
X99662305Y-72400414D01*
X99613001Y-72549203D01*
X99613001Y-72549204D01*
X99613000Y-72549204D01*
X99602500Y-72651983D01*
X99602500Y-73952001D01*
X99602501Y-73952018D01*
X99613000Y-74054796D01*
X99613001Y-74054799D01*
X99658237Y-74191311D01*
X99668186Y-74221334D01*
X99760288Y-74370656D01*
X99884344Y-74494712D01*
X100033666Y-74586814D01*
X100200203Y-74641999D01*
X100302991Y-74652500D01*
X101853008Y-74652499D01*
X101955797Y-74641999D01*
X102122334Y-74586814D01*
X102271656Y-74494712D01*
X102395712Y-74370656D01*
X102487814Y-74221334D01*
X102542999Y-74054797D01*
X102553500Y-73952009D01*
X102553499Y-72651992D01*
X102542999Y-72549203D01*
X102487814Y-72382666D01*
X102395712Y-72233344D01*
X102271656Y-72109288D01*
X102122334Y-72017186D01*
X102122333Y-72017185D01*
X102116878Y-72013821D01*
X102070154Y-71961873D01*
X102058931Y-71892910D01*
X102086775Y-71828828D01*
X102094272Y-71820623D01*
X102233104Y-71681792D01*
X102358051Y-71509816D01*
X102454557Y-71320412D01*
X102520246Y-71118243D01*
X102553500Y-70908287D01*
X102553500Y-70695713D01*
X102520246Y-70485757D01*
X102454557Y-70283588D01*
X102358051Y-70094184D01*
X102358049Y-70094181D01*
X102358048Y-70094179D01*
X102233109Y-69922213D01*
X102082790Y-69771894D01*
X102082785Y-69771890D01*
X101917781Y-69652008D01*
X101875115Y-69596678D01*
X101869136Y-69527065D01*
X101901741Y-69465270D01*
X101917781Y-69451371D01*
X102082466Y-69331721D01*
X102232723Y-69181464D01*
X102232727Y-69181459D01*
X102357620Y-69009557D01*
X102454095Y-68820217D01*
X102519757Y-68618129D01*
X102519757Y-68618126D01*
X102530231Y-68552000D01*
X101482146Y-68552000D01*
X101520630Y-68485343D01*
X101553000Y-68364535D01*
X101553000Y-68239465D01*
X101520630Y-68118657D01*
X101482146Y-68052000D01*
X102530231Y-68052000D01*
X102519757Y-67985873D01*
X102519757Y-67985870D01*
X102454095Y-67783782D01*
X102357620Y-67594442D01*
X102232727Y-67422540D01*
X102232723Y-67422535D01*
X102082464Y-67272276D01*
X102082459Y-67272272D01*
X101917781Y-67152627D01*
X101875115Y-67097297D01*
X101869136Y-67027684D01*
X101901741Y-66965889D01*
X101917776Y-66951994D01*
X102082792Y-66832104D01*
X102233104Y-66681792D01*
X102233106Y-66681788D01*
X102233109Y-66681786D01*
X102358048Y-66509820D01*
X102358047Y-66509820D01*
X102358051Y-66509816D01*
X102454557Y-66320412D01*
X102520246Y-66118243D01*
X102553500Y-65908287D01*
X102553500Y-65695713D01*
X102520246Y-65485757D01*
X102454557Y-65283588D01*
X102358051Y-65094184D01*
X102358049Y-65094181D01*
X102358048Y-65094179D01*
X102233109Y-64922213D01*
X102082786Y-64771890D01*
X101910820Y-64646951D01*
X101721414Y-64550444D01*
X101721413Y-64550443D01*
X101721412Y-64550443D01*
X101519243Y-64484754D01*
X101519241Y-64484753D01*
X101519240Y-64484753D01*
X101321693Y-64453465D01*
X101309287Y-64451500D01*
X100846713Y-64451500D01*
X100834307Y-64453465D01*
X100636760Y-64484753D01*
X100434585Y-64550444D01*
X100245179Y-64646951D01*
X100073213Y-64771890D01*
X99922890Y-64922213D01*
X99797951Y-65094179D01*
X99701444Y-65283585D01*
X99701443Y-65283587D01*
X99701443Y-65283588D01*
X99698676Y-65292104D01*
X99635753Y-65485760D01*
X99602500Y-65695713D01*
X96024936Y-65695713D01*
X95957820Y-65646951D01*
X95957115Y-65646591D01*
X95949054Y-65642485D01*
X95898259Y-65594512D01*
X95881463Y-65526692D01*
X95903999Y-65460556D01*
X95949054Y-65421515D01*
X95957816Y-65417051D01*
X96041563Y-65356206D01*
X96129786Y-65292109D01*
X96129788Y-65292106D01*
X96129792Y-65292104D01*
X96280104Y-65141792D01*
X96280106Y-65141788D01*
X96280109Y-65141786D01*
X96405048Y-64969820D01*
X96405047Y-64969820D01*
X96405051Y-64969816D01*
X96501557Y-64780412D01*
X96567246Y-64578243D01*
X96600500Y-64368287D01*
X96600500Y-64155713D01*
X96567246Y-63945757D01*
X96501557Y-63743588D01*
X96405051Y-63554184D01*
X96405049Y-63554181D01*
X96405048Y-63554179D01*
X96280109Y-63382213D01*
X96129786Y-63231890D01*
X95957820Y-63106951D01*
X95956320Y-63106187D01*
X95949054Y-63102485D01*
X95898259Y-63054512D01*
X95881463Y-62986692D01*
X95903999Y-62920556D01*
X95949054Y-62881515D01*
X95957816Y-62877051D01*
X95987085Y-62855786D01*
X96129786Y-62752109D01*
X96129788Y-62752106D01*
X96129792Y-62752104D01*
X96280104Y-62601792D01*
X96280106Y-62601788D01*
X96280109Y-62601786D01*
X96405048Y-62429820D01*
X96405047Y-62429820D01*
X96405051Y-62429816D01*
X96501557Y-62240412D01*
X96567246Y-62038243D01*
X96600500Y-61828287D01*
X96600500Y-61615713D01*
X96567246Y-61405757D01*
X96501557Y-61203588D01*
X96405051Y-61014184D01*
X96405049Y-61014181D01*
X96405048Y-61014179D01*
X96280109Y-60842213D01*
X96129786Y-60691890D01*
X95957820Y-60566951D01*
X95957115Y-60566591D01*
X95949054Y-60562485D01*
X95898259Y-60514512D01*
X95881463Y-60446692D01*
X95903999Y-60380556D01*
X95949054Y-60341515D01*
X95957816Y-60337051D01*
X96020804Y-60291288D01*
X96129786Y-60212109D01*
X96129788Y-60212106D01*
X96129792Y-60212104D01*
X96280104Y-60061792D01*
X96280106Y-60061788D01*
X96280109Y-60061786D01*
X96405048Y-59889820D01*
X96405047Y-59889820D01*
X96405051Y-59889816D01*
X96501557Y-59700412D01*
X96567246Y-59498243D01*
X96600500Y-59288287D01*
X96600500Y-59075713D01*
X96567246Y-58865757D01*
X96501557Y-58663588D01*
X96405051Y-58474184D01*
X96405049Y-58474181D01*
X96405048Y-58474179D01*
X96280109Y-58302213D01*
X96129786Y-58151890D01*
X95957820Y-58026951D01*
X95957115Y-58026591D01*
X95949054Y-58022485D01*
X95898259Y-57974512D01*
X95881463Y-57906692D01*
X95903999Y-57840556D01*
X95949054Y-57801515D01*
X95957816Y-57797051D01*
X96038405Y-57738500D01*
X96129786Y-57672109D01*
X96129788Y-57672106D01*
X96129792Y-57672104D01*
X96280104Y-57521792D01*
X96280106Y-57521788D01*
X96280109Y-57521786D01*
X96405048Y-57349820D01*
X96405047Y-57349820D01*
X96405051Y-57349816D01*
X96501557Y-57160412D01*
X96567246Y-56958243D01*
X96600500Y-56748287D01*
X96600500Y-56535713D01*
X96567246Y-56325757D01*
X96501557Y-56123588D01*
X96405051Y-55934184D01*
X96405049Y-55934181D01*
X96405048Y-55934179D01*
X96280109Y-55762213D01*
X96129786Y-55611890D01*
X95957820Y-55486951D01*
X95957115Y-55486591D01*
X95949054Y-55482485D01*
X95898259Y-55434512D01*
X95881463Y-55366692D01*
X95903999Y-55300556D01*
X95949054Y-55261515D01*
X95957816Y-55257051D01*
X96012595Y-55217252D01*
X96129786Y-55132109D01*
X96129788Y-55132106D01*
X96129792Y-55132104D01*
X96280104Y-54981792D01*
X96280106Y-54981788D01*
X96280109Y-54981786D01*
X96405048Y-54809820D01*
X96405047Y-54809820D01*
X96405051Y-54809816D01*
X96501557Y-54620412D01*
X96567246Y-54418243D01*
X96600500Y-54208287D01*
X96600500Y-53995713D01*
X96567246Y-53785757D01*
X96501557Y-53583588D01*
X96405051Y-53394184D01*
X96405049Y-53394181D01*
X96405048Y-53394179D01*
X96280109Y-53222213D01*
X96129786Y-53071890D01*
X95957820Y-52946951D01*
X95957115Y-52946591D01*
X95949054Y-52942485D01*
X95898259Y-52894512D01*
X95881463Y-52826692D01*
X95903999Y-52760556D01*
X95949054Y-52721515D01*
X95957816Y-52717051D01*
X95979789Y-52701086D01*
X96129786Y-52592109D01*
X96129788Y-52592106D01*
X96129792Y-52592104D01*
X96280104Y-52441792D01*
X96280106Y-52441788D01*
X96280109Y-52441786D01*
X96405048Y-52269820D01*
X96405047Y-52269820D01*
X96405051Y-52269816D01*
X96501557Y-52080412D01*
X96567246Y-51878243D01*
X96600500Y-51668287D01*
X96600500Y-51455713D01*
X96567246Y-51245757D01*
X96501557Y-51043588D01*
X96405051Y-50854184D01*
X96405049Y-50854181D01*
X96405048Y-50854179D01*
X96280109Y-50682213D01*
X96129786Y-50531890D01*
X95957820Y-50406951D01*
X95957115Y-50406591D01*
X95949054Y-50402485D01*
X95898259Y-50354512D01*
X95881463Y-50286692D01*
X95903999Y-50220556D01*
X95949054Y-50181515D01*
X95957816Y-50177051D01*
X96042675Y-50115398D01*
X96129786Y-50052109D01*
X96129788Y-50052106D01*
X96129792Y-50052104D01*
X96280104Y-49901792D01*
X96280106Y-49901788D01*
X96280109Y-49901786D01*
X96405048Y-49729820D01*
X96405047Y-49729820D01*
X96405051Y-49729816D01*
X96501557Y-49540412D01*
X96567246Y-49338243D01*
X96600500Y-49128287D01*
X96600500Y-48915713D01*
X96567246Y-48705757D01*
X96501557Y-48503588D01*
X96405051Y-48314184D01*
X96405049Y-48314181D01*
X96405048Y-48314179D01*
X96280109Y-48142213D01*
X96129786Y-47991890D01*
X95957817Y-47866949D01*
X95948504Y-47862204D01*
X95897707Y-47814230D01*
X95880912Y-47746409D01*
X95903449Y-47680274D01*
X95948507Y-47641232D01*
X95957555Y-47636622D01*
X96011716Y-47597270D01*
X96011717Y-47597270D01*
X95379408Y-46964962D01*
X95442993Y-46947925D01*
X95557007Y-46882099D01*
X95650099Y-46789007D01*
X95715925Y-46674993D01*
X95732962Y-46611408D01*
X96365270Y-47243717D01*
X96365270Y-47243716D01*
X96404622Y-47189554D01*
X96501095Y-47000217D01*
X96566757Y-46798130D01*
X96566757Y-46798127D01*
X96600000Y-46588246D01*
X96600000Y-46375753D01*
X96566757Y-46165872D01*
X96566757Y-46165869D01*
X96501095Y-45963782D01*
X96404624Y-45774449D01*
X96365270Y-45720282D01*
X96365269Y-45720282D01*
X95732962Y-46352590D01*
X95715925Y-46289007D01*
X95650099Y-46174993D01*
X95557007Y-46081901D01*
X95442993Y-46016075D01*
X95379409Y-45999037D01*
X96011716Y-45366728D01*
X95957547Y-45327373D01*
X95957547Y-45327372D01*
X95948500Y-45322763D01*
X95897706Y-45274788D01*
X95880912Y-45206966D01*
X95903451Y-45140832D01*
X95948508Y-45101793D01*
X95957816Y-45097051D01*
X96054970Y-45026465D01*
X96129786Y-44972109D01*
X96129788Y-44972106D01*
X96129792Y-44972104D01*
X96280104Y-44821792D01*
X96280106Y-44821788D01*
X96280109Y-44821786D01*
X96405048Y-44649820D01*
X96405047Y-44649820D01*
X96405051Y-44649816D01*
X96501557Y-44460412D01*
X96567246Y-44258243D01*
X96600500Y-44048287D01*
X96600500Y-43835713D01*
X96567246Y-43625757D01*
X96501557Y-43423588D01*
X96405051Y-43234184D01*
X96405049Y-43234181D01*
X96405048Y-43234179D01*
X96280109Y-43062213D01*
X96129786Y-42911890D01*
X95957820Y-42786951D01*
X95957115Y-42786591D01*
X95949054Y-42782485D01*
X95898259Y-42734512D01*
X95881463Y-42666692D01*
X95903999Y-42600556D01*
X95949054Y-42561515D01*
X95957816Y-42557051D01*
X95979789Y-42541086D01*
X96129786Y-42432109D01*
X96129788Y-42432106D01*
X96129792Y-42432104D01*
X96280104Y-42281792D01*
X96280106Y-42281788D01*
X96280109Y-42281786D01*
X96405048Y-42109820D01*
X96405047Y-42109820D01*
X96405051Y-42109816D01*
X96501557Y-41920412D01*
X96567246Y-41718243D01*
X96600500Y-41508287D01*
X96600500Y-41295713D01*
X96567246Y-41085757D01*
X96501557Y-40883588D01*
X96405051Y-40694184D01*
X96405049Y-40694181D01*
X96405048Y-40694179D01*
X96280109Y-40522213D01*
X96166569Y-40408673D01*
X96133084Y-40347350D01*
X96138068Y-40277658D01*
X96179940Y-40221725D01*
X96210915Y-40204810D01*
X96342331Y-40155796D01*
X96457546Y-40069546D01*
X96543796Y-39954331D01*
X96594091Y-39819483D01*
X96600500Y-39759873D01*
X96600499Y-38755713D01*
X99995500Y-38755713D01*
X99995500Y-38968287D01*
X100028754Y-39178243D01*
X100091222Y-39370500D01*
X100094444Y-39380414D01*
X100190951Y-39569820D01*
X100315890Y-39741786D01*
X100466213Y-39892109D01*
X100638179Y-40017048D01*
X100638181Y-40017049D01*
X100638184Y-40017051D01*
X100827588Y-40113557D01*
X101029757Y-40179246D01*
X101239713Y-40212500D01*
X101239714Y-40212500D01*
X101452286Y-40212500D01*
X101452287Y-40212500D01*
X101662243Y-40179246D01*
X101864412Y-40113557D01*
X102053816Y-40017051D01*
X102087071Y-39992890D01*
X102225786Y-39892109D01*
X102225788Y-39892106D01*
X102225792Y-39892104D01*
X102376104Y-39741792D01*
X102376106Y-39741788D01*
X102376109Y-39741786D01*
X102501048Y-39569820D01*
X102501047Y-39569820D01*
X102501051Y-39569816D01*
X102597557Y-39380412D01*
X102663246Y-39178243D01*
X102696500Y-38968287D01*
X102696500Y-38755713D01*
X102663246Y-38545757D01*
X102597557Y-38343588D01*
X102501051Y-38154184D01*
X102501049Y-38154181D01*
X102501048Y-38154179D01*
X102376109Y-37982213D01*
X102225786Y-37831890D01*
X102053820Y-37706951D01*
X101864414Y-37610444D01*
X101864413Y-37610443D01*
X101864412Y-37610443D01*
X101662243Y-37544754D01*
X101662241Y-37544753D01*
X101662240Y-37544753D01*
X101500957Y-37519208D01*
X101452287Y-37511500D01*
X101239713Y-37511500D01*
X101191042Y-37519208D01*
X101029760Y-37544753D01*
X100827585Y-37610444D01*
X100638179Y-37706951D01*
X100466213Y-37831890D01*
X100315890Y-37982213D01*
X100190951Y-38154179D01*
X100094444Y-38343585D01*
X100028753Y-38545760D01*
X99997506Y-38743045D01*
X99995500Y-38755713D01*
X96600499Y-38755713D01*
X96600499Y-37964128D01*
X96594091Y-37904517D01*
X96594088Y-37904510D01*
X96543797Y-37769671D01*
X96543793Y-37769664D01*
X96457547Y-37654455D01*
X96457544Y-37654452D01*
X96342335Y-37568206D01*
X96342328Y-37568202D01*
X96207482Y-37517908D01*
X96207483Y-37517908D01*
X96147883Y-37511501D01*
X96147881Y-37511500D01*
X96147873Y-37511500D01*
X96147864Y-37511500D01*
X94352129Y-37511500D01*
X94352123Y-37511501D01*
X94292516Y-37517908D01*
X94157671Y-37568202D01*
X94157664Y-37568206D01*
X94042455Y-37654452D01*
X94042452Y-37654455D01*
X93956206Y-37769664D01*
X93956202Y-37769671D01*
X93905908Y-37904517D01*
X93899501Y-37964116D01*
X93899501Y-37964123D01*
X93899500Y-37964135D01*
X92976701Y-37964135D01*
X93007078Y-37904517D01*
X93007082Y-37904510D01*
X93024295Y-37870725D01*
X93044211Y-37831639D01*
X93100171Y-37659409D01*
X93114765Y-37567259D01*
X93128500Y-37480551D01*
X93128500Y-36499448D01*
X93100797Y-36324545D01*
X93100171Y-36320591D01*
X93058580Y-36192584D01*
X93044212Y-36148363D01*
X93044211Y-36148360D01*
X93015740Y-36092484D01*
X92961996Y-35987006D01*
X92948396Y-35968287D01*
X92855558Y-35840505D01*
X92855554Y-35840500D01*
X92727499Y-35712445D01*
X92727494Y-35712441D01*
X92580997Y-35606006D01*
X92580996Y-35606005D01*
X92580994Y-35606004D01*
X92529300Y-35579664D01*
X92419639Y-35523788D01*
X92419636Y-35523787D01*
X92247410Y-35467829D01*
X92068551Y-35439500D01*
X92068546Y-35439500D01*
X91887454Y-35439500D01*
X91887449Y-35439500D01*
X91708589Y-35467829D01*
X91536363Y-35523787D01*
X91536360Y-35523788D01*
X91375002Y-35606006D01*
X91228505Y-35712441D01*
X91228500Y-35712445D01*
X91100445Y-35840500D01*
X91100441Y-35840505D01*
X90994006Y-35987002D01*
X90911788Y-36148360D01*
X90911787Y-36148363D01*
X90881308Y-36242172D01*
X90841871Y-36299847D01*
X90777512Y-36327046D01*
X90708666Y-36315132D01*
X90657190Y-36267888D01*
X90639864Y-36214833D01*
X90637886Y-36192584D01*
X90637886Y-36192583D01*
X90637886Y-36192582D01*
X90581909Y-35996951D01*
X90487698Y-35816593D01*
X90435684Y-35752803D01*
X90359109Y-35658890D01*
X90201409Y-35530304D01*
X90201410Y-35530304D01*
X90201407Y-35530302D01*
X90021049Y-35436091D01*
X90021048Y-35436090D01*
X90021045Y-35436089D01*
X89903829Y-35402550D01*
X89825418Y-35380114D01*
X89825415Y-35380113D01*
X89825413Y-35380113D01*
X89759102Y-35374217D01*
X89706037Y-35369500D01*
X89706032Y-35369500D01*
X85589971Y-35369500D01*
X85589965Y-35369500D01*
X85589964Y-35369501D01*
X85578316Y-35370536D01*
X85470584Y-35380113D01*
X85274954Y-35436089D01*
X85184772Y-35483196D01*
X85094593Y-35530302D01*
X85094591Y-35530303D01*
X85094590Y-35530304D01*
X84936890Y-35658890D01*
X84808304Y-35816590D01*
X84808302Y-35816593D01*
X84761196Y-35906772D01*
X84714089Y-35996954D01*
X84658114Y-36192583D01*
X84658113Y-36192585D01*
X84656135Y-36214837D01*
X84630589Y-36279869D01*
X84573940Y-36320767D01*
X84504172Y-36324545D01*
X84443438Y-36290005D01*
X84414691Y-36242170D01*
X84384213Y-36148366D01*
X84384211Y-36148360D01*
X84355740Y-36092484D01*
X84301996Y-35987006D01*
X84288396Y-35968287D01*
X84195558Y-35840505D01*
X84195554Y-35840500D01*
X84067499Y-35712445D01*
X84067494Y-35712441D01*
X83920997Y-35606006D01*
X83920996Y-35606005D01*
X83920994Y-35606004D01*
X83869300Y-35579664D01*
X83759639Y-35523788D01*
X83759636Y-35523787D01*
X83587410Y-35467829D01*
X83408551Y-35439500D01*
X83408546Y-35439500D01*
X83227454Y-35439500D01*
X83227449Y-35439500D01*
X83048589Y-35467829D01*
X82876363Y-35523787D01*
X82876360Y-35523788D01*
X82715002Y-35606006D01*
X82568505Y-35712441D01*
X82568500Y-35712445D01*
X82440445Y-35840500D01*
X82440441Y-35840505D01*
X82334006Y-35987002D01*
X82251788Y-36148360D01*
X82251787Y-36148363D01*
X82195829Y-36320589D01*
X82167500Y-36499448D01*
X34282500Y-36499448D01*
X34282500Y-34660500D01*
X34302185Y-34593461D01*
X34354989Y-34547706D01*
X34406500Y-34536500D01*
X105293500Y-34536500D01*
X105360539Y-34556185D01*
G37*
%TD.AperFunction*%
%TD*%
M02*
