%TF.GenerationSoftware,KiCad,Pcbnew,9.0.7-9.0.7~ubuntu24.04.1*%
%TF.CreationDate,2026-03-23T21:50:19+01:00*%
%TF.ProjectId,iasserv,69617373-6572-4762-9e6b-696361645f70,rev?*%
%TF.SameCoordinates,Original*%
%TF.FileFunction,Legend,Top*%
%TF.FilePolarity,Positive*%
%FSLAX46Y46*%
G04 Gerber Fmt 4.6, Leading zero omitted, Abs format (unit mm)*
G04 Created by KiCad (PCBNEW 9.0.7-9.0.7~ubuntu24.04.1) date 2026-03-23 21:50:19*
%MOMM*%
%LPD*%
G01*
G04 APERTURE LIST*
G04 Aperture macros list*
%AMRoundRect*
0 Rectangle with rounded corners*
0 $1 Rounding radius*
0 $2 $3 $4 $5 $6 $7 $8 $9 X,Y pos of 4 corners*
0 Add a 4 corners polygon primitive as box body*
4,1,4,$2,$3,$4,$5,$6,$7,$8,$9,$2,$3,0*
0 Add four circle primitives for the rounded corners*
1,1,$1+$1,$2,$3*
1,1,$1+$1,$4,$5*
1,1,$1+$1,$6,$7*
1,1,$1+$1,$8,$9*
0 Add four rect primitives between the rounded corners*
20,1,$1+$1,$2,$3,$4,$5,0*
20,1,$1+$1,$4,$5,$6,$7,0*
20,1,$1+$1,$6,$7,$8,$9,0*
20,1,$1+$1,$8,$9,$2,$3,0*%
G04 Aperture macros list end*
%ADD10C,0.100000*%
%ADD11C,0.150000*%
%ADD12C,0.120000*%
%ADD13C,0.127000*%
%ADD14C,0.200000*%
%ADD15RoundRect,0.219000X0.219000X0.294000X-0.219000X0.294000X-0.219000X-0.294000X0.219000X-0.294000X0*%
%ADD16RoundRect,0.250000X0.600000X0.725000X-0.600000X0.725000X-0.600000X-0.725000X0.600000X-0.725000X0*%
%ADD17O,1.700000X1.950000*%
%ADD18RoundRect,0.250000X0.725000X-0.600000X0.725000X0.600000X-0.725000X0.600000X-0.725000X-0.600000X0*%
%ADD19O,1.950000X1.700000*%
%ADD20RoundRect,0.250000X-0.750000X0.600000X-0.750000X-0.600000X0.750000X-0.600000X0.750000X0.600000X0*%
%ADD21O,2.000000X1.700000*%
%ADD22R,1.700000X1.700000*%
%ADD23C,1.700000*%
%ADD24RoundRect,0.250000X-0.725000X0.600000X-0.725000X-0.600000X0.725000X-0.600000X0.725000X0.600000X0*%
%ADD25RoundRect,0.250000X0.750000X-0.600000X0.750000X0.600000X-0.750000X0.600000X-0.750000X-0.600000X0*%
%ADD26RoundRect,0.102000X-0.937500X0.937500X-0.937500X-0.937500X0.937500X-0.937500X0.937500X0.937500X0*%
%ADD27C,2.079000*%
%ADD28C,0.600000*%
%ADD29R,0.300000X1.400000*%
%ADD30R,0.500000X1.400000*%
%ADD31O,1.300000X2.300000*%
%ADD32O,1.300000X2.100000*%
%ADD33C,0.500000*%
%ADD34RoundRect,0.500000X2.000000X1.000000X-2.000000X1.000000X-2.000000X-1.000000X2.000000X-1.000000X0*%
G04 APERTURE END LIST*
D10*
X65668265Y-36654800D02*
X65811122Y-36702419D01*
X65811122Y-36702419D02*
X66049217Y-36702419D01*
X66049217Y-36702419D02*
X66144455Y-36654800D01*
X66144455Y-36654800D02*
X66192074Y-36607180D01*
X66192074Y-36607180D02*
X66239693Y-36511942D01*
X66239693Y-36511942D02*
X66239693Y-36416704D01*
X66239693Y-36416704D02*
X66192074Y-36321466D01*
X66192074Y-36321466D02*
X66144455Y-36273847D01*
X66144455Y-36273847D02*
X66049217Y-36226228D01*
X66049217Y-36226228D02*
X65858741Y-36178609D01*
X65858741Y-36178609D02*
X65763503Y-36130990D01*
X65763503Y-36130990D02*
X65715884Y-36083371D01*
X65715884Y-36083371D02*
X65668265Y-35988133D01*
X65668265Y-35988133D02*
X65668265Y-35892895D01*
X65668265Y-35892895D02*
X65715884Y-35797657D01*
X65715884Y-35797657D02*
X65763503Y-35750038D01*
X65763503Y-35750038D02*
X65858741Y-35702419D01*
X65858741Y-35702419D02*
X66096836Y-35702419D01*
X66096836Y-35702419D02*
X66239693Y-35750038D01*
X67239693Y-36702419D02*
X66906360Y-36226228D01*
X66668265Y-36702419D02*
X66668265Y-35702419D01*
X66668265Y-35702419D02*
X67049217Y-35702419D01*
X67049217Y-35702419D02*
X67144455Y-35750038D01*
X67144455Y-35750038D02*
X67192074Y-35797657D01*
X67192074Y-35797657D02*
X67239693Y-35892895D01*
X67239693Y-35892895D02*
X67239693Y-36035752D01*
X67239693Y-36035752D02*
X67192074Y-36130990D01*
X67192074Y-36130990D02*
X67144455Y-36178609D01*
X67144455Y-36178609D02*
X67049217Y-36226228D01*
X67049217Y-36226228D02*
X66668265Y-36226228D01*
X68001598Y-36178609D02*
X67668265Y-36178609D01*
X67668265Y-36702419D02*
X67668265Y-35702419D01*
X67668265Y-35702419D02*
X68144455Y-35702419D01*
X68858741Y-36178609D02*
X69001598Y-36226228D01*
X69001598Y-36226228D02*
X69049217Y-36273847D01*
X69049217Y-36273847D02*
X69096836Y-36369085D01*
X69096836Y-36369085D02*
X69096836Y-36511942D01*
X69096836Y-36511942D02*
X69049217Y-36607180D01*
X69049217Y-36607180D02*
X69001598Y-36654800D01*
X69001598Y-36654800D02*
X68906360Y-36702419D01*
X68906360Y-36702419D02*
X68525408Y-36702419D01*
X68525408Y-36702419D02*
X68525408Y-35702419D01*
X68525408Y-35702419D02*
X68858741Y-35702419D01*
X68858741Y-35702419D02*
X68953979Y-35750038D01*
X68953979Y-35750038D02*
X69001598Y-35797657D01*
X69001598Y-35797657D02*
X69049217Y-35892895D01*
X69049217Y-35892895D02*
X69049217Y-35988133D01*
X69049217Y-35988133D02*
X69001598Y-36083371D01*
X69001598Y-36083371D02*
X68953979Y-36130990D01*
X68953979Y-36130990D02*
X68858741Y-36178609D01*
X68858741Y-36178609D02*
X68525408Y-36178609D01*
X53476265Y-36654800D02*
X53619122Y-36702419D01*
X53619122Y-36702419D02*
X53857217Y-36702419D01*
X53857217Y-36702419D02*
X53952455Y-36654800D01*
X53952455Y-36654800D02*
X54000074Y-36607180D01*
X54000074Y-36607180D02*
X54047693Y-36511942D01*
X54047693Y-36511942D02*
X54047693Y-36416704D01*
X54047693Y-36416704D02*
X54000074Y-36321466D01*
X54000074Y-36321466D02*
X53952455Y-36273847D01*
X53952455Y-36273847D02*
X53857217Y-36226228D01*
X53857217Y-36226228D02*
X53666741Y-36178609D01*
X53666741Y-36178609D02*
X53571503Y-36130990D01*
X53571503Y-36130990D02*
X53523884Y-36083371D01*
X53523884Y-36083371D02*
X53476265Y-35988133D01*
X53476265Y-35988133D02*
X53476265Y-35892895D01*
X53476265Y-35892895D02*
X53523884Y-35797657D01*
X53523884Y-35797657D02*
X53571503Y-35750038D01*
X53571503Y-35750038D02*
X53666741Y-35702419D01*
X53666741Y-35702419D02*
X53904836Y-35702419D01*
X53904836Y-35702419D02*
X54047693Y-35750038D01*
X55047693Y-36702419D02*
X54714360Y-36226228D01*
X54476265Y-36702419D02*
X54476265Y-35702419D01*
X54476265Y-35702419D02*
X54857217Y-35702419D01*
X54857217Y-35702419D02*
X54952455Y-35750038D01*
X54952455Y-35750038D02*
X55000074Y-35797657D01*
X55000074Y-35797657D02*
X55047693Y-35892895D01*
X55047693Y-35892895D02*
X55047693Y-36035752D01*
X55047693Y-36035752D02*
X55000074Y-36130990D01*
X55000074Y-36130990D02*
X54952455Y-36178609D01*
X54952455Y-36178609D02*
X54857217Y-36226228D01*
X54857217Y-36226228D02*
X54476265Y-36226228D01*
X55809598Y-36178609D02*
X55476265Y-36178609D01*
X55476265Y-36702419D02*
X55476265Y-35702419D01*
X55476265Y-35702419D02*
X55952455Y-35702419D01*
X56285789Y-36416704D02*
X56761979Y-36416704D01*
X56190551Y-36702419D02*
X56523884Y-35702419D01*
X56523884Y-35702419D02*
X56857217Y-36702419D01*
X57714360Y-35750038D02*
X57619122Y-35702419D01*
X57619122Y-35702419D02*
X57476265Y-35702419D01*
X57476265Y-35702419D02*
X57333408Y-35750038D01*
X57333408Y-35750038D02*
X57238170Y-35845276D01*
X57238170Y-35845276D02*
X57190551Y-35940514D01*
X57190551Y-35940514D02*
X57142932Y-36130990D01*
X57142932Y-36130990D02*
X57142932Y-36273847D01*
X57142932Y-36273847D02*
X57190551Y-36464323D01*
X57190551Y-36464323D02*
X57238170Y-36559561D01*
X57238170Y-36559561D02*
X57333408Y-36654800D01*
X57333408Y-36654800D02*
X57476265Y-36702419D01*
X57476265Y-36702419D02*
X57571503Y-36702419D01*
X57571503Y-36702419D02*
X57714360Y-36654800D01*
X57714360Y-36654800D02*
X57761979Y-36607180D01*
X57761979Y-36607180D02*
X57761979Y-36273847D01*
X57761979Y-36273847D02*
X57571503Y-36273847D01*
X42449180Y-91326687D02*
X42496800Y-91374306D01*
X42496800Y-91374306D02*
X42544419Y-91517163D01*
X42544419Y-91517163D02*
X42544419Y-91612401D01*
X42544419Y-91612401D02*
X42496800Y-91755258D01*
X42496800Y-91755258D02*
X42401561Y-91850496D01*
X42401561Y-91850496D02*
X42306323Y-91898115D01*
X42306323Y-91898115D02*
X42115847Y-91945734D01*
X42115847Y-91945734D02*
X41972990Y-91945734D01*
X41972990Y-91945734D02*
X41782514Y-91898115D01*
X41782514Y-91898115D02*
X41687276Y-91850496D01*
X41687276Y-91850496D02*
X41592038Y-91755258D01*
X41592038Y-91755258D02*
X41544419Y-91612401D01*
X41544419Y-91612401D02*
X41544419Y-91517163D01*
X41544419Y-91517163D02*
X41592038Y-91374306D01*
X41592038Y-91374306D02*
X41639657Y-91326687D01*
X41544419Y-90707639D02*
X41544419Y-90517163D01*
X41544419Y-90517163D02*
X41592038Y-90421925D01*
X41592038Y-90421925D02*
X41687276Y-90326687D01*
X41687276Y-90326687D02*
X41877752Y-90279068D01*
X41877752Y-90279068D02*
X42211085Y-90279068D01*
X42211085Y-90279068D02*
X42401561Y-90326687D01*
X42401561Y-90326687D02*
X42496800Y-90421925D01*
X42496800Y-90421925D02*
X42544419Y-90517163D01*
X42544419Y-90517163D02*
X42544419Y-90707639D01*
X42544419Y-90707639D02*
X42496800Y-90802877D01*
X42496800Y-90802877D02*
X42401561Y-90898115D01*
X42401561Y-90898115D02*
X42211085Y-90945734D01*
X42211085Y-90945734D02*
X41877752Y-90945734D01*
X41877752Y-90945734D02*
X41687276Y-90898115D01*
X41687276Y-90898115D02*
X41592038Y-90802877D01*
X41592038Y-90802877D02*
X41544419Y-90707639D01*
X41544419Y-89850496D02*
X42353942Y-89850496D01*
X42353942Y-89850496D02*
X42449180Y-89802877D01*
X42449180Y-89802877D02*
X42496800Y-89755258D01*
X42496800Y-89755258D02*
X42544419Y-89660020D01*
X42544419Y-89660020D02*
X42544419Y-89469544D01*
X42544419Y-89469544D02*
X42496800Y-89374306D01*
X42496800Y-89374306D02*
X42449180Y-89326687D01*
X42449180Y-89326687D02*
X42353942Y-89279068D01*
X42353942Y-89279068D02*
X41544419Y-89279068D01*
X42544419Y-88326687D02*
X42544419Y-88802877D01*
X42544419Y-88802877D02*
X41544419Y-88802877D01*
X42020609Y-87993353D02*
X42020609Y-87660020D01*
X42544419Y-87517163D02*
X42544419Y-87993353D01*
X42544419Y-87993353D02*
X41544419Y-87993353D01*
X41544419Y-87993353D02*
X41544419Y-87517163D01*
X41544419Y-87088591D02*
X42353942Y-87088591D01*
X42353942Y-87088591D02*
X42449180Y-87040972D01*
X42449180Y-87040972D02*
X42496800Y-86993353D01*
X42496800Y-86993353D02*
X42544419Y-86898115D01*
X42544419Y-86898115D02*
X42544419Y-86707639D01*
X42544419Y-86707639D02*
X42496800Y-86612401D01*
X42496800Y-86612401D02*
X42449180Y-86564782D01*
X42449180Y-86564782D02*
X42353942Y-86517163D01*
X42353942Y-86517163D02*
X41544419Y-86517163D01*
X42544419Y-85469544D02*
X42068228Y-85802877D01*
X42544419Y-86040972D02*
X41544419Y-86040972D01*
X41544419Y-86040972D02*
X41544419Y-85660020D01*
X41544419Y-85660020D02*
X41592038Y-85564782D01*
X41592038Y-85564782D02*
X41639657Y-85517163D01*
X41639657Y-85517163D02*
X41734895Y-85469544D01*
X41734895Y-85469544D02*
X41877752Y-85469544D01*
X41877752Y-85469544D02*
X41972990Y-85517163D01*
X41972990Y-85517163D02*
X42020609Y-85564782D01*
X42020609Y-85564782D02*
X42068228Y-85660020D01*
X42068228Y-85660020D02*
X42068228Y-86040972D01*
X68328265Y-60022800D02*
X68471122Y-60070419D01*
X68471122Y-60070419D02*
X68709217Y-60070419D01*
X68709217Y-60070419D02*
X68804455Y-60022800D01*
X68804455Y-60022800D02*
X68852074Y-59975180D01*
X68852074Y-59975180D02*
X68899693Y-59879942D01*
X68899693Y-59879942D02*
X68899693Y-59784704D01*
X68899693Y-59784704D02*
X68852074Y-59689466D01*
X68852074Y-59689466D02*
X68804455Y-59641847D01*
X68804455Y-59641847D02*
X68709217Y-59594228D01*
X68709217Y-59594228D02*
X68518741Y-59546609D01*
X68518741Y-59546609D02*
X68423503Y-59498990D01*
X68423503Y-59498990D02*
X68375884Y-59451371D01*
X68375884Y-59451371D02*
X68328265Y-59356133D01*
X68328265Y-59356133D02*
X68328265Y-59260895D01*
X68328265Y-59260895D02*
X68375884Y-59165657D01*
X68375884Y-59165657D02*
X68423503Y-59118038D01*
X68423503Y-59118038D02*
X68518741Y-59070419D01*
X68518741Y-59070419D02*
X68756836Y-59070419D01*
X68756836Y-59070419D02*
X68899693Y-59118038D01*
X69899693Y-60070419D02*
X69566360Y-59594228D01*
X69328265Y-60070419D02*
X69328265Y-59070419D01*
X69328265Y-59070419D02*
X69709217Y-59070419D01*
X69709217Y-59070419D02*
X69804455Y-59118038D01*
X69804455Y-59118038D02*
X69852074Y-59165657D01*
X69852074Y-59165657D02*
X69899693Y-59260895D01*
X69899693Y-59260895D02*
X69899693Y-59403752D01*
X69899693Y-59403752D02*
X69852074Y-59498990D01*
X69852074Y-59498990D02*
X69804455Y-59546609D01*
X69804455Y-59546609D02*
X69709217Y-59594228D01*
X69709217Y-59594228D02*
X69328265Y-59594228D01*
X70661598Y-59546609D02*
X70328265Y-59546609D01*
X70328265Y-60070419D02*
X70328265Y-59070419D01*
X70328265Y-59070419D02*
X70804455Y-59070419D01*
X71137789Y-59784704D02*
X71613979Y-59784704D01*
X71042551Y-60070419D02*
X71375884Y-59070419D01*
X71375884Y-59070419D02*
X71709217Y-60070419D01*
X72042551Y-60070419D02*
X72042551Y-59070419D01*
X72042551Y-59070419D02*
X72375884Y-59784704D01*
X72375884Y-59784704D02*
X72709217Y-59070419D01*
X72709217Y-59070419D02*
X72709217Y-60070419D01*
X92307884Y-79865419D02*
X92307884Y-78865419D01*
X92307884Y-78865419D02*
X92688836Y-78865419D01*
X92688836Y-78865419D02*
X92784074Y-78913038D01*
X92784074Y-78913038D02*
X92831693Y-78960657D01*
X92831693Y-78960657D02*
X92879312Y-79055895D01*
X92879312Y-79055895D02*
X92879312Y-79198752D01*
X92879312Y-79198752D02*
X92831693Y-79293990D01*
X92831693Y-79293990D02*
X92784074Y-79341609D01*
X92784074Y-79341609D02*
X92688836Y-79389228D01*
X92688836Y-79389228D02*
X92307884Y-79389228D01*
X93450741Y-79865419D02*
X93355503Y-79817800D01*
X93355503Y-79817800D02*
X93307884Y-79770180D01*
X93307884Y-79770180D02*
X93260265Y-79674942D01*
X93260265Y-79674942D02*
X93260265Y-79389228D01*
X93260265Y-79389228D02*
X93307884Y-79293990D01*
X93307884Y-79293990D02*
X93355503Y-79246371D01*
X93355503Y-79246371D02*
X93450741Y-79198752D01*
X93450741Y-79198752D02*
X93593598Y-79198752D01*
X93593598Y-79198752D02*
X93688836Y-79246371D01*
X93688836Y-79246371D02*
X93736455Y-79293990D01*
X93736455Y-79293990D02*
X93784074Y-79389228D01*
X93784074Y-79389228D02*
X93784074Y-79674942D01*
X93784074Y-79674942D02*
X93736455Y-79770180D01*
X93736455Y-79770180D02*
X93688836Y-79817800D01*
X93688836Y-79817800D02*
X93593598Y-79865419D01*
X93593598Y-79865419D02*
X93450741Y-79865419D01*
X94117408Y-79198752D02*
X94307884Y-79865419D01*
X94307884Y-79865419D02*
X94498360Y-79389228D01*
X94498360Y-79389228D02*
X94688836Y-79865419D01*
X94688836Y-79865419D02*
X94879312Y-79198752D01*
X95641217Y-79817800D02*
X95545979Y-79865419D01*
X95545979Y-79865419D02*
X95355503Y-79865419D01*
X95355503Y-79865419D02*
X95260265Y-79817800D01*
X95260265Y-79817800D02*
X95212646Y-79722561D01*
X95212646Y-79722561D02*
X95212646Y-79341609D01*
X95212646Y-79341609D02*
X95260265Y-79246371D01*
X95260265Y-79246371D02*
X95355503Y-79198752D01*
X95355503Y-79198752D02*
X95545979Y-79198752D01*
X95545979Y-79198752D02*
X95641217Y-79246371D01*
X95641217Y-79246371D02*
X95688836Y-79341609D01*
X95688836Y-79341609D02*
X95688836Y-79436847D01*
X95688836Y-79436847D02*
X95212646Y-79532085D01*
X96117408Y-79865419D02*
X96117408Y-79198752D01*
X96117408Y-79389228D02*
X96165027Y-79293990D01*
X96165027Y-79293990D02*
X96212646Y-79246371D01*
X96212646Y-79246371D02*
X96307884Y-79198752D01*
X96307884Y-79198752D02*
X96403122Y-79198752D01*
X41544419Y-80864972D02*
X41544419Y-80293544D01*
X42544419Y-80579258D02*
X41544419Y-80579258D01*
X42544419Y-79960210D02*
X41544419Y-79960210D01*
X42544419Y-78912592D02*
X42068228Y-79245925D01*
X42544419Y-79484020D02*
X41544419Y-79484020D01*
X41544419Y-79484020D02*
X41544419Y-79103068D01*
X41544419Y-79103068D02*
X41592038Y-79007830D01*
X41592038Y-79007830D02*
X41639657Y-78960211D01*
X41639657Y-78960211D02*
X41734895Y-78912592D01*
X41734895Y-78912592D02*
X41877752Y-78912592D01*
X41877752Y-78912592D02*
X41972990Y-78960211D01*
X41972990Y-78960211D02*
X42020609Y-79007830D01*
X42020609Y-79007830D02*
X42068228Y-79103068D01*
X42068228Y-79103068D02*
X42068228Y-79484020D01*
X42020609Y-78484020D02*
X42020609Y-78150687D01*
X42544419Y-78007830D02*
X42544419Y-78484020D01*
X42544419Y-78484020D02*
X41544419Y-78484020D01*
X41544419Y-78484020D02*
X41544419Y-78007830D01*
X41544419Y-77722115D02*
X41544419Y-77150687D01*
X42544419Y-77436401D02*
X41544419Y-77436401D01*
X41544419Y-76960210D02*
X41544419Y-76388782D01*
X42544419Y-76674496D02*
X41544419Y-76674496D01*
X42020609Y-76055448D02*
X42020609Y-75722115D01*
X42544419Y-75579258D02*
X42544419Y-76055448D01*
X42544419Y-76055448D02*
X41544419Y-76055448D01*
X41544419Y-76055448D02*
X41544419Y-75579258D01*
X97966609Y-61866115D02*
X97966609Y-61532782D01*
X98490419Y-61389925D02*
X98490419Y-61866115D01*
X98490419Y-61866115D02*
X97490419Y-61866115D01*
X97490419Y-61866115D02*
X97490419Y-61389925D01*
X98490419Y-60961353D02*
X97490419Y-60961353D01*
X97490419Y-60961353D02*
X98490419Y-60389925D01*
X98490419Y-60389925D02*
X97490419Y-60389925D01*
X98395180Y-59342306D02*
X98442800Y-59389925D01*
X98442800Y-59389925D02*
X98490419Y-59532782D01*
X98490419Y-59532782D02*
X98490419Y-59628020D01*
X98490419Y-59628020D02*
X98442800Y-59770877D01*
X98442800Y-59770877D02*
X98347561Y-59866115D01*
X98347561Y-59866115D02*
X98252323Y-59913734D01*
X98252323Y-59913734D02*
X98061847Y-59961353D01*
X98061847Y-59961353D02*
X97918990Y-59961353D01*
X97918990Y-59961353D02*
X97728514Y-59913734D01*
X97728514Y-59913734D02*
X97633276Y-59866115D01*
X97633276Y-59866115D02*
X97538038Y-59770877D01*
X97538038Y-59770877D02*
X97490419Y-59628020D01*
X97490419Y-59628020D02*
X97490419Y-59532782D01*
X97490419Y-59532782D02*
X97538038Y-59389925D01*
X97538038Y-59389925D02*
X97585657Y-59342306D01*
X98490419Y-58913734D02*
X97490419Y-58913734D01*
X97490419Y-58913734D02*
X97490419Y-58675639D01*
X97490419Y-58675639D02*
X97538038Y-58532782D01*
X97538038Y-58532782D02*
X97633276Y-58437544D01*
X97633276Y-58437544D02*
X97728514Y-58389925D01*
X97728514Y-58389925D02*
X97918990Y-58342306D01*
X97918990Y-58342306D02*
X98061847Y-58342306D01*
X98061847Y-58342306D02*
X98252323Y-58389925D01*
X98252323Y-58389925D02*
X98347561Y-58437544D01*
X98347561Y-58437544D02*
X98442800Y-58532782D01*
X98442800Y-58532782D02*
X98490419Y-58675639D01*
X98490419Y-58675639D02*
X98490419Y-58913734D01*
X97980609Y-47896115D02*
X97980609Y-47562782D01*
X98504419Y-47419925D02*
X98504419Y-47896115D01*
X98504419Y-47896115D02*
X97504419Y-47896115D01*
X97504419Y-47896115D02*
X97504419Y-47419925D01*
X98504419Y-46991353D02*
X97504419Y-46991353D01*
X97504419Y-46991353D02*
X98504419Y-46419925D01*
X98504419Y-46419925D02*
X97504419Y-46419925D01*
X98409180Y-45372306D02*
X98456800Y-45419925D01*
X98456800Y-45419925D02*
X98504419Y-45562782D01*
X98504419Y-45562782D02*
X98504419Y-45658020D01*
X98504419Y-45658020D02*
X98456800Y-45800877D01*
X98456800Y-45800877D02*
X98361561Y-45896115D01*
X98361561Y-45896115D02*
X98266323Y-45943734D01*
X98266323Y-45943734D02*
X98075847Y-45991353D01*
X98075847Y-45991353D02*
X97932990Y-45991353D01*
X97932990Y-45991353D02*
X97742514Y-45943734D01*
X97742514Y-45943734D02*
X97647276Y-45896115D01*
X97647276Y-45896115D02*
X97552038Y-45800877D01*
X97552038Y-45800877D02*
X97504419Y-45658020D01*
X97504419Y-45658020D02*
X97504419Y-45562782D01*
X97504419Y-45562782D02*
X97552038Y-45419925D01*
X97552038Y-45419925D02*
X97599657Y-45372306D01*
X97552038Y-44419925D02*
X97504419Y-44515163D01*
X97504419Y-44515163D02*
X97504419Y-44658020D01*
X97504419Y-44658020D02*
X97552038Y-44800877D01*
X97552038Y-44800877D02*
X97647276Y-44896115D01*
X97647276Y-44896115D02*
X97742514Y-44943734D01*
X97742514Y-44943734D02*
X97932990Y-44991353D01*
X97932990Y-44991353D02*
X98075847Y-44991353D01*
X98075847Y-44991353D02*
X98266323Y-44943734D01*
X98266323Y-44943734D02*
X98361561Y-44896115D01*
X98361561Y-44896115D02*
X98456800Y-44800877D01*
X98456800Y-44800877D02*
X98504419Y-44658020D01*
X98504419Y-44658020D02*
X98504419Y-44562782D01*
X98504419Y-44562782D02*
X98456800Y-44419925D01*
X98456800Y-44419925D02*
X98409180Y-44372306D01*
X98409180Y-44372306D02*
X98075847Y-44372306D01*
X98075847Y-44372306D02*
X98075847Y-44562782D01*
X54104265Y-60022800D02*
X54247122Y-60070419D01*
X54247122Y-60070419D02*
X54485217Y-60070419D01*
X54485217Y-60070419D02*
X54580455Y-60022800D01*
X54580455Y-60022800D02*
X54628074Y-59975180D01*
X54628074Y-59975180D02*
X54675693Y-59879942D01*
X54675693Y-59879942D02*
X54675693Y-59784704D01*
X54675693Y-59784704D02*
X54628074Y-59689466D01*
X54628074Y-59689466D02*
X54580455Y-59641847D01*
X54580455Y-59641847D02*
X54485217Y-59594228D01*
X54485217Y-59594228D02*
X54294741Y-59546609D01*
X54294741Y-59546609D02*
X54199503Y-59498990D01*
X54199503Y-59498990D02*
X54151884Y-59451371D01*
X54151884Y-59451371D02*
X54104265Y-59356133D01*
X54104265Y-59356133D02*
X54104265Y-59260895D01*
X54104265Y-59260895D02*
X54151884Y-59165657D01*
X54151884Y-59165657D02*
X54199503Y-59118038D01*
X54199503Y-59118038D02*
X54294741Y-59070419D01*
X54294741Y-59070419D02*
X54532836Y-59070419D01*
X54532836Y-59070419D02*
X54675693Y-59118038D01*
X55675693Y-60070419D02*
X55342360Y-59594228D01*
X55104265Y-60070419D02*
X55104265Y-59070419D01*
X55104265Y-59070419D02*
X55485217Y-59070419D01*
X55485217Y-59070419D02*
X55580455Y-59118038D01*
X55580455Y-59118038D02*
X55628074Y-59165657D01*
X55628074Y-59165657D02*
X55675693Y-59260895D01*
X55675693Y-59260895D02*
X55675693Y-59403752D01*
X55675693Y-59403752D02*
X55628074Y-59498990D01*
X55628074Y-59498990D02*
X55580455Y-59546609D01*
X55580455Y-59546609D02*
X55485217Y-59594228D01*
X55485217Y-59594228D02*
X55104265Y-59594228D01*
X56437598Y-59546609D02*
X56104265Y-59546609D01*
X56104265Y-60070419D02*
X56104265Y-59070419D01*
X56104265Y-59070419D02*
X56580455Y-59070419D01*
X56913789Y-59784704D02*
X57389979Y-59784704D01*
X56818551Y-60070419D02*
X57151884Y-59070419D01*
X57151884Y-59070419D02*
X57485217Y-60070419D01*
X57818551Y-60070419D02*
X57818551Y-59070419D01*
X57818551Y-59070419D02*
X58056646Y-59070419D01*
X58056646Y-59070419D02*
X58199503Y-59118038D01*
X58199503Y-59118038D02*
X58294741Y-59213276D01*
X58294741Y-59213276D02*
X58342360Y-59308514D01*
X58342360Y-59308514D02*
X58389979Y-59498990D01*
X58389979Y-59498990D02*
X58389979Y-59641847D01*
X58389979Y-59641847D02*
X58342360Y-59832323D01*
X58342360Y-59832323D02*
X58294741Y-59927561D01*
X58294741Y-59927561D02*
X58199503Y-60022800D01*
X58199503Y-60022800D02*
X58056646Y-60070419D01*
X58056646Y-60070419D02*
X57818551Y-60070419D01*
X37387884Y-58292419D02*
X37387884Y-57292419D01*
X37816455Y-57387657D02*
X37864074Y-57340038D01*
X37864074Y-57340038D02*
X37959312Y-57292419D01*
X37959312Y-57292419D02*
X38197407Y-57292419D01*
X38197407Y-57292419D02*
X38292645Y-57340038D01*
X38292645Y-57340038D02*
X38340264Y-57387657D01*
X38340264Y-57387657D02*
X38387883Y-57482895D01*
X38387883Y-57482895D02*
X38387883Y-57578133D01*
X38387883Y-57578133D02*
X38340264Y-57720990D01*
X38340264Y-57720990D02*
X37768836Y-58292419D01*
X37768836Y-58292419D02*
X38387883Y-58292419D01*
X39387883Y-58197180D02*
X39340264Y-58244800D01*
X39340264Y-58244800D02*
X39197407Y-58292419D01*
X39197407Y-58292419D02*
X39102169Y-58292419D01*
X39102169Y-58292419D02*
X38959312Y-58244800D01*
X38959312Y-58244800D02*
X38864074Y-58149561D01*
X38864074Y-58149561D02*
X38816455Y-58054323D01*
X38816455Y-58054323D02*
X38768836Y-57863847D01*
X38768836Y-57863847D02*
X38768836Y-57720990D01*
X38768836Y-57720990D02*
X38816455Y-57530514D01*
X38816455Y-57530514D02*
X38864074Y-57435276D01*
X38864074Y-57435276D02*
X38959312Y-57340038D01*
X38959312Y-57340038D02*
X39102169Y-57292419D01*
X39102169Y-57292419D02*
X39197407Y-57292419D01*
X39197407Y-57292419D02*
X39340264Y-57340038D01*
X39340264Y-57340038D02*
X39387883Y-57387657D01*
X69976419Y-53290115D02*
X68976419Y-53290115D01*
X68976419Y-53290115D02*
X69690704Y-52956782D01*
X69690704Y-52956782D02*
X68976419Y-52623449D01*
X68976419Y-52623449D02*
X69976419Y-52623449D01*
X69976419Y-52147258D02*
X68976419Y-52147258D01*
X68976419Y-52147258D02*
X68976419Y-51909163D01*
X68976419Y-51909163D02*
X69024038Y-51766306D01*
X69024038Y-51766306D02*
X69119276Y-51671068D01*
X69119276Y-51671068D02*
X69214514Y-51623449D01*
X69214514Y-51623449D02*
X69404990Y-51575830D01*
X69404990Y-51575830D02*
X69547847Y-51575830D01*
X69547847Y-51575830D02*
X69738323Y-51623449D01*
X69738323Y-51623449D02*
X69833561Y-51671068D01*
X69833561Y-51671068D02*
X69928800Y-51766306D01*
X69928800Y-51766306D02*
X69976419Y-51909163D01*
X69976419Y-51909163D02*
X69976419Y-52147258D01*
X69071657Y-51194877D02*
X69024038Y-51147258D01*
X69024038Y-51147258D02*
X68976419Y-51052020D01*
X68976419Y-51052020D02*
X68976419Y-50813925D01*
X68976419Y-50813925D02*
X69024038Y-50718687D01*
X69024038Y-50718687D02*
X69071657Y-50671068D01*
X69071657Y-50671068D02*
X69166895Y-50623449D01*
X69166895Y-50623449D02*
X69262133Y-50623449D01*
X69262133Y-50623449D02*
X69404990Y-50671068D01*
X69404990Y-50671068D02*
X69976419Y-51242496D01*
X69976419Y-51242496D02*
X69976419Y-50623449D01*
X69071657Y-50242496D02*
X69024038Y-50194877D01*
X69024038Y-50194877D02*
X68976419Y-50099639D01*
X68976419Y-50099639D02*
X68976419Y-49861544D01*
X68976419Y-49861544D02*
X69024038Y-49766306D01*
X69024038Y-49766306D02*
X69071657Y-49718687D01*
X69071657Y-49718687D02*
X69166895Y-49671068D01*
X69166895Y-49671068D02*
X69262133Y-49671068D01*
X69262133Y-49671068D02*
X69404990Y-49718687D01*
X69404990Y-49718687D02*
X69976419Y-50290115D01*
X69976419Y-50290115D02*
X69976419Y-49671068D01*
D11*
X94916666Y-35936819D02*
X94916666Y-36651104D01*
X94916666Y-36651104D02*
X94869047Y-36793961D01*
X94869047Y-36793961D02*
X94773809Y-36889200D01*
X94773809Y-36889200D02*
X94630952Y-36936819D01*
X94630952Y-36936819D02*
X94535714Y-36936819D01*
X95821428Y-35936819D02*
X95630952Y-35936819D01*
X95630952Y-35936819D02*
X95535714Y-35984438D01*
X95535714Y-35984438D02*
X95488095Y-36032057D01*
X95488095Y-36032057D02*
X95392857Y-36174914D01*
X95392857Y-36174914D02*
X95345238Y-36365390D01*
X95345238Y-36365390D02*
X95345238Y-36746342D01*
X95345238Y-36746342D02*
X95392857Y-36841580D01*
X95392857Y-36841580D02*
X95440476Y-36889200D01*
X95440476Y-36889200D02*
X95535714Y-36936819D01*
X95535714Y-36936819D02*
X95726190Y-36936819D01*
X95726190Y-36936819D02*
X95821428Y-36889200D01*
X95821428Y-36889200D02*
X95869047Y-36841580D01*
X95869047Y-36841580D02*
X95916666Y-36746342D01*
X95916666Y-36746342D02*
X95916666Y-36508247D01*
X95916666Y-36508247D02*
X95869047Y-36413009D01*
X95869047Y-36413009D02*
X95821428Y-36365390D01*
X95821428Y-36365390D02*
X95726190Y-36317771D01*
X95726190Y-36317771D02*
X95535714Y-36317771D01*
X95535714Y-36317771D02*
X95440476Y-36365390D01*
X95440476Y-36365390D02*
X95392857Y-36413009D01*
X95392857Y-36413009D02*
X95345238Y-36508247D01*
X44910476Y-109530819D02*
X44910476Y-110245104D01*
X44910476Y-110245104D02*
X44862857Y-110387961D01*
X44862857Y-110387961D02*
X44767619Y-110483200D01*
X44767619Y-110483200D02*
X44624762Y-110530819D01*
X44624762Y-110530819D02*
X44529524Y-110530819D01*
X45910476Y-110530819D02*
X45339048Y-110530819D01*
X45624762Y-110530819D02*
X45624762Y-109530819D01*
X45624762Y-109530819D02*
X45529524Y-109673676D01*
X45529524Y-109673676D02*
X45434286Y-109768914D01*
X45434286Y-109768914D02*
X45339048Y-109816533D01*
X46386667Y-110530819D02*
X46577143Y-110530819D01*
X46577143Y-110530819D02*
X46672381Y-110483200D01*
X46672381Y-110483200D02*
X46720000Y-110435580D01*
X46720000Y-110435580D02*
X46815238Y-110292723D01*
X46815238Y-110292723D02*
X46862857Y-110102247D01*
X46862857Y-110102247D02*
X46862857Y-109721295D01*
X46862857Y-109721295D02*
X46815238Y-109626057D01*
X46815238Y-109626057D02*
X46767619Y-109578438D01*
X46767619Y-109578438D02*
X46672381Y-109530819D01*
X46672381Y-109530819D02*
X46481905Y-109530819D01*
X46481905Y-109530819D02*
X46386667Y-109578438D01*
X46386667Y-109578438D02*
X46339048Y-109626057D01*
X46339048Y-109626057D02*
X46291429Y-109721295D01*
X46291429Y-109721295D02*
X46291429Y-109959390D01*
X46291429Y-109959390D02*
X46339048Y-110054628D01*
X46339048Y-110054628D02*
X46386667Y-110102247D01*
X46386667Y-110102247D02*
X46481905Y-110149866D01*
X46481905Y-110149866D02*
X46672381Y-110149866D01*
X46672381Y-110149866D02*
X46767619Y-110102247D01*
X46767619Y-110102247D02*
X46815238Y-110054628D01*
X46815238Y-110054628D02*
X46862857Y-109959390D01*
X52700819Y-80565523D02*
X53415104Y-80565523D01*
X53415104Y-80565523D02*
X53557961Y-80613142D01*
X53557961Y-80613142D02*
X53653200Y-80708380D01*
X53653200Y-80708380D02*
X53700819Y-80851237D01*
X53700819Y-80851237D02*
X53700819Y-80946475D01*
X53700819Y-79565523D02*
X53700819Y-80136951D01*
X53700819Y-79851237D02*
X52700819Y-79851237D01*
X52700819Y-79851237D02*
X52843676Y-79946475D01*
X52843676Y-79946475D02*
X52938914Y-80041713D01*
X52938914Y-80041713D02*
X52986533Y-80136951D01*
X52700819Y-78660761D02*
X52700819Y-79136951D01*
X52700819Y-79136951D02*
X53177009Y-79184570D01*
X53177009Y-79184570D02*
X53129390Y-79136951D01*
X53129390Y-79136951D02*
X53081771Y-79041713D01*
X53081771Y-79041713D02*
X53081771Y-78803618D01*
X53081771Y-78803618D02*
X53129390Y-78708380D01*
X53129390Y-78708380D02*
X53177009Y-78660761D01*
X53177009Y-78660761D02*
X53272247Y-78613142D01*
X53272247Y-78613142D02*
X53510342Y-78613142D01*
X53510342Y-78613142D02*
X53605580Y-78660761D01*
X53605580Y-78660761D02*
X53653200Y-78708380D01*
X53653200Y-78708380D02*
X53700819Y-78803618D01*
X53700819Y-78803618D02*
X53700819Y-79041713D01*
X53700819Y-79041713D02*
X53653200Y-79136951D01*
X53653200Y-79136951D02*
X53605580Y-79184570D01*
X52700819Y-70405523D02*
X53415104Y-70405523D01*
X53415104Y-70405523D02*
X53557961Y-70453142D01*
X53557961Y-70453142D02*
X53653200Y-70548380D01*
X53653200Y-70548380D02*
X53700819Y-70691237D01*
X53700819Y-70691237D02*
X53700819Y-70786475D01*
X53700819Y-69405523D02*
X53700819Y-69976951D01*
X53700819Y-69691237D02*
X52700819Y-69691237D01*
X52700819Y-69691237D02*
X52843676Y-69786475D01*
X52843676Y-69786475D02*
X52938914Y-69881713D01*
X52938914Y-69881713D02*
X52986533Y-69976951D01*
X52700819Y-68548380D02*
X52700819Y-68738856D01*
X52700819Y-68738856D02*
X52748438Y-68834094D01*
X52748438Y-68834094D02*
X52796057Y-68881713D01*
X52796057Y-68881713D02*
X52938914Y-68976951D01*
X52938914Y-68976951D02*
X53129390Y-69024570D01*
X53129390Y-69024570D02*
X53510342Y-69024570D01*
X53510342Y-69024570D02*
X53605580Y-68976951D01*
X53605580Y-68976951D02*
X53653200Y-68929332D01*
X53653200Y-68929332D02*
X53700819Y-68834094D01*
X53700819Y-68834094D02*
X53700819Y-68643618D01*
X53700819Y-68643618D02*
X53653200Y-68548380D01*
X53653200Y-68548380D02*
X53605580Y-68500761D01*
X53605580Y-68500761D02*
X53510342Y-68453142D01*
X53510342Y-68453142D02*
X53272247Y-68453142D01*
X53272247Y-68453142D02*
X53177009Y-68500761D01*
X53177009Y-68500761D02*
X53129390Y-68548380D01*
X53129390Y-68548380D02*
X53081771Y-68643618D01*
X53081771Y-68643618D02*
X53081771Y-68834094D01*
X53081771Y-68834094D02*
X53129390Y-68929332D01*
X53129390Y-68929332D02*
X53177009Y-68976951D01*
X53177009Y-68976951D02*
X53272247Y-69024570D01*
X52072819Y-57197523D02*
X52787104Y-57197523D01*
X52787104Y-57197523D02*
X52929961Y-57245142D01*
X52929961Y-57245142D02*
X53025200Y-57340380D01*
X53025200Y-57340380D02*
X53072819Y-57483237D01*
X53072819Y-57483237D02*
X53072819Y-57578475D01*
X53072819Y-56197523D02*
X53072819Y-56768951D01*
X53072819Y-56483237D02*
X52072819Y-56483237D01*
X52072819Y-56483237D02*
X52215676Y-56578475D01*
X52215676Y-56578475D02*
X52310914Y-56673713D01*
X52310914Y-56673713D02*
X52358533Y-56768951D01*
X52501390Y-55626094D02*
X52453771Y-55721332D01*
X52453771Y-55721332D02*
X52406152Y-55768951D01*
X52406152Y-55768951D02*
X52310914Y-55816570D01*
X52310914Y-55816570D02*
X52263295Y-55816570D01*
X52263295Y-55816570D02*
X52168057Y-55768951D01*
X52168057Y-55768951D02*
X52120438Y-55721332D01*
X52120438Y-55721332D02*
X52072819Y-55626094D01*
X52072819Y-55626094D02*
X52072819Y-55435618D01*
X52072819Y-55435618D02*
X52120438Y-55340380D01*
X52120438Y-55340380D02*
X52168057Y-55292761D01*
X52168057Y-55292761D02*
X52263295Y-55245142D01*
X52263295Y-55245142D02*
X52310914Y-55245142D01*
X52310914Y-55245142D02*
X52406152Y-55292761D01*
X52406152Y-55292761D02*
X52453771Y-55340380D01*
X52453771Y-55340380D02*
X52501390Y-55435618D01*
X52501390Y-55435618D02*
X52501390Y-55626094D01*
X52501390Y-55626094D02*
X52549009Y-55721332D01*
X52549009Y-55721332D02*
X52596628Y-55768951D01*
X52596628Y-55768951D02*
X52691866Y-55816570D01*
X52691866Y-55816570D02*
X52882342Y-55816570D01*
X52882342Y-55816570D02*
X52977580Y-55768951D01*
X52977580Y-55768951D02*
X53025200Y-55721332D01*
X53025200Y-55721332D02*
X53072819Y-55626094D01*
X53072819Y-55626094D02*
X53072819Y-55435618D01*
X53072819Y-55435618D02*
X53025200Y-55340380D01*
X53025200Y-55340380D02*
X52977580Y-55292761D01*
X52977580Y-55292761D02*
X52882342Y-55245142D01*
X52882342Y-55245142D02*
X52691866Y-55245142D01*
X52691866Y-55245142D02*
X52596628Y-55292761D01*
X52596628Y-55292761D02*
X52549009Y-55340380D01*
X52549009Y-55340380D02*
X52501390Y-55435618D01*
X79676666Y-35936819D02*
X79676666Y-36651104D01*
X79676666Y-36651104D02*
X79629047Y-36793961D01*
X79629047Y-36793961D02*
X79533809Y-36889200D01*
X79533809Y-36889200D02*
X79390952Y-36936819D01*
X79390952Y-36936819D02*
X79295714Y-36936819D01*
X80629047Y-35936819D02*
X80152857Y-35936819D01*
X80152857Y-35936819D02*
X80105238Y-36413009D01*
X80105238Y-36413009D02*
X80152857Y-36365390D01*
X80152857Y-36365390D02*
X80248095Y-36317771D01*
X80248095Y-36317771D02*
X80486190Y-36317771D01*
X80486190Y-36317771D02*
X80581428Y-36365390D01*
X80581428Y-36365390D02*
X80629047Y-36413009D01*
X80629047Y-36413009D02*
X80676666Y-36508247D01*
X80676666Y-36508247D02*
X80676666Y-36746342D01*
X80676666Y-36746342D02*
X80629047Y-36841580D01*
X80629047Y-36841580D02*
X80581428Y-36889200D01*
X80581428Y-36889200D02*
X80486190Y-36936819D01*
X80486190Y-36936819D02*
X80248095Y-36936819D01*
X80248095Y-36936819D02*
X80152857Y-36889200D01*
X80152857Y-36889200D02*
X80105238Y-36841580D01*
X102669819Y-88467285D02*
X101669819Y-88467285D01*
X101669819Y-88467285D02*
X101669819Y-88086333D01*
X101669819Y-88086333D02*
X101717438Y-87991095D01*
X101717438Y-87991095D02*
X101765057Y-87943476D01*
X101765057Y-87943476D02*
X101860295Y-87895857D01*
X101860295Y-87895857D02*
X102003152Y-87895857D01*
X102003152Y-87895857D02*
X102098390Y-87943476D01*
X102098390Y-87943476D02*
X102146009Y-87991095D01*
X102146009Y-87991095D02*
X102193628Y-88086333D01*
X102193628Y-88086333D02*
X102193628Y-88467285D01*
X102622200Y-87514904D02*
X102669819Y-87372047D01*
X102669819Y-87372047D02*
X102669819Y-87133952D01*
X102669819Y-87133952D02*
X102622200Y-87038714D01*
X102622200Y-87038714D02*
X102574580Y-86991095D01*
X102574580Y-86991095D02*
X102479342Y-86943476D01*
X102479342Y-86943476D02*
X102384104Y-86943476D01*
X102384104Y-86943476D02*
X102288866Y-86991095D01*
X102288866Y-86991095D02*
X102241247Y-87038714D01*
X102241247Y-87038714D02*
X102193628Y-87133952D01*
X102193628Y-87133952D02*
X102146009Y-87324428D01*
X102146009Y-87324428D02*
X102098390Y-87419666D01*
X102098390Y-87419666D02*
X102050771Y-87467285D01*
X102050771Y-87467285D02*
X101955533Y-87514904D01*
X101955533Y-87514904D02*
X101860295Y-87514904D01*
X101860295Y-87514904D02*
X101765057Y-87467285D01*
X101765057Y-87467285D02*
X101717438Y-87419666D01*
X101717438Y-87419666D02*
X101669819Y-87324428D01*
X101669819Y-87324428D02*
X101669819Y-87086333D01*
X101669819Y-87086333D02*
X101717438Y-86943476D01*
X102669819Y-85991095D02*
X102669819Y-86562523D01*
X102669819Y-86276809D02*
X101669819Y-86276809D01*
X101669819Y-86276809D02*
X101812676Y-86372047D01*
X101812676Y-86372047D02*
X101907914Y-86467285D01*
X101907914Y-86467285D02*
X101955533Y-86562523D01*
D12*
%TO.C,J2*%
X63490000Y-41348000D02*
X64240000Y-41348000D01*
X64240000Y-38398000D02*
X69790000Y-38398000D01*
X64240000Y-41348000D02*
X64240000Y-38398000D01*
X75140000Y-43898000D02*
X76390000Y-43898000D01*
X75340000Y-38398000D02*
X69790000Y-38398000D01*
X75340000Y-41348000D02*
X75340000Y-38398000D01*
X76090000Y-41348000D02*
X75340000Y-41348000D01*
X76390000Y-43898000D02*
X76390000Y-42648000D01*
X65290000Y-43598000D02*
X63490000Y-43598000D01*
X63490000Y-42848000D01*
X65290000Y-42848000D01*
X65290000Y-43598000D01*
X72790000Y-43598000D02*
X66790000Y-43598000D01*
X66790000Y-42848000D01*
X72790000Y-42848000D01*
X72790000Y-43598000D01*
X76090000Y-43598000D02*
X74290000Y-43598000D01*
X74290000Y-42848000D01*
X76090000Y-42848000D01*
X76090000Y-43598000D01*
X76100000Y-43608000D02*
X63480000Y-43608000D01*
X63480000Y-37638000D01*
X76100000Y-37638000D01*
X76100000Y-43608000D01*
%TO.C,J7*%
X98328000Y-67520000D02*
X98328000Y-68770000D01*
X98328000Y-68770000D02*
X99578000Y-68770000D01*
X100878000Y-55870000D02*
X100878000Y-56620000D01*
X100878000Y-56620000D02*
X103828000Y-56620000D01*
X100878000Y-67720000D02*
X103828000Y-67720000D01*
X100878000Y-68470000D02*
X100878000Y-67720000D01*
X103828000Y-56620000D02*
X103828000Y-62170000D01*
X103828000Y-67720000D02*
X103828000Y-62170000D01*
X98618000Y-68480000D02*
X104588000Y-68480000D01*
X104588000Y-55860000D01*
X98618000Y-55860000D01*
X98618000Y-68480000D01*
X98628000Y-57670000D02*
X99378000Y-57670000D01*
X99378000Y-55870000D01*
X98628000Y-55870000D01*
X98628000Y-57670000D01*
X98628000Y-65170000D02*
X99378000Y-65170000D01*
X99378000Y-59170000D01*
X98628000Y-59170000D01*
X98628000Y-65170000D01*
X98628000Y-68470000D02*
X99378000Y-68470000D01*
X99378000Y-66670000D01*
X98628000Y-66670000D01*
X98628000Y-68470000D01*
%TO.C,J3*%
X35604000Y-85830000D02*
X35604000Y-88880000D01*
X35604000Y-91930000D02*
X35604000Y-88880000D01*
X38554000Y-85080000D02*
X38554000Y-85830000D01*
X38554000Y-85830000D02*
X35604000Y-85830000D01*
X38554000Y-91930000D02*
X35604000Y-91930000D01*
X38554000Y-92680000D02*
X38554000Y-91930000D01*
X41104000Y-84780000D02*
X39854000Y-84780000D01*
X41104000Y-86030000D02*
X41104000Y-84780000D01*
X40804000Y-85080000D02*
X40054000Y-85080000D01*
X40054000Y-86880000D01*
X40804000Y-86880000D01*
X40804000Y-85080000D01*
X40804000Y-88380000D02*
X40054000Y-88380000D01*
X40054000Y-89380000D01*
X40804000Y-89380000D01*
X40804000Y-88380000D01*
X40804000Y-90880000D02*
X40054000Y-90880000D01*
X40054000Y-92680000D01*
X40804000Y-92680000D01*
X40804000Y-90880000D01*
X40814000Y-85070000D02*
X34844000Y-85070000D01*
X34844000Y-92690000D01*
X40814000Y-92690000D01*
X40814000Y-85070000D01*
%TO.C,J6*%
X93870000Y-37482000D02*
X95250000Y-37482000D01*
X93870000Y-38862000D02*
X93870000Y-37482000D01*
X93870000Y-40132000D02*
X93870000Y-75802000D01*
X93870000Y-40132000D02*
X96630000Y-40132000D01*
X93870000Y-75802000D02*
X96630000Y-75802000D01*
X96630000Y-40132000D02*
X96630000Y-75802000D01*
%TO.C,J10*%
X63864000Y-64716000D02*
X64614000Y-64716000D01*
X64614000Y-61766000D02*
X70164000Y-61766000D01*
X64614000Y-64716000D02*
X64614000Y-61766000D01*
X75514000Y-67266000D02*
X76764000Y-67266000D01*
X75714000Y-61766000D02*
X70164000Y-61766000D01*
X75714000Y-64716000D02*
X75714000Y-61766000D01*
X76464000Y-64716000D02*
X75714000Y-64716000D01*
X76764000Y-67266000D02*
X76764000Y-66016000D01*
X65664000Y-66966000D02*
X63864000Y-66966000D01*
X63864000Y-66216000D01*
X65664000Y-66216000D01*
X65664000Y-66966000D01*
X73164000Y-66966000D02*
X67164000Y-66966000D01*
X67164000Y-66216000D01*
X73164000Y-66216000D01*
X73164000Y-66966000D01*
X76464000Y-66966000D02*
X74664000Y-66966000D01*
X74664000Y-66216000D01*
X76464000Y-66216000D01*
X76464000Y-66966000D01*
X76474000Y-66976000D02*
X63854000Y-66976000D01*
X63854000Y-61006000D01*
X76474000Y-61006000D01*
X76474000Y-66976000D01*
%TO.C,J17*%
X53618000Y-47608000D02*
X53618000Y-46228000D01*
X54998000Y-47608000D02*
X53618000Y-47608000D01*
X56268000Y-44848000D02*
X69078000Y-44848000D01*
X56268000Y-47608000D02*
X56268000Y-44848000D01*
X56268000Y-47608000D02*
X69078000Y-47608000D01*
X69078000Y-47608000D02*
X69078000Y-44848000D01*
%TO.C,J19*%
X43070000Y-109076000D02*
X43070000Y-58056000D01*
X45720000Y-106426000D02*
X45720000Y-109076000D01*
X45720000Y-109076000D02*
X43070000Y-109076000D01*
X48370000Y-58056000D02*
X43070000Y-58056000D01*
X48370000Y-106426000D02*
X45720000Y-106426000D01*
X48370000Y-106426000D02*
X48370000Y-58056000D01*
X48370000Y-107696000D02*
X48370000Y-109076000D01*
X48370000Y-109076000D02*
X46990000Y-109076000D01*
%TO.C,J15*%
X54246000Y-81136000D02*
X54246000Y-79756000D01*
X55626000Y-81136000D02*
X54246000Y-81136000D01*
X56896000Y-78376000D02*
X69706000Y-78376000D01*
X56896000Y-81136000D02*
X56896000Y-78376000D01*
X56896000Y-81136000D02*
X69706000Y-81136000D01*
X69706000Y-81136000D02*
X69706000Y-78376000D01*
%TO.C,J16*%
X54246000Y-70976000D02*
X54246000Y-69596000D01*
X55626000Y-70976000D02*
X54246000Y-70976000D01*
X56896000Y-68216000D02*
X69706000Y-68216000D01*
X56896000Y-70976000D02*
X56896000Y-68216000D01*
X56896000Y-70976000D02*
X69706000Y-70976000D01*
X69706000Y-70976000D02*
X69706000Y-68216000D01*
%TO.C,J13*%
X71672000Y-46834000D02*
X71672000Y-52384000D01*
X71672000Y-57934000D02*
X71672000Y-52384000D01*
X74622000Y-46084000D02*
X74622000Y-46834000D01*
X74622000Y-46834000D02*
X71672000Y-46834000D01*
X74622000Y-57934000D02*
X71672000Y-57934000D01*
X74622000Y-58684000D02*
X74622000Y-57934000D01*
X77172000Y-45784000D02*
X75922000Y-45784000D01*
X77172000Y-47034000D02*
X77172000Y-45784000D01*
X76872000Y-46084000D02*
X76122000Y-46084000D01*
X76122000Y-47884000D01*
X76872000Y-47884000D01*
X76872000Y-46084000D01*
X76872000Y-49384000D02*
X76122000Y-49384000D01*
X76122000Y-55384000D01*
X76872000Y-55384000D01*
X76872000Y-49384000D01*
X76872000Y-56884000D02*
X76122000Y-56884000D01*
X76122000Y-58684000D01*
X76872000Y-58684000D01*
X76872000Y-56884000D01*
X76882000Y-46074000D02*
X70912000Y-46074000D01*
X70912000Y-58694000D01*
X76882000Y-58694000D01*
X76882000Y-46074000D01*
%TO.C,J1*%
X49520000Y-41348000D02*
X50270000Y-41348000D01*
X50270000Y-38398000D02*
X55820000Y-38398000D01*
X50270000Y-41348000D02*
X50270000Y-38398000D01*
X61170000Y-43898000D02*
X62420000Y-43898000D01*
X61370000Y-38398000D02*
X55820000Y-38398000D01*
X61370000Y-41348000D02*
X61370000Y-38398000D01*
X62120000Y-41348000D02*
X61370000Y-41348000D01*
X62420000Y-43898000D02*
X62420000Y-42648000D01*
X51320000Y-43598000D02*
X49520000Y-43598000D01*
X49520000Y-42848000D01*
X51320000Y-42848000D01*
X51320000Y-43598000D01*
X58820000Y-43598000D02*
X52820000Y-43598000D01*
X52820000Y-42848000D01*
X58820000Y-42848000D01*
X58820000Y-43598000D01*
X62120000Y-43598000D02*
X60320000Y-43598000D01*
X60320000Y-42848000D01*
X62120000Y-42848000D01*
X62120000Y-43598000D01*
X62130000Y-43608000D02*
X49510000Y-43608000D01*
X49510000Y-37638000D01*
X62130000Y-37638000D01*
X62130000Y-43608000D01*
%TO.C,J11*%
X50028000Y-64716000D02*
X50778000Y-64716000D01*
X50778000Y-61766000D02*
X56328000Y-61766000D01*
X50778000Y-64716000D02*
X50778000Y-61766000D01*
X61678000Y-67266000D02*
X62928000Y-67266000D01*
X61878000Y-61766000D02*
X56328000Y-61766000D01*
X61878000Y-64716000D02*
X61878000Y-61766000D01*
X62628000Y-64716000D02*
X61878000Y-64716000D01*
X62928000Y-67266000D02*
X62928000Y-66016000D01*
X51828000Y-66966000D02*
X50028000Y-66966000D01*
X50028000Y-66216000D01*
X51828000Y-66216000D01*
X51828000Y-66966000D01*
X59328000Y-66966000D02*
X53328000Y-66966000D01*
X53328000Y-66216000D01*
X59328000Y-66216000D01*
X59328000Y-66966000D01*
X62628000Y-66966000D02*
X60828000Y-66966000D01*
X60828000Y-66216000D01*
X62628000Y-66216000D01*
X62628000Y-66966000D01*
X62638000Y-66976000D02*
X50018000Y-66976000D01*
X50018000Y-61006000D01*
X62638000Y-61006000D01*
X62638000Y-66976000D01*
%TO.C,J18*%
X53618000Y-57768000D02*
X53618000Y-56388000D01*
X54998000Y-57768000D02*
X53618000Y-57768000D01*
X56268000Y-55008000D02*
X69078000Y-55008000D01*
X56268000Y-57768000D02*
X56268000Y-55008000D01*
X56268000Y-57768000D02*
X69078000Y-57768000D01*
X69078000Y-57768000D02*
X69078000Y-55008000D01*
%TO.C,J4*%
X35858000Y-75416000D02*
X35858000Y-78466000D01*
X35858000Y-81516000D02*
X35858000Y-78466000D01*
X38808000Y-74666000D02*
X38808000Y-75416000D01*
X38808000Y-75416000D02*
X35858000Y-75416000D01*
X38808000Y-81516000D02*
X35858000Y-81516000D01*
X38808000Y-82266000D02*
X38808000Y-81516000D01*
X41358000Y-74366000D02*
X40108000Y-74366000D01*
X41358000Y-75616000D02*
X41358000Y-74366000D01*
X41058000Y-74666000D02*
X40308000Y-74666000D01*
X40308000Y-76466000D01*
X41058000Y-76466000D01*
X41058000Y-74666000D01*
X41058000Y-77966000D02*
X40308000Y-77966000D01*
X40308000Y-78966000D01*
X41058000Y-78966000D01*
X41058000Y-77966000D01*
X41058000Y-80466000D02*
X40308000Y-80466000D01*
X40308000Y-82266000D01*
X41058000Y-82266000D01*
X41058000Y-80466000D01*
X41068000Y-74656000D02*
X35098000Y-74656000D01*
X35098000Y-82276000D01*
X41068000Y-82276000D01*
X41068000Y-74656000D01*
%TO.C,J5*%
X78630000Y-37482000D02*
X80010000Y-37482000D01*
X78630000Y-38862000D02*
X78630000Y-37482000D01*
X78630000Y-40132000D02*
X78630000Y-75802000D01*
X78630000Y-40132000D02*
X81390000Y-40132000D01*
X78630000Y-75802000D02*
X81390000Y-75802000D01*
X81390000Y-40132000D02*
X81390000Y-75802000D01*
%TO.C,J8*%
X98342000Y-76490000D02*
X98342000Y-77740000D01*
X98342000Y-77740000D02*
X99592000Y-77740000D01*
X100892000Y-69840000D02*
X100892000Y-70590000D01*
X100892000Y-70590000D02*
X103842000Y-70590000D01*
X100892000Y-76690000D02*
X103842000Y-76690000D01*
X100892000Y-77440000D02*
X100892000Y-76690000D01*
X103842000Y-70590000D02*
X103842000Y-73640000D01*
X103842000Y-76690000D02*
X103842000Y-73640000D01*
X98632000Y-77450000D02*
X104602000Y-77450000D01*
X104602000Y-69830000D01*
X98632000Y-69830000D01*
X98632000Y-77450000D01*
X98642000Y-71640000D02*
X99392000Y-71640000D01*
X99392000Y-69840000D01*
X98642000Y-69840000D01*
X98642000Y-71640000D01*
X98642000Y-74140000D02*
X99392000Y-74140000D01*
X99392000Y-73140000D01*
X98642000Y-73140000D01*
X98642000Y-74140000D01*
X98642000Y-77440000D02*
X99392000Y-77440000D01*
X99392000Y-75640000D01*
X98642000Y-75640000D01*
X98642000Y-77440000D01*
D13*
%TO.C,PS1*%
X49530000Y-84328000D02*
X49530000Y-109728000D01*
X49530000Y-109728000D02*
X100330000Y-109728000D01*
X100330000Y-84328000D02*
X49530000Y-84328000D01*
X100330000Y-109728000D02*
X100330000Y-84328000D01*
D14*
X97890000Y-83578000D02*
G75*
G02*
X97690000Y-83578000I-100000J0D01*
G01*
X97690000Y-83578000D02*
G75*
G02*
X97890000Y-83578000I100000J0D01*
G01*
D12*
%TO.C,J9*%
X98342000Y-53550000D02*
X98342000Y-54800000D01*
X98342000Y-54800000D02*
X99592000Y-54800000D01*
X100892000Y-41900000D02*
X100892000Y-42650000D01*
X100892000Y-42650000D02*
X103842000Y-42650000D01*
X100892000Y-53750000D02*
X103842000Y-53750000D01*
X100892000Y-54500000D02*
X100892000Y-53750000D01*
X103842000Y-42650000D02*
X103842000Y-48200000D01*
X103842000Y-53750000D02*
X103842000Y-48200000D01*
X98632000Y-54510000D02*
X104602000Y-54510000D01*
X104602000Y-41890000D01*
X98632000Y-41890000D01*
X98632000Y-54510000D01*
X98642000Y-43700000D02*
X99392000Y-43700000D01*
X99392000Y-41900000D01*
X98642000Y-41900000D01*
X98642000Y-43700000D01*
X98642000Y-51200000D02*
X99392000Y-51200000D01*
X99392000Y-45200000D01*
X98642000Y-45200000D01*
X98642000Y-51200000D01*
X98642000Y-54500000D02*
X99392000Y-54500000D01*
X99392000Y-52700000D01*
X98642000Y-52700000D01*
X98642000Y-54500000D01*
%TO.C,J12*%
X35604000Y-94586000D02*
X35604000Y-100136000D01*
X35604000Y-105686000D02*
X35604000Y-100136000D01*
X38554000Y-93836000D02*
X38554000Y-94586000D01*
X38554000Y-94586000D02*
X35604000Y-94586000D01*
X38554000Y-105686000D02*
X35604000Y-105686000D01*
X38554000Y-106436000D02*
X38554000Y-105686000D01*
X41104000Y-93536000D02*
X39854000Y-93536000D01*
X41104000Y-94786000D02*
X41104000Y-93536000D01*
X40804000Y-93836000D02*
X40054000Y-93836000D01*
X40054000Y-95636000D01*
X40804000Y-95636000D01*
X40804000Y-93836000D01*
X40804000Y-97136000D02*
X40054000Y-97136000D01*
X40054000Y-103136000D01*
X40804000Y-103136000D01*
X40804000Y-97136000D01*
X40804000Y-104636000D02*
X40054000Y-104636000D01*
X40054000Y-106436000D01*
X40804000Y-106436000D01*
X40804000Y-104636000D01*
X40814000Y-93826000D02*
X34844000Y-93826000D01*
X34844000Y-106446000D01*
X40814000Y-106446000D01*
X40814000Y-93826000D01*
%TD*%
%LPC*%
D15*
%TO.C,R8*%
X38412000Y-73406000D03*
X36772000Y-73406000D03*
%TD*%
D16*
%TO.C,J2*%
X73540000Y-41148000D03*
D17*
X71040000Y-41148000D03*
X68540000Y-41148000D03*
X66040000Y-41148000D03*
%TD*%
D18*
%TO.C,J7*%
X101078000Y-65920000D03*
D19*
X101078000Y-63420000D03*
X101078000Y-60920000D03*
X101078000Y-58420000D03*
%TD*%
D20*
%TO.C,J3*%
X38354000Y-87630000D03*
D21*
X38354000Y-90130000D03*
%TD*%
D22*
%TO.C,J6*%
X95250000Y-38862000D03*
D23*
X95250000Y-41402000D03*
X95250000Y-43942000D03*
X95250000Y-46482000D03*
X95250000Y-49022000D03*
X95250000Y-51562000D03*
X95250000Y-54102000D03*
X95250000Y-56642000D03*
X95250000Y-59182000D03*
X95250000Y-61722000D03*
X95250000Y-64262000D03*
X95250000Y-66802000D03*
X95250000Y-69342000D03*
X95250000Y-71882000D03*
X95250000Y-74422000D03*
%TD*%
D16*
%TO.C,J10*%
X73914000Y-64516000D03*
D17*
X71414000Y-64516000D03*
X68914000Y-64516000D03*
X66414000Y-64516000D03*
%TD*%
D22*
%TO.C,J17*%
X54998000Y-46228000D03*
D23*
X57538000Y-46228000D03*
X60078000Y-46228000D03*
X62618000Y-46228000D03*
X65158000Y-46228000D03*
X67698000Y-46228000D03*
%TD*%
D22*
%TO.C,J19*%
X46990000Y-107696000D03*
D23*
X44450000Y-107696000D03*
X46990000Y-105156000D03*
X44450000Y-105156000D03*
X46990000Y-102616000D03*
X44450000Y-102616000D03*
X46990000Y-100076000D03*
X44450000Y-100076000D03*
X46990000Y-97536000D03*
X44450000Y-97536000D03*
X46990000Y-94996000D03*
X44450000Y-94996000D03*
X46990000Y-92456000D03*
X44450000Y-92456000D03*
X46990000Y-89916000D03*
X44450000Y-89916000D03*
X46990000Y-87376000D03*
X44450000Y-87376000D03*
X46990000Y-84836000D03*
X44450000Y-84836000D03*
X46990000Y-82296000D03*
X44450000Y-82296000D03*
X46990000Y-79756000D03*
X44450000Y-79756000D03*
X46990000Y-77216000D03*
X44450000Y-77216000D03*
X46990000Y-74676000D03*
X44450000Y-74676000D03*
X46990000Y-72136000D03*
X44450000Y-72136000D03*
X46990000Y-69596000D03*
X44450000Y-69596000D03*
X46990000Y-67056000D03*
X44450000Y-67056000D03*
X46990000Y-64516000D03*
X44450000Y-64516000D03*
X46990000Y-61976000D03*
X44450000Y-61976000D03*
X46990000Y-59436000D03*
X44450000Y-59436000D03*
%TD*%
D22*
%TO.C,J15*%
X55626000Y-79756000D03*
D23*
X58166000Y-79756000D03*
X60706000Y-79756000D03*
X63246000Y-79756000D03*
X65786000Y-79756000D03*
X68326000Y-79756000D03*
%TD*%
D22*
%TO.C,J16*%
X55626000Y-69596000D03*
D23*
X58166000Y-69596000D03*
X60706000Y-69596000D03*
X63246000Y-69596000D03*
X65786000Y-69596000D03*
X68326000Y-69596000D03*
%TD*%
D24*
%TO.C,J13*%
X74422000Y-48634000D03*
D19*
X74422000Y-51134000D03*
X74422000Y-53634000D03*
X74422000Y-56134000D03*
%TD*%
D16*
%TO.C,J1*%
X59570000Y-41148000D03*
D17*
X57070000Y-41148000D03*
X54570000Y-41148000D03*
X52070000Y-41148000D03*
%TD*%
D15*
%TO.C,R7*%
X38412000Y-83566000D03*
X36772000Y-83566000D03*
%TD*%
D16*
%TO.C,J11*%
X60078000Y-64516000D03*
D17*
X57578000Y-64516000D03*
X55078000Y-64516000D03*
X52578000Y-64516000D03*
%TD*%
D22*
%TO.C,J18*%
X54998000Y-56388000D03*
D23*
X57538000Y-56388000D03*
X60078000Y-56388000D03*
X62618000Y-56388000D03*
X65158000Y-56388000D03*
X67698000Y-56388000D03*
%TD*%
D20*
%TO.C,J4*%
X38608000Y-77216000D03*
D21*
X38608000Y-79716000D03*
%TD*%
D22*
%TO.C,J5*%
X80010000Y-38862000D03*
D23*
X80010000Y-41402000D03*
X80010000Y-43942000D03*
X80010000Y-46482000D03*
X80010000Y-49022000D03*
X80010000Y-51562000D03*
X80010000Y-54102000D03*
X80010000Y-56642000D03*
X80010000Y-59182000D03*
X80010000Y-61722000D03*
X80010000Y-64262000D03*
X80010000Y-66802000D03*
X80010000Y-69342000D03*
X80010000Y-71882000D03*
X80010000Y-74422000D03*
%TD*%
D25*
%TO.C,J8*%
X101092000Y-74890000D03*
D21*
X101092000Y-72390000D03*
%TD*%
D26*
%TO.C,PS1*%
X97790000Y-89408000D03*
D27*
X97790000Y-94488000D03*
X97790000Y-104648000D03*
X52070000Y-86868000D03*
X52070000Y-97028000D03*
X52070000Y-107188000D03*
%TD*%
D18*
%TO.C,J9*%
X101092000Y-51950000D03*
D19*
X101092000Y-49450000D03*
X101092000Y-46950000D03*
X101092000Y-44450000D03*
%TD*%
D24*
%TO.C,J12*%
X38354000Y-96386000D03*
D19*
X38354000Y-98886000D03*
X38354000Y-101386000D03*
X38354000Y-103886000D03*
%TD*%
D28*
%TO.C,J14*%
X90538000Y-40670000D03*
X84758000Y-40670000D03*
D29*
X88898000Y-41870000D03*
X87898000Y-41870000D03*
X87398000Y-41870000D03*
X86398000Y-41870000D03*
D30*
X85248000Y-41870000D03*
X84448000Y-41870000D03*
D29*
X85898000Y-41870000D03*
X86898000Y-41870000D03*
X88398000Y-41870000D03*
X89398000Y-41870000D03*
D30*
X90048000Y-41870000D03*
X90848000Y-41870000D03*
D31*
X91978000Y-41190000D03*
D32*
X91978000Y-36990000D03*
D33*
X89648000Y-38370000D03*
X89648000Y-36370000D03*
D34*
X87648000Y-37370000D03*
D33*
X85648000Y-38370000D03*
X85648000Y-36370000D03*
D31*
X83318000Y-41190000D03*
D32*
X83318000Y-36990000D03*
%TD*%
%LPD*%
M02*
