%TF.GenerationSoftware,KiCad,Pcbnew,9.0.7-9.0.7~ubuntu24.04.1*%
%TF.CreationDate,2026-03-23T21:50:19+01:00*%
%TF.ProjectId,iasserv,69617373-6572-4762-9e6b-696361645f70,rev?*%
%TF.SameCoordinates,Original*%
%TF.FileFunction,Copper,L1,Top*%
%TF.FilePolarity,Positive*%
%FSLAX46Y46*%
G04 Gerber Fmt 4.6, Leading zero omitted, Abs format (unit mm)*
G04 Created by KiCad (PCBNEW 9.0.7-9.0.7~ubuntu24.04.1) date 2026-03-23 21:50:19*
%MOMM*%
%LPD*%
G01*
G04 APERTURE LIST*
G04 Aperture macros list*
%AMRoundRect*
0 Rectangle with rounded corners*
0 $1 Rounding radius*
0 $2 $3 $4 $5 $6 $7 $8 $9 X,Y pos of 4 corners*
0 Add a 4 corners polygon primitive as box body*
4,1,4,$2,$3,$4,$5,$6,$7,$8,$9,$2,$3,0*
0 Add four circle primitives for the rounded corners*
1,1,$1+$1,$2,$3*
1,1,$1+$1,$4,$5*
1,1,$1+$1,$6,$7*
1,1,$1+$1,$8,$9*
0 Add four rect primitives between the rounded corners*
20,1,$1+$1,$2,$3,$4,$5,0*
20,1,$1+$1,$4,$5,$6,$7,0*
20,1,$1+$1,$6,$7,$8,$9,0*
20,1,$1+$1,$8,$9,$2,$3,0*%
G04 Aperture macros list end*
%TA.AperFunction,SMDPad,CuDef*%
%ADD10RoundRect,0.200000X0.200000X0.275000X-0.200000X0.275000X-0.200000X-0.275000X0.200000X-0.275000X0*%
%TD*%
%TA.AperFunction,ComponentPad*%
%ADD11RoundRect,0.250000X0.600000X0.725000X-0.600000X0.725000X-0.600000X-0.725000X0.600000X-0.725000X0*%
%TD*%
%TA.AperFunction,ComponentPad*%
%ADD12O,1.700000X1.950000*%
%TD*%
%TA.AperFunction,ComponentPad*%
%ADD13RoundRect,0.250000X0.725000X-0.600000X0.725000X0.600000X-0.725000X0.600000X-0.725000X-0.600000X0*%
%TD*%
%TA.AperFunction,ComponentPad*%
%ADD14O,1.950000X1.700000*%
%TD*%
%TA.AperFunction,ComponentPad*%
%ADD15RoundRect,0.250000X-0.750000X0.600000X-0.750000X-0.600000X0.750000X-0.600000X0.750000X0.600000X0*%
%TD*%
%TA.AperFunction,ComponentPad*%
%ADD16O,2.000000X1.700000*%
%TD*%
%TA.AperFunction,ComponentPad*%
%ADD17R,1.700000X1.700000*%
%TD*%
%TA.AperFunction,ComponentPad*%
%ADD18C,1.700000*%
%TD*%
%TA.AperFunction,ComponentPad*%
%ADD19RoundRect,0.250000X-0.725000X0.600000X-0.725000X-0.600000X0.725000X-0.600000X0.725000X0.600000X0*%
%TD*%
%TA.AperFunction,ComponentPad*%
%ADD20RoundRect,0.250000X0.750000X-0.600000X0.750000X0.600000X-0.750000X0.600000X-0.750000X-0.600000X0*%
%TD*%
%TA.AperFunction,ComponentPad*%
%ADD21R,1.875000X1.875000*%
%TD*%
%TA.AperFunction,ComponentPad*%
%ADD22C,1.875000*%
%TD*%
%TA.AperFunction,SMDPad,CuDef*%
%ADD23R,0.300000X1.400000*%
%TD*%
%TA.AperFunction,SMDPad,CuDef*%
%ADD24R,0.500000X1.400000*%
%TD*%
%TA.AperFunction,ComponentPad*%
%ADD25O,1.300000X2.300000*%
%TD*%
%TA.AperFunction,ComponentPad*%
%ADD26O,1.300000X2.100000*%
%TD*%
%TA.AperFunction,ComponentPad*%
%ADD27C,0.500000*%
%TD*%
%TA.AperFunction,SMDPad,CuDef*%
%ADD28RoundRect,0.500000X2.000000X1.000000X-2.000000X1.000000X-2.000000X-1.000000X2.000000X-1.000000X0*%
%TD*%
%TA.AperFunction,ViaPad*%
%ADD29C,0.600000*%
%TD*%
%TA.AperFunction,Conductor*%
%ADD30C,0.300000*%
%TD*%
%TA.AperFunction,Conductor*%
%ADD31C,0.750000*%
%TD*%
%TA.AperFunction,Conductor*%
%ADD32C,0.200000*%
%TD*%
G04 APERTURE END LIST*
D10*
%TO.P,R8,1*%
%TO.N,Tirette*%
X38412000Y-73406000D03*
%TO.P,R8,2*%
%TO.N,+3.3V*%
X36772000Y-73406000D03*
%TD*%
D11*
%TO.P,J2,1,Pin_1*%
%TO.N,GND*%
X73540000Y-41148000D03*
D12*
%TO.P,J2,2,Pin_2*%
%TO.N,+5V*%
X71040000Y-41148000D03*
%TO.P,J2,3,Pin_3*%
%TO.N,Net-(J17-Pin_6)*%
X68540000Y-41148000D03*
%TO.P,J2,4,Pin_4*%
%TO.N,Net-(J17-Pin_5)*%
X66040000Y-41148000D03*
%TD*%
D13*
%TO.P,J7,1,Pin_1*%
%TO.N,ENC1-B*%
X101078000Y-65920000D03*
D14*
%TO.P,J7,2,Pin_2*%
%TO.N,ENC1-A*%
X101078000Y-63420000D03*
%TO.P,J7,3,Pin_3*%
%TO.N,+5V*%
X101078000Y-60920000D03*
%TO.P,J7,4,Pin_4*%
%TO.N,GND*%
X101078000Y-58420000D03*
%TD*%
D15*
%TO.P,J3,1,Pin_1*%
%TO.N,Couleur*%
X38354000Y-87630000D03*
D16*
%TO.P,J3,2,Pin_2*%
%TO.N,GND*%
X38354000Y-90130000D03*
%TD*%
D17*
%TO.P,J6,1,Pin_1*%
%TO.N,unconnected-(J6-Pin_1-Pad1)*%
X95250000Y-38862000D03*
D18*
%TO.P,J6,2,Pin_2*%
%TO.N,GND*%
X95250000Y-41402000D03*
%TO.P,J6,3,Pin_3*%
%TO.N,unconnected-(J6-Pin_3-Pad3)*%
X95250000Y-43942000D03*
%TO.P,J6,4,Pin_4*%
%TO.N,+5V*%
X95250000Y-46482000D03*
%TO.P,J6,5,Pin_5*%
%TO.N,unconnected-(J6-Pin_5-Pad5)*%
X95250000Y-49022000D03*
%TO.P,J6,6,Pin_6*%
%TO.N,unconnected-(J6-Pin_6-Pad6)*%
X95250000Y-51562000D03*
%TO.P,J6,7,Pin_7*%
%TO.N,unconnected-(J6-Pin_7-Pad7)*%
X95250000Y-54102000D03*
%TO.P,J6,8,Pin_8*%
%TO.N,unconnected-(J6-Pin_8-Pad8)*%
X95250000Y-56642000D03*
%TO.P,J6,9,Pin_9*%
%TO.N,ENC1-B*%
X95250000Y-59182000D03*
%TO.P,J6,10,Pin_10*%
%TO.N,unconnected-(J6-Pin_10-Pad10)*%
X95250000Y-61722000D03*
%TO.P,J6,11,Pin_11*%
%TO.N,unconnected-(J6-Pin_11-Pad11)*%
X95250000Y-64262000D03*
%TO.P,J6,12,Pin_12*%
%TO.N,unconnected-(J6-Pin_12-Pad12)*%
X95250000Y-66802000D03*
%TO.P,J6,13,Pin_13*%
%TO.N,unconnected-(J6-Pin_13-Pad13)*%
X95250000Y-69342000D03*
%TO.P,J6,14,Pin_14*%
%TO.N,unconnected-(J6-Pin_14-Pad14)*%
X95250000Y-71882000D03*
%TO.P,J6,15,Pin_15*%
%TO.N,unconnected-(J6-Pin_15-Pad15)*%
X95250000Y-74422000D03*
%TD*%
D11*
%TO.P,J10,1,Pin_1*%
%TO.N,GND*%
X73914000Y-64516000D03*
D12*
%TO.P,J10,2,Pin_2*%
%TO.N,+5V*%
X71414000Y-64516000D03*
%TO.P,J10,3,Pin_3*%
%TO.N,Net-(J10-Pin_3)*%
X68914000Y-64516000D03*
%TO.P,J10,4,Pin_4*%
%TO.N,Net-(J10-Pin_4)*%
X66414000Y-64516000D03*
%TD*%
D17*
%TO.P,J17,1,Pin_1*%
%TO.N,Net-(J1-Pin_4)*%
X54998000Y-46228000D03*
D18*
%TO.P,J17,2,Pin_2*%
%TO.N,Net-(J1-Pin_3)*%
X57538000Y-46228000D03*
%TO.P,J17,3,Pin_3*%
%TO.N,GND*%
X60078000Y-46228000D03*
%TO.P,J17,4,Pin_4*%
%TO.N,+5V*%
X62618000Y-46228000D03*
%TO.P,J17,5,Pin_5*%
%TO.N,Net-(J17-Pin_5)*%
X65158000Y-46228000D03*
%TO.P,J17,6,Pin_6*%
%TO.N,Net-(J17-Pin_6)*%
X67698000Y-46228000D03*
%TD*%
D17*
%TO.P,J19,1,Pin_1*%
%TO.N,+3.3V*%
X46990000Y-107696000D03*
D18*
%TO.P,J19,2,Pin_2*%
%TO.N,+5V*%
X44450000Y-107696000D03*
%TO.P,J19,3,Pin_3*%
%TO.N,SDA*%
X46990000Y-105156000D03*
%TO.P,J19,4,Pin_4*%
%TO.N,+5V*%
X44450000Y-105156000D03*
%TO.P,J19,5,Pin_5*%
%TO.N,SCL*%
X46990000Y-102616000D03*
%TO.P,J19,6,Pin_6*%
%TO.N,GND*%
X44450000Y-102616000D03*
%TO.P,J19,7,Pin_7*%
%TO.N,unconnected-(J19-Pin_7-Pad7)*%
X46990000Y-100076000D03*
%TO.P,J19,8,Pin_8*%
%TO.N,IA-RX*%
X44450000Y-100076000D03*
%TO.P,J19,9,Pin_9*%
%TO.N,GND*%
X46990000Y-97536000D03*
%TO.P,J19,10,Pin_10*%
%TO.N,IA-TX*%
X44450000Y-97536000D03*
%TO.P,J19,11,Pin_11*%
%TO.N,GPIO00*%
X46990000Y-94996000D03*
%TO.P,J19,12,Pin_12*%
%TO.N,unconnected-(J19-Pin_12-Pad12)*%
X44450000Y-94996000D03*
%TO.P,J19,13,Pin_13*%
%TO.N,GPIO02*%
X46990000Y-92456000D03*
%TO.P,J19,14,Pin_14*%
%TO.N,GND*%
X44450000Y-92456000D03*
%TO.P,J19,15,Pin_15*%
%TO.N,unconnected-(J19-Pin_15-Pad15)*%
X46990000Y-89916000D03*
%TO.P,J19,16,Pin_16*%
%TO.N,Tirette*%
X44450000Y-89916000D03*
%TO.P,J19,17,Pin_17*%
%TO.N,unconnected-(J19-Pin_17-Pad17)*%
X46990000Y-87376000D03*
%TO.P,J19,18,Pin_18*%
%TO.N,Couleur*%
X44450000Y-87376000D03*
%TO.P,J19,19,Pin_19*%
%TO.N,GPIO12*%
X46990000Y-84836000D03*
%TO.P,J19,20,Pin_20*%
%TO.N,GND*%
X44450000Y-84836000D03*
%TO.P,J19,21,Pin_21*%
%TO.N,GPIO13*%
X46990000Y-82296000D03*
%TO.P,J19,22,Pin_22*%
%TO.N,unconnected-(J19-Pin_22-Pad22)*%
X44450000Y-82296000D03*
%TO.P,J19,23,Pin_23*%
%TO.N,unconnected-(J19-Pin_23-Pad23)*%
X46990000Y-79756000D03*
%TO.P,J19,24,Pin_24*%
%TO.N,unconnected-(J19-Pin_24-Pad24)*%
X44450000Y-79756000D03*
%TO.P,J19,25,Pin_25*%
%TO.N,GND*%
X46990000Y-77216000D03*
%TO.P,J19,26,Pin_26*%
%TO.N,unconnected-(J19-Pin_26-Pad26)*%
X44450000Y-77216000D03*
%TO.P,J19,27,Pin_27*%
%TO.N,unconnected-(J19-Pin_27-Pad27)*%
X46990000Y-74676000D03*
%TO.P,J19,28,Pin_28*%
%TO.N,unconnected-(J19-Pin_28-Pad28)*%
X44450000Y-74676000D03*
%TO.P,J19,29,Pin_29*%
%TO.N,GPIO21*%
X46990000Y-72136000D03*
%TO.P,J19,30,Pin_30*%
%TO.N,GND*%
X44450000Y-72136000D03*
%TO.P,J19,31,Pin_31*%
%TO.N,GPIO22*%
X46990000Y-69596000D03*
%TO.P,J19,32,Pin_32*%
%TO.N,unconnected-(J19-Pin_32-Pad32)*%
X44450000Y-69596000D03*
%TO.P,J19,33,Pin_33*%
%TO.N,unconnected-(J19-Pin_33-Pad33)*%
X46990000Y-67056000D03*
%TO.P,J19,34,Pin_34*%
%TO.N,GND*%
X44450000Y-67056000D03*
%TO.P,J19,35,Pin_35*%
%TO.N,GPIO24*%
X46990000Y-64516000D03*
%TO.P,J19,36,Pin_36*%
%TO.N,unconnected-(J19-Pin_36-Pad36)*%
X44450000Y-64516000D03*
%TO.P,J19,37,Pin_37*%
%TO.N,GPIO25*%
X46990000Y-61976000D03*
%TO.P,J19,38,Pin_38*%
%TO.N,unconnected-(J19-Pin_38-Pad38)*%
X44450000Y-61976000D03*
%TO.P,J19,39,Pin_39*%
%TO.N,GND*%
X46990000Y-59436000D03*
%TO.P,J19,40,Pin_40*%
%TO.N,unconnected-(J19-Pin_40-Pad40)*%
X44450000Y-59436000D03*
%TD*%
D17*
%TO.P,J15,1,Pin_1*%
%TO.N,GPIO00*%
X55626000Y-79756000D03*
D18*
%TO.P,J15,2,Pin_2*%
%TO.N,GPIO02*%
X58166000Y-79756000D03*
%TO.P,J15,3,Pin_3*%
%TO.N,GND*%
X60706000Y-79756000D03*
%TO.P,J15,4,Pin_4*%
%TO.N,+3.3V*%
X63246000Y-79756000D03*
%TO.P,J15,5,Pin_5*%
%TO.N,GPIO12*%
X65786000Y-79756000D03*
%TO.P,J15,6,Pin_6*%
%TO.N,GPIO13*%
X68326000Y-79756000D03*
%TD*%
D17*
%TO.P,J16,1,Pin_1*%
%TO.N,Net-(J11-Pin_4)*%
X55626000Y-69596000D03*
D18*
%TO.P,J16,2,Pin_2*%
%TO.N,Net-(J11-Pin_3)*%
X58166000Y-69596000D03*
%TO.P,J16,3,Pin_3*%
%TO.N,GND*%
X60706000Y-69596000D03*
%TO.P,J16,4,Pin_4*%
%TO.N,+5V*%
X63246000Y-69596000D03*
%TO.P,J16,5,Pin_5*%
%TO.N,Net-(J10-Pin_4)*%
X65786000Y-69596000D03*
%TO.P,J16,6,Pin_6*%
%TO.N,Net-(J10-Pin_3)*%
X68326000Y-69596000D03*
%TD*%
D19*
%TO.P,J13,1,Pin_1*%
%TO.N,MD22-SDA*%
X74422000Y-48634000D03*
D14*
%TO.P,J13,2,Pin_2*%
%TO.N,MD22-SCL*%
X74422000Y-51134000D03*
%TO.P,J13,3,Pin_3*%
%TO.N,+5V*%
X74422000Y-53634000D03*
%TO.P,J13,4,Pin_4*%
%TO.N,GND*%
X74422000Y-56134000D03*
%TD*%
D11*
%TO.P,J1,1,Pin_1*%
%TO.N,GND*%
X59570000Y-41148000D03*
D12*
%TO.P,J1,2,Pin_2*%
%TO.N,+5V*%
X57070000Y-41148000D03*
%TO.P,J1,3,Pin_3*%
%TO.N,Net-(J1-Pin_3)*%
X54570000Y-41148000D03*
%TO.P,J1,4,Pin_4*%
%TO.N,Net-(J1-Pin_4)*%
X52070000Y-41148000D03*
%TD*%
D10*
%TO.P,R7,1*%
%TO.N,Couleur*%
X38412000Y-83566000D03*
%TO.P,R7,2*%
%TO.N,+3.3V*%
X36772000Y-83566000D03*
%TD*%
D11*
%TO.P,J11,1,Pin_1*%
%TO.N,GND*%
X60078000Y-64516000D03*
D12*
%TO.P,J11,2,Pin_2*%
%TO.N,+5V*%
X57578000Y-64516000D03*
%TO.P,J11,3,Pin_3*%
%TO.N,Net-(J11-Pin_3)*%
X55078000Y-64516000D03*
%TO.P,J11,4,Pin_4*%
%TO.N,Net-(J11-Pin_4)*%
X52578000Y-64516000D03*
%TD*%
D17*
%TO.P,J18,1,Pin_1*%
%TO.N,GPIO21*%
X54998000Y-56388000D03*
D18*
%TO.P,J18,2,Pin_2*%
%TO.N,GPIO22*%
X57538000Y-56388000D03*
%TO.P,J18,3,Pin_3*%
%TO.N,GND*%
X60078000Y-56388000D03*
%TO.P,J18,4,Pin_4*%
%TO.N,+3.3V*%
X62618000Y-56388000D03*
%TO.P,J18,5,Pin_5*%
%TO.N,GPIO24*%
X65158000Y-56388000D03*
%TO.P,J18,6,Pin_6*%
%TO.N,GPIO25*%
X67698000Y-56388000D03*
%TD*%
D15*
%TO.P,J4,1,Pin_1*%
%TO.N,Tirette*%
X38608000Y-77216000D03*
D16*
%TO.P,J4,2,Pin_2*%
%TO.N,GND*%
X38608000Y-79716000D03*
%TD*%
D17*
%TO.P,J5,1,Pin_1*%
%TO.N,IA-TX*%
X80010000Y-38862000D03*
D18*
%TO.P,J5,2,Pin_2*%
%TO.N,IA-RX*%
X80010000Y-41402000D03*
%TO.P,J5,3,Pin_3*%
%TO.N,unconnected-(J5-Pin_3-Pad3)*%
X80010000Y-43942000D03*
%TO.P,J5,4,Pin_4*%
%TO.N,GND*%
X80010000Y-46482000D03*
%TO.P,J5,5,Pin_5*%
%TO.N,USB-D+*%
X80010000Y-49022000D03*
%TO.P,J5,6,Pin_6*%
%TO.N,unconnected-(J5-Pin_6-Pad6)*%
X80010000Y-51562000D03*
%TO.P,J5,7,Pin_7*%
%TO.N,ENC2-B*%
X80010000Y-54102000D03*
%TO.P,J5,8,Pin_8*%
%TO.N,unconnected-(J5-Pin_8-Pad8)*%
X80010000Y-56642000D03*
%TO.P,J5,9,Pin_9*%
%TO.N,ENC2-A*%
X80010000Y-59182000D03*
%TO.P,J5,10,Pin_10*%
%TO.N,unconnected-(J5-Pin_10-Pad10)*%
X80010000Y-61722000D03*
%TO.P,J5,11,Pin_11*%
%TO.N,unconnected-(J5-Pin_11-Pad11)*%
X80010000Y-64262000D03*
%TO.P,J5,12,Pin_12*%
%TO.N,MD22-SCL*%
X80010000Y-66802000D03*
%TO.P,J5,13,Pin_13*%
%TO.N,USB-D-*%
X80010000Y-69342000D03*
%TO.P,J5,14,Pin_14*%
%TO.N,MD22-SDA*%
X80010000Y-71882000D03*
%TO.P,J5,15,Pin_15*%
%TO.N,ENC1-A*%
X80010000Y-74422000D03*
%TD*%
D20*
%TO.P,J8,1,Pin_1*%
%TO.N,Net-(J8-Pin_1)*%
X101092000Y-74890000D03*
D16*
%TO.P,J8,2,Pin_2*%
%TO.N,Net-(J8-Pin_2)*%
X101092000Y-72390000D03*
%TD*%
D21*
%TO.P,PS1,1,+VIN(VCC)*%
%TO.N,Net-(J8-Pin_1)*%
X97790000Y-89408000D03*
D22*
%TO.P,PS1,2,-VIN(GND)*%
%TO.N,Net-(J8-Pin_2)*%
X97790000Y-94488000D03*
%TO.P,PS1,3,REMOTE_ON/OFF*%
%TO.N,unconnected-(PS1-REMOTE_ON{slash}OFF-Pad3)*%
X97790000Y-104648000D03*
%TO.P,PS1,4,+VOUT*%
%TO.N,+5V*%
X52070000Y-86868000D03*
%TO.P,PS1,5,-VOUT*%
%TO.N,GND*%
X52070000Y-97028000D03*
%TO.P,PS1,6,TRIM*%
%TO.N,unconnected-(PS1-TRIM-Pad6)*%
X52070000Y-107188000D03*
%TD*%
D13*
%TO.P,J9,1,Pin_1*%
%TO.N,ENC2-B*%
X101092000Y-51950000D03*
D14*
%TO.P,J9,2,Pin_2*%
%TO.N,ENC2-A*%
X101092000Y-49450000D03*
%TO.P,J9,3,Pin_3*%
%TO.N,+5V*%
X101092000Y-46950000D03*
%TO.P,J9,4,Pin_4*%
%TO.N,GND*%
X101092000Y-44450000D03*
%TD*%
D19*
%TO.P,J12,1,Pin_1*%
%TO.N,SDA*%
X38354000Y-96386000D03*
D14*
%TO.P,J12,2,Pin_2*%
%TO.N,SCL*%
X38354000Y-98886000D03*
%TO.P,J12,3,Pin_3*%
%TO.N,+5V*%
X38354000Y-101386000D03*
%TO.P,J12,4,Pin_4*%
%TO.N,GND*%
X38354000Y-103886000D03*
%TD*%
D23*
%TO.P,J14,A5,CC1*%
%TO.N,unconnected-(J14-CC1-PadA5)*%
X88898000Y-41870000D03*
%TO.P,J14,A6,D+*%
%TO.N,USB-D+*%
X87898000Y-41870000D03*
%TO.P,J14,A7,D-*%
%TO.N,USB-D-*%
X87398000Y-41870000D03*
%TO.P,J14,A8,SBU1*%
%TO.N,unconnected-(J14-SBU1-PadA8)*%
X86398000Y-41870000D03*
D24*
%TO.P,J14,A9B4,VBUS*%
%TO.N,+5V*%
X85248000Y-41870000D03*
%TO.P,J14,A12B1,GND*%
%TO.N,GND*%
X84448000Y-41870000D03*
D23*
%TO.P,J14,B5,CC2*%
%TO.N,unconnected-(J14-CC2-PadB5)*%
X85898000Y-41870000D03*
%TO.P,J14,B6,D+*%
%TO.N,USB-D+*%
X86898000Y-41870000D03*
%TO.P,J14,B7,D-*%
%TO.N,USB-D-*%
X88398000Y-41870000D03*
%TO.P,J14,B8,SBU2*%
%TO.N,unconnected-(J14-SBU2-PadB8)*%
X89398000Y-41870000D03*
D24*
%TO.P,J14,B9A4,VBUS*%
%TO.N,+5V*%
X90048000Y-41870000D03*
%TO.P,J14,B12A1,GND*%
%TO.N,GND*%
X90848000Y-41870000D03*
D25*
%TO.P,J14,S1,SHIELD*%
%TO.N,unconnected-(J14-SHIELD-PadS1)*%
X91978000Y-41190000D03*
D26*
X91978000Y-36990000D03*
D27*
X89648000Y-38370000D03*
X89648000Y-36370000D03*
D28*
X87648000Y-37370000D03*
D27*
X85648000Y-38370000D03*
X85648000Y-36370000D03*
D25*
X83318000Y-41190000D03*
D26*
X83318000Y-36990000D03*
%TD*%
D29*
%TO.N,GND*%
X84448000Y-43434000D03*
X90848000Y-43604000D03*
%TO.N,IA-TX*%
X82804000Y-45720000D03*
%TO.N,USB-D+*%
X86614000Y-44450000D03*
%TO.N,USB-D-*%
X87398000Y-43412000D03*
X88900000Y-43434000D03*
%TO.N,GPIO02*%
X57912000Y-92456000D03*
%TO.N,+3.3V*%
X36830000Y-70612000D03*
X36772000Y-81788000D03*
%TO.N,GPIO12*%
X65786000Y-84836000D03*
%TO.N,GPIO25*%
X63754000Y-59436000D03*
%TO.N,GPIO21*%
X50800000Y-60706000D03*
%TD*%
D30*
%TO.N,GND*%
X84448000Y-43434000D02*
X84448000Y-43568000D01*
X84448000Y-41870000D02*
X84448000Y-43434000D01*
X90848000Y-41870000D02*
X90848000Y-43604000D01*
%TO.N,+5V*%
X91948000Y-46482000D02*
X95250000Y-46482000D01*
X85248000Y-45370000D02*
X86360000Y-46482000D01*
X86360000Y-46482000D02*
X90170000Y-46482000D01*
X90048000Y-46360000D02*
X90170000Y-46482000D01*
X90170000Y-46482000D02*
X91948000Y-46482000D01*
X90048000Y-41870000D02*
X90048000Y-46360000D01*
X85248000Y-41870000D02*
X85248000Y-45370000D01*
D31*
%TO.N,Couleur*%
X38354000Y-87630000D02*
X38354000Y-83624000D01*
X38354000Y-83624000D02*
X38412000Y-83566000D01*
%TO.N,Tirette*%
X38608000Y-77216000D02*
X38608000Y-73602000D01*
X38608000Y-73602000D02*
X38412000Y-73406000D01*
D30*
%TO.N,USB-D+*%
X87280654Y-44450000D02*
X86614000Y-44450000D01*
X87898000Y-42940000D02*
X88049000Y-43091000D01*
D32*
X86898000Y-41870000D02*
X86898000Y-43062057D01*
X86898000Y-43062057D02*
X86614000Y-43346057D01*
X86614000Y-43346057D02*
X86614000Y-44450000D01*
D30*
X88049000Y-43091000D02*
X88049000Y-43681654D01*
X88049000Y-43681654D02*
X87280654Y-44450000D01*
X87898000Y-41870000D02*
X87898000Y-42940000D01*
D32*
%TO.N,USB-D-*%
X88900000Y-43304190D02*
X88900000Y-43434000D01*
D30*
X87398000Y-41870000D02*
X87398000Y-43412000D01*
D32*
X88398000Y-42802190D02*
X88900000Y-43304190D01*
X88398000Y-41870000D02*
X88398000Y-42802190D01*
D31*
%TO.N,ENC2-A*%
X83820000Y-60706000D02*
X83820000Y-72136000D01*
X80010000Y-59182000D02*
X82296000Y-59182000D01*
X89662000Y-77978000D02*
X102616000Y-77978000D01*
X103886000Y-76708000D02*
X103886000Y-50546000D01*
X102616000Y-77978000D02*
X103886000Y-76708000D01*
X102790000Y-49450000D02*
X101092000Y-49450000D01*
X103886000Y-50546000D02*
X102790000Y-49450000D01*
X82296000Y-59182000D02*
X83820000Y-60706000D01*
X83820000Y-72136000D02*
X89662000Y-77978000D01*
%TO.N,+3.3V*%
X36772000Y-81788000D02*
X36772000Y-83566000D01*
X36772000Y-73406000D02*
X36772000Y-70670000D01*
X36772000Y-70670000D02*
X36830000Y-70612000D01*
X36772000Y-73406000D02*
X36772000Y-81788000D01*
%TD*%
%TA.AperFunction,Conductor*%
%TO.N,+5V*%
G36*
X45565270Y-105917717D02*
G01*
X45565270Y-105917716D01*
X45604622Y-105863555D01*
X45609232Y-105854507D01*
X45657205Y-105803709D01*
X45725025Y-105786912D01*
X45791161Y-105809447D01*
X45830204Y-105854504D01*
X45834949Y-105863817D01*
X45959890Y-106035786D01*
X46073430Y-106149326D01*
X46106915Y-106210649D01*
X46101931Y-106280341D01*
X46060059Y-106336274D01*
X46029083Y-106353189D01*
X45897669Y-106402203D01*
X45897664Y-106402206D01*
X45782455Y-106488452D01*
X45782452Y-106488455D01*
X45696206Y-106603664D01*
X45696202Y-106603671D01*
X45645908Y-106738517D01*
X45639501Y-106798116D01*
X45639501Y-106798123D01*
X45639500Y-106798135D01*
X45639500Y-106808690D01*
X45619815Y-106875729D01*
X45603181Y-106896371D01*
X44932962Y-107566590D01*
X44915925Y-107503007D01*
X44850099Y-107388993D01*
X44757007Y-107295901D01*
X44642993Y-107230075D01*
X44579409Y-107213037D01*
X45211716Y-106580728D01*
X45157550Y-106541375D01*
X45147954Y-106536486D01*
X45097157Y-106488512D01*
X45080361Y-106420692D01*
X45102897Y-106354556D01*
X45147954Y-106315514D01*
X45157554Y-106310622D01*
X45211716Y-106271270D01*
X45211717Y-106271270D01*
X44579408Y-105638962D01*
X44642993Y-105621925D01*
X44757007Y-105556099D01*
X44850099Y-105463007D01*
X44915925Y-105348993D01*
X44932962Y-105285409D01*
X45565270Y-105917717D01*
G37*
%TD.AperFunction*%
%TA.AperFunction,Conductor*%
G36*
X45791444Y-103269999D02*
G01*
X45830484Y-103315054D01*
X45834591Y-103323115D01*
X45834951Y-103323820D01*
X45959890Y-103495786D01*
X46110213Y-103646109D01*
X46282182Y-103771050D01*
X46290946Y-103775516D01*
X46341742Y-103823491D01*
X46358536Y-103891312D01*
X46335998Y-103957447D01*
X46290946Y-103996484D01*
X46282182Y-104000949D01*
X46110213Y-104125890D01*
X45959890Y-104276213D01*
X45834949Y-104448182D01*
X45830202Y-104457499D01*
X45782227Y-104508293D01*
X45714405Y-104525087D01*
X45648271Y-104502548D01*
X45609234Y-104457495D01*
X45604626Y-104448452D01*
X45565270Y-104394282D01*
X45565269Y-104394282D01*
X44932962Y-105026590D01*
X44915925Y-104963007D01*
X44850099Y-104848993D01*
X44757007Y-104755901D01*
X44642993Y-104690075D01*
X44579409Y-104673037D01*
X45211716Y-104040728D01*
X45157547Y-104001373D01*
X45157547Y-104001372D01*
X45148500Y-103996763D01*
X45097706Y-103948788D01*
X45080912Y-103880966D01*
X45103451Y-103814832D01*
X45148508Y-103775793D01*
X45157816Y-103771051D01*
X45240190Y-103711203D01*
X45329786Y-103646109D01*
X45329788Y-103646106D01*
X45329792Y-103646104D01*
X45480104Y-103495792D01*
X45480106Y-103495788D01*
X45480109Y-103495786D01*
X45605048Y-103323820D01*
X45605047Y-103323820D01*
X45605051Y-103323816D01*
X45609514Y-103315054D01*
X45657488Y-103264259D01*
X45725308Y-103247463D01*
X45791444Y-103269999D01*
G37*
%TD.AperFunction*%
%TA.AperFunction,Conductor*%
G36*
X105360539Y-34556185D02*
G01*
X105406294Y-34608989D01*
X105417500Y-34660500D01*
X105417500Y-110373500D01*
X105397815Y-110440539D01*
X105345011Y-110486294D01*
X105293500Y-110497500D01*
X34406500Y-110497500D01*
X34339461Y-110477815D01*
X34293706Y-110425011D01*
X34282500Y-110373500D01*
X34282500Y-95735983D01*
X36878500Y-95735983D01*
X36878500Y-97036001D01*
X36878501Y-97036018D01*
X36889000Y-97138796D01*
X36889001Y-97138799D01*
X36944185Y-97305331D01*
X36944186Y-97305334D01*
X37036288Y-97454656D01*
X37160344Y-97578712D01*
X37263414Y-97642286D01*
X37315120Y-97674178D01*
X37361845Y-97726126D01*
X37373068Y-97795088D01*
X37345224Y-97859171D01*
X37337706Y-97867398D01*
X37198889Y-98006215D01*
X37073951Y-98178179D01*
X36977444Y-98367585D01*
X36977443Y-98367587D01*
X36977443Y-98367588D01*
X36956972Y-98430592D01*
X36911753Y-98569760D01*
X36878500Y-98779713D01*
X36878500Y-98992286D01*
X36911753Y-99202239D01*
X36977444Y-99404414D01*
X37073951Y-99593820D01*
X37198890Y-99765786D01*
X37349209Y-99916105D01*
X37349214Y-99916109D01*
X37514218Y-100035991D01*
X37556884Y-100091320D01*
X37562863Y-100160934D01*
X37530258Y-100222729D01*
X37514218Y-100236627D01*
X37349540Y-100356272D01*
X37349535Y-100356276D01*
X37199276Y-100506535D01*
X37199272Y-100506540D01*
X37074379Y-100678442D01*
X36977904Y-100867782D01*
X36912242Y-101069870D01*
X36912242Y-101069873D01*
X36901769Y-101136000D01*
X37949854Y-101136000D01*
X37911370Y-101202657D01*
X37879000Y-101323465D01*
X37879000Y-101448535D01*
X37911370Y-101569343D01*
X37949854Y-101636000D01*
X36901769Y-101636000D01*
X36912242Y-101702126D01*
X36912242Y-101702129D01*
X36977904Y-101904217D01*
X37074379Y-102093557D01*
X37199272Y-102265459D01*
X37199276Y-102265464D01*
X37349535Y-102415723D01*
X37349540Y-102415727D01*
X37514218Y-102535372D01*
X37556884Y-102590701D01*
X37562863Y-102660315D01*
X37530258Y-102722110D01*
X37514218Y-102736008D01*
X37349214Y-102855890D01*
X37349209Y-102855894D01*
X37198890Y-103006213D01*
X37073951Y-103178179D01*
X36977444Y-103367585D01*
X36911753Y-103569760D01*
X36879872Y-103771048D01*
X36878500Y-103779713D01*
X36878500Y-103992287D01*
X36911754Y-104202243D01*
X36947178Y-104311267D01*
X36977444Y-104404414D01*
X37073951Y-104593820D01*
X37198890Y-104765786D01*
X37349213Y-104916109D01*
X37521179Y-105041048D01*
X37521181Y-105041049D01*
X37521184Y-105041051D01*
X37710588Y-105137557D01*
X37912757Y-105203246D01*
X38122713Y-105236500D01*
X38122714Y-105236500D01*
X38585286Y-105236500D01*
X38585287Y-105236500D01*
X38795243Y-105203246D01*
X38997412Y-105137557D01*
X39186816Y-105041051D01*
X39319623Y-104944562D01*
X39319625Y-104944561D01*
X39358785Y-104916109D01*
X39358783Y-104916109D01*
X39358792Y-104916104D01*
X39509104Y-104765792D01*
X39509106Y-104765788D01*
X39509109Y-104765786D01*
X39634048Y-104593820D01*
X39634047Y-104593820D01*
X39634051Y-104593816D01*
X39730557Y-104404412D01*
X39796246Y-104202243D01*
X39829500Y-103992287D01*
X39829500Y-103779713D01*
X39796246Y-103569757D01*
X39730557Y-103367588D01*
X39634051Y-103178184D01*
X39634049Y-103178181D01*
X39634048Y-103178179D01*
X39509109Y-103006213D01*
X39358790Y-102855894D01*
X39358785Y-102855890D01*
X39193781Y-102736008D01*
X39151115Y-102680678D01*
X39145136Y-102611065D01*
X39177741Y-102549270D01*
X39193781Y-102535371D01*
X39358466Y-102415721D01*
X39508723Y-102265464D01*
X39508727Y-102265459D01*
X39633620Y-102093557D01*
X39730095Y-101904217D01*
X39795757Y-101702129D01*
X39795757Y-101702126D01*
X39806231Y-101636000D01*
X38758146Y-101636000D01*
X38796630Y-101569343D01*
X38829000Y-101448535D01*
X38829000Y-101323465D01*
X38796630Y-101202657D01*
X38758146Y-101136000D01*
X39806231Y-101136000D01*
X39795757Y-101069873D01*
X39795757Y-101069870D01*
X39730095Y-100867782D01*
X39633620Y-100678442D01*
X39508727Y-100506540D01*
X39508723Y-100506535D01*
X39358464Y-100356276D01*
X39358459Y-100356272D01*
X39193781Y-100236627D01*
X39151115Y-100181297D01*
X39145136Y-100111684D01*
X39177741Y-100049889D01*
X39193776Y-100035994D01*
X39358792Y-99916104D01*
X39509104Y-99765792D01*
X39509106Y-99765788D01*
X39509109Y-99765786D01*
X39634048Y-99593820D01*
X39634047Y-99593820D01*
X39634051Y-99593816D01*
X39730557Y-99404412D01*
X39796246Y-99202243D01*
X39829500Y-98992287D01*
X39829500Y-98779713D01*
X39796246Y-98569757D01*
X39730557Y-98367588D01*
X39634051Y-98178184D01*
X39634049Y-98178181D01*
X39634048Y-98178179D01*
X39509109Y-98006213D01*
X39370294Y-97867398D01*
X39336809Y-97806075D01*
X39341793Y-97736383D01*
X39383665Y-97680450D01*
X39392879Y-97674178D01*
X39398331Y-97670814D01*
X39398334Y-97670814D01*
X39547656Y-97578712D01*
X39671712Y-97454656D01*
X39763814Y-97305334D01*
X39818999Y-97138797D01*
X39829500Y-97036009D01*
X39829499Y-95735992D01*
X39818999Y-95633203D01*
X39763814Y-95466666D01*
X39671712Y-95317344D01*
X39547656Y-95193288D01*
X39400119Y-95102287D01*
X39398336Y-95101187D01*
X39398331Y-95101185D01*
X39396862Y-95100698D01*
X39231797Y-95046001D01*
X39231795Y-95046000D01*
X39129010Y-95035500D01*
X37578998Y-95035500D01*
X37578981Y-95035501D01*
X37476203Y-95046000D01*
X37476200Y-95046001D01*
X37309668Y-95101185D01*
X37309663Y-95101187D01*
X37160342Y-95193289D01*
X37036289Y-95317342D01*
X36944187Y-95466663D01*
X36944185Y-95466668D01*
X36928364Y-95514414D01*
X36889001Y-95633203D01*
X36889001Y-95633204D01*
X36889000Y-95633204D01*
X36878500Y-95735983D01*
X34282500Y-95735983D01*
X34282500Y-73074384D01*
X35871500Y-73074384D01*
X35871500Y-73737616D01*
X35877914Y-73808196D01*
X35890885Y-73849823D01*
X35896500Y-73886711D01*
X35896500Y-83085285D01*
X35890886Y-83122173D01*
X35877914Y-83163803D01*
X35871500Y-83234386D01*
X35871500Y-83897613D01*
X35877913Y-83968192D01*
X35877913Y-83968194D01*
X35877914Y-83968196D01*
X35928522Y-84130606D01*
X35979064Y-84214213D01*
X36016530Y-84276188D01*
X36136811Y-84396469D01*
X36136813Y-84396470D01*
X36136815Y-84396472D01*
X36282394Y-84484478D01*
X36444804Y-84535086D01*
X36515384Y-84541500D01*
X36515387Y-84541500D01*
X37028613Y-84541500D01*
X37028616Y-84541500D01*
X37099196Y-84535086D01*
X37261606Y-84484478D01*
X37290351Y-84467100D01*
X37357904Y-84449265D01*
X37424378Y-84470782D01*
X37468666Y-84524823D01*
X37478500Y-84573218D01*
X37478500Y-86191414D01*
X37458815Y-86258453D01*
X37406011Y-86304208D01*
X37393505Y-86309120D01*
X37284666Y-86345186D01*
X37284663Y-86345187D01*
X37135342Y-86437289D01*
X37011289Y-86561342D01*
X36919187Y-86710663D01*
X36919185Y-86710668D01*
X36891349Y-86794670D01*
X36864001Y-86877203D01*
X36864001Y-86877204D01*
X36864000Y-86877204D01*
X36853500Y-86979983D01*
X36853500Y-88280001D01*
X36853501Y-88280018D01*
X36864000Y-88382796D01*
X36864001Y-88382799D01*
X36877200Y-88422629D01*
X36919186Y-88549334D01*
X36990185Y-88664443D01*
X37011289Y-88698657D01*
X37135344Y-88822712D01*
X37290120Y-88918178D01*
X37336845Y-88970126D01*
X37348068Y-89039088D01*
X37320224Y-89103171D01*
X37312706Y-89111398D01*
X37173889Y-89250215D01*
X37048951Y-89422179D01*
X36952444Y-89611585D01*
X36886753Y-89813760D01*
X36853500Y-90023713D01*
X36853500Y-90236286D01*
X36878380Y-90393376D01*
X36886754Y-90446243D01*
X36944451Y-90623816D01*
X36952444Y-90648414D01*
X37048951Y-90837820D01*
X37173890Y-91009786D01*
X37324213Y-91160109D01*
X37496179Y-91285048D01*
X37496181Y-91285049D01*
X37496184Y-91285051D01*
X37685588Y-91381557D01*
X37887757Y-91447246D01*
X38097713Y-91480500D01*
X38097714Y-91480500D01*
X38610286Y-91480500D01*
X38610287Y-91480500D01*
X38820243Y-91447246D01*
X39022412Y-91381557D01*
X39211816Y-91285051D01*
X39262108Y-91248512D01*
X39383786Y-91160109D01*
X39383788Y-91160106D01*
X39383792Y-91160104D01*
X39534104Y-91009792D01*
X39534106Y-91009788D01*
X39534109Y-91009786D01*
X39659048Y-90837820D01*
X39659047Y-90837820D01*
X39659051Y-90837816D01*
X39755557Y-90648412D01*
X39821246Y-90446243D01*
X39854500Y-90236287D01*
X39854500Y-90023713D01*
X39821246Y-89813757D01*
X39755557Y-89611588D01*
X39659051Y-89422184D01*
X39659049Y-89422181D01*
X39659048Y-89422179D01*
X39534109Y-89250213D01*
X39395294Y-89111398D01*
X39361809Y-89050075D01*
X39366793Y-88980383D01*
X39408665Y-88924450D01*
X39417879Y-88918178D01*
X39423331Y-88914814D01*
X39423334Y-88914814D01*
X39572656Y-88822712D01*
X39696712Y-88698656D01*
X39788814Y-88549334D01*
X39843999Y-88382797D01*
X39854500Y-88280009D01*
X39854499Y-86979992D01*
X39843999Y-86877203D01*
X39788814Y-86710666D01*
X39696712Y-86561344D01*
X39572656Y-86437288D01*
X39424485Y-86345896D01*
X39423336Y-86345187D01*
X39423335Y-86345186D01*
X39423334Y-86345186D01*
X39335827Y-86316189D01*
X39314495Y-86309120D01*
X39257050Y-86269347D01*
X39230228Y-86204831D01*
X39229500Y-86191414D01*
X39229500Y-84208146D01*
X39247385Y-84143994D01*
X39255474Y-84130613D01*
X39255474Y-84130612D01*
X39255478Y-84130606D01*
X39306086Y-83968196D01*
X39312500Y-83897616D01*
X39312500Y-83234384D01*
X39306086Y-83163804D01*
X39255478Y-83001394D01*
X39167472Y-82855815D01*
X39167470Y-82855813D01*
X39167469Y-82855811D01*
X39047188Y-82735530D01*
X38982259Y-82696279D01*
X38901606Y-82647522D01*
X38739196Y-82596914D01*
X38739194Y-82596913D01*
X38739192Y-82596913D01*
X38689778Y-82592423D01*
X38668616Y-82590500D01*
X38155384Y-82590500D01*
X38136145Y-82592248D01*
X38084807Y-82596913D01*
X37922393Y-82647522D01*
X37854670Y-82688462D01*
X37841741Y-82696279D01*
X37835650Y-82699961D01*
X37768095Y-82717797D01*
X37701622Y-82696279D01*
X37657334Y-82642239D01*
X37647500Y-82593844D01*
X37647500Y-81021080D01*
X37667185Y-80954041D01*
X37719989Y-80908286D01*
X37789147Y-80898342D01*
X37827791Y-80910593D01*
X37939588Y-80967557D01*
X38141757Y-81033246D01*
X38351713Y-81066500D01*
X38351714Y-81066500D01*
X38864286Y-81066500D01*
X38864287Y-81066500D01*
X39074243Y-81033246D01*
X39276412Y-80967557D01*
X39465816Y-80871051D01*
X39497092Y-80848328D01*
X39637786Y-80746109D01*
X39637788Y-80746106D01*
X39637792Y-80746104D01*
X39788104Y-80595792D01*
X39788106Y-80595788D01*
X39788109Y-80595786D01*
X39913048Y-80423820D01*
X39913047Y-80423820D01*
X39913051Y-80423816D01*
X40009557Y-80234412D01*
X40075246Y-80032243D01*
X40108500Y-79822287D01*
X40108500Y-79609713D01*
X40075246Y-79399757D01*
X40009557Y-79197588D01*
X39913051Y-79008184D01*
X39913049Y-79008181D01*
X39913048Y-79008179D01*
X39788109Y-78836213D01*
X39649294Y-78697398D01*
X39615809Y-78636075D01*
X39620793Y-78566383D01*
X39662665Y-78510450D01*
X39671879Y-78504178D01*
X39677331Y-78500814D01*
X39677334Y-78500814D01*
X39826656Y-78408712D01*
X39950712Y-78284656D01*
X40042814Y-78135334D01*
X40097999Y-77968797D01*
X40108500Y-77866009D01*
X40108499Y-76565992D01*
X40097999Y-76463203D01*
X40042814Y-76296666D01*
X39950712Y-76147344D01*
X39826656Y-76023288D01*
X39709964Y-75951312D01*
X39677336Y-75931187D01*
X39677335Y-75931186D01*
X39677334Y-75931186D01*
X39616301Y-75910961D01*
X39568495Y-75895120D01*
X39511050Y-75855347D01*
X39484228Y-75790831D01*
X39483500Y-75777414D01*
X39483500Y-73515768D01*
X39483499Y-73515766D01*
X39474380Y-73469924D01*
X39449855Y-73346626D01*
X39449853Y-73346621D01*
X39383861Y-73187301D01*
X39383859Y-73187297D01*
X39383858Y-73187295D01*
X39330674Y-73107700D01*
X39310287Y-73050034D01*
X39306086Y-73003804D01*
X39255478Y-72841394D01*
X39167472Y-72695815D01*
X39167470Y-72695813D01*
X39167469Y-72695811D01*
X39047188Y-72575530D01*
X38982259Y-72536279D01*
X38901606Y-72487522D01*
X38739196Y-72436914D01*
X38739194Y-72436913D01*
X38739192Y-72436913D01*
X38689778Y-72432423D01*
X38668616Y-72430500D01*
X38155384Y-72430500D01*
X38136145Y-72432248D01*
X38084807Y-72436913D01*
X37922393Y-72487522D01*
X37854670Y-72528462D01*
X37841741Y-72536279D01*
X37835650Y-72539961D01*
X37768095Y-72557797D01*
X37701622Y-72536279D01*
X37657334Y-72482239D01*
X37647500Y-72433844D01*
X37647500Y-70950837D01*
X37656939Y-70903384D01*
X37662567Y-70889796D01*
X37671855Y-70867374D01*
X37705500Y-70698229D01*
X37705500Y-70525771D01*
X37705500Y-70525768D01*
X37705499Y-70525766D01*
X37700675Y-70501514D01*
X37671855Y-70356627D01*
X37649981Y-70303818D01*
X37605859Y-70197297D01*
X37605857Y-70197293D01*
X37510048Y-70053905D01*
X37510042Y-70053897D01*
X37388102Y-69931957D01*
X37388094Y-69931951D01*
X37244706Y-69836142D01*
X37244702Y-69836140D01*
X37085377Y-69770146D01*
X37085365Y-69770143D01*
X36916232Y-69736500D01*
X36916229Y-69736500D01*
X36743771Y-69736500D01*
X36743768Y-69736500D01*
X36574633Y-69770143D01*
X36574621Y-69770146D01*
X36415301Y-69836138D01*
X36415288Y-69836145D01*
X36271902Y-69931953D01*
X36254302Y-69949554D01*
X36213901Y-69989955D01*
X36154040Y-70049816D01*
X36091953Y-70111902D01*
X35996145Y-70255288D01*
X35996138Y-70255301D01*
X35930146Y-70414621D01*
X35930143Y-70414633D01*
X35896500Y-70583766D01*
X35896500Y-72925285D01*
X35895024Y-72934981D01*
X35894728Y-72946173D01*
X35893338Y-72954303D01*
X35877914Y-73003804D01*
X35871500Y-73074384D01*
X34282500Y-73074384D01*
X34282500Y-59329713D01*
X43099500Y-59329713D01*
X43099500Y-59542286D01*
X43130378Y-59737246D01*
X43132754Y-59752243D01*
X43195803Y-59946288D01*
X43198444Y-59954414D01*
X43294951Y-60143820D01*
X43419890Y-60315786D01*
X43570213Y-60466109D01*
X43742182Y-60591050D01*
X43750946Y-60595516D01*
X43801742Y-60643491D01*
X43818536Y-60711312D01*
X43795998Y-60777447D01*
X43750946Y-60816484D01*
X43742182Y-60820949D01*
X43570213Y-60945890D01*
X43419890Y-61096213D01*
X43294951Y-61268179D01*
X43198444Y-61457585D01*
X43132753Y-61659760D01*
X43099500Y-61869713D01*
X43099500Y-62082286D01*
X43124544Y-62240412D01*
X43132754Y-62292243D01*
X43177454Y-62429816D01*
X43198444Y-62494414D01*
X43294951Y-62683820D01*
X43419890Y-62855786D01*
X43570213Y-63006109D01*
X43742182Y-63131050D01*
X43750946Y-63135516D01*
X43801742Y-63183491D01*
X43818536Y-63251312D01*
X43795998Y-63317447D01*
X43750946Y-63356484D01*
X43742182Y-63360949D01*
X43570213Y-63485890D01*
X43419890Y-63636213D01*
X43294951Y-63808179D01*
X43198444Y-63997585D01*
X43132753Y-64199760D01*
X43099500Y-64409713D01*
X43099500Y-64622286D01*
X43124544Y-64780412D01*
X43132754Y-64832243D01*
X43187478Y-65000666D01*
X43198444Y-65034414D01*
X43294951Y-65223820D01*
X43419890Y-65395786D01*
X43570213Y-65546109D01*
X43742182Y-65671050D01*
X43750946Y-65675516D01*
X43801742Y-65723491D01*
X43818536Y-65791312D01*
X43795998Y-65857447D01*
X43750946Y-65896484D01*
X43742182Y-65900949D01*
X43570213Y-66025890D01*
X43419890Y-66176213D01*
X43294951Y-66348179D01*
X43198444Y-66537585D01*
X43132753Y-66739760D01*
X43099500Y-66949713D01*
X43099500Y-67162286D01*
X43124544Y-67320412D01*
X43132754Y-67372243D01*
X43177454Y-67509816D01*
X43198444Y-67574414D01*
X43294951Y-67763820D01*
X43419890Y-67935786D01*
X43570213Y-68086109D01*
X43742182Y-68211050D01*
X43750946Y-68215516D01*
X43801742Y-68263491D01*
X43818536Y-68331312D01*
X43795998Y-68397447D01*
X43750946Y-68436484D01*
X43742182Y-68440949D01*
X43570213Y-68565890D01*
X43419890Y-68716213D01*
X43294951Y-68888179D01*
X43198444Y-69077585D01*
X43132753Y-69279760D01*
X43099500Y-69489713D01*
X43099500Y-69702286D01*
X43124544Y-69860412D01*
X43132754Y-69912243D01*
X43197627Y-70111902D01*
X43198444Y-70114414D01*
X43294951Y-70303820D01*
X43419890Y-70475786D01*
X43570213Y-70626109D01*
X43742182Y-70751050D01*
X43750946Y-70755516D01*
X43801742Y-70803491D01*
X43818536Y-70871312D01*
X43795998Y-70937447D01*
X43750946Y-70976484D01*
X43742182Y-70980949D01*
X43570213Y-71105890D01*
X43419890Y-71256213D01*
X43294951Y-71428179D01*
X43198444Y-71617585D01*
X43132753Y-71819760D01*
X43099500Y-72029713D01*
X43099500Y-72242286D01*
X43124544Y-72400412D01*
X43132754Y-72452243D01*
X43177454Y-72589816D01*
X43198444Y-72654414D01*
X43294951Y-72843820D01*
X43419890Y-73015786D01*
X43570213Y-73166109D01*
X43742182Y-73291050D01*
X43750946Y-73295516D01*
X43801742Y-73343491D01*
X43818536Y-73411312D01*
X43795998Y-73477447D01*
X43750946Y-73516484D01*
X43742182Y-73520949D01*
X43570213Y-73645890D01*
X43419890Y-73796213D01*
X43294951Y-73968179D01*
X43198444Y-74157585D01*
X43132753Y-74359760D01*
X43099500Y-74569713D01*
X43099500Y-74782286D01*
X43124544Y-74940412D01*
X43132754Y-74992243D01*
X43177454Y-75129816D01*
X43198444Y-75194414D01*
X43294951Y-75383820D01*
X43419890Y-75555786D01*
X43570213Y-75706109D01*
X43742182Y-75831050D01*
X43750946Y-75835516D01*
X43801742Y-75883491D01*
X43818536Y-75951312D01*
X43795998Y-76017447D01*
X43750946Y-76056484D01*
X43742182Y-76060949D01*
X43570213Y-76185890D01*
X43419890Y-76336213D01*
X43294951Y-76508179D01*
X43198444Y-76697585D01*
X43132753Y-76899760D01*
X43099500Y-77109713D01*
X43099500Y-77322286D01*
X43132753Y-77532239D01*
X43198444Y-77734414D01*
X43294951Y-77923820D01*
X43419890Y-78095786D01*
X43570213Y-78246109D01*
X43742182Y-78371050D01*
X43750946Y-78375516D01*
X43801742Y-78423491D01*
X43818536Y-78491312D01*
X43795998Y-78557447D01*
X43750946Y-78596484D01*
X43742182Y-78600949D01*
X43570213Y-78725890D01*
X43419890Y-78876213D01*
X43294951Y-79048179D01*
X43198444Y-79237585D01*
X43132753Y-79439760D01*
X43099500Y-79649713D01*
X43099500Y-79862286D01*
X43132753Y-80072239D01*
X43198444Y-80274414D01*
X43294951Y-80463820D01*
X43419890Y-80635786D01*
X43570213Y-80786109D01*
X43742182Y-80911050D01*
X43750946Y-80915516D01*
X43801742Y-80963491D01*
X43818536Y-81031312D01*
X43795998Y-81097447D01*
X43750946Y-81136484D01*
X43742182Y-81140949D01*
X43570213Y-81265890D01*
X43419890Y-81416213D01*
X43294951Y-81588179D01*
X43198444Y-81777585D01*
X43132753Y-81979760D01*
X43099500Y-82189713D01*
X43099500Y-82402287D01*
X43132754Y-82612243D01*
X43161255Y-82699961D01*
X43198444Y-82814414D01*
X43294951Y-83003820D01*
X43419890Y-83175786D01*
X43570213Y-83326109D01*
X43742182Y-83451050D01*
X43750946Y-83455516D01*
X43801742Y-83503491D01*
X43818536Y-83571312D01*
X43795998Y-83637447D01*
X43750946Y-83676484D01*
X43742182Y-83680949D01*
X43570213Y-83805890D01*
X43419890Y-83956213D01*
X43294951Y-84128179D01*
X43198444Y-84317585D01*
X43132753Y-84519760D01*
X43119649Y-84602498D01*
X43099500Y-84729713D01*
X43099500Y-84942287D01*
X43132754Y-85152243D01*
X43195803Y-85346288D01*
X43198444Y-85354414D01*
X43294951Y-85543820D01*
X43419890Y-85715786D01*
X43570213Y-85866109D01*
X43742182Y-85991050D01*
X43750946Y-85995516D01*
X43801742Y-86043491D01*
X43818536Y-86111312D01*
X43795998Y-86177447D01*
X43750946Y-86216484D01*
X43742182Y-86220949D01*
X43570213Y-86345890D01*
X43419890Y-86496213D01*
X43294951Y-86668179D01*
X43198444Y-86857585D01*
X43132753Y-87059760D01*
X43099500Y-87269713D01*
X43099500Y-87482286D01*
X43132753Y-87692239D01*
X43198444Y-87894414D01*
X43294951Y-88083820D01*
X43419890Y-88255786D01*
X43570213Y-88406109D01*
X43742182Y-88531050D01*
X43750946Y-88535516D01*
X43801742Y-88583491D01*
X43818536Y-88651312D01*
X43795998Y-88717447D01*
X43750946Y-88756484D01*
X43742182Y-88760949D01*
X43570213Y-88885890D01*
X43419890Y-89036213D01*
X43294951Y-89208179D01*
X43198444Y-89397585D01*
X43132753Y-89599760D01*
X43130880Y-89611588D01*
X43099500Y-89809713D01*
X43099500Y-90022287D01*
X43132754Y-90232243D01*
X43185108Y-90393372D01*
X43198444Y-90434414D01*
X43294951Y-90623820D01*
X43419890Y-90795786D01*
X43570213Y-90946109D01*
X43742182Y-91071050D01*
X43750946Y-91075516D01*
X43801742Y-91123491D01*
X43818536Y-91191312D01*
X43795998Y-91257447D01*
X43750946Y-91296484D01*
X43742182Y-91300949D01*
X43570213Y-91425890D01*
X43419890Y-91576213D01*
X43294951Y-91748179D01*
X43198444Y-91937585D01*
X43132753Y-92139760D01*
X43119649Y-92222498D01*
X43099500Y-92349713D01*
X43099500Y-92562287D01*
X43132754Y-92772243D01*
X43195803Y-92966288D01*
X43198444Y-92974414D01*
X43294951Y-93163820D01*
X43419890Y-93335786D01*
X43570213Y-93486109D01*
X43742182Y-93611050D01*
X43750946Y-93615516D01*
X43801742Y-93663491D01*
X43818536Y-93731312D01*
X43795998Y-93797447D01*
X43750946Y-93836484D01*
X43742182Y-93840949D01*
X43570213Y-93965890D01*
X43419890Y-94116213D01*
X43294951Y-94288179D01*
X43198444Y-94477585D01*
X43132753Y-94679760D01*
X43109792Y-94824733D01*
X43099500Y-94889713D01*
X43099500Y-95102287D01*
X43132754Y-95312243D01*
X43182929Y-95466666D01*
X43198444Y-95514414D01*
X43294951Y-95703820D01*
X43419890Y-95875786D01*
X43570213Y-96026109D01*
X43742182Y-96151050D01*
X43750946Y-96155516D01*
X43801742Y-96203491D01*
X43818536Y-96271312D01*
X43795998Y-96337447D01*
X43750946Y-96376484D01*
X43742182Y-96380949D01*
X43570213Y-96505890D01*
X43419890Y-96656213D01*
X43294951Y-96828179D01*
X43198444Y-97017585D01*
X43132753Y-97219760D01*
X43109792Y-97364733D01*
X43099500Y-97429713D01*
X43099500Y-97642287D01*
X43109534Y-97705644D01*
X43125441Y-97806075D01*
X43132754Y-97852243D01*
X43182780Y-98006208D01*
X43198444Y-98054414D01*
X43294951Y-98243820D01*
X43419890Y-98415786D01*
X43570213Y-98566109D01*
X43742182Y-98691050D01*
X43750946Y-98695516D01*
X43801742Y-98743491D01*
X43818536Y-98811312D01*
X43795998Y-98877447D01*
X43750946Y-98916484D01*
X43742182Y-98920949D01*
X43570213Y-99045890D01*
X43419890Y-99196213D01*
X43294951Y-99368179D01*
X43198444Y-99557585D01*
X43132753Y-99759760D01*
X43099500Y-99969713D01*
X43099500Y-100182286D01*
X43132753Y-100392239D01*
X43198444Y-100594414D01*
X43294951Y-100783820D01*
X43419890Y-100955786D01*
X43570213Y-101106109D01*
X43742182Y-101231050D01*
X43750946Y-101235516D01*
X43801742Y-101283491D01*
X43818536Y-101351312D01*
X43795998Y-101417447D01*
X43750946Y-101456484D01*
X43742182Y-101460949D01*
X43570213Y-101585890D01*
X43419890Y-101736213D01*
X43294951Y-101908179D01*
X43198444Y-102097585D01*
X43132753Y-102299760D01*
X43114386Y-102415727D01*
X43099500Y-102509713D01*
X43099500Y-102722287D01*
X43132754Y-102932243D01*
X43156788Y-103006213D01*
X43198444Y-103134414D01*
X43294951Y-103323820D01*
X43419890Y-103495786D01*
X43570213Y-103646109D01*
X43742179Y-103771048D01*
X43742181Y-103771049D01*
X43742184Y-103771051D01*
X43751493Y-103775794D01*
X43802290Y-103823766D01*
X43819087Y-103891587D01*
X43796552Y-103957722D01*
X43751505Y-103996760D01*
X43742446Y-104001376D01*
X43742440Y-104001380D01*
X43688282Y-104040727D01*
X43688282Y-104040728D01*
X44320591Y-104673037D01*
X44257007Y-104690075D01*
X44142993Y-104755901D01*
X44049901Y-104848993D01*
X43984075Y-104963007D01*
X43967037Y-105026591D01*
X43334728Y-104394282D01*
X43334727Y-104394282D01*
X43295380Y-104448439D01*
X43198904Y-104637782D01*
X43133242Y-104839869D01*
X43133242Y-104839872D01*
X43100000Y-105049753D01*
X43100000Y-105262246D01*
X43133242Y-105472127D01*
X43133242Y-105472130D01*
X43198904Y-105674217D01*
X43295375Y-105863550D01*
X43334728Y-105917716D01*
X43967037Y-105285408D01*
X43984075Y-105348993D01*
X44049901Y-105463007D01*
X44142993Y-105556099D01*
X44257007Y-105621925D01*
X44320591Y-105638962D01*
X43719971Y-106239581D01*
X43798711Y-106356895D01*
X43799920Y-106360729D01*
X43802844Y-106363491D01*
X43810343Y-106393778D01*
X43819727Y-106423529D01*
X43818671Y-106427408D01*
X43819638Y-106431312D01*
X43809573Y-106460844D01*
X43801383Y-106490947D01*
X43798397Y-106493640D01*
X43797100Y-106497447D01*
X43752051Y-106536483D01*
X43742440Y-106541380D01*
X43688282Y-106580727D01*
X43688282Y-106580728D01*
X44320591Y-107213037D01*
X44257007Y-107230075D01*
X44142993Y-107295901D01*
X44049901Y-107388993D01*
X43984075Y-107503007D01*
X43967037Y-107566591D01*
X43334728Y-106934282D01*
X43334727Y-106934282D01*
X43295380Y-106988439D01*
X43198904Y-107177782D01*
X43133242Y-107379869D01*
X43133242Y-107379872D01*
X43100000Y-107589753D01*
X43100000Y-107802246D01*
X43133242Y-108012127D01*
X43133242Y-108012130D01*
X43198904Y-108214217D01*
X43295375Y-108403550D01*
X43334728Y-108457716D01*
X43967037Y-107825408D01*
X43984075Y-107888993D01*
X44049901Y-108003007D01*
X44142993Y-108096099D01*
X44257007Y-108161925D01*
X44320590Y-108178962D01*
X43688282Y-108811269D01*
X43688282Y-108811270D01*
X43742449Y-108850624D01*
X43931782Y-108947095D01*
X44133870Y-109012757D01*
X44343754Y-109046000D01*
X44556246Y-109046000D01*
X44766127Y-109012757D01*
X44766130Y-109012757D01*
X44968217Y-108947095D01*
X45157554Y-108850622D01*
X45211716Y-108811270D01*
X45211717Y-108811270D01*
X44579408Y-108178962D01*
X44642993Y-108161925D01*
X44757007Y-108096099D01*
X44850099Y-108003007D01*
X44915925Y-107888993D01*
X44932962Y-107825409D01*
X45603181Y-108495628D01*
X45636666Y-108556951D01*
X45639500Y-108583300D01*
X45639500Y-108593865D01*
X45639501Y-108593876D01*
X45645908Y-108653483D01*
X45696202Y-108788328D01*
X45696206Y-108788335D01*
X45782452Y-108903544D01*
X45782455Y-108903547D01*
X45897664Y-108989793D01*
X45897671Y-108989797D01*
X46032517Y-109040091D01*
X46032516Y-109040091D01*
X46039444Y-109040835D01*
X46092127Y-109046500D01*
X47887872Y-109046499D01*
X47947483Y-109040091D01*
X48082331Y-108989796D01*
X48197546Y-108903546D01*
X48283796Y-108788331D01*
X48334091Y-108653483D01*
X48340500Y-108593873D01*
X48340499Y-107074821D01*
X50632000Y-107074821D01*
X50632000Y-107301178D01*
X50667407Y-107524733D01*
X50737354Y-107740005D01*
X50840112Y-107941676D01*
X50973155Y-108124794D01*
X51133206Y-108284845D01*
X51316324Y-108417888D01*
X51394491Y-108457716D01*
X51517994Y-108520645D01*
X51517996Y-108520645D01*
X51517999Y-108520647D01*
X51629731Y-108556951D01*
X51733266Y-108590592D01*
X51956822Y-108626000D01*
X51956827Y-108626000D01*
X52183178Y-108626000D01*
X52406733Y-108590592D01*
X52429175Y-108583300D01*
X52622001Y-108520647D01*
X52823676Y-108417888D01*
X53006794Y-108284845D01*
X53166845Y-108124794D01*
X53299888Y-107941676D01*
X53402647Y-107740001D01*
X53472592Y-107524733D01*
X53494091Y-107388993D01*
X53508000Y-107301178D01*
X53508000Y-107074821D01*
X53472592Y-106851266D01*
X53402645Y-106635994D01*
X53327468Y-106488452D01*
X53299888Y-106434324D01*
X53166845Y-106251206D01*
X53006794Y-106091155D01*
X52823676Y-105958112D01*
X52622005Y-105855354D01*
X52406733Y-105785407D01*
X52183178Y-105750000D01*
X52183173Y-105750000D01*
X51956827Y-105750000D01*
X51956822Y-105750000D01*
X51733266Y-105785407D01*
X51517994Y-105855354D01*
X51316323Y-105958112D01*
X51133203Y-106091157D01*
X50973157Y-106251203D01*
X50840112Y-106434323D01*
X50737354Y-106635994D01*
X50667407Y-106851266D01*
X50632000Y-107074821D01*
X48340499Y-107074821D01*
X48340499Y-106798128D01*
X48334091Y-106738517D01*
X48295854Y-106635999D01*
X48283797Y-106603671D01*
X48283793Y-106603664D01*
X48197547Y-106488455D01*
X48197544Y-106488452D01*
X48082335Y-106402206D01*
X48082328Y-106402202D01*
X47950917Y-106353189D01*
X47894983Y-106311318D01*
X47870566Y-106245853D01*
X47885418Y-106177580D01*
X47906563Y-106149332D01*
X48020104Y-106035792D01*
X48145051Y-105863816D01*
X48241557Y-105674412D01*
X48307246Y-105472243D01*
X48340500Y-105262287D01*
X48340500Y-105049713D01*
X48307246Y-104839757D01*
X48241557Y-104637588D01*
X48189195Y-104534821D01*
X96352000Y-104534821D01*
X96352000Y-104761178D01*
X96387407Y-104984733D01*
X96457354Y-105200005D01*
X96560112Y-105401676D01*
X96693155Y-105584794D01*
X96853206Y-105744845D01*
X97036324Y-105877888D01*
X97131605Y-105926436D01*
X97237994Y-105980645D01*
X97237996Y-105980645D01*
X97237999Y-105980647D01*
X97353388Y-106018139D01*
X97453266Y-106050592D01*
X97676822Y-106086000D01*
X97676827Y-106086000D01*
X97903178Y-106086000D01*
X98126733Y-106050592D01*
X98342001Y-105980647D01*
X98543676Y-105877888D01*
X98726794Y-105744845D01*
X98886845Y-105584794D01*
X99019888Y-105401676D01*
X99122647Y-105200001D01*
X99192592Y-104984733D01*
X99196033Y-104963007D01*
X99228000Y-104761178D01*
X99228000Y-104534821D01*
X99192592Y-104311266D01*
X99122645Y-104095994D01*
X99039720Y-103933246D01*
X99019888Y-103894324D01*
X98886845Y-103711206D01*
X98726794Y-103551155D01*
X98543676Y-103418112D01*
X98342005Y-103315354D01*
X98126733Y-103245407D01*
X97903178Y-103210000D01*
X97903173Y-103210000D01*
X97676827Y-103210000D01*
X97676822Y-103210000D01*
X97453266Y-103245407D01*
X97237994Y-103315354D01*
X97036323Y-103418112D01*
X96853203Y-103551157D01*
X96693157Y-103711203D01*
X96560112Y-103894323D01*
X96457354Y-104095994D01*
X96387407Y-104311266D01*
X96352000Y-104534821D01*
X48189195Y-104534821D01*
X48145051Y-104448184D01*
X48145049Y-104448181D01*
X48145048Y-104448179D01*
X48020109Y-104276213D01*
X47869786Y-104125890D01*
X47697820Y-104000951D01*
X47689600Y-103996763D01*
X47689054Y-103996485D01*
X47638259Y-103948512D01*
X47621463Y-103880692D01*
X47643999Y-103814556D01*
X47689054Y-103775515D01*
X47697816Y-103771051D01*
X47719789Y-103755086D01*
X47869786Y-103646109D01*
X47869788Y-103646106D01*
X47869792Y-103646104D01*
X48020104Y-103495792D01*
X48020106Y-103495788D01*
X48020109Y-103495786D01*
X48145048Y-103323820D01*
X48145047Y-103323820D01*
X48145051Y-103323816D01*
X48241557Y-103134412D01*
X48307246Y-102932243D01*
X48340500Y-102722287D01*
X48340500Y-102509713D01*
X48307246Y-102299757D01*
X48241557Y-102097588D01*
X48145051Y-101908184D01*
X48145049Y-101908181D01*
X48145048Y-101908179D01*
X48020109Y-101736213D01*
X47869786Y-101585890D01*
X47697820Y-101460951D01*
X47697115Y-101460591D01*
X47689054Y-101456485D01*
X47638259Y-101408512D01*
X47621463Y-101340692D01*
X47643999Y-101274556D01*
X47689054Y-101235515D01*
X47697816Y-101231051D01*
X47736897Y-101202657D01*
X47869786Y-101106109D01*
X47869788Y-101106106D01*
X47869792Y-101106104D01*
X48020104Y-100955792D01*
X48020106Y-100955788D01*
X48020109Y-100955786D01*
X48145048Y-100783820D01*
X48145047Y-100783820D01*
X48145051Y-100783816D01*
X48241557Y-100594412D01*
X48307246Y-100392243D01*
X48340500Y-100182287D01*
X48340500Y-99969713D01*
X48307246Y-99759757D01*
X48241557Y-99557588D01*
X48145051Y-99368184D01*
X48145049Y-99368181D01*
X48145048Y-99368179D01*
X48020109Y-99196213D01*
X47869786Y-99045890D01*
X47697820Y-98920951D01*
X47697115Y-98920591D01*
X47689054Y-98916485D01*
X47638259Y-98868512D01*
X47621463Y-98800692D01*
X47643999Y-98734556D01*
X47689054Y-98695515D01*
X47697816Y-98691051D01*
X47719789Y-98675086D01*
X47869786Y-98566109D01*
X47869788Y-98566106D01*
X47869792Y-98566104D01*
X48020104Y-98415792D01*
X48020106Y-98415788D01*
X48020109Y-98415786D01*
X48145048Y-98243820D01*
X48145047Y-98243820D01*
X48145051Y-98243816D01*
X48241557Y-98054412D01*
X48307246Y-97852243D01*
X48340500Y-97642287D01*
X48340500Y-97429713D01*
X48307246Y-97219757D01*
X48241557Y-97017588D01*
X48189195Y-96914821D01*
X50632000Y-96914821D01*
X50632000Y-97141178D01*
X50667407Y-97364733D01*
X50737354Y-97580005D01*
X50814114Y-97730653D01*
X50840112Y-97781676D01*
X50973155Y-97964794D01*
X51133206Y-98124845D01*
X51316324Y-98257888D01*
X51411605Y-98306436D01*
X51517994Y-98360645D01*
X51517996Y-98360645D01*
X51517999Y-98360647D01*
X51633388Y-98398139D01*
X51733266Y-98430592D01*
X51956822Y-98466000D01*
X51956827Y-98466000D01*
X52183178Y-98466000D01*
X52406733Y-98430592D01*
X52622001Y-98360647D01*
X52823676Y-98257888D01*
X53006794Y-98124845D01*
X53166845Y-97964794D01*
X53299888Y-97781676D01*
X53402647Y-97580001D01*
X53472592Y-97364733D01*
X53508000Y-97141178D01*
X53508000Y-96914821D01*
X53472592Y-96691266D01*
X53402645Y-96475994D01*
X53327498Y-96328512D01*
X53299888Y-96274324D01*
X53166845Y-96091206D01*
X53006794Y-95931155D01*
X52823676Y-95798112D01*
X52622005Y-95695354D01*
X52406733Y-95625407D01*
X52183178Y-95590000D01*
X52183173Y-95590000D01*
X51956827Y-95590000D01*
X51956822Y-95590000D01*
X51733266Y-95625407D01*
X51517994Y-95695354D01*
X51316323Y-95798112D01*
X51133203Y-95931157D01*
X50973157Y-96091203D01*
X50840112Y-96274323D01*
X50737354Y-96475994D01*
X50667407Y-96691266D01*
X50632000Y-96914821D01*
X48189195Y-96914821D01*
X48145051Y-96828184D01*
X48145049Y-96828181D01*
X48145048Y-96828179D01*
X48020109Y-96656213D01*
X47869786Y-96505890D01*
X47697820Y-96380951D01*
X47697115Y-96380591D01*
X47689054Y-96376485D01*
X47638259Y-96328512D01*
X47621463Y-96260692D01*
X47643999Y-96194556D01*
X47689054Y-96155515D01*
X47697816Y-96151051D01*
X47719789Y-96135086D01*
X47869786Y-96026109D01*
X47869788Y-96026106D01*
X47869792Y-96026104D01*
X48020104Y-95875792D01*
X48020106Y-95875788D01*
X48020109Y-95875786D01*
X48145048Y-95703820D01*
X48145047Y-95703820D01*
X48145051Y-95703816D01*
X48241557Y-95514412D01*
X48307246Y-95312243D01*
X48340500Y-95102287D01*
X48340500Y-94889713D01*
X48307246Y-94679757D01*
X48241557Y-94477588D01*
X48189195Y-94374821D01*
X96352000Y-94374821D01*
X96352000Y-94601178D01*
X96387407Y-94824733D01*
X96457354Y-95040005D01*
X96489089Y-95102287D01*
X96560112Y-95241676D01*
X96693155Y-95424794D01*
X96853206Y-95584845D01*
X97036324Y-95717888D01*
X97071867Y-95735998D01*
X97237994Y-95820645D01*
X97237996Y-95820645D01*
X97237999Y-95820647D01*
X97353388Y-95858139D01*
X97453266Y-95890592D01*
X97676822Y-95926000D01*
X97676827Y-95926000D01*
X97903178Y-95926000D01*
X98126733Y-95890592D01*
X98342001Y-95820647D01*
X98543676Y-95717888D01*
X98726794Y-95584845D01*
X98886845Y-95424794D01*
X99019888Y-95241676D01*
X99122647Y-95040001D01*
X99192592Y-94824733D01*
X99228000Y-94601178D01*
X99228000Y-94374821D01*
X99192592Y-94151266D01*
X99122645Y-93935994D01*
X99047498Y-93788512D01*
X99019888Y-93734324D01*
X98886845Y-93551206D01*
X98726794Y-93391155D01*
X98543676Y-93258112D01*
X98480133Y-93225735D01*
X98342005Y-93155354D01*
X98126733Y-93085407D01*
X97903178Y-93050000D01*
X97903173Y-93050000D01*
X97676827Y-93050000D01*
X97676822Y-93050000D01*
X97453266Y-93085407D01*
X97237994Y-93155354D01*
X97036323Y-93258112D01*
X96853203Y-93391157D01*
X96693157Y-93551203D01*
X96560112Y-93734323D01*
X96457354Y-93935994D01*
X96387407Y-94151266D01*
X96352000Y-94374821D01*
X48189195Y-94374821D01*
X48145051Y-94288184D01*
X48145049Y-94288181D01*
X48145048Y-94288179D01*
X48020109Y-94116213D01*
X47869786Y-93965890D01*
X47697820Y-93840951D01*
X47697115Y-93840591D01*
X47689054Y-93836485D01*
X47638259Y-93788512D01*
X47621463Y-93720692D01*
X47643999Y-93654556D01*
X47689054Y-93615515D01*
X47697816Y-93611051D01*
X47719789Y-93595086D01*
X47869786Y-93486109D01*
X47869788Y-93486106D01*
X47869792Y-93486104D01*
X48020104Y-93335792D01*
X48020106Y-93335788D01*
X48020109Y-93335786D01*
X48143902Y-93165397D01*
X48145051Y-93163816D01*
X48241557Y-92974412D01*
X48307246Y-92772243D01*
X48340500Y-92562287D01*
X48340500Y-92377153D01*
X57111500Y-92377153D01*
X57111500Y-92534846D01*
X57142261Y-92689489D01*
X57142264Y-92689501D01*
X57202602Y-92835172D01*
X57202609Y-92835185D01*
X57290210Y-92966288D01*
X57290213Y-92966292D01*
X57401707Y-93077786D01*
X57401711Y-93077789D01*
X57532814Y-93165390D01*
X57532827Y-93165397D01*
X57678498Y-93225735D01*
X57678503Y-93225737D01*
X57833153Y-93256499D01*
X57833156Y-93256500D01*
X57833158Y-93256500D01*
X57990844Y-93256500D01*
X57990845Y-93256499D01*
X58145497Y-93225737D01*
X58291179Y-93165394D01*
X58422289Y-93077789D01*
X58533789Y-92966289D01*
X58621394Y-92835179D01*
X58681737Y-92689497D01*
X58712500Y-92534842D01*
X58712500Y-92377158D01*
X58712500Y-92377155D01*
X58712499Y-92377153D01*
X58681738Y-92222510D01*
X58681737Y-92222503D01*
X58647463Y-92139757D01*
X58621397Y-92076827D01*
X58621390Y-92076814D01*
X58533789Y-91945711D01*
X58533786Y-91945707D01*
X58422292Y-91834213D01*
X58422288Y-91834210D01*
X58291185Y-91746609D01*
X58291172Y-91746602D01*
X58145501Y-91686264D01*
X58145489Y-91686261D01*
X57990845Y-91655500D01*
X57990842Y-91655500D01*
X57833158Y-91655500D01*
X57833155Y-91655500D01*
X57678510Y-91686261D01*
X57678498Y-91686264D01*
X57532827Y-91746602D01*
X57532814Y-91746609D01*
X57401711Y-91834210D01*
X57401707Y-91834213D01*
X57290213Y-91945707D01*
X57290210Y-91945711D01*
X57202609Y-92076814D01*
X57202602Y-92076827D01*
X57142264Y-92222498D01*
X57142261Y-92222510D01*
X57111500Y-92377153D01*
X48340500Y-92377153D01*
X48340500Y-92349713D01*
X48307246Y-92139757D01*
X48241557Y-91937588D01*
X48145051Y-91748184D01*
X48145049Y-91748181D01*
X48145048Y-91748179D01*
X48020109Y-91576213D01*
X47869786Y-91425890D01*
X47697820Y-91300951D01*
X47697115Y-91300591D01*
X47689054Y-91296485D01*
X47638259Y-91248512D01*
X47621463Y-91180692D01*
X47643999Y-91114556D01*
X47689054Y-91075515D01*
X47697816Y-91071051D01*
X47719789Y-91055086D01*
X47869786Y-90946109D01*
X47869788Y-90946106D01*
X47869792Y-90946104D01*
X48020104Y-90795792D01*
X48020106Y-90795788D01*
X48020109Y-90795786D01*
X48145048Y-90623820D01*
X48145047Y-90623820D01*
X48145051Y-90623816D01*
X48241557Y-90434412D01*
X48307246Y-90232243D01*
X48340500Y-90022287D01*
X48340500Y-89809713D01*
X48307246Y-89599757D01*
X48241557Y-89397588D01*
X48145051Y-89208184D01*
X48145049Y-89208181D01*
X48145048Y-89208179D01*
X48020109Y-89036213D01*
X47869786Y-88885890D01*
X47697820Y-88760951D01*
X47697115Y-88760591D01*
X47689054Y-88756485D01*
X47638259Y-88708512D01*
X47621463Y-88640692D01*
X47643999Y-88574556D01*
X47689054Y-88535515D01*
X47697816Y-88531051D01*
X47719789Y-88515086D01*
X47847039Y-88422635D01*
X96352000Y-88422635D01*
X96352000Y-90393370D01*
X96352001Y-90393376D01*
X96358408Y-90452983D01*
X96408702Y-90587828D01*
X96408706Y-90587835D01*
X96494952Y-90703044D01*
X96494955Y-90703047D01*
X96610164Y-90789293D01*
X96610171Y-90789297D01*
X96745017Y-90839591D01*
X96745016Y-90839591D01*
X96751944Y-90840335D01*
X96804627Y-90846000D01*
X98775372Y-90845999D01*
X98834983Y-90839591D01*
X98969831Y-90789296D01*
X99085046Y-90703046D01*
X99171296Y-90587831D01*
X99221591Y-90452983D01*
X99228000Y-90393373D01*
X99227999Y-88422628D01*
X99221591Y-88363017D01*
X99190634Y-88280018D01*
X99171297Y-88228171D01*
X99171293Y-88228164D01*
X99085047Y-88112955D01*
X99085044Y-88112952D01*
X98969835Y-88026706D01*
X98969828Y-88026702D01*
X98834982Y-87976408D01*
X98834983Y-87976408D01*
X98775383Y-87970001D01*
X98775381Y-87970000D01*
X98775373Y-87970000D01*
X98775364Y-87970000D01*
X96804629Y-87970000D01*
X96804623Y-87970001D01*
X96745016Y-87976408D01*
X96610171Y-88026702D01*
X96610164Y-88026706D01*
X96494955Y-88112952D01*
X96494952Y-88112955D01*
X96408706Y-88228164D01*
X96408702Y-88228171D01*
X96358408Y-88363017D01*
X96353776Y-88406104D01*
X96352001Y-88422623D01*
X96352000Y-88422635D01*
X47847039Y-88422635D01*
X47869786Y-88406109D01*
X47869788Y-88406106D01*
X47869792Y-88406104D01*
X48020104Y-88255792D01*
X48020106Y-88255788D01*
X48020109Y-88255786D01*
X48123881Y-88112954D01*
X48145051Y-88083816D01*
X48241557Y-87894412D01*
X48307246Y-87692243D01*
X48340500Y-87482287D01*
X48340500Y-87269713D01*
X48307246Y-87059757D01*
X48241557Y-86857588D01*
X48189218Y-86754866D01*
X50632500Y-86754866D01*
X50632500Y-86981133D01*
X50667895Y-87204611D01*
X50737818Y-87419810D01*
X50840542Y-87621418D01*
X50892084Y-87692359D01*
X50892085Y-87692360D01*
X51488092Y-87096353D01*
X51516132Y-87164048D01*
X51584531Y-87266414D01*
X51671586Y-87353469D01*
X51773952Y-87421868D01*
X51841645Y-87449907D01*
X51245638Y-88045913D01*
X51316585Y-88097459D01*
X51518189Y-88200181D01*
X51733388Y-88270104D01*
X51733387Y-88270104D01*
X51956867Y-88305500D01*
X52183133Y-88305500D01*
X52237855Y-88296833D01*
X52406611Y-88270104D01*
X52621810Y-88200181D01*
X52823406Y-88097463D01*
X52823412Y-88097459D01*
X52894359Y-88045913D01*
X52894360Y-88045913D01*
X52298353Y-87449907D01*
X52366048Y-87421868D01*
X52468414Y-87353469D01*
X52555469Y-87266414D01*
X52623868Y-87164048D01*
X52651907Y-87096354D01*
X53247913Y-87692360D01*
X53247913Y-87692359D01*
X53299459Y-87621412D01*
X53299463Y-87621406D01*
X53402181Y-87419810D01*
X53472104Y-87204611D01*
X53507500Y-86981133D01*
X53507500Y-86754866D01*
X53472104Y-86531388D01*
X53402181Y-86316189D01*
X53299459Y-86114585D01*
X53247913Y-86043639D01*
X53247913Y-86043638D01*
X52651907Y-86639645D01*
X52623868Y-86571952D01*
X52555469Y-86469586D01*
X52468414Y-86382531D01*
X52366048Y-86314132D01*
X52298353Y-86286092D01*
X52894360Y-85690085D01*
X52894359Y-85690084D01*
X52823418Y-85638542D01*
X52621810Y-85535818D01*
X52406611Y-85465895D01*
X52406612Y-85465895D01*
X52183133Y-85430500D01*
X51956867Y-85430500D01*
X51733388Y-85465895D01*
X51518189Y-85535818D01*
X51316587Y-85638539D01*
X51245639Y-85690085D01*
X51841646Y-86286092D01*
X51773952Y-86314132D01*
X51671586Y-86382531D01*
X51584531Y-86469586D01*
X51516132Y-86571952D01*
X51488092Y-86639646D01*
X50892085Y-86043639D01*
X50840539Y-86114587D01*
X50737818Y-86316189D01*
X50667895Y-86531388D01*
X50632500Y-86754866D01*
X48189218Y-86754866D01*
X48145051Y-86668184D01*
X48145049Y-86668181D01*
X48145048Y-86668179D01*
X48020109Y-86496213D01*
X47869786Y-86345890D01*
X47697820Y-86220951D01*
X47697115Y-86220591D01*
X47689054Y-86216485D01*
X47638259Y-86168512D01*
X47621463Y-86100692D01*
X47643999Y-86034556D01*
X47689054Y-85995515D01*
X47697816Y-85991051D01*
X47719789Y-85975086D01*
X47869786Y-85866109D01*
X47869788Y-85866106D01*
X47869792Y-85866104D01*
X48020104Y-85715792D01*
X48145051Y-85543816D01*
X48241557Y-85354412D01*
X48307246Y-85152243D01*
X48340500Y-84942287D01*
X48340500Y-84757153D01*
X64985500Y-84757153D01*
X64985500Y-84914846D01*
X65016261Y-85069489D01*
X65016264Y-85069501D01*
X65076602Y-85215172D01*
X65076609Y-85215185D01*
X65164210Y-85346288D01*
X65164213Y-85346292D01*
X65275707Y-85457786D01*
X65275711Y-85457789D01*
X65406814Y-85545390D01*
X65406827Y-85545397D01*
X65552498Y-85605735D01*
X65552503Y-85605737D01*
X65707153Y-85636499D01*
X65707156Y-85636500D01*
X65707158Y-85636500D01*
X65864844Y-85636500D01*
X65864845Y-85636499D01*
X66019497Y-85605737D01*
X66165179Y-85545394D01*
X66296289Y-85457789D01*
X66407789Y-85346289D01*
X66495394Y-85215179D01*
X66555737Y-85069497D01*
X66586500Y-84914842D01*
X66586500Y-84757158D01*
X66586500Y-84757155D01*
X66586499Y-84757153D01*
X66555738Y-84602510D01*
X66555737Y-84602503D01*
X66506850Y-84484478D01*
X66495397Y-84456827D01*
X66495390Y-84456814D01*
X66407789Y-84325711D01*
X66407786Y-84325707D01*
X66296292Y-84214213D01*
X66296288Y-84214210D01*
X66165185Y-84126609D01*
X66165172Y-84126602D01*
X66019501Y-84066264D01*
X66019489Y-84066261D01*
X65864845Y-84035500D01*
X65864842Y-84035500D01*
X65707158Y-84035500D01*
X65707155Y-84035500D01*
X65552510Y-84066261D01*
X65552498Y-84066264D01*
X65406827Y-84126602D01*
X65406814Y-84126609D01*
X65275711Y-84214210D01*
X65275707Y-84214213D01*
X65164213Y-84325707D01*
X65164210Y-84325711D01*
X65076609Y-84456814D01*
X65076602Y-84456827D01*
X65016264Y-84602498D01*
X65016261Y-84602510D01*
X64985500Y-84757153D01*
X48340500Y-84757153D01*
X48340500Y-84729713D01*
X48307246Y-84519757D01*
X48241557Y-84317588D01*
X48145051Y-84128184D01*
X48145049Y-84128181D01*
X48145048Y-84128179D01*
X48020109Y-83956213D01*
X47869786Y-83805890D01*
X47697820Y-83680951D01*
X47697115Y-83680591D01*
X47689054Y-83676485D01*
X47638259Y-83628512D01*
X47621463Y-83560692D01*
X47643999Y-83494556D01*
X47689054Y-83455515D01*
X47697816Y-83451051D01*
X47719789Y-83435086D01*
X47869786Y-83326109D01*
X47869788Y-83326106D01*
X47869792Y-83326104D01*
X48020104Y-83175792D01*
X48020106Y-83175788D01*
X48020109Y-83175786D01*
X48145048Y-83003820D01*
X48145047Y-83003820D01*
X48145051Y-83003816D01*
X48241557Y-82814412D01*
X48307246Y-82612243D01*
X48340500Y-82402287D01*
X48340500Y-82189713D01*
X48307246Y-81979757D01*
X48241557Y-81777588D01*
X48145051Y-81588184D01*
X48145049Y-81588181D01*
X48145048Y-81588179D01*
X48020109Y-81416213D01*
X47869786Y-81265890D01*
X47697820Y-81140951D01*
X47697115Y-81140591D01*
X47689054Y-81136485D01*
X47638259Y-81088512D01*
X47621463Y-81020692D01*
X47643999Y-80954556D01*
X47689054Y-80915515D01*
X47697816Y-80911051D01*
X47784138Y-80848335D01*
X47869786Y-80786109D01*
X47869788Y-80786106D01*
X47869792Y-80786104D01*
X48020104Y-80635792D01*
X48020106Y-80635788D01*
X48020109Y-80635786D01*
X48145048Y-80463820D01*
X48145047Y-80463820D01*
X48145051Y-80463816D01*
X48241557Y-80274412D01*
X48307246Y-80072243D01*
X48340500Y-79862287D01*
X48340500Y-79649713D01*
X48307246Y-79439757D01*
X48241557Y-79237588D01*
X48145051Y-79048184D01*
X48020104Y-78876208D01*
X48002031Y-78858135D01*
X54275500Y-78858135D01*
X54275500Y-80653870D01*
X54275501Y-80653876D01*
X54281908Y-80713483D01*
X54332202Y-80848328D01*
X54332206Y-80848335D01*
X54418452Y-80963544D01*
X54418455Y-80963547D01*
X54533664Y-81049793D01*
X54533671Y-81049797D01*
X54668517Y-81100091D01*
X54668516Y-81100091D01*
X54675444Y-81100835D01*
X54728127Y-81106500D01*
X56523872Y-81106499D01*
X56583483Y-81100091D01*
X56718331Y-81049796D01*
X56833546Y-80963546D01*
X56919796Y-80848331D01*
X56968810Y-80716916D01*
X57010681Y-80660984D01*
X57076145Y-80636566D01*
X57144418Y-80651417D01*
X57172673Y-80672569D01*
X57286213Y-80786109D01*
X57458179Y-80911048D01*
X57458181Y-80911049D01*
X57458184Y-80911051D01*
X57647588Y-81007557D01*
X57849757Y-81073246D01*
X58059713Y-81106500D01*
X58059714Y-81106500D01*
X58272286Y-81106500D01*
X58272287Y-81106500D01*
X58482243Y-81073246D01*
X58684412Y-81007557D01*
X58873816Y-80911051D01*
X58960138Y-80848335D01*
X59045786Y-80786109D01*
X59045788Y-80786106D01*
X59045792Y-80786104D01*
X59196104Y-80635792D01*
X59196106Y-80635788D01*
X59196109Y-80635786D01*
X59321048Y-80463820D01*
X59321047Y-80463820D01*
X59321051Y-80463816D01*
X59325514Y-80455054D01*
X59373488Y-80404259D01*
X59441308Y-80387463D01*
X59507444Y-80409999D01*
X59546486Y-80455056D01*
X59550951Y-80463820D01*
X59675890Y-80635786D01*
X59826213Y-80786109D01*
X59998179Y-80911048D01*
X59998181Y-80911049D01*
X59998184Y-80911051D01*
X60187588Y-81007557D01*
X60389757Y-81073246D01*
X60599713Y-81106500D01*
X60599714Y-81106500D01*
X60812286Y-81106500D01*
X60812287Y-81106500D01*
X61022243Y-81073246D01*
X61224412Y-81007557D01*
X61413816Y-80911051D01*
X61500138Y-80848335D01*
X61585786Y-80786109D01*
X61585788Y-80786106D01*
X61585792Y-80786104D01*
X61736104Y-80635792D01*
X61736106Y-80635788D01*
X61736109Y-80635786D01*
X61861048Y-80463820D01*
X61861047Y-80463820D01*
X61861051Y-80463816D01*
X61865514Y-80455054D01*
X61913488Y-80404259D01*
X61981308Y-80387463D01*
X62047444Y-80409999D01*
X62086486Y-80455056D01*
X62090951Y-80463820D01*
X62215890Y-80635786D01*
X62366213Y-80786109D01*
X62538179Y-80911048D01*
X62538181Y-80911049D01*
X62538184Y-80911051D01*
X62727588Y-81007557D01*
X62929757Y-81073246D01*
X63139713Y-81106500D01*
X63139714Y-81106500D01*
X63352286Y-81106500D01*
X63352287Y-81106500D01*
X63562243Y-81073246D01*
X63764412Y-81007557D01*
X63953816Y-80911051D01*
X64040138Y-80848335D01*
X64125786Y-80786109D01*
X64125788Y-80786106D01*
X64125792Y-80786104D01*
X64276104Y-80635792D01*
X64276106Y-80635788D01*
X64276109Y-80635786D01*
X64401048Y-80463820D01*
X64401047Y-80463820D01*
X64401051Y-80463816D01*
X64405514Y-80455054D01*
X64453488Y-80404259D01*
X64521308Y-80387463D01*
X64587444Y-80409999D01*
X64626486Y-80455056D01*
X64630951Y-80463820D01*
X64755890Y-80635786D01*
X64906213Y-80786109D01*
X65078179Y-80911048D01*
X65078181Y-80911049D01*
X65078184Y-80911051D01*
X65267588Y-81007557D01*
X65469757Y-81073246D01*
X65679713Y-81106500D01*
X65679714Y-81106500D01*
X65892286Y-81106500D01*
X65892287Y-81106500D01*
X66102243Y-81073246D01*
X66304412Y-81007557D01*
X66493816Y-80911051D01*
X66580138Y-80848335D01*
X66665786Y-80786109D01*
X66665788Y-80786106D01*
X66665792Y-80786104D01*
X66816104Y-80635792D01*
X66816106Y-80635788D01*
X66816109Y-80635786D01*
X66941048Y-80463820D01*
X66941047Y-80463820D01*
X66941051Y-80463816D01*
X66945514Y-80455054D01*
X66993488Y-80404259D01*
X67061308Y-80387463D01*
X67127444Y-80409999D01*
X67166486Y-80455056D01*
X67170951Y-80463820D01*
X67295890Y-80635786D01*
X67446213Y-80786109D01*
X67618179Y-80911048D01*
X67618181Y-80911049D01*
X67618184Y-80911051D01*
X67807588Y-81007557D01*
X68009757Y-81073246D01*
X68219713Y-81106500D01*
X68219714Y-81106500D01*
X68432286Y-81106500D01*
X68432287Y-81106500D01*
X68642243Y-81073246D01*
X68844412Y-81007557D01*
X69033816Y-80911051D01*
X69120138Y-80848335D01*
X69205786Y-80786109D01*
X69205788Y-80786106D01*
X69205792Y-80786104D01*
X69356104Y-80635792D01*
X69356106Y-80635788D01*
X69356109Y-80635786D01*
X69481048Y-80463820D01*
X69481047Y-80463820D01*
X69481051Y-80463816D01*
X69577557Y-80274412D01*
X69643246Y-80072243D01*
X69676500Y-79862287D01*
X69676500Y-79649713D01*
X69643246Y-79439757D01*
X69577557Y-79237588D01*
X69481051Y-79048184D01*
X69481049Y-79048181D01*
X69481048Y-79048179D01*
X69356109Y-78876213D01*
X69205786Y-78725890D01*
X69033820Y-78600951D01*
X68844414Y-78504444D01*
X68844413Y-78504443D01*
X68844412Y-78504443D01*
X68642243Y-78438754D01*
X68642241Y-78438753D01*
X68642240Y-78438753D01*
X68480957Y-78413208D01*
X68432287Y-78405500D01*
X68219713Y-78405500D01*
X68171042Y-78413208D01*
X68009760Y-78438753D01*
X67807585Y-78504444D01*
X67618179Y-78600951D01*
X67446213Y-78725890D01*
X67295890Y-78876213D01*
X67170949Y-79048182D01*
X67166484Y-79056946D01*
X67118509Y-79107742D01*
X67050688Y-79124536D01*
X66984553Y-79101998D01*
X66945516Y-79056946D01*
X66941050Y-79048182D01*
X66816109Y-78876213D01*
X66665786Y-78725890D01*
X66493820Y-78600951D01*
X66304414Y-78504444D01*
X66304413Y-78504443D01*
X66304412Y-78504443D01*
X66102243Y-78438754D01*
X66102241Y-78438753D01*
X66102240Y-78438753D01*
X65940957Y-78413208D01*
X65892287Y-78405500D01*
X65679713Y-78405500D01*
X65631042Y-78413208D01*
X65469760Y-78438753D01*
X65267585Y-78504444D01*
X65078179Y-78600951D01*
X64906213Y-78725890D01*
X64755890Y-78876213D01*
X64630949Y-79048182D01*
X64626484Y-79056946D01*
X64578509Y-79107742D01*
X64510688Y-79124536D01*
X64444553Y-79101998D01*
X64405516Y-79056946D01*
X64401050Y-79048182D01*
X64276109Y-78876213D01*
X64125786Y-78725890D01*
X63953820Y-78600951D01*
X63764414Y-78504444D01*
X63764413Y-78504443D01*
X63764412Y-78504443D01*
X63562243Y-78438754D01*
X63562241Y-78438753D01*
X63562240Y-78438753D01*
X63400957Y-78413208D01*
X63352287Y-78405500D01*
X63139713Y-78405500D01*
X63091042Y-78413208D01*
X62929760Y-78438753D01*
X62727585Y-78504444D01*
X62538179Y-78600951D01*
X62366213Y-78725890D01*
X62215890Y-78876213D01*
X62090949Y-79048182D01*
X62086484Y-79056946D01*
X62038509Y-79107742D01*
X61970688Y-79124536D01*
X61904553Y-79101998D01*
X61865516Y-79056946D01*
X61861050Y-79048182D01*
X61736109Y-78876213D01*
X61585786Y-78725890D01*
X61413820Y-78600951D01*
X61224414Y-78504444D01*
X61224413Y-78504443D01*
X61224412Y-78504443D01*
X61022243Y-78438754D01*
X61022241Y-78438753D01*
X61022240Y-78438753D01*
X60860957Y-78413208D01*
X60812287Y-78405500D01*
X60599713Y-78405500D01*
X60551042Y-78413208D01*
X60389760Y-78438753D01*
X60187585Y-78504444D01*
X59998179Y-78600951D01*
X59826213Y-78725890D01*
X59675890Y-78876213D01*
X59550949Y-79048182D01*
X59546484Y-79056946D01*
X59498509Y-79107742D01*
X59430688Y-79124536D01*
X59364553Y-79101998D01*
X59325516Y-79056946D01*
X59321050Y-79048182D01*
X59196109Y-78876213D01*
X59045786Y-78725890D01*
X58873820Y-78600951D01*
X58684414Y-78504444D01*
X58684413Y-78504443D01*
X58684412Y-78504443D01*
X58482243Y-78438754D01*
X58482241Y-78438753D01*
X58482240Y-78438753D01*
X58320957Y-78413208D01*
X58272287Y-78405500D01*
X58059713Y-78405500D01*
X58011042Y-78413208D01*
X57849760Y-78438753D01*
X57647585Y-78504444D01*
X57458179Y-78600951D01*
X57286215Y-78725889D01*
X57172673Y-78839431D01*
X57111350Y-78872915D01*
X57041658Y-78867931D01*
X56985725Y-78826059D01*
X56968810Y-78795082D01*
X56919797Y-78663671D01*
X56919793Y-78663664D01*
X56833547Y-78548455D01*
X56833544Y-78548452D01*
X56718335Y-78462206D01*
X56718328Y-78462202D01*
X56583482Y-78411908D01*
X56583483Y-78411908D01*
X56523883Y-78405501D01*
X56523881Y-78405500D01*
X56523873Y-78405500D01*
X56523864Y-78405500D01*
X54728129Y-78405500D01*
X54728123Y-78405501D01*
X54668516Y-78411908D01*
X54533671Y-78462202D01*
X54533664Y-78462206D01*
X54418455Y-78548452D01*
X54418452Y-78548455D01*
X54332206Y-78663664D01*
X54332202Y-78663671D01*
X54281908Y-78798517D01*
X54275501Y-78858116D01*
X54275500Y-78858135D01*
X48002031Y-78858135D01*
X47869792Y-78725896D01*
X47869786Y-78725890D01*
X47697820Y-78600951D01*
X47697115Y-78600591D01*
X47689054Y-78596485D01*
X47638259Y-78548512D01*
X47621463Y-78480692D01*
X47643999Y-78414556D01*
X47689054Y-78375515D01*
X47697816Y-78371051D01*
X47719789Y-78355086D01*
X47869786Y-78246109D01*
X47869788Y-78246106D01*
X47869792Y-78246104D01*
X48020104Y-78095792D01*
X48020106Y-78095788D01*
X48020109Y-78095786D01*
X48145048Y-77923820D01*
X48145047Y-77923820D01*
X48145051Y-77923816D01*
X48241557Y-77734412D01*
X48307246Y-77532243D01*
X48340500Y-77322287D01*
X48340500Y-77109713D01*
X48307246Y-76899757D01*
X48241557Y-76697588D01*
X48145051Y-76508184D01*
X48145049Y-76508181D01*
X48145048Y-76508179D01*
X48020109Y-76336213D01*
X47869786Y-76185890D01*
X47697820Y-76060951D01*
X47697115Y-76060591D01*
X47689054Y-76056485D01*
X47638259Y-76008512D01*
X47621463Y-75940692D01*
X47643999Y-75874556D01*
X47689054Y-75835515D01*
X47697816Y-75831051D01*
X47727711Y-75809331D01*
X47869786Y-75706109D01*
X47869788Y-75706106D01*
X47869792Y-75706104D01*
X48020104Y-75555792D01*
X48020106Y-75555788D01*
X48020109Y-75555786D01*
X48145048Y-75383820D01*
X48145047Y-75383820D01*
X48145051Y-75383816D01*
X48241557Y-75194412D01*
X48307246Y-74992243D01*
X48340500Y-74782287D01*
X48340500Y-74569713D01*
X48307246Y-74359757D01*
X48241557Y-74157588D01*
X48145051Y-73968184D01*
X48145049Y-73968181D01*
X48145048Y-73968179D01*
X48020109Y-73796213D01*
X47869786Y-73645890D01*
X47697820Y-73520951D01*
X47697115Y-73520591D01*
X47689054Y-73516485D01*
X47638259Y-73468512D01*
X47621463Y-73400692D01*
X47643999Y-73334556D01*
X47689054Y-73295515D01*
X47697816Y-73291051D01*
X47840617Y-73187301D01*
X47869786Y-73166109D01*
X47869788Y-73166106D01*
X47869792Y-73166104D01*
X48020104Y-73015792D01*
X48020106Y-73015788D01*
X48020109Y-73015786D01*
X48145048Y-72843820D01*
X48145047Y-72843820D01*
X48145051Y-72843816D01*
X48241557Y-72654412D01*
X48307246Y-72452243D01*
X48340500Y-72242287D01*
X48340500Y-72029713D01*
X48307246Y-71819757D01*
X48241557Y-71617588D01*
X48145051Y-71428184D01*
X48145049Y-71428181D01*
X48145048Y-71428179D01*
X48020109Y-71256213D01*
X47869786Y-71105890D01*
X47697820Y-70980951D01*
X47697115Y-70980591D01*
X47689054Y-70976485D01*
X47638259Y-70928512D01*
X47621463Y-70860692D01*
X47643999Y-70794556D01*
X47689054Y-70755515D01*
X47697816Y-70751051D01*
X47752572Y-70711269D01*
X47869786Y-70626109D01*
X47869788Y-70626106D01*
X47869792Y-70626104D01*
X48020104Y-70475792D01*
X48020106Y-70475788D01*
X48020109Y-70475786D01*
X48145048Y-70303820D01*
X48145047Y-70303820D01*
X48145051Y-70303816D01*
X48241557Y-70114412D01*
X48307246Y-69912243D01*
X48340500Y-69702287D01*
X48340500Y-69489713D01*
X48307246Y-69279757D01*
X48241557Y-69077588D01*
X48145051Y-68888184D01*
X48098120Y-68823588D01*
X48057511Y-68767694D01*
X48057508Y-68767691D01*
X48020107Y-68716213D01*
X48020104Y-68716208D01*
X48002031Y-68698135D01*
X54275500Y-68698135D01*
X54275500Y-70493870D01*
X54275501Y-70493876D01*
X54281908Y-70553483D01*
X54332202Y-70688328D01*
X54332206Y-70688335D01*
X54418452Y-70803544D01*
X54418455Y-70803547D01*
X54533664Y-70889793D01*
X54533671Y-70889797D01*
X54668517Y-70940091D01*
X54668516Y-70940091D01*
X54675444Y-70940835D01*
X54728127Y-70946500D01*
X56523872Y-70946499D01*
X56583483Y-70940091D01*
X56718331Y-70889796D01*
X56833546Y-70803546D01*
X56919796Y-70688331D01*
X56968810Y-70556916D01*
X57010681Y-70500984D01*
X57076145Y-70476566D01*
X57144418Y-70491417D01*
X57172673Y-70512569D01*
X57286213Y-70626109D01*
X57458179Y-70751048D01*
X57458181Y-70751049D01*
X57458184Y-70751051D01*
X57647588Y-70847557D01*
X57849757Y-70913246D01*
X58059713Y-70946500D01*
X58059714Y-70946500D01*
X58272286Y-70946500D01*
X58272287Y-70946500D01*
X58482243Y-70913246D01*
X58684412Y-70847557D01*
X58873816Y-70751051D01*
X58928572Y-70711269D01*
X59045786Y-70626109D01*
X59045788Y-70626106D01*
X59045792Y-70626104D01*
X59196104Y-70475792D01*
X59196106Y-70475788D01*
X59196109Y-70475786D01*
X59321048Y-70303820D01*
X59321047Y-70303820D01*
X59321051Y-70303816D01*
X59325514Y-70295054D01*
X59373488Y-70244259D01*
X59441308Y-70227463D01*
X59507444Y-70249999D01*
X59546486Y-70295056D01*
X59550951Y-70303820D01*
X59675890Y-70475786D01*
X59826213Y-70626109D01*
X59998179Y-70751048D01*
X59998181Y-70751049D01*
X59998184Y-70751051D01*
X60187588Y-70847557D01*
X60389757Y-70913246D01*
X60599713Y-70946500D01*
X60599714Y-70946500D01*
X60812286Y-70946500D01*
X60812287Y-70946500D01*
X61022243Y-70913246D01*
X61224412Y-70847557D01*
X61413816Y-70751051D01*
X61468572Y-70711269D01*
X61585786Y-70626109D01*
X61585788Y-70626106D01*
X61585792Y-70626104D01*
X61736104Y-70475792D01*
X61736106Y-70475788D01*
X61736109Y-70475786D01*
X61821890Y-70357717D01*
X61861051Y-70303816D01*
X61865793Y-70294508D01*
X61913763Y-70243711D01*
X61981583Y-70226911D01*
X62047719Y-70249445D01*
X62086763Y-70294500D01*
X62091373Y-70303547D01*
X62130728Y-70357716D01*
X62763037Y-69725408D01*
X62780075Y-69788993D01*
X62845901Y-69903007D01*
X62938993Y-69996099D01*
X63053007Y-70061925D01*
X63116590Y-70078962D01*
X62484282Y-70711269D01*
X62484282Y-70711270D01*
X62538449Y-70750624D01*
X62727782Y-70847095D01*
X62929870Y-70912757D01*
X63139754Y-70946000D01*
X63352246Y-70946000D01*
X63562127Y-70912757D01*
X63562130Y-70912757D01*
X63764217Y-70847095D01*
X63953554Y-70750622D01*
X64007716Y-70711270D01*
X64007717Y-70711270D01*
X63375408Y-70078962D01*
X63438993Y-70061925D01*
X63553007Y-69996099D01*
X63646099Y-69903007D01*
X63711925Y-69788993D01*
X63728962Y-69725408D01*
X64361270Y-70357717D01*
X64361270Y-70357716D01*
X64400622Y-70303555D01*
X64405232Y-70294507D01*
X64453205Y-70243709D01*
X64521025Y-70226912D01*
X64587161Y-70249447D01*
X64626204Y-70294504D01*
X64630949Y-70303817D01*
X64755890Y-70475786D01*
X64906213Y-70626109D01*
X65078179Y-70751048D01*
X65078181Y-70751049D01*
X65078184Y-70751051D01*
X65267588Y-70847557D01*
X65469757Y-70913246D01*
X65679713Y-70946500D01*
X65679714Y-70946500D01*
X65892286Y-70946500D01*
X65892287Y-70946500D01*
X66102243Y-70913246D01*
X66304412Y-70847557D01*
X66493816Y-70751051D01*
X66548572Y-70711269D01*
X66665786Y-70626109D01*
X66665788Y-70626106D01*
X66665792Y-70626104D01*
X66816104Y-70475792D01*
X66816106Y-70475788D01*
X66816109Y-70475786D01*
X66941048Y-70303820D01*
X66941047Y-70303820D01*
X66941051Y-70303816D01*
X66945514Y-70295054D01*
X66993488Y-70244259D01*
X67061308Y-70227463D01*
X67127444Y-70249999D01*
X67166486Y-70295056D01*
X67170951Y-70303820D01*
X67295890Y-70475786D01*
X67446213Y-70626109D01*
X67618179Y-70751048D01*
X67618181Y-70751049D01*
X67618184Y-70751051D01*
X67807588Y-70847557D01*
X68009757Y-70913246D01*
X68219713Y-70946500D01*
X68219714Y-70946500D01*
X68432286Y-70946500D01*
X68432287Y-70946500D01*
X68642243Y-70913246D01*
X68844412Y-70847557D01*
X69033816Y-70751051D01*
X69088572Y-70711269D01*
X69205786Y-70626109D01*
X69205788Y-70626106D01*
X69205792Y-70626104D01*
X69356104Y-70475792D01*
X69356106Y-70475788D01*
X69356109Y-70475786D01*
X69481048Y-70303820D01*
X69481047Y-70303820D01*
X69481051Y-70303816D01*
X69577557Y-70114412D01*
X69643246Y-69912243D01*
X69676500Y-69702287D01*
X69676500Y-69489713D01*
X69643246Y-69279757D01*
X69577557Y-69077588D01*
X69481051Y-68888184D01*
X69481049Y-68888181D01*
X69481048Y-68888179D01*
X69356109Y-68716213D01*
X69205786Y-68565890D01*
X69033820Y-68440951D01*
X68844414Y-68344444D01*
X68844413Y-68344443D01*
X68844412Y-68344443D01*
X68642243Y-68278754D01*
X68642241Y-68278753D01*
X68642240Y-68278753D01*
X68480957Y-68253208D01*
X68432287Y-68245500D01*
X68219713Y-68245500D01*
X68171042Y-68253208D01*
X68009760Y-68278753D01*
X67807585Y-68344444D01*
X67618179Y-68440951D01*
X67446213Y-68565890D01*
X67295890Y-68716213D01*
X67170949Y-68888182D01*
X67166484Y-68896946D01*
X67118509Y-68947742D01*
X67050688Y-68964536D01*
X66984553Y-68941998D01*
X66945516Y-68896946D01*
X66941050Y-68888182D01*
X66816109Y-68716213D01*
X66665786Y-68565890D01*
X66493820Y-68440951D01*
X66304414Y-68344444D01*
X66304413Y-68344443D01*
X66304412Y-68344443D01*
X66102243Y-68278754D01*
X66102241Y-68278753D01*
X66102240Y-68278753D01*
X65940957Y-68253208D01*
X65892287Y-68245500D01*
X65679713Y-68245500D01*
X65631042Y-68253208D01*
X65469760Y-68278753D01*
X65267585Y-68344444D01*
X65078179Y-68440951D01*
X64906213Y-68565890D01*
X64755890Y-68716213D01*
X64630949Y-68888182D01*
X64626202Y-68897499D01*
X64578227Y-68948293D01*
X64510405Y-68965087D01*
X64444271Y-68942548D01*
X64405234Y-68897495D01*
X64400626Y-68888452D01*
X64361270Y-68834282D01*
X64361269Y-68834282D01*
X63728962Y-69466590D01*
X63711925Y-69403007D01*
X63646099Y-69288993D01*
X63553007Y-69195901D01*
X63438993Y-69130075D01*
X63375409Y-69113037D01*
X64007716Y-68480728D01*
X63953550Y-68441375D01*
X63764217Y-68344904D01*
X63562129Y-68279242D01*
X63352246Y-68246000D01*
X63139754Y-68246000D01*
X62929872Y-68279242D01*
X62929869Y-68279242D01*
X62727782Y-68344904D01*
X62538439Y-68441380D01*
X62484282Y-68480727D01*
X62484282Y-68480728D01*
X63116591Y-69113037D01*
X63053007Y-69130075D01*
X62938993Y-69195901D01*
X62845901Y-69288993D01*
X62780075Y-69403007D01*
X62763037Y-69466591D01*
X62130728Y-68834282D01*
X62130727Y-68834282D01*
X62091380Y-68888440D01*
X62091376Y-68888446D01*
X62086760Y-68897505D01*
X62038781Y-68948297D01*
X61970959Y-68965087D01*
X61904826Y-68942543D01*
X61865794Y-68897493D01*
X61861051Y-68888184D01*
X61861049Y-68888181D01*
X61861048Y-68888179D01*
X61736109Y-68716213D01*
X61585786Y-68565890D01*
X61413820Y-68440951D01*
X61224414Y-68344444D01*
X61224413Y-68344443D01*
X61224412Y-68344443D01*
X61022243Y-68278754D01*
X61022241Y-68278753D01*
X61022240Y-68278753D01*
X60860957Y-68253208D01*
X60812287Y-68245500D01*
X60599713Y-68245500D01*
X60551042Y-68253208D01*
X60389760Y-68278753D01*
X60187585Y-68344444D01*
X59998179Y-68440951D01*
X59826213Y-68565890D01*
X59675890Y-68716213D01*
X59550949Y-68888182D01*
X59546484Y-68896946D01*
X59498509Y-68947742D01*
X59430688Y-68964536D01*
X59364553Y-68941998D01*
X59325516Y-68896946D01*
X59321050Y-68888182D01*
X59196109Y-68716213D01*
X59045786Y-68565890D01*
X58873820Y-68440951D01*
X58684414Y-68344444D01*
X58684413Y-68344443D01*
X58684412Y-68344443D01*
X58482243Y-68278754D01*
X58482241Y-68278753D01*
X58482240Y-68278753D01*
X58320957Y-68253208D01*
X58272287Y-68245500D01*
X58059713Y-68245500D01*
X58011042Y-68253208D01*
X57849760Y-68278753D01*
X57647585Y-68344444D01*
X57458179Y-68440951D01*
X57286215Y-68565889D01*
X57172673Y-68679431D01*
X57111350Y-68712915D01*
X57041658Y-68707931D01*
X56985725Y-68666059D01*
X56968810Y-68635082D01*
X56919797Y-68503671D01*
X56919793Y-68503664D01*
X56833547Y-68388455D01*
X56833544Y-68388452D01*
X56718335Y-68302206D01*
X56718328Y-68302202D01*
X56583482Y-68251908D01*
X56583483Y-68251908D01*
X56523883Y-68245501D01*
X56523881Y-68245500D01*
X56523873Y-68245500D01*
X56523864Y-68245500D01*
X54728129Y-68245500D01*
X54728123Y-68245501D01*
X54668516Y-68251908D01*
X54533671Y-68302202D01*
X54533664Y-68302206D01*
X54418455Y-68388452D01*
X54418452Y-68388455D01*
X54332206Y-68503664D01*
X54332202Y-68503671D01*
X54281908Y-68638517D01*
X54275501Y-68698116D01*
X54275500Y-68698135D01*
X48002031Y-68698135D01*
X47869792Y-68565896D01*
X47869786Y-68565890D01*
X47697820Y-68440951D01*
X47697115Y-68440591D01*
X47689054Y-68436485D01*
X47638259Y-68388512D01*
X47621463Y-68320692D01*
X47643999Y-68254556D01*
X47689054Y-68215515D01*
X47697816Y-68211051D01*
X47803164Y-68134512D01*
X47869786Y-68086109D01*
X47869788Y-68086106D01*
X47869792Y-68086104D01*
X48020104Y-67935792D01*
X48020106Y-67935788D01*
X48020109Y-67935786D01*
X48145048Y-67763820D01*
X48145047Y-67763820D01*
X48145051Y-67763816D01*
X48241557Y-67574412D01*
X48307246Y-67372243D01*
X48340500Y-67162287D01*
X48340500Y-66949713D01*
X48307246Y-66739757D01*
X48241557Y-66537588D01*
X48145051Y-66348184D01*
X48145049Y-66348181D01*
X48145048Y-66348179D01*
X48020109Y-66176213D01*
X47869786Y-66025890D01*
X47697820Y-65900951D01*
X47697115Y-65900591D01*
X47689054Y-65896485D01*
X47638259Y-65848512D01*
X47621463Y-65780692D01*
X47643999Y-65714556D01*
X47689054Y-65675515D01*
X47697816Y-65671051D01*
X47803164Y-65594512D01*
X47869786Y-65546109D01*
X47869788Y-65546106D01*
X47869792Y-65546104D01*
X48020104Y-65395792D01*
X48020106Y-65395788D01*
X48020109Y-65395786D01*
X48145048Y-65223820D01*
X48145047Y-65223820D01*
X48145051Y-65223816D01*
X48241557Y-65034412D01*
X48307246Y-64832243D01*
X48340500Y-64622287D01*
X48340500Y-64409713D01*
X48333939Y-64368286D01*
X48323003Y-64299238D01*
X48320702Y-64284713D01*
X51227500Y-64284713D01*
X51227500Y-64747287D01*
X51260754Y-64957243D01*
X51285828Y-65034414D01*
X51326444Y-65159414D01*
X51422951Y-65348820D01*
X51547890Y-65520786D01*
X51698213Y-65671109D01*
X51870179Y-65796048D01*
X51870181Y-65796049D01*
X51870184Y-65796051D01*
X52059588Y-65892557D01*
X52261757Y-65958246D01*
X52471713Y-65991500D01*
X52471714Y-65991500D01*
X52684286Y-65991500D01*
X52684287Y-65991500D01*
X52894243Y-65958246D01*
X53096412Y-65892557D01*
X53285816Y-65796051D01*
X53385687Y-65723491D01*
X53457786Y-65671109D01*
X53457788Y-65671106D01*
X53457792Y-65671104D01*
X53608104Y-65520792D01*
X53727683Y-65356204D01*
X53783011Y-65313540D01*
X53852624Y-65307561D01*
X53914420Y-65340166D01*
X53928313Y-65356199D01*
X54010624Y-65469491D01*
X54047896Y-65520792D01*
X54198213Y-65671109D01*
X54370179Y-65796048D01*
X54370181Y-65796049D01*
X54370184Y-65796051D01*
X54559588Y-65892557D01*
X54761757Y-65958246D01*
X54971713Y-65991500D01*
X54971714Y-65991500D01*
X55184286Y-65991500D01*
X55184287Y-65991500D01*
X55394243Y-65958246D01*
X55596412Y-65892557D01*
X55785816Y-65796051D01*
X55885687Y-65723491D01*
X55957786Y-65671109D01*
X55957788Y-65671106D01*
X55957792Y-65671104D01*
X56108104Y-65520792D01*
X56227991Y-65355779D01*
X56283320Y-65313115D01*
X56352933Y-65307136D01*
X56414729Y-65339741D01*
X56428627Y-65355781D01*
X56548272Y-65520459D01*
X56548276Y-65520464D01*
X56698535Y-65670723D01*
X56698540Y-65670727D01*
X56870442Y-65795620D01*
X57059782Y-65892095D01*
X57261871Y-65957757D01*
X57328000Y-65968231D01*
X57328000Y-64920145D01*
X57394657Y-64958630D01*
X57515465Y-64991000D01*
X57640535Y-64991000D01*
X57761343Y-64958630D01*
X57828000Y-64920145D01*
X57828000Y-65968230D01*
X57894126Y-65957757D01*
X57894129Y-65957757D01*
X58096217Y-65892095D01*
X58285557Y-65795620D01*
X58457458Y-65670728D01*
X58596330Y-65531856D01*
X58657653Y-65498371D01*
X58727345Y-65503355D01*
X58783279Y-65545226D01*
X58789551Y-65554440D01*
X58793185Y-65560331D01*
X58793186Y-65560334D01*
X58885288Y-65709656D01*
X59009344Y-65833712D01*
X59158666Y-65925814D01*
X59325203Y-65980999D01*
X59427991Y-65991500D01*
X60728008Y-65991499D01*
X60830797Y-65980999D01*
X60997334Y-65925814D01*
X61146656Y-65833712D01*
X61270712Y-65709656D01*
X61362814Y-65560334D01*
X61417999Y-65393797D01*
X61428500Y-65291009D01*
X61428499Y-64284713D01*
X65063500Y-64284713D01*
X65063500Y-64747287D01*
X65096754Y-64957243D01*
X65121828Y-65034414D01*
X65162444Y-65159414D01*
X65258951Y-65348820D01*
X65383890Y-65520786D01*
X65534213Y-65671109D01*
X65706179Y-65796048D01*
X65706181Y-65796049D01*
X65706184Y-65796051D01*
X65895588Y-65892557D01*
X66097757Y-65958246D01*
X66307713Y-65991500D01*
X66307714Y-65991500D01*
X66520286Y-65991500D01*
X66520287Y-65991500D01*
X66730243Y-65958246D01*
X66932412Y-65892557D01*
X67121816Y-65796051D01*
X67221687Y-65723491D01*
X67293786Y-65671109D01*
X67293788Y-65671106D01*
X67293792Y-65671104D01*
X67444104Y-65520792D01*
X67563683Y-65356204D01*
X67619011Y-65313540D01*
X67688624Y-65307561D01*
X67750420Y-65340166D01*
X67764313Y-65356199D01*
X67846624Y-65469491D01*
X67883896Y-65520792D01*
X68034213Y-65671109D01*
X68206179Y-65796048D01*
X68206181Y-65796049D01*
X68206184Y-65796051D01*
X68395588Y-65892557D01*
X68597757Y-65958246D01*
X68807713Y-65991500D01*
X68807714Y-65991500D01*
X69020286Y-65991500D01*
X69020287Y-65991500D01*
X69230243Y-65958246D01*
X69432412Y-65892557D01*
X69621816Y-65796051D01*
X69721687Y-65723491D01*
X69793786Y-65671109D01*
X69793788Y-65671106D01*
X69793792Y-65671104D01*
X69944104Y-65520792D01*
X70063991Y-65355779D01*
X70119320Y-65313115D01*
X70188933Y-65307136D01*
X70250729Y-65339741D01*
X70264627Y-65355781D01*
X70384272Y-65520459D01*
X70384276Y-65520464D01*
X70534535Y-65670723D01*
X70534540Y-65670727D01*
X70706442Y-65795620D01*
X70895782Y-65892095D01*
X71097871Y-65957757D01*
X71164000Y-65968231D01*
X71164000Y-64920145D01*
X71230657Y-64958630D01*
X71351465Y-64991000D01*
X71476535Y-64991000D01*
X71597343Y-64958630D01*
X71664000Y-64920145D01*
X71664000Y-65968230D01*
X71730126Y-65957757D01*
X71730129Y-65957757D01*
X71932217Y-65892095D01*
X72121557Y-65795620D01*
X72293458Y-65670728D01*
X72432330Y-65531856D01*
X72493653Y-65498371D01*
X72563345Y-65503355D01*
X72619279Y-65545226D01*
X72625551Y-65554440D01*
X72629185Y-65560331D01*
X72629186Y-65560334D01*
X72721288Y-65709656D01*
X72845344Y-65833712D01*
X72994666Y-65925814D01*
X73161203Y-65980999D01*
X73263991Y-65991500D01*
X74564008Y-65991499D01*
X74666797Y-65980999D01*
X74833334Y-65925814D01*
X74982656Y-65833712D01*
X75106712Y-65709656D01*
X75198814Y-65560334D01*
X75253999Y-65393797D01*
X75264500Y-65291009D01*
X75264499Y-63740992D01*
X75264013Y-63736239D01*
X75253999Y-63638203D01*
X75253998Y-63638200D01*
X75253338Y-63636208D01*
X75198814Y-63471666D01*
X75106712Y-63322344D01*
X74982656Y-63198288D01*
X74873642Y-63131048D01*
X74833336Y-63106187D01*
X74833331Y-63106185D01*
X74822162Y-63102484D01*
X74666797Y-63051001D01*
X74666795Y-63051000D01*
X74564010Y-63040500D01*
X73263998Y-63040500D01*
X73263981Y-63040501D01*
X73161203Y-63051000D01*
X73161200Y-63051001D01*
X72994668Y-63106185D01*
X72994663Y-63106187D01*
X72845342Y-63198289D01*
X72721289Y-63322342D01*
X72625551Y-63477559D01*
X72573603Y-63524283D01*
X72504640Y-63535506D01*
X72440558Y-63507662D01*
X72432331Y-63500143D01*
X72293464Y-63361276D01*
X72293459Y-63361272D01*
X72121557Y-63236379D01*
X71932215Y-63139903D01*
X71730124Y-63074241D01*
X71664000Y-63063768D01*
X71664000Y-64111854D01*
X71597343Y-64073370D01*
X71476535Y-64041000D01*
X71351465Y-64041000D01*
X71230657Y-64073370D01*
X71164000Y-64111854D01*
X71164000Y-63063768D01*
X71163999Y-63063768D01*
X71097875Y-63074241D01*
X70895784Y-63139903D01*
X70706442Y-63236379D01*
X70534540Y-63361272D01*
X70534535Y-63361276D01*
X70384276Y-63511535D01*
X70384272Y-63511540D01*
X70264627Y-63676218D01*
X70209297Y-63718884D01*
X70139684Y-63724863D01*
X70077889Y-63692257D01*
X70063991Y-63676218D01*
X69944109Y-63511214D01*
X69944105Y-63511209D01*
X69793786Y-63360890D01*
X69621820Y-63235951D01*
X69432414Y-63139444D01*
X69432413Y-63139443D01*
X69432412Y-63139443D01*
X69230243Y-63073754D01*
X69230241Y-63073753D01*
X69230240Y-63073753D01*
X69068957Y-63048208D01*
X69020287Y-63040500D01*
X68807713Y-63040500D01*
X68759042Y-63048208D01*
X68597760Y-63073753D01*
X68395585Y-63139444D01*
X68206179Y-63235951D01*
X68034213Y-63360890D01*
X67883894Y-63511209D01*
X67883890Y-63511214D01*
X67764318Y-63675793D01*
X67708989Y-63718459D01*
X67639375Y-63724438D01*
X67577580Y-63691833D01*
X67563682Y-63675793D01*
X67444109Y-63511214D01*
X67444105Y-63511209D01*
X67293786Y-63360890D01*
X67121820Y-63235951D01*
X66932414Y-63139444D01*
X66932413Y-63139443D01*
X66932412Y-63139443D01*
X66730243Y-63073754D01*
X66730241Y-63073753D01*
X66730240Y-63073753D01*
X66568957Y-63048208D01*
X66520287Y-63040500D01*
X66307713Y-63040500D01*
X66259042Y-63048208D01*
X66097760Y-63073753D01*
X65895585Y-63139444D01*
X65706179Y-63235951D01*
X65534213Y-63360890D01*
X65383890Y-63511213D01*
X65258951Y-63683179D01*
X65162444Y-63872585D01*
X65096753Y-64074760D01*
X65076956Y-64199757D01*
X65063500Y-64284713D01*
X61428499Y-64284713D01*
X61428499Y-63740992D01*
X61428013Y-63736239D01*
X61417999Y-63638203D01*
X61417998Y-63638200D01*
X61417338Y-63636208D01*
X61362814Y-63471666D01*
X61270712Y-63322344D01*
X61146656Y-63198288D01*
X61037642Y-63131048D01*
X60997336Y-63106187D01*
X60997331Y-63106185D01*
X60986162Y-63102484D01*
X60830797Y-63051001D01*
X60830795Y-63051000D01*
X60728010Y-63040500D01*
X59427998Y-63040500D01*
X59427981Y-63040501D01*
X59325203Y-63051000D01*
X59325200Y-63051001D01*
X59158668Y-63106185D01*
X59158663Y-63106187D01*
X59009342Y-63198289D01*
X58885289Y-63322342D01*
X58789551Y-63477559D01*
X58737603Y-63524283D01*
X58668640Y-63535506D01*
X58604558Y-63507662D01*
X58596331Y-63500143D01*
X58457464Y-63361276D01*
X58457459Y-63361272D01*
X58285557Y-63236379D01*
X58096215Y-63139903D01*
X57894124Y-63074241D01*
X57828000Y-63063768D01*
X57828000Y-64111854D01*
X57761343Y-64073370D01*
X57640535Y-64041000D01*
X57515465Y-64041000D01*
X57394657Y-64073370D01*
X57328000Y-64111854D01*
X57328000Y-63063768D01*
X57327999Y-63063768D01*
X57261875Y-63074241D01*
X57059784Y-63139903D01*
X56870442Y-63236379D01*
X56698540Y-63361272D01*
X56698535Y-63361276D01*
X56548276Y-63511535D01*
X56548272Y-63511540D01*
X56428627Y-63676218D01*
X56373297Y-63718884D01*
X56303684Y-63724863D01*
X56241889Y-63692257D01*
X56227991Y-63676218D01*
X56108109Y-63511214D01*
X56108105Y-63511209D01*
X55957786Y-63360890D01*
X55785820Y-63235951D01*
X55596414Y-63139444D01*
X55596413Y-63139443D01*
X55596412Y-63139443D01*
X55394243Y-63073754D01*
X55394241Y-63073753D01*
X55394240Y-63073753D01*
X55232957Y-63048208D01*
X55184287Y-63040500D01*
X54971713Y-63040500D01*
X54923042Y-63048208D01*
X54761760Y-63073753D01*
X54559585Y-63139444D01*
X54370179Y-63235951D01*
X54198213Y-63360890D01*
X54047894Y-63511209D01*
X54047890Y-63511214D01*
X53928318Y-63675793D01*
X53872989Y-63718459D01*
X53803375Y-63724438D01*
X53741580Y-63691833D01*
X53727682Y-63675793D01*
X53608109Y-63511214D01*
X53608105Y-63511209D01*
X53457786Y-63360890D01*
X53285820Y-63235951D01*
X53096414Y-63139444D01*
X53096413Y-63139443D01*
X53096412Y-63139443D01*
X52894243Y-63073754D01*
X52894241Y-63073753D01*
X52894240Y-63073753D01*
X52732957Y-63048208D01*
X52684287Y-63040500D01*
X52471713Y-63040500D01*
X52423042Y-63048208D01*
X52261760Y-63073753D01*
X52059585Y-63139444D01*
X51870179Y-63235951D01*
X51698213Y-63360890D01*
X51547890Y-63511213D01*
X51422951Y-63683179D01*
X51326444Y-63872585D01*
X51260753Y-64074760D01*
X51240956Y-64199757D01*
X51227500Y-64284713D01*
X48320702Y-64284713D01*
X48307246Y-64199760D01*
X48307246Y-64199757D01*
X48241557Y-63997588D01*
X48145051Y-63808184D01*
X48145049Y-63808181D01*
X48145048Y-63808179D01*
X48020109Y-63636213D01*
X47869786Y-63485890D01*
X47697820Y-63360951D01*
X47697115Y-63360591D01*
X47689054Y-63356485D01*
X47638259Y-63308512D01*
X47621463Y-63240692D01*
X47643999Y-63174556D01*
X47689054Y-63135515D01*
X47697816Y-63131051D01*
X47776679Y-63073754D01*
X47869786Y-63006109D01*
X47869788Y-63006106D01*
X47869792Y-63006104D01*
X48020104Y-62855792D01*
X48020106Y-62855788D01*
X48020109Y-62855786D01*
X48145048Y-62683820D01*
X48145047Y-62683820D01*
X48145051Y-62683816D01*
X48241557Y-62494412D01*
X48307246Y-62292243D01*
X48340500Y-62082287D01*
X48340500Y-61869713D01*
X48307246Y-61659757D01*
X48241557Y-61457588D01*
X48145051Y-61268184D01*
X48145049Y-61268181D01*
X48145048Y-61268179D01*
X48020109Y-61096213D01*
X47869786Y-60945890D01*
X47697820Y-60820951D01*
X47697115Y-60820591D01*
X47689054Y-60816485D01*
X47686100Y-60813695D01*
X47682161Y-60812693D01*
X47660909Y-60789903D01*
X47638259Y-60768512D01*
X47637281Y-60764566D01*
X47634510Y-60761594D01*
X47628953Y-60730937D01*
X47621463Y-60700692D01*
X47622774Y-60696844D01*
X47622049Y-60692844D01*
X47633948Y-60664049D01*
X47643999Y-60634556D01*
X47647628Y-60630949D01*
X47648735Y-60628272D01*
X47650112Y-60627153D01*
X49999500Y-60627153D01*
X49999500Y-60784846D01*
X50030261Y-60939489D01*
X50030264Y-60939501D01*
X50090602Y-61085172D01*
X50090609Y-61085185D01*
X50178210Y-61216288D01*
X50178213Y-61216292D01*
X50289707Y-61327786D01*
X50289711Y-61327789D01*
X50420814Y-61415390D01*
X50420827Y-61415397D01*
X50522687Y-61457588D01*
X50566503Y-61475737D01*
X50721153Y-61506499D01*
X50721156Y-61506500D01*
X50721158Y-61506500D01*
X50878844Y-61506500D01*
X50878845Y-61506499D01*
X51033497Y-61475737D01*
X51179179Y-61415394D01*
X51310289Y-61327789D01*
X51421789Y-61216289D01*
X51509394Y-61085179D01*
X51569737Y-60939497D01*
X51600500Y-60784842D01*
X51600500Y-60627158D01*
X51600500Y-60627155D01*
X51600499Y-60627153D01*
X51599030Y-60619766D01*
X51569737Y-60472503D01*
X51567087Y-60466105D01*
X51509397Y-60326827D01*
X51509390Y-60326814D01*
X51421789Y-60195711D01*
X51421786Y-60195707D01*
X51310292Y-60084213D01*
X51310288Y-60084210D01*
X51179185Y-59996609D01*
X51179172Y-59996602D01*
X51033501Y-59936264D01*
X51033489Y-59936261D01*
X50878845Y-59905500D01*
X50878842Y-59905500D01*
X50721158Y-59905500D01*
X50721155Y-59905500D01*
X50566510Y-59936261D01*
X50566498Y-59936264D01*
X50420827Y-59996602D01*
X50420814Y-59996609D01*
X50289711Y-60084210D01*
X50289707Y-60084213D01*
X50178213Y-60195707D01*
X50178210Y-60195711D01*
X50090609Y-60326814D01*
X50090602Y-60326827D01*
X50030264Y-60472498D01*
X50030261Y-60472510D01*
X49999500Y-60627153D01*
X47650112Y-60627153D01*
X47657440Y-60621199D01*
X47674547Y-60604201D01*
X47681503Y-60599362D01*
X47697816Y-60591051D01*
X47869792Y-60466104D01*
X48020104Y-60315792D01*
X48020106Y-60315788D01*
X48020109Y-60315786D01*
X48143902Y-60145397D01*
X48145051Y-60143816D01*
X48241557Y-59954412D01*
X48307246Y-59752243D01*
X48340500Y-59542287D01*
X48340500Y-59357153D01*
X62953500Y-59357153D01*
X62953500Y-59514846D01*
X62984261Y-59669489D01*
X62984264Y-59669501D01*
X63044602Y-59815172D01*
X63044609Y-59815185D01*
X63132210Y-59946288D01*
X63132213Y-59946292D01*
X63243707Y-60057786D01*
X63243711Y-60057789D01*
X63374814Y-60145390D01*
X63374827Y-60145397D01*
X63496288Y-60195707D01*
X63520503Y-60205737D01*
X63675153Y-60236499D01*
X63675156Y-60236500D01*
X63675158Y-60236500D01*
X63832844Y-60236500D01*
X63832845Y-60236499D01*
X63987497Y-60205737D01*
X64133179Y-60145394D01*
X64264289Y-60057789D01*
X64375789Y-59946289D01*
X64463394Y-59815179D01*
X64523737Y-59669497D01*
X64554500Y-59514842D01*
X64554500Y-59357158D01*
X64554500Y-59357155D01*
X64554499Y-59357153D01*
X64543088Y-59299786D01*
X64523737Y-59202503D01*
X64489463Y-59119757D01*
X64463397Y-59056827D01*
X64463390Y-59056814D01*
X64375789Y-58925711D01*
X64375786Y-58925707D01*
X64264292Y-58814213D01*
X64264288Y-58814210D01*
X64133185Y-58726609D01*
X64133172Y-58726602D01*
X63987501Y-58666264D01*
X63987489Y-58666261D01*
X63832845Y-58635500D01*
X63832842Y-58635500D01*
X63675158Y-58635500D01*
X63675155Y-58635500D01*
X63520510Y-58666261D01*
X63520498Y-58666264D01*
X63374827Y-58726602D01*
X63374814Y-58726609D01*
X63243711Y-58814210D01*
X63243707Y-58814213D01*
X63132213Y-58925707D01*
X63132210Y-58925711D01*
X63044609Y-59056814D01*
X63044602Y-59056827D01*
X62984264Y-59202498D01*
X62984261Y-59202510D01*
X62953500Y-59357153D01*
X48340500Y-59357153D01*
X48340500Y-59329713D01*
X48307246Y-59119757D01*
X48241557Y-58917588D01*
X48145051Y-58728184D01*
X48145049Y-58728181D01*
X48145048Y-58728179D01*
X48020109Y-58556213D01*
X47869786Y-58405890D01*
X47697820Y-58280951D01*
X47508414Y-58184444D01*
X47508413Y-58184443D01*
X47508412Y-58184443D01*
X47306243Y-58118754D01*
X47306241Y-58118753D01*
X47306240Y-58118753D01*
X47144957Y-58093208D01*
X47096287Y-58085500D01*
X46883713Y-58085500D01*
X46835042Y-58093208D01*
X46673760Y-58118753D01*
X46471585Y-58184444D01*
X46282179Y-58280951D01*
X46110213Y-58405890D01*
X45959890Y-58556213D01*
X45834949Y-58728182D01*
X45830484Y-58736946D01*
X45782509Y-58787742D01*
X45714688Y-58804536D01*
X45648553Y-58781998D01*
X45609516Y-58736946D01*
X45605050Y-58728182D01*
X45480109Y-58556213D01*
X45329786Y-58405890D01*
X45157820Y-58280951D01*
X44968414Y-58184444D01*
X44968413Y-58184443D01*
X44968412Y-58184443D01*
X44766243Y-58118754D01*
X44766241Y-58118753D01*
X44766240Y-58118753D01*
X44604957Y-58093208D01*
X44556287Y-58085500D01*
X44343713Y-58085500D01*
X44295042Y-58093208D01*
X44133760Y-58118753D01*
X43931585Y-58184444D01*
X43742179Y-58280951D01*
X43570213Y-58405890D01*
X43419890Y-58556213D01*
X43294951Y-58728179D01*
X43198444Y-58917585D01*
X43132753Y-59119760D01*
X43099500Y-59329713D01*
X34282500Y-59329713D01*
X34282500Y-55490135D01*
X53647500Y-55490135D01*
X53647500Y-57285870D01*
X53647501Y-57285876D01*
X53653908Y-57345483D01*
X53704202Y-57480328D01*
X53704206Y-57480335D01*
X53790452Y-57595544D01*
X53790455Y-57595547D01*
X53905664Y-57681793D01*
X53905671Y-57681797D01*
X54040517Y-57732091D01*
X54040516Y-57732091D01*
X54047444Y-57732835D01*
X54100127Y-57738500D01*
X55895872Y-57738499D01*
X55955483Y-57732091D01*
X56090331Y-57681796D01*
X56205546Y-57595546D01*
X56291796Y-57480331D01*
X56340810Y-57348916D01*
X56382681Y-57292984D01*
X56448145Y-57268566D01*
X56516418Y-57283417D01*
X56544673Y-57304569D01*
X56658213Y-57418109D01*
X56830179Y-57543048D01*
X56830181Y-57543049D01*
X56830184Y-57543051D01*
X57019588Y-57639557D01*
X57221757Y-57705246D01*
X57431713Y-57738500D01*
X57431714Y-57738500D01*
X57644286Y-57738500D01*
X57644287Y-57738500D01*
X57854243Y-57705246D01*
X58056412Y-57639557D01*
X58245816Y-57543051D01*
X58332138Y-57480335D01*
X58417786Y-57418109D01*
X58417788Y-57418106D01*
X58417792Y-57418104D01*
X58568104Y-57267792D01*
X58568106Y-57267788D01*
X58568109Y-57267786D01*
X58693048Y-57095820D01*
X58693047Y-57095820D01*
X58693051Y-57095816D01*
X58697514Y-57087054D01*
X58745488Y-57036259D01*
X58813308Y-57019463D01*
X58879444Y-57041999D01*
X58918486Y-57087056D01*
X58922951Y-57095820D01*
X59047890Y-57267786D01*
X59198213Y-57418109D01*
X59370179Y-57543048D01*
X59370181Y-57543049D01*
X59370184Y-57543051D01*
X59559588Y-57639557D01*
X59761757Y-57705246D01*
X59971713Y-57738500D01*
X59971714Y-57738500D01*
X60184286Y-57738500D01*
X60184287Y-57738500D01*
X60394243Y-57705246D01*
X60596412Y-57639557D01*
X60785816Y-57543051D01*
X60872138Y-57480335D01*
X60957786Y-57418109D01*
X60957788Y-57418106D01*
X60957792Y-57418104D01*
X61108104Y-57267792D01*
X61108106Y-57267788D01*
X61108109Y-57267786D01*
X61233048Y-57095820D01*
X61233047Y-57095820D01*
X61233051Y-57095816D01*
X61237514Y-57087054D01*
X61285488Y-57036259D01*
X61353308Y-57019463D01*
X61419444Y-57041999D01*
X61458486Y-57087056D01*
X61462951Y-57095820D01*
X61587890Y-57267786D01*
X61738213Y-57418109D01*
X61910179Y-57543048D01*
X61910181Y-57543049D01*
X61910184Y-57543051D01*
X62099588Y-57639557D01*
X62301757Y-57705246D01*
X62511713Y-57738500D01*
X62511714Y-57738500D01*
X62724286Y-57738500D01*
X62724287Y-57738500D01*
X62934243Y-57705246D01*
X63136412Y-57639557D01*
X63325816Y-57543051D01*
X63412138Y-57480335D01*
X63497786Y-57418109D01*
X63497788Y-57418106D01*
X63497792Y-57418104D01*
X63648104Y-57267792D01*
X63648106Y-57267788D01*
X63648109Y-57267786D01*
X63773048Y-57095820D01*
X63773047Y-57095820D01*
X63773051Y-57095816D01*
X63777514Y-57087054D01*
X63825488Y-57036259D01*
X63893308Y-57019463D01*
X63959444Y-57041999D01*
X63998486Y-57087056D01*
X64002951Y-57095820D01*
X64127890Y-57267786D01*
X64278213Y-57418109D01*
X64450179Y-57543048D01*
X64450181Y-57543049D01*
X64450184Y-57543051D01*
X64639588Y-57639557D01*
X64841757Y-57705246D01*
X65051713Y-57738500D01*
X65051714Y-57738500D01*
X65264286Y-57738500D01*
X65264287Y-57738500D01*
X65474243Y-57705246D01*
X65676412Y-57639557D01*
X65865816Y-57543051D01*
X65952138Y-57480335D01*
X66037786Y-57418109D01*
X66037788Y-57418106D01*
X66037792Y-57418104D01*
X66188104Y-57267792D01*
X66188106Y-57267788D01*
X66188109Y-57267786D01*
X66313048Y-57095820D01*
X66313047Y-57095820D01*
X66313051Y-57095816D01*
X66317514Y-57087054D01*
X66365488Y-57036259D01*
X66433308Y-57019463D01*
X66499444Y-57041999D01*
X66538486Y-57087056D01*
X66542951Y-57095820D01*
X66667890Y-57267786D01*
X66818213Y-57418109D01*
X66990179Y-57543048D01*
X66990181Y-57543049D01*
X66990184Y-57543051D01*
X67179588Y-57639557D01*
X67381757Y-57705246D01*
X67591713Y-57738500D01*
X67591714Y-57738500D01*
X67804286Y-57738500D01*
X67804287Y-57738500D01*
X68014243Y-57705246D01*
X68216412Y-57639557D01*
X68405816Y-57543051D01*
X68492138Y-57480335D01*
X68577786Y-57418109D01*
X68577788Y-57418106D01*
X68577792Y-57418104D01*
X68728104Y-57267792D01*
X68728106Y-57267788D01*
X68728109Y-57267786D01*
X68853048Y-57095820D01*
X68853047Y-57095820D01*
X68853051Y-57095816D01*
X68949557Y-56906412D01*
X69015246Y-56704243D01*
X69048500Y-56494287D01*
X69048500Y-56281713D01*
X69015246Y-56071757D01*
X68949557Y-55869588D01*
X68853051Y-55680184D01*
X68853049Y-55680181D01*
X68853048Y-55680179D01*
X68728109Y-55508213D01*
X68577786Y-55357890D01*
X68405820Y-55232951D01*
X68216414Y-55136444D01*
X68216413Y-55136443D01*
X68216412Y-55136443D01*
X68014243Y-55070754D01*
X68014241Y-55070753D01*
X68014240Y-55070753D01*
X67852957Y-55045208D01*
X67804287Y-55037500D01*
X67591713Y-55037500D01*
X67543042Y-55045208D01*
X67381760Y-55070753D01*
X67179585Y-55136444D01*
X66990179Y-55232951D01*
X66818213Y-55357890D01*
X66667890Y-55508213D01*
X66542949Y-55680182D01*
X66538484Y-55688946D01*
X66490509Y-55739742D01*
X66422688Y-55756536D01*
X66356553Y-55733998D01*
X66317516Y-55688946D01*
X66313050Y-55680182D01*
X66188109Y-55508213D01*
X66037786Y-55357890D01*
X65865820Y-55232951D01*
X65676414Y-55136444D01*
X65676413Y-55136443D01*
X65676412Y-55136443D01*
X65474243Y-55070754D01*
X65474241Y-55070753D01*
X65474240Y-55070753D01*
X65312957Y-55045208D01*
X65264287Y-55037500D01*
X65051713Y-55037500D01*
X65003042Y-55045208D01*
X64841760Y-55070753D01*
X64639585Y-55136444D01*
X64450179Y-55232951D01*
X64278213Y-55357890D01*
X64127890Y-55508213D01*
X64002949Y-55680182D01*
X63998484Y-55688946D01*
X63950509Y-55739742D01*
X63882688Y-55756536D01*
X63816553Y-55733998D01*
X63777516Y-55688946D01*
X63773050Y-55680182D01*
X63648109Y-55508213D01*
X63497786Y-55357890D01*
X63325820Y-55232951D01*
X63136414Y-55136444D01*
X63136413Y-55136443D01*
X63136412Y-55136443D01*
X62934243Y-55070754D01*
X62934241Y-55070753D01*
X62934240Y-55070753D01*
X62772957Y-55045208D01*
X62724287Y-55037500D01*
X62511713Y-55037500D01*
X62463042Y-55045208D01*
X62301760Y-55070753D01*
X62099585Y-55136444D01*
X61910179Y-55232951D01*
X61738213Y-55357890D01*
X61587890Y-55508213D01*
X61462949Y-55680182D01*
X61458484Y-55688946D01*
X61410509Y-55739742D01*
X61342688Y-55756536D01*
X61276553Y-55733998D01*
X61237516Y-55688946D01*
X61233050Y-55680182D01*
X61108109Y-55508213D01*
X60957786Y-55357890D01*
X60785820Y-55232951D01*
X60596414Y-55136444D01*
X60596413Y-55136443D01*
X60596412Y-55136443D01*
X60394243Y-55070754D01*
X60394241Y-55070753D01*
X60394240Y-55070753D01*
X60232957Y-55045208D01*
X60184287Y-55037500D01*
X59971713Y-55037500D01*
X59923042Y-55045208D01*
X59761760Y-55070753D01*
X59559585Y-55136444D01*
X59370179Y-55232951D01*
X59198213Y-55357890D01*
X59047890Y-55508213D01*
X58922949Y-55680182D01*
X58918484Y-55688946D01*
X58870509Y-55739742D01*
X58802688Y-55756536D01*
X58736553Y-55733998D01*
X58697516Y-55688946D01*
X58693050Y-55680182D01*
X58568109Y-55508213D01*
X58417786Y-55357890D01*
X58245820Y-55232951D01*
X58056414Y-55136444D01*
X58056413Y-55136443D01*
X58056412Y-55136443D01*
X57854243Y-55070754D01*
X57854241Y-55070753D01*
X57854240Y-55070753D01*
X57692957Y-55045208D01*
X57644287Y-55037500D01*
X57431713Y-55037500D01*
X57383042Y-55045208D01*
X57221760Y-55070753D01*
X57019585Y-55136444D01*
X56830179Y-55232951D01*
X56658215Y-55357889D01*
X56544673Y-55471431D01*
X56483350Y-55504915D01*
X56413658Y-55499931D01*
X56357725Y-55458059D01*
X56340810Y-55427082D01*
X56291797Y-55295671D01*
X56291793Y-55295664D01*
X56205547Y-55180455D01*
X56205544Y-55180452D01*
X56090335Y-55094206D01*
X56090328Y-55094202D01*
X55955482Y-55043908D01*
X55955483Y-55043908D01*
X55895883Y-55037501D01*
X55895881Y-55037500D01*
X55895873Y-55037500D01*
X55895864Y-55037500D01*
X54100129Y-55037500D01*
X54100123Y-55037501D01*
X54040516Y-55043908D01*
X53905671Y-55094202D01*
X53905664Y-55094206D01*
X53790455Y-55180452D01*
X53790452Y-55180455D01*
X53704206Y-55295664D01*
X53704202Y-55295671D01*
X53653908Y-55430517D01*
X53647501Y-55490116D01*
X53647500Y-55490135D01*
X34282500Y-55490135D01*
X34282500Y-47983983D01*
X72946500Y-47983983D01*
X72946500Y-49284001D01*
X72946501Y-49284018D01*
X72957000Y-49386796D01*
X72957001Y-49386799D01*
X73012185Y-49553331D01*
X73012187Y-49553336D01*
X73104289Y-49702657D01*
X73228344Y-49826712D01*
X73383120Y-49922178D01*
X73429845Y-49974126D01*
X73441068Y-50043088D01*
X73413224Y-50107171D01*
X73405706Y-50115398D01*
X73266889Y-50254215D01*
X73141951Y-50426179D01*
X73045444Y-50615585D01*
X72979753Y-50817760D01*
X72957224Y-50960006D01*
X72946500Y-51027713D01*
X72946500Y-51240287D01*
X72979754Y-51450243D01*
X72981531Y-51455713D01*
X73045444Y-51652414D01*
X73141951Y-51841820D01*
X73266890Y-52013786D01*
X73417209Y-52164105D01*
X73417214Y-52164109D01*
X73582218Y-52283991D01*
X73624884Y-52339320D01*
X73630863Y-52408934D01*
X73598258Y-52470729D01*
X73582218Y-52484627D01*
X73417540Y-52604272D01*
X73417535Y-52604276D01*
X73267276Y-52754535D01*
X73267272Y-52754540D01*
X73142379Y-52926442D01*
X73045904Y-53115782D01*
X72980242Y-53317870D01*
X72980242Y-53317873D01*
X72969769Y-53384000D01*
X74017854Y-53384000D01*
X73979370Y-53450657D01*
X73947000Y-53571465D01*
X73947000Y-53696535D01*
X73979370Y-53817343D01*
X74017854Y-53884000D01*
X72969769Y-53884000D01*
X72980242Y-53950126D01*
X72980242Y-53950129D01*
X73045904Y-54152217D01*
X73142379Y-54341557D01*
X73267272Y-54513459D01*
X73267276Y-54513464D01*
X73417535Y-54663723D01*
X73417540Y-54663727D01*
X73582218Y-54783372D01*
X73624884Y-54838701D01*
X73630863Y-54908315D01*
X73598258Y-54970110D01*
X73582218Y-54984008D01*
X73417214Y-55103890D01*
X73417209Y-55103894D01*
X73266890Y-55254213D01*
X73141951Y-55426179D01*
X73045444Y-55615585D01*
X72979753Y-55817760D01*
X72946500Y-56027713D01*
X72946500Y-56240286D01*
X72979753Y-56450239D01*
X73045444Y-56652414D01*
X73141951Y-56841820D01*
X73266890Y-57013786D01*
X73417213Y-57164109D01*
X73589179Y-57289048D01*
X73589181Y-57289049D01*
X73589184Y-57289051D01*
X73778588Y-57385557D01*
X73980757Y-57451246D01*
X74190713Y-57484500D01*
X74190714Y-57484500D01*
X74653286Y-57484500D01*
X74653287Y-57484500D01*
X74863243Y-57451246D01*
X75065412Y-57385557D01*
X75254816Y-57289051D01*
X75287990Y-57264949D01*
X75426786Y-57164109D01*
X75426788Y-57164106D01*
X75426792Y-57164104D01*
X75577104Y-57013792D01*
X75577106Y-57013788D01*
X75577109Y-57013786D01*
X75702048Y-56841820D01*
X75702047Y-56841820D01*
X75702051Y-56841816D01*
X75798557Y-56652412D01*
X75864246Y-56450243D01*
X75897500Y-56240287D01*
X75897500Y-56027713D01*
X75864246Y-55817757D01*
X75798557Y-55615588D01*
X75702051Y-55426184D01*
X75702049Y-55426181D01*
X75702048Y-55426179D01*
X75577109Y-55254213D01*
X75426790Y-55103894D01*
X75426785Y-55103890D01*
X75261781Y-54984008D01*
X75219115Y-54928678D01*
X75213136Y-54859065D01*
X75245741Y-54797270D01*
X75261781Y-54783371D01*
X75426466Y-54663721D01*
X75576723Y-54513464D01*
X75576727Y-54513459D01*
X75701620Y-54341557D01*
X75798095Y-54152217D01*
X75863757Y-53950129D01*
X75863757Y-53950126D01*
X75874231Y-53884000D01*
X74826146Y-53884000D01*
X74864630Y-53817343D01*
X74897000Y-53696535D01*
X74897000Y-53571465D01*
X74864630Y-53450657D01*
X74826146Y-53384000D01*
X75874231Y-53384000D01*
X75863757Y-53317873D01*
X75863757Y-53317870D01*
X75798095Y-53115782D01*
X75701620Y-52926442D01*
X75576727Y-52754540D01*
X75576723Y-52754535D01*
X75426464Y-52604276D01*
X75426459Y-52604272D01*
X75261781Y-52484627D01*
X75219115Y-52429297D01*
X75213136Y-52359684D01*
X75245741Y-52297889D01*
X75261776Y-52283994D01*
X75426792Y-52164104D01*
X75577104Y-52013792D01*
X75577106Y-52013788D01*
X75577109Y-52013786D01*
X75702048Y-51841820D01*
X75702047Y-51841820D01*
X75702051Y-51841816D01*
X75798557Y-51652412D01*
X75864246Y-51450243D01*
X75897500Y-51240287D01*
X75897500Y-51027713D01*
X75864246Y-50817757D01*
X75798557Y-50615588D01*
X75702051Y-50426184D01*
X75702049Y-50426181D01*
X75702048Y-50426179D01*
X75577109Y-50254213D01*
X75438294Y-50115398D01*
X75404809Y-50054075D01*
X75409793Y-49984383D01*
X75451665Y-49928450D01*
X75460879Y-49922178D01*
X75466331Y-49918814D01*
X75466334Y-49918814D01*
X75615656Y-49826712D01*
X75739712Y-49702656D01*
X75831814Y-49553334D01*
X75886999Y-49386797D01*
X75897500Y-49284009D01*
X75897499Y-47983992D01*
X75886999Y-47881203D01*
X75831814Y-47714666D01*
X75739712Y-47565344D01*
X75615656Y-47441288D01*
X75466334Y-47349186D01*
X75299797Y-47294001D01*
X75299795Y-47294000D01*
X75197010Y-47283500D01*
X73646998Y-47283500D01*
X73646981Y-47283501D01*
X73544203Y-47294000D01*
X73544200Y-47294001D01*
X73377668Y-47349185D01*
X73377663Y-47349187D01*
X73228342Y-47441289D01*
X73104289Y-47565342D01*
X73012187Y-47714663D01*
X73012185Y-47714668D01*
X72999815Y-47752000D01*
X72957001Y-47881203D01*
X72957001Y-47881204D01*
X72957000Y-47881204D01*
X72946500Y-47983983D01*
X34282500Y-47983983D01*
X34282500Y-45330135D01*
X53647500Y-45330135D01*
X53647500Y-47125870D01*
X53647501Y-47125876D01*
X53653908Y-47185483D01*
X53704202Y-47320328D01*
X53704206Y-47320335D01*
X53790452Y-47435544D01*
X53790455Y-47435547D01*
X53905664Y-47521793D01*
X53905671Y-47521797D01*
X54040517Y-47572091D01*
X54040516Y-47572091D01*
X54047444Y-47572835D01*
X54100127Y-47578500D01*
X55895872Y-47578499D01*
X55955483Y-47572091D01*
X56090331Y-47521796D01*
X56205546Y-47435546D01*
X56291796Y-47320331D01*
X56340810Y-47188916D01*
X56382681Y-47132984D01*
X56448145Y-47108566D01*
X56516418Y-47123417D01*
X56544673Y-47144569D01*
X56658213Y-47258109D01*
X56830179Y-47383048D01*
X56830181Y-47383049D01*
X56830184Y-47383051D01*
X57019588Y-47479557D01*
X57221757Y-47545246D01*
X57431713Y-47578500D01*
X57431714Y-47578500D01*
X57644286Y-47578500D01*
X57644287Y-47578500D01*
X57854243Y-47545246D01*
X58056412Y-47479557D01*
X58245816Y-47383051D01*
X58332138Y-47320335D01*
X58417786Y-47258109D01*
X58417788Y-47258106D01*
X58417792Y-47258104D01*
X58568104Y-47107792D01*
X58568106Y-47107788D01*
X58568109Y-47107786D01*
X58693048Y-46935820D01*
X58693047Y-46935820D01*
X58693051Y-46935816D01*
X58697514Y-46927054D01*
X58745488Y-46876259D01*
X58813308Y-46859463D01*
X58879444Y-46881999D01*
X58918486Y-46927056D01*
X58922951Y-46935820D01*
X59047890Y-47107786D01*
X59198213Y-47258109D01*
X59370179Y-47383048D01*
X59370181Y-47383049D01*
X59370184Y-47383051D01*
X59559588Y-47479557D01*
X59761757Y-47545246D01*
X59971713Y-47578500D01*
X59971714Y-47578500D01*
X60184286Y-47578500D01*
X60184287Y-47578500D01*
X60394243Y-47545246D01*
X60596412Y-47479557D01*
X60785816Y-47383051D01*
X60872138Y-47320335D01*
X60957786Y-47258109D01*
X60957788Y-47258106D01*
X60957792Y-47258104D01*
X61108104Y-47107792D01*
X61108106Y-47107788D01*
X61108109Y-47107786D01*
X61186118Y-47000414D01*
X61233051Y-46935816D01*
X61237793Y-46926508D01*
X61285763Y-46875711D01*
X61353583Y-46858911D01*
X61419719Y-46881445D01*
X61458763Y-46926500D01*
X61463373Y-46935547D01*
X61502728Y-46989716D01*
X62135037Y-46357408D01*
X62152075Y-46420993D01*
X62217901Y-46535007D01*
X62310993Y-46628099D01*
X62425007Y-46693925D01*
X62488590Y-46710962D01*
X61856282Y-47343269D01*
X61856282Y-47343270D01*
X61910449Y-47382624D01*
X62099782Y-47479095D01*
X62301870Y-47544757D01*
X62511754Y-47578000D01*
X62724246Y-47578000D01*
X62934127Y-47544757D01*
X62934130Y-47544757D01*
X63136217Y-47479095D01*
X63325554Y-47382622D01*
X63379716Y-47343270D01*
X63379717Y-47343270D01*
X62747408Y-46710962D01*
X62810993Y-46693925D01*
X62925007Y-46628099D01*
X63018099Y-46535007D01*
X63083925Y-46420993D01*
X63100962Y-46357409D01*
X63733270Y-46989717D01*
X63733270Y-46989716D01*
X63772622Y-46935555D01*
X63777232Y-46926507D01*
X63825205Y-46875709D01*
X63893025Y-46858912D01*
X63959161Y-46881447D01*
X63998204Y-46926504D01*
X64002949Y-46935817D01*
X64127890Y-47107786D01*
X64278213Y-47258109D01*
X64450179Y-47383048D01*
X64450181Y-47383049D01*
X64450184Y-47383051D01*
X64639588Y-47479557D01*
X64841757Y-47545246D01*
X65051713Y-47578500D01*
X65051714Y-47578500D01*
X65264286Y-47578500D01*
X65264287Y-47578500D01*
X65474243Y-47545246D01*
X65676412Y-47479557D01*
X65865816Y-47383051D01*
X65952138Y-47320335D01*
X66037786Y-47258109D01*
X66037788Y-47258106D01*
X66037792Y-47258104D01*
X66188104Y-47107792D01*
X66188106Y-47107788D01*
X66188109Y-47107786D01*
X66313048Y-46935820D01*
X66313047Y-46935820D01*
X66313051Y-46935816D01*
X66317514Y-46927054D01*
X66365488Y-46876259D01*
X66433308Y-46859463D01*
X66499444Y-46881999D01*
X66538486Y-46927056D01*
X66542951Y-46935820D01*
X66667890Y-47107786D01*
X66818213Y-47258109D01*
X66990179Y-47383048D01*
X66990181Y-47383049D01*
X66990184Y-47383051D01*
X67179588Y-47479557D01*
X67381757Y-47545246D01*
X67591713Y-47578500D01*
X67591714Y-47578500D01*
X67804286Y-47578500D01*
X67804287Y-47578500D01*
X68014243Y-47545246D01*
X68216412Y-47479557D01*
X68405816Y-47383051D01*
X68492138Y-47320335D01*
X68577786Y-47258109D01*
X68577788Y-47258106D01*
X68577792Y-47258104D01*
X68728104Y-47107792D01*
X68728106Y-47107788D01*
X68728109Y-47107786D01*
X68853048Y-46935820D01*
X68853047Y-46935820D01*
X68853051Y-46935816D01*
X68949557Y-46746412D01*
X69015246Y-46544243D01*
X69048500Y-46334287D01*
X69048500Y-46121713D01*
X69015246Y-45911757D01*
X68949557Y-45709588D01*
X68853051Y-45520184D01*
X68853049Y-45520181D01*
X68853048Y-45520179D01*
X68728109Y-45348213D01*
X68577786Y-45197890D01*
X68405820Y-45072951D01*
X68216414Y-44976444D01*
X68216413Y-44976443D01*
X68216412Y-44976443D01*
X68014243Y-44910754D01*
X68014241Y-44910753D01*
X68014240Y-44910753D01*
X67852957Y-44885208D01*
X67804287Y-44877500D01*
X67591713Y-44877500D01*
X67543042Y-44885208D01*
X67381760Y-44910753D01*
X67179585Y-44976444D01*
X66990179Y-45072951D01*
X66818213Y-45197890D01*
X66667890Y-45348213D01*
X66542949Y-45520182D01*
X66538484Y-45528946D01*
X66490509Y-45579742D01*
X66422688Y-45596536D01*
X66356553Y-45573998D01*
X66317516Y-45528946D01*
X66313050Y-45520182D01*
X66188109Y-45348213D01*
X66037786Y-45197890D01*
X65865820Y-45072951D01*
X65676414Y-44976444D01*
X65676413Y-44976443D01*
X65676412Y-44976443D01*
X65474243Y-44910754D01*
X65474241Y-44910753D01*
X65474240Y-44910753D01*
X65312957Y-44885208D01*
X65264287Y-44877500D01*
X65051713Y-44877500D01*
X65003042Y-44885208D01*
X64841760Y-44910753D01*
X64639585Y-44976444D01*
X64450179Y-45072951D01*
X64278213Y-45197890D01*
X64127890Y-45348213D01*
X64002949Y-45520182D01*
X63998202Y-45529499D01*
X63950227Y-45580293D01*
X63882405Y-45597087D01*
X63816271Y-45574548D01*
X63777234Y-45529495D01*
X63772626Y-45520452D01*
X63733270Y-45466282D01*
X63733269Y-45466282D01*
X63100962Y-46098590D01*
X63083925Y-46035007D01*
X63018099Y-45920993D01*
X62925007Y-45827901D01*
X62810993Y-45762075D01*
X62747409Y-45745037D01*
X63379716Y-45112728D01*
X63325550Y-45073375D01*
X63136217Y-44976904D01*
X62934129Y-44911242D01*
X62724246Y-44878000D01*
X62511754Y-44878000D01*
X62301872Y-44911242D01*
X62301869Y-44911242D01*
X62099782Y-44976904D01*
X61910439Y-45073380D01*
X61856282Y-45112727D01*
X61856282Y-45112728D01*
X62488591Y-45745037D01*
X62425007Y-45762075D01*
X62310993Y-45827901D01*
X62217901Y-45920993D01*
X62152075Y-46035007D01*
X62135037Y-46098591D01*
X61502728Y-45466282D01*
X61502727Y-45466282D01*
X61463380Y-45520440D01*
X61463376Y-45520446D01*
X61458760Y-45529505D01*
X61410781Y-45580297D01*
X61342959Y-45597087D01*
X61276826Y-45574543D01*
X61237794Y-45529493D01*
X61233051Y-45520184D01*
X61233049Y-45520181D01*
X61233048Y-45520179D01*
X61108109Y-45348213D01*
X60957786Y-45197890D01*
X60785820Y-45072951D01*
X60596414Y-44976444D01*
X60596413Y-44976443D01*
X60596412Y-44976443D01*
X60394243Y-44910754D01*
X60394241Y-44910753D01*
X60394240Y-44910753D01*
X60232957Y-44885208D01*
X60184287Y-44877500D01*
X59971713Y-44877500D01*
X59923042Y-44885208D01*
X59761760Y-44910753D01*
X59559585Y-44976444D01*
X59370179Y-45072951D01*
X59198213Y-45197890D01*
X59047890Y-45348213D01*
X58922949Y-45520182D01*
X58918484Y-45528946D01*
X58870509Y-45579742D01*
X58802688Y-45596536D01*
X58736553Y-45573998D01*
X58697516Y-45528946D01*
X58693050Y-45520182D01*
X58568109Y-45348213D01*
X58417786Y-45197890D01*
X58245820Y-45072951D01*
X58056414Y-44976444D01*
X58056413Y-44976443D01*
X58056412Y-44976443D01*
X57854243Y-44910754D01*
X57854241Y-44910753D01*
X57854240Y-44910753D01*
X57692957Y-44885208D01*
X57644287Y-44877500D01*
X57431713Y-44877500D01*
X57383042Y-44885208D01*
X57221760Y-44910753D01*
X57019585Y-44976444D01*
X56830179Y-45072951D01*
X56658215Y-45197889D01*
X56544673Y-45311431D01*
X56483350Y-45344915D01*
X56413658Y-45339931D01*
X56357725Y-45298059D01*
X56340810Y-45267082D01*
X56291797Y-45135671D01*
X56291793Y-45135664D01*
X56205547Y-45020455D01*
X56205544Y-45020452D01*
X56090335Y-44934206D01*
X56090328Y-44934202D01*
X55955482Y-44883908D01*
X55955483Y-44883908D01*
X55895883Y-44877501D01*
X55895881Y-44877500D01*
X55895873Y-44877500D01*
X55895864Y-44877500D01*
X54100129Y-44877500D01*
X54100123Y-44877501D01*
X54040516Y-44883908D01*
X53905671Y-44934202D01*
X53905664Y-44934206D01*
X53790455Y-45020452D01*
X53790452Y-45020455D01*
X53704206Y-45135664D01*
X53704202Y-45135671D01*
X53653908Y-45270517D01*
X53647501Y-45330116D01*
X53647500Y-45330135D01*
X34282500Y-45330135D01*
X34282500Y-40916713D01*
X50719500Y-40916713D01*
X50719500Y-41379286D01*
X50739931Y-41508286D01*
X50752754Y-41589243D01*
X50814912Y-41780546D01*
X50818444Y-41791414D01*
X50914951Y-41980820D01*
X51039890Y-42152786D01*
X51190213Y-42303109D01*
X51362179Y-42428048D01*
X51362181Y-42428049D01*
X51362184Y-42428051D01*
X51551588Y-42524557D01*
X51753757Y-42590246D01*
X51963713Y-42623500D01*
X51963714Y-42623500D01*
X52176286Y-42623500D01*
X52176287Y-42623500D01*
X52386243Y-42590246D01*
X52588412Y-42524557D01*
X52777816Y-42428051D01*
X52799789Y-42412086D01*
X52949786Y-42303109D01*
X52949788Y-42303106D01*
X52949792Y-42303104D01*
X53100104Y-42152792D01*
X53219683Y-41988204D01*
X53275011Y-41945540D01*
X53344624Y-41939561D01*
X53406420Y-41972166D01*
X53420313Y-41988199D01*
X53508675Y-42109820D01*
X53539896Y-42152792D01*
X53690213Y-42303109D01*
X53862179Y-42428048D01*
X53862181Y-42428049D01*
X53862184Y-42428051D01*
X54051588Y-42524557D01*
X54253757Y-42590246D01*
X54463713Y-42623500D01*
X54463714Y-42623500D01*
X54676286Y-42623500D01*
X54676287Y-42623500D01*
X54886243Y-42590246D01*
X55088412Y-42524557D01*
X55277816Y-42428051D01*
X55299789Y-42412086D01*
X55449786Y-42303109D01*
X55449788Y-42303106D01*
X55449792Y-42303104D01*
X55600104Y-42152792D01*
X55719991Y-41987779D01*
X55775320Y-41945115D01*
X55844933Y-41939136D01*
X55906729Y-41971741D01*
X55920627Y-41987781D01*
X56040272Y-42152459D01*
X56040276Y-42152464D01*
X56190535Y-42302723D01*
X56190540Y-42302727D01*
X56362442Y-42427620D01*
X56551782Y-42524095D01*
X56753871Y-42589757D01*
X56820000Y-42600231D01*
X56820000Y-41552145D01*
X56886657Y-41590630D01*
X57007465Y-41623000D01*
X57132535Y-41623000D01*
X57253343Y-41590630D01*
X57320000Y-41552145D01*
X57320000Y-42600230D01*
X57386126Y-42589757D01*
X57386129Y-42589757D01*
X57588217Y-42524095D01*
X57777557Y-42427620D01*
X57949458Y-42302728D01*
X58088330Y-42163856D01*
X58149653Y-42130371D01*
X58219345Y-42135355D01*
X58275279Y-42177226D01*
X58281551Y-42186440D01*
X58285185Y-42192331D01*
X58285186Y-42192334D01*
X58377288Y-42341656D01*
X58501344Y-42465712D01*
X58650666Y-42557814D01*
X58817203Y-42612999D01*
X58919991Y-42623500D01*
X60220008Y-42623499D01*
X60322797Y-42612999D01*
X60489334Y-42557814D01*
X60638656Y-42465712D01*
X60762712Y-42341656D01*
X60854814Y-42192334D01*
X60909999Y-42025797D01*
X60920500Y-41923009D01*
X60920499Y-40916713D01*
X64689500Y-40916713D01*
X64689500Y-41379286D01*
X64709931Y-41508286D01*
X64722754Y-41589243D01*
X64784912Y-41780546D01*
X64788444Y-41791414D01*
X64884951Y-41980820D01*
X65009890Y-42152786D01*
X65160213Y-42303109D01*
X65332179Y-42428048D01*
X65332181Y-42428049D01*
X65332184Y-42428051D01*
X65521588Y-42524557D01*
X65723757Y-42590246D01*
X65933713Y-42623500D01*
X65933714Y-42623500D01*
X66146286Y-42623500D01*
X66146287Y-42623500D01*
X66356243Y-42590246D01*
X66558412Y-42524557D01*
X66747816Y-42428051D01*
X66769789Y-42412086D01*
X66919786Y-42303109D01*
X66919788Y-42303106D01*
X66919792Y-42303104D01*
X67070104Y-42152792D01*
X67189683Y-41988204D01*
X67245011Y-41945540D01*
X67314624Y-41939561D01*
X67376420Y-41972166D01*
X67390313Y-41988199D01*
X67478675Y-42109820D01*
X67509896Y-42152792D01*
X67660213Y-42303109D01*
X67832179Y-42428048D01*
X67832181Y-42428049D01*
X67832184Y-42428051D01*
X68021588Y-42524557D01*
X68223757Y-42590246D01*
X68433713Y-42623500D01*
X68433714Y-42623500D01*
X68646286Y-42623500D01*
X68646287Y-42623500D01*
X68856243Y-42590246D01*
X69058412Y-42524557D01*
X69247816Y-42428051D01*
X69269789Y-42412086D01*
X69419786Y-42303109D01*
X69419788Y-42303106D01*
X69419792Y-42303104D01*
X69570104Y-42152792D01*
X69689991Y-41987779D01*
X69745320Y-41945115D01*
X69814933Y-41939136D01*
X69876729Y-41971741D01*
X69890627Y-41987781D01*
X70010272Y-42152459D01*
X70010276Y-42152464D01*
X70160535Y-42302723D01*
X70160540Y-42302727D01*
X70332442Y-42427620D01*
X70521782Y-42524095D01*
X70723871Y-42589757D01*
X70790000Y-42600231D01*
X70790000Y-41552145D01*
X70856657Y-41590630D01*
X70977465Y-41623000D01*
X71102535Y-41623000D01*
X71223343Y-41590630D01*
X71290000Y-41552145D01*
X71290000Y-42600230D01*
X71356126Y-42589757D01*
X71356129Y-42589757D01*
X71558217Y-42524095D01*
X71747557Y-42427620D01*
X71919458Y-42302728D01*
X72058330Y-42163856D01*
X72119653Y-42130371D01*
X72189345Y-42135355D01*
X72245279Y-42177226D01*
X72251551Y-42186440D01*
X72255185Y-42192331D01*
X72255186Y-42192334D01*
X72347288Y-42341656D01*
X72471344Y-42465712D01*
X72620666Y-42557814D01*
X72787203Y-42612999D01*
X72889991Y-42623500D01*
X74190008Y-42623499D01*
X74292797Y-42612999D01*
X74459334Y-42557814D01*
X74608656Y-42465712D01*
X74732712Y-42341656D01*
X74824814Y-42192334D01*
X74879999Y-42025797D01*
X74890500Y-41923009D01*
X74890499Y-40372992D01*
X74888851Y-40356863D01*
X74879999Y-40270203D01*
X74879998Y-40270200D01*
X74872293Y-40246949D01*
X74824814Y-40103666D01*
X74732712Y-39954344D01*
X74608656Y-39830288D01*
X74494499Y-39759876D01*
X74459336Y-39738187D01*
X74459331Y-39738185D01*
X74457862Y-39737698D01*
X74292797Y-39683001D01*
X74292795Y-39683000D01*
X74190010Y-39672500D01*
X72889998Y-39672500D01*
X72889981Y-39672501D01*
X72787203Y-39683000D01*
X72787200Y-39683001D01*
X72620668Y-39738185D01*
X72620663Y-39738187D01*
X72471342Y-39830289D01*
X72347289Y-39954342D01*
X72251551Y-40109559D01*
X72199603Y-40156283D01*
X72130640Y-40167506D01*
X72066558Y-40139662D01*
X72058331Y-40132143D01*
X71919464Y-39993276D01*
X71919459Y-39993272D01*
X71747557Y-39868379D01*
X71558215Y-39771903D01*
X71356124Y-39706241D01*
X71290000Y-39695768D01*
X71290000Y-40743854D01*
X71223343Y-40705370D01*
X71102535Y-40673000D01*
X70977465Y-40673000D01*
X70856657Y-40705370D01*
X70790000Y-40743854D01*
X70790000Y-39695768D01*
X70789999Y-39695768D01*
X70723875Y-39706241D01*
X70521784Y-39771903D01*
X70332442Y-39868379D01*
X70160540Y-39993272D01*
X70160535Y-39993276D01*
X70010276Y-40143535D01*
X70010272Y-40143540D01*
X69890627Y-40308218D01*
X69835297Y-40350884D01*
X69765684Y-40356863D01*
X69703889Y-40324257D01*
X69689991Y-40308218D01*
X69570109Y-40143214D01*
X69570105Y-40143209D01*
X69419786Y-39992890D01*
X69247820Y-39867951D01*
X69058414Y-39771444D01*
X69058413Y-39771443D01*
X69058412Y-39771443D01*
X68856243Y-39705754D01*
X68856241Y-39705753D01*
X68856240Y-39705753D01*
X68694957Y-39680208D01*
X68646287Y-39672500D01*
X68433713Y-39672500D01*
X68385042Y-39680208D01*
X68223760Y-39705753D01*
X68021585Y-39771444D01*
X67832179Y-39867951D01*
X67660213Y-39992890D01*
X67509894Y-40143209D01*
X67509890Y-40143214D01*
X67390318Y-40307793D01*
X67334989Y-40350459D01*
X67265375Y-40356438D01*
X67203580Y-40323833D01*
X67189682Y-40307793D01*
X67070109Y-40143214D01*
X67070105Y-40143209D01*
X66919786Y-39992890D01*
X66747820Y-39867951D01*
X66558414Y-39771444D01*
X66558413Y-39771443D01*
X66558412Y-39771443D01*
X66356243Y-39705754D01*
X66356241Y-39705753D01*
X66356240Y-39705753D01*
X66194957Y-39680208D01*
X66146287Y-39672500D01*
X65933713Y-39672500D01*
X65885042Y-39680208D01*
X65723760Y-39705753D01*
X65521585Y-39771444D01*
X65332179Y-39867951D01*
X65160213Y-39992890D01*
X65009890Y-40143213D01*
X64884951Y-40315179D01*
X64788444Y-40504585D01*
X64722753Y-40706760D01*
X64689500Y-40916713D01*
X60920499Y-40916713D01*
X60920499Y-40372992D01*
X60918851Y-40356863D01*
X60909999Y-40270203D01*
X60909998Y-40270200D01*
X60902293Y-40246949D01*
X60854814Y-40103666D01*
X60762712Y-39954344D01*
X60638656Y-39830288D01*
X60524499Y-39759876D01*
X60489336Y-39738187D01*
X60489331Y-39738185D01*
X60487862Y-39737698D01*
X60322797Y-39683001D01*
X60322795Y-39683000D01*
X60220010Y-39672500D01*
X58919998Y-39672500D01*
X58919981Y-39672501D01*
X58817203Y-39683000D01*
X58817200Y-39683001D01*
X58650668Y-39738185D01*
X58650663Y-39738187D01*
X58501342Y-39830289D01*
X58377289Y-39954342D01*
X58281551Y-40109559D01*
X58229603Y-40156283D01*
X58160640Y-40167506D01*
X58096558Y-40139662D01*
X58088331Y-40132143D01*
X57949464Y-39993276D01*
X57949459Y-39993272D01*
X57777557Y-39868379D01*
X57588215Y-39771903D01*
X57386124Y-39706241D01*
X57320000Y-39695768D01*
X57320000Y-40743854D01*
X57253343Y-40705370D01*
X57132535Y-40673000D01*
X57007465Y-40673000D01*
X56886657Y-40705370D01*
X56820000Y-40743854D01*
X56820000Y-39695768D01*
X56819999Y-39695768D01*
X56753875Y-39706241D01*
X56551784Y-39771903D01*
X56362442Y-39868379D01*
X56190540Y-39993272D01*
X56190535Y-39993276D01*
X56040276Y-40143535D01*
X56040272Y-40143540D01*
X55920627Y-40308218D01*
X55865297Y-40350884D01*
X55795684Y-40356863D01*
X55733889Y-40324257D01*
X55719991Y-40308218D01*
X55600109Y-40143214D01*
X55600105Y-40143209D01*
X55449786Y-39992890D01*
X55277820Y-39867951D01*
X55088414Y-39771444D01*
X55088413Y-39771443D01*
X55088412Y-39771443D01*
X54886243Y-39705754D01*
X54886241Y-39705753D01*
X54886240Y-39705753D01*
X54724957Y-39680208D01*
X54676287Y-39672500D01*
X54463713Y-39672500D01*
X54415042Y-39680208D01*
X54253760Y-39705753D01*
X54051585Y-39771444D01*
X53862179Y-39867951D01*
X53690213Y-39992890D01*
X53539894Y-40143209D01*
X53539890Y-40143214D01*
X53420318Y-40307793D01*
X53364989Y-40350459D01*
X53295375Y-40356438D01*
X53233580Y-40323833D01*
X53219682Y-40307793D01*
X53100109Y-40143214D01*
X53100105Y-40143209D01*
X52949786Y-39992890D01*
X52777820Y-39867951D01*
X52588414Y-39771444D01*
X52588413Y-39771443D01*
X52588412Y-39771443D01*
X52386243Y-39705754D01*
X52386241Y-39705753D01*
X52386240Y-39705753D01*
X52224957Y-39680208D01*
X52176287Y-39672500D01*
X51963713Y-39672500D01*
X51915042Y-39680208D01*
X51753760Y-39705753D01*
X51551585Y-39771444D01*
X51362179Y-39867951D01*
X51190213Y-39992890D01*
X51039890Y-40143213D01*
X50914951Y-40315179D01*
X50818444Y-40504585D01*
X50752753Y-40706760D01*
X50719500Y-40916713D01*
X34282500Y-40916713D01*
X34282500Y-37964135D01*
X78659500Y-37964135D01*
X78659500Y-39759870D01*
X78659501Y-39759876D01*
X78665908Y-39819483D01*
X78716202Y-39954328D01*
X78716206Y-39954335D01*
X78802452Y-40069544D01*
X78802455Y-40069547D01*
X78917664Y-40155793D01*
X78917671Y-40155797D01*
X79049082Y-40204810D01*
X79105016Y-40246681D01*
X79129433Y-40312145D01*
X79114582Y-40380418D01*
X79093431Y-40408673D01*
X78979889Y-40522215D01*
X78854951Y-40694179D01*
X78758444Y-40883585D01*
X78692753Y-41085760D01*
X78686993Y-41122128D01*
X78659500Y-41295713D01*
X78659500Y-41508287D01*
X78692754Y-41718243D01*
X78712999Y-41780551D01*
X78758444Y-41920414D01*
X78854951Y-42109820D01*
X78979890Y-42281786D01*
X79130213Y-42432109D01*
X79302182Y-42557050D01*
X79310946Y-42561516D01*
X79361742Y-42609491D01*
X79378536Y-42677312D01*
X79355998Y-42743447D01*
X79310946Y-42782484D01*
X79302182Y-42786949D01*
X79130213Y-42911890D01*
X78979890Y-43062213D01*
X78854951Y-43234179D01*
X78758444Y-43423585D01*
X78692753Y-43625760D01*
X78659500Y-43835713D01*
X78659500Y-44048286D01*
X78687613Y-44225789D01*
X78692754Y-44258243D01*
X78730280Y-44373737D01*
X78758444Y-44460414D01*
X78854951Y-44649820D01*
X78979890Y-44821786D01*
X79130213Y-44972109D01*
X79302182Y-45097050D01*
X79310946Y-45101516D01*
X79361742Y-45149491D01*
X79378536Y-45217312D01*
X79355998Y-45283447D01*
X79310946Y-45322484D01*
X79302182Y-45326949D01*
X79130213Y-45451890D01*
X78979890Y-45602213D01*
X78854951Y-45774179D01*
X78758444Y-45963585D01*
X78692753Y-46165760D01*
X78659500Y-46375713D01*
X78659500Y-46588286D01*
X78692735Y-46798127D01*
X78692754Y-46798243D01*
X78737454Y-46935816D01*
X78758444Y-47000414D01*
X78854951Y-47189820D01*
X78979890Y-47361786D01*
X79130213Y-47512109D01*
X79302182Y-47637050D01*
X79310946Y-47641516D01*
X79361742Y-47689491D01*
X79378536Y-47757312D01*
X79355998Y-47823447D01*
X79310946Y-47862484D01*
X79302182Y-47866949D01*
X79130213Y-47991890D01*
X78979890Y-48142213D01*
X78854951Y-48314179D01*
X78758444Y-48503585D01*
X78692753Y-48705760D01*
X78659500Y-48915713D01*
X78659500Y-49128287D01*
X78660367Y-49133760D01*
X78684165Y-49284018D01*
X78692754Y-49338243D01*
X78708530Y-49386797D01*
X78758444Y-49540414D01*
X78854951Y-49729820D01*
X78979890Y-49901786D01*
X79130213Y-50052109D01*
X79302182Y-50177050D01*
X79310946Y-50181516D01*
X79361742Y-50229491D01*
X79378536Y-50297312D01*
X79355998Y-50363447D01*
X79310946Y-50402484D01*
X79302182Y-50406949D01*
X79130213Y-50531890D01*
X78979890Y-50682213D01*
X78854951Y-50854179D01*
X78758444Y-51043585D01*
X78692753Y-51245760D01*
X78659500Y-51455713D01*
X78659500Y-51668286D01*
X78692753Y-51878239D01*
X78758444Y-52080414D01*
X78854951Y-52269820D01*
X78979890Y-52441786D01*
X79130213Y-52592109D01*
X79302182Y-52717050D01*
X79310946Y-52721516D01*
X79361742Y-52769491D01*
X79378536Y-52837312D01*
X79355998Y-52903447D01*
X79310946Y-52942484D01*
X79302182Y-52946949D01*
X79130213Y-53071890D01*
X78979890Y-53222213D01*
X78854951Y-53394179D01*
X78758444Y-53583585D01*
X78692753Y-53785760D01*
X78670596Y-53925657D01*
X78659500Y-53995713D01*
X78659500Y-54208287D01*
X78692754Y-54418243D01*
X78723693Y-54513464D01*
X78758444Y-54620414D01*
X78854951Y-54809820D01*
X78979890Y-54981786D01*
X79130213Y-55132109D01*
X79302182Y-55257050D01*
X79310946Y-55261516D01*
X79361742Y-55309491D01*
X79378536Y-55377312D01*
X79355998Y-55443447D01*
X79310946Y-55482484D01*
X79302182Y-55486949D01*
X79130213Y-55611890D01*
X78979890Y-55762213D01*
X78854951Y-55934179D01*
X78758444Y-56123585D01*
X78692753Y-56325760D01*
X78659500Y-56535713D01*
X78659500Y-56748286D01*
X78684544Y-56906412D01*
X78692754Y-56958243D01*
X78739708Y-57102753D01*
X78758444Y-57160414D01*
X78854951Y-57349820D01*
X78979890Y-57521786D01*
X79130213Y-57672109D01*
X79302182Y-57797050D01*
X79310946Y-57801516D01*
X79361742Y-57849491D01*
X79378536Y-57917312D01*
X79355998Y-57983447D01*
X79310946Y-58022484D01*
X79302182Y-58026949D01*
X79130213Y-58151890D01*
X78979890Y-58302213D01*
X78854951Y-58474179D01*
X78758444Y-58663585D01*
X78758443Y-58663587D01*
X78758443Y-58663588D01*
X78757574Y-58666263D01*
X78692753Y-58865760D01*
X78659500Y-59075713D01*
X78659500Y-59288286D01*
X78685129Y-59450105D01*
X78692754Y-59498243D01*
X78749067Y-59671557D01*
X78758444Y-59700414D01*
X78854951Y-59889820D01*
X78979890Y-60061786D01*
X79130213Y-60212109D01*
X79302182Y-60337050D01*
X79310946Y-60341516D01*
X79361742Y-60389491D01*
X79378536Y-60457312D01*
X79355998Y-60523447D01*
X79310946Y-60562484D01*
X79302182Y-60566949D01*
X79130213Y-60691890D01*
X78979890Y-60842213D01*
X78854951Y-61014179D01*
X78758444Y-61203585D01*
X78692753Y-61405760D01*
X78659500Y-61615713D01*
X78659500Y-61828287D01*
X78692754Y-62038243D01*
X78750081Y-62214678D01*
X78758444Y-62240414D01*
X78854951Y-62429820D01*
X78979890Y-62601786D01*
X79130213Y-62752109D01*
X79302182Y-62877050D01*
X79310946Y-62881516D01*
X79361742Y-62929491D01*
X79378536Y-62997312D01*
X79355998Y-63063447D01*
X79310946Y-63102484D01*
X79302182Y-63106949D01*
X79130213Y-63231890D01*
X78979890Y-63382213D01*
X78854951Y-63554179D01*
X78758444Y-63743585D01*
X78692753Y-63945760D01*
X78659500Y-64155713D01*
X78659500Y-64368286D01*
X78691387Y-64569616D01*
X78692754Y-64578243D01*
X78741182Y-64727289D01*
X78758444Y-64780414D01*
X78854951Y-64969820D01*
X78979890Y-65141786D01*
X79130213Y-65292109D01*
X79302182Y-65417050D01*
X79310946Y-65421516D01*
X79361742Y-65469491D01*
X79378536Y-65537312D01*
X79355998Y-65603447D01*
X79310946Y-65642484D01*
X79302182Y-65646949D01*
X79130213Y-65771890D01*
X78979890Y-65922213D01*
X78854951Y-66094179D01*
X78758444Y-66283585D01*
X78692753Y-66485760D01*
X78659500Y-66695713D01*
X78659500Y-66908286D01*
X78691877Y-67112710D01*
X78692754Y-67118243D01*
X78742225Y-67270499D01*
X78758444Y-67320414D01*
X78854951Y-67509820D01*
X78979890Y-67681786D01*
X79130213Y-67832109D01*
X79302182Y-67957050D01*
X79310946Y-67961516D01*
X79361742Y-68009491D01*
X79378536Y-68077312D01*
X79355998Y-68143447D01*
X79310946Y-68182484D01*
X79302182Y-68186949D01*
X79130213Y-68311890D01*
X78979890Y-68462213D01*
X78854951Y-68634179D01*
X78758444Y-68823585D01*
X78692753Y-69025760D01*
X78659500Y-69235713D01*
X78659500Y-69448286D01*
X78682895Y-69596000D01*
X78692754Y-69658243D01*
X78750557Y-69836142D01*
X78758444Y-69860414D01*
X78854951Y-70049820D01*
X78979890Y-70221786D01*
X79130213Y-70372109D01*
X79302182Y-70497050D01*
X79310946Y-70501516D01*
X79361742Y-70549491D01*
X79378536Y-70617312D01*
X79355998Y-70683447D01*
X79310946Y-70722484D01*
X79302182Y-70726949D01*
X79130213Y-70851890D01*
X78979890Y-71002213D01*
X78854951Y-71174179D01*
X78758444Y-71363585D01*
X78692753Y-71565760D01*
X78668008Y-71721994D01*
X78659500Y-71775713D01*
X78659500Y-71988287D01*
X78692754Y-72198243D01*
X78755506Y-72391374D01*
X78758444Y-72400414D01*
X78854951Y-72589820D01*
X78979890Y-72761786D01*
X79130213Y-72912109D01*
X79302182Y-73037050D01*
X79310946Y-73041516D01*
X79361742Y-73089491D01*
X79378536Y-73157312D01*
X79355998Y-73223447D01*
X79310946Y-73262484D01*
X79302182Y-73266949D01*
X79130213Y-73391890D01*
X78979890Y-73542213D01*
X78854951Y-73714179D01*
X78758444Y-73903585D01*
X78692753Y-74105760D01*
X78659500Y-74315713D01*
X78659500Y-74528286D01*
X78692753Y-74738239D01*
X78758444Y-74940414D01*
X78854951Y-75129820D01*
X78979890Y-75301786D01*
X79130213Y-75452109D01*
X79302179Y-75577048D01*
X79302181Y-75577049D01*
X79302184Y-75577051D01*
X79491588Y-75673557D01*
X79693757Y-75739246D01*
X79903713Y-75772500D01*
X79903714Y-75772500D01*
X80116286Y-75772500D01*
X80116287Y-75772500D01*
X80326243Y-75739246D01*
X80528412Y-75673557D01*
X80717816Y-75577051D01*
X80768811Y-75540001D01*
X80889786Y-75452109D01*
X80889788Y-75452106D01*
X80889792Y-75452104D01*
X81040104Y-75301792D01*
X81040106Y-75301788D01*
X81040109Y-75301786D01*
X81165048Y-75129820D01*
X81165047Y-75129820D01*
X81165051Y-75129816D01*
X81261557Y-74940412D01*
X81327246Y-74738243D01*
X81360500Y-74528287D01*
X81360500Y-74315713D01*
X81327246Y-74105757D01*
X81261557Y-73903588D01*
X81165051Y-73714184D01*
X81165049Y-73714181D01*
X81165048Y-73714179D01*
X81040109Y-73542213D01*
X80889786Y-73391890D01*
X80717820Y-73266951D01*
X80717115Y-73266591D01*
X80709054Y-73262485D01*
X80658259Y-73214512D01*
X80641463Y-73146692D01*
X80663999Y-73080556D01*
X80709054Y-73041515D01*
X80717816Y-73037051D01*
X80842900Y-72946173D01*
X80889786Y-72912109D01*
X80889788Y-72912106D01*
X80889792Y-72912104D01*
X81040104Y-72761792D01*
X81040106Y-72761788D01*
X81040109Y-72761786D01*
X81165048Y-72589820D01*
X81165047Y-72589820D01*
X81165051Y-72589816D01*
X81261557Y-72400412D01*
X81327246Y-72198243D01*
X81360500Y-71988287D01*
X81360500Y-71775713D01*
X81327246Y-71565757D01*
X81261557Y-71363588D01*
X81165051Y-71174184D01*
X81165049Y-71174181D01*
X81165048Y-71174179D01*
X81040109Y-71002213D01*
X80889786Y-70851890D01*
X80717820Y-70726951D01*
X80717115Y-70726591D01*
X80709054Y-70722485D01*
X80658259Y-70674512D01*
X80641463Y-70606692D01*
X80663999Y-70540556D01*
X80709054Y-70501515D01*
X80717816Y-70497051D01*
X80747077Y-70475792D01*
X80889786Y-70372109D01*
X80889788Y-70372106D01*
X80889792Y-70372104D01*
X81040104Y-70221792D01*
X81040106Y-70221788D01*
X81040109Y-70221786D01*
X81165048Y-70049820D01*
X81165047Y-70049820D01*
X81165051Y-70049816D01*
X81261557Y-69860412D01*
X81327246Y-69658243D01*
X81360500Y-69448287D01*
X81360500Y-69235713D01*
X81327246Y-69025757D01*
X81261557Y-68823588D01*
X81165051Y-68634184D01*
X81165049Y-68634181D01*
X81165048Y-68634179D01*
X81040109Y-68462213D01*
X80889786Y-68311890D01*
X80717820Y-68186951D01*
X80717115Y-68186591D01*
X80709054Y-68182485D01*
X80658259Y-68134512D01*
X80641463Y-68066692D01*
X80663999Y-68000556D01*
X80709054Y-67961515D01*
X80717816Y-67957051D01*
X80747085Y-67935786D01*
X80889786Y-67832109D01*
X80889788Y-67832106D01*
X80889792Y-67832104D01*
X81040104Y-67681792D01*
X81040106Y-67681788D01*
X81040109Y-67681786D01*
X81165048Y-67509820D01*
X81165047Y-67509820D01*
X81165051Y-67509816D01*
X81261557Y-67320412D01*
X81327246Y-67118243D01*
X81360500Y-66908287D01*
X81360500Y-66695713D01*
X81327246Y-66485757D01*
X81261557Y-66283588D01*
X81165051Y-66094184D01*
X81165049Y-66094181D01*
X81165048Y-66094179D01*
X81040109Y-65922213D01*
X80889786Y-65771890D01*
X80717820Y-65646951D01*
X80717115Y-65646591D01*
X80709054Y-65642485D01*
X80658259Y-65594512D01*
X80641463Y-65526692D01*
X80663999Y-65460556D01*
X80709054Y-65421515D01*
X80717816Y-65417051D01*
X80811729Y-65348820D01*
X80889786Y-65292109D01*
X80889788Y-65292106D01*
X80889792Y-65292104D01*
X81040104Y-65141792D01*
X81040106Y-65141788D01*
X81040109Y-65141786D01*
X81165048Y-64969820D01*
X81165047Y-64969820D01*
X81165051Y-64969816D01*
X81261557Y-64780412D01*
X81327246Y-64578243D01*
X81360500Y-64368287D01*
X81360500Y-64155713D01*
X81327246Y-63945757D01*
X81261557Y-63743588D01*
X81165051Y-63554184D01*
X81165049Y-63554181D01*
X81165048Y-63554179D01*
X81040109Y-63382213D01*
X80889786Y-63231890D01*
X80717820Y-63106951D01*
X80716320Y-63106187D01*
X80709054Y-63102485D01*
X80658259Y-63054512D01*
X80641463Y-62986692D01*
X80663999Y-62920556D01*
X80709054Y-62881515D01*
X80717816Y-62877051D01*
X80747085Y-62855786D01*
X80889786Y-62752109D01*
X80889788Y-62752106D01*
X80889792Y-62752104D01*
X81040104Y-62601792D01*
X81040106Y-62601788D01*
X81040109Y-62601786D01*
X81165048Y-62429820D01*
X81165047Y-62429820D01*
X81165051Y-62429816D01*
X81261557Y-62240412D01*
X81327246Y-62038243D01*
X81360500Y-61828287D01*
X81360500Y-61615713D01*
X81327246Y-61405757D01*
X81261557Y-61203588D01*
X81165051Y-61014184D01*
X81165049Y-61014181D01*
X81165048Y-61014179D01*
X81040109Y-60842213D01*
X80889786Y-60691890D01*
X80717820Y-60566951D01*
X80717115Y-60566591D01*
X80709054Y-60562485D01*
X80658259Y-60514512D01*
X80641463Y-60446692D01*
X80663999Y-60380556D01*
X80709054Y-60341515D01*
X80717816Y-60337051D01*
X80856214Y-60236500D01*
X80889786Y-60212109D01*
X80889788Y-60212106D01*
X80889792Y-60212104D01*
X81008077Y-60093819D01*
X81069400Y-60060334D01*
X81095758Y-60057500D01*
X81881994Y-60057500D01*
X81949033Y-60077185D01*
X81969675Y-60093819D01*
X82908181Y-61032325D01*
X82941666Y-61093648D01*
X82944500Y-61120006D01*
X82944500Y-72222233D01*
X82978143Y-72391366D01*
X82978146Y-72391378D01*
X83044138Y-72550698D01*
X83044145Y-72550711D01*
X83139954Y-72694098D01*
X83139957Y-72694102D01*
X88981955Y-78536099D01*
X89046805Y-78600949D01*
X89103902Y-78658046D01*
X89247288Y-78753854D01*
X89247301Y-78753861D01*
X89355111Y-78798517D01*
X89406626Y-78819855D01*
X89575766Y-78853499D01*
X89575769Y-78853500D01*
X89575771Y-78853500D01*
X102702231Y-78853500D01*
X102702232Y-78853499D01*
X102871374Y-78819855D01*
X103030705Y-78753858D01*
X103174099Y-78658045D01*
X104566045Y-77266099D01*
X104661858Y-77122705D01*
X104667240Y-77109713D01*
X104727853Y-76963378D01*
X104727855Y-76963374D01*
X104761500Y-76794229D01*
X104761500Y-76621771D01*
X104761500Y-50459771D01*
X104761500Y-50459768D01*
X104761499Y-50459766D01*
X104742016Y-50361818D01*
X104727855Y-50290626D01*
X104727853Y-50290621D01*
X104661861Y-50131301D01*
X104661854Y-50131288D01*
X104566046Y-49987902D01*
X104506594Y-49928450D01*
X104444099Y-49865955D01*
X103916383Y-49338239D01*
X103348102Y-48769957D01*
X103348098Y-48769954D01*
X103204711Y-48674145D01*
X103204698Y-48674138D01*
X103045378Y-48608146D01*
X103045366Y-48608143D01*
X102876232Y-48574500D01*
X102876229Y-48574500D01*
X102302758Y-48574500D01*
X102235719Y-48554815D01*
X102215077Y-48538181D01*
X102096790Y-48419894D01*
X102096785Y-48419890D01*
X101931781Y-48300008D01*
X101889115Y-48244678D01*
X101883136Y-48175065D01*
X101915741Y-48113270D01*
X101931781Y-48099371D01*
X102096466Y-47979721D01*
X102246723Y-47829464D01*
X102246727Y-47829459D01*
X102371620Y-47657557D01*
X102468095Y-47468217D01*
X102533757Y-47266129D01*
X102533757Y-47266126D01*
X102544231Y-47200000D01*
X101496146Y-47200000D01*
X101534630Y-47133343D01*
X101567000Y-47012535D01*
X101567000Y-46887465D01*
X101534630Y-46766657D01*
X101496146Y-46700000D01*
X102544231Y-46700000D01*
X102533757Y-46633873D01*
X102533757Y-46633870D01*
X102468095Y-46431782D01*
X102371620Y-46242442D01*
X102246727Y-46070540D01*
X102246723Y-46070535D01*
X102096464Y-45920276D01*
X102096459Y-45920272D01*
X101931781Y-45800627D01*
X101889115Y-45745297D01*
X101883136Y-45675684D01*
X101915741Y-45613889D01*
X101931776Y-45599994D01*
X102096792Y-45480104D01*
X102247104Y-45329792D01*
X102247106Y-45329788D01*
X102247109Y-45329786D01*
X102370902Y-45159397D01*
X102372051Y-45157816D01*
X102468557Y-44968412D01*
X102534246Y-44766243D01*
X102567500Y-44556287D01*
X102567500Y-44343713D01*
X102534246Y-44133757D01*
X102468557Y-43931588D01*
X102372051Y-43742184D01*
X102372049Y-43742181D01*
X102372048Y-43742179D01*
X102247109Y-43570213D01*
X102096786Y-43419890D01*
X101924820Y-43294951D01*
X101735414Y-43198444D01*
X101735413Y-43198443D01*
X101735412Y-43198443D01*
X101533243Y-43132754D01*
X101533241Y-43132753D01*
X101533240Y-43132753D01*
X101345612Y-43103036D01*
X101323287Y-43099500D01*
X100860713Y-43099500D01*
X100838388Y-43103036D01*
X100650760Y-43132753D01*
X100448585Y-43198444D01*
X100259179Y-43294951D01*
X100087213Y-43419890D01*
X99936890Y-43570213D01*
X99811951Y-43742179D01*
X99715444Y-43931585D01*
X99649753Y-44133760D01*
X99630038Y-44258239D01*
X99616500Y-44343713D01*
X99616500Y-44556287D01*
X99649754Y-44766243D01*
X99712803Y-44960288D01*
X99715444Y-44968414D01*
X99811951Y-45157820D01*
X99936890Y-45329786D01*
X100087209Y-45480105D01*
X100087214Y-45480109D01*
X100252218Y-45599991D01*
X100294884Y-45655320D01*
X100300863Y-45724934D01*
X100268258Y-45786729D01*
X100252218Y-45800627D01*
X100087540Y-45920272D01*
X100087535Y-45920276D01*
X99937276Y-46070535D01*
X99937272Y-46070540D01*
X99812379Y-46242442D01*
X99715904Y-46431782D01*
X99650242Y-46633870D01*
X99650242Y-46633873D01*
X99639769Y-46700000D01*
X100687854Y-46700000D01*
X100649370Y-46766657D01*
X100617000Y-46887465D01*
X100617000Y-47012535D01*
X100649370Y-47133343D01*
X100687854Y-47200000D01*
X99639769Y-47200000D01*
X99650242Y-47266126D01*
X99650242Y-47266129D01*
X99715904Y-47468217D01*
X99812379Y-47657557D01*
X99937272Y-47829459D01*
X99937276Y-47829464D01*
X100087535Y-47979723D01*
X100087540Y-47979727D01*
X100252218Y-48099372D01*
X100294884Y-48154701D01*
X100300863Y-48224315D01*
X100268258Y-48286110D01*
X100252218Y-48300008D01*
X100087214Y-48419890D01*
X100087209Y-48419894D01*
X99936890Y-48570213D01*
X99811951Y-48742179D01*
X99715444Y-48931585D01*
X99649753Y-49133760D01*
X99625956Y-49284008D01*
X99616500Y-49343713D01*
X99616500Y-49556287D01*
X99649754Y-49766243D01*
X99702458Y-49928450D01*
X99715444Y-49968414D01*
X99811951Y-50157820D01*
X99936890Y-50329786D01*
X100075705Y-50468601D01*
X100109190Y-50529924D01*
X100104206Y-50599616D01*
X100062334Y-50655549D01*
X100053121Y-50661821D01*
X99898342Y-50757289D01*
X99774289Y-50881342D01*
X99682187Y-51030663D01*
X99682186Y-51030666D01*
X99627001Y-51197203D01*
X99627001Y-51197204D01*
X99627000Y-51197204D01*
X99616500Y-51299983D01*
X99616500Y-52600001D01*
X99616501Y-52600018D01*
X99627000Y-52702796D01*
X99627001Y-52702799D01*
X99644145Y-52754535D01*
X99682186Y-52869334D01*
X99774288Y-53018656D01*
X99898344Y-53142712D01*
X100047666Y-53234814D01*
X100214203Y-53289999D01*
X100316991Y-53300500D01*
X101867008Y-53300499D01*
X101969797Y-53289999D01*
X102136334Y-53234814D01*
X102285656Y-53142712D01*
X102409712Y-53018656D01*
X102501814Y-52869334D01*
X102556999Y-52702797D01*
X102567500Y-52600009D01*
X102567499Y-51299992D01*
X102556999Y-51197203D01*
X102501814Y-51030666D01*
X102409712Y-50881344D01*
X102285656Y-50757288D01*
X102136334Y-50665186D01*
X102136333Y-50665185D01*
X102130878Y-50661821D01*
X102115324Y-50644528D01*
X102096708Y-50630592D01*
X102092399Y-50619040D01*
X102084154Y-50609873D01*
X102080418Y-50586916D01*
X102072291Y-50565127D01*
X102074911Y-50553080D01*
X102072931Y-50540910D01*
X102082199Y-50519578D01*
X102087143Y-50496855D01*
X102098893Y-50481157D01*
X102100775Y-50476828D01*
X102108272Y-50468623D01*
X102215079Y-50361816D01*
X102276400Y-50328334D01*
X102302758Y-50325500D01*
X102375994Y-50325500D01*
X102443033Y-50345185D01*
X102463675Y-50361819D01*
X102974181Y-50872325D01*
X103007666Y-50933648D01*
X103010500Y-50960006D01*
X103010500Y-76293994D01*
X102990815Y-76361033D01*
X102974181Y-76381675D01*
X102289675Y-77066181D01*
X102228352Y-77099666D01*
X102201994Y-77102500D01*
X90076006Y-77102500D01*
X90008967Y-77082815D01*
X89988325Y-77066181D01*
X84731819Y-71809675D01*
X84698334Y-71748352D01*
X84695500Y-71721994D01*
X84695500Y-60619768D01*
X84695499Y-60619766D01*
X84684105Y-60562484D01*
X84661855Y-60450626D01*
X84661853Y-60450621D01*
X84595861Y-60291301D01*
X84595854Y-60291288D01*
X84500046Y-60147902D01*
X84442143Y-60089999D01*
X84378099Y-60025955D01*
X83640430Y-59288286D01*
X82854102Y-58501957D01*
X82854098Y-58501954D01*
X82710711Y-58406145D01*
X82710698Y-58406138D01*
X82551378Y-58340146D01*
X82551366Y-58340143D01*
X82382232Y-58306500D01*
X82382229Y-58306500D01*
X81095758Y-58306500D01*
X81028719Y-58286815D01*
X81008077Y-58270181D01*
X80889786Y-58151890D01*
X80717820Y-58026951D01*
X80717115Y-58026591D01*
X80709054Y-58022485D01*
X80658259Y-57974512D01*
X80641463Y-57906692D01*
X80663999Y-57840556D01*
X80709054Y-57801515D01*
X80717816Y-57797051D01*
X80798405Y-57738500D01*
X80889786Y-57672109D01*
X80889788Y-57672106D01*
X80889792Y-57672104D01*
X81040104Y-57521792D01*
X81040106Y-57521788D01*
X81040109Y-57521786D01*
X81165048Y-57349820D01*
X81165047Y-57349820D01*
X81165051Y-57349816D01*
X81261557Y-57160412D01*
X81327246Y-56958243D01*
X81360500Y-56748287D01*
X81360500Y-56535713D01*
X81327246Y-56325757D01*
X81261557Y-56123588D01*
X81165051Y-55934184D01*
X81165049Y-55934181D01*
X81165048Y-55934179D01*
X81040109Y-55762213D01*
X80889786Y-55611890D01*
X80717820Y-55486951D01*
X80717115Y-55486591D01*
X80709054Y-55482485D01*
X80658259Y-55434512D01*
X80641463Y-55366692D01*
X80663999Y-55300556D01*
X80709054Y-55261515D01*
X80717816Y-55257051D01*
X80750990Y-55232949D01*
X80889786Y-55132109D01*
X80889788Y-55132106D01*
X80889792Y-55132104D01*
X81040104Y-54981792D01*
X81040106Y-54981788D01*
X81040109Y-54981786D01*
X81165048Y-54809820D01*
X81165047Y-54809820D01*
X81165051Y-54809816D01*
X81261557Y-54620412D01*
X81327246Y-54418243D01*
X81360500Y-54208287D01*
X81360500Y-53995713D01*
X81327246Y-53785757D01*
X81261557Y-53583588D01*
X81165051Y-53394184D01*
X81165049Y-53394181D01*
X81165048Y-53394179D01*
X81040109Y-53222213D01*
X80889786Y-53071890D01*
X80717820Y-52946951D01*
X80717115Y-52946591D01*
X80709054Y-52942485D01*
X80658259Y-52894512D01*
X80641463Y-52826692D01*
X80663999Y-52760556D01*
X80709054Y-52721515D01*
X80717816Y-52717051D01*
X80873039Y-52604276D01*
X80889786Y-52592109D01*
X80889788Y-52592106D01*
X80889792Y-52592104D01*
X81040104Y-52441792D01*
X81040106Y-52441788D01*
X81040109Y-52441786D01*
X81165048Y-52269820D01*
X81165047Y-52269820D01*
X81165051Y-52269816D01*
X81261557Y-52080412D01*
X81327246Y-51878243D01*
X81360500Y-51668287D01*
X81360500Y-51455713D01*
X81327246Y-51245757D01*
X81261557Y-51043588D01*
X81165051Y-50854184D01*
X81165049Y-50854181D01*
X81165048Y-50854179D01*
X81040109Y-50682213D01*
X80889786Y-50531890D01*
X80717820Y-50406951D01*
X80717115Y-50406591D01*
X80709054Y-50402485D01*
X80658259Y-50354512D01*
X80641463Y-50286692D01*
X80663999Y-50220556D01*
X80709054Y-50181515D01*
X80717816Y-50177051D01*
X80802675Y-50115398D01*
X80889786Y-50052109D01*
X80889788Y-50052106D01*
X80889792Y-50052104D01*
X81040104Y-49901792D01*
X81040106Y-49901788D01*
X81040109Y-49901786D01*
X81165048Y-49729820D01*
X81165047Y-49729820D01*
X81165051Y-49729816D01*
X81261557Y-49540412D01*
X81327246Y-49338243D01*
X81360500Y-49128287D01*
X81360500Y-48915713D01*
X81327246Y-48705757D01*
X81261557Y-48503588D01*
X81165051Y-48314184D01*
X81165049Y-48314181D01*
X81165048Y-48314179D01*
X81040109Y-48142213D01*
X80889786Y-47991890D01*
X80717820Y-47866951D01*
X80717115Y-47866591D01*
X80709054Y-47862485D01*
X80658259Y-47814512D01*
X80641463Y-47746692D01*
X80663999Y-47680556D01*
X80709054Y-47641515D01*
X80717816Y-47637051D01*
X80798405Y-47578500D01*
X80889786Y-47512109D01*
X80889788Y-47512106D01*
X80889792Y-47512104D01*
X81040104Y-47361792D01*
X81040106Y-47361788D01*
X81040109Y-47361786D01*
X81165048Y-47189820D01*
X81165047Y-47189820D01*
X81165051Y-47189816D01*
X81261557Y-47000412D01*
X81327246Y-46798243D01*
X81360500Y-46588287D01*
X81360500Y-46375713D01*
X81327246Y-46165757D01*
X81261557Y-45963588D01*
X81165051Y-45774184D01*
X81131497Y-45728000D01*
X81116931Y-45707951D01*
X81068400Y-45641153D01*
X82003500Y-45641153D01*
X82003500Y-45798846D01*
X82034261Y-45953489D01*
X82034264Y-45953501D01*
X82094602Y-46099172D01*
X82094609Y-46099185D01*
X82182210Y-46230288D01*
X82182213Y-46230292D01*
X82293707Y-46341786D01*
X82293711Y-46341789D01*
X82424814Y-46429390D01*
X82424827Y-46429397D01*
X82551824Y-46482000D01*
X82570503Y-46489737D01*
X82725153Y-46520499D01*
X82725156Y-46520500D01*
X82725158Y-46520500D01*
X82882844Y-46520500D01*
X82882845Y-46520499D01*
X83037497Y-46489737D01*
X83183179Y-46429394D01*
X83314289Y-46341789D01*
X83321792Y-46334286D01*
X83372879Y-46283200D01*
X83425786Y-46230292D01*
X83425789Y-46230289D01*
X83513394Y-46099179D01*
X83573737Y-45953497D01*
X83604500Y-45798842D01*
X83604500Y-45641158D01*
X83604500Y-45641155D01*
X83604499Y-45641153D01*
X83592393Y-45580293D01*
X83573737Y-45486503D01*
X83571087Y-45480105D01*
X83513397Y-45340827D01*
X83513390Y-45340814D01*
X83425789Y-45209711D01*
X83425786Y-45209707D01*
X83314292Y-45098213D01*
X83314288Y-45098210D01*
X83183185Y-45010609D01*
X83183172Y-45010602D01*
X83037501Y-44950264D01*
X83037489Y-44950261D01*
X82882845Y-44919500D01*
X82882842Y-44919500D01*
X82725158Y-44919500D01*
X82725155Y-44919500D01*
X82570510Y-44950261D01*
X82570498Y-44950264D01*
X82424827Y-45010602D01*
X82424814Y-45010609D01*
X82293711Y-45098210D01*
X82293707Y-45098213D01*
X82182213Y-45209707D01*
X82182210Y-45209711D01*
X82094609Y-45340814D01*
X82094602Y-45340827D01*
X82034264Y-45486498D01*
X82034261Y-45486510D01*
X82003500Y-45641153D01*
X81068400Y-45641153D01*
X81040109Y-45602213D01*
X80889786Y-45451890D01*
X80717820Y-45326951D01*
X80709600Y-45322763D01*
X80709054Y-45322485D01*
X80658259Y-45274512D01*
X80641463Y-45206692D01*
X80663999Y-45140556D01*
X80709054Y-45101515D01*
X80717816Y-45097051D01*
X80750397Y-45073380D01*
X80889786Y-44972109D01*
X80889788Y-44972106D01*
X80889792Y-44972104D01*
X81040104Y-44821792D01*
X81040106Y-44821788D01*
X81040109Y-44821786D01*
X81165048Y-44649820D01*
X81165047Y-44649820D01*
X81165051Y-44649816D01*
X81261557Y-44460412D01*
X81327246Y-44258243D01*
X81360500Y-44048287D01*
X81360500Y-43835713D01*
X81327246Y-43625757D01*
X81261557Y-43423588D01*
X81165051Y-43234184D01*
X81165049Y-43234181D01*
X81165048Y-43234179D01*
X81040109Y-43062213D01*
X80889786Y-42911890D01*
X80717820Y-42786951D01*
X80717115Y-42786591D01*
X80709054Y-42782485D01*
X80658259Y-42734512D01*
X80641463Y-42666692D01*
X80663999Y-42600556D01*
X80709054Y-42561515D01*
X80717816Y-42557051D01*
X80739789Y-42541086D01*
X80889786Y-42432109D01*
X80889788Y-42432106D01*
X80889792Y-42432104D01*
X81040104Y-42281792D01*
X81040106Y-42281788D01*
X81040109Y-42281786D01*
X81165048Y-42109820D01*
X81165047Y-42109820D01*
X81165051Y-42109816D01*
X81261557Y-41920412D01*
X81327246Y-41718243D01*
X81360500Y-41508287D01*
X81360500Y-41295713D01*
X81327246Y-41085757D01*
X81261557Y-40883588D01*
X81165051Y-40694184D01*
X81145639Y-40667466D01*
X81145639Y-40667464D01*
X81096223Y-40599448D01*
X82167500Y-40599448D01*
X82167500Y-41780551D01*
X82195829Y-41959410D01*
X82251787Y-42131636D01*
X82251788Y-42131639D01*
X82307664Y-42241300D01*
X82328296Y-42281792D01*
X82334006Y-42292997D01*
X82440441Y-42439494D01*
X82440445Y-42439499D01*
X82568500Y-42567554D01*
X82568505Y-42567558D01*
X82686874Y-42653557D01*
X82715006Y-42673996D01*
X82820484Y-42727740D01*
X82876360Y-42756211D01*
X82876363Y-42756212D01*
X82957222Y-42782484D01*
X83048591Y-42812171D01*
X83131429Y-42825291D01*
X83227449Y-42840500D01*
X83227454Y-42840500D01*
X83408551Y-42840500D01*
X83495259Y-42826765D01*
X83587409Y-42812171D01*
X83635180Y-42796648D01*
X83663300Y-42795844D01*
X83691147Y-42791841D01*
X83697756Y-42794859D01*
X83705020Y-42794652D01*
X83729111Y-42809178D01*
X83754703Y-42820866D01*
X83758631Y-42826978D01*
X83764854Y-42830731D01*
X83777266Y-42855975D01*
X83792477Y-42879644D01*
X83793953Y-42889915D01*
X83795683Y-42893432D01*
X83797500Y-42914579D01*
X83797500Y-42929064D01*
X83777815Y-42996103D01*
X83776603Y-42997954D01*
X83738608Y-43054817D01*
X83738602Y-43054828D01*
X83678264Y-43200498D01*
X83678261Y-43200510D01*
X83647500Y-43355153D01*
X83647500Y-43512846D01*
X83678261Y-43667489D01*
X83678264Y-43667501D01*
X83738602Y-43813172D01*
X83738609Y-43813185D01*
X83826210Y-43944288D01*
X83826213Y-43944292D01*
X83937707Y-44055786D01*
X83937711Y-44055789D01*
X84068814Y-44143390D01*
X84068827Y-44143397D01*
X84200633Y-44197992D01*
X84214503Y-44203737D01*
X84369153Y-44234499D01*
X84369156Y-44234500D01*
X84369158Y-44234500D01*
X84526844Y-44234500D01*
X84526845Y-44234499D01*
X84681497Y-44203737D01*
X84827179Y-44143394D01*
X84958289Y-44055789D01*
X85069789Y-43944289D01*
X85157394Y-43813179D01*
X85217737Y-43667497D01*
X85248500Y-43512842D01*
X85248500Y-43355158D01*
X85248500Y-43355155D01*
X85248499Y-43355153D01*
X85236524Y-43294951D01*
X85217737Y-43200503D01*
X85193913Y-43142987D01*
X85157397Y-43054828D01*
X85157396Y-43054827D01*
X85157394Y-43054821D01*
X85119396Y-42997953D01*
X85113746Y-42979907D01*
X85103523Y-42963999D01*
X85099071Y-42933036D01*
X85098520Y-42931276D01*
X85098500Y-42929064D01*
X85098500Y-42911438D01*
X85118185Y-42844399D01*
X85123147Y-42837242D01*
X85123660Y-42836556D01*
X85150289Y-42816580D01*
X85170989Y-42798644D01*
X85174960Y-42798073D01*
X85179547Y-42794632D01*
X85218586Y-42791800D01*
X85240147Y-42788700D01*
X85243049Y-42790025D01*
X85249234Y-42789577D01*
X85286406Y-42809825D01*
X85303703Y-42817725D01*
X85305208Y-42820068D01*
X85310591Y-42823000D01*
X85322266Y-42836459D01*
X85322342Y-42836560D01*
X85378738Y-42911896D01*
X85390452Y-42927543D01*
X85390455Y-42927547D01*
X85397788Y-42933036D01*
X85448311Y-42970858D01*
X85490182Y-43026789D01*
X85497972Y-43069972D01*
X85498000Y-43070000D01*
X85545828Y-43070000D01*
X85545839Y-43069999D01*
X85607395Y-43063380D01*
X85633909Y-43063380D01*
X85640514Y-43064090D01*
X85640517Y-43064091D01*
X85700127Y-43070500D01*
X85904551Y-43070499D01*
X85971590Y-43090183D01*
X86017345Y-43142987D01*
X86028309Y-43202240D01*
X86027534Y-43214618D01*
X86013499Y-43267000D01*
X86013499Y-43425114D01*
X86013500Y-43425117D01*
X86013500Y-43438988D01*
X86013500Y-43870234D01*
X85993815Y-43937273D01*
X85992602Y-43939125D01*
X85904609Y-44070814D01*
X85904602Y-44070827D01*
X85844264Y-44216498D01*
X85844261Y-44216510D01*
X85813500Y-44371153D01*
X85813500Y-44528846D01*
X85844261Y-44683489D01*
X85844264Y-44683501D01*
X85904602Y-44829172D01*
X85904609Y-44829185D01*
X85992210Y-44960288D01*
X85992213Y-44960292D01*
X86103707Y-45071786D01*
X86103711Y-45071789D01*
X86234814Y-45159390D01*
X86234827Y-45159397D01*
X86356288Y-45209707D01*
X86380503Y-45219737D01*
X86535153Y-45250499D01*
X86535156Y-45250500D01*
X86535158Y-45250500D01*
X86692844Y-45250500D01*
X86692845Y-45250499D01*
X86847497Y-45219737D01*
X86993179Y-45159394D01*
X87050044Y-45121397D01*
X87116721Y-45100520D01*
X87118935Y-45100500D01*
X87344725Y-45100500D01*
X87429269Y-45083682D01*
X87470398Y-45075501D01*
X87588781Y-45026465D01*
X87607757Y-45013785D01*
X87614055Y-45009578D01*
X87662955Y-44976904D01*
X87695323Y-44955277D01*
X88452608Y-44197990D01*
X88513929Y-44164507D01*
X88583620Y-44169491D01*
X88587713Y-44171101D01*
X88666503Y-44203737D01*
X88821153Y-44234499D01*
X88821156Y-44234500D01*
X88821158Y-44234500D01*
X88978844Y-44234500D01*
X88978845Y-44234499D01*
X89133497Y-44203737D01*
X89279179Y-44143394D01*
X89410289Y-44055789D01*
X89521789Y-43944289D01*
X89609394Y-43813179D01*
X89669737Y-43667497D01*
X89700500Y-43512842D01*
X89700500Y-43355158D01*
X89700500Y-43355155D01*
X89700499Y-43355153D01*
X89673256Y-43218191D01*
X89679483Y-43148600D01*
X89708334Y-43105191D01*
X89835461Y-42981314D01*
X89840375Y-42978712D01*
X89847686Y-42970859D01*
X89905546Y-42927546D01*
X89973734Y-42836457D01*
X89994889Y-42820621D01*
X90013579Y-42801934D01*
X90022423Y-42800010D01*
X90029667Y-42794588D01*
X90056024Y-42792702D01*
X90081853Y-42787086D01*
X90090332Y-42790249D01*
X90099358Y-42789604D01*
X90122551Y-42802268D01*
X90147316Y-42811507D01*
X90156750Y-42820942D01*
X90160681Y-42823089D01*
X90172271Y-42836465D01*
X90172771Y-42837133D01*
X90197185Y-42902599D01*
X90197500Y-42911438D01*
X90197500Y-43099064D01*
X90177815Y-43166103D01*
X90176603Y-43167954D01*
X90138608Y-43224817D01*
X90138602Y-43224828D01*
X90078264Y-43370498D01*
X90078261Y-43370510D01*
X90047500Y-43525153D01*
X90047500Y-43682846D01*
X90078261Y-43837489D01*
X90078264Y-43837501D01*
X90138602Y-43983172D01*
X90138609Y-43983185D01*
X90226210Y-44114288D01*
X90226213Y-44114292D01*
X90337707Y-44225786D01*
X90337711Y-44225789D01*
X90468814Y-44313390D01*
X90468827Y-44313397D01*
X90614498Y-44373735D01*
X90614503Y-44373737D01*
X90769153Y-44404499D01*
X90769156Y-44404500D01*
X90769158Y-44404500D01*
X90926844Y-44404500D01*
X90926845Y-44404499D01*
X91081497Y-44373737D01*
X91227179Y-44313394D01*
X91358289Y-44225789D01*
X91469789Y-44114289D01*
X91557394Y-43983179D01*
X91617737Y-43837497D01*
X91648500Y-43682842D01*
X91648500Y-43525158D01*
X91648500Y-43525155D01*
X91648499Y-43525153D01*
X91646050Y-43512842D01*
X91617737Y-43370503D01*
X91557394Y-43224821D01*
X91519396Y-43167953D01*
X91513746Y-43149907D01*
X91503523Y-43133999D01*
X91499071Y-43103036D01*
X91498520Y-43101276D01*
X91498500Y-43099064D01*
X91498500Y-42914580D01*
X91518185Y-42847541D01*
X91570989Y-42801786D01*
X91640147Y-42791842D01*
X91660819Y-42796649D01*
X91708590Y-42812171D01*
X91887449Y-42840500D01*
X91887454Y-42840500D01*
X92068551Y-42840500D01*
X92155259Y-42826765D01*
X92247409Y-42812171D01*
X92419639Y-42756211D01*
X92580994Y-42673996D01*
X92727501Y-42567553D01*
X92855553Y-42439501D01*
X92961996Y-42292994D01*
X93044211Y-42131639D01*
X93100171Y-41959409D01*
X93114765Y-41867259D01*
X93128500Y-41780551D01*
X93128500Y-40599448D01*
X93106019Y-40457515D01*
X93100171Y-40420591D01*
X93064935Y-40312145D01*
X93044212Y-40248363D01*
X93044211Y-40248360D01*
X93003013Y-40167506D01*
X92961996Y-40087006D01*
X92893895Y-39993272D01*
X92855558Y-39940505D01*
X92855554Y-39940500D01*
X92727499Y-39812445D01*
X92727494Y-39812441D01*
X92580997Y-39706006D01*
X92580996Y-39706005D01*
X92580994Y-39706004D01*
X92515239Y-39672500D01*
X92419639Y-39623788D01*
X92419636Y-39623787D01*
X92247410Y-39567829D01*
X92068551Y-39539500D01*
X92068546Y-39539500D01*
X91887454Y-39539500D01*
X91887449Y-39539500D01*
X91708589Y-39567829D01*
X91536363Y-39623787D01*
X91536360Y-39623788D01*
X91375002Y-39706006D01*
X91228505Y-39812441D01*
X91228500Y-39812445D01*
X91100445Y-39940500D01*
X91100441Y-39940505D01*
X90994005Y-40087002D01*
X90970408Y-40133314D01*
X90922433Y-40184109D01*
X90854611Y-40200903D01*
X90797924Y-40184404D01*
X90750488Y-40157017D01*
X90750489Y-40157017D01*
X90700192Y-40143540D01*
X90610475Y-40119500D01*
X90465525Y-40119500D01*
X90375808Y-40143540D01*
X90325511Y-40157017D01*
X90199988Y-40229488D01*
X90199982Y-40229493D01*
X90097493Y-40331982D01*
X90097488Y-40331988D01*
X90025017Y-40457511D01*
X90025016Y-40457515D01*
X90007680Y-40522215D01*
X89992707Y-40578094D01*
X89979364Y-40599982D01*
X89969590Y-40623673D01*
X89961484Y-40629317D01*
X89956342Y-40637754D01*
X89933285Y-40648953D01*
X89912253Y-40663600D01*
X89898539Y-40665832D01*
X89893494Y-40668283D01*
X89877528Y-40669915D01*
X89679938Y-40677244D01*
X89677475Y-40676619D01*
X89662088Y-40676619D01*
X89652818Y-40675622D01*
X89595873Y-40669500D01*
X89595865Y-40669500D01*
X89200130Y-40669500D01*
X89200119Y-40669501D01*
X89161253Y-40673679D01*
X89134748Y-40673679D01*
X89095874Y-40669500D01*
X88700130Y-40669500D01*
X88700119Y-40669501D01*
X88661253Y-40673679D01*
X88634748Y-40673679D01*
X88595874Y-40669500D01*
X88200130Y-40669500D01*
X88200119Y-40669501D01*
X88161253Y-40673679D01*
X88134748Y-40673679D01*
X88095874Y-40669500D01*
X87700130Y-40669500D01*
X87700119Y-40669501D01*
X87661253Y-40673679D01*
X87634748Y-40673679D01*
X87595874Y-40669500D01*
X87200130Y-40669500D01*
X87200119Y-40669501D01*
X87161253Y-40673679D01*
X87134748Y-40673679D01*
X87095874Y-40669500D01*
X86700130Y-40669500D01*
X86700119Y-40669501D01*
X86661253Y-40673679D01*
X86634748Y-40673679D01*
X86595874Y-40669500D01*
X86200130Y-40669500D01*
X86200119Y-40669501D01*
X86161253Y-40673679D01*
X86134748Y-40673679D01*
X86095874Y-40669500D01*
X85700129Y-40669500D01*
X85700125Y-40669501D01*
X85652160Y-40674657D01*
X85640517Y-40675909D01*
X85640516Y-40675909D01*
X85633904Y-40676620D01*
X85616053Y-40677245D01*
X85418471Y-40669915D01*
X85387424Y-40659533D01*
X85356029Y-40650315D01*
X85354468Y-40648514D01*
X85352207Y-40647758D01*
X85331694Y-40622231D01*
X85310274Y-40597511D01*
X85309014Y-40594007D01*
X85308441Y-40593294D01*
X85308308Y-40592043D01*
X85303293Y-40578094D01*
X85270984Y-40457515D01*
X85222184Y-40372992D01*
X85198511Y-40331988D01*
X85198506Y-40331982D01*
X85096017Y-40229493D01*
X85096011Y-40229488D01*
X84970488Y-40157017D01*
X84970489Y-40157017D01*
X84920192Y-40143540D01*
X84830475Y-40119500D01*
X84685525Y-40119500D01*
X84545515Y-40157016D01*
X84545514Y-40157016D01*
X84545512Y-40157017D01*
X84498074Y-40184405D01*
X84430173Y-40200876D01*
X84364147Y-40178024D01*
X84325590Y-40133312D01*
X84301996Y-40087006D01*
X84233895Y-39993272D01*
X84195558Y-39940505D01*
X84195554Y-39940500D01*
X84067499Y-39812445D01*
X84067494Y-39812441D01*
X83920997Y-39706006D01*
X83920996Y-39706005D01*
X83920994Y-39706004D01*
X83855239Y-39672500D01*
X83759639Y-39623788D01*
X83759636Y-39623787D01*
X83587410Y-39567829D01*
X83408551Y-39539500D01*
X83408546Y-39539500D01*
X83227454Y-39539500D01*
X83227449Y-39539500D01*
X83048589Y-39567829D01*
X82876363Y-39623787D01*
X82876360Y-39623788D01*
X82715002Y-39706006D01*
X82568505Y-39812441D01*
X82568500Y-39812445D01*
X82440445Y-39940500D01*
X82440441Y-39940505D01*
X82334006Y-40087002D01*
X82251788Y-40248360D01*
X82251787Y-40248363D01*
X82195829Y-40420589D01*
X82167500Y-40599448D01*
X81096223Y-40599448D01*
X81040109Y-40522214D01*
X81040105Y-40522209D01*
X80926569Y-40408673D01*
X80893084Y-40347350D01*
X80898068Y-40277658D01*
X80939940Y-40221725D01*
X80970915Y-40204810D01*
X81102331Y-40155796D01*
X81217546Y-40069546D01*
X81303796Y-39954331D01*
X81354091Y-39819483D01*
X81360500Y-39759873D01*
X81360499Y-37964128D01*
X81354091Y-37904517D01*
X81354088Y-37904510D01*
X81303797Y-37769671D01*
X81303793Y-37769664D01*
X81217547Y-37654455D01*
X81217544Y-37654452D01*
X81102335Y-37568206D01*
X81102328Y-37568202D01*
X80967482Y-37517908D01*
X80967483Y-37517908D01*
X80907883Y-37511501D01*
X80907881Y-37511500D01*
X80907873Y-37511500D01*
X80907864Y-37511500D01*
X79112129Y-37511500D01*
X79112123Y-37511501D01*
X79052516Y-37517908D01*
X78917671Y-37568202D01*
X78917664Y-37568206D01*
X78802455Y-37654452D01*
X78802452Y-37654455D01*
X78716206Y-37769664D01*
X78716202Y-37769671D01*
X78665908Y-37904517D01*
X78659501Y-37964116D01*
X78659501Y-37964123D01*
X78659500Y-37964135D01*
X34282500Y-37964135D01*
X34282500Y-36499448D01*
X82167500Y-36499448D01*
X82167500Y-37480551D01*
X82195829Y-37659410D01*
X82251787Y-37831636D01*
X82251788Y-37831639D01*
X82288919Y-37904510D01*
X82319296Y-37964129D01*
X82334006Y-37992997D01*
X82440441Y-38139494D01*
X82440445Y-38139499D01*
X82568500Y-38267554D01*
X82568505Y-38267558D01*
X82696287Y-38360396D01*
X82715006Y-38373996D01*
X82820484Y-38427740D01*
X82876360Y-38456211D01*
X82876363Y-38456212D01*
X82962476Y-38484191D01*
X83048591Y-38512171D01*
X83131429Y-38525291D01*
X83227449Y-38540500D01*
X83227454Y-38540500D01*
X83408551Y-38540500D01*
X83495259Y-38526765D01*
X83587409Y-38512171D01*
X83759639Y-38456211D01*
X83920994Y-38373996D01*
X84067501Y-38267553D01*
X84195553Y-38139501D01*
X84301996Y-37992994D01*
X84384211Y-37831639D01*
X84405569Y-37765902D01*
X84445005Y-37708229D01*
X84509363Y-37681029D01*
X84578210Y-37692943D01*
X84629686Y-37740186D01*
X84647500Y-37804221D01*
X84647500Y-38428028D01*
X84647501Y-38428034D01*
X84658113Y-38547415D01*
X84714089Y-38743045D01*
X84714090Y-38743048D01*
X84714091Y-38743049D01*
X84808302Y-38923407D01*
X84808304Y-38923409D01*
X84936890Y-39081109D01*
X85030803Y-39157684D01*
X85094593Y-39209698D01*
X85274951Y-39303909D01*
X85470582Y-39359886D01*
X85589963Y-39370500D01*
X89706036Y-39370499D01*
X89825418Y-39359886D01*
X90021049Y-39303909D01*
X90201407Y-39209698D01*
X90359109Y-39081109D01*
X90487698Y-38923407D01*
X90581909Y-38743049D01*
X90637886Y-38547418D01*
X90648500Y-38428037D01*
X90648499Y-37804219D01*
X90668183Y-37737183D01*
X90720987Y-37691428D01*
X90790146Y-37681484D01*
X90853702Y-37710509D01*
X90890430Y-37765904D01*
X90911787Y-37831636D01*
X90911788Y-37831639D01*
X90948919Y-37904510D01*
X90979296Y-37964129D01*
X90994006Y-37992997D01*
X91100441Y-38139494D01*
X91100445Y-38139499D01*
X91228500Y-38267554D01*
X91228505Y-38267558D01*
X91356287Y-38360396D01*
X91375006Y-38373996D01*
X91480484Y-38427740D01*
X91536360Y-38456211D01*
X91536363Y-38456212D01*
X91622476Y-38484191D01*
X91708591Y-38512171D01*
X91791429Y-38525291D01*
X91887449Y-38540500D01*
X91887454Y-38540500D01*
X92068551Y-38540500D01*
X92155259Y-38526765D01*
X92247409Y-38512171D01*
X92419639Y-38456211D01*
X92580994Y-38373996D01*
X92727501Y-38267553D01*
X92855553Y-38139501D01*
X92961996Y-37992994D01*
X92976701Y-37964135D01*
X93899500Y-37964135D01*
X93899500Y-39759870D01*
X93899501Y-39759876D01*
X93905908Y-39819483D01*
X93956202Y-39954328D01*
X93956206Y-39954335D01*
X94042452Y-40069544D01*
X94042455Y-40069547D01*
X94157664Y-40155793D01*
X94157671Y-40155797D01*
X94289082Y-40204810D01*
X94345016Y-40246681D01*
X94369433Y-40312145D01*
X94354582Y-40380418D01*
X94333431Y-40408673D01*
X94219889Y-40522215D01*
X94094951Y-40694179D01*
X93998444Y-40883585D01*
X93932753Y-41085760D01*
X93926993Y-41122128D01*
X93899500Y-41295713D01*
X93899500Y-41508287D01*
X93932754Y-41718243D01*
X93952999Y-41780551D01*
X93998444Y-41920414D01*
X94094951Y-42109820D01*
X94219890Y-42281786D01*
X94370213Y-42432109D01*
X94542182Y-42557050D01*
X94550946Y-42561516D01*
X94601742Y-42609491D01*
X94618536Y-42677312D01*
X94595998Y-42743447D01*
X94550946Y-42782484D01*
X94542182Y-42786949D01*
X94370213Y-42911890D01*
X94219890Y-43062213D01*
X94094951Y-43234179D01*
X93998444Y-43423585D01*
X93932753Y-43625760D01*
X93899500Y-43835713D01*
X93899500Y-44048286D01*
X93927613Y-44225789D01*
X93932754Y-44258243D01*
X93970280Y-44373737D01*
X93998444Y-44460414D01*
X94094951Y-44649820D01*
X94219890Y-44821786D01*
X94370213Y-44972109D01*
X94542179Y-45097048D01*
X94542181Y-45097049D01*
X94542184Y-45097051D01*
X94551493Y-45101794D01*
X94602290Y-45149766D01*
X94619087Y-45217587D01*
X94596552Y-45283722D01*
X94551505Y-45322760D01*
X94542446Y-45327376D01*
X94542440Y-45327380D01*
X94488282Y-45366727D01*
X94488282Y-45366728D01*
X95120591Y-45999037D01*
X95057007Y-46016075D01*
X94942993Y-46081901D01*
X94849901Y-46174993D01*
X94784075Y-46289007D01*
X94767037Y-46352591D01*
X94134728Y-45720282D01*
X94134727Y-45720282D01*
X94095380Y-45774439D01*
X93998904Y-45963782D01*
X93933242Y-46165869D01*
X93933242Y-46165872D01*
X93900000Y-46375753D01*
X93900000Y-46588246D01*
X93933242Y-46798127D01*
X93933242Y-46798130D01*
X93998904Y-47000217D01*
X94095375Y-47189550D01*
X94134728Y-47243716D01*
X94767037Y-46611408D01*
X94784075Y-46674993D01*
X94849901Y-46789007D01*
X94942993Y-46882099D01*
X95057007Y-46947925D01*
X95120590Y-46964962D01*
X94488282Y-47597269D01*
X94488282Y-47597270D01*
X94542452Y-47636626D01*
X94542451Y-47636626D01*
X94551495Y-47641234D01*
X94602292Y-47689208D01*
X94619087Y-47757029D01*
X94596550Y-47823164D01*
X94551499Y-47862202D01*
X94542182Y-47866949D01*
X94370213Y-47991890D01*
X94219890Y-48142213D01*
X94094951Y-48314179D01*
X93998444Y-48503585D01*
X93932753Y-48705760D01*
X93899500Y-48915713D01*
X93899500Y-49128287D01*
X93900367Y-49133760D01*
X93924165Y-49284018D01*
X93932754Y-49338243D01*
X93948530Y-49386797D01*
X93998444Y-49540414D01*
X94094951Y-49729820D01*
X94219890Y-49901786D01*
X94370213Y-50052109D01*
X94542182Y-50177050D01*
X94550946Y-50181516D01*
X94601742Y-50229491D01*
X94618536Y-50297312D01*
X94595998Y-50363447D01*
X94550946Y-50402484D01*
X94542182Y-50406949D01*
X94370213Y-50531890D01*
X94219890Y-50682213D01*
X94094951Y-50854179D01*
X93998444Y-51043585D01*
X93932753Y-51245760D01*
X93899500Y-51455713D01*
X93899500Y-51668286D01*
X93932753Y-51878239D01*
X93998444Y-52080414D01*
X94094951Y-52269820D01*
X94219890Y-52441786D01*
X94370213Y-52592109D01*
X94542182Y-52717050D01*
X94550946Y-52721516D01*
X94601742Y-52769491D01*
X94618536Y-52837312D01*
X94595998Y-52903447D01*
X94550946Y-52942484D01*
X94542182Y-52946949D01*
X94370213Y-53071890D01*
X94219890Y-53222213D01*
X94094951Y-53394179D01*
X93998444Y-53583585D01*
X93932753Y-53785760D01*
X93910596Y-53925657D01*
X93899500Y-53995713D01*
X93899500Y-54208287D01*
X93932754Y-54418243D01*
X93963693Y-54513464D01*
X93998444Y-54620414D01*
X94094951Y-54809820D01*
X94219890Y-54981786D01*
X94370213Y-55132109D01*
X94542182Y-55257050D01*
X94550946Y-55261516D01*
X94601742Y-55309491D01*
X94618536Y-55377312D01*
X94595998Y-55443447D01*
X94550946Y-55482484D01*
X94542182Y-55486949D01*
X94370213Y-55611890D01*
X94219890Y-55762213D01*
X94094951Y-55934179D01*
X93998444Y-56123585D01*
X93932753Y-56325760D01*
X93899500Y-56535713D01*
X93899500Y-56748286D01*
X93924544Y-56906412D01*
X93932754Y-56958243D01*
X93979708Y-57102753D01*
X93998444Y-57160414D01*
X94094951Y-57349820D01*
X94219890Y-57521786D01*
X94370213Y-57672109D01*
X94542182Y-57797050D01*
X94550946Y-57801516D01*
X94601742Y-57849491D01*
X94618536Y-57917312D01*
X94595998Y-57983447D01*
X94550946Y-58022484D01*
X94542182Y-58026949D01*
X94370213Y-58151890D01*
X94219890Y-58302213D01*
X94094951Y-58474179D01*
X93998444Y-58663585D01*
X93998443Y-58663587D01*
X93998443Y-58663588D01*
X93997574Y-58666263D01*
X93932753Y-58865760D01*
X93899500Y-59075713D01*
X93899500Y-59288286D01*
X93925129Y-59450105D01*
X93932754Y-59498243D01*
X93989067Y-59671557D01*
X93998444Y-59700414D01*
X94094951Y-59889820D01*
X94219890Y-60061786D01*
X94370213Y-60212109D01*
X94542182Y-60337050D01*
X94550946Y-60341516D01*
X94601742Y-60389491D01*
X94618536Y-60457312D01*
X94595998Y-60523447D01*
X94550946Y-60562484D01*
X94542182Y-60566949D01*
X94370213Y-60691890D01*
X94219890Y-60842213D01*
X94094951Y-61014179D01*
X93998444Y-61203585D01*
X93932753Y-61405760D01*
X93899500Y-61615713D01*
X93899500Y-61828287D01*
X93932754Y-62038243D01*
X93990081Y-62214678D01*
X93998444Y-62240414D01*
X94094951Y-62429820D01*
X94219890Y-62601786D01*
X94370213Y-62752109D01*
X94542182Y-62877050D01*
X94550946Y-62881516D01*
X94601742Y-62929491D01*
X94618536Y-62997312D01*
X94595998Y-63063447D01*
X94550946Y-63102484D01*
X94542182Y-63106949D01*
X94370213Y-63231890D01*
X94219890Y-63382213D01*
X94094951Y-63554179D01*
X93998444Y-63743585D01*
X93932753Y-63945760D01*
X93899500Y-64155713D01*
X93899500Y-64368286D01*
X93931387Y-64569616D01*
X93932754Y-64578243D01*
X93981182Y-64727289D01*
X93998444Y-64780414D01*
X94094951Y-64969820D01*
X94219890Y-65141786D01*
X94370213Y-65292109D01*
X94542182Y-65417050D01*
X94550946Y-65421516D01*
X94601742Y-65469491D01*
X94618536Y-65537312D01*
X94595998Y-65603447D01*
X94550946Y-65642484D01*
X94542182Y-65646949D01*
X94370213Y-65771890D01*
X94219890Y-65922213D01*
X94094951Y-66094179D01*
X93998444Y-66283585D01*
X93932753Y-66485760D01*
X93899500Y-66695713D01*
X93899500Y-66908286D01*
X93931877Y-67112710D01*
X93932754Y-67118243D01*
X93982225Y-67270499D01*
X93998444Y-67320414D01*
X94094951Y-67509820D01*
X94219890Y-67681786D01*
X94370213Y-67832109D01*
X94542182Y-67957050D01*
X94550946Y-67961516D01*
X94601742Y-68009491D01*
X94618536Y-68077312D01*
X94595998Y-68143447D01*
X94550946Y-68182484D01*
X94542182Y-68186949D01*
X94370213Y-68311890D01*
X94219890Y-68462213D01*
X94094951Y-68634179D01*
X93998444Y-68823585D01*
X93932753Y-69025760D01*
X93899500Y-69235713D01*
X93899500Y-69448286D01*
X93922895Y-69596000D01*
X93932754Y-69658243D01*
X93990557Y-69836142D01*
X93998444Y-69860414D01*
X94094951Y-70049820D01*
X94219890Y-70221786D01*
X94370213Y-70372109D01*
X94542182Y-70497050D01*
X94550946Y-70501516D01*
X94601742Y-70549491D01*
X94618536Y-70617312D01*
X94595998Y-70683447D01*
X94550946Y-70722484D01*
X94542182Y-70726949D01*
X94370213Y-70851890D01*
X94219890Y-71002213D01*
X94094951Y-71174179D01*
X93998444Y-71363585D01*
X93932753Y-71565760D01*
X93908008Y-71721994D01*
X93899500Y-71775713D01*
X93899500Y-71988287D01*
X93932754Y-72198243D01*
X93995506Y-72391374D01*
X93998444Y-72400414D01*
X94094951Y-72589820D01*
X94219890Y-72761786D01*
X94370213Y-72912109D01*
X94542182Y-73037050D01*
X94550946Y-73041516D01*
X94601742Y-73089491D01*
X94618536Y-73157312D01*
X94595998Y-73223447D01*
X94550946Y-73262484D01*
X94542182Y-73266949D01*
X94370213Y-73391890D01*
X94219890Y-73542213D01*
X94094951Y-73714179D01*
X93998444Y-73903585D01*
X93932753Y-74105760D01*
X93899500Y-74315713D01*
X93899500Y-74528286D01*
X93932753Y-74738239D01*
X93998444Y-74940414D01*
X94094951Y-75129820D01*
X94219890Y-75301786D01*
X94370213Y-75452109D01*
X94542179Y-75577048D01*
X94542181Y-75577049D01*
X94542184Y-75577051D01*
X94731588Y-75673557D01*
X94933757Y-75739246D01*
X95143713Y-75772500D01*
X95143714Y-75772500D01*
X95356286Y-75772500D01*
X95356287Y-75772500D01*
X95566243Y-75739246D01*
X95768412Y-75673557D01*
X95957816Y-75577051D01*
X96008811Y-75540001D01*
X96129786Y-75452109D01*
X96129788Y-75452106D01*
X96129792Y-75452104D01*
X96280104Y-75301792D01*
X96280106Y-75301788D01*
X96280109Y-75301786D01*
X96405048Y-75129820D01*
X96405047Y-75129820D01*
X96405051Y-75129816D01*
X96501557Y-74940412D01*
X96567246Y-74738243D01*
X96600500Y-74528287D01*
X96600500Y-74315713D01*
X96567246Y-74105757D01*
X96501557Y-73903588D01*
X96405051Y-73714184D01*
X96405049Y-73714181D01*
X96405048Y-73714179D01*
X96280109Y-73542213D01*
X96129786Y-73391890D01*
X95957820Y-73266951D01*
X95957115Y-73266591D01*
X95949054Y-73262485D01*
X95898259Y-73214512D01*
X95881463Y-73146692D01*
X95903999Y-73080556D01*
X95949054Y-73041515D01*
X95957816Y-73037051D01*
X96082900Y-72946173D01*
X96129786Y-72912109D01*
X96129788Y-72912106D01*
X96129792Y-72912104D01*
X96280104Y-72761792D01*
X96280106Y-72761788D01*
X96280109Y-72761786D01*
X96405048Y-72589820D01*
X96405047Y-72589820D01*
X96405051Y-72589816D01*
X96501557Y-72400412D01*
X96539475Y-72283713D01*
X99591500Y-72283713D01*
X99591500Y-72496286D01*
X99623101Y-72695811D01*
X99624754Y-72706243D01*
X99669454Y-72843816D01*
X99690444Y-72908414D01*
X99786951Y-73097820D01*
X99911890Y-73269786D01*
X100050705Y-73408601D01*
X100084190Y-73469924D01*
X100079206Y-73539616D01*
X100037334Y-73595549D01*
X100028121Y-73601821D01*
X99873342Y-73697289D01*
X99749289Y-73821342D01*
X99657187Y-73970663D01*
X99657186Y-73970666D01*
X99602001Y-74137203D01*
X99602001Y-74137204D01*
X99602000Y-74137204D01*
X99591500Y-74239983D01*
X99591500Y-75540001D01*
X99591501Y-75540018D01*
X99602000Y-75642796D01*
X99602001Y-75642799D01*
X99633961Y-75739246D01*
X99657186Y-75809334D01*
X99749288Y-75958656D01*
X99873344Y-76082712D01*
X100022666Y-76174814D01*
X100189203Y-76229999D01*
X100291991Y-76240500D01*
X101892008Y-76240499D01*
X101994797Y-76229999D01*
X102161334Y-76174814D01*
X102310656Y-76082712D01*
X102434712Y-75958656D01*
X102526814Y-75809334D01*
X102581999Y-75642797D01*
X102592500Y-75540009D01*
X102592499Y-74239992D01*
X102581999Y-74137203D01*
X102526814Y-73970666D01*
X102434712Y-73821344D01*
X102310656Y-73697288D01*
X102161334Y-73605186D01*
X102161333Y-73605185D01*
X102155878Y-73601821D01*
X102109154Y-73549873D01*
X102097931Y-73480910D01*
X102125775Y-73416828D01*
X102133272Y-73408623D01*
X102272104Y-73269792D01*
X102397051Y-73097816D01*
X102493557Y-72908412D01*
X102559246Y-72706243D01*
X102592500Y-72496287D01*
X102592500Y-72283713D01*
X102559246Y-72073757D01*
X102493557Y-71871588D01*
X102397051Y-71682184D01*
X102397049Y-71682181D01*
X102397048Y-71682179D01*
X102272109Y-71510213D01*
X102121786Y-71359890D01*
X101949820Y-71234951D01*
X101760414Y-71138444D01*
X101760413Y-71138443D01*
X101760412Y-71138443D01*
X101558243Y-71072754D01*
X101558241Y-71072753D01*
X101558240Y-71072753D01*
X101396957Y-71047208D01*
X101348287Y-71039500D01*
X100835713Y-71039500D01*
X100787042Y-71047208D01*
X100625760Y-71072753D01*
X100423585Y-71138444D01*
X100234179Y-71234951D01*
X100062213Y-71359890D01*
X99911890Y-71510213D01*
X99786951Y-71682179D01*
X99690444Y-71871585D01*
X99624753Y-72073760D01*
X99591500Y-72283713D01*
X96539475Y-72283713D01*
X96567246Y-72198243D01*
X96600500Y-71988287D01*
X96600500Y-71775713D01*
X96567246Y-71565757D01*
X96501557Y-71363588D01*
X96405051Y-71174184D01*
X96405049Y-71174181D01*
X96405048Y-71174179D01*
X96280109Y-71002213D01*
X96129786Y-70851890D01*
X95957820Y-70726951D01*
X95957115Y-70726591D01*
X95949054Y-70722485D01*
X95898259Y-70674512D01*
X95881463Y-70606692D01*
X95903999Y-70540556D01*
X95949054Y-70501515D01*
X95957816Y-70497051D01*
X95987077Y-70475792D01*
X96129786Y-70372109D01*
X96129788Y-70372106D01*
X96129792Y-70372104D01*
X96280104Y-70221792D01*
X96280106Y-70221788D01*
X96280109Y-70221786D01*
X96405048Y-70049820D01*
X96405047Y-70049820D01*
X96405051Y-70049816D01*
X96501557Y-69860412D01*
X96567246Y-69658243D01*
X96600500Y-69448287D01*
X96600500Y-69235713D01*
X96567246Y-69025757D01*
X96501557Y-68823588D01*
X96405051Y-68634184D01*
X96405049Y-68634181D01*
X96405048Y-68634179D01*
X96280109Y-68462213D01*
X96129786Y-68311890D01*
X95957820Y-68186951D01*
X95957115Y-68186591D01*
X95949054Y-68182485D01*
X95898259Y-68134512D01*
X95881463Y-68066692D01*
X95903999Y-68000556D01*
X95949054Y-67961515D01*
X95957816Y-67957051D01*
X95987085Y-67935786D01*
X96129786Y-67832109D01*
X96129788Y-67832106D01*
X96129792Y-67832104D01*
X96280104Y-67681792D01*
X96280106Y-67681788D01*
X96280109Y-67681786D01*
X96405048Y-67509820D01*
X96405047Y-67509820D01*
X96405051Y-67509816D01*
X96501557Y-67320412D01*
X96567246Y-67118243D01*
X96600500Y-66908287D01*
X96600500Y-66695713D01*
X96567246Y-66485757D01*
X96501557Y-66283588D01*
X96405051Y-66094184D01*
X96405049Y-66094181D01*
X96405048Y-66094179D01*
X96280109Y-65922213D01*
X96129786Y-65771890D01*
X95957820Y-65646951D01*
X95957115Y-65646591D01*
X95949054Y-65642485D01*
X95898259Y-65594512D01*
X95881463Y-65526692D01*
X95903999Y-65460556D01*
X95949054Y-65421515D01*
X95957816Y-65417051D01*
X96051729Y-65348820D01*
X96129786Y-65292109D01*
X96129788Y-65292106D01*
X96129792Y-65292104D01*
X96280104Y-65141792D01*
X96280106Y-65141788D01*
X96280109Y-65141786D01*
X96405048Y-64969820D01*
X96405047Y-64969820D01*
X96405051Y-64969816D01*
X96501557Y-64780412D01*
X96567246Y-64578243D01*
X96600500Y-64368287D01*
X96600500Y-64155713D01*
X96567246Y-63945757D01*
X96501557Y-63743588D01*
X96405051Y-63554184D01*
X96405049Y-63554181D01*
X96405048Y-63554179D01*
X96280110Y-63382215D01*
X96280105Y-63382209D01*
X96129786Y-63231890D01*
X95957820Y-63106951D01*
X95956320Y-63106187D01*
X95949054Y-63102485D01*
X95898259Y-63054512D01*
X95881463Y-62986692D01*
X95903999Y-62920556D01*
X95949054Y-62881515D01*
X95957816Y-62877051D01*
X95987085Y-62855786D01*
X96129786Y-62752109D01*
X96129788Y-62752106D01*
X96129792Y-62752104D01*
X96280104Y-62601792D01*
X96280106Y-62601788D01*
X96280109Y-62601786D01*
X96405048Y-62429820D01*
X96405047Y-62429820D01*
X96405051Y-62429816D01*
X96501557Y-62240412D01*
X96567246Y-62038243D01*
X96600500Y-61828287D01*
X96600500Y-61615713D01*
X96567246Y-61405757D01*
X96501557Y-61203588D01*
X96405051Y-61014184D01*
X96405049Y-61014181D01*
X96405048Y-61014179D01*
X96280109Y-60842213D01*
X96129786Y-60691890D01*
X95957820Y-60566951D01*
X95957115Y-60566591D01*
X95949054Y-60562485D01*
X95898259Y-60514512D01*
X95881463Y-60446692D01*
X95903999Y-60380556D01*
X95949054Y-60341515D01*
X95957816Y-60337051D01*
X96096214Y-60236500D01*
X96129786Y-60212109D01*
X96129788Y-60212106D01*
X96129792Y-60212104D01*
X96280104Y-60061792D01*
X96280106Y-60061788D01*
X96280109Y-60061786D01*
X96405048Y-59889820D01*
X96405047Y-59889820D01*
X96405051Y-59889816D01*
X96501557Y-59700412D01*
X96567246Y-59498243D01*
X96600500Y-59288287D01*
X96600500Y-59075713D01*
X96567246Y-58865757D01*
X96501557Y-58663588D01*
X96405051Y-58474184D01*
X96337877Y-58381726D01*
X96337876Y-58381723D01*
X96288464Y-58313713D01*
X99602500Y-58313713D01*
X99602500Y-58526286D01*
X99634477Y-58728184D01*
X99635754Y-58736243D01*
X99697316Y-58925711D01*
X99701444Y-58938414D01*
X99797951Y-59127820D01*
X99922890Y-59299786D01*
X100073209Y-59450105D01*
X100073214Y-59450109D01*
X100238218Y-59569991D01*
X100280884Y-59625320D01*
X100286863Y-59694934D01*
X100254258Y-59756729D01*
X100238218Y-59770627D01*
X100073540Y-59890272D01*
X100073535Y-59890276D01*
X99923276Y-60040535D01*
X99923272Y-60040540D01*
X99798379Y-60212442D01*
X99701904Y-60401782D01*
X99636242Y-60603870D01*
X99636242Y-60603873D01*
X99625769Y-60670000D01*
X100673854Y-60670000D01*
X100635370Y-60736657D01*
X100603000Y-60857465D01*
X100603000Y-60982535D01*
X100635370Y-61103343D01*
X100673854Y-61170000D01*
X99625769Y-61170000D01*
X99636242Y-61236126D01*
X99636242Y-61236129D01*
X99701904Y-61438217D01*
X99798379Y-61627557D01*
X99923272Y-61799459D01*
X99923276Y-61799464D01*
X100073535Y-61949723D01*
X100073540Y-61949727D01*
X100238218Y-62069372D01*
X100280884Y-62124701D01*
X100286863Y-62194315D01*
X100254258Y-62256110D01*
X100238218Y-62270008D01*
X100073214Y-62389890D01*
X100073209Y-62389894D01*
X99922890Y-62540213D01*
X99797951Y-62712179D01*
X99701444Y-62901585D01*
X99635753Y-63103760D01*
X99614065Y-63240692D01*
X99602500Y-63313713D01*
X99602500Y-63526287D01*
X99612534Y-63589644D01*
X99633951Y-63724863D01*
X99635754Y-63736243D01*
X99680055Y-63872588D01*
X99701444Y-63938414D01*
X99797951Y-64127820D01*
X99922890Y-64299786D01*
X100061705Y-64438601D01*
X100095190Y-64499924D01*
X100090206Y-64569616D01*
X100048334Y-64625549D01*
X100039121Y-64631821D01*
X99884342Y-64727289D01*
X99760289Y-64851342D01*
X99668187Y-65000663D01*
X99668185Y-65000668D01*
X99657003Y-65034414D01*
X99613001Y-65167203D01*
X99613001Y-65167204D01*
X99613000Y-65167204D01*
X99602500Y-65269983D01*
X99602500Y-66570001D01*
X99602501Y-66570018D01*
X99613000Y-66672796D01*
X99613001Y-66672799D01*
X99635189Y-66739757D01*
X99668186Y-66839334D01*
X99760288Y-66988656D01*
X99884344Y-67112712D01*
X100033666Y-67204814D01*
X100200203Y-67259999D01*
X100302991Y-67270500D01*
X101853008Y-67270499D01*
X101955797Y-67259999D01*
X102122334Y-67204814D01*
X102271656Y-67112712D01*
X102395712Y-66988656D01*
X102487814Y-66839334D01*
X102542999Y-66672797D01*
X102553500Y-66570009D01*
X102553499Y-65269992D01*
X102548782Y-65223820D01*
X102542999Y-65167203D01*
X102542998Y-65167200D01*
X102534577Y-65141786D01*
X102487814Y-65000666D01*
X102395712Y-64851344D01*
X102271656Y-64727288D01*
X102122334Y-64635186D01*
X102122333Y-64635185D01*
X102116878Y-64631821D01*
X102070154Y-64579873D01*
X102058931Y-64510910D01*
X102086775Y-64446828D01*
X102094272Y-64438623D01*
X102233104Y-64299792D01*
X102244060Y-64284713D01*
X102358048Y-64127820D01*
X102358047Y-64127820D01*
X102358051Y-64127816D01*
X102454557Y-63938412D01*
X102520246Y-63736243D01*
X102553500Y-63526287D01*
X102553500Y-63313713D01*
X102520246Y-63103757D01*
X102454557Y-62901588D01*
X102358051Y-62712184D01*
X102358049Y-62712181D01*
X102358048Y-62712179D01*
X102233109Y-62540213D01*
X102082790Y-62389894D01*
X102082785Y-62389890D01*
X101917781Y-62270008D01*
X101875115Y-62214678D01*
X101869136Y-62145065D01*
X101901741Y-62083270D01*
X101917781Y-62069371D01*
X102082466Y-61949721D01*
X102232723Y-61799464D01*
X102232727Y-61799459D01*
X102357620Y-61627557D01*
X102454095Y-61438217D01*
X102519757Y-61236129D01*
X102519757Y-61236126D01*
X102530231Y-61170000D01*
X101482146Y-61170000D01*
X101520630Y-61103343D01*
X101553000Y-60982535D01*
X101553000Y-60857465D01*
X101520630Y-60736657D01*
X101482146Y-60670000D01*
X102530231Y-60670000D01*
X102519757Y-60603873D01*
X102519757Y-60603870D01*
X102454095Y-60401782D01*
X102357620Y-60212442D01*
X102232727Y-60040540D01*
X102232723Y-60040535D01*
X102082464Y-59890276D01*
X102082459Y-59890272D01*
X101917781Y-59770627D01*
X101875115Y-59715297D01*
X101869136Y-59645684D01*
X101901741Y-59583889D01*
X101917776Y-59569994D01*
X102082792Y-59450104D01*
X102233104Y-59299792D01*
X102233106Y-59299788D01*
X102233109Y-59299786D01*
X102358048Y-59127820D01*
X102358047Y-59127820D01*
X102358051Y-59127816D01*
X102454557Y-58938412D01*
X102520246Y-58736243D01*
X102553500Y-58526287D01*
X102553500Y-58313713D01*
X102520246Y-58103757D01*
X102454557Y-57901588D01*
X102358051Y-57712184D01*
X102358049Y-57712181D01*
X102358048Y-57712179D01*
X102233109Y-57540213D01*
X102082786Y-57389890D01*
X101910820Y-57264951D01*
X101721414Y-57168444D01*
X101721413Y-57168443D01*
X101721412Y-57168443D01*
X101519243Y-57102754D01*
X101519241Y-57102753D01*
X101519240Y-57102753D01*
X101357957Y-57077208D01*
X101309287Y-57069500D01*
X100846713Y-57069500D01*
X100798042Y-57077208D01*
X100636760Y-57102753D01*
X100434585Y-57168444D01*
X100245179Y-57264951D01*
X100073213Y-57389890D01*
X99922890Y-57540213D01*
X99797951Y-57712179D01*
X99701444Y-57901585D01*
X99635753Y-58103760D01*
X99602500Y-58313713D01*
X96288464Y-58313713D01*
X96280109Y-58302214D01*
X96280105Y-58302209D01*
X96129786Y-58151890D01*
X95957820Y-58026951D01*
X95957115Y-58026591D01*
X95949054Y-58022485D01*
X95898259Y-57974512D01*
X95881463Y-57906692D01*
X95903999Y-57840556D01*
X95949054Y-57801515D01*
X95957816Y-57797051D01*
X96038405Y-57738500D01*
X96129786Y-57672109D01*
X96129788Y-57672106D01*
X96129792Y-57672104D01*
X96280104Y-57521792D01*
X96280106Y-57521788D01*
X96280109Y-57521786D01*
X96405048Y-57349820D01*
X96405047Y-57349820D01*
X96405051Y-57349816D01*
X96501557Y-57160412D01*
X96567246Y-56958243D01*
X96600500Y-56748287D01*
X96600500Y-56535713D01*
X96567246Y-56325757D01*
X96501557Y-56123588D01*
X96405051Y-55934184D01*
X96405049Y-55934181D01*
X96405048Y-55934179D01*
X96280109Y-55762213D01*
X96129786Y-55611890D01*
X95957820Y-55486951D01*
X95957115Y-55486591D01*
X95949054Y-55482485D01*
X95898259Y-55434512D01*
X95881463Y-55366692D01*
X95903999Y-55300556D01*
X95949054Y-55261515D01*
X95957816Y-55257051D01*
X95990990Y-55232949D01*
X96129786Y-55132109D01*
X96129788Y-55132106D01*
X96129792Y-55132104D01*
X96280104Y-54981792D01*
X96280106Y-54981788D01*
X96280109Y-54981786D01*
X96405048Y-54809820D01*
X96405047Y-54809820D01*
X96405051Y-54809816D01*
X96501557Y-54620412D01*
X96567246Y-54418243D01*
X96600500Y-54208287D01*
X96600500Y-53995713D01*
X96567246Y-53785757D01*
X96501557Y-53583588D01*
X96405051Y-53394184D01*
X96405049Y-53394181D01*
X96405048Y-53394179D01*
X96280109Y-53222213D01*
X96129786Y-53071890D01*
X95957820Y-52946951D01*
X95957115Y-52946591D01*
X95949054Y-52942485D01*
X95898259Y-52894512D01*
X95881463Y-52826692D01*
X95903999Y-52760556D01*
X95949054Y-52721515D01*
X95957816Y-52717051D01*
X96113039Y-52604276D01*
X96129786Y-52592109D01*
X96129788Y-52592106D01*
X96129792Y-52592104D01*
X96280104Y-52441792D01*
X96280106Y-52441788D01*
X96280109Y-52441786D01*
X96405048Y-52269820D01*
X96405047Y-52269820D01*
X96405051Y-52269816D01*
X96501557Y-52080412D01*
X96567246Y-51878243D01*
X96600500Y-51668287D01*
X96600500Y-51455713D01*
X96567246Y-51245757D01*
X96501557Y-51043588D01*
X96405051Y-50854184D01*
X96405049Y-50854181D01*
X96405048Y-50854179D01*
X96280109Y-50682213D01*
X96129786Y-50531890D01*
X95957820Y-50406951D01*
X95957115Y-50406591D01*
X95949054Y-50402485D01*
X95898259Y-50354512D01*
X95881463Y-50286692D01*
X95903999Y-50220556D01*
X95949054Y-50181515D01*
X95957816Y-50177051D01*
X96042675Y-50115398D01*
X96129786Y-50052109D01*
X96129788Y-50052106D01*
X96129792Y-50052104D01*
X96280104Y-49901792D01*
X96280106Y-49901788D01*
X96280109Y-49901786D01*
X96405048Y-49729820D01*
X96405047Y-49729820D01*
X96405051Y-49729816D01*
X96501557Y-49540412D01*
X96567246Y-49338243D01*
X96600500Y-49128287D01*
X96600500Y-48915713D01*
X96567246Y-48705757D01*
X96501557Y-48503588D01*
X96405051Y-48314184D01*
X96405049Y-48314181D01*
X96405048Y-48314179D01*
X96280109Y-48142213D01*
X96129786Y-47991890D01*
X95957817Y-47866949D01*
X95948504Y-47862204D01*
X95897707Y-47814230D01*
X95880912Y-47746409D01*
X95903449Y-47680274D01*
X95948507Y-47641232D01*
X95957555Y-47636622D01*
X96011716Y-47597270D01*
X96011717Y-47597270D01*
X95379408Y-46964962D01*
X95442993Y-46947925D01*
X95557007Y-46882099D01*
X95650099Y-46789007D01*
X95715925Y-46674993D01*
X95732962Y-46611408D01*
X96365270Y-47243717D01*
X96365270Y-47243716D01*
X96404622Y-47189554D01*
X96501095Y-47000217D01*
X96566757Y-46798130D01*
X96566757Y-46798127D01*
X96600000Y-46588246D01*
X96600000Y-46375753D01*
X96566757Y-46165872D01*
X96566757Y-46165869D01*
X96501095Y-45963782D01*
X96404624Y-45774449D01*
X96365270Y-45720282D01*
X96365269Y-45720282D01*
X95732962Y-46352590D01*
X95715925Y-46289007D01*
X95650099Y-46174993D01*
X95557007Y-46081901D01*
X95442993Y-46016075D01*
X95379409Y-45999037D01*
X96011716Y-45366728D01*
X95957547Y-45327373D01*
X95957547Y-45327372D01*
X95948500Y-45322763D01*
X95897706Y-45274788D01*
X95880912Y-45206966D01*
X95903451Y-45140832D01*
X95948508Y-45101793D01*
X95957816Y-45097051D01*
X96054970Y-45026465D01*
X96129786Y-44972109D01*
X96129788Y-44972106D01*
X96129792Y-44972104D01*
X96280104Y-44821792D01*
X96280106Y-44821788D01*
X96280109Y-44821786D01*
X96405048Y-44649820D01*
X96405047Y-44649820D01*
X96405051Y-44649816D01*
X96501557Y-44460412D01*
X96567246Y-44258243D01*
X96600500Y-44048287D01*
X96600500Y-43835713D01*
X96567246Y-43625757D01*
X96501557Y-43423588D01*
X96405051Y-43234184D01*
X96405049Y-43234181D01*
X96405048Y-43234179D01*
X96280109Y-43062213D01*
X96129786Y-42911890D01*
X95957820Y-42786951D01*
X95957115Y-42786591D01*
X95949054Y-42782485D01*
X95898259Y-42734512D01*
X95881463Y-42666692D01*
X95903999Y-42600556D01*
X95949054Y-42561515D01*
X95957816Y-42557051D01*
X95979789Y-42541086D01*
X96129786Y-42432109D01*
X96129788Y-42432106D01*
X96129792Y-42432104D01*
X96280104Y-42281792D01*
X96280106Y-42281788D01*
X96280109Y-42281786D01*
X96405048Y-42109820D01*
X96405047Y-42109820D01*
X96405051Y-42109816D01*
X96501557Y-41920412D01*
X96567246Y-41718243D01*
X96600500Y-41508287D01*
X96600500Y-41295713D01*
X96567246Y-41085757D01*
X96501557Y-40883588D01*
X96405051Y-40694184D01*
X96405049Y-40694181D01*
X96405048Y-40694179D01*
X96280109Y-40522213D01*
X96166569Y-40408673D01*
X96133084Y-40347350D01*
X96138068Y-40277658D01*
X96179940Y-40221725D01*
X96210915Y-40204810D01*
X96342331Y-40155796D01*
X96457546Y-40069546D01*
X96543796Y-39954331D01*
X96594091Y-39819483D01*
X96600500Y-39759873D01*
X96600499Y-37964128D01*
X96594091Y-37904517D01*
X96594088Y-37904510D01*
X96543797Y-37769671D01*
X96543793Y-37769664D01*
X96457547Y-37654455D01*
X96457544Y-37654452D01*
X96342335Y-37568206D01*
X96342328Y-37568202D01*
X96207482Y-37517908D01*
X96207483Y-37517908D01*
X96147883Y-37511501D01*
X96147881Y-37511500D01*
X96147873Y-37511500D01*
X96147864Y-37511500D01*
X94352129Y-37511500D01*
X94352123Y-37511501D01*
X94292516Y-37517908D01*
X94157671Y-37568202D01*
X94157664Y-37568206D01*
X94042455Y-37654452D01*
X94042452Y-37654455D01*
X93956206Y-37769664D01*
X93956202Y-37769671D01*
X93905908Y-37904517D01*
X93899501Y-37964116D01*
X93899501Y-37964123D01*
X93899500Y-37964135D01*
X92976701Y-37964135D01*
X93007078Y-37904517D01*
X93007082Y-37904510D01*
X93024295Y-37870725D01*
X93044211Y-37831639D01*
X93100171Y-37659409D01*
X93114765Y-37567259D01*
X93128500Y-37480551D01*
X93128500Y-36499448D01*
X93100797Y-36324545D01*
X93100171Y-36320591D01*
X93058580Y-36192584D01*
X93044212Y-36148363D01*
X93044211Y-36148360D01*
X93015740Y-36092484D01*
X92961996Y-35987006D01*
X92948396Y-35968287D01*
X92855558Y-35840505D01*
X92855554Y-35840500D01*
X92727499Y-35712445D01*
X92727494Y-35712441D01*
X92580997Y-35606006D01*
X92580996Y-35606005D01*
X92580994Y-35606004D01*
X92529300Y-35579664D01*
X92419639Y-35523788D01*
X92419636Y-35523787D01*
X92247410Y-35467829D01*
X92068551Y-35439500D01*
X92068546Y-35439500D01*
X91887454Y-35439500D01*
X91887449Y-35439500D01*
X91708589Y-35467829D01*
X91536363Y-35523787D01*
X91536360Y-35523788D01*
X91375002Y-35606006D01*
X91228505Y-35712441D01*
X91228500Y-35712445D01*
X91100445Y-35840500D01*
X91100441Y-35840505D01*
X90994006Y-35987002D01*
X90911788Y-36148360D01*
X90911787Y-36148363D01*
X90881308Y-36242172D01*
X90841871Y-36299847D01*
X90777512Y-36327046D01*
X90708666Y-36315132D01*
X90657190Y-36267888D01*
X90639864Y-36214833D01*
X90637886Y-36192584D01*
X90637886Y-36192583D01*
X90637886Y-36192582D01*
X90581909Y-35996951D01*
X90487698Y-35816593D01*
X90435684Y-35752803D01*
X90359109Y-35658890D01*
X90201409Y-35530304D01*
X90201410Y-35530304D01*
X90201407Y-35530302D01*
X90021049Y-35436091D01*
X90021048Y-35436090D01*
X90021045Y-35436089D01*
X89903829Y-35402550D01*
X89825418Y-35380114D01*
X89825415Y-35380113D01*
X89825413Y-35380113D01*
X89759102Y-35374217D01*
X89706037Y-35369500D01*
X89706032Y-35369500D01*
X85589971Y-35369500D01*
X85589965Y-35369500D01*
X85589964Y-35369501D01*
X85578316Y-35370536D01*
X85470584Y-35380113D01*
X85274954Y-35436089D01*
X85184772Y-35483196D01*
X85094593Y-35530302D01*
X85094591Y-35530303D01*
X85094590Y-35530304D01*
X84936890Y-35658890D01*
X84808304Y-35816590D01*
X84808302Y-35816593D01*
X84761196Y-35906772D01*
X84714089Y-35996954D01*
X84658114Y-36192583D01*
X84658113Y-36192585D01*
X84656135Y-36214837D01*
X84630589Y-36279869D01*
X84573940Y-36320767D01*
X84504172Y-36324545D01*
X84443438Y-36290005D01*
X84414691Y-36242170D01*
X84384213Y-36148366D01*
X84384211Y-36148360D01*
X84355740Y-36092484D01*
X84301996Y-35987006D01*
X84288396Y-35968287D01*
X84195558Y-35840505D01*
X84195554Y-35840500D01*
X84067499Y-35712445D01*
X84067494Y-35712441D01*
X83920997Y-35606006D01*
X83920996Y-35606005D01*
X83920994Y-35606004D01*
X83869300Y-35579664D01*
X83759639Y-35523788D01*
X83759636Y-35523787D01*
X83587410Y-35467829D01*
X83408551Y-35439500D01*
X83408546Y-35439500D01*
X83227454Y-35439500D01*
X83227449Y-35439500D01*
X83048589Y-35467829D01*
X82876363Y-35523787D01*
X82876360Y-35523788D01*
X82715002Y-35606006D01*
X82568505Y-35712441D01*
X82568500Y-35712445D01*
X82440445Y-35840500D01*
X82440441Y-35840505D01*
X82334006Y-35987002D01*
X82251788Y-36148360D01*
X82251787Y-36148363D01*
X82195829Y-36320589D01*
X82167500Y-36499448D01*
X34282500Y-36499448D01*
X34282500Y-34660500D01*
X34302185Y-34593461D01*
X34354989Y-34547706D01*
X34406500Y-34536500D01*
X105293500Y-34536500D01*
X105360539Y-34556185D01*
G37*
%TD.AperFunction*%
%TD*%
M02*
