%TF.GenerationSoftware,KiCad,Pcbnew,9.0.7-9.0.7~ubuntu24.04.1*%
%TF.CreationDate,2026-03-23T21:50:19+01:00*%
%TF.ProjectId,iasserv,69617373-6572-4762-9e6b-696361645f70,rev?*%
%TF.SameCoordinates,Original*%
%TF.FileFunction,Soldermask,Bot*%
%TF.FilePolarity,Negative*%
%FSLAX46Y46*%
G04 Gerber Fmt 4.6, Leading zero omitted, Abs format (unit mm)*
G04 Created by KiCad (PCBNEW 9.0.7-9.0.7~ubuntu24.04.1) date 2026-03-23 21:50:19*
%MOMM*%
%LPD*%
G01*
G04 APERTURE LIST*
G04 Aperture macros list*
%AMRoundRect*
0 Rectangle with rounded corners*
0 $1 Rounding radius*
0 $2 $3 $4 $5 $6 $7 $8 $9 X,Y pos of 4 corners*
0 Add a 4 corners polygon primitive as box body*
4,1,4,$2,$3,$4,$5,$6,$7,$8,$9,$2,$3,0*
0 Add four circle primitives for the rounded corners*
1,1,$1+$1,$2,$3*
1,1,$1+$1,$4,$5*
1,1,$1+$1,$6,$7*
1,1,$1+$1,$8,$9*
0 Add four rect primitives between the rounded corners*
20,1,$1+$1,$2,$3,$4,$5,0*
20,1,$1+$1,$4,$5,$6,$7,0*
20,1,$1+$1,$6,$7,$8,$9,0*
20,1,$1+$1,$8,$9,$2,$3,0*%
G04 Aperture macros list end*
%ADD10RoundRect,0.250000X0.600000X0.725000X-0.600000X0.725000X-0.600000X-0.725000X0.600000X-0.725000X0*%
%ADD11O,1.700000X1.950000*%
%ADD12RoundRect,0.250000X0.725000X-0.600000X0.725000X0.600000X-0.725000X0.600000X-0.725000X-0.600000X0*%
%ADD13O,1.950000X1.700000*%
%ADD14RoundRect,0.250000X-0.750000X0.600000X-0.750000X-0.600000X0.750000X-0.600000X0.750000X0.600000X0*%
%ADD15O,2.000000X1.700000*%
%ADD16R,1.700000X1.700000*%
%ADD17C,1.700000*%
%ADD18RoundRect,0.250000X-0.725000X0.600000X-0.725000X-0.600000X0.725000X-0.600000X0.725000X0.600000X0*%
%ADD19RoundRect,0.250000X0.750000X-0.600000X0.750000X0.600000X-0.750000X0.600000X-0.750000X-0.600000X0*%
%ADD20RoundRect,0.102000X-0.937500X0.937500X-0.937500X-0.937500X0.937500X-0.937500X0.937500X0.937500X0*%
%ADD21C,2.079000*%
%ADD22C,0.600000*%
%ADD23O,1.300000X2.300000*%
%ADD24O,1.300000X2.100000*%
%ADD25C,0.500000*%
G04 APERTURE END LIST*
D10*
%TO.C,J2*%
X73540000Y-41148000D03*
D11*
X71040000Y-41148000D03*
X68540000Y-41148000D03*
X66040000Y-41148000D03*
%TD*%
D12*
%TO.C,J7*%
X101078000Y-65920000D03*
D13*
X101078000Y-63420000D03*
X101078000Y-60920000D03*
X101078000Y-58420000D03*
%TD*%
D14*
%TO.C,J3*%
X38354000Y-87630000D03*
D15*
X38354000Y-90130000D03*
%TD*%
D16*
%TO.C,J6*%
X95250000Y-38862000D03*
D17*
X95250000Y-41402000D03*
X95250000Y-43942000D03*
X95250000Y-46482000D03*
X95250000Y-49022000D03*
X95250000Y-51562000D03*
X95250000Y-54102000D03*
X95250000Y-56642000D03*
X95250000Y-59182000D03*
X95250000Y-61722000D03*
X95250000Y-64262000D03*
X95250000Y-66802000D03*
X95250000Y-69342000D03*
X95250000Y-71882000D03*
X95250000Y-74422000D03*
%TD*%
D10*
%TO.C,J10*%
X73914000Y-64516000D03*
D11*
X71414000Y-64516000D03*
X68914000Y-64516000D03*
X66414000Y-64516000D03*
%TD*%
D16*
%TO.C,J17*%
X54998000Y-46228000D03*
D17*
X57538000Y-46228000D03*
X60078000Y-46228000D03*
X62618000Y-46228000D03*
X65158000Y-46228000D03*
X67698000Y-46228000D03*
%TD*%
D16*
%TO.C,J19*%
X46990000Y-107696000D03*
D17*
X44450000Y-107696000D03*
X46990000Y-105156000D03*
X44450000Y-105156000D03*
X46990000Y-102616000D03*
X44450000Y-102616000D03*
X46990000Y-100076000D03*
X44450000Y-100076000D03*
X46990000Y-97536000D03*
X44450000Y-97536000D03*
X46990000Y-94996000D03*
X44450000Y-94996000D03*
X46990000Y-92456000D03*
X44450000Y-92456000D03*
X46990000Y-89916000D03*
X44450000Y-89916000D03*
X46990000Y-87376000D03*
X44450000Y-87376000D03*
X46990000Y-84836000D03*
X44450000Y-84836000D03*
X46990000Y-82296000D03*
X44450000Y-82296000D03*
X46990000Y-79756000D03*
X44450000Y-79756000D03*
X46990000Y-77216000D03*
X44450000Y-77216000D03*
X46990000Y-74676000D03*
X44450000Y-74676000D03*
X46990000Y-72136000D03*
X44450000Y-72136000D03*
X46990000Y-69596000D03*
X44450000Y-69596000D03*
X46990000Y-67056000D03*
X44450000Y-67056000D03*
X46990000Y-64516000D03*
X44450000Y-64516000D03*
X46990000Y-61976000D03*
X44450000Y-61976000D03*
X46990000Y-59436000D03*
X44450000Y-59436000D03*
%TD*%
D16*
%TO.C,J15*%
X55626000Y-79756000D03*
D17*
X58166000Y-79756000D03*
X60706000Y-79756000D03*
X63246000Y-79756000D03*
X65786000Y-79756000D03*
X68326000Y-79756000D03*
%TD*%
D16*
%TO.C,J16*%
X55626000Y-69596000D03*
D17*
X58166000Y-69596000D03*
X60706000Y-69596000D03*
X63246000Y-69596000D03*
X65786000Y-69596000D03*
X68326000Y-69596000D03*
%TD*%
D18*
%TO.C,J13*%
X74422000Y-48634000D03*
D13*
X74422000Y-51134000D03*
X74422000Y-53634000D03*
X74422000Y-56134000D03*
%TD*%
D10*
%TO.C,J1*%
X59570000Y-41148000D03*
D11*
X57070000Y-41148000D03*
X54570000Y-41148000D03*
X52070000Y-41148000D03*
%TD*%
D10*
%TO.C,J11*%
X60078000Y-64516000D03*
D11*
X57578000Y-64516000D03*
X55078000Y-64516000D03*
X52578000Y-64516000D03*
%TD*%
D16*
%TO.C,J18*%
X54998000Y-56388000D03*
D17*
X57538000Y-56388000D03*
X60078000Y-56388000D03*
X62618000Y-56388000D03*
X65158000Y-56388000D03*
X67698000Y-56388000D03*
%TD*%
D14*
%TO.C,J4*%
X38608000Y-77216000D03*
D15*
X38608000Y-79716000D03*
%TD*%
D16*
%TO.C,J5*%
X80010000Y-38862000D03*
D17*
X80010000Y-41402000D03*
X80010000Y-43942000D03*
X80010000Y-46482000D03*
X80010000Y-49022000D03*
X80010000Y-51562000D03*
X80010000Y-54102000D03*
X80010000Y-56642000D03*
X80010000Y-59182000D03*
X80010000Y-61722000D03*
X80010000Y-64262000D03*
X80010000Y-66802000D03*
X80010000Y-69342000D03*
X80010000Y-71882000D03*
X80010000Y-74422000D03*
%TD*%
D19*
%TO.C,J8*%
X101092000Y-74890000D03*
D15*
X101092000Y-72390000D03*
%TD*%
D20*
%TO.C,PS1*%
X97790000Y-89408000D03*
D21*
X97790000Y-94488000D03*
X97790000Y-104648000D03*
X52070000Y-86868000D03*
X52070000Y-97028000D03*
X52070000Y-107188000D03*
%TD*%
D12*
%TO.C,J9*%
X101092000Y-51950000D03*
D13*
X101092000Y-49450000D03*
X101092000Y-46950000D03*
X101092000Y-44450000D03*
%TD*%
D18*
%TO.C,J12*%
X38354000Y-96386000D03*
D13*
X38354000Y-98886000D03*
X38354000Y-101386000D03*
X38354000Y-103886000D03*
%TD*%
D22*
%TO.C,J14*%
X90538000Y-40670000D03*
X84758000Y-40670000D03*
D23*
X91978000Y-41190000D03*
D24*
X91978000Y-36990000D03*
D25*
X89648000Y-38370000D03*
X89648000Y-36370000D03*
X85648000Y-38370000D03*
X85648000Y-36370000D03*
D23*
X83318000Y-41190000D03*
D24*
X83318000Y-36990000D03*
%TD*%
M02*
