%TF.GenerationSoftware,KiCad,Pcbnew,9.0.3-9.0.3-0~ubuntu24.04.1*%
%TF.CreationDate,2026-02-07T15:21:19+01:00*%
%TF.ProjectId,iasserv,69617373-6572-4762-9e6b-696361645f70,rev?*%
%TF.SameCoordinates,Original*%
%TF.FileFunction,Soldermask,Top*%
%TF.FilePolarity,Negative*%
%FSLAX46Y46*%
G04 Gerber Fmt 4.6, Leading zero omitted, Abs format (unit mm)*
G04 Created by KiCad (PCBNEW 9.0.3-9.0.3-0~ubuntu24.04.1) date 2026-02-07 15:21:19*
%MOMM*%
%LPD*%
G01*
G04 APERTURE LIST*
G04 Aperture macros list*
%AMRoundRect*
0 Rectangle with rounded corners*
0 $1 Rounding radius*
0 $2 $3 $4 $5 $6 $7 $8 $9 X,Y pos of 4 corners*
0 Add a 4 corners polygon primitive as box body*
4,1,4,$2,$3,$4,$5,$6,$7,$8,$9,$2,$3,0*
0 Add four circle primitives for the rounded corners*
1,1,$1+$1,$2,$3*
1,1,$1+$1,$4,$5*
1,1,$1+$1,$6,$7*
1,1,$1+$1,$8,$9*
0 Add four rect primitives between the rounded corners*
20,1,$1+$1,$2,$3,$4,$5,0*
20,1,$1+$1,$4,$5,$6,$7,0*
20,1,$1+$1,$6,$7,$8,$9,0*
20,1,$1+$1,$8,$9,$2,$3,0*%
G04 Aperture macros list end*
%ADD10RoundRect,0.219000X0.294000X-0.219000X0.294000X0.219000X-0.294000X0.219000X-0.294000X-0.219000X0*%
%ADD11RoundRect,0.250000X0.600000X0.725000X-0.600000X0.725000X-0.600000X-0.725000X0.600000X-0.725000X0*%
%ADD12O,1.700000X1.950000*%
%ADD13RoundRect,0.250000X0.725000X-0.600000X0.725000X0.600000X-0.725000X0.600000X-0.725000X-0.600000X0*%
%ADD14O,1.950000X1.700000*%
%ADD15RoundRect,0.250000X-0.750000X0.600000X-0.750000X-0.600000X0.750000X-0.600000X0.750000X0.600000X0*%
%ADD16O,2.000000X1.700000*%
%ADD17R,1.700000X1.700000*%
%ADD18C,1.700000*%
%ADD19RoundRect,0.250000X-0.725000X0.600000X-0.725000X-0.600000X0.725000X-0.600000X0.725000X0.600000X0*%
%ADD20RoundRect,0.250000X0.600000X0.750000X-0.600000X0.750000X-0.600000X-0.750000X0.600000X-0.750000X0*%
%ADD21O,1.700000X2.000000*%
%ADD22RoundRect,0.102000X-0.937500X0.937500X-0.937500X-0.937500X0.937500X-0.937500X0.937500X0.937500X0*%
%ADD23C,2.079000*%
%ADD24R,0.300000X1.400000*%
%ADD25R,0.500000X1.400000*%
%ADD26O,1.300000X2.300000*%
%ADD27O,1.300000X2.100000*%
%ADD28C,0.500000*%
%ADD29RoundRect,0.500000X2.000000X1.000000X-2.000000X1.000000X-2.000000X-1.000000X2.000000X-1.000000X0*%
G04 APERTURE END LIST*
D10*
%TO.C,R8*%
X48768000Y-76708000D03*
X48768000Y-75068000D03*
%TD*%
D11*
%TO.C,J2*%
X73914000Y-64516000D03*
D12*
X71414000Y-64516000D03*
X68914000Y-64516000D03*
X66414000Y-64516000D03*
%TD*%
D13*
%TO.C,J7*%
X101078000Y-73302000D03*
D14*
X101078000Y-70802000D03*
X101078000Y-68302000D03*
X101078000Y-65802000D03*
%TD*%
D15*
%TO.C,J3*%
X38608000Y-84368000D03*
D16*
X38608000Y-86868000D03*
%TD*%
D17*
%TO.C,J6*%
X95250000Y-38862000D03*
D18*
X95250000Y-41402000D03*
X95250000Y-43942000D03*
X95250000Y-46482000D03*
X95250000Y-49022000D03*
X95250000Y-51562000D03*
X95250000Y-54102000D03*
X95250000Y-56642000D03*
X95250000Y-59182000D03*
X95250000Y-61722000D03*
X95250000Y-64262000D03*
X95250000Y-66802000D03*
X95250000Y-69342000D03*
X95250000Y-71882000D03*
X95250000Y-74422000D03*
%TD*%
D11*
%TO.C,J10*%
X73406000Y-41148000D03*
D12*
X70906000Y-41148000D03*
X68406000Y-41148000D03*
X65906000Y-41148000D03*
%TD*%
D17*
%TO.C,J17*%
X55372000Y-69596000D03*
D18*
X57912000Y-69596000D03*
X60452000Y-69596000D03*
X62992000Y-69596000D03*
X65532000Y-69596000D03*
X68072000Y-69596000D03*
%TD*%
D17*
%TO.C,J19*%
X43688000Y-59436000D03*
D18*
X46228000Y-59436000D03*
X43688000Y-61976000D03*
X46228000Y-61976000D03*
X43688000Y-64516000D03*
X46228000Y-64516000D03*
X43688000Y-67056000D03*
X46228000Y-67056000D03*
X43688000Y-69596000D03*
X46228000Y-69596000D03*
X43688000Y-72136000D03*
X46228000Y-72136000D03*
X43688000Y-74676000D03*
X46228000Y-74676000D03*
X43688000Y-77216000D03*
X46228000Y-77216000D03*
X43688000Y-79756000D03*
X46228000Y-79756000D03*
X43688000Y-82296000D03*
X46228000Y-82296000D03*
X43688000Y-84836000D03*
X46228000Y-84836000D03*
X43688000Y-87376000D03*
X46228000Y-87376000D03*
X43688000Y-89916000D03*
X46228000Y-89916000D03*
X43688000Y-92456000D03*
X46228000Y-92456000D03*
X43688000Y-94996000D03*
X46228000Y-94996000D03*
X43688000Y-97536000D03*
X46228000Y-97536000D03*
X43688000Y-100076000D03*
X46228000Y-100076000D03*
X43688000Y-102616000D03*
X46228000Y-102616000D03*
X43688000Y-105156000D03*
X46228000Y-105156000D03*
X43688000Y-107696000D03*
X46228000Y-107696000D03*
%TD*%
D17*
%TO.C,J15*%
X55118000Y-56388000D03*
D18*
X57658000Y-56388000D03*
X60198000Y-56388000D03*
X62738000Y-56388000D03*
X65278000Y-56388000D03*
X67818000Y-56388000D03*
%TD*%
D17*
%TO.C,J16*%
X55118000Y-46228000D03*
D18*
X57658000Y-46228000D03*
X60198000Y-46228000D03*
X62738000Y-46228000D03*
X65278000Y-46228000D03*
X67818000Y-46228000D03*
%TD*%
D19*
%TO.C,J13*%
X74422000Y-48634000D03*
D14*
X74422000Y-51134000D03*
X74422000Y-53634000D03*
X74422000Y-56134000D03*
%TD*%
D11*
%TO.C,J1*%
X59944000Y-64516000D03*
D12*
X57444000Y-64516000D03*
X54944000Y-64516000D03*
X52444000Y-64516000D03*
%TD*%
D10*
%TO.C,R7*%
X48768000Y-79756000D03*
X48768000Y-78116000D03*
%TD*%
D11*
%TO.C,J11*%
X59570000Y-41148000D03*
D12*
X57070000Y-41148000D03*
X54570000Y-41148000D03*
X52070000Y-41148000D03*
%TD*%
D17*
%TO.C,J18*%
X55372000Y-79756000D03*
D18*
X57912000Y-79756000D03*
X60452000Y-79756000D03*
X62992000Y-79756000D03*
X65532000Y-79756000D03*
X68072000Y-79756000D03*
%TD*%
D15*
%TO.C,J4*%
X38608000Y-75732000D03*
D16*
X38608000Y-78232000D03*
%TD*%
D17*
%TO.C,J5*%
X80010000Y-38862000D03*
D18*
X80010000Y-41402000D03*
X80010000Y-43942000D03*
X80010000Y-46482000D03*
X80010000Y-49022000D03*
X80010000Y-51562000D03*
X80010000Y-54102000D03*
X80010000Y-56642000D03*
X80010000Y-59182000D03*
X80010000Y-61722000D03*
X80010000Y-64262000D03*
X80010000Y-66802000D03*
X80010000Y-69342000D03*
X80010000Y-71882000D03*
X80010000Y-74422000D03*
%TD*%
D20*
%TO.C,J8*%
X89154000Y-80518000D03*
D21*
X86654000Y-80518000D03*
%TD*%
D22*
%TO.C,PS1*%
X97790000Y-89408000D03*
D23*
X97790000Y-94488000D03*
X97790000Y-104648000D03*
X52070000Y-86868000D03*
X52070000Y-97028000D03*
X52070000Y-107188000D03*
%TD*%
D13*
%TO.C,J9*%
X101078000Y-59078000D03*
D14*
X101078000Y-56578000D03*
X101078000Y-54078000D03*
X101078000Y-51578000D03*
%TD*%
D19*
%TO.C,J12*%
X38608000Y-61976000D03*
D14*
X38608000Y-64476000D03*
X38608000Y-66976000D03*
X38608000Y-69476000D03*
%TD*%
D24*
%TO.C,J14*%
X88898000Y-41870000D03*
X87898000Y-41870000D03*
X87398000Y-41870000D03*
X86398000Y-41870000D03*
D25*
X85248000Y-41870000D03*
X84448000Y-41870000D03*
D24*
X85898000Y-41870000D03*
X86898000Y-41870000D03*
X88398000Y-41870000D03*
X89398000Y-41870000D03*
D25*
X90048000Y-41870000D03*
X90848000Y-41870000D03*
D26*
X91978000Y-41190000D03*
D27*
X91978000Y-36990000D03*
D28*
X89648000Y-38370000D03*
X89648000Y-36370000D03*
D29*
X87648000Y-37370000D03*
D28*
X85648000Y-38370000D03*
X85648000Y-36370000D03*
D26*
X83318000Y-41190000D03*
D27*
X83318000Y-36990000D03*
%TD*%
M02*
