G75*
%MOIN*%
%OFA0B0*%
%FSLAX25Y25*%
%IPPOS*%
%LPD*%
%AMOC8*
5,1,8,0,0,1.08239X$1,22.5*
%
%ADD10C,0.00500*%
%ADD11C,0.00787*%
%ADD12C,0.01000*%
%ADD13C,0.00600*%
%ADD14R,0.42000X0.03000*%
%ADD15R,0.07500X0.02000*%
%ADD16R,0.03000X0.02000*%
%ADD17C,0.01200*%
%ADD18R,0.01500X0.02000*%
%ADD19R,0.02000X0.01500*%
D10*
X0019110Y0016472D02*
X0056512Y0016472D01*
X0064386Y0008598D01*
X0194307Y0008598D01*
X0202181Y0016472D01*
X0282890Y0016472D01*
X0283042Y0016474D01*
X0283194Y0016480D01*
X0283346Y0016490D01*
X0283497Y0016503D01*
X0283648Y0016521D01*
X0283799Y0016542D01*
X0283949Y0016568D01*
X0284098Y0016597D01*
X0284247Y0016630D01*
X0284394Y0016667D01*
X0284541Y0016707D01*
X0284686Y0016752D01*
X0284830Y0016800D01*
X0284973Y0016852D01*
X0285115Y0016907D01*
X0285255Y0016966D01*
X0285394Y0017029D01*
X0285531Y0017095D01*
X0285666Y0017165D01*
X0285799Y0017238D01*
X0285930Y0017315D01*
X0286060Y0017395D01*
X0286187Y0017478D01*
X0286312Y0017564D01*
X0286435Y0017654D01*
X0286555Y0017747D01*
X0286673Y0017843D01*
X0286789Y0017942D01*
X0286902Y0018044D01*
X0287012Y0018148D01*
X0287120Y0018256D01*
X0287224Y0018366D01*
X0287326Y0018479D01*
X0287425Y0018595D01*
X0287521Y0018713D01*
X0287614Y0018833D01*
X0287704Y0018956D01*
X0287790Y0019081D01*
X0287873Y0019208D01*
X0287953Y0019338D01*
X0288030Y0019469D01*
X0288103Y0019602D01*
X0288173Y0019737D01*
X0288239Y0019874D01*
X0288302Y0020013D01*
X0288361Y0020153D01*
X0288416Y0020295D01*
X0288468Y0020438D01*
X0288516Y0020582D01*
X0288561Y0020727D01*
X0288601Y0020874D01*
X0288638Y0021021D01*
X0288671Y0021170D01*
X0288700Y0021319D01*
X0288726Y0021469D01*
X0288747Y0021620D01*
X0288765Y0021771D01*
X0288778Y0021922D01*
X0288788Y0022074D01*
X0288794Y0022226D01*
X0288796Y0022378D01*
X0288795Y0022378D02*
X0288795Y0327496D01*
X0288796Y0327496D02*
X0288794Y0327648D01*
X0288788Y0327800D01*
X0288778Y0327952D01*
X0288765Y0328103D01*
X0288747Y0328254D01*
X0288726Y0328405D01*
X0288700Y0328555D01*
X0288671Y0328704D01*
X0288638Y0328853D01*
X0288601Y0329000D01*
X0288561Y0329147D01*
X0288516Y0329292D01*
X0288468Y0329436D01*
X0288416Y0329579D01*
X0288361Y0329721D01*
X0288302Y0329861D01*
X0288239Y0330000D01*
X0288173Y0330137D01*
X0288103Y0330272D01*
X0288030Y0330405D01*
X0287953Y0330536D01*
X0287873Y0330666D01*
X0287790Y0330793D01*
X0287704Y0330918D01*
X0287614Y0331041D01*
X0287521Y0331161D01*
X0287425Y0331279D01*
X0287326Y0331395D01*
X0287224Y0331508D01*
X0287120Y0331618D01*
X0287012Y0331726D01*
X0286902Y0331830D01*
X0286789Y0331932D01*
X0286673Y0332031D01*
X0286555Y0332127D01*
X0286435Y0332220D01*
X0286312Y0332310D01*
X0286187Y0332396D01*
X0286060Y0332479D01*
X0285930Y0332559D01*
X0285799Y0332636D01*
X0285666Y0332709D01*
X0285531Y0332779D01*
X0285394Y0332845D01*
X0285255Y0332908D01*
X0285115Y0332967D01*
X0284973Y0333022D01*
X0284830Y0333074D01*
X0284686Y0333122D01*
X0284541Y0333167D01*
X0284394Y0333207D01*
X0284247Y0333244D01*
X0284098Y0333277D01*
X0283949Y0333306D01*
X0283799Y0333332D01*
X0283648Y0333353D01*
X0283497Y0333371D01*
X0283346Y0333384D01*
X0283194Y0333394D01*
X0283042Y0333400D01*
X0282890Y0333402D01*
X0019110Y0333402D01*
X0018958Y0333400D01*
X0018806Y0333394D01*
X0018654Y0333384D01*
X0018503Y0333371D01*
X0018352Y0333353D01*
X0018201Y0333332D01*
X0018051Y0333306D01*
X0017902Y0333277D01*
X0017753Y0333244D01*
X0017606Y0333207D01*
X0017459Y0333167D01*
X0017314Y0333122D01*
X0017170Y0333074D01*
X0017027Y0333022D01*
X0016885Y0332967D01*
X0016745Y0332908D01*
X0016606Y0332845D01*
X0016469Y0332779D01*
X0016334Y0332709D01*
X0016201Y0332636D01*
X0016070Y0332559D01*
X0015940Y0332479D01*
X0015813Y0332396D01*
X0015688Y0332310D01*
X0015565Y0332220D01*
X0015445Y0332127D01*
X0015327Y0332031D01*
X0015211Y0331932D01*
X0015098Y0331830D01*
X0014988Y0331726D01*
X0014880Y0331618D01*
X0014776Y0331508D01*
X0014674Y0331395D01*
X0014575Y0331279D01*
X0014479Y0331161D01*
X0014386Y0331041D01*
X0014296Y0330918D01*
X0014210Y0330793D01*
X0014127Y0330666D01*
X0014047Y0330536D01*
X0013970Y0330405D01*
X0013897Y0330272D01*
X0013827Y0330137D01*
X0013761Y0330000D01*
X0013698Y0329861D01*
X0013639Y0329721D01*
X0013584Y0329579D01*
X0013532Y0329436D01*
X0013484Y0329292D01*
X0013439Y0329147D01*
X0013399Y0329000D01*
X0013362Y0328853D01*
X0013329Y0328704D01*
X0013300Y0328555D01*
X0013274Y0328405D01*
X0013253Y0328254D01*
X0013235Y0328103D01*
X0013222Y0327952D01*
X0013212Y0327800D01*
X0013206Y0327648D01*
X0013204Y0327496D01*
X0013205Y0327496D02*
X0013205Y0022378D01*
X0013204Y0022378D02*
X0013206Y0022226D01*
X0013212Y0022074D01*
X0013222Y0021922D01*
X0013235Y0021771D01*
X0013253Y0021620D01*
X0013274Y0021469D01*
X0013300Y0021319D01*
X0013329Y0021170D01*
X0013362Y0021021D01*
X0013399Y0020874D01*
X0013439Y0020727D01*
X0013484Y0020582D01*
X0013532Y0020438D01*
X0013584Y0020295D01*
X0013639Y0020153D01*
X0013698Y0020013D01*
X0013761Y0019874D01*
X0013827Y0019737D01*
X0013897Y0019602D01*
X0013970Y0019469D01*
X0014047Y0019338D01*
X0014127Y0019208D01*
X0014210Y0019081D01*
X0014296Y0018956D01*
X0014386Y0018833D01*
X0014479Y0018713D01*
X0014575Y0018595D01*
X0014674Y0018479D01*
X0014776Y0018366D01*
X0014880Y0018256D01*
X0014988Y0018148D01*
X0015098Y0018044D01*
X0015211Y0017942D01*
X0015327Y0017843D01*
X0015445Y0017747D01*
X0015565Y0017654D01*
X0015688Y0017564D01*
X0015813Y0017478D01*
X0015940Y0017395D01*
X0016070Y0017315D01*
X0016201Y0017238D01*
X0016334Y0017165D01*
X0016469Y0017095D01*
X0016606Y0017029D01*
X0016745Y0016966D01*
X0016885Y0016907D01*
X0017027Y0016852D01*
X0017170Y0016800D01*
X0017314Y0016752D01*
X0017459Y0016707D01*
X0017606Y0016667D01*
X0017753Y0016630D01*
X0017902Y0016597D01*
X0018051Y0016568D01*
X0018201Y0016542D01*
X0018352Y0016521D01*
X0018503Y0016503D01*
X0018654Y0016490D01*
X0018806Y0016480D01*
X0018958Y0016474D01*
X0019110Y0016472D01*
X0021157Y0023441D02*
X0040843Y0023441D01*
X0040843Y0213441D01*
X0021157Y0213441D01*
X0021157Y0023441D01*
X0051079Y0022457D02*
X0060921Y0022457D01*
X0060921Y0084425D01*
X0051079Y0084425D01*
X0051079Y0022457D01*
X0051079Y0092457D02*
X0060921Y0092457D01*
X0060921Y0174425D01*
X0051079Y0174425D01*
X0051079Y0092457D01*
X0152250Y0203750D02*
X0153750Y0203750D01*
X0153810Y0203752D01*
X0153871Y0203757D01*
X0153930Y0203766D01*
X0153989Y0203779D01*
X0154048Y0203795D01*
X0154105Y0203815D01*
X0154160Y0203838D01*
X0154215Y0203865D01*
X0154267Y0203894D01*
X0154318Y0203927D01*
X0154367Y0203963D01*
X0154413Y0204001D01*
X0154457Y0204043D01*
X0154499Y0204087D01*
X0154537Y0204133D01*
X0154573Y0204182D01*
X0154606Y0204233D01*
X0154635Y0204285D01*
X0154662Y0204340D01*
X0154685Y0204395D01*
X0154705Y0204452D01*
X0154721Y0204511D01*
X0154734Y0204570D01*
X0154743Y0204629D01*
X0154748Y0204690D01*
X0154750Y0204750D01*
X0154750Y0205250D01*
X0154748Y0205310D01*
X0154743Y0205371D01*
X0154734Y0205430D01*
X0154721Y0205489D01*
X0154705Y0205548D01*
X0154685Y0205605D01*
X0154662Y0205660D01*
X0154635Y0205715D01*
X0154606Y0205767D01*
X0154573Y0205818D01*
X0154537Y0205867D01*
X0154499Y0205913D01*
X0154457Y0205957D01*
X0154413Y0205999D01*
X0154367Y0206037D01*
X0154318Y0206073D01*
X0154267Y0206106D01*
X0154215Y0206135D01*
X0154160Y0206162D01*
X0154105Y0206185D01*
X0154048Y0206205D01*
X0153989Y0206221D01*
X0153930Y0206234D01*
X0153871Y0206243D01*
X0153810Y0206248D01*
X0153750Y0206250D01*
X0152250Y0206250D01*
X0152250Y0208250D01*
X0154750Y0208250D01*
X0207750Y0207250D02*
X0209000Y0208250D01*
X0209000Y0203750D01*
X0207750Y0203750D02*
X0210250Y0203750D01*
X0241079Y0210409D02*
X0241079Y0108441D01*
X0250921Y0108441D01*
X0250921Y0210409D01*
X0241079Y0210409D01*
X0261157Y0213441D02*
X0280843Y0213441D01*
X0280843Y0023441D01*
X0261157Y0023441D01*
X0261157Y0213441D01*
X0250921Y0104425D02*
X0241079Y0104425D01*
X0241079Y0022457D01*
X0250921Y0022457D01*
X0250921Y0104425D01*
X0236000Y0091500D02*
X0235500Y0080000D01*
X0234500Y0079000D01*
X0197500Y0079000D01*
X0196500Y0080000D01*
X0196000Y0091500D01*
X0197300Y0081400D02*
X0197302Y0081463D01*
X0197308Y0081525D01*
X0197318Y0081587D01*
X0197331Y0081649D01*
X0197349Y0081709D01*
X0197370Y0081768D01*
X0197395Y0081826D01*
X0197424Y0081882D01*
X0197456Y0081936D01*
X0197491Y0081988D01*
X0197529Y0082037D01*
X0197571Y0082085D01*
X0197615Y0082129D01*
X0197663Y0082171D01*
X0197712Y0082209D01*
X0197764Y0082244D01*
X0197818Y0082276D01*
X0197874Y0082305D01*
X0197932Y0082330D01*
X0197991Y0082351D01*
X0198051Y0082369D01*
X0198113Y0082382D01*
X0198175Y0082392D01*
X0198237Y0082398D01*
X0198300Y0082400D01*
X0198363Y0082398D01*
X0198425Y0082392D01*
X0198487Y0082382D01*
X0198549Y0082369D01*
X0198609Y0082351D01*
X0198668Y0082330D01*
X0198726Y0082305D01*
X0198782Y0082276D01*
X0198836Y0082244D01*
X0198888Y0082209D01*
X0198937Y0082171D01*
X0198985Y0082129D01*
X0199029Y0082085D01*
X0199071Y0082037D01*
X0199109Y0081988D01*
X0199144Y0081936D01*
X0199176Y0081882D01*
X0199205Y0081826D01*
X0199230Y0081768D01*
X0199251Y0081709D01*
X0199269Y0081649D01*
X0199282Y0081587D01*
X0199292Y0081525D01*
X0199298Y0081463D01*
X0199300Y0081400D01*
X0199298Y0081337D01*
X0199292Y0081275D01*
X0199282Y0081213D01*
X0199269Y0081151D01*
X0199251Y0081091D01*
X0199230Y0081032D01*
X0199205Y0080974D01*
X0199176Y0080918D01*
X0199144Y0080864D01*
X0199109Y0080812D01*
X0199071Y0080763D01*
X0199029Y0080715D01*
X0198985Y0080671D01*
X0198937Y0080629D01*
X0198888Y0080591D01*
X0198836Y0080556D01*
X0198782Y0080524D01*
X0198726Y0080495D01*
X0198668Y0080470D01*
X0198609Y0080449D01*
X0198549Y0080431D01*
X0198487Y0080418D01*
X0198425Y0080408D01*
X0198363Y0080402D01*
X0198300Y0080400D01*
X0198237Y0080402D01*
X0198175Y0080408D01*
X0198113Y0080418D01*
X0198051Y0080431D01*
X0197991Y0080449D01*
X0197932Y0080470D01*
X0197874Y0080495D01*
X0197818Y0080524D01*
X0197764Y0080556D01*
X0197712Y0080591D01*
X0197663Y0080629D01*
X0197615Y0080671D01*
X0197571Y0080715D01*
X0197529Y0080763D01*
X0197491Y0080812D01*
X0197456Y0080864D01*
X0197424Y0080918D01*
X0197395Y0080974D01*
X0197370Y0081032D01*
X0197349Y0081091D01*
X0197331Y0081151D01*
X0197318Y0081213D01*
X0197308Y0081275D01*
X0197302Y0081337D01*
X0197300Y0081400D01*
D11*
X0252496Y0114425D02*
X0252498Y0114464D01*
X0252504Y0114503D01*
X0252514Y0114541D01*
X0252527Y0114578D01*
X0252544Y0114613D01*
X0252564Y0114647D01*
X0252588Y0114678D01*
X0252615Y0114707D01*
X0252644Y0114733D01*
X0252676Y0114756D01*
X0252710Y0114776D01*
X0252746Y0114792D01*
X0252783Y0114804D01*
X0252822Y0114813D01*
X0252861Y0114818D01*
X0252900Y0114819D01*
X0252939Y0114816D01*
X0252978Y0114809D01*
X0253015Y0114798D01*
X0253052Y0114784D01*
X0253087Y0114766D01*
X0253120Y0114745D01*
X0253151Y0114720D01*
X0253179Y0114693D01*
X0253204Y0114663D01*
X0253226Y0114630D01*
X0253245Y0114596D01*
X0253260Y0114560D01*
X0253272Y0114522D01*
X0253280Y0114484D01*
X0253284Y0114445D01*
X0253284Y0114405D01*
X0253280Y0114366D01*
X0253272Y0114328D01*
X0253260Y0114290D01*
X0253245Y0114254D01*
X0253226Y0114220D01*
X0253204Y0114187D01*
X0253179Y0114157D01*
X0253151Y0114130D01*
X0253120Y0114105D01*
X0253087Y0114084D01*
X0253052Y0114066D01*
X0253015Y0114052D01*
X0252978Y0114041D01*
X0252939Y0114034D01*
X0252900Y0114031D01*
X0252861Y0114032D01*
X0252822Y0114037D01*
X0252783Y0114046D01*
X0252746Y0114058D01*
X0252710Y0114074D01*
X0252676Y0114094D01*
X0252644Y0114117D01*
X0252615Y0114143D01*
X0252588Y0114172D01*
X0252564Y0114203D01*
X0252544Y0114237D01*
X0252527Y0114272D01*
X0252514Y0114309D01*
X0252504Y0114347D01*
X0252498Y0114386D01*
X0252496Y0114425D01*
X0252496Y0028441D02*
X0252498Y0028480D01*
X0252504Y0028519D01*
X0252514Y0028557D01*
X0252527Y0028594D01*
X0252544Y0028629D01*
X0252564Y0028663D01*
X0252588Y0028694D01*
X0252615Y0028723D01*
X0252644Y0028749D01*
X0252676Y0028772D01*
X0252710Y0028792D01*
X0252746Y0028808D01*
X0252783Y0028820D01*
X0252822Y0028829D01*
X0252861Y0028834D01*
X0252900Y0028835D01*
X0252939Y0028832D01*
X0252978Y0028825D01*
X0253015Y0028814D01*
X0253052Y0028800D01*
X0253087Y0028782D01*
X0253120Y0028761D01*
X0253151Y0028736D01*
X0253179Y0028709D01*
X0253204Y0028679D01*
X0253226Y0028646D01*
X0253245Y0028612D01*
X0253260Y0028576D01*
X0253272Y0028538D01*
X0253280Y0028500D01*
X0253284Y0028461D01*
X0253284Y0028421D01*
X0253280Y0028382D01*
X0253272Y0028344D01*
X0253260Y0028306D01*
X0253245Y0028270D01*
X0253226Y0028236D01*
X0253204Y0028203D01*
X0253179Y0028173D01*
X0253151Y0028146D01*
X0253120Y0028121D01*
X0253087Y0028100D01*
X0253052Y0028082D01*
X0253015Y0028068D01*
X0252978Y0028057D01*
X0252939Y0028050D01*
X0252900Y0028047D01*
X0252861Y0028048D01*
X0252822Y0028053D01*
X0252783Y0028062D01*
X0252746Y0028074D01*
X0252710Y0028090D01*
X0252676Y0028110D01*
X0252644Y0028133D01*
X0252615Y0028159D01*
X0252588Y0028188D01*
X0252564Y0028219D01*
X0252544Y0028253D01*
X0252527Y0028288D01*
X0252514Y0028325D01*
X0252504Y0028363D01*
X0252498Y0028402D01*
X0252496Y0028441D01*
X0258716Y0208441D02*
X0258718Y0208480D01*
X0258724Y0208519D01*
X0258734Y0208557D01*
X0258747Y0208594D01*
X0258764Y0208629D01*
X0258784Y0208663D01*
X0258808Y0208694D01*
X0258835Y0208723D01*
X0258864Y0208749D01*
X0258896Y0208772D01*
X0258930Y0208792D01*
X0258966Y0208808D01*
X0259003Y0208820D01*
X0259042Y0208829D01*
X0259081Y0208834D01*
X0259120Y0208835D01*
X0259159Y0208832D01*
X0259198Y0208825D01*
X0259235Y0208814D01*
X0259272Y0208800D01*
X0259307Y0208782D01*
X0259340Y0208761D01*
X0259371Y0208736D01*
X0259399Y0208709D01*
X0259424Y0208679D01*
X0259446Y0208646D01*
X0259465Y0208612D01*
X0259480Y0208576D01*
X0259492Y0208538D01*
X0259500Y0208500D01*
X0259504Y0208461D01*
X0259504Y0208421D01*
X0259500Y0208382D01*
X0259492Y0208344D01*
X0259480Y0208306D01*
X0259465Y0208270D01*
X0259446Y0208236D01*
X0259424Y0208203D01*
X0259399Y0208173D01*
X0259371Y0208146D01*
X0259340Y0208121D01*
X0259307Y0208100D01*
X0259272Y0208082D01*
X0259235Y0208068D01*
X0259198Y0208057D01*
X0259159Y0208050D01*
X0259120Y0208047D01*
X0259081Y0208048D01*
X0259042Y0208053D01*
X0259003Y0208062D01*
X0258966Y0208074D01*
X0258930Y0208090D01*
X0258896Y0208110D01*
X0258864Y0208133D01*
X0258835Y0208159D01*
X0258808Y0208188D01*
X0258784Y0208219D01*
X0258764Y0208253D01*
X0258747Y0208288D01*
X0258734Y0208325D01*
X0258724Y0208363D01*
X0258718Y0208402D01*
X0258716Y0208441D01*
X0048716Y0168441D02*
X0048718Y0168480D01*
X0048724Y0168519D01*
X0048734Y0168557D01*
X0048747Y0168594D01*
X0048764Y0168629D01*
X0048784Y0168663D01*
X0048808Y0168694D01*
X0048835Y0168723D01*
X0048864Y0168749D01*
X0048896Y0168772D01*
X0048930Y0168792D01*
X0048966Y0168808D01*
X0049003Y0168820D01*
X0049042Y0168829D01*
X0049081Y0168834D01*
X0049120Y0168835D01*
X0049159Y0168832D01*
X0049198Y0168825D01*
X0049235Y0168814D01*
X0049272Y0168800D01*
X0049307Y0168782D01*
X0049340Y0168761D01*
X0049371Y0168736D01*
X0049399Y0168709D01*
X0049424Y0168679D01*
X0049446Y0168646D01*
X0049465Y0168612D01*
X0049480Y0168576D01*
X0049492Y0168538D01*
X0049500Y0168500D01*
X0049504Y0168461D01*
X0049504Y0168421D01*
X0049500Y0168382D01*
X0049492Y0168344D01*
X0049480Y0168306D01*
X0049465Y0168270D01*
X0049446Y0168236D01*
X0049424Y0168203D01*
X0049399Y0168173D01*
X0049371Y0168146D01*
X0049340Y0168121D01*
X0049307Y0168100D01*
X0049272Y0168082D01*
X0049235Y0168068D01*
X0049198Y0168057D01*
X0049159Y0168050D01*
X0049120Y0168047D01*
X0049081Y0168048D01*
X0049042Y0168053D01*
X0049003Y0168062D01*
X0048966Y0168074D01*
X0048930Y0168090D01*
X0048896Y0168110D01*
X0048864Y0168133D01*
X0048835Y0168159D01*
X0048808Y0168188D01*
X0048784Y0168219D01*
X0048764Y0168253D01*
X0048747Y0168288D01*
X0048734Y0168325D01*
X0048724Y0168363D01*
X0048718Y0168402D01*
X0048716Y0168441D01*
X0018716Y0208441D02*
X0018718Y0208480D01*
X0018724Y0208519D01*
X0018734Y0208557D01*
X0018747Y0208594D01*
X0018764Y0208629D01*
X0018784Y0208663D01*
X0018808Y0208694D01*
X0018835Y0208723D01*
X0018864Y0208749D01*
X0018896Y0208772D01*
X0018930Y0208792D01*
X0018966Y0208808D01*
X0019003Y0208820D01*
X0019042Y0208829D01*
X0019081Y0208834D01*
X0019120Y0208835D01*
X0019159Y0208832D01*
X0019198Y0208825D01*
X0019235Y0208814D01*
X0019272Y0208800D01*
X0019307Y0208782D01*
X0019340Y0208761D01*
X0019371Y0208736D01*
X0019399Y0208709D01*
X0019424Y0208679D01*
X0019446Y0208646D01*
X0019465Y0208612D01*
X0019480Y0208576D01*
X0019492Y0208538D01*
X0019500Y0208500D01*
X0019504Y0208461D01*
X0019504Y0208421D01*
X0019500Y0208382D01*
X0019492Y0208344D01*
X0019480Y0208306D01*
X0019465Y0208270D01*
X0019446Y0208236D01*
X0019424Y0208203D01*
X0019399Y0208173D01*
X0019371Y0208146D01*
X0019340Y0208121D01*
X0019307Y0208100D01*
X0019272Y0208082D01*
X0019235Y0208068D01*
X0019198Y0208057D01*
X0019159Y0208050D01*
X0019120Y0208047D01*
X0019081Y0208048D01*
X0019042Y0208053D01*
X0019003Y0208062D01*
X0018966Y0208074D01*
X0018930Y0208090D01*
X0018896Y0208110D01*
X0018864Y0208133D01*
X0018835Y0208159D01*
X0018808Y0208188D01*
X0018784Y0208219D01*
X0018764Y0208253D01*
X0018747Y0208288D01*
X0018734Y0208325D01*
X0018724Y0208363D01*
X0018718Y0208402D01*
X0018716Y0208441D01*
X0048716Y0078441D02*
X0048718Y0078480D01*
X0048724Y0078519D01*
X0048734Y0078557D01*
X0048747Y0078594D01*
X0048764Y0078629D01*
X0048784Y0078663D01*
X0048808Y0078694D01*
X0048835Y0078723D01*
X0048864Y0078749D01*
X0048896Y0078772D01*
X0048930Y0078792D01*
X0048966Y0078808D01*
X0049003Y0078820D01*
X0049042Y0078829D01*
X0049081Y0078834D01*
X0049120Y0078835D01*
X0049159Y0078832D01*
X0049198Y0078825D01*
X0049235Y0078814D01*
X0049272Y0078800D01*
X0049307Y0078782D01*
X0049340Y0078761D01*
X0049371Y0078736D01*
X0049399Y0078709D01*
X0049424Y0078679D01*
X0049446Y0078646D01*
X0049465Y0078612D01*
X0049480Y0078576D01*
X0049492Y0078538D01*
X0049500Y0078500D01*
X0049504Y0078461D01*
X0049504Y0078421D01*
X0049500Y0078382D01*
X0049492Y0078344D01*
X0049480Y0078306D01*
X0049465Y0078270D01*
X0049446Y0078236D01*
X0049424Y0078203D01*
X0049399Y0078173D01*
X0049371Y0078146D01*
X0049340Y0078121D01*
X0049307Y0078100D01*
X0049272Y0078082D01*
X0049235Y0078068D01*
X0049198Y0078057D01*
X0049159Y0078050D01*
X0049120Y0078047D01*
X0049081Y0078048D01*
X0049042Y0078053D01*
X0049003Y0078062D01*
X0048966Y0078074D01*
X0048930Y0078090D01*
X0048896Y0078110D01*
X0048864Y0078133D01*
X0048835Y0078159D01*
X0048808Y0078188D01*
X0048784Y0078219D01*
X0048764Y0078253D01*
X0048747Y0078288D01*
X0048734Y0078325D01*
X0048724Y0078363D01*
X0048718Y0078402D01*
X0048716Y0078441D01*
D12*
X0076000Y0068500D02*
X0116000Y0068500D01*
X0116000Y0051000D01*
X0076000Y0051000D01*
X0076000Y0068500D01*
X0076000Y0051000D02*
X0076000Y0043500D01*
X0116000Y0043500D01*
X0116000Y0051000D01*
X0141000Y0051000D02*
X0141000Y0043500D01*
X0181000Y0043500D01*
X0181000Y0051000D01*
X0141000Y0051000D01*
X0141000Y0068500D01*
X0181000Y0068500D01*
X0181000Y0051000D01*
X0201000Y0051000D02*
X0201000Y0068500D01*
X0221000Y0068500D01*
X0221000Y0051000D01*
X0201000Y0051000D01*
X0201000Y0043500D01*
X0221000Y0043500D01*
X0221000Y0051000D01*
X0141000Y0188500D02*
X0121000Y0188500D01*
X0121000Y0206000D01*
X0141000Y0206000D01*
X0141000Y0188500D01*
X0141000Y0206000D02*
X0141000Y0213500D01*
X0121000Y0213500D01*
X0121000Y0206000D01*
X0111000Y0206000D02*
X0071000Y0206000D01*
X0071000Y0213500D01*
X0111000Y0213500D01*
X0111000Y0206000D01*
X0111000Y0188500D01*
X0071000Y0188500D01*
X0071000Y0206000D01*
D13*
X0111000Y0233000D02*
X0111000Y0239000D01*
X0111002Y0239060D01*
X0111007Y0239121D01*
X0111016Y0239180D01*
X0111029Y0239239D01*
X0111045Y0239298D01*
X0111065Y0239355D01*
X0111088Y0239410D01*
X0111115Y0239465D01*
X0111144Y0239517D01*
X0111177Y0239568D01*
X0111213Y0239617D01*
X0111251Y0239663D01*
X0111293Y0239707D01*
X0111337Y0239749D01*
X0111383Y0239787D01*
X0111432Y0239823D01*
X0111483Y0239856D01*
X0111535Y0239885D01*
X0111590Y0239912D01*
X0111645Y0239935D01*
X0111702Y0239955D01*
X0111761Y0239971D01*
X0111820Y0239984D01*
X0111879Y0239993D01*
X0111940Y0239998D01*
X0112000Y0240000D01*
X0113500Y0240000D01*
X0114000Y0239500D01*
X0128000Y0239500D01*
X0128500Y0240000D01*
X0130000Y0240000D01*
X0130060Y0239998D01*
X0130121Y0239993D01*
X0130180Y0239984D01*
X0130239Y0239971D01*
X0130298Y0239955D01*
X0130355Y0239935D01*
X0130410Y0239912D01*
X0130465Y0239885D01*
X0130517Y0239856D01*
X0130568Y0239823D01*
X0130617Y0239787D01*
X0130663Y0239749D01*
X0130707Y0239707D01*
X0130749Y0239663D01*
X0130787Y0239617D01*
X0130823Y0239568D01*
X0130856Y0239517D01*
X0130885Y0239465D01*
X0130912Y0239410D01*
X0130935Y0239355D01*
X0130955Y0239298D01*
X0130971Y0239239D01*
X0130984Y0239180D01*
X0130993Y0239121D01*
X0130998Y0239060D01*
X0131000Y0239000D01*
X0131000Y0233000D01*
X0130998Y0232940D01*
X0130993Y0232879D01*
X0130984Y0232820D01*
X0130971Y0232761D01*
X0130955Y0232702D01*
X0130935Y0232645D01*
X0130912Y0232590D01*
X0130885Y0232535D01*
X0130856Y0232483D01*
X0130823Y0232432D01*
X0130787Y0232383D01*
X0130749Y0232337D01*
X0130707Y0232293D01*
X0130663Y0232251D01*
X0130617Y0232213D01*
X0130568Y0232177D01*
X0130517Y0232144D01*
X0130465Y0232115D01*
X0130410Y0232088D01*
X0130355Y0232065D01*
X0130298Y0232045D01*
X0130239Y0232029D01*
X0130180Y0232016D01*
X0130121Y0232007D01*
X0130060Y0232002D01*
X0130000Y0232000D01*
X0128500Y0232000D01*
X0128000Y0232500D01*
X0114000Y0232500D01*
X0113500Y0232000D01*
X0112000Y0232000D01*
X0111940Y0232002D01*
X0111879Y0232007D01*
X0111820Y0232016D01*
X0111761Y0232029D01*
X0111702Y0232045D01*
X0111645Y0232065D01*
X0111590Y0232088D01*
X0111535Y0232115D01*
X0111483Y0232144D01*
X0111432Y0232177D01*
X0111383Y0232213D01*
X0111337Y0232251D01*
X0111293Y0232293D01*
X0111251Y0232337D01*
X0111213Y0232383D01*
X0111177Y0232432D01*
X0111144Y0232483D01*
X0111115Y0232535D01*
X0111088Y0232590D01*
X0111065Y0232645D01*
X0111045Y0232702D01*
X0111029Y0232761D01*
X0111016Y0232820D01*
X0111007Y0232879D01*
X0111002Y0232940D01*
X0111000Y0233000D01*
X0156000Y0211000D02*
X0156000Y0201000D01*
X0165000Y0201000D01*
X0166000Y0202000D01*
X0167000Y0201000D01*
X0175000Y0201000D01*
X0176000Y0202000D01*
X0177000Y0201000D01*
X0185000Y0201000D01*
X0186000Y0202000D01*
X0187000Y0201000D01*
X0195000Y0201000D01*
X0196000Y0202000D01*
X0197000Y0201000D01*
X0206000Y0201000D01*
X0206000Y0211000D01*
X0197000Y0211000D01*
X0196000Y0210000D01*
X0195000Y0211000D01*
X0187000Y0211000D01*
X0186000Y0210000D01*
X0185000Y0211000D01*
X0177000Y0211000D01*
X0176000Y0210000D01*
X0175000Y0211000D01*
X0167000Y0211000D01*
X0166000Y0210000D01*
X0165000Y0211000D01*
X0156000Y0211000D01*
X0202000Y0130500D02*
X0210000Y0130500D01*
X0210060Y0130498D01*
X0210121Y0130493D01*
X0210180Y0130484D01*
X0210239Y0130471D01*
X0210298Y0130455D01*
X0210355Y0130435D01*
X0210410Y0130412D01*
X0210465Y0130385D01*
X0210517Y0130356D01*
X0210568Y0130323D01*
X0210617Y0130287D01*
X0210663Y0130249D01*
X0210707Y0130207D01*
X0210749Y0130163D01*
X0210787Y0130117D01*
X0210823Y0130068D01*
X0210856Y0130017D01*
X0210885Y0129965D01*
X0210912Y0129910D01*
X0210935Y0129855D01*
X0210955Y0129798D01*
X0210971Y0129739D01*
X0210984Y0129680D01*
X0210993Y0129621D01*
X0210998Y0129560D01*
X0211000Y0129500D01*
X0211000Y0102500D01*
X0210998Y0102440D01*
X0210993Y0102379D01*
X0210984Y0102320D01*
X0210971Y0102261D01*
X0210955Y0102202D01*
X0210935Y0102145D01*
X0210912Y0102090D01*
X0210885Y0102035D01*
X0210856Y0101983D01*
X0210823Y0101932D01*
X0210787Y0101883D01*
X0210749Y0101837D01*
X0210707Y0101793D01*
X0210663Y0101751D01*
X0210617Y0101713D01*
X0210568Y0101677D01*
X0210517Y0101644D01*
X0210465Y0101615D01*
X0210410Y0101588D01*
X0210355Y0101565D01*
X0210298Y0101545D01*
X0210239Y0101529D01*
X0210180Y0101516D01*
X0210121Y0101507D01*
X0210060Y0101502D01*
X0210000Y0101500D01*
X0202000Y0101500D01*
X0201940Y0101502D01*
X0201879Y0101507D01*
X0201820Y0101516D01*
X0201761Y0101529D01*
X0201702Y0101545D01*
X0201645Y0101565D01*
X0201590Y0101588D01*
X0201535Y0101615D01*
X0201483Y0101644D01*
X0201432Y0101677D01*
X0201383Y0101713D01*
X0201337Y0101751D01*
X0201293Y0101793D01*
X0201251Y0101837D01*
X0201213Y0101883D01*
X0201177Y0101932D01*
X0201144Y0101983D01*
X0201115Y0102035D01*
X0201088Y0102090D01*
X0201065Y0102145D01*
X0201045Y0102202D01*
X0201029Y0102261D01*
X0201016Y0102320D01*
X0201007Y0102379D01*
X0201002Y0102440D01*
X0201000Y0102500D01*
X0201000Y0129500D01*
X0201002Y0129560D01*
X0201007Y0129621D01*
X0201016Y0129680D01*
X0201029Y0129739D01*
X0201045Y0129798D01*
X0201065Y0129855D01*
X0201088Y0129910D01*
X0201115Y0129965D01*
X0201144Y0130017D01*
X0201177Y0130068D01*
X0201213Y0130117D01*
X0201251Y0130163D01*
X0201293Y0130207D01*
X0201337Y0130249D01*
X0201383Y0130287D01*
X0201432Y0130323D01*
X0201483Y0130356D01*
X0201535Y0130385D01*
X0201590Y0130412D01*
X0201645Y0130435D01*
X0201702Y0130455D01*
X0201761Y0130471D01*
X0201820Y0130484D01*
X0201879Y0130493D01*
X0201940Y0130498D01*
X0202000Y0130500D01*
X0206000Y0122000D02*
X0206000Y0117300D01*
X0206000Y0114800D02*
X0206000Y0110000D01*
X0221000Y0102500D02*
X0221000Y0129500D01*
X0221002Y0129560D01*
X0221007Y0129621D01*
X0221016Y0129680D01*
X0221029Y0129739D01*
X0221045Y0129798D01*
X0221065Y0129855D01*
X0221088Y0129910D01*
X0221115Y0129965D01*
X0221144Y0130017D01*
X0221177Y0130068D01*
X0221213Y0130117D01*
X0221251Y0130163D01*
X0221293Y0130207D01*
X0221337Y0130249D01*
X0221383Y0130287D01*
X0221432Y0130323D01*
X0221483Y0130356D01*
X0221535Y0130385D01*
X0221590Y0130412D01*
X0221645Y0130435D01*
X0221702Y0130455D01*
X0221761Y0130471D01*
X0221820Y0130484D01*
X0221879Y0130493D01*
X0221940Y0130498D01*
X0222000Y0130500D01*
X0230000Y0130500D01*
X0230060Y0130498D01*
X0230121Y0130493D01*
X0230180Y0130484D01*
X0230239Y0130471D01*
X0230298Y0130455D01*
X0230355Y0130435D01*
X0230410Y0130412D01*
X0230465Y0130385D01*
X0230517Y0130356D01*
X0230568Y0130323D01*
X0230617Y0130287D01*
X0230663Y0130249D01*
X0230707Y0130207D01*
X0230749Y0130163D01*
X0230787Y0130117D01*
X0230823Y0130068D01*
X0230856Y0130017D01*
X0230885Y0129965D01*
X0230912Y0129910D01*
X0230935Y0129855D01*
X0230955Y0129798D01*
X0230971Y0129739D01*
X0230984Y0129680D01*
X0230993Y0129621D01*
X0230998Y0129560D01*
X0231000Y0129500D01*
X0231000Y0102500D01*
X0230998Y0102440D01*
X0230993Y0102379D01*
X0230984Y0102320D01*
X0230971Y0102261D01*
X0230955Y0102202D01*
X0230935Y0102145D01*
X0230912Y0102090D01*
X0230885Y0102035D01*
X0230856Y0101983D01*
X0230823Y0101932D01*
X0230787Y0101883D01*
X0230749Y0101837D01*
X0230707Y0101793D01*
X0230663Y0101751D01*
X0230617Y0101713D01*
X0230568Y0101677D01*
X0230517Y0101644D01*
X0230465Y0101615D01*
X0230410Y0101588D01*
X0230355Y0101565D01*
X0230298Y0101545D01*
X0230239Y0101529D01*
X0230180Y0101516D01*
X0230121Y0101507D01*
X0230060Y0101502D01*
X0230000Y0101500D01*
X0222000Y0101500D01*
X0221940Y0101502D01*
X0221879Y0101507D01*
X0221820Y0101516D01*
X0221761Y0101529D01*
X0221702Y0101545D01*
X0221645Y0101565D01*
X0221590Y0101588D01*
X0221535Y0101615D01*
X0221483Y0101644D01*
X0221432Y0101677D01*
X0221383Y0101713D01*
X0221337Y0101751D01*
X0221293Y0101793D01*
X0221251Y0101837D01*
X0221213Y0101883D01*
X0221177Y0101932D01*
X0221144Y0101983D01*
X0221115Y0102035D01*
X0221088Y0102090D01*
X0221065Y0102145D01*
X0221045Y0102202D01*
X0221029Y0102261D01*
X0221016Y0102320D01*
X0221007Y0102379D01*
X0221002Y0102440D01*
X0221000Y0102500D01*
X0226000Y0110000D02*
X0226000Y0114800D01*
X0226000Y0117300D02*
X0226000Y0122000D01*
X0135000Y0115000D02*
X0135000Y0113500D01*
X0134500Y0113000D01*
X0134500Y0099000D01*
X0135000Y0098500D01*
X0135000Y0097000D01*
X0134998Y0096940D01*
X0134993Y0096879D01*
X0134984Y0096820D01*
X0134971Y0096761D01*
X0134955Y0096702D01*
X0134935Y0096645D01*
X0134912Y0096590D01*
X0134885Y0096535D01*
X0134856Y0096483D01*
X0134823Y0096432D01*
X0134787Y0096383D01*
X0134749Y0096337D01*
X0134707Y0096293D01*
X0134663Y0096251D01*
X0134617Y0096213D01*
X0134568Y0096177D01*
X0134517Y0096144D01*
X0134465Y0096115D01*
X0134410Y0096088D01*
X0134355Y0096065D01*
X0134298Y0096045D01*
X0134239Y0096029D01*
X0134180Y0096016D01*
X0134121Y0096007D01*
X0134060Y0096002D01*
X0134000Y0096000D01*
X0128000Y0096000D01*
X0127940Y0096002D01*
X0127879Y0096007D01*
X0127820Y0096016D01*
X0127761Y0096029D01*
X0127702Y0096045D01*
X0127645Y0096065D01*
X0127590Y0096088D01*
X0127535Y0096115D01*
X0127483Y0096144D01*
X0127432Y0096177D01*
X0127383Y0096213D01*
X0127337Y0096251D01*
X0127293Y0096293D01*
X0127251Y0096337D01*
X0127213Y0096383D01*
X0127177Y0096432D01*
X0127144Y0096483D01*
X0127115Y0096535D01*
X0127088Y0096590D01*
X0127065Y0096645D01*
X0127045Y0096702D01*
X0127029Y0096761D01*
X0127016Y0096820D01*
X0127007Y0096879D01*
X0127002Y0096940D01*
X0127000Y0097000D01*
X0127000Y0098500D01*
X0127500Y0099000D01*
X0127500Y0113000D01*
X0127000Y0113500D01*
X0127000Y0115000D01*
X0127002Y0115060D01*
X0127007Y0115121D01*
X0127016Y0115180D01*
X0127029Y0115239D01*
X0127045Y0115298D01*
X0127065Y0115355D01*
X0127088Y0115410D01*
X0127115Y0115465D01*
X0127144Y0115517D01*
X0127177Y0115568D01*
X0127213Y0115617D01*
X0127251Y0115663D01*
X0127293Y0115707D01*
X0127337Y0115749D01*
X0127383Y0115787D01*
X0127432Y0115823D01*
X0127483Y0115856D01*
X0127535Y0115885D01*
X0127590Y0115912D01*
X0127645Y0115935D01*
X0127702Y0115955D01*
X0127761Y0115971D01*
X0127820Y0115984D01*
X0127879Y0115993D01*
X0127940Y0115998D01*
X0128000Y0116000D01*
X0134000Y0116000D01*
X0134060Y0115998D01*
X0134121Y0115993D01*
X0134180Y0115984D01*
X0134239Y0115971D01*
X0134298Y0115955D01*
X0134355Y0115935D01*
X0134410Y0115912D01*
X0134465Y0115885D01*
X0134517Y0115856D01*
X0134568Y0115823D01*
X0134617Y0115787D01*
X0134663Y0115749D01*
X0134707Y0115707D01*
X0134749Y0115663D01*
X0134787Y0115617D01*
X0134823Y0115568D01*
X0134856Y0115517D01*
X0134885Y0115465D01*
X0134912Y0115410D01*
X0134935Y0115355D01*
X0134955Y0115298D01*
X0134971Y0115239D01*
X0134984Y0115180D01*
X0134993Y0115121D01*
X0134998Y0115060D01*
X0135000Y0115000D01*
D14*
X0216000Y0094500D03*
D15*
X0233250Y0092000D03*
X0198750Y0092000D03*
D16*
X0211000Y0092000D03*
X0221000Y0092000D03*
D17*
X0223500Y0114800D02*
X0226000Y0114800D01*
X0228500Y0114800D01*
X0228500Y0117300D02*
X0226000Y0117300D01*
X0223500Y0117300D01*
X0208500Y0117300D02*
X0206000Y0117300D01*
X0203500Y0117300D01*
X0203500Y0114800D02*
X0206000Y0114800D01*
X0208500Y0114800D01*
D18*
X0131750Y0236000D03*
X0110250Y0236000D03*
D19*
X0131000Y0116750D03*
X0131000Y0095250D03*
M02*
