%
M48
M72
T01C0.02559
T02C0.03200
T03C0.03937
T04C0.04000
T05C0.04400
T06C0.11811
%
T01
X52000Y77000
X47000Y107000
X47000Y122000
X87000Y122000
T02
X62000Y147000
X12000Y147000
T03
X132000Y142000
X132000Y132000
X132000Y102000
X132000Y92000
X132000Y62000
X132000Y52000
X132000Y22000
X132000Y12000
T04
X102000Y12000
X102000Y22000
X102000Y32000
X102000Y52000
X102000Y62000
X102000Y72000
X102000Y92000
X102000Y102000
X102000Y112000
X102000Y132000
X102000Y142000
X102000Y152000
X77000Y107000
X77000Y97000
X77000Y87000
X77000Y77000
X77000Y67000
X77000Y57000
X77000Y47000
X77000Y37000
X77000Y27000
X62000Y37000
X62000Y47000
X62000Y57000
X62000Y67000
X62000Y77000
X62000Y87000
X62000Y97000
X37000Y97000
X37000Y87000
X37000Y77000
X37000Y67000
X37000Y57000
X37000Y47000
X37000Y37000
X22000Y37000
X22000Y27000
X22000Y47000
X22000Y57000
X22000Y67000
X22000Y77000
X22000Y87000
X22000Y97000
X22000Y107000
T05
X47000Y132000
X87000Y132000
T06
X12000Y12000
X27000Y132000
X132000Y117000
X132000Y37000
M30
