G75*
%MOIN*%
%OFA0B0*%
%FSLAX25Y25*%
%IPPOS*%
%LPD*%
%AMOC8*
5,1,8,0,0,1.08239X$1,22.5*
%
%ADD10C,0.00600*%
%ADD11C,0.00500*%
%ADD12C,0.01000*%
%ADD13R,0.02000X0.10000*%
%ADD14R,0.07500X0.03000*%
%ADD15C,0.02400*%
%ADD16R,0.03400X0.02400*%
D10*
X0019500Y0022000D02*
X0024500Y0022000D01*
X0027000Y0024500D01*
X0027000Y0029500D01*
X0024500Y0032000D01*
X0027000Y0034500D01*
X0027000Y0039500D01*
X0024500Y0042000D01*
X0027000Y0044500D01*
X0027000Y0049500D01*
X0024500Y0052000D01*
X0027000Y0054500D01*
X0027000Y0059500D01*
X0024500Y0062000D01*
X0027000Y0064500D01*
X0027000Y0069500D01*
X0024500Y0072000D01*
X0027000Y0074500D01*
X0027000Y0079500D01*
X0024500Y0082000D01*
X0027000Y0084500D01*
X0027000Y0089500D01*
X0024500Y0092000D01*
X0027000Y0094500D01*
X0027000Y0099500D01*
X0024500Y0102000D01*
X0027000Y0104500D01*
X0027000Y0109500D01*
X0024500Y0112000D01*
X0019500Y0112000D01*
X0017000Y0109500D01*
X0017000Y0104500D01*
X0019500Y0102000D01*
X0017000Y0099500D01*
X0017000Y0094500D01*
X0019500Y0092000D01*
X0017000Y0089500D01*
X0017000Y0084500D01*
X0019500Y0082000D01*
X0017000Y0079500D01*
X0017000Y0074500D01*
X0019500Y0072000D01*
X0017000Y0069500D01*
X0017000Y0064500D01*
X0019500Y0062000D01*
X0017000Y0059500D01*
X0017000Y0054500D01*
X0019500Y0052000D01*
X0017000Y0049500D01*
X0017000Y0044500D01*
X0019500Y0042000D01*
X0017000Y0039500D01*
X0017000Y0034500D01*
X0019500Y0032000D01*
X0017000Y0029500D01*
X0017000Y0024500D01*
X0019500Y0022000D01*
X0032000Y0034500D02*
X0032000Y0039500D01*
X0034500Y0042000D01*
X0032000Y0044500D01*
X0032000Y0049500D01*
X0034500Y0052000D01*
X0032000Y0054500D01*
X0032000Y0059500D01*
X0034500Y0062000D01*
X0032000Y0064500D01*
X0032000Y0069500D01*
X0034500Y0072000D01*
X0032000Y0074500D01*
X0032000Y0079500D01*
X0034500Y0082000D01*
X0032000Y0084500D01*
X0032000Y0089500D01*
X0034500Y0092000D01*
X0032000Y0094500D01*
X0032000Y0099500D01*
X0034500Y0102000D01*
X0039500Y0102000D01*
X0042000Y0099500D01*
X0042000Y0094500D01*
X0039500Y0092000D01*
X0042000Y0089500D01*
X0042000Y0084500D01*
X0039500Y0082000D01*
X0042000Y0079500D01*
X0042000Y0074500D01*
X0039500Y0072000D01*
X0042000Y0069500D01*
X0042000Y0064500D01*
X0039500Y0062000D01*
X0042000Y0059500D01*
X0042000Y0054500D01*
X0039500Y0052000D01*
X0042000Y0049500D01*
X0042000Y0044500D01*
X0039500Y0042000D01*
X0042000Y0039500D01*
X0042000Y0034500D01*
X0039500Y0032000D01*
X0034500Y0032000D01*
X0032000Y0034500D01*
X0057000Y0034500D02*
X0059500Y0032000D01*
X0064500Y0032000D01*
X0067000Y0034500D01*
X0067000Y0039500D01*
X0064500Y0042000D01*
X0067000Y0044500D01*
X0067000Y0049500D01*
X0064500Y0052000D01*
X0067000Y0054500D01*
X0067000Y0059500D01*
X0064500Y0062000D01*
X0067000Y0064500D01*
X0067000Y0069500D01*
X0064500Y0072000D01*
X0067000Y0074500D01*
X0067000Y0079500D01*
X0064500Y0082000D01*
X0067000Y0084500D01*
X0067000Y0089500D01*
X0064500Y0092000D01*
X0067000Y0094500D01*
X0067000Y0099500D01*
X0064500Y0102000D01*
X0059500Y0102000D01*
X0057000Y0099500D01*
X0057000Y0094500D01*
X0059500Y0092000D01*
X0057000Y0089500D01*
X0057000Y0084500D01*
X0059500Y0082000D01*
X0057000Y0079500D01*
X0057000Y0074500D01*
X0059500Y0072000D01*
X0057000Y0069500D01*
X0057000Y0064500D01*
X0059500Y0062000D01*
X0057000Y0059500D01*
X0057000Y0054500D01*
X0059500Y0052000D01*
X0057000Y0049500D01*
X0057000Y0044500D01*
X0059500Y0042000D01*
X0057000Y0039500D01*
X0057000Y0034500D01*
X0072000Y0034500D02*
X0072000Y0039500D01*
X0074500Y0042000D01*
X0072000Y0044500D01*
X0072000Y0049500D01*
X0074500Y0052000D01*
X0072000Y0054500D01*
X0072000Y0059500D01*
X0074500Y0062000D01*
X0072000Y0064500D01*
X0072000Y0069500D01*
X0074500Y0072000D01*
X0072000Y0074500D01*
X0072000Y0079500D01*
X0074500Y0082000D01*
X0072000Y0084500D01*
X0072000Y0089500D01*
X0074500Y0092000D01*
X0072000Y0094500D01*
X0072000Y0099500D01*
X0074500Y0102000D01*
X0072000Y0104500D01*
X0072000Y0109500D01*
X0074500Y0112000D01*
X0079500Y0112000D01*
X0082000Y0109500D01*
X0082000Y0104500D01*
X0079500Y0102000D01*
X0082000Y0099500D01*
X0082000Y0094500D01*
X0079500Y0092000D01*
X0082000Y0089500D01*
X0082000Y0084500D01*
X0079500Y0082000D01*
X0082000Y0079500D01*
X0082000Y0074500D01*
X0079500Y0072000D01*
X0082000Y0069500D01*
X0082000Y0064500D01*
X0079500Y0062000D01*
X0082000Y0059500D01*
X0082000Y0054500D01*
X0079500Y0052000D01*
X0082000Y0049500D01*
X0082000Y0044500D01*
X0079500Y0042000D01*
X0082000Y0039500D01*
X0082000Y0034500D01*
X0079500Y0032000D01*
X0082000Y0029500D01*
X0082000Y0024500D01*
X0079500Y0022000D01*
X0074500Y0022000D01*
X0072000Y0024500D01*
X0072000Y0029500D01*
X0074500Y0032000D01*
X0072000Y0034500D01*
X0097000Y0034500D02*
X0097000Y0029500D01*
X0099500Y0027000D01*
X0097000Y0024500D01*
X0097000Y0019500D01*
X0099500Y0017000D01*
X0097000Y0014500D01*
X0097000Y0009500D01*
X0099500Y0007000D01*
X0104500Y0007000D01*
X0107000Y0009500D01*
X0107000Y0014500D01*
X0104500Y0017000D01*
X0107000Y0019500D01*
X0107000Y0024500D01*
X0104500Y0027000D01*
X0107000Y0029500D01*
X0107000Y0034500D01*
X0104500Y0037000D01*
X0099500Y0037000D01*
X0097000Y0034500D01*
X0099500Y0047000D02*
X0104500Y0047000D01*
X0107000Y0049500D01*
X0107000Y0054500D01*
X0104500Y0057000D01*
X0107000Y0059500D01*
X0107000Y0064500D01*
X0104500Y0067000D01*
X0107000Y0069500D01*
X0107000Y0074500D01*
X0104500Y0077000D01*
X0099500Y0077000D01*
X0097000Y0074500D01*
X0097000Y0069500D01*
X0099500Y0067000D01*
X0097000Y0064500D01*
X0097000Y0059500D01*
X0099500Y0057000D01*
X0097000Y0054500D01*
X0097000Y0049500D01*
X0099500Y0047000D01*
X0099500Y0087000D02*
X0104500Y0087000D01*
X0107000Y0089500D01*
X0107000Y0094500D01*
X0104500Y0097000D01*
X0107000Y0099500D01*
X0107000Y0104500D01*
X0104500Y0107000D01*
X0107000Y0109500D01*
X0107000Y0114500D01*
X0104500Y0117000D01*
X0099500Y0117000D01*
X0097000Y0114500D01*
X0097000Y0109500D01*
X0099500Y0107000D01*
X0097000Y0104500D01*
X0097000Y0099500D01*
X0099500Y0097000D01*
X0097000Y0094500D01*
X0097000Y0089500D01*
X0099500Y0087000D01*
X0099500Y0127000D02*
X0104500Y0127000D01*
X0107000Y0129500D01*
X0107000Y0134500D01*
X0104500Y0137000D01*
X0107000Y0139500D01*
X0107000Y0144500D01*
X0104500Y0147000D01*
X0107000Y0149500D01*
X0107000Y0154500D01*
X0104500Y0157000D01*
X0099500Y0157000D01*
X0097000Y0154500D01*
X0097000Y0149500D01*
X0099500Y0147000D01*
X0097000Y0144500D01*
X0097000Y0139500D01*
X0099500Y0137000D01*
X0097000Y0134500D01*
X0097000Y0129500D01*
X0099500Y0127000D01*
X0075000Y0127000D02*
X0075000Y0137000D01*
X0059000Y0137000D01*
X0059000Y0127000D01*
X0075000Y0127000D01*
X0071000Y0129500D02*
X0067000Y0132000D01*
X0067000Y0129500D01*
X0067000Y0132000D02*
X0064500Y0132000D01*
X0067000Y0132000D02*
X0067000Y0134500D01*
X0067000Y0132000D02*
X0071000Y0134500D01*
X0071000Y0129500D01*
X0073000Y0132000D02*
X0067000Y0132000D01*
X0049500Y0143500D02*
X0049500Y0150500D01*
X0049498Y0150560D01*
X0049493Y0150621D01*
X0049484Y0150680D01*
X0049471Y0150739D01*
X0049455Y0150798D01*
X0049435Y0150855D01*
X0049412Y0150910D01*
X0049385Y0150965D01*
X0049356Y0151017D01*
X0049323Y0151068D01*
X0049287Y0151117D01*
X0049249Y0151163D01*
X0049207Y0151207D01*
X0049163Y0151249D01*
X0049117Y0151287D01*
X0049068Y0151323D01*
X0049017Y0151356D01*
X0048965Y0151385D01*
X0048910Y0151412D01*
X0048855Y0151435D01*
X0048798Y0151455D01*
X0048739Y0151471D01*
X0048680Y0151484D01*
X0048621Y0151493D01*
X0048560Y0151498D01*
X0048500Y0151500D01*
X0047000Y0151500D01*
X0046500Y0151000D01*
X0027500Y0151000D01*
X0027000Y0151500D01*
X0025500Y0151500D01*
X0025440Y0151498D01*
X0025379Y0151493D01*
X0025320Y0151484D01*
X0025261Y0151471D01*
X0025202Y0151455D01*
X0025145Y0151435D01*
X0025090Y0151412D01*
X0025035Y0151385D01*
X0024983Y0151356D01*
X0024932Y0151323D01*
X0024883Y0151287D01*
X0024837Y0151249D01*
X0024793Y0151207D01*
X0024751Y0151163D01*
X0024713Y0151117D01*
X0024677Y0151068D01*
X0024644Y0151017D01*
X0024615Y0150965D01*
X0024588Y0150910D01*
X0024565Y0150855D01*
X0024545Y0150798D01*
X0024529Y0150739D01*
X0024516Y0150680D01*
X0024507Y0150621D01*
X0024502Y0150560D01*
X0024500Y0150500D01*
X0024500Y0143500D01*
X0024502Y0143440D01*
X0024507Y0143379D01*
X0024516Y0143320D01*
X0024529Y0143261D01*
X0024545Y0143202D01*
X0024565Y0143145D01*
X0024588Y0143090D01*
X0024615Y0143035D01*
X0024644Y0142983D01*
X0024677Y0142932D01*
X0024713Y0142883D01*
X0024751Y0142837D01*
X0024793Y0142793D01*
X0024837Y0142751D01*
X0024883Y0142713D01*
X0024932Y0142677D01*
X0024983Y0142644D01*
X0025035Y0142615D01*
X0025090Y0142588D01*
X0025145Y0142565D01*
X0025202Y0142545D01*
X0025261Y0142529D01*
X0025320Y0142516D01*
X0025379Y0142507D01*
X0025440Y0142502D01*
X0025500Y0142500D01*
X0027000Y0142500D01*
X0027500Y0143000D01*
X0046500Y0143000D01*
X0047000Y0142500D01*
X0048500Y0142500D01*
X0048560Y0142502D01*
X0048621Y0142507D01*
X0048680Y0142516D01*
X0048739Y0142529D01*
X0048798Y0142545D01*
X0048855Y0142565D01*
X0048910Y0142588D01*
X0048965Y0142615D01*
X0049017Y0142644D01*
X0049068Y0142677D01*
X0049117Y0142713D01*
X0049163Y0142751D01*
X0049207Y0142793D01*
X0049249Y0142837D01*
X0049287Y0142883D01*
X0049323Y0142932D01*
X0049356Y0142983D01*
X0049385Y0143035D01*
X0049412Y0143090D01*
X0049435Y0143145D01*
X0049455Y0143202D01*
X0049471Y0143261D01*
X0049484Y0143320D01*
X0049493Y0143379D01*
X0049498Y0143440D01*
X0049500Y0143500D01*
D11*
X0067000Y0107750D02*
X0068250Y0107750D01*
X0068250Y0106250D01*
X0068250Y0107750D02*
X0068337Y0107748D01*
X0068424Y0107742D01*
X0068511Y0107733D01*
X0068597Y0107720D01*
X0068683Y0107703D01*
X0068768Y0107682D01*
X0068851Y0107657D01*
X0068934Y0107629D01*
X0069015Y0107598D01*
X0069095Y0107563D01*
X0069173Y0107524D01*
X0069250Y0107482D01*
X0069325Y0107437D01*
X0069397Y0107388D01*
X0069468Y0107337D01*
X0069536Y0107282D01*
X0069601Y0107225D01*
X0069664Y0107164D01*
X0069725Y0107101D01*
X0069782Y0107036D01*
X0069837Y0106968D01*
X0069888Y0106897D01*
X0069937Y0106825D01*
X0069982Y0106750D01*
X0070024Y0106673D01*
X0070063Y0106595D01*
X0070098Y0106515D01*
X0070129Y0106434D01*
X0070157Y0106351D01*
X0070182Y0106268D01*
X0070203Y0106183D01*
X0070220Y0106097D01*
X0070233Y0106011D01*
X0070242Y0105924D01*
X0070248Y0105837D01*
X0070250Y0105750D01*
X0067250Y0105250D02*
X0067000Y0105250D01*
X0067250Y0105250D02*
X0067310Y0105252D01*
X0067371Y0105257D01*
X0067430Y0105266D01*
X0067489Y0105279D01*
X0067548Y0105295D01*
X0067605Y0105315D01*
X0067660Y0105338D01*
X0067715Y0105365D01*
X0067767Y0105394D01*
X0067818Y0105427D01*
X0067867Y0105463D01*
X0067913Y0105501D01*
X0067957Y0105543D01*
X0067999Y0105587D01*
X0068037Y0105633D01*
X0068073Y0105682D01*
X0068106Y0105733D01*
X0068135Y0105785D01*
X0068162Y0105840D01*
X0068185Y0105895D01*
X0068205Y0105952D01*
X0068221Y0106011D01*
X0068234Y0106070D01*
X0068243Y0106129D01*
X0068248Y0106190D01*
X0068250Y0106250D01*
X0067000Y0105250D02*
X0066931Y0105252D01*
X0066862Y0105258D01*
X0066794Y0105267D01*
X0066727Y0105280D01*
X0066660Y0105297D01*
X0066594Y0105318D01*
X0066530Y0105342D01*
X0066467Y0105370D01*
X0066405Y0105401D01*
X0066345Y0105435D01*
X0066288Y0105473D01*
X0066232Y0105514D01*
X0066179Y0105557D01*
X0066128Y0105604D01*
X0066080Y0105653D01*
X0066035Y0105705D01*
X0065993Y0105760D01*
X0065954Y0105816D01*
X0065917Y0105875D01*
X0065885Y0105936D01*
X0065855Y0105998D01*
X0065829Y0106062D01*
X0065807Y0106127D01*
X0065788Y0106193D01*
X0065773Y0106260D01*
X0065762Y0106328D01*
X0065754Y0106397D01*
X0065750Y0106466D01*
X0065750Y0106534D01*
X0065754Y0106603D01*
X0065762Y0106672D01*
X0065773Y0106740D01*
X0065788Y0106807D01*
X0065807Y0106873D01*
X0065829Y0106938D01*
X0065855Y0107002D01*
X0065885Y0107064D01*
X0065917Y0107125D01*
X0065954Y0107184D01*
X0065993Y0107240D01*
X0066035Y0107295D01*
X0066080Y0107347D01*
X0066128Y0107396D01*
X0066179Y0107443D01*
X0066232Y0107486D01*
X0066288Y0107527D01*
X0066345Y0107565D01*
X0066405Y0107599D01*
X0066467Y0107630D01*
X0066530Y0107658D01*
X0066594Y0107682D01*
X0066660Y0107703D01*
X0066727Y0107720D01*
X0066794Y0107733D01*
X0066862Y0107742D01*
X0066931Y0107748D01*
X0067000Y0107750D01*
X0055250Y0097000D02*
X0050750Y0098250D01*
X0050750Y0095750D01*
X0051250Y0095750D01*
X0030250Y0096750D02*
X0030250Y0099250D01*
X0030250Y0098000D02*
X0025750Y0098000D01*
X0026750Y0096750D01*
X0015250Y0106250D02*
X0015250Y0108750D01*
X0015250Y0107500D02*
X0010750Y0107500D01*
X0011750Y0106250D01*
X0043750Y0038250D02*
X0048250Y0037000D01*
X0044250Y0035750D02*
X0043750Y0035750D01*
X0043750Y0038250D01*
X0031250Y0028750D02*
X0031250Y0027250D01*
X0031250Y0028750D02*
X0031337Y0028748D01*
X0031424Y0028742D01*
X0031511Y0028733D01*
X0031597Y0028720D01*
X0031683Y0028703D01*
X0031768Y0028682D01*
X0031851Y0028657D01*
X0031934Y0028629D01*
X0032015Y0028598D01*
X0032095Y0028563D01*
X0032173Y0028524D01*
X0032250Y0028482D01*
X0032325Y0028437D01*
X0032397Y0028388D01*
X0032468Y0028337D01*
X0032536Y0028282D01*
X0032601Y0028225D01*
X0032664Y0028164D01*
X0032725Y0028101D01*
X0032782Y0028036D01*
X0032837Y0027968D01*
X0032888Y0027897D01*
X0032937Y0027825D01*
X0032982Y0027750D01*
X0033024Y0027673D01*
X0033063Y0027595D01*
X0033098Y0027515D01*
X0033129Y0027434D01*
X0033157Y0027351D01*
X0033182Y0027268D01*
X0033203Y0027183D01*
X0033220Y0027097D01*
X0033233Y0027011D01*
X0033242Y0026924D01*
X0033248Y0026837D01*
X0033250Y0026750D01*
X0031250Y0028750D02*
X0030000Y0028750D01*
X0029931Y0028748D01*
X0029862Y0028742D01*
X0029794Y0028733D01*
X0029727Y0028720D01*
X0029660Y0028703D01*
X0029594Y0028682D01*
X0029530Y0028658D01*
X0029467Y0028630D01*
X0029405Y0028599D01*
X0029345Y0028565D01*
X0029288Y0028527D01*
X0029232Y0028486D01*
X0029179Y0028443D01*
X0029128Y0028396D01*
X0029080Y0028347D01*
X0029035Y0028295D01*
X0028993Y0028240D01*
X0028954Y0028184D01*
X0028917Y0028125D01*
X0028885Y0028064D01*
X0028855Y0028002D01*
X0028829Y0027938D01*
X0028807Y0027873D01*
X0028788Y0027807D01*
X0028773Y0027740D01*
X0028762Y0027672D01*
X0028754Y0027603D01*
X0028750Y0027534D01*
X0028750Y0027466D01*
X0028754Y0027397D01*
X0028762Y0027328D01*
X0028773Y0027260D01*
X0028788Y0027193D01*
X0028807Y0027127D01*
X0028829Y0027062D01*
X0028855Y0026998D01*
X0028885Y0026936D01*
X0028917Y0026875D01*
X0028954Y0026816D01*
X0028993Y0026760D01*
X0029035Y0026705D01*
X0029080Y0026653D01*
X0029128Y0026604D01*
X0029179Y0026557D01*
X0029232Y0026514D01*
X0029288Y0026473D01*
X0029345Y0026435D01*
X0029405Y0026401D01*
X0029467Y0026370D01*
X0029530Y0026342D01*
X0029594Y0026318D01*
X0029660Y0026297D01*
X0029727Y0026280D01*
X0029794Y0026267D01*
X0029862Y0026258D01*
X0029931Y0026252D01*
X0030000Y0026250D01*
X0030250Y0026250D01*
X0030310Y0026252D01*
X0030371Y0026257D01*
X0030430Y0026266D01*
X0030489Y0026279D01*
X0030548Y0026295D01*
X0030605Y0026315D01*
X0030660Y0026338D01*
X0030715Y0026365D01*
X0030767Y0026394D01*
X0030818Y0026427D01*
X0030867Y0026463D01*
X0030913Y0026501D01*
X0030957Y0026543D01*
X0030999Y0026587D01*
X0031037Y0026633D01*
X0031073Y0026682D01*
X0031106Y0026733D01*
X0031135Y0026785D01*
X0031162Y0026840D01*
X0031185Y0026895D01*
X0031205Y0026952D01*
X0031221Y0027011D01*
X0031234Y0027070D01*
X0031243Y0027129D01*
X0031248Y0027190D01*
X0031250Y0027250D01*
X0068750Y0036000D02*
X0073250Y0036000D01*
X0073250Y0034750D02*
X0073250Y0037250D01*
X0069750Y0034750D02*
X0068750Y0036000D01*
X0083750Y0026500D02*
X0084750Y0025250D01*
X0083750Y0026500D02*
X0088250Y0026500D01*
X0088250Y0025250D02*
X0088250Y0027750D01*
X0100750Y0039250D02*
X0099750Y0040500D01*
X0104250Y0040500D01*
X0104250Y0039250D02*
X0104250Y0041750D01*
X0104250Y0079250D02*
X0104250Y0081750D01*
X0104250Y0080500D02*
X0099750Y0080500D01*
X0100750Y0079250D01*
X0100750Y0119250D02*
X0099750Y0120500D01*
X0104250Y0120500D01*
X0104250Y0119250D02*
X0104250Y0121750D01*
X0104250Y0159250D02*
X0104250Y0161750D01*
X0104250Y0160500D02*
X0099750Y0160500D01*
X0100750Y0159250D01*
D12*
X0119500Y0147000D02*
X0127000Y0147000D01*
X0127000Y0127000D01*
X0119500Y0127000D01*
X0119500Y0147000D01*
X0127000Y0147000D02*
X0144500Y0147000D01*
X0144500Y0127000D01*
X0127000Y0127000D01*
X0127000Y0107000D02*
X0119500Y0107000D01*
X0119500Y0087000D01*
X0127000Y0087000D01*
X0127000Y0107000D01*
X0144500Y0107000D01*
X0144500Y0087000D01*
X0127000Y0087000D01*
X0127000Y0067000D02*
X0119500Y0067000D01*
X0119500Y0047000D01*
X0127000Y0047000D01*
X0127000Y0067000D01*
X0144500Y0067000D01*
X0144500Y0047000D01*
X0127000Y0047000D01*
X0127000Y0027000D02*
X0119500Y0027000D01*
X0119500Y0007000D01*
X0127000Y0007000D01*
X0127000Y0027000D01*
X0144500Y0027000D01*
X0144500Y0007000D01*
X0127000Y0007000D01*
D13*
X0061500Y0132000D03*
D14*
X0055250Y0132000D03*
X0078750Y0132000D03*
D15*
X0054500Y0147000D02*
X0053000Y0147000D01*
X0021000Y0147000D02*
X0019500Y0147000D01*
D16*
X0017800Y0147000D03*
X0022800Y0147000D03*
X0051200Y0147000D03*
X0056200Y0147000D03*
M02*
