G75*
%MOIN*%
%OFA0B0*%
%FSLAX25Y25*%
%IPPOS*%
%LPD*%
%AMOC8*
5,1,8,0,0,1.08239X$1,22.5*
%
%ADD10C,0.12611*%
%ADD11C,0.06737*%
%ADD12C,0.06800*%
%ADD13C,0.07400*%
%ADD14OC8,0.06000*%
%ADD15C,0.06000*%
%ADD16C,0.04959*%
D10*
X0012000Y0012000D03*
X0027000Y0132000D03*
X0132000Y0117000D03*
X0132000Y0037000D03*
D11*
X0134969Y0022000D02*
X0129031Y0022000D01*
X0129031Y0012000D02*
X0134969Y0012000D01*
X0134969Y0052000D02*
X0129031Y0052000D01*
X0129031Y0062000D02*
X0134969Y0062000D01*
X0134969Y0092000D02*
X0129031Y0092000D01*
X0129031Y0102000D02*
X0134969Y0102000D01*
X0134969Y0132000D02*
X0129031Y0132000D01*
X0129031Y0142000D02*
X0134969Y0142000D01*
D12*
X0105000Y0142000D02*
X0099000Y0142000D01*
X0099000Y0132000D02*
X0105000Y0132000D01*
X0105000Y0152000D02*
X0099000Y0152000D01*
X0099000Y0112000D02*
X0105000Y0112000D01*
X0105000Y0102000D02*
X0099000Y0102000D01*
X0099000Y0092000D02*
X0105000Y0092000D01*
X0105000Y0072000D02*
X0099000Y0072000D01*
X0099000Y0062000D02*
X0105000Y0062000D01*
X0105000Y0052000D02*
X0099000Y0052000D01*
X0080000Y0047000D02*
X0074000Y0047000D01*
X0074000Y0037000D02*
X0080000Y0037000D01*
X0080000Y0027000D02*
X0074000Y0027000D01*
X0099000Y0022000D02*
X0105000Y0022000D01*
X0105000Y0012000D02*
X0099000Y0012000D01*
X0099000Y0032000D02*
X0105000Y0032000D01*
X0080000Y0057000D02*
X0074000Y0057000D01*
X0074000Y0067000D02*
X0080000Y0067000D01*
X0080000Y0077000D02*
X0074000Y0077000D01*
X0074000Y0087000D02*
X0080000Y0087000D01*
X0080000Y0097000D02*
X0074000Y0097000D01*
X0074000Y0107000D02*
X0080000Y0107000D01*
X0020000Y0107000D02*
X0014000Y0107000D01*
X0014000Y0097000D02*
X0020000Y0097000D01*
X0020000Y0087000D02*
X0014000Y0087000D01*
X0014000Y0077000D02*
X0020000Y0077000D01*
X0020000Y0067000D02*
X0014000Y0067000D01*
X0014000Y0057000D02*
X0020000Y0057000D01*
X0020000Y0047000D02*
X0014000Y0047000D01*
X0014000Y0037000D02*
X0020000Y0037000D01*
X0020000Y0027000D02*
X0014000Y0027000D01*
D13*
X0047000Y0132000D03*
X0087000Y0132000D03*
D14*
X0062000Y0147000D03*
X0012000Y0147000D03*
D15*
X0029400Y0097000D02*
X0034600Y0097000D01*
X0034600Y0087000D02*
X0029400Y0087000D01*
X0029400Y0077000D02*
X0034600Y0077000D01*
X0034600Y0067000D02*
X0029400Y0067000D01*
X0029400Y0057000D02*
X0034600Y0057000D01*
X0034600Y0047000D02*
X0029400Y0047000D01*
X0029400Y0037000D02*
X0034600Y0037000D01*
X0059400Y0037000D02*
X0064600Y0037000D01*
X0064600Y0047000D02*
X0059400Y0047000D01*
X0059400Y0057000D02*
X0064600Y0057000D01*
X0064600Y0067000D02*
X0059400Y0067000D01*
X0059400Y0077000D02*
X0064600Y0077000D01*
X0064600Y0087000D02*
X0059400Y0087000D01*
X0059400Y0097000D02*
X0064600Y0097000D01*
D16*
X0047000Y0107000D03*
X0047000Y0122000D03*
X0087000Y0122000D03*
X0052000Y0077000D03*
M02*
