%
M48
M72
T01C0.04000
T02C0.04700
T03C0.07900
T04C0.11811
%
T01
X172000Y82000
X182000Y82000
X182000Y117000
X172000Y117000
X247000Y147000
X257000Y147000
X272000Y147000
X282000Y147000
X287000Y177000
X297000Y177000
X272000Y177000
X262000Y177000
X242000Y177000
X232000Y177000
T02
X206843Y172000
X187157Y172000
X166843Y172000
X147157Y172000
X22000Y136843
X22000Y117157
X22000Y76843
X22000Y57157
X147157Y22000
X166843Y22000
X187157Y22000
X206843Y22000
X227157Y22000
X246843Y22000
X267157Y22000
X286843Y22000
X307157Y22000
X326843Y22000
X317000Y52157
X317000Y71843
X317000Y92157
X317000Y111843
T03
X87000Y122000
X87000Y162000
X87000Y67000
X87000Y27000
T04
X17000Y17000
X17000Y177000
X282000Y57000
X327000Y177000
M30
