G75*
%MOIN*%
%OFA0B0*%
%FSLAX25Y25*%
%IPPOS*%
%LPD*%
%AMOC8*
5,1,8,0,0,1.08239X$1,22.5*
%
%ADD10C,0.07050*%
%ADD11C,0.18100*%
%ADD12OC8,0.18100*%
%ADD13C,0.06000*%
%ADD14C,0.02000*%
%ADD15C,0.05000*%
D10*
X0018475Y0057157D02*
X0025525Y0057157D01*
X0025525Y0076843D02*
X0018475Y0076843D01*
X0018475Y0117157D02*
X0025525Y0117157D01*
X0025525Y0136843D02*
X0018475Y0136843D01*
X0147157Y0168475D02*
X0147157Y0175525D01*
X0166843Y0175525D02*
X0166843Y0168475D01*
X0187157Y0168475D02*
X0187157Y0175525D01*
X0206843Y0175525D02*
X0206843Y0168475D01*
X0313475Y0111843D02*
X0320525Y0111843D01*
X0320525Y0092157D02*
X0313475Y0092157D01*
X0313475Y0071843D02*
X0320525Y0071843D01*
X0320525Y0052157D02*
X0313475Y0052157D01*
X0307157Y0025525D02*
X0307157Y0018475D01*
X0326843Y0018475D02*
X0326843Y0025525D01*
X0286843Y0025525D02*
X0286843Y0018475D01*
X0267157Y0018475D02*
X0267157Y0025525D01*
X0246843Y0025525D02*
X0246843Y0018475D01*
X0227157Y0018475D02*
X0227157Y0025525D01*
X0206843Y0025525D02*
X0206843Y0018475D01*
X0187157Y0018475D02*
X0187157Y0025525D01*
X0166843Y0025525D02*
X0166843Y0018475D01*
X0147157Y0018475D02*
X0147157Y0025525D01*
D11*
X0087000Y0027000D03*
X0087000Y0162000D03*
D12*
X0087000Y0122000D03*
X0087000Y0067000D03*
D13*
X0172000Y0079000D02*
X0172000Y0085000D01*
X0182000Y0085000D02*
X0182000Y0079000D01*
X0182000Y0114000D02*
X0182000Y0120000D01*
X0172000Y0120000D02*
X0172000Y0114000D01*
X0247000Y0144000D02*
X0247000Y0150000D01*
X0257000Y0150000D02*
X0257000Y0144000D01*
X0272000Y0144000D02*
X0272000Y0150000D01*
X0282000Y0150000D02*
X0282000Y0144000D01*
X0287000Y0174000D02*
X0287000Y0180000D01*
X0297000Y0180000D02*
X0297000Y0174000D01*
X0272000Y0174000D02*
X0272000Y0180000D01*
X0262000Y0180000D02*
X0262000Y0174000D01*
X0242000Y0174000D02*
X0242000Y0180000D01*
X0232000Y0180000D02*
X0232000Y0174000D01*
D14*
X0023696Y0008273D02*
X0021490Y0007000D01*
X0101202Y0007000D01*
X0091120Y0017081D01*
X0091111Y0017076D01*
X0088402Y0016350D01*
X0085598Y0016350D01*
X0082889Y0017076D01*
X0080461Y0018478D01*
X0078478Y0020461D01*
X0077076Y0022889D01*
X0077073Y0022900D01*
X0051184Y0022900D01*
X0049678Y0023524D01*
X0021169Y0052032D01*
X0017456Y0052032D01*
X0015572Y0052813D01*
X0014130Y0054254D01*
X0013350Y0056138D01*
X0013350Y0058177D01*
X0014130Y0060061D01*
X0015572Y0061502D01*
X0017456Y0062282D01*
X0026544Y0062282D01*
X0028428Y0061502D01*
X0029870Y0060061D01*
X0030650Y0058177D01*
X0030650Y0056138D01*
X0030067Y0054731D01*
X0053698Y0031100D01*
X0077073Y0031100D01*
X0077076Y0031111D01*
X0078478Y0033539D01*
X0080461Y0035522D01*
X0082889Y0036924D01*
X0085598Y0037650D01*
X0088402Y0037650D01*
X0091111Y0036924D01*
X0093539Y0035522D01*
X0095522Y0033539D01*
X0096924Y0031111D01*
X0097650Y0028402D01*
X0097650Y0025598D01*
X0096924Y0022889D01*
X0096919Y0022880D01*
X0107198Y0012600D01*
X0161802Y0012600D01*
X0162743Y0013541D01*
X0162743Y0015327D01*
X0162498Y0015572D01*
X0161718Y0017456D01*
X0161718Y0026544D01*
X0162498Y0028428D01*
X0163939Y0029870D01*
X0165823Y0030650D01*
X0167862Y0030650D01*
X0169746Y0029870D01*
X0171187Y0028428D01*
X0171968Y0026544D01*
X0171968Y0017456D01*
X0171187Y0015572D01*
X0170943Y0015327D01*
X0170943Y0011027D01*
X0170318Y0009520D01*
X0167798Y0007000D01*
X0192702Y0007000D01*
X0186352Y0013350D01*
X0186138Y0013350D01*
X0184254Y0014130D01*
X0182813Y0015572D01*
X0182032Y0017456D01*
X0182032Y0026544D01*
X0182813Y0028428D01*
X0184254Y0029870D01*
X0186138Y0030650D01*
X0188177Y0030650D01*
X0190061Y0029870D01*
X0191502Y0028428D01*
X0192282Y0026544D01*
X0192282Y0019016D01*
X0198698Y0012600D01*
X0242900Y0012600D01*
X0242900Y0015170D01*
X0242498Y0015572D01*
X0241718Y0017456D01*
X0241718Y0026544D01*
X0242498Y0028428D01*
X0242743Y0028673D01*
X0242743Y0072658D01*
X0242900Y0073038D01*
X0242900Y0087900D01*
X0186073Y0087900D01*
X0186276Y0087621D01*
X0186634Y0086919D01*
X0186877Y0086171D01*
X0187000Y0085394D01*
X0187000Y0082000D01*
X0182000Y0082000D01*
X0182000Y0082000D01*
X0187000Y0082000D01*
X0187000Y0078606D01*
X0186877Y0077829D01*
X0186634Y0077081D01*
X0186276Y0076379D01*
X0185814Y0075743D01*
X0185257Y0075186D01*
X0184621Y0074724D01*
X0183919Y0074366D01*
X0183171Y0074123D01*
X0182394Y0074000D01*
X0182000Y0074000D01*
X0182000Y0082000D01*
X0182000Y0082000D01*
X0182000Y0082000D01*
X0177000Y0082000D01*
X0177000Y0085394D01*
X0177123Y0086171D01*
X0177366Y0086919D01*
X0177724Y0087621D01*
X0177927Y0087900D01*
X0176100Y0087900D01*
X0176100Y0087122D01*
X0176600Y0085915D01*
X0176600Y0078085D01*
X0175900Y0076394D01*
X0174606Y0075100D01*
X0172915Y0074400D01*
X0171085Y0074400D01*
X0169394Y0075100D01*
X0168100Y0076394D01*
X0167400Y0078085D01*
X0167400Y0085915D01*
X0167900Y0087122D01*
X0167900Y0092816D01*
X0168524Y0094322D01*
X0169678Y0095476D01*
X0171184Y0096100D01*
X0242900Y0096100D01*
X0242900Y0112816D01*
X0243524Y0114322D01*
X0244678Y0115476D01*
X0246184Y0116100D01*
X0310485Y0116100D01*
X0310572Y0116187D01*
X0312456Y0116968D01*
X0321544Y0116968D01*
X0323428Y0116187D01*
X0324870Y0114746D01*
X0325650Y0112862D01*
X0325650Y0110823D01*
X0324870Y0108939D01*
X0323428Y0107498D01*
X0321544Y0106718D01*
X0312456Y0106718D01*
X0310572Y0107498D01*
X0310170Y0107900D01*
X0251100Y0107900D01*
X0251100Y0076100D01*
X0310485Y0076100D01*
X0310572Y0076187D01*
X0312456Y0076968D01*
X0321544Y0076968D01*
X0323428Y0076187D01*
X0324870Y0074746D01*
X0325650Y0072862D01*
X0325650Y0070823D01*
X0324870Y0068939D01*
X0323428Y0067498D01*
X0321544Y0066718D01*
X0312456Y0066718D01*
X0310572Y0067498D01*
X0310170Y0067900D01*
X0283456Y0067900D01*
X0286209Y0067162D01*
X0288696Y0065727D01*
X0290727Y0063696D01*
X0292162Y0061209D01*
X0292905Y0058436D01*
X0292905Y0055564D01*
X0292162Y0052791D01*
X0290727Y0050304D01*
X0288696Y0048273D01*
X0286209Y0046838D01*
X0283436Y0046094D01*
X0280564Y0046094D01*
X0277791Y0046838D01*
X0275304Y0048273D01*
X0273273Y0050304D01*
X0271838Y0052791D01*
X0271094Y0055564D01*
X0271094Y0058436D01*
X0271838Y0061209D01*
X0273273Y0063696D01*
X0275304Y0065727D01*
X0277791Y0067162D01*
X0280544Y0067900D01*
X0250943Y0067900D01*
X0250943Y0028673D01*
X0251187Y0028428D01*
X0251968Y0026544D01*
X0251968Y0017456D01*
X0251187Y0015572D01*
X0251100Y0015485D01*
X0251100Y0012600D01*
X0282743Y0012600D01*
X0282743Y0015327D01*
X0282498Y0015572D01*
X0281718Y0017456D01*
X0281718Y0026544D01*
X0282498Y0028428D01*
X0283939Y0029870D01*
X0285823Y0030650D01*
X0287862Y0030650D01*
X0289746Y0029870D01*
X0291187Y0028428D01*
X0291968Y0026544D01*
X0291968Y0017456D01*
X0291187Y0015572D01*
X0290943Y0015327D01*
X0290943Y0012600D01*
X0322900Y0012600D01*
X0322900Y0015170D01*
X0322498Y0015572D01*
X0321718Y0017456D01*
X0321718Y0026544D01*
X0322498Y0028428D01*
X0323939Y0029870D01*
X0325823Y0030650D01*
X0327862Y0030650D01*
X0329746Y0029870D01*
X0330701Y0028915D01*
X0330701Y0166701D01*
X0328436Y0166094D01*
X0325564Y0166094D01*
X0322791Y0166838D01*
X0320304Y0168273D01*
X0318273Y0170304D01*
X0316838Y0172791D01*
X0316094Y0175564D01*
X0316094Y0178436D01*
X0316838Y0181209D01*
X0318273Y0183696D01*
X0320304Y0185727D01*
X0322441Y0186961D01*
X0021559Y0186961D01*
X0023696Y0185727D01*
X0025727Y0183696D01*
X0027162Y0181209D01*
X0027905Y0178436D01*
X0027905Y0175564D01*
X0027162Y0172791D01*
X0025727Y0170304D01*
X0023696Y0168273D01*
X0021209Y0166838D01*
X0018436Y0166094D01*
X0015564Y0166094D01*
X0012791Y0166838D01*
X0010304Y0168273D01*
X0008273Y0170304D01*
X0007000Y0172510D01*
X0007000Y0021490D01*
X0008273Y0023696D01*
X0010304Y0025727D01*
X0012791Y0027162D01*
X0015564Y0027905D01*
X0018436Y0027905D01*
X0021209Y0027162D01*
X0023696Y0025727D01*
X0025727Y0023696D01*
X0027162Y0021209D01*
X0027905Y0018436D01*
X0027905Y0015564D01*
X0027162Y0012791D01*
X0025727Y0010304D01*
X0023696Y0008273D01*
X0023215Y0007996D02*
X0100206Y0007996D01*
X0098208Y0009994D02*
X0025417Y0009994D01*
X0026702Y0011993D02*
X0096209Y0011993D01*
X0094211Y0013991D02*
X0027484Y0013991D01*
X0027905Y0015990D02*
X0092212Y0015990D01*
X0099812Y0019987D02*
X0142032Y0019987D01*
X0142032Y0021985D02*
X0097813Y0021985D01*
X0097217Y0023984D02*
X0142032Y0023984D01*
X0142032Y0025982D02*
X0097650Y0025982D01*
X0097650Y0027981D02*
X0142627Y0027981D01*
X0142813Y0028428D02*
X0142032Y0026544D01*
X0142032Y0017456D01*
X0142813Y0015572D01*
X0144254Y0014130D01*
X0146138Y0013350D01*
X0148177Y0013350D01*
X0150061Y0014130D01*
X0151502Y0015572D01*
X0152282Y0017456D01*
X0152282Y0026544D01*
X0151502Y0028428D01*
X0151100Y0028830D01*
X0151100Y0030302D01*
X0158698Y0037900D01*
X0200302Y0037900D01*
X0202743Y0035459D01*
X0202743Y0028673D01*
X0202498Y0028428D01*
X0201718Y0026544D01*
X0201718Y0017456D01*
X0202498Y0015572D01*
X0203939Y0014130D01*
X0205823Y0013350D01*
X0207862Y0013350D01*
X0209746Y0014130D01*
X0211187Y0015572D01*
X0211968Y0017456D01*
X0211968Y0026544D01*
X0211187Y0028428D01*
X0210943Y0028673D01*
X0210943Y0037973D01*
X0210318Y0039480D01*
X0205476Y0044322D01*
X0204322Y0045476D01*
X0202816Y0046100D01*
X0156184Y0046100D01*
X0154678Y0045476D01*
X0143524Y0034322D01*
X0142900Y0032816D01*
X0142900Y0028515D01*
X0142813Y0028428D01*
X0142900Y0029979D02*
X0097227Y0029979D01*
X0096424Y0031978D02*
X0142900Y0031978D01*
X0143381Y0033976D02*
X0095085Y0033976D01*
X0092755Y0035975D02*
X0145176Y0035975D01*
X0147175Y0037973D02*
X0046825Y0037973D01*
X0048824Y0035975D02*
X0081245Y0035975D01*
X0078915Y0033976D02*
X0050822Y0033976D01*
X0052821Y0031978D02*
X0077576Y0031978D01*
X0077598Y0021985D02*
X0026714Y0021985D01*
X0027490Y0019987D02*
X0078952Y0019987D01*
X0081309Y0017988D02*
X0027905Y0017988D01*
X0025439Y0023984D02*
X0049218Y0023984D01*
X0047220Y0025982D02*
X0023253Y0025982D01*
X0010747Y0025982D02*
X0007000Y0025982D01*
X0007000Y0023984D02*
X0008561Y0023984D01*
X0007286Y0021985D02*
X0007000Y0021985D01*
X0007000Y0027981D02*
X0045221Y0027981D01*
X0043223Y0029979D02*
X0007000Y0029979D01*
X0007000Y0031978D02*
X0041224Y0031978D01*
X0039226Y0033976D02*
X0007000Y0033976D01*
X0007000Y0035975D02*
X0037227Y0035975D01*
X0035229Y0037973D02*
X0007000Y0037973D01*
X0007000Y0039972D02*
X0033230Y0039972D01*
X0031231Y0041970D02*
X0007000Y0041970D01*
X0007000Y0043969D02*
X0029233Y0043969D01*
X0027234Y0045967D02*
X0007000Y0045967D01*
X0007000Y0047966D02*
X0025236Y0047966D01*
X0023237Y0049964D02*
X0007000Y0049964D01*
X0007000Y0051963D02*
X0021239Y0051963D01*
X0014423Y0053961D02*
X0007000Y0053961D01*
X0007000Y0055960D02*
X0013424Y0055960D01*
X0013350Y0057958D02*
X0007000Y0057958D01*
X0007000Y0059957D02*
X0014087Y0059957D01*
X0016666Y0061955D02*
X0007000Y0061955D01*
X0007000Y0063954D02*
X0075950Y0063954D01*
X0075950Y0062423D02*
X0082423Y0055950D01*
X0086025Y0055950D01*
X0086025Y0066025D01*
X0075950Y0066025D01*
X0075950Y0062423D01*
X0076418Y0061955D02*
X0027334Y0061955D01*
X0029913Y0059957D02*
X0078416Y0059957D01*
X0080415Y0057958D02*
X0030650Y0057958D01*
X0030576Y0055960D02*
X0082413Y0055960D01*
X0086025Y0055960D02*
X0087975Y0055960D01*
X0087975Y0055950D02*
X0091577Y0055950D01*
X0098050Y0062423D01*
X0098050Y0066025D01*
X0087975Y0066025D01*
X0087975Y0067975D01*
X0086025Y0067975D01*
X0086025Y0078050D01*
X0082423Y0078050D01*
X0075950Y0071577D01*
X0075950Y0067975D01*
X0086025Y0067975D01*
X0086025Y0066025D01*
X0087975Y0066025D01*
X0087975Y0055950D01*
X0087975Y0057958D02*
X0086025Y0057958D01*
X0086025Y0059957D02*
X0087975Y0059957D01*
X0087975Y0061955D02*
X0086025Y0061955D01*
X0086025Y0063954D02*
X0087975Y0063954D01*
X0087975Y0065952D02*
X0086025Y0065952D01*
X0086025Y0067951D02*
X0007000Y0067951D01*
X0007000Y0069949D02*
X0075950Y0069949D01*
X0076321Y0071948D02*
X0028089Y0071948D01*
X0028421Y0072117D02*
X0029124Y0072628D01*
X0029739Y0073243D01*
X0030250Y0073947D01*
X0030645Y0074722D01*
X0030914Y0075549D01*
X0031050Y0076408D01*
X0031050Y0076667D01*
X0022175Y0076667D01*
X0022175Y0071318D01*
X0025960Y0071318D01*
X0026819Y0071454D01*
X0027646Y0071722D01*
X0028421Y0072117D01*
X0030250Y0073946D02*
X0078319Y0073946D01*
X0080318Y0075945D02*
X0030977Y0075945D01*
X0031050Y0077018D02*
X0031050Y0077277D01*
X0030914Y0078136D01*
X0030645Y0078963D01*
X0030250Y0079738D01*
X0029739Y0080442D01*
X0029124Y0081057D01*
X0028421Y0081568D01*
X0027646Y0081963D01*
X0026819Y0082231D01*
X0025960Y0082368D01*
X0022175Y0082368D01*
X0022175Y0077018D01*
X0021825Y0077018D01*
X0021825Y0082368D01*
X0018040Y0082368D01*
X0017181Y0082231D01*
X0016354Y0081963D01*
X0015579Y0081568D01*
X0014876Y0081057D01*
X0014261Y0080442D01*
X0013750Y0079738D01*
X0013355Y0078963D01*
X0013086Y0078136D01*
X0012950Y0077277D01*
X0012950Y0077018D01*
X0021825Y0077018D01*
X0021825Y0076667D01*
X0022175Y0076667D01*
X0022175Y0077018D01*
X0031050Y0077018D01*
X0030944Y0077943D02*
X0082316Y0077943D01*
X0086025Y0077943D02*
X0087975Y0077943D01*
X0087975Y0078050D02*
X0087975Y0067975D01*
X0098050Y0067975D01*
X0098050Y0071577D01*
X0091577Y0078050D01*
X0087975Y0078050D01*
X0087975Y0075945D02*
X0086025Y0075945D01*
X0086025Y0073946D02*
X0087975Y0073946D01*
X0087975Y0071948D02*
X0086025Y0071948D01*
X0086025Y0069949D02*
X0087975Y0069949D01*
X0087975Y0067951D02*
X0242743Y0067951D01*
X0242743Y0069949D02*
X0098050Y0069949D01*
X0097679Y0071948D02*
X0242743Y0071948D01*
X0242900Y0073946D02*
X0095681Y0073946D01*
X0093682Y0075945D02*
X0168550Y0075945D01*
X0167459Y0077943D02*
X0091684Y0077943D01*
X0098050Y0065952D02*
X0242743Y0065952D01*
X0242743Y0063954D02*
X0098050Y0063954D01*
X0097582Y0061955D02*
X0242743Y0061955D01*
X0242743Y0059957D02*
X0095584Y0059957D01*
X0093585Y0057958D02*
X0242743Y0057958D01*
X0242743Y0055960D02*
X0091587Y0055960D01*
X0075950Y0065952D02*
X0007000Y0065952D01*
X0015579Y0072117D02*
X0016354Y0071722D01*
X0017181Y0071454D01*
X0018040Y0071318D01*
X0021825Y0071318D01*
X0021825Y0076667D01*
X0012950Y0076667D01*
X0012950Y0076408D01*
X0013086Y0075549D01*
X0013355Y0074722D01*
X0013750Y0073947D01*
X0014261Y0073243D01*
X0014876Y0072628D01*
X0015579Y0072117D01*
X0015911Y0071948D02*
X0007000Y0071948D01*
X0007000Y0073946D02*
X0013750Y0073946D01*
X0013023Y0075945D02*
X0007000Y0075945D01*
X0007000Y0077943D02*
X0013056Y0077943D01*
X0013898Y0079942D02*
X0007000Y0079942D01*
X0007000Y0081940D02*
X0016310Y0081940D01*
X0021825Y0081940D02*
X0022175Y0081940D01*
X0022175Y0079942D02*
X0021825Y0079942D01*
X0021825Y0077943D02*
X0022175Y0077943D01*
X0022175Y0075945D02*
X0021825Y0075945D01*
X0021825Y0073946D02*
X0022175Y0073946D01*
X0022175Y0071948D02*
X0021825Y0071948D01*
X0030102Y0079942D02*
X0167400Y0079942D01*
X0167400Y0081940D02*
X0027690Y0081940D01*
X0007000Y0083939D02*
X0167400Y0083939D01*
X0167409Y0085937D02*
X0007000Y0085937D01*
X0007000Y0087936D02*
X0167900Y0087936D01*
X0167900Y0089934D02*
X0007000Y0089934D01*
X0007000Y0091933D02*
X0167900Y0091933D01*
X0168362Y0093932D02*
X0007000Y0093932D01*
X0007000Y0095930D02*
X0170774Y0095930D01*
X0176591Y0085937D02*
X0177086Y0085937D01*
X0177000Y0083939D02*
X0176600Y0083939D01*
X0177000Y0082000D02*
X0177000Y0078606D01*
X0177123Y0077829D01*
X0177366Y0077081D01*
X0177724Y0076379D01*
X0178186Y0075743D01*
X0178743Y0075186D01*
X0179379Y0074724D01*
X0180081Y0074366D01*
X0180829Y0074123D01*
X0181606Y0074000D01*
X0182000Y0074000D01*
X0182000Y0082000D01*
X0177000Y0082000D01*
X0177000Y0081940D02*
X0176600Y0081940D01*
X0176600Y0079942D02*
X0177000Y0079942D01*
X0177105Y0077943D02*
X0176541Y0077943D01*
X0175450Y0075945D02*
X0178039Y0075945D01*
X0182000Y0075945D02*
X0182000Y0075945D01*
X0182000Y0077943D02*
X0182000Y0077943D01*
X0182000Y0079942D02*
X0182000Y0079942D01*
X0182000Y0081940D02*
X0182000Y0081940D01*
X0187000Y0081940D02*
X0242900Y0081940D01*
X0242900Y0079942D02*
X0187000Y0079942D01*
X0186895Y0077943D02*
X0242900Y0077943D01*
X0242900Y0075945D02*
X0185961Y0075945D01*
X0187000Y0083939D02*
X0242900Y0083939D01*
X0242900Y0085937D02*
X0186914Y0085937D01*
X0173171Y0109123D02*
X0172394Y0109000D01*
X0172000Y0109000D01*
X0172000Y0117000D01*
X0172000Y0117000D01*
X0172000Y0125000D01*
X0172394Y0125000D01*
X0173171Y0124877D01*
X0173919Y0124634D01*
X0174621Y0124276D01*
X0175257Y0123814D01*
X0175814Y0123257D01*
X0176276Y0122621D01*
X0176634Y0121919D01*
X0176877Y0121171D01*
X0177000Y0120394D01*
X0177000Y0117000D01*
X0172000Y0117000D01*
X0172000Y0117000D01*
X0172000Y0117000D01*
X0167000Y0117000D01*
X0167000Y0120394D01*
X0167123Y0121171D01*
X0167366Y0121919D01*
X0167724Y0122621D01*
X0168186Y0123257D01*
X0168743Y0123814D01*
X0169379Y0124276D01*
X0170081Y0124634D01*
X0170829Y0124877D01*
X0171606Y0125000D01*
X0172000Y0125000D01*
X0172000Y0117000D01*
X0177000Y0117000D01*
X0177000Y0113606D01*
X0176877Y0112829D01*
X0176634Y0112081D01*
X0176276Y0111379D01*
X0175814Y0110743D01*
X0175257Y0110186D01*
X0174621Y0109724D01*
X0173919Y0109366D01*
X0173171Y0109123D01*
X0172000Y0109000D02*
X0172000Y0117000D01*
X0172000Y0117000D01*
X0167000Y0117000D01*
X0167000Y0113606D01*
X0167123Y0112829D01*
X0167366Y0112081D01*
X0167724Y0111379D01*
X0168186Y0110743D01*
X0168743Y0110186D01*
X0169379Y0109724D01*
X0170081Y0109366D01*
X0170829Y0109123D01*
X0171606Y0109000D01*
X0172000Y0109000D01*
X0172000Y0109920D02*
X0172000Y0109920D01*
X0172000Y0111918D02*
X0172000Y0111918D01*
X0172000Y0113917D02*
X0172000Y0113917D01*
X0172000Y0115915D02*
X0172000Y0115915D01*
X0172000Y0117914D02*
X0172000Y0117914D01*
X0172000Y0119912D02*
X0172000Y0119912D01*
X0172000Y0121911D02*
X0172000Y0121911D01*
X0172000Y0123909D02*
X0172000Y0123909D01*
X0168874Y0123909D02*
X0098050Y0123909D01*
X0098050Y0122975D02*
X0098050Y0126577D01*
X0091577Y0133050D01*
X0087975Y0133050D01*
X0087975Y0122975D01*
X0086025Y0122975D01*
X0086025Y0133050D01*
X0082423Y0133050D01*
X0075950Y0126577D01*
X0075950Y0122975D01*
X0086025Y0122975D01*
X0086025Y0121025D01*
X0075950Y0121025D01*
X0075950Y0117423D01*
X0082423Y0110950D01*
X0086025Y0110950D01*
X0086025Y0121025D01*
X0087975Y0121025D01*
X0087975Y0122975D01*
X0098050Y0122975D01*
X0098050Y0121025D02*
X0087975Y0121025D01*
X0087975Y0110950D01*
X0091577Y0110950D01*
X0098050Y0117423D01*
X0098050Y0121025D01*
X0098050Y0119912D02*
X0167000Y0119912D01*
X0167000Y0117914D02*
X0098050Y0117914D01*
X0096542Y0115915D02*
X0167000Y0115915D01*
X0167000Y0113917D02*
X0094544Y0113917D01*
X0092545Y0111918D02*
X0167449Y0111918D01*
X0169110Y0109920D02*
X0007000Y0109920D01*
X0007000Y0111918D02*
X0081455Y0111918D01*
X0079456Y0113917D02*
X0044715Y0113917D01*
X0044322Y0113524D02*
X0045476Y0114678D01*
X0082880Y0152081D01*
X0082889Y0152076D01*
X0085598Y0151350D01*
X0088402Y0151350D01*
X0091111Y0152076D01*
X0093539Y0153478D01*
X0095522Y0155461D01*
X0096924Y0157889D01*
X0097650Y0160598D01*
X0097650Y0163402D01*
X0096924Y0166111D01*
X0096919Y0166120D01*
X0098698Y0167900D01*
X0142032Y0167900D01*
X0142032Y0167456D01*
X0142813Y0165572D01*
X0144254Y0164130D01*
X0146138Y0163350D01*
X0148177Y0163350D01*
X0150061Y0164130D01*
X0151502Y0165572D01*
X0152282Y0167456D01*
X0152282Y0176544D01*
X0151502Y0178428D01*
X0150061Y0179870D01*
X0148177Y0180650D01*
X0146138Y0180650D01*
X0144254Y0179870D01*
X0142813Y0178428D01*
X0142032Y0176544D01*
X0142032Y0176100D01*
X0096184Y0176100D01*
X0094678Y0175476D01*
X0091120Y0171919D01*
X0091111Y0171924D01*
X0088402Y0172650D01*
X0085598Y0172650D01*
X0082889Y0171924D01*
X0080461Y0170522D01*
X0078478Y0168539D01*
X0077076Y0166111D01*
X0076350Y0163402D01*
X0076350Y0160598D01*
X0077076Y0157889D01*
X0077081Y0157880D01*
X0040302Y0121100D01*
X0028830Y0121100D01*
X0028428Y0121502D01*
X0026544Y0122282D01*
X0017456Y0122282D01*
X0015572Y0121502D01*
X0014130Y0120061D01*
X0013350Y0118177D01*
X0013350Y0116138D01*
X0014130Y0114254D01*
X0015572Y0112813D01*
X0017456Y0112032D01*
X0026544Y0112032D01*
X0028428Y0112813D01*
X0028515Y0112900D01*
X0042816Y0112900D01*
X0044322Y0113524D01*
X0046713Y0115915D02*
X0077458Y0115915D01*
X0075950Y0117914D02*
X0048712Y0117914D01*
X0050710Y0119912D02*
X0075950Y0119912D01*
X0075950Y0123909D02*
X0054707Y0123909D01*
X0052709Y0121911D02*
X0086025Y0121911D01*
X0087975Y0121911D02*
X0167364Y0121911D01*
X0175126Y0123909D02*
X0179417Y0123909D01*
X0179394Y0123900D02*
X0178100Y0122606D01*
X0177400Y0120915D01*
X0177400Y0113085D01*
X0178100Y0111394D01*
X0179394Y0110100D01*
X0181085Y0109400D01*
X0182915Y0109400D01*
X0184606Y0110100D01*
X0185900Y0111394D01*
X0186523Y0112900D01*
X0207816Y0112900D01*
X0209322Y0113524D01*
X0210476Y0114678D01*
X0211100Y0116184D01*
X0211100Y0152816D01*
X0210943Y0153196D01*
X0210943Y0157900D01*
X0252900Y0157900D01*
X0252900Y0152122D01*
X0252400Y0150915D01*
X0252400Y0143085D01*
X0253100Y0141394D01*
X0254394Y0140100D01*
X0256085Y0139400D01*
X0257915Y0139400D01*
X0259606Y0140100D01*
X0260900Y0141394D01*
X0261600Y0143085D01*
X0261600Y0150915D01*
X0261100Y0152122D01*
X0261100Y0157900D01*
X0277900Y0157900D01*
X0277900Y0152122D01*
X0277400Y0150915D01*
X0277400Y0143085D01*
X0278100Y0141394D01*
X0279394Y0140100D01*
X0281085Y0139400D01*
X0282915Y0139400D01*
X0284606Y0140100D01*
X0285900Y0141394D01*
X0286600Y0143085D01*
X0286600Y0150915D01*
X0286100Y0152122D01*
X0286100Y0157900D01*
X0297816Y0157900D01*
X0299322Y0158524D01*
X0300476Y0159678D01*
X0301100Y0161184D01*
X0301100Y0171878D01*
X0301600Y0173085D01*
X0301600Y0180915D01*
X0300900Y0182606D01*
X0299606Y0183900D01*
X0297915Y0184600D01*
X0296085Y0184600D01*
X0294394Y0183900D01*
X0293100Y0182606D01*
X0292400Y0180915D01*
X0292400Y0173085D01*
X0292900Y0171878D01*
X0292900Y0166100D01*
X0276100Y0166100D01*
X0276100Y0171878D01*
X0276600Y0173085D01*
X0276600Y0180915D01*
X0275900Y0182606D01*
X0274606Y0183900D01*
X0272915Y0184600D01*
X0271085Y0184600D01*
X0269394Y0183900D01*
X0268100Y0182606D01*
X0267400Y0180915D01*
X0267400Y0173085D01*
X0267900Y0171878D01*
X0267900Y0166100D01*
X0246100Y0166100D01*
X0246100Y0171878D01*
X0246600Y0173085D01*
X0246600Y0180915D01*
X0245900Y0182606D01*
X0244606Y0183900D01*
X0242915Y0184600D01*
X0241085Y0184600D01*
X0239394Y0183900D01*
X0238100Y0182606D01*
X0237400Y0180915D01*
X0237400Y0173085D01*
X0237900Y0171878D01*
X0237900Y0166100D01*
X0211406Y0166100D01*
X0211968Y0167456D01*
X0211968Y0176544D01*
X0211187Y0178428D01*
X0209746Y0179870D01*
X0207862Y0180650D01*
X0205823Y0180650D01*
X0203939Y0179870D01*
X0202498Y0178428D01*
X0201718Y0176544D01*
X0201718Y0167456D01*
X0202498Y0165572D01*
X0202743Y0165327D01*
X0202743Y0151342D01*
X0202900Y0150962D01*
X0202900Y0121100D01*
X0186523Y0121100D01*
X0185900Y0122606D01*
X0184606Y0123900D01*
X0182915Y0124600D01*
X0181085Y0124600D01*
X0179394Y0123900D01*
X0177812Y0121911D02*
X0176636Y0121911D01*
X0177000Y0119912D02*
X0177400Y0119912D01*
X0177400Y0117914D02*
X0177000Y0117914D01*
X0177000Y0115915D02*
X0177400Y0115915D01*
X0177400Y0113917D02*
X0177000Y0113917D01*
X0176551Y0111918D02*
X0177883Y0111918D01*
X0179831Y0109920D02*
X0174890Y0109920D01*
X0184169Y0109920D02*
X0242900Y0109920D01*
X0242900Y0111918D02*
X0186117Y0111918D01*
X0186188Y0121911D02*
X0202900Y0121911D01*
X0202900Y0123909D02*
X0184583Y0123909D01*
X0202900Y0125908D02*
X0098050Y0125908D01*
X0096721Y0127906D02*
X0202900Y0127906D01*
X0202900Y0129905D02*
X0094722Y0129905D01*
X0092724Y0131903D02*
X0202900Y0131903D01*
X0202900Y0133902D02*
X0064700Y0133902D01*
X0066699Y0135900D02*
X0202900Y0135900D01*
X0202900Y0137899D02*
X0068697Y0137899D01*
X0070696Y0139897D02*
X0202900Y0139897D01*
X0202900Y0141896D02*
X0072694Y0141896D01*
X0074693Y0143894D02*
X0202900Y0143894D01*
X0202900Y0145893D02*
X0076691Y0145893D01*
X0078690Y0147891D02*
X0202900Y0147891D01*
X0202900Y0149890D02*
X0080688Y0149890D01*
X0082687Y0151888D02*
X0083589Y0151888D01*
X0090411Y0151888D02*
X0202743Y0151888D01*
X0202743Y0153887D02*
X0093948Y0153887D01*
X0095767Y0155885D02*
X0202743Y0155885D01*
X0202743Y0157884D02*
X0096921Y0157884D01*
X0097458Y0159882D02*
X0202743Y0159882D01*
X0202743Y0161881D02*
X0097650Y0161881D01*
X0097522Y0163879D02*
X0144860Y0163879D01*
X0142686Y0165878D02*
X0096987Y0165878D01*
X0098675Y0167876D02*
X0142032Y0167876D01*
X0149455Y0163879D02*
X0164545Y0163879D01*
X0163939Y0164130D02*
X0165823Y0163350D01*
X0167862Y0163350D01*
X0169746Y0164130D01*
X0171187Y0165572D01*
X0171968Y0167456D01*
X0171968Y0167900D01*
X0182032Y0167900D01*
X0182032Y0167456D01*
X0182813Y0165572D01*
X0184254Y0164130D01*
X0186138Y0163350D01*
X0188177Y0163350D01*
X0190061Y0164130D01*
X0191502Y0165572D01*
X0192282Y0167456D01*
X0192282Y0176544D01*
X0191502Y0178428D01*
X0190061Y0179870D01*
X0188177Y0180650D01*
X0186138Y0180650D01*
X0184254Y0179870D01*
X0182813Y0178428D01*
X0182032Y0176544D01*
X0182032Y0176100D01*
X0171968Y0176100D01*
X0171968Y0176544D01*
X0171187Y0178428D01*
X0169746Y0179870D01*
X0167862Y0180650D01*
X0165823Y0180650D01*
X0163939Y0179870D01*
X0162498Y0178428D01*
X0161718Y0176544D01*
X0161718Y0167456D01*
X0162498Y0165572D01*
X0163939Y0164130D01*
X0162371Y0165878D02*
X0151629Y0165878D01*
X0152282Y0167876D02*
X0161718Y0167876D01*
X0161718Y0169875D02*
X0152282Y0169875D01*
X0152282Y0171873D02*
X0161718Y0171873D01*
X0161718Y0173872D02*
X0152282Y0173872D01*
X0152282Y0175870D02*
X0161718Y0175870D01*
X0162266Y0177869D02*
X0151734Y0177869D01*
X0150063Y0179868D02*
X0163937Y0179868D01*
X0169748Y0179868D02*
X0184252Y0179868D01*
X0182581Y0177869D02*
X0171419Y0177869D01*
X0171968Y0167876D02*
X0182032Y0167876D01*
X0182686Y0165878D02*
X0171314Y0165878D01*
X0169140Y0163879D02*
X0184860Y0163879D01*
X0189455Y0163879D02*
X0202743Y0163879D01*
X0202371Y0165878D02*
X0191629Y0165878D01*
X0192282Y0167876D02*
X0201718Y0167876D01*
X0201718Y0169875D02*
X0192282Y0169875D01*
X0192282Y0171873D02*
X0201718Y0171873D01*
X0201718Y0173872D02*
X0192282Y0173872D01*
X0192282Y0175870D02*
X0201718Y0175870D01*
X0202266Y0177869D02*
X0191734Y0177869D01*
X0190063Y0179868D02*
X0203937Y0179868D01*
X0209748Y0179868D02*
X0227000Y0179868D01*
X0227000Y0180394D02*
X0227000Y0177000D01*
X0232000Y0177000D01*
X0232000Y0177000D01*
X0232000Y0185000D01*
X0232394Y0185000D01*
X0233171Y0184877D01*
X0233919Y0184634D01*
X0234621Y0184276D01*
X0235257Y0183814D01*
X0235814Y0183257D01*
X0236276Y0182621D01*
X0236634Y0181919D01*
X0236877Y0181171D01*
X0237000Y0180394D01*
X0237000Y0177000D01*
X0232000Y0177000D01*
X0232000Y0177000D01*
X0232000Y0177000D01*
X0232000Y0185000D01*
X0231606Y0185000D01*
X0230829Y0184877D01*
X0230081Y0184634D01*
X0229379Y0184276D01*
X0228743Y0183814D01*
X0228186Y0183257D01*
X0227724Y0182621D01*
X0227366Y0181919D01*
X0227123Y0181171D01*
X0227000Y0180394D01*
X0227349Y0181866D02*
X0026783Y0181866D01*
X0027522Y0179868D02*
X0144252Y0179868D01*
X0142581Y0177869D02*
X0027905Y0177869D01*
X0027905Y0175870D02*
X0095630Y0175870D01*
X0093074Y0173872D02*
X0027452Y0173872D01*
X0026633Y0171873D02*
X0082801Y0171873D01*
X0079814Y0169875D02*
X0025298Y0169875D01*
X0023009Y0167876D02*
X0078095Y0167876D01*
X0077013Y0165878D02*
X0007000Y0165878D01*
X0007000Y0167876D02*
X0010991Y0167876D01*
X0008702Y0169875D02*
X0007000Y0169875D01*
X0007000Y0171873D02*
X0007367Y0171873D01*
X0007000Y0163879D02*
X0076478Y0163879D01*
X0076350Y0161881D02*
X0007000Y0161881D01*
X0007000Y0159882D02*
X0076542Y0159882D01*
X0077079Y0157884D02*
X0007000Y0157884D01*
X0007000Y0155885D02*
X0075087Y0155885D01*
X0073089Y0153887D02*
X0007000Y0153887D01*
X0007000Y0151888D02*
X0071090Y0151888D01*
X0069092Y0149890D02*
X0007000Y0149890D01*
X0007000Y0147891D02*
X0067093Y0147891D01*
X0065095Y0145893D02*
X0007000Y0145893D01*
X0007000Y0143894D02*
X0063096Y0143894D01*
X0061098Y0141896D02*
X0027777Y0141896D01*
X0027646Y0141963D02*
X0026819Y0142231D01*
X0025960Y0142368D01*
X0022175Y0142368D01*
X0022175Y0137018D01*
X0021825Y0137018D01*
X0021825Y0142368D01*
X0018040Y0142368D01*
X0017181Y0142231D01*
X0016354Y0141963D01*
X0015579Y0141568D01*
X0014876Y0141057D01*
X0014261Y0140442D01*
X0013750Y0139738D01*
X0013355Y0138963D01*
X0013086Y0138136D01*
X0012950Y0137277D01*
X0012950Y0137018D01*
X0021825Y0137018D01*
X0021825Y0136667D01*
X0022175Y0136667D01*
X0022175Y0131318D01*
X0025960Y0131318D01*
X0026819Y0131454D01*
X0027646Y0131722D01*
X0028421Y0132117D01*
X0029124Y0132628D01*
X0029739Y0133243D01*
X0030250Y0133947D01*
X0030645Y0134722D01*
X0030914Y0135549D01*
X0031050Y0136408D01*
X0031050Y0136667D01*
X0022175Y0136667D01*
X0022175Y0137018D01*
X0031050Y0137018D01*
X0031050Y0137277D01*
X0030914Y0138136D01*
X0030645Y0138963D01*
X0030250Y0139738D01*
X0029739Y0140442D01*
X0029124Y0141057D01*
X0028421Y0141568D01*
X0027646Y0141963D01*
X0030135Y0139897D02*
X0059099Y0139897D01*
X0057101Y0137899D02*
X0030952Y0137899D01*
X0030970Y0135900D02*
X0055102Y0135900D01*
X0053103Y0133902D02*
X0030218Y0133902D01*
X0028001Y0131903D02*
X0051105Y0131903D01*
X0049106Y0129905D02*
X0007000Y0129905D01*
X0007000Y0131903D02*
X0015999Y0131903D01*
X0016354Y0131722D02*
X0017181Y0131454D01*
X0018040Y0131318D01*
X0021825Y0131318D01*
X0021825Y0136667D01*
X0012950Y0136667D01*
X0012950Y0136408D01*
X0013086Y0135549D01*
X0013355Y0134722D01*
X0013750Y0133947D01*
X0014261Y0133243D01*
X0014876Y0132628D01*
X0015579Y0132117D01*
X0016354Y0131722D01*
X0013782Y0133902D02*
X0007000Y0133902D01*
X0007000Y0135900D02*
X0013030Y0135900D01*
X0013048Y0137899D02*
X0007000Y0137899D01*
X0007000Y0139897D02*
X0013865Y0139897D01*
X0016223Y0141896D02*
X0007000Y0141896D01*
X0021825Y0141896D02*
X0022175Y0141896D01*
X0022175Y0139897D02*
X0021825Y0139897D01*
X0021825Y0137899D02*
X0022175Y0137899D01*
X0022175Y0135900D02*
X0021825Y0135900D01*
X0021825Y0133902D02*
X0022175Y0133902D01*
X0022175Y0131903D02*
X0021825Y0131903D01*
X0016558Y0121911D02*
X0007000Y0121911D01*
X0007000Y0123909D02*
X0043111Y0123909D01*
X0041112Y0121911D02*
X0027442Y0121911D01*
X0014069Y0119912D02*
X0007000Y0119912D01*
X0007000Y0117914D02*
X0013350Y0117914D01*
X0013442Y0115915D02*
X0007000Y0115915D01*
X0007000Y0113917D02*
X0014468Y0113917D01*
X0007000Y0107921D02*
X0242900Y0107921D01*
X0242900Y0105923D02*
X0007000Y0105923D01*
X0007000Y0103924D02*
X0242900Y0103924D01*
X0242900Y0101926D02*
X0007000Y0101926D01*
X0007000Y0099927D02*
X0242900Y0099927D01*
X0242900Y0097929D02*
X0007000Y0097929D01*
X0007000Y0125908D02*
X0045109Y0125908D01*
X0047108Y0127906D02*
X0007000Y0127906D01*
X0056706Y0125908D02*
X0075950Y0125908D01*
X0077279Y0127906D02*
X0058704Y0127906D01*
X0060703Y0129905D02*
X0079278Y0129905D01*
X0081276Y0131903D02*
X0062701Y0131903D01*
X0086025Y0131903D02*
X0087975Y0131903D01*
X0087975Y0129905D02*
X0086025Y0129905D01*
X0086025Y0127906D02*
X0087975Y0127906D01*
X0087975Y0125908D02*
X0086025Y0125908D01*
X0086025Y0123909D02*
X0087975Y0123909D01*
X0087975Y0119912D02*
X0086025Y0119912D01*
X0086025Y0117914D02*
X0087975Y0117914D01*
X0087975Y0115915D02*
X0086025Y0115915D01*
X0086025Y0113917D02*
X0087975Y0113917D01*
X0087975Y0111918D02*
X0086025Y0111918D01*
X0030837Y0053961D02*
X0242743Y0053961D01*
X0242743Y0051963D02*
X0032835Y0051963D01*
X0034834Y0049964D02*
X0242743Y0049964D01*
X0242743Y0047966D02*
X0036832Y0047966D01*
X0038831Y0045967D02*
X0155864Y0045967D01*
X0153170Y0043969D02*
X0040830Y0043969D01*
X0042828Y0041970D02*
X0151172Y0041970D01*
X0149173Y0039972D02*
X0044827Y0039972D01*
X0101810Y0017988D02*
X0142032Y0017988D01*
X0142640Y0015990D02*
X0103809Y0015990D01*
X0105807Y0013991D02*
X0144590Y0013991D01*
X0149725Y0013991D02*
X0162743Y0013991D01*
X0162325Y0015990D02*
X0151675Y0015990D01*
X0152282Y0017988D02*
X0161718Y0017988D01*
X0161718Y0019987D02*
X0152282Y0019987D01*
X0152282Y0021985D02*
X0161718Y0021985D01*
X0161718Y0023984D02*
X0152282Y0023984D01*
X0152282Y0025982D02*
X0161718Y0025982D01*
X0162312Y0027981D02*
X0151688Y0027981D01*
X0151100Y0029979D02*
X0164204Y0029979D01*
X0169481Y0029979D02*
X0184519Y0029979D01*
X0182627Y0027981D02*
X0171373Y0027981D01*
X0171968Y0025982D02*
X0182032Y0025982D01*
X0182032Y0023984D02*
X0171968Y0023984D01*
X0171968Y0021985D02*
X0182032Y0021985D01*
X0182032Y0019987D02*
X0171968Y0019987D01*
X0171968Y0017988D02*
X0182032Y0017988D01*
X0182640Y0015990D02*
X0171360Y0015990D01*
X0170943Y0013991D02*
X0184590Y0013991D01*
X0187709Y0011993D02*
X0170943Y0011993D01*
X0170515Y0009994D02*
X0189708Y0009994D01*
X0191706Y0007996D02*
X0168794Y0007996D01*
X0192282Y0019987D02*
X0201718Y0019987D01*
X0201718Y0021985D02*
X0192282Y0021985D01*
X0192282Y0023984D02*
X0201718Y0023984D01*
X0201718Y0025982D02*
X0192282Y0025982D01*
X0191688Y0027981D02*
X0202312Y0027981D01*
X0202743Y0029979D02*
X0189796Y0029979D01*
X0202743Y0031978D02*
X0152776Y0031978D01*
X0154774Y0033976D02*
X0202743Y0033976D01*
X0202227Y0035975D02*
X0156773Y0035975D01*
X0193310Y0017988D02*
X0201718Y0017988D01*
X0202325Y0015990D02*
X0195309Y0015990D01*
X0197307Y0013991D02*
X0204275Y0013991D01*
X0209410Y0013991D02*
X0223929Y0013991D01*
X0224262Y0013750D02*
X0225037Y0013355D01*
X0225864Y0013086D01*
X0226723Y0012950D01*
X0226982Y0012950D01*
X0226982Y0021825D01*
X0221632Y0021825D01*
X0221632Y0018040D01*
X0221769Y0017181D01*
X0222037Y0016354D01*
X0222432Y0015579D01*
X0222943Y0014876D01*
X0223558Y0014261D01*
X0224262Y0013750D01*
X0226982Y0013991D02*
X0227332Y0013991D01*
X0227332Y0012950D02*
X0227592Y0012950D01*
X0228451Y0013086D01*
X0229278Y0013355D01*
X0230053Y0013750D01*
X0230757Y0014261D01*
X0231372Y0014876D01*
X0231883Y0015579D01*
X0232278Y0016354D01*
X0232546Y0017181D01*
X0232682Y0018040D01*
X0232682Y0021825D01*
X0227333Y0021825D01*
X0227333Y0022175D01*
X0232682Y0022175D01*
X0232682Y0025960D01*
X0232546Y0026819D01*
X0232278Y0027646D01*
X0231883Y0028421D01*
X0231372Y0029124D01*
X0230757Y0029739D01*
X0230053Y0030250D01*
X0229278Y0030645D01*
X0228451Y0030914D01*
X0227592Y0031050D01*
X0227332Y0031050D01*
X0227332Y0022175D01*
X0226982Y0022175D01*
X0226982Y0021825D01*
X0227332Y0021825D01*
X0227332Y0012950D01*
X0227332Y0015990D02*
X0226982Y0015990D01*
X0226982Y0017988D02*
X0227332Y0017988D01*
X0227332Y0019987D02*
X0226982Y0019987D01*
X0226982Y0021985D02*
X0211968Y0021985D01*
X0211968Y0019987D02*
X0221632Y0019987D01*
X0221641Y0017988D02*
X0211968Y0017988D01*
X0211360Y0015990D02*
X0222223Y0015990D01*
X0230386Y0013991D02*
X0242900Y0013991D01*
X0242325Y0015990D02*
X0232092Y0015990D01*
X0232674Y0017988D02*
X0241718Y0017988D01*
X0241718Y0019987D02*
X0232682Y0019987D01*
X0227333Y0021985D02*
X0241718Y0021985D01*
X0241718Y0023984D02*
X0232682Y0023984D01*
X0232679Y0025982D02*
X0241718Y0025982D01*
X0242312Y0027981D02*
X0232107Y0027981D01*
X0230427Y0029979D02*
X0242743Y0029979D01*
X0242743Y0031978D02*
X0210943Y0031978D01*
X0210943Y0033976D02*
X0242743Y0033976D01*
X0242743Y0035975D02*
X0210943Y0035975D01*
X0210942Y0037973D02*
X0242743Y0037973D01*
X0242743Y0039972D02*
X0209827Y0039972D01*
X0207828Y0041970D02*
X0242743Y0041970D01*
X0242743Y0043969D02*
X0205830Y0043969D01*
X0203136Y0045967D02*
X0242743Y0045967D01*
X0250943Y0045967D02*
X0330701Y0045967D01*
X0330701Y0043969D02*
X0250943Y0043969D01*
X0250943Y0041970D02*
X0330701Y0041970D01*
X0330701Y0039972D02*
X0250943Y0039972D01*
X0250943Y0037973D02*
X0330701Y0037973D01*
X0330701Y0035975D02*
X0250943Y0035975D01*
X0250943Y0033976D02*
X0330701Y0033976D01*
X0330701Y0031978D02*
X0250943Y0031978D01*
X0250943Y0029979D02*
X0263888Y0029979D01*
X0263558Y0029739D02*
X0262943Y0029124D01*
X0262432Y0028421D01*
X0262037Y0027646D01*
X0261769Y0026819D01*
X0261632Y0025960D01*
X0261632Y0022175D01*
X0266982Y0022175D01*
X0266982Y0021825D01*
X0261632Y0021825D01*
X0261632Y0018040D01*
X0261769Y0017181D01*
X0262037Y0016354D01*
X0262432Y0015579D01*
X0262943Y0014876D01*
X0263558Y0014261D01*
X0264262Y0013750D01*
X0265037Y0013355D01*
X0265864Y0013086D01*
X0266723Y0012950D01*
X0266982Y0012950D01*
X0266982Y0021825D01*
X0267332Y0021825D01*
X0267332Y0012950D01*
X0267592Y0012950D01*
X0268451Y0013086D01*
X0269278Y0013355D01*
X0270053Y0013750D01*
X0270757Y0014261D01*
X0271372Y0014876D01*
X0271883Y0015579D01*
X0272278Y0016354D01*
X0272546Y0017181D01*
X0272682Y0018040D01*
X0272682Y0021825D01*
X0267333Y0021825D01*
X0267333Y0022175D01*
X0272682Y0022175D01*
X0272682Y0025960D01*
X0272546Y0026819D01*
X0272278Y0027646D01*
X0271883Y0028421D01*
X0271372Y0029124D01*
X0270757Y0029739D01*
X0270053Y0030250D01*
X0269278Y0030645D01*
X0268451Y0030914D01*
X0267592Y0031050D01*
X0267332Y0031050D01*
X0267332Y0022175D01*
X0266982Y0022175D01*
X0266982Y0031050D01*
X0266723Y0031050D01*
X0265864Y0030914D01*
X0265037Y0030645D01*
X0264262Y0030250D01*
X0263558Y0029739D01*
X0262208Y0027981D02*
X0251373Y0027981D01*
X0251968Y0025982D02*
X0261636Y0025982D01*
X0261632Y0023984D02*
X0251968Y0023984D01*
X0251968Y0021985D02*
X0266982Y0021985D01*
X0267333Y0021985D02*
X0281718Y0021985D01*
X0281718Y0019987D02*
X0272682Y0019987D01*
X0272674Y0017988D02*
X0281718Y0017988D01*
X0282325Y0015990D02*
X0272092Y0015990D01*
X0270386Y0013991D02*
X0282743Y0013991D01*
X0290943Y0013991D02*
X0303929Y0013991D01*
X0304262Y0013750D02*
X0303558Y0014261D01*
X0302943Y0014876D01*
X0302432Y0015579D01*
X0302037Y0016354D01*
X0301769Y0017181D01*
X0301632Y0018040D01*
X0301632Y0021825D01*
X0306982Y0021825D01*
X0306982Y0022175D01*
X0301632Y0022175D01*
X0301632Y0025960D01*
X0301769Y0026819D01*
X0302037Y0027646D01*
X0302432Y0028421D01*
X0302943Y0029124D01*
X0303558Y0029739D01*
X0304262Y0030250D01*
X0305037Y0030645D01*
X0305864Y0030914D01*
X0306723Y0031050D01*
X0306982Y0031050D01*
X0306982Y0022175D01*
X0307332Y0022175D01*
X0307332Y0031050D01*
X0307592Y0031050D01*
X0308451Y0030914D01*
X0309278Y0030645D01*
X0310053Y0030250D01*
X0310757Y0029739D01*
X0311372Y0029124D01*
X0311883Y0028421D01*
X0312278Y0027646D01*
X0312546Y0026819D01*
X0312682Y0025960D01*
X0312682Y0022175D01*
X0307333Y0022175D01*
X0307333Y0021825D01*
X0312682Y0021825D01*
X0312682Y0018040D01*
X0312546Y0017181D01*
X0312278Y0016354D01*
X0311883Y0015579D01*
X0311372Y0014876D01*
X0310757Y0014261D01*
X0310053Y0013750D01*
X0309278Y0013355D01*
X0308451Y0013086D01*
X0307592Y0012950D01*
X0307332Y0012950D01*
X0307332Y0021825D01*
X0306982Y0021825D01*
X0306982Y0012950D01*
X0306723Y0012950D01*
X0305864Y0013086D01*
X0305037Y0013355D01*
X0304262Y0013750D01*
X0306982Y0013991D02*
X0307332Y0013991D01*
X0307332Y0015990D02*
X0306982Y0015990D01*
X0306982Y0017988D02*
X0307332Y0017988D01*
X0307332Y0019987D02*
X0306982Y0019987D01*
X0306982Y0021985D02*
X0291968Y0021985D01*
X0291968Y0019987D02*
X0301632Y0019987D01*
X0301641Y0017988D02*
X0291968Y0017988D01*
X0291360Y0015990D02*
X0302223Y0015990D01*
X0310386Y0013991D02*
X0322900Y0013991D01*
X0322325Y0015990D02*
X0312092Y0015990D01*
X0312674Y0017988D02*
X0321718Y0017988D01*
X0321718Y0019987D02*
X0312682Y0019987D01*
X0312682Y0023984D02*
X0321718Y0023984D01*
X0321718Y0025982D02*
X0312679Y0025982D01*
X0312107Y0027981D02*
X0322312Y0027981D01*
X0324204Y0029979D02*
X0310427Y0029979D01*
X0307332Y0029979D02*
X0306982Y0029979D01*
X0306982Y0027981D02*
X0307332Y0027981D01*
X0307332Y0025982D02*
X0306982Y0025982D01*
X0306982Y0023984D02*
X0307332Y0023984D01*
X0307333Y0021985D02*
X0321718Y0021985D01*
X0329481Y0029979D02*
X0330701Y0029979D01*
X0330701Y0047966D02*
X0324147Y0047966D01*
X0324124Y0047943D02*
X0324739Y0048558D01*
X0325250Y0049262D01*
X0325645Y0050037D01*
X0325914Y0050864D01*
X0326050Y0051723D01*
X0326050Y0051982D01*
X0317175Y0051982D01*
X0317175Y0046632D01*
X0320960Y0046632D01*
X0321819Y0046769D01*
X0322646Y0047037D01*
X0323421Y0047432D01*
X0324124Y0047943D01*
X0325608Y0049964D02*
X0330701Y0049964D01*
X0330701Y0051963D02*
X0326050Y0051963D01*
X0326050Y0052332D02*
X0326050Y0052592D01*
X0325914Y0053451D01*
X0325645Y0054278D01*
X0325250Y0055053D01*
X0324739Y0055757D01*
X0324124Y0056372D01*
X0323421Y0056883D01*
X0322646Y0057278D01*
X0321819Y0057546D01*
X0320960Y0057682D01*
X0317175Y0057682D01*
X0317175Y0052333D01*
X0316825Y0052333D01*
X0316825Y0057682D01*
X0313040Y0057682D01*
X0312181Y0057546D01*
X0311354Y0057278D01*
X0310579Y0056883D01*
X0309876Y0056372D01*
X0309261Y0055757D01*
X0308750Y0055053D01*
X0308355Y0054278D01*
X0308086Y0053451D01*
X0307950Y0052592D01*
X0307950Y0052332D01*
X0316825Y0052332D01*
X0316825Y0051982D01*
X0317175Y0051982D01*
X0317175Y0052332D01*
X0326050Y0052332D01*
X0325748Y0053961D02*
X0330701Y0053961D01*
X0330701Y0055960D02*
X0324536Y0055960D01*
X0330701Y0057958D02*
X0292905Y0057958D01*
X0292905Y0055960D02*
X0309464Y0055960D01*
X0308252Y0053961D02*
X0292476Y0053961D01*
X0291684Y0051963D02*
X0307950Y0051963D01*
X0307950Y0051982D02*
X0307950Y0051723D01*
X0308086Y0050864D01*
X0308355Y0050037D01*
X0308750Y0049262D01*
X0309261Y0048558D01*
X0309876Y0047943D01*
X0310579Y0047432D01*
X0311354Y0047037D01*
X0312181Y0046769D01*
X0313040Y0046632D01*
X0316825Y0046632D01*
X0316825Y0051982D01*
X0307950Y0051982D01*
X0308392Y0049964D02*
X0290387Y0049964D01*
X0288163Y0047966D02*
X0309853Y0047966D01*
X0316825Y0047966D02*
X0317175Y0047966D01*
X0317175Y0049964D02*
X0316825Y0049964D01*
X0316825Y0051963D02*
X0317175Y0051963D01*
X0317175Y0053961D02*
X0316825Y0053961D01*
X0316825Y0055960D02*
X0317175Y0055960D01*
X0330701Y0059957D02*
X0292498Y0059957D01*
X0291732Y0061955D02*
X0330701Y0061955D01*
X0330701Y0063954D02*
X0290469Y0063954D01*
X0288305Y0065952D02*
X0330701Y0065952D01*
X0330701Y0067951D02*
X0323881Y0067951D01*
X0325288Y0069949D02*
X0330701Y0069949D01*
X0330701Y0071948D02*
X0325650Y0071948D01*
X0325201Y0073946D02*
X0330701Y0073946D01*
X0330701Y0075945D02*
X0323670Y0075945D01*
X0330701Y0077943D02*
X0251100Y0077943D01*
X0251100Y0079942D02*
X0330701Y0079942D01*
X0330701Y0081940D02*
X0251100Y0081940D01*
X0251100Y0083939D02*
X0330701Y0083939D01*
X0330701Y0085937D02*
X0251100Y0085937D01*
X0251100Y0087936D02*
X0309886Y0087936D01*
X0309876Y0087943D02*
X0310579Y0087432D01*
X0311354Y0087037D01*
X0312181Y0086769D01*
X0313040Y0086632D01*
X0316825Y0086632D01*
X0316825Y0091982D01*
X0317175Y0091982D01*
X0317175Y0086632D01*
X0320960Y0086632D01*
X0321819Y0086769D01*
X0322646Y0087037D01*
X0323421Y0087432D01*
X0324124Y0087943D01*
X0324739Y0088558D01*
X0325250Y0089262D01*
X0325645Y0090037D01*
X0325914Y0090864D01*
X0326050Y0091723D01*
X0326050Y0091982D01*
X0317175Y0091982D01*
X0317175Y0092332D01*
X0326050Y0092332D01*
X0326050Y0092592D01*
X0325914Y0093451D01*
X0325645Y0094278D01*
X0325250Y0095053D01*
X0324739Y0095757D01*
X0324124Y0096372D01*
X0323421Y0096883D01*
X0322646Y0097278D01*
X0321819Y0097546D01*
X0320960Y0097682D01*
X0317175Y0097682D01*
X0317175Y0092333D01*
X0316825Y0092333D01*
X0316825Y0097682D01*
X0313040Y0097682D01*
X0312181Y0097546D01*
X0311354Y0097278D01*
X0310579Y0096883D01*
X0309876Y0096372D01*
X0309261Y0095757D01*
X0308750Y0095053D01*
X0308355Y0094278D01*
X0308086Y0093451D01*
X0307950Y0092592D01*
X0307950Y0092332D01*
X0316825Y0092332D01*
X0316825Y0091982D01*
X0307950Y0091982D01*
X0307950Y0091723D01*
X0308086Y0090864D01*
X0308355Y0090037D01*
X0308750Y0089262D01*
X0309261Y0088558D01*
X0309876Y0087943D01*
X0308407Y0089934D02*
X0251100Y0089934D01*
X0251100Y0091933D02*
X0307950Y0091933D01*
X0308242Y0093932D02*
X0251100Y0093932D01*
X0251100Y0095930D02*
X0309434Y0095930D01*
X0316825Y0095930D02*
X0317175Y0095930D01*
X0317175Y0093932D02*
X0316825Y0093932D01*
X0316825Y0091933D02*
X0317175Y0091933D01*
X0317175Y0089934D02*
X0316825Y0089934D01*
X0316825Y0087936D02*
X0317175Y0087936D01*
X0324114Y0087936D02*
X0330701Y0087936D01*
X0330701Y0089934D02*
X0325593Y0089934D01*
X0326050Y0091933D02*
X0330701Y0091933D01*
X0330701Y0093932D02*
X0325758Y0093932D01*
X0324566Y0095930D02*
X0330701Y0095930D01*
X0330701Y0097929D02*
X0251100Y0097929D01*
X0251100Y0099927D02*
X0330701Y0099927D01*
X0330701Y0101926D02*
X0251100Y0101926D01*
X0251100Y0103924D02*
X0330701Y0103924D01*
X0330701Y0105923D02*
X0251100Y0105923D01*
X0243356Y0113917D02*
X0209715Y0113917D01*
X0210988Y0115915D02*
X0245738Y0115915D01*
X0246606Y0139000D02*
X0245829Y0139123D01*
X0245081Y0139366D01*
X0244379Y0139724D01*
X0243743Y0140186D01*
X0243186Y0140743D01*
X0242724Y0141379D01*
X0242366Y0142081D01*
X0242123Y0142829D01*
X0242000Y0143606D01*
X0242000Y0147000D01*
X0247000Y0147000D01*
X0247000Y0147000D01*
X0247000Y0155000D01*
X0247394Y0155000D01*
X0248171Y0154877D01*
X0248919Y0154634D01*
X0249621Y0154276D01*
X0250257Y0153814D01*
X0250814Y0153257D01*
X0251276Y0152621D01*
X0251634Y0151919D01*
X0251877Y0151171D01*
X0252000Y0150394D01*
X0252000Y0147000D01*
X0247000Y0147000D01*
X0247000Y0147000D01*
X0247000Y0147000D01*
X0247000Y0155000D01*
X0246606Y0155000D01*
X0245829Y0154877D01*
X0245081Y0154634D01*
X0244379Y0154276D01*
X0243743Y0153814D01*
X0243186Y0153257D01*
X0242724Y0152621D01*
X0242366Y0151919D01*
X0242123Y0151171D01*
X0242000Y0150394D01*
X0242000Y0147000D01*
X0247000Y0147000D01*
X0252000Y0147000D01*
X0252000Y0143606D01*
X0251877Y0142829D01*
X0251634Y0142081D01*
X0251276Y0141379D01*
X0250814Y0140743D01*
X0250257Y0140186D01*
X0249621Y0139724D01*
X0248919Y0139366D01*
X0248171Y0139123D01*
X0247394Y0139000D01*
X0247000Y0139000D01*
X0247000Y0147000D01*
X0247000Y0147000D01*
X0247000Y0139000D01*
X0246606Y0139000D01*
X0247000Y0139897D02*
X0247000Y0139897D01*
X0247000Y0141896D02*
X0247000Y0141896D01*
X0247000Y0143894D02*
X0247000Y0143894D01*
X0247000Y0145893D02*
X0247000Y0145893D01*
X0247000Y0147891D02*
X0247000Y0147891D01*
X0247000Y0149890D02*
X0247000Y0149890D01*
X0247000Y0151888D02*
X0247000Y0151888D01*
X0247000Y0153887D02*
X0247000Y0153887D01*
X0243843Y0153887D02*
X0210943Y0153887D01*
X0210943Y0155885D02*
X0252900Y0155885D01*
X0252900Y0153887D02*
X0250157Y0153887D01*
X0251644Y0151888D02*
X0252803Y0151888D01*
X0252400Y0149890D02*
X0252000Y0149890D01*
X0252000Y0147891D02*
X0252400Y0147891D01*
X0252400Y0145893D02*
X0252000Y0145893D01*
X0252000Y0143894D02*
X0252400Y0143894D01*
X0252893Y0141896D02*
X0251539Y0141896D01*
X0249860Y0139897D02*
X0254884Y0139897D01*
X0259116Y0139897D02*
X0269140Y0139897D01*
X0269379Y0139724D02*
X0270081Y0139366D01*
X0270829Y0139123D01*
X0271606Y0139000D01*
X0272000Y0139000D01*
X0272394Y0139000D01*
X0273171Y0139123D01*
X0273919Y0139366D01*
X0274621Y0139724D01*
X0275257Y0140186D01*
X0275814Y0140743D01*
X0276276Y0141379D01*
X0276634Y0142081D01*
X0276877Y0142829D01*
X0277000Y0143606D01*
X0277000Y0147000D01*
X0277000Y0150394D01*
X0276877Y0151171D01*
X0276634Y0151919D01*
X0276276Y0152621D01*
X0275814Y0153257D01*
X0275257Y0153814D01*
X0274621Y0154276D01*
X0273919Y0154634D01*
X0273171Y0154877D01*
X0272394Y0155000D01*
X0272000Y0155000D01*
X0272000Y0147000D01*
X0272000Y0147000D01*
X0277000Y0147000D01*
X0272000Y0147000D01*
X0272000Y0147000D01*
X0272000Y0147000D01*
X0267000Y0147000D01*
X0267000Y0150394D01*
X0267123Y0151171D01*
X0267366Y0151919D01*
X0267724Y0152621D01*
X0268186Y0153257D01*
X0268743Y0153814D01*
X0269379Y0154276D01*
X0270081Y0154634D01*
X0270829Y0154877D01*
X0271606Y0155000D01*
X0272000Y0155000D01*
X0272000Y0147000D01*
X0272000Y0139000D01*
X0272000Y0147000D01*
X0272000Y0147000D01*
X0267000Y0147000D01*
X0267000Y0143606D01*
X0267123Y0142829D01*
X0267366Y0142081D01*
X0267724Y0141379D01*
X0268186Y0140743D01*
X0268743Y0140186D01*
X0269379Y0139724D01*
X0272000Y0139897D02*
X0272000Y0139897D01*
X0272000Y0141896D02*
X0272000Y0141896D01*
X0272000Y0143894D02*
X0272000Y0143894D01*
X0272000Y0145893D02*
X0272000Y0145893D01*
X0272000Y0147891D02*
X0272000Y0147891D01*
X0272000Y0149890D02*
X0272000Y0149890D01*
X0272000Y0151888D02*
X0272000Y0151888D01*
X0272000Y0153887D02*
X0272000Y0153887D01*
X0268843Y0153887D02*
X0261100Y0153887D01*
X0261100Y0155885D02*
X0277900Y0155885D01*
X0277900Y0153887D02*
X0275157Y0153887D01*
X0276644Y0151888D02*
X0277803Y0151888D01*
X0277400Y0149890D02*
X0277000Y0149890D01*
X0277000Y0147891D02*
X0277400Y0147891D01*
X0277400Y0145893D02*
X0277000Y0145893D01*
X0277000Y0143894D02*
X0277400Y0143894D01*
X0277893Y0141896D02*
X0276539Y0141896D01*
X0274860Y0139897D02*
X0279884Y0139897D01*
X0284116Y0139897D02*
X0330701Y0139897D01*
X0330701Y0137899D02*
X0211100Y0137899D01*
X0211100Y0139897D02*
X0244140Y0139897D01*
X0242461Y0141896D02*
X0211100Y0141896D01*
X0211100Y0143894D02*
X0242000Y0143894D01*
X0242000Y0145893D02*
X0211100Y0145893D01*
X0211100Y0147891D02*
X0242000Y0147891D01*
X0242000Y0149890D02*
X0211100Y0149890D01*
X0211100Y0151888D02*
X0242356Y0151888D01*
X0252900Y0157884D02*
X0210943Y0157884D01*
X0211968Y0167876D02*
X0237900Y0167876D01*
X0237900Y0169875D02*
X0234829Y0169875D01*
X0234621Y0169724D02*
X0235257Y0170186D01*
X0235814Y0170743D01*
X0236276Y0171379D01*
X0236634Y0172081D01*
X0236877Y0172829D01*
X0237000Y0173606D01*
X0237000Y0177000D01*
X0232000Y0177000D01*
X0232000Y0169000D01*
X0232394Y0169000D01*
X0233171Y0169123D01*
X0233919Y0169366D01*
X0234621Y0169724D01*
X0232000Y0169875D02*
X0232000Y0169875D01*
X0232000Y0169000D02*
X0232000Y0177000D01*
X0232000Y0177000D01*
X0227000Y0177000D01*
X0227000Y0173606D01*
X0227123Y0172829D01*
X0227366Y0172081D01*
X0227724Y0171379D01*
X0228186Y0170743D01*
X0228743Y0170186D01*
X0229379Y0169724D01*
X0230081Y0169366D01*
X0230829Y0169123D01*
X0231606Y0169000D01*
X0232000Y0169000D01*
X0229171Y0169875D02*
X0211968Y0169875D01*
X0211968Y0171873D02*
X0227472Y0171873D01*
X0227000Y0173872D02*
X0211968Y0173872D01*
X0211968Y0175870D02*
X0227000Y0175870D01*
X0227000Y0177869D02*
X0211419Y0177869D01*
X0228813Y0183865D02*
X0025558Y0183865D01*
X0023460Y0185863D02*
X0320540Y0185863D01*
X0318442Y0183865D02*
X0299641Y0183865D01*
X0301206Y0181866D02*
X0317217Y0181866D01*
X0316478Y0179868D02*
X0301600Y0179868D01*
X0301600Y0177869D02*
X0316094Y0177869D01*
X0316094Y0175870D02*
X0301600Y0175870D01*
X0301600Y0173872D02*
X0316548Y0173872D01*
X0317367Y0171873D02*
X0301100Y0171873D01*
X0301100Y0169875D02*
X0318702Y0169875D01*
X0320991Y0167876D02*
X0301100Y0167876D01*
X0301100Y0165878D02*
X0330701Y0165878D01*
X0330701Y0163879D02*
X0301100Y0163879D01*
X0301100Y0161881D02*
X0330701Y0161881D01*
X0330701Y0159882D02*
X0300561Y0159882D01*
X0292900Y0167876D02*
X0276100Y0167876D01*
X0276100Y0169875D02*
X0284171Y0169875D01*
X0284379Y0169724D02*
X0285081Y0169366D01*
X0285829Y0169123D01*
X0286606Y0169000D01*
X0287000Y0169000D01*
X0287394Y0169000D01*
X0288171Y0169123D01*
X0288919Y0169366D01*
X0289621Y0169724D01*
X0290257Y0170186D01*
X0290814Y0170743D01*
X0291276Y0171379D01*
X0291634Y0172081D01*
X0291877Y0172829D01*
X0292000Y0173606D01*
X0292000Y0177000D01*
X0292000Y0180394D01*
X0291877Y0181171D01*
X0291634Y0181919D01*
X0291276Y0182621D01*
X0290814Y0183257D01*
X0290257Y0183814D01*
X0289621Y0184276D01*
X0288919Y0184634D01*
X0288171Y0184877D01*
X0287394Y0185000D01*
X0287000Y0185000D01*
X0287000Y0177000D01*
X0287000Y0177000D01*
X0292000Y0177000D01*
X0287000Y0177000D01*
X0287000Y0177000D01*
X0287000Y0177000D01*
X0282000Y0177000D01*
X0282000Y0180394D01*
X0282123Y0181171D01*
X0282366Y0181919D01*
X0282724Y0182621D01*
X0283186Y0183257D01*
X0283743Y0183814D01*
X0284379Y0184276D01*
X0285081Y0184634D01*
X0285829Y0184877D01*
X0286606Y0185000D01*
X0287000Y0185000D01*
X0287000Y0177000D01*
X0287000Y0169000D01*
X0287000Y0177000D01*
X0287000Y0177000D01*
X0282000Y0177000D01*
X0282000Y0173606D01*
X0282123Y0172829D01*
X0282366Y0172081D01*
X0282724Y0171379D01*
X0283186Y0170743D01*
X0283743Y0170186D01*
X0284379Y0169724D01*
X0287000Y0169875D02*
X0287000Y0169875D01*
X0287000Y0171873D02*
X0287000Y0171873D01*
X0287000Y0173872D02*
X0287000Y0173872D01*
X0287000Y0175870D02*
X0287000Y0175870D01*
X0287000Y0177869D02*
X0287000Y0177869D01*
X0287000Y0179868D02*
X0287000Y0179868D01*
X0287000Y0181866D02*
X0287000Y0181866D01*
X0287000Y0183865D02*
X0287000Y0183865D01*
X0283813Y0183865D02*
X0274641Y0183865D01*
X0276206Y0181866D02*
X0282349Y0181866D01*
X0282000Y0179868D02*
X0276600Y0179868D01*
X0276600Y0177869D02*
X0282000Y0177869D01*
X0282000Y0175870D02*
X0276600Y0175870D01*
X0276600Y0173872D02*
X0282000Y0173872D01*
X0282472Y0171873D02*
X0276100Y0171873D01*
X0267900Y0171873D02*
X0266528Y0171873D01*
X0266634Y0172081D02*
X0266877Y0172829D01*
X0267000Y0173606D01*
X0267000Y0177000D01*
X0267000Y0180394D01*
X0266877Y0181171D01*
X0266634Y0181919D01*
X0266276Y0182621D01*
X0265814Y0183257D01*
X0265257Y0183814D01*
X0264621Y0184276D01*
X0263919Y0184634D01*
X0263171Y0184877D01*
X0262394Y0185000D01*
X0262000Y0185000D01*
X0262000Y0177000D01*
X0262000Y0177000D01*
X0267000Y0177000D01*
X0262000Y0177000D01*
X0262000Y0177000D01*
X0262000Y0177000D01*
X0257000Y0177000D01*
X0257000Y0180394D01*
X0257123Y0181171D01*
X0257366Y0181919D01*
X0257724Y0182621D01*
X0258186Y0183257D01*
X0258743Y0183814D01*
X0259379Y0184276D01*
X0260081Y0184634D01*
X0260829Y0184877D01*
X0261606Y0185000D01*
X0262000Y0185000D01*
X0262000Y0177000D01*
X0262000Y0169000D01*
X0262394Y0169000D01*
X0263171Y0169123D01*
X0263919Y0169366D01*
X0264621Y0169724D01*
X0265257Y0170186D01*
X0265814Y0170743D01*
X0266276Y0171379D01*
X0266634Y0172081D01*
X0267000Y0173872D02*
X0267400Y0173872D01*
X0267400Y0175870D02*
X0267000Y0175870D01*
X0267000Y0177869D02*
X0267400Y0177869D01*
X0267400Y0179868D02*
X0267000Y0179868D01*
X0266651Y0181866D02*
X0267794Y0181866D01*
X0269359Y0183865D02*
X0265187Y0183865D01*
X0262000Y0183865D02*
X0262000Y0183865D01*
X0262000Y0181866D02*
X0262000Y0181866D01*
X0262000Y0179868D02*
X0262000Y0179868D01*
X0262000Y0177869D02*
X0262000Y0177869D01*
X0262000Y0177000D02*
X0257000Y0177000D01*
X0257000Y0173606D01*
X0257123Y0172829D01*
X0257366Y0172081D01*
X0257724Y0171379D01*
X0258186Y0170743D01*
X0258743Y0170186D01*
X0259379Y0169724D01*
X0260081Y0169366D01*
X0260829Y0169123D01*
X0261606Y0169000D01*
X0262000Y0169000D01*
X0262000Y0177000D01*
X0262000Y0177000D01*
X0262000Y0175870D02*
X0262000Y0175870D01*
X0262000Y0173872D02*
X0262000Y0173872D01*
X0262000Y0171873D02*
X0262000Y0171873D01*
X0262000Y0169875D02*
X0262000Y0169875D01*
X0264829Y0169875D02*
X0267900Y0169875D01*
X0267900Y0167876D02*
X0246100Y0167876D01*
X0246100Y0169875D02*
X0259171Y0169875D01*
X0257472Y0171873D02*
X0246100Y0171873D01*
X0246600Y0173872D02*
X0257000Y0173872D01*
X0257000Y0175870D02*
X0246600Y0175870D01*
X0246600Y0177869D02*
X0257000Y0177869D01*
X0257000Y0179868D02*
X0246600Y0179868D01*
X0246206Y0181866D02*
X0257349Y0181866D01*
X0258813Y0183865D02*
X0244641Y0183865D01*
X0239359Y0183865D02*
X0235187Y0183865D01*
X0236651Y0181866D02*
X0237794Y0181866D01*
X0237400Y0179868D02*
X0237000Y0179868D01*
X0237000Y0177869D02*
X0237400Y0177869D01*
X0237400Y0175870D02*
X0237000Y0175870D01*
X0237000Y0173872D02*
X0237400Y0173872D01*
X0237900Y0171873D02*
X0236528Y0171873D01*
X0232000Y0171873D02*
X0232000Y0171873D01*
X0232000Y0173872D02*
X0232000Y0173872D01*
X0232000Y0175870D02*
X0232000Y0175870D01*
X0232000Y0177869D02*
X0232000Y0177869D01*
X0232000Y0179868D02*
X0232000Y0179868D01*
X0232000Y0181866D02*
X0232000Y0181866D01*
X0232000Y0183865D02*
X0232000Y0183865D01*
X0261100Y0157884D02*
X0277900Y0157884D01*
X0286100Y0157884D02*
X0330701Y0157884D01*
X0330701Y0155885D02*
X0286100Y0155885D01*
X0286100Y0153887D02*
X0330701Y0153887D01*
X0330701Y0151888D02*
X0286197Y0151888D01*
X0286600Y0149890D02*
X0330701Y0149890D01*
X0330701Y0147891D02*
X0286600Y0147891D01*
X0286600Y0145893D02*
X0330701Y0145893D01*
X0330701Y0143894D02*
X0286600Y0143894D01*
X0286107Y0141896D02*
X0330701Y0141896D01*
X0330701Y0135900D02*
X0211100Y0135900D01*
X0211100Y0133902D02*
X0330701Y0133902D01*
X0330701Y0131903D02*
X0211100Y0131903D01*
X0211100Y0129905D02*
X0330701Y0129905D01*
X0330701Y0127906D02*
X0211100Y0127906D01*
X0211100Y0125908D02*
X0330701Y0125908D01*
X0330701Y0123909D02*
X0211100Y0123909D01*
X0211100Y0121911D02*
X0330701Y0121911D01*
X0330701Y0119912D02*
X0211100Y0119912D01*
X0211100Y0117914D02*
X0330701Y0117914D01*
X0330701Y0115915D02*
X0323700Y0115915D01*
X0325213Y0113917D02*
X0330701Y0113917D01*
X0330701Y0111918D02*
X0325650Y0111918D01*
X0325276Y0109920D02*
X0330701Y0109920D01*
X0330701Y0107921D02*
X0323851Y0107921D01*
X0267461Y0141896D02*
X0261107Y0141896D01*
X0261600Y0143894D02*
X0267000Y0143894D01*
X0267000Y0145893D02*
X0261600Y0145893D01*
X0261600Y0147891D02*
X0267000Y0147891D01*
X0267000Y0149890D02*
X0261600Y0149890D01*
X0261197Y0151888D02*
X0267356Y0151888D01*
X0289829Y0169875D02*
X0292900Y0169875D01*
X0292900Y0171873D02*
X0291528Y0171873D01*
X0292000Y0173872D02*
X0292400Y0173872D01*
X0292400Y0175870D02*
X0292000Y0175870D01*
X0292000Y0177869D02*
X0292400Y0177869D01*
X0292400Y0179868D02*
X0292000Y0179868D01*
X0291651Y0181866D02*
X0292794Y0181866D01*
X0294359Y0183865D02*
X0290187Y0183865D01*
X0275695Y0065952D02*
X0250943Y0065952D01*
X0250943Y0063954D02*
X0273531Y0063954D01*
X0272268Y0061955D02*
X0250943Y0061955D01*
X0250943Y0059957D02*
X0271502Y0059957D01*
X0271094Y0057958D02*
X0250943Y0057958D01*
X0250943Y0055960D02*
X0271094Y0055960D01*
X0271524Y0053961D02*
X0250943Y0053961D01*
X0250943Y0051963D02*
X0272316Y0051963D01*
X0273613Y0049964D02*
X0250943Y0049964D01*
X0250943Y0047966D02*
X0275837Y0047966D01*
X0270427Y0029979D02*
X0284204Y0029979D01*
X0282312Y0027981D02*
X0272107Y0027981D01*
X0272679Y0025982D02*
X0281718Y0025982D01*
X0281718Y0023984D02*
X0272682Y0023984D01*
X0267332Y0023984D02*
X0266982Y0023984D01*
X0266982Y0025982D02*
X0267332Y0025982D01*
X0267332Y0027981D02*
X0266982Y0027981D01*
X0266982Y0029979D02*
X0267332Y0029979D01*
X0267332Y0019987D02*
X0266982Y0019987D01*
X0266982Y0017988D02*
X0267332Y0017988D01*
X0267332Y0015990D02*
X0266982Y0015990D01*
X0266982Y0013991D02*
X0267332Y0013991D01*
X0263929Y0013991D02*
X0251100Y0013991D01*
X0251360Y0015990D02*
X0262223Y0015990D01*
X0261641Y0017988D02*
X0251968Y0017988D01*
X0251968Y0019987D02*
X0261632Y0019987D01*
X0289481Y0029979D02*
X0303888Y0029979D01*
X0302208Y0027981D02*
X0291373Y0027981D01*
X0291968Y0025982D02*
X0301636Y0025982D01*
X0301632Y0023984D02*
X0291968Y0023984D01*
X0227332Y0023984D02*
X0226982Y0023984D01*
X0226982Y0022175D02*
X0226982Y0031050D01*
X0226723Y0031050D01*
X0225864Y0030914D01*
X0225037Y0030645D01*
X0224262Y0030250D01*
X0223558Y0029739D01*
X0222943Y0029124D01*
X0222432Y0028421D01*
X0222037Y0027646D01*
X0221769Y0026819D01*
X0221632Y0025960D01*
X0221632Y0022175D01*
X0226982Y0022175D01*
X0221632Y0023984D02*
X0211968Y0023984D01*
X0211968Y0025982D02*
X0221636Y0025982D01*
X0222208Y0027981D02*
X0211373Y0027981D01*
X0210943Y0029979D02*
X0223888Y0029979D01*
X0226982Y0029979D02*
X0227332Y0029979D01*
X0227332Y0027981D02*
X0226982Y0027981D01*
X0226982Y0025982D02*
X0227332Y0025982D01*
D15*
X0246843Y0022000D02*
X0246843Y0071843D01*
X0247000Y0072000D01*
X0247000Y0092000D01*
X0172000Y0092000D01*
X0172000Y0082000D01*
X0182000Y0117000D02*
X0207000Y0117000D01*
X0207000Y0152000D01*
X0206843Y0152157D01*
X0206843Y0162000D01*
X0242000Y0162000D01*
X0257000Y0162000D01*
X0272000Y0162000D01*
X0282000Y0162000D01*
X0297000Y0162000D01*
X0297000Y0177000D01*
X0282000Y0162000D02*
X0282000Y0147000D01*
X0272000Y0162000D02*
X0272000Y0177000D01*
X0257000Y0162000D02*
X0257000Y0147000D01*
X0242000Y0162000D02*
X0242000Y0177000D01*
X0206843Y0172000D02*
X0206843Y0162000D01*
X0187157Y0172000D02*
X0166843Y0172000D01*
X0147157Y0172000D02*
X0097000Y0172000D01*
X0087000Y0162000D01*
X0042000Y0117000D01*
X0022157Y0117000D01*
X0022000Y0117157D01*
X0022000Y0057000D02*
X0052000Y0027000D01*
X0087000Y0027000D01*
X0105500Y0008500D01*
X0163500Y0008500D01*
X0166843Y0011843D01*
X0166843Y0022000D01*
X0147157Y0022000D02*
X0147000Y0022157D01*
X0147000Y0032000D01*
X0157000Y0042000D01*
X0202000Y0042000D01*
X0206843Y0037157D01*
X0206843Y0022000D01*
X0197000Y0008500D02*
X0247000Y0008500D01*
X0287000Y0008500D01*
X0327000Y0008500D01*
X0327000Y0021843D01*
X0326843Y0022000D01*
X0286843Y0022000D02*
X0286843Y0008657D01*
X0287000Y0008500D01*
X0247000Y0008500D02*
X0247000Y0021843D01*
X0246843Y0022000D01*
X0197000Y0008500D02*
X0187000Y0018500D01*
X0187000Y0022000D01*
X0247000Y0072000D02*
X0316843Y0072000D01*
X0317000Y0071843D01*
X0317000Y0111843D02*
X0316843Y0112000D01*
X0247000Y0112000D01*
X0247000Y0092000D01*
M02*
