G75*
%MOIN*%
%OFA0B0*%
%FSLAX25Y25*%
%IPPOS*%
%LPD*%
%AMOC8*
5,1,8,0,0,1.08239X$1,22.5*
%
%ADD10C,0.12611*%
%ADD11C,0.07850*%
%ADD12C,0.18900*%
%ADD13OC8,0.18900*%
%ADD14C,0.06800*%
D10*
X0017000Y0012000D03*
X0017000Y0182000D03*
X0362000Y0182000D03*
X0362000Y0012000D03*
D11*
X0361843Y0043475D02*
X0361843Y0050525D01*
X0342157Y0050525D02*
X0342157Y0043475D01*
X0321843Y0043475D02*
X0321843Y0050525D01*
X0302157Y0050525D02*
X0302157Y0043475D01*
X0281843Y0043475D02*
X0281843Y0050525D01*
X0262157Y0050525D02*
X0262157Y0043475D01*
X0241843Y0043475D02*
X0241843Y0050525D01*
X0222157Y0050525D02*
X0222157Y0043475D01*
X0201843Y0043475D02*
X0201843Y0050525D01*
X0182157Y0050525D02*
X0182157Y0043475D01*
X0161843Y0025525D02*
X0161843Y0018475D01*
X0142157Y0018475D02*
X0142157Y0025525D01*
X0025525Y0037157D02*
X0018475Y0037157D01*
X0018475Y0056843D02*
X0025525Y0056843D01*
X0025525Y0137157D02*
X0018475Y0137157D01*
X0018475Y0156843D02*
X0025525Y0156843D01*
X0142157Y0168475D02*
X0142157Y0175525D01*
X0161843Y0175525D02*
X0161843Y0168475D01*
X0182157Y0155525D02*
X0182157Y0148475D01*
X0201843Y0148475D02*
X0201843Y0155525D01*
X0222157Y0155525D02*
X0222157Y0148475D01*
X0241843Y0148475D02*
X0241843Y0155525D01*
X0262157Y0155525D02*
X0262157Y0148475D01*
X0281843Y0148475D02*
X0281843Y0155525D01*
X0302157Y0155525D02*
X0302157Y0148475D01*
X0321843Y0148475D02*
X0321843Y0155525D01*
X0342157Y0155525D02*
X0342157Y0148475D01*
X0361843Y0148475D02*
X0361843Y0155525D01*
D12*
X0087000Y0167000D03*
X0087000Y0027000D03*
D13*
X0087000Y0067000D03*
X0087000Y0127000D03*
D14*
X0142000Y0130000D02*
X0142000Y0124000D01*
X0152000Y0124000D02*
X0152000Y0130000D01*
X0152000Y0070000D02*
X0152000Y0064000D01*
X0142000Y0064000D02*
X0142000Y0070000D01*
M02*
