%
M48
M72
T01C0.04000
T02C0.04700
T03C0.07900
T04C0.11811
%
T01
X142000Y67000
X152000Y67000
X152000Y127000
X142000Y127000
T02
X182157Y152000
X201843Y152000
X222157Y152000
X241843Y152000
X262157Y152000
X281843Y152000
X302157Y152000
X321843Y152000
X342157Y152000
X361843Y152000
X161843Y172000
X142157Y172000
X22000Y156843
X22000Y137157
X22000Y56843
X22000Y37157
X142157Y22000
X161843Y22000
X182157Y47000
X201843Y47000
X222157Y47000
X241843Y47000
X262157Y47000
X281843Y47000
X302157Y47000
X321843Y47000
X342157Y47000
X361843Y47000
T03
X87000Y27000
X87000Y67000
X87000Y127000
X87000Y167000
T04
X17000Y12000
X17000Y182000
X362000Y182000
X362000Y12000
M30
