G75*
%MOIN*%
%OFA0B0*%
%FSLAX25Y25*%
%IPPOS*%
%LPD*%
%AMOC8*
5,1,8,0,0,1.08239X$1,22.5*
%
%ADD10C,0.00600*%
%ADD11C,0.00500*%
%ADD12C,0.01000*%
%ADD13R,0.20000X0.05000*%
%ADD14C,0.00700*%
D10*
X0002299Y0027358D02*
X0003098Y0027358D01*
X0003098Y0066657D01*
X0029098Y0066657D01*
X0038500Y0066657D01*
X0038500Y0027358D01*
X0029098Y0027358D01*
X0003098Y0027358D01*
X0002299Y0027358D02*
X0002299Y0066657D01*
X0003098Y0066657D01*
X0006300Y0056857D02*
X0006302Y0056946D01*
X0006308Y0057035D01*
X0006318Y0057124D01*
X0006332Y0057212D01*
X0006349Y0057299D01*
X0006371Y0057385D01*
X0006397Y0057471D01*
X0006426Y0057555D01*
X0006459Y0057638D01*
X0006495Y0057719D01*
X0006536Y0057799D01*
X0006579Y0057876D01*
X0006626Y0057952D01*
X0006677Y0058025D01*
X0006730Y0058096D01*
X0006787Y0058165D01*
X0006847Y0058231D01*
X0006910Y0058295D01*
X0006975Y0058355D01*
X0007043Y0058413D01*
X0007114Y0058467D01*
X0007187Y0058518D01*
X0007262Y0058566D01*
X0007339Y0058611D01*
X0007418Y0058652D01*
X0007499Y0058689D01*
X0007581Y0058723D01*
X0007665Y0058754D01*
X0007750Y0058780D01*
X0007836Y0058803D01*
X0007923Y0058821D01*
X0008011Y0058836D01*
X0008100Y0058847D01*
X0008189Y0058854D01*
X0008278Y0058857D01*
X0008367Y0058856D01*
X0008456Y0058851D01*
X0008544Y0058842D01*
X0008633Y0058829D01*
X0008720Y0058812D01*
X0008807Y0058792D01*
X0008893Y0058767D01*
X0008977Y0058739D01*
X0009060Y0058707D01*
X0009142Y0058671D01*
X0009222Y0058632D01*
X0009300Y0058589D01*
X0009376Y0058543D01*
X0009450Y0058493D01*
X0009522Y0058440D01*
X0009591Y0058384D01*
X0009658Y0058325D01*
X0009722Y0058263D01*
X0009783Y0058199D01*
X0009842Y0058131D01*
X0009897Y0058061D01*
X0009949Y0057989D01*
X0009998Y0057914D01*
X0010043Y0057838D01*
X0010085Y0057759D01*
X0010123Y0057679D01*
X0010158Y0057597D01*
X0010189Y0057513D01*
X0010217Y0057428D01*
X0010240Y0057342D01*
X0010260Y0057255D01*
X0010276Y0057168D01*
X0010288Y0057079D01*
X0010296Y0056991D01*
X0010300Y0056902D01*
X0010300Y0056812D01*
X0010296Y0056723D01*
X0010288Y0056635D01*
X0010276Y0056546D01*
X0010260Y0056459D01*
X0010240Y0056372D01*
X0010217Y0056286D01*
X0010189Y0056201D01*
X0010158Y0056117D01*
X0010123Y0056035D01*
X0010085Y0055955D01*
X0010043Y0055876D01*
X0009998Y0055800D01*
X0009949Y0055725D01*
X0009897Y0055653D01*
X0009842Y0055583D01*
X0009783Y0055515D01*
X0009722Y0055451D01*
X0009658Y0055389D01*
X0009591Y0055330D01*
X0009522Y0055274D01*
X0009450Y0055221D01*
X0009376Y0055171D01*
X0009300Y0055125D01*
X0009222Y0055082D01*
X0009142Y0055043D01*
X0009060Y0055007D01*
X0008977Y0054975D01*
X0008893Y0054947D01*
X0008807Y0054922D01*
X0008720Y0054902D01*
X0008633Y0054885D01*
X0008544Y0054872D01*
X0008456Y0054863D01*
X0008367Y0054858D01*
X0008278Y0054857D01*
X0008189Y0054860D01*
X0008100Y0054867D01*
X0008011Y0054878D01*
X0007923Y0054893D01*
X0007836Y0054911D01*
X0007750Y0054934D01*
X0007665Y0054960D01*
X0007581Y0054991D01*
X0007499Y0055025D01*
X0007418Y0055062D01*
X0007339Y0055103D01*
X0007262Y0055148D01*
X0007187Y0055196D01*
X0007114Y0055247D01*
X0007043Y0055301D01*
X0006975Y0055359D01*
X0006910Y0055419D01*
X0006847Y0055483D01*
X0006787Y0055549D01*
X0006730Y0055618D01*
X0006677Y0055689D01*
X0006626Y0055762D01*
X0006579Y0055838D01*
X0006536Y0055915D01*
X0006495Y0055995D01*
X0006459Y0056076D01*
X0006426Y0056159D01*
X0006397Y0056243D01*
X0006371Y0056329D01*
X0006349Y0056415D01*
X0006332Y0056502D01*
X0006318Y0056590D01*
X0006308Y0056679D01*
X0006302Y0056768D01*
X0006300Y0056857D01*
X0029098Y0053358D02*
X0029098Y0040657D01*
X0029098Y0033657D02*
X0029098Y0027358D01*
X0006300Y0037157D02*
X0006302Y0037246D01*
X0006308Y0037335D01*
X0006318Y0037424D01*
X0006332Y0037512D01*
X0006349Y0037599D01*
X0006371Y0037685D01*
X0006397Y0037771D01*
X0006426Y0037855D01*
X0006459Y0037938D01*
X0006495Y0038019D01*
X0006536Y0038099D01*
X0006579Y0038176D01*
X0006626Y0038252D01*
X0006677Y0038325D01*
X0006730Y0038396D01*
X0006787Y0038465D01*
X0006847Y0038531D01*
X0006910Y0038595D01*
X0006975Y0038655D01*
X0007043Y0038713D01*
X0007114Y0038767D01*
X0007187Y0038818D01*
X0007262Y0038866D01*
X0007339Y0038911D01*
X0007418Y0038952D01*
X0007499Y0038989D01*
X0007581Y0039023D01*
X0007665Y0039054D01*
X0007750Y0039080D01*
X0007836Y0039103D01*
X0007923Y0039121D01*
X0008011Y0039136D01*
X0008100Y0039147D01*
X0008189Y0039154D01*
X0008278Y0039157D01*
X0008367Y0039156D01*
X0008456Y0039151D01*
X0008544Y0039142D01*
X0008633Y0039129D01*
X0008720Y0039112D01*
X0008807Y0039092D01*
X0008893Y0039067D01*
X0008977Y0039039D01*
X0009060Y0039007D01*
X0009142Y0038971D01*
X0009222Y0038932D01*
X0009300Y0038889D01*
X0009376Y0038843D01*
X0009450Y0038793D01*
X0009522Y0038740D01*
X0009591Y0038684D01*
X0009658Y0038625D01*
X0009722Y0038563D01*
X0009783Y0038499D01*
X0009842Y0038431D01*
X0009897Y0038361D01*
X0009949Y0038289D01*
X0009998Y0038214D01*
X0010043Y0038138D01*
X0010085Y0038059D01*
X0010123Y0037979D01*
X0010158Y0037897D01*
X0010189Y0037813D01*
X0010217Y0037728D01*
X0010240Y0037642D01*
X0010260Y0037555D01*
X0010276Y0037468D01*
X0010288Y0037379D01*
X0010296Y0037291D01*
X0010300Y0037202D01*
X0010300Y0037112D01*
X0010296Y0037023D01*
X0010288Y0036935D01*
X0010276Y0036846D01*
X0010260Y0036759D01*
X0010240Y0036672D01*
X0010217Y0036586D01*
X0010189Y0036501D01*
X0010158Y0036417D01*
X0010123Y0036335D01*
X0010085Y0036255D01*
X0010043Y0036176D01*
X0009998Y0036100D01*
X0009949Y0036025D01*
X0009897Y0035953D01*
X0009842Y0035883D01*
X0009783Y0035815D01*
X0009722Y0035751D01*
X0009658Y0035689D01*
X0009591Y0035630D01*
X0009522Y0035574D01*
X0009450Y0035521D01*
X0009376Y0035471D01*
X0009300Y0035425D01*
X0009222Y0035382D01*
X0009142Y0035343D01*
X0009060Y0035307D01*
X0008977Y0035275D01*
X0008893Y0035247D01*
X0008807Y0035222D01*
X0008720Y0035202D01*
X0008633Y0035185D01*
X0008544Y0035172D01*
X0008456Y0035163D01*
X0008367Y0035158D01*
X0008278Y0035157D01*
X0008189Y0035160D01*
X0008100Y0035167D01*
X0008011Y0035178D01*
X0007923Y0035193D01*
X0007836Y0035211D01*
X0007750Y0035234D01*
X0007665Y0035260D01*
X0007581Y0035291D01*
X0007499Y0035325D01*
X0007418Y0035362D01*
X0007339Y0035403D01*
X0007262Y0035448D01*
X0007187Y0035496D01*
X0007114Y0035547D01*
X0007043Y0035601D01*
X0006975Y0035659D01*
X0006910Y0035719D01*
X0006847Y0035783D01*
X0006787Y0035849D01*
X0006730Y0035918D01*
X0006677Y0035989D01*
X0006626Y0036062D01*
X0006579Y0036138D01*
X0006536Y0036215D01*
X0006495Y0036295D01*
X0006459Y0036376D01*
X0006426Y0036459D01*
X0006397Y0036543D01*
X0006371Y0036629D01*
X0006349Y0036715D01*
X0006332Y0036802D01*
X0006318Y0036890D01*
X0006308Y0036979D01*
X0006302Y0037068D01*
X0006300Y0037157D01*
X0029098Y0060358D02*
X0029098Y0066657D01*
X0042500Y0047000D02*
X0042513Y0048092D01*
X0042554Y0049184D01*
X0042621Y0050274D01*
X0042714Y0051362D01*
X0042835Y0052447D01*
X0042982Y0053530D01*
X0043155Y0054608D01*
X0043355Y0055682D01*
X0043581Y0056750D01*
X0043834Y0057813D01*
X0044112Y0058869D01*
X0044416Y0059918D01*
X0044746Y0060959D01*
X0045101Y0061992D01*
X0045482Y0063015D01*
X0045887Y0064029D01*
X0046318Y0065033D01*
X0046772Y0066026D01*
X0047252Y0067008D01*
X0047755Y0067977D01*
X0048281Y0068934D01*
X0048831Y0069878D01*
X0049404Y0070807D01*
X0050000Y0071723D01*
X0050617Y0072623D01*
X0051257Y0073509D01*
X0051919Y0074378D01*
X0052601Y0075231D01*
X0053304Y0076066D01*
X0054028Y0076884D01*
X0054771Y0077685D01*
X0055534Y0078466D01*
X0056315Y0079229D01*
X0057116Y0079972D01*
X0057934Y0080696D01*
X0058769Y0081399D01*
X0059622Y0082081D01*
X0060491Y0082743D01*
X0061377Y0083383D01*
X0062277Y0084000D01*
X0063193Y0084596D01*
X0064122Y0085169D01*
X0065066Y0085719D01*
X0066023Y0086245D01*
X0066992Y0086748D01*
X0067974Y0087228D01*
X0068967Y0087682D01*
X0069971Y0088113D01*
X0070985Y0088518D01*
X0072008Y0088899D01*
X0073041Y0089254D01*
X0074082Y0089584D01*
X0075131Y0089888D01*
X0076187Y0090166D01*
X0077250Y0090419D01*
X0078318Y0090645D01*
X0079392Y0090845D01*
X0080470Y0091018D01*
X0081553Y0091165D01*
X0082638Y0091286D01*
X0083726Y0091379D01*
X0084816Y0091446D01*
X0085908Y0091487D01*
X0087000Y0091500D01*
X0088092Y0091487D01*
X0089184Y0091446D01*
X0090274Y0091379D01*
X0091362Y0091286D01*
X0092447Y0091165D01*
X0093530Y0091018D01*
X0094608Y0090845D01*
X0095682Y0090645D01*
X0096750Y0090419D01*
X0097813Y0090166D01*
X0098869Y0089888D01*
X0099918Y0089584D01*
X0100959Y0089254D01*
X0101992Y0088899D01*
X0103015Y0088518D01*
X0104029Y0088113D01*
X0105033Y0087682D01*
X0106026Y0087228D01*
X0107008Y0086748D01*
X0107977Y0086245D01*
X0108934Y0085719D01*
X0109878Y0085169D01*
X0110807Y0084596D01*
X0111723Y0084000D01*
X0112623Y0083383D01*
X0113509Y0082743D01*
X0114378Y0082081D01*
X0115231Y0081399D01*
X0116066Y0080696D01*
X0116884Y0079972D01*
X0117685Y0079229D01*
X0118466Y0078466D01*
X0119229Y0077685D01*
X0119972Y0076884D01*
X0120696Y0076066D01*
X0121399Y0075231D01*
X0122081Y0074378D01*
X0122743Y0073509D01*
X0123383Y0072623D01*
X0124000Y0071723D01*
X0124596Y0070807D01*
X0125169Y0069878D01*
X0125719Y0068934D01*
X0126245Y0067977D01*
X0126748Y0067008D01*
X0127228Y0066026D01*
X0127682Y0065033D01*
X0128113Y0064029D01*
X0128518Y0063015D01*
X0128899Y0061992D01*
X0129254Y0060959D01*
X0129584Y0059918D01*
X0129888Y0058869D01*
X0130166Y0057813D01*
X0130419Y0056750D01*
X0130645Y0055682D01*
X0130845Y0054608D01*
X0131018Y0053530D01*
X0131165Y0052447D01*
X0131286Y0051362D01*
X0131379Y0050274D01*
X0131446Y0049184D01*
X0131487Y0048092D01*
X0131500Y0047000D01*
X0131487Y0045908D01*
X0131446Y0044816D01*
X0131379Y0043726D01*
X0131286Y0042638D01*
X0131165Y0041553D01*
X0131018Y0040470D01*
X0130845Y0039392D01*
X0130645Y0038318D01*
X0130419Y0037250D01*
X0130166Y0036187D01*
X0129888Y0035131D01*
X0129584Y0034082D01*
X0129254Y0033041D01*
X0128899Y0032008D01*
X0128518Y0030985D01*
X0128113Y0029971D01*
X0127682Y0028967D01*
X0127228Y0027974D01*
X0126748Y0026992D01*
X0126245Y0026023D01*
X0125719Y0025066D01*
X0125169Y0024122D01*
X0124596Y0023193D01*
X0124000Y0022277D01*
X0123383Y0021377D01*
X0122743Y0020491D01*
X0122081Y0019622D01*
X0121399Y0018769D01*
X0120696Y0017934D01*
X0119972Y0017116D01*
X0119229Y0016315D01*
X0118466Y0015534D01*
X0117685Y0014771D01*
X0116884Y0014028D01*
X0116066Y0013304D01*
X0115231Y0012601D01*
X0114378Y0011919D01*
X0113509Y0011257D01*
X0112623Y0010617D01*
X0111723Y0010000D01*
X0110807Y0009404D01*
X0109878Y0008831D01*
X0108934Y0008281D01*
X0107977Y0007755D01*
X0107008Y0007252D01*
X0106026Y0006772D01*
X0105033Y0006318D01*
X0104029Y0005887D01*
X0103015Y0005482D01*
X0101992Y0005101D01*
X0100959Y0004746D01*
X0099918Y0004416D01*
X0098869Y0004112D01*
X0097813Y0003834D01*
X0096750Y0003581D01*
X0095682Y0003355D01*
X0094608Y0003155D01*
X0093530Y0002982D01*
X0092447Y0002835D01*
X0091362Y0002714D01*
X0090274Y0002621D01*
X0089184Y0002554D01*
X0088092Y0002513D01*
X0087000Y0002500D01*
X0085908Y0002513D01*
X0084816Y0002554D01*
X0083726Y0002621D01*
X0082638Y0002714D01*
X0081553Y0002835D01*
X0080470Y0002982D01*
X0079392Y0003155D01*
X0078318Y0003355D01*
X0077250Y0003581D01*
X0076187Y0003834D01*
X0075131Y0004112D01*
X0074082Y0004416D01*
X0073041Y0004746D01*
X0072008Y0005101D01*
X0070985Y0005482D01*
X0069971Y0005887D01*
X0068967Y0006318D01*
X0067974Y0006772D01*
X0066992Y0007252D01*
X0066023Y0007755D01*
X0065066Y0008281D01*
X0064122Y0008831D01*
X0063193Y0009404D01*
X0062277Y0010000D01*
X0061377Y0010617D01*
X0060491Y0011257D01*
X0059622Y0011919D01*
X0058769Y0012601D01*
X0057934Y0013304D01*
X0057116Y0014028D01*
X0056315Y0014771D01*
X0055534Y0015534D01*
X0054771Y0016315D01*
X0054028Y0017116D01*
X0053304Y0017934D01*
X0052601Y0018769D01*
X0051919Y0019622D01*
X0051257Y0020491D01*
X0050617Y0021377D01*
X0050000Y0022277D01*
X0049404Y0023193D01*
X0048831Y0024122D01*
X0048281Y0025066D01*
X0047755Y0026023D01*
X0047252Y0026992D01*
X0046772Y0027974D01*
X0046318Y0028967D01*
X0045887Y0029971D01*
X0045482Y0030985D01*
X0045101Y0032008D01*
X0044746Y0033041D01*
X0044416Y0034082D01*
X0044112Y0035131D01*
X0043834Y0036187D01*
X0043581Y0037250D01*
X0043355Y0038318D01*
X0043155Y0039392D01*
X0042982Y0040470D01*
X0042835Y0041553D01*
X0042714Y0042638D01*
X0042621Y0043726D01*
X0042554Y0044816D01*
X0042513Y0045908D01*
X0042500Y0047000D01*
X0132343Y0038500D02*
X0132343Y0029098D01*
X0132343Y0003098D01*
X0171642Y0003098D01*
X0171642Y0002299D01*
X0132343Y0002299D01*
X0132343Y0003098D01*
X0140143Y0008300D02*
X0140145Y0008389D01*
X0140151Y0008478D01*
X0140161Y0008567D01*
X0140175Y0008655D01*
X0140192Y0008742D01*
X0140214Y0008828D01*
X0140240Y0008914D01*
X0140269Y0008998D01*
X0140302Y0009081D01*
X0140338Y0009162D01*
X0140379Y0009242D01*
X0140422Y0009319D01*
X0140469Y0009395D01*
X0140520Y0009468D01*
X0140573Y0009539D01*
X0140630Y0009608D01*
X0140690Y0009674D01*
X0140753Y0009738D01*
X0140818Y0009798D01*
X0140886Y0009856D01*
X0140957Y0009910D01*
X0141030Y0009961D01*
X0141105Y0010009D01*
X0141182Y0010054D01*
X0141261Y0010095D01*
X0141342Y0010132D01*
X0141424Y0010166D01*
X0141508Y0010197D01*
X0141593Y0010223D01*
X0141679Y0010246D01*
X0141766Y0010264D01*
X0141854Y0010279D01*
X0141943Y0010290D01*
X0142032Y0010297D01*
X0142121Y0010300D01*
X0142210Y0010299D01*
X0142299Y0010294D01*
X0142387Y0010285D01*
X0142476Y0010272D01*
X0142563Y0010255D01*
X0142650Y0010235D01*
X0142736Y0010210D01*
X0142820Y0010182D01*
X0142903Y0010150D01*
X0142985Y0010114D01*
X0143065Y0010075D01*
X0143143Y0010032D01*
X0143219Y0009986D01*
X0143293Y0009936D01*
X0143365Y0009883D01*
X0143434Y0009827D01*
X0143501Y0009768D01*
X0143565Y0009706D01*
X0143626Y0009642D01*
X0143685Y0009574D01*
X0143740Y0009504D01*
X0143792Y0009432D01*
X0143841Y0009357D01*
X0143886Y0009281D01*
X0143928Y0009202D01*
X0143966Y0009122D01*
X0144001Y0009040D01*
X0144032Y0008956D01*
X0144060Y0008871D01*
X0144083Y0008785D01*
X0144103Y0008698D01*
X0144119Y0008611D01*
X0144131Y0008522D01*
X0144139Y0008434D01*
X0144143Y0008345D01*
X0144143Y0008255D01*
X0144139Y0008166D01*
X0144131Y0008078D01*
X0144119Y0007989D01*
X0144103Y0007902D01*
X0144083Y0007815D01*
X0144060Y0007729D01*
X0144032Y0007644D01*
X0144001Y0007560D01*
X0143966Y0007478D01*
X0143928Y0007398D01*
X0143886Y0007319D01*
X0143841Y0007243D01*
X0143792Y0007168D01*
X0143740Y0007096D01*
X0143685Y0007026D01*
X0143626Y0006958D01*
X0143565Y0006894D01*
X0143501Y0006832D01*
X0143434Y0006773D01*
X0143365Y0006717D01*
X0143293Y0006664D01*
X0143219Y0006614D01*
X0143143Y0006568D01*
X0143065Y0006525D01*
X0142985Y0006486D01*
X0142903Y0006450D01*
X0142820Y0006418D01*
X0142736Y0006390D01*
X0142650Y0006365D01*
X0142563Y0006345D01*
X0142476Y0006328D01*
X0142387Y0006315D01*
X0142299Y0006306D01*
X0142210Y0006301D01*
X0142121Y0006300D01*
X0142032Y0006303D01*
X0141943Y0006310D01*
X0141854Y0006321D01*
X0141766Y0006336D01*
X0141679Y0006354D01*
X0141593Y0006377D01*
X0141508Y0006403D01*
X0141424Y0006434D01*
X0141342Y0006468D01*
X0141261Y0006505D01*
X0141182Y0006546D01*
X0141105Y0006591D01*
X0141030Y0006639D01*
X0140957Y0006690D01*
X0140886Y0006744D01*
X0140818Y0006802D01*
X0140753Y0006862D01*
X0140690Y0006926D01*
X0140630Y0006992D01*
X0140573Y0007061D01*
X0140520Y0007132D01*
X0140469Y0007205D01*
X0140422Y0007281D01*
X0140379Y0007358D01*
X0140338Y0007438D01*
X0140302Y0007519D01*
X0140269Y0007602D01*
X0140240Y0007686D01*
X0140214Y0007772D01*
X0140192Y0007858D01*
X0140175Y0007945D01*
X0140161Y0008033D01*
X0140151Y0008122D01*
X0140145Y0008211D01*
X0140143Y0008300D01*
X0159843Y0008300D02*
X0159845Y0008389D01*
X0159851Y0008478D01*
X0159861Y0008567D01*
X0159875Y0008655D01*
X0159892Y0008742D01*
X0159914Y0008828D01*
X0159940Y0008914D01*
X0159969Y0008998D01*
X0160002Y0009081D01*
X0160038Y0009162D01*
X0160079Y0009242D01*
X0160122Y0009319D01*
X0160169Y0009395D01*
X0160220Y0009468D01*
X0160273Y0009539D01*
X0160330Y0009608D01*
X0160390Y0009674D01*
X0160453Y0009738D01*
X0160518Y0009798D01*
X0160586Y0009856D01*
X0160657Y0009910D01*
X0160730Y0009961D01*
X0160805Y0010009D01*
X0160882Y0010054D01*
X0160961Y0010095D01*
X0161042Y0010132D01*
X0161124Y0010166D01*
X0161208Y0010197D01*
X0161293Y0010223D01*
X0161379Y0010246D01*
X0161466Y0010264D01*
X0161554Y0010279D01*
X0161643Y0010290D01*
X0161732Y0010297D01*
X0161821Y0010300D01*
X0161910Y0010299D01*
X0161999Y0010294D01*
X0162087Y0010285D01*
X0162176Y0010272D01*
X0162263Y0010255D01*
X0162350Y0010235D01*
X0162436Y0010210D01*
X0162520Y0010182D01*
X0162603Y0010150D01*
X0162685Y0010114D01*
X0162765Y0010075D01*
X0162843Y0010032D01*
X0162919Y0009986D01*
X0162993Y0009936D01*
X0163065Y0009883D01*
X0163134Y0009827D01*
X0163201Y0009768D01*
X0163265Y0009706D01*
X0163326Y0009642D01*
X0163385Y0009574D01*
X0163440Y0009504D01*
X0163492Y0009432D01*
X0163541Y0009357D01*
X0163586Y0009281D01*
X0163628Y0009202D01*
X0163666Y0009122D01*
X0163701Y0009040D01*
X0163732Y0008956D01*
X0163760Y0008871D01*
X0163783Y0008785D01*
X0163803Y0008698D01*
X0163819Y0008611D01*
X0163831Y0008522D01*
X0163839Y0008434D01*
X0163843Y0008345D01*
X0163843Y0008255D01*
X0163839Y0008166D01*
X0163831Y0008078D01*
X0163819Y0007989D01*
X0163803Y0007902D01*
X0163783Y0007815D01*
X0163760Y0007729D01*
X0163732Y0007644D01*
X0163701Y0007560D01*
X0163666Y0007478D01*
X0163628Y0007398D01*
X0163586Y0007319D01*
X0163541Y0007243D01*
X0163492Y0007168D01*
X0163440Y0007096D01*
X0163385Y0007026D01*
X0163326Y0006958D01*
X0163265Y0006894D01*
X0163201Y0006832D01*
X0163134Y0006773D01*
X0163065Y0006717D01*
X0162993Y0006664D01*
X0162919Y0006614D01*
X0162843Y0006568D01*
X0162765Y0006525D01*
X0162685Y0006486D01*
X0162603Y0006450D01*
X0162520Y0006418D01*
X0162436Y0006390D01*
X0162350Y0006365D01*
X0162263Y0006345D01*
X0162176Y0006328D01*
X0162087Y0006315D01*
X0161999Y0006306D01*
X0161910Y0006301D01*
X0161821Y0006300D01*
X0161732Y0006303D01*
X0161643Y0006310D01*
X0161554Y0006321D01*
X0161466Y0006336D01*
X0161379Y0006354D01*
X0161293Y0006377D01*
X0161208Y0006403D01*
X0161124Y0006434D01*
X0161042Y0006468D01*
X0160961Y0006505D01*
X0160882Y0006546D01*
X0160805Y0006591D01*
X0160730Y0006639D01*
X0160657Y0006690D01*
X0160586Y0006744D01*
X0160518Y0006802D01*
X0160453Y0006862D01*
X0160390Y0006926D01*
X0160330Y0006992D01*
X0160273Y0007061D01*
X0160220Y0007132D01*
X0160169Y0007205D01*
X0160122Y0007281D01*
X0160079Y0007358D01*
X0160038Y0007438D01*
X0160002Y0007519D01*
X0159969Y0007602D01*
X0159940Y0007686D01*
X0159914Y0007772D01*
X0159892Y0007858D01*
X0159875Y0007945D01*
X0159861Y0008033D01*
X0159851Y0008122D01*
X0159845Y0008211D01*
X0159843Y0008300D01*
X0171642Y0003098D02*
X0171642Y0029098D01*
X0165343Y0029098D01*
X0171642Y0029098D02*
X0171642Y0038500D01*
X0132343Y0038500D01*
X0132343Y0029098D02*
X0138642Y0029098D01*
X0145642Y0029098D02*
X0158343Y0029098D01*
X0172343Y0028098D02*
X0172343Y0054098D01*
X0172343Y0063500D01*
X0211642Y0063500D01*
X0211642Y0054098D01*
X0211642Y0028098D01*
X0211642Y0027299D01*
X0172343Y0027299D01*
X0172343Y0028098D01*
X0211642Y0028098D01*
X0212343Y0028098D02*
X0212343Y0054098D01*
X0212343Y0063500D01*
X0251642Y0063500D01*
X0251642Y0054098D01*
X0251642Y0028098D01*
X0251642Y0027299D01*
X0212343Y0027299D01*
X0212343Y0028098D01*
X0251642Y0028098D01*
X0252343Y0028098D02*
X0252343Y0054098D01*
X0252343Y0063500D01*
X0291642Y0063500D01*
X0291642Y0054098D01*
X0291642Y0028098D01*
X0291642Y0027299D01*
X0252343Y0027299D01*
X0252343Y0028098D01*
X0291642Y0028098D01*
X0292343Y0028098D02*
X0292343Y0054098D01*
X0292343Y0063500D01*
X0331642Y0063500D01*
X0331642Y0054098D01*
X0331642Y0028098D01*
X0331642Y0027299D01*
X0292343Y0027299D01*
X0292343Y0028098D01*
X0331642Y0028098D01*
X0332343Y0028098D02*
X0332343Y0054098D01*
X0332343Y0063500D01*
X0371642Y0063500D01*
X0371642Y0054098D01*
X0371642Y0028098D01*
X0371642Y0027299D01*
X0332343Y0027299D01*
X0332343Y0028098D01*
X0371642Y0028098D01*
X0359843Y0033300D02*
X0359845Y0033389D01*
X0359851Y0033478D01*
X0359861Y0033567D01*
X0359875Y0033655D01*
X0359892Y0033742D01*
X0359914Y0033828D01*
X0359940Y0033914D01*
X0359969Y0033998D01*
X0360002Y0034081D01*
X0360038Y0034162D01*
X0360079Y0034242D01*
X0360122Y0034319D01*
X0360169Y0034395D01*
X0360220Y0034468D01*
X0360273Y0034539D01*
X0360330Y0034608D01*
X0360390Y0034674D01*
X0360453Y0034738D01*
X0360518Y0034798D01*
X0360586Y0034856D01*
X0360657Y0034910D01*
X0360730Y0034961D01*
X0360805Y0035009D01*
X0360882Y0035054D01*
X0360961Y0035095D01*
X0361042Y0035132D01*
X0361124Y0035166D01*
X0361208Y0035197D01*
X0361293Y0035223D01*
X0361379Y0035246D01*
X0361466Y0035264D01*
X0361554Y0035279D01*
X0361643Y0035290D01*
X0361732Y0035297D01*
X0361821Y0035300D01*
X0361910Y0035299D01*
X0361999Y0035294D01*
X0362087Y0035285D01*
X0362176Y0035272D01*
X0362263Y0035255D01*
X0362350Y0035235D01*
X0362436Y0035210D01*
X0362520Y0035182D01*
X0362603Y0035150D01*
X0362685Y0035114D01*
X0362765Y0035075D01*
X0362843Y0035032D01*
X0362919Y0034986D01*
X0362993Y0034936D01*
X0363065Y0034883D01*
X0363134Y0034827D01*
X0363201Y0034768D01*
X0363265Y0034706D01*
X0363326Y0034642D01*
X0363385Y0034574D01*
X0363440Y0034504D01*
X0363492Y0034432D01*
X0363541Y0034357D01*
X0363586Y0034281D01*
X0363628Y0034202D01*
X0363666Y0034122D01*
X0363701Y0034040D01*
X0363732Y0033956D01*
X0363760Y0033871D01*
X0363783Y0033785D01*
X0363803Y0033698D01*
X0363819Y0033611D01*
X0363831Y0033522D01*
X0363839Y0033434D01*
X0363843Y0033345D01*
X0363843Y0033255D01*
X0363839Y0033166D01*
X0363831Y0033078D01*
X0363819Y0032989D01*
X0363803Y0032902D01*
X0363783Y0032815D01*
X0363760Y0032729D01*
X0363732Y0032644D01*
X0363701Y0032560D01*
X0363666Y0032478D01*
X0363628Y0032398D01*
X0363586Y0032319D01*
X0363541Y0032243D01*
X0363492Y0032168D01*
X0363440Y0032096D01*
X0363385Y0032026D01*
X0363326Y0031958D01*
X0363265Y0031894D01*
X0363201Y0031832D01*
X0363134Y0031773D01*
X0363065Y0031717D01*
X0362993Y0031664D01*
X0362919Y0031614D01*
X0362843Y0031568D01*
X0362765Y0031525D01*
X0362685Y0031486D01*
X0362603Y0031450D01*
X0362520Y0031418D01*
X0362436Y0031390D01*
X0362350Y0031365D01*
X0362263Y0031345D01*
X0362176Y0031328D01*
X0362087Y0031315D01*
X0361999Y0031306D01*
X0361910Y0031301D01*
X0361821Y0031300D01*
X0361732Y0031303D01*
X0361643Y0031310D01*
X0361554Y0031321D01*
X0361466Y0031336D01*
X0361379Y0031354D01*
X0361293Y0031377D01*
X0361208Y0031403D01*
X0361124Y0031434D01*
X0361042Y0031468D01*
X0360961Y0031505D01*
X0360882Y0031546D01*
X0360805Y0031591D01*
X0360730Y0031639D01*
X0360657Y0031690D01*
X0360586Y0031744D01*
X0360518Y0031802D01*
X0360453Y0031862D01*
X0360390Y0031926D01*
X0360330Y0031992D01*
X0360273Y0032061D01*
X0360220Y0032132D01*
X0360169Y0032205D01*
X0360122Y0032281D01*
X0360079Y0032358D01*
X0360038Y0032438D01*
X0360002Y0032519D01*
X0359969Y0032602D01*
X0359940Y0032686D01*
X0359914Y0032772D01*
X0359892Y0032858D01*
X0359875Y0032945D01*
X0359861Y0033033D01*
X0359851Y0033122D01*
X0359845Y0033211D01*
X0359843Y0033300D01*
X0340143Y0033300D02*
X0340145Y0033389D01*
X0340151Y0033478D01*
X0340161Y0033567D01*
X0340175Y0033655D01*
X0340192Y0033742D01*
X0340214Y0033828D01*
X0340240Y0033914D01*
X0340269Y0033998D01*
X0340302Y0034081D01*
X0340338Y0034162D01*
X0340379Y0034242D01*
X0340422Y0034319D01*
X0340469Y0034395D01*
X0340520Y0034468D01*
X0340573Y0034539D01*
X0340630Y0034608D01*
X0340690Y0034674D01*
X0340753Y0034738D01*
X0340818Y0034798D01*
X0340886Y0034856D01*
X0340957Y0034910D01*
X0341030Y0034961D01*
X0341105Y0035009D01*
X0341182Y0035054D01*
X0341261Y0035095D01*
X0341342Y0035132D01*
X0341424Y0035166D01*
X0341508Y0035197D01*
X0341593Y0035223D01*
X0341679Y0035246D01*
X0341766Y0035264D01*
X0341854Y0035279D01*
X0341943Y0035290D01*
X0342032Y0035297D01*
X0342121Y0035300D01*
X0342210Y0035299D01*
X0342299Y0035294D01*
X0342387Y0035285D01*
X0342476Y0035272D01*
X0342563Y0035255D01*
X0342650Y0035235D01*
X0342736Y0035210D01*
X0342820Y0035182D01*
X0342903Y0035150D01*
X0342985Y0035114D01*
X0343065Y0035075D01*
X0343143Y0035032D01*
X0343219Y0034986D01*
X0343293Y0034936D01*
X0343365Y0034883D01*
X0343434Y0034827D01*
X0343501Y0034768D01*
X0343565Y0034706D01*
X0343626Y0034642D01*
X0343685Y0034574D01*
X0343740Y0034504D01*
X0343792Y0034432D01*
X0343841Y0034357D01*
X0343886Y0034281D01*
X0343928Y0034202D01*
X0343966Y0034122D01*
X0344001Y0034040D01*
X0344032Y0033956D01*
X0344060Y0033871D01*
X0344083Y0033785D01*
X0344103Y0033698D01*
X0344119Y0033611D01*
X0344131Y0033522D01*
X0344139Y0033434D01*
X0344143Y0033345D01*
X0344143Y0033255D01*
X0344139Y0033166D01*
X0344131Y0033078D01*
X0344119Y0032989D01*
X0344103Y0032902D01*
X0344083Y0032815D01*
X0344060Y0032729D01*
X0344032Y0032644D01*
X0344001Y0032560D01*
X0343966Y0032478D01*
X0343928Y0032398D01*
X0343886Y0032319D01*
X0343841Y0032243D01*
X0343792Y0032168D01*
X0343740Y0032096D01*
X0343685Y0032026D01*
X0343626Y0031958D01*
X0343565Y0031894D01*
X0343501Y0031832D01*
X0343434Y0031773D01*
X0343365Y0031717D01*
X0343293Y0031664D01*
X0343219Y0031614D01*
X0343143Y0031568D01*
X0343065Y0031525D01*
X0342985Y0031486D01*
X0342903Y0031450D01*
X0342820Y0031418D01*
X0342736Y0031390D01*
X0342650Y0031365D01*
X0342563Y0031345D01*
X0342476Y0031328D01*
X0342387Y0031315D01*
X0342299Y0031306D01*
X0342210Y0031301D01*
X0342121Y0031300D01*
X0342032Y0031303D01*
X0341943Y0031310D01*
X0341854Y0031321D01*
X0341766Y0031336D01*
X0341679Y0031354D01*
X0341593Y0031377D01*
X0341508Y0031403D01*
X0341424Y0031434D01*
X0341342Y0031468D01*
X0341261Y0031505D01*
X0341182Y0031546D01*
X0341105Y0031591D01*
X0341030Y0031639D01*
X0340957Y0031690D01*
X0340886Y0031744D01*
X0340818Y0031802D01*
X0340753Y0031862D01*
X0340690Y0031926D01*
X0340630Y0031992D01*
X0340573Y0032061D01*
X0340520Y0032132D01*
X0340469Y0032205D01*
X0340422Y0032281D01*
X0340379Y0032358D01*
X0340338Y0032438D01*
X0340302Y0032519D01*
X0340269Y0032602D01*
X0340240Y0032686D01*
X0340214Y0032772D01*
X0340192Y0032858D01*
X0340175Y0032945D01*
X0340161Y0033033D01*
X0340151Y0033122D01*
X0340145Y0033211D01*
X0340143Y0033300D01*
X0319843Y0033300D02*
X0319845Y0033389D01*
X0319851Y0033478D01*
X0319861Y0033567D01*
X0319875Y0033655D01*
X0319892Y0033742D01*
X0319914Y0033828D01*
X0319940Y0033914D01*
X0319969Y0033998D01*
X0320002Y0034081D01*
X0320038Y0034162D01*
X0320079Y0034242D01*
X0320122Y0034319D01*
X0320169Y0034395D01*
X0320220Y0034468D01*
X0320273Y0034539D01*
X0320330Y0034608D01*
X0320390Y0034674D01*
X0320453Y0034738D01*
X0320518Y0034798D01*
X0320586Y0034856D01*
X0320657Y0034910D01*
X0320730Y0034961D01*
X0320805Y0035009D01*
X0320882Y0035054D01*
X0320961Y0035095D01*
X0321042Y0035132D01*
X0321124Y0035166D01*
X0321208Y0035197D01*
X0321293Y0035223D01*
X0321379Y0035246D01*
X0321466Y0035264D01*
X0321554Y0035279D01*
X0321643Y0035290D01*
X0321732Y0035297D01*
X0321821Y0035300D01*
X0321910Y0035299D01*
X0321999Y0035294D01*
X0322087Y0035285D01*
X0322176Y0035272D01*
X0322263Y0035255D01*
X0322350Y0035235D01*
X0322436Y0035210D01*
X0322520Y0035182D01*
X0322603Y0035150D01*
X0322685Y0035114D01*
X0322765Y0035075D01*
X0322843Y0035032D01*
X0322919Y0034986D01*
X0322993Y0034936D01*
X0323065Y0034883D01*
X0323134Y0034827D01*
X0323201Y0034768D01*
X0323265Y0034706D01*
X0323326Y0034642D01*
X0323385Y0034574D01*
X0323440Y0034504D01*
X0323492Y0034432D01*
X0323541Y0034357D01*
X0323586Y0034281D01*
X0323628Y0034202D01*
X0323666Y0034122D01*
X0323701Y0034040D01*
X0323732Y0033956D01*
X0323760Y0033871D01*
X0323783Y0033785D01*
X0323803Y0033698D01*
X0323819Y0033611D01*
X0323831Y0033522D01*
X0323839Y0033434D01*
X0323843Y0033345D01*
X0323843Y0033255D01*
X0323839Y0033166D01*
X0323831Y0033078D01*
X0323819Y0032989D01*
X0323803Y0032902D01*
X0323783Y0032815D01*
X0323760Y0032729D01*
X0323732Y0032644D01*
X0323701Y0032560D01*
X0323666Y0032478D01*
X0323628Y0032398D01*
X0323586Y0032319D01*
X0323541Y0032243D01*
X0323492Y0032168D01*
X0323440Y0032096D01*
X0323385Y0032026D01*
X0323326Y0031958D01*
X0323265Y0031894D01*
X0323201Y0031832D01*
X0323134Y0031773D01*
X0323065Y0031717D01*
X0322993Y0031664D01*
X0322919Y0031614D01*
X0322843Y0031568D01*
X0322765Y0031525D01*
X0322685Y0031486D01*
X0322603Y0031450D01*
X0322520Y0031418D01*
X0322436Y0031390D01*
X0322350Y0031365D01*
X0322263Y0031345D01*
X0322176Y0031328D01*
X0322087Y0031315D01*
X0321999Y0031306D01*
X0321910Y0031301D01*
X0321821Y0031300D01*
X0321732Y0031303D01*
X0321643Y0031310D01*
X0321554Y0031321D01*
X0321466Y0031336D01*
X0321379Y0031354D01*
X0321293Y0031377D01*
X0321208Y0031403D01*
X0321124Y0031434D01*
X0321042Y0031468D01*
X0320961Y0031505D01*
X0320882Y0031546D01*
X0320805Y0031591D01*
X0320730Y0031639D01*
X0320657Y0031690D01*
X0320586Y0031744D01*
X0320518Y0031802D01*
X0320453Y0031862D01*
X0320390Y0031926D01*
X0320330Y0031992D01*
X0320273Y0032061D01*
X0320220Y0032132D01*
X0320169Y0032205D01*
X0320122Y0032281D01*
X0320079Y0032358D01*
X0320038Y0032438D01*
X0320002Y0032519D01*
X0319969Y0032602D01*
X0319940Y0032686D01*
X0319914Y0032772D01*
X0319892Y0032858D01*
X0319875Y0032945D01*
X0319861Y0033033D01*
X0319851Y0033122D01*
X0319845Y0033211D01*
X0319843Y0033300D01*
X0300143Y0033300D02*
X0300145Y0033389D01*
X0300151Y0033478D01*
X0300161Y0033567D01*
X0300175Y0033655D01*
X0300192Y0033742D01*
X0300214Y0033828D01*
X0300240Y0033914D01*
X0300269Y0033998D01*
X0300302Y0034081D01*
X0300338Y0034162D01*
X0300379Y0034242D01*
X0300422Y0034319D01*
X0300469Y0034395D01*
X0300520Y0034468D01*
X0300573Y0034539D01*
X0300630Y0034608D01*
X0300690Y0034674D01*
X0300753Y0034738D01*
X0300818Y0034798D01*
X0300886Y0034856D01*
X0300957Y0034910D01*
X0301030Y0034961D01*
X0301105Y0035009D01*
X0301182Y0035054D01*
X0301261Y0035095D01*
X0301342Y0035132D01*
X0301424Y0035166D01*
X0301508Y0035197D01*
X0301593Y0035223D01*
X0301679Y0035246D01*
X0301766Y0035264D01*
X0301854Y0035279D01*
X0301943Y0035290D01*
X0302032Y0035297D01*
X0302121Y0035300D01*
X0302210Y0035299D01*
X0302299Y0035294D01*
X0302387Y0035285D01*
X0302476Y0035272D01*
X0302563Y0035255D01*
X0302650Y0035235D01*
X0302736Y0035210D01*
X0302820Y0035182D01*
X0302903Y0035150D01*
X0302985Y0035114D01*
X0303065Y0035075D01*
X0303143Y0035032D01*
X0303219Y0034986D01*
X0303293Y0034936D01*
X0303365Y0034883D01*
X0303434Y0034827D01*
X0303501Y0034768D01*
X0303565Y0034706D01*
X0303626Y0034642D01*
X0303685Y0034574D01*
X0303740Y0034504D01*
X0303792Y0034432D01*
X0303841Y0034357D01*
X0303886Y0034281D01*
X0303928Y0034202D01*
X0303966Y0034122D01*
X0304001Y0034040D01*
X0304032Y0033956D01*
X0304060Y0033871D01*
X0304083Y0033785D01*
X0304103Y0033698D01*
X0304119Y0033611D01*
X0304131Y0033522D01*
X0304139Y0033434D01*
X0304143Y0033345D01*
X0304143Y0033255D01*
X0304139Y0033166D01*
X0304131Y0033078D01*
X0304119Y0032989D01*
X0304103Y0032902D01*
X0304083Y0032815D01*
X0304060Y0032729D01*
X0304032Y0032644D01*
X0304001Y0032560D01*
X0303966Y0032478D01*
X0303928Y0032398D01*
X0303886Y0032319D01*
X0303841Y0032243D01*
X0303792Y0032168D01*
X0303740Y0032096D01*
X0303685Y0032026D01*
X0303626Y0031958D01*
X0303565Y0031894D01*
X0303501Y0031832D01*
X0303434Y0031773D01*
X0303365Y0031717D01*
X0303293Y0031664D01*
X0303219Y0031614D01*
X0303143Y0031568D01*
X0303065Y0031525D01*
X0302985Y0031486D01*
X0302903Y0031450D01*
X0302820Y0031418D01*
X0302736Y0031390D01*
X0302650Y0031365D01*
X0302563Y0031345D01*
X0302476Y0031328D01*
X0302387Y0031315D01*
X0302299Y0031306D01*
X0302210Y0031301D01*
X0302121Y0031300D01*
X0302032Y0031303D01*
X0301943Y0031310D01*
X0301854Y0031321D01*
X0301766Y0031336D01*
X0301679Y0031354D01*
X0301593Y0031377D01*
X0301508Y0031403D01*
X0301424Y0031434D01*
X0301342Y0031468D01*
X0301261Y0031505D01*
X0301182Y0031546D01*
X0301105Y0031591D01*
X0301030Y0031639D01*
X0300957Y0031690D01*
X0300886Y0031744D01*
X0300818Y0031802D01*
X0300753Y0031862D01*
X0300690Y0031926D01*
X0300630Y0031992D01*
X0300573Y0032061D01*
X0300520Y0032132D01*
X0300469Y0032205D01*
X0300422Y0032281D01*
X0300379Y0032358D01*
X0300338Y0032438D01*
X0300302Y0032519D01*
X0300269Y0032602D01*
X0300240Y0032686D01*
X0300214Y0032772D01*
X0300192Y0032858D01*
X0300175Y0032945D01*
X0300161Y0033033D01*
X0300151Y0033122D01*
X0300145Y0033211D01*
X0300143Y0033300D01*
X0279843Y0033300D02*
X0279845Y0033389D01*
X0279851Y0033478D01*
X0279861Y0033567D01*
X0279875Y0033655D01*
X0279892Y0033742D01*
X0279914Y0033828D01*
X0279940Y0033914D01*
X0279969Y0033998D01*
X0280002Y0034081D01*
X0280038Y0034162D01*
X0280079Y0034242D01*
X0280122Y0034319D01*
X0280169Y0034395D01*
X0280220Y0034468D01*
X0280273Y0034539D01*
X0280330Y0034608D01*
X0280390Y0034674D01*
X0280453Y0034738D01*
X0280518Y0034798D01*
X0280586Y0034856D01*
X0280657Y0034910D01*
X0280730Y0034961D01*
X0280805Y0035009D01*
X0280882Y0035054D01*
X0280961Y0035095D01*
X0281042Y0035132D01*
X0281124Y0035166D01*
X0281208Y0035197D01*
X0281293Y0035223D01*
X0281379Y0035246D01*
X0281466Y0035264D01*
X0281554Y0035279D01*
X0281643Y0035290D01*
X0281732Y0035297D01*
X0281821Y0035300D01*
X0281910Y0035299D01*
X0281999Y0035294D01*
X0282087Y0035285D01*
X0282176Y0035272D01*
X0282263Y0035255D01*
X0282350Y0035235D01*
X0282436Y0035210D01*
X0282520Y0035182D01*
X0282603Y0035150D01*
X0282685Y0035114D01*
X0282765Y0035075D01*
X0282843Y0035032D01*
X0282919Y0034986D01*
X0282993Y0034936D01*
X0283065Y0034883D01*
X0283134Y0034827D01*
X0283201Y0034768D01*
X0283265Y0034706D01*
X0283326Y0034642D01*
X0283385Y0034574D01*
X0283440Y0034504D01*
X0283492Y0034432D01*
X0283541Y0034357D01*
X0283586Y0034281D01*
X0283628Y0034202D01*
X0283666Y0034122D01*
X0283701Y0034040D01*
X0283732Y0033956D01*
X0283760Y0033871D01*
X0283783Y0033785D01*
X0283803Y0033698D01*
X0283819Y0033611D01*
X0283831Y0033522D01*
X0283839Y0033434D01*
X0283843Y0033345D01*
X0283843Y0033255D01*
X0283839Y0033166D01*
X0283831Y0033078D01*
X0283819Y0032989D01*
X0283803Y0032902D01*
X0283783Y0032815D01*
X0283760Y0032729D01*
X0283732Y0032644D01*
X0283701Y0032560D01*
X0283666Y0032478D01*
X0283628Y0032398D01*
X0283586Y0032319D01*
X0283541Y0032243D01*
X0283492Y0032168D01*
X0283440Y0032096D01*
X0283385Y0032026D01*
X0283326Y0031958D01*
X0283265Y0031894D01*
X0283201Y0031832D01*
X0283134Y0031773D01*
X0283065Y0031717D01*
X0282993Y0031664D01*
X0282919Y0031614D01*
X0282843Y0031568D01*
X0282765Y0031525D01*
X0282685Y0031486D01*
X0282603Y0031450D01*
X0282520Y0031418D01*
X0282436Y0031390D01*
X0282350Y0031365D01*
X0282263Y0031345D01*
X0282176Y0031328D01*
X0282087Y0031315D01*
X0281999Y0031306D01*
X0281910Y0031301D01*
X0281821Y0031300D01*
X0281732Y0031303D01*
X0281643Y0031310D01*
X0281554Y0031321D01*
X0281466Y0031336D01*
X0281379Y0031354D01*
X0281293Y0031377D01*
X0281208Y0031403D01*
X0281124Y0031434D01*
X0281042Y0031468D01*
X0280961Y0031505D01*
X0280882Y0031546D01*
X0280805Y0031591D01*
X0280730Y0031639D01*
X0280657Y0031690D01*
X0280586Y0031744D01*
X0280518Y0031802D01*
X0280453Y0031862D01*
X0280390Y0031926D01*
X0280330Y0031992D01*
X0280273Y0032061D01*
X0280220Y0032132D01*
X0280169Y0032205D01*
X0280122Y0032281D01*
X0280079Y0032358D01*
X0280038Y0032438D01*
X0280002Y0032519D01*
X0279969Y0032602D01*
X0279940Y0032686D01*
X0279914Y0032772D01*
X0279892Y0032858D01*
X0279875Y0032945D01*
X0279861Y0033033D01*
X0279851Y0033122D01*
X0279845Y0033211D01*
X0279843Y0033300D01*
X0260143Y0033300D02*
X0260145Y0033389D01*
X0260151Y0033478D01*
X0260161Y0033567D01*
X0260175Y0033655D01*
X0260192Y0033742D01*
X0260214Y0033828D01*
X0260240Y0033914D01*
X0260269Y0033998D01*
X0260302Y0034081D01*
X0260338Y0034162D01*
X0260379Y0034242D01*
X0260422Y0034319D01*
X0260469Y0034395D01*
X0260520Y0034468D01*
X0260573Y0034539D01*
X0260630Y0034608D01*
X0260690Y0034674D01*
X0260753Y0034738D01*
X0260818Y0034798D01*
X0260886Y0034856D01*
X0260957Y0034910D01*
X0261030Y0034961D01*
X0261105Y0035009D01*
X0261182Y0035054D01*
X0261261Y0035095D01*
X0261342Y0035132D01*
X0261424Y0035166D01*
X0261508Y0035197D01*
X0261593Y0035223D01*
X0261679Y0035246D01*
X0261766Y0035264D01*
X0261854Y0035279D01*
X0261943Y0035290D01*
X0262032Y0035297D01*
X0262121Y0035300D01*
X0262210Y0035299D01*
X0262299Y0035294D01*
X0262387Y0035285D01*
X0262476Y0035272D01*
X0262563Y0035255D01*
X0262650Y0035235D01*
X0262736Y0035210D01*
X0262820Y0035182D01*
X0262903Y0035150D01*
X0262985Y0035114D01*
X0263065Y0035075D01*
X0263143Y0035032D01*
X0263219Y0034986D01*
X0263293Y0034936D01*
X0263365Y0034883D01*
X0263434Y0034827D01*
X0263501Y0034768D01*
X0263565Y0034706D01*
X0263626Y0034642D01*
X0263685Y0034574D01*
X0263740Y0034504D01*
X0263792Y0034432D01*
X0263841Y0034357D01*
X0263886Y0034281D01*
X0263928Y0034202D01*
X0263966Y0034122D01*
X0264001Y0034040D01*
X0264032Y0033956D01*
X0264060Y0033871D01*
X0264083Y0033785D01*
X0264103Y0033698D01*
X0264119Y0033611D01*
X0264131Y0033522D01*
X0264139Y0033434D01*
X0264143Y0033345D01*
X0264143Y0033255D01*
X0264139Y0033166D01*
X0264131Y0033078D01*
X0264119Y0032989D01*
X0264103Y0032902D01*
X0264083Y0032815D01*
X0264060Y0032729D01*
X0264032Y0032644D01*
X0264001Y0032560D01*
X0263966Y0032478D01*
X0263928Y0032398D01*
X0263886Y0032319D01*
X0263841Y0032243D01*
X0263792Y0032168D01*
X0263740Y0032096D01*
X0263685Y0032026D01*
X0263626Y0031958D01*
X0263565Y0031894D01*
X0263501Y0031832D01*
X0263434Y0031773D01*
X0263365Y0031717D01*
X0263293Y0031664D01*
X0263219Y0031614D01*
X0263143Y0031568D01*
X0263065Y0031525D01*
X0262985Y0031486D01*
X0262903Y0031450D01*
X0262820Y0031418D01*
X0262736Y0031390D01*
X0262650Y0031365D01*
X0262563Y0031345D01*
X0262476Y0031328D01*
X0262387Y0031315D01*
X0262299Y0031306D01*
X0262210Y0031301D01*
X0262121Y0031300D01*
X0262032Y0031303D01*
X0261943Y0031310D01*
X0261854Y0031321D01*
X0261766Y0031336D01*
X0261679Y0031354D01*
X0261593Y0031377D01*
X0261508Y0031403D01*
X0261424Y0031434D01*
X0261342Y0031468D01*
X0261261Y0031505D01*
X0261182Y0031546D01*
X0261105Y0031591D01*
X0261030Y0031639D01*
X0260957Y0031690D01*
X0260886Y0031744D01*
X0260818Y0031802D01*
X0260753Y0031862D01*
X0260690Y0031926D01*
X0260630Y0031992D01*
X0260573Y0032061D01*
X0260520Y0032132D01*
X0260469Y0032205D01*
X0260422Y0032281D01*
X0260379Y0032358D01*
X0260338Y0032438D01*
X0260302Y0032519D01*
X0260269Y0032602D01*
X0260240Y0032686D01*
X0260214Y0032772D01*
X0260192Y0032858D01*
X0260175Y0032945D01*
X0260161Y0033033D01*
X0260151Y0033122D01*
X0260145Y0033211D01*
X0260143Y0033300D01*
X0239843Y0033300D02*
X0239845Y0033389D01*
X0239851Y0033478D01*
X0239861Y0033567D01*
X0239875Y0033655D01*
X0239892Y0033742D01*
X0239914Y0033828D01*
X0239940Y0033914D01*
X0239969Y0033998D01*
X0240002Y0034081D01*
X0240038Y0034162D01*
X0240079Y0034242D01*
X0240122Y0034319D01*
X0240169Y0034395D01*
X0240220Y0034468D01*
X0240273Y0034539D01*
X0240330Y0034608D01*
X0240390Y0034674D01*
X0240453Y0034738D01*
X0240518Y0034798D01*
X0240586Y0034856D01*
X0240657Y0034910D01*
X0240730Y0034961D01*
X0240805Y0035009D01*
X0240882Y0035054D01*
X0240961Y0035095D01*
X0241042Y0035132D01*
X0241124Y0035166D01*
X0241208Y0035197D01*
X0241293Y0035223D01*
X0241379Y0035246D01*
X0241466Y0035264D01*
X0241554Y0035279D01*
X0241643Y0035290D01*
X0241732Y0035297D01*
X0241821Y0035300D01*
X0241910Y0035299D01*
X0241999Y0035294D01*
X0242087Y0035285D01*
X0242176Y0035272D01*
X0242263Y0035255D01*
X0242350Y0035235D01*
X0242436Y0035210D01*
X0242520Y0035182D01*
X0242603Y0035150D01*
X0242685Y0035114D01*
X0242765Y0035075D01*
X0242843Y0035032D01*
X0242919Y0034986D01*
X0242993Y0034936D01*
X0243065Y0034883D01*
X0243134Y0034827D01*
X0243201Y0034768D01*
X0243265Y0034706D01*
X0243326Y0034642D01*
X0243385Y0034574D01*
X0243440Y0034504D01*
X0243492Y0034432D01*
X0243541Y0034357D01*
X0243586Y0034281D01*
X0243628Y0034202D01*
X0243666Y0034122D01*
X0243701Y0034040D01*
X0243732Y0033956D01*
X0243760Y0033871D01*
X0243783Y0033785D01*
X0243803Y0033698D01*
X0243819Y0033611D01*
X0243831Y0033522D01*
X0243839Y0033434D01*
X0243843Y0033345D01*
X0243843Y0033255D01*
X0243839Y0033166D01*
X0243831Y0033078D01*
X0243819Y0032989D01*
X0243803Y0032902D01*
X0243783Y0032815D01*
X0243760Y0032729D01*
X0243732Y0032644D01*
X0243701Y0032560D01*
X0243666Y0032478D01*
X0243628Y0032398D01*
X0243586Y0032319D01*
X0243541Y0032243D01*
X0243492Y0032168D01*
X0243440Y0032096D01*
X0243385Y0032026D01*
X0243326Y0031958D01*
X0243265Y0031894D01*
X0243201Y0031832D01*
X0243134Y0031773D01*
X0243065Y0031717D01*
X0242993Y0031664D01*
X0242919Y0031614D01*
X0242843Y0031568D01*
X0242765Y0031525D01*
X0242685Y0031486D01*
X0242603Y0031450D01*
X0242520Y0031418D01*
X0242436Y0031390D01*
X0242350Y0031365D01*
X0242263Y0031345D01*
X0242176Y0031328D01*
X0242087Y0031315D01*
X0241999Y0031306D01*
X0241910Y0031301D01*
X0241821Y0031300D01*
X0241732Y0031303D01*
X0241643Y0031310D01*
X0241554Y0031321D01*
X0241466Y0031336D01*
X0241379Y0031354D01*
X0241293Y0031377D01*
X0241208Y0031403D01*
X0241124Y0031434D01*
X0241042Y0031468D01*
X0240961Y0031505D01*
X0240882Y0031546D01*
X0240805Y0031591D01*
X0240730Y0031639D01*
X0240657Y0031690D01*
X0240586Y0031744D01*
X0240518Y0031802D01*
X0240453Y0031862D01*
X0240390Y0031926D01*
X0240330Y0031992D01*
X0240273Y0032061D01*
X0240220Y0032132D01*
X0240169Y0032205D01*
X0240122Y0032281D01*
X0240079Y0032358D01*
X0240038Y0032438D01*
X0240002Y0032519D01*
X0239969Y0032602D01*
X0239940Y0032686D01*
X0239914Y0032772D01*
X0239892Y0032858D01*
X0239875Y0032945D01*
X0239861Y0033033D01*
X0239851Y0033122D01*
X0239845Y0033211D01*
X0239843Y0033300D01*
X0220143Y0033300D02*
X0220145Y0033389D01*
X0220151Y0033478D01*
X0220161Y0033567D01*
X0220175Y0033655D01*
X0220192Y0033742D01*
X0220214Y0033828D01*
X0220240Y0033914D01*
X0220269Y0033998D01*
X0220302Y0034081D01*
X0220338Y0034162D01*
X0220379Y0034242D01*
X0220422Y0034319D01*
X0220469Y0034395D01*
X0220520Y0034468D01*
X0220573Y0034539D01*
X0220630Y0034608D01*
X0220690Y0034674D01*
X0220753Y0034738D01*
X0220818Y0034798D01*
X0220886Y0034856D01*
X0220957Y0034910D01*
X0221030Y0034961D01*
X0221105Y0035009D01*
X0221182Y0035054D01*
X0221261Y0035095D01*
X0221342Y0035132D01*
X0221424Y0035166D01*
X0221508Y0035197D01*
X0221593Y0035223D01*
X0221679Y0035246D01*
X0221766Y0035264D01*
X0221854Y0035279D01*
X0221943Y0035290D01*
X0222032Y0035297D01*
X0222121Y0035300D01*
X0222210Y0035299D01*
X0222299Y0035294D01*
X0222387Y0035285D01*
X0222476Y0035272D01*
X0222563Y0035255D01*
X0222650Y0035235D01*
X0222736Y0035210D01*
X0222820Y0035182D01*
X0222903Y0035150D01*
X0222985Y0035114D01*
X0223065Y0035075D01*
X0223143Y0035032D01*
X0223219Y0034986D01*
X0223293Y0034936D01*
X0223365Y0034883D01*
X0223434Y0034827D01*
X0223501Y0034768D01*
X0223565Y0034706D01*
X0223626Y0034642D01*
X0223685Y0034574D01*
X0223740Y0034504D01*
X0223792Y0034432D01*
X0223841Y0034357D01*
X0223886Y0034281D01*
X0223928Y0034202D01*
X0223966Y0034122D01*
X0224001Y0034040D01*
X0224032Y0033956D01*
X0224060Y0033871D01*
X0224083Y0033785D01*
X0224103Y0033698D01*
X0224119Y0033611D01*
X0224131Y0033522D01*
X0224139Y0033434D01*
X0224143Y0033345D01*
X0224143Y0033255D01*
X0224139Y0033166D01*
X0224131Y0033078D01*
X0224119Y0032989D01*
X0224103Y0032902D01*
X0224083Y0032815D01*
X0224060Y0032729D01*
X0224032Y0032644D01*
X0224001Y0032560D01*
X0223966Y0032478D01*
X0223928Y0032398D01*
X0223886Y0032319D01*
X0223841Y0032243D01*
X0223792Y0032168D01*
X0223740Y0032096D01*
X0223685Y0032026D01*
X0223626Y0031958D01*
X0223565Y0031894D01*
X0223501Y0031832D01*
X0223434Y0031773D01*
X0223365Y0031717D01*
X0223293Y0031664D01*
X0223219Y0031614D01*
X0223143Y0031568D01*
X0223065Y0031525D01*
X0222985Y0031486D01*
X0222903Y0031450D01*
X0222820Y0031418D01*
X0222736Y0031390D01*
X0222650Y0031365D01*
X0222563Y0031345D01*
X0222476Y0031328D01*
X0222387Y0031315D01*
X0222299Y0031306D01*
X0222210Y0031301D01*
X0222121Y0031300D01*
X0222032Y0031303D01*
X0221943Y0031310D01*
X0221854Y0031321D01*
X0221766Y0031336D01*
X0221679Y0031354D01*
X0221593Y0031377D01*
X0221508Y0031403D01*
X0221424Y0031434D01*
X0221342Y0031468D01*
X0221261Y0031505D01*
X0221182Y0031546D01*
X0221105Y0031591D01*
X0221030Y0031639D01*
X0220957Y0031690D01*
X0220886Y0031744D01*
X0220818Y0031802D01*
X0220753Y0031862D01*
X0220690Y0031926D01*
X0220630Y0031992D01*
X0220573Y0032061D01*
X0220520Y0032132D01*
X0220469Y0032205D01*
X0220422Y0032281D01*
X0220379Y0032358D01*
X0220338Y0032438D01*
X0220302Y0032519D01*
X0220269Y0032602D01*
X0220240Y0032686D01*
X0220214Y0032772D01*
X0220192Y0032858D01*
X0220175Y0032945D01*
X0220161Y0033033D01*
X0220151Y0033122D01*
X0220145Y0033211D01*
X0220143Y0033300D01*
X0199843Y0033300D02*
X0199845Y0033389D01*
X0199851Y0033478D01*
X0199861Y0033567D01*
X0199875Y0033655D01*
X0199892Y0033742D01*
X0199914Y0033828D01*
X0199940Y0033914D01*
X0199969Y0033998D01*
X0200002Y0034081D01*
X0200038Y0034162D01*
X0200079Y0034242D01*
X0200122Y0034319D01*
X0200169Y0034395D01*
X0200220Y0034468D01*
X0200273Y0034539D01*
X0200330Y0034608D01*
X0200390Y0034674D01*
X0200453Y0034738D01*
X0200518Y0034798D01*
X0200586Y0034856D01*
X0200657Y0034910D01*
X0200730Y0034961D01*
X0200805Y0035009D01*
X0200882Y0035054D01*
X0200961Y0035095D01*
X0201042Y0035132D01*
X0201124Y0035166D01*
X0201208Y0035197D01*
X0201293Y0035223D01*
X0201379Y0035246D01*
X0201466Y0035264D01*
X0201554Y0035279D01*
X0201643Y0035290D01*
X0201732Y0035297D01*
X0201821Y0035300D01*
X0201910Y0035299D01*
X0201999Y0035294D01*
X0202087Y0035285D01*
X0202176Y0035272D01*
X0202263Y0035255D01*
X0202350Y0035235D01*
X0202436Y0035210D01*
X0202520Y0035182D01*
X0202603Y0035150D01*
X0202685Y0035114D01*
X0202765Y0035075D01*
X0202843Y0035032D01*
X0202919Y0034986D01*
X0202993Y0034936D01*
X0203065Y0034883D01*
X0203134Y0034827D01*
X0203201Y0034768D01*
X0203265Y0034706D01*
X0203326Y0034642D01*
X0203385Y0034574D01*
X0203440Y0034504D01*
X0203492Y0034432D01*
X0203541Y0034357D01*
X0203586Y0034281D01*
X0203628Y0034202D01*
X0203666Y0034122D01*
X0203701Y0034040D01*
X0203732Y0033956D01*
X0203760Y0033871D01*
X0203783Y0033785D01*
X0203803Y0033698D01*
X0203819Y0033611D01*
X0203831Y0033522D01*
X0203839Y0033434D01*
X0203843Y0033345D01*
X0203843Y0033255D01*
X0203839Y0033166D01*
X0203831Y0033078D01*
X0203819Y0032989D01*
X0203803Y0032902D01*
X0203783Y0032815D01*
X0203760Y0032729D01*
X0203732Y0032644D01*
X0203701Y0032560D01*
X0203666Y0032478D01*
X0203628Y0032398D01*
X0203586Y0032319D01*
X0203541Y0032243D01*
X0203492Y0032168D01*
X0203440Y0032096D01*
X0203385Y0032026D01*
X0203326Y0031958D01*
X0203265Y0031894D01*
X0203201Y0031832D01*
X0203134Y0031773D01*
X0203065Y0031717D01*
X0202993Y0031664D01*
X0202919Y0031614D01*
X0202843Y0031568D01*
X0202765Y0031525D01*
X0202685Y0031486D01*
X0202603Y0031450D01*
X0202520Y0031418D01*
X0202436Y0031390D01*
X0202350Y0031365D01*
X0202263Y0031345D01*
X0202176Y0031328D01*
X0202087Y0031315D01*
X0201999Y0031306D01*
X0201910Y0031301D01*
X0201821Y0031300D01*
X0201732Y0031303D01*
X0201643Y0031310D01*
X0201554Y0031321D01*
X0201466Y0031336D01*
X0201379Y0031354D01*
X0201293Y0031377D01*
X0201208Y0031403D01*
X0201124Y0031434D01*
X0201042Y0031468D01*
X0200961Y0031505D01*
X0200882Y0031546D01*
X0200805Y0031591D01*
X0200730Y0031639D01*
X0200657Y0031690D01*
X0200586Y0031744D01*
X0200518Y0031802D01*
X0200453Y0031862D01*
X0200390Y0031926D01*
X0200330Y0031992D01*
X0200273Y0032061D01*
X0200220Y0032132D01*
X0200169Y0032205D01*
X0200122Y0032281D01*
X0200079Y0032358D01*
X0200038Y0032438D01*
X0200002Y0032519D01*
X0199969Y0032602D01*
X0199940Y0032686D01*
X0199914Y0032772D01*
X0199892Y0032858D01*
X0199875Y0032945D01*
X0199861Y0033033D01*
X0199851Y0033122D01*
X0199845Y0033211D01*
X0199843Y0033300D01*
X0180143Y0033300D02*
X0180145Y0033389D01*
X0180151Y0033478D01*
X0180161Y0033567D01*
X0180175Y0033655D01*
X0180192Y0033742D01*
X0180214Y0033828D01*
X0180240Y0033914D01*
X0180269Y0033998D01*
X0180302Y0034081D01*
X0180338Y0034162D01*
X0180379Y0034242D01*
X0180422Y0034319D01*
X0180469Y0034395D01*
X0180520Y0034468D01*
X0180573Y0034539D01*
X0180630Y0034608D01*
X0180690Y0034674D01*
X0180753Y0034738D01*
X0180818Y0034798D01*
X0180886Y0034856D01*
X0180957Y0034910D01*
X0181030Y0034961D01*
X0181105Y0035009D01*
X0181182Y0035054D01*
X0181261Y0035095D01*
X0181342Y0035132D01*
X0181424Y0035166D01*
X0181508Y0035197D01*
X0181593Y0035223D01*
X0181679Y0035246D01*
X0181766Y0035264D01*
X0181854Y0035279D01*
X0181943Y0035290D01*
X0182032Y0035297D01*
X0182121Y0035300D01*
X0182210Y0035299D01*
X0182299Y0035294D01*
X0182387Y0035285D01*
X0182476Y0035272D01*
X0182563Y0035255D01*
X0182650Y0035235D01*
X0182736Y0035210D01*
X0182820Y0035182D01*
X0182903Y0035150D01*
X0182985Y0035114D01*
X0183065Y0035075D01*
X0183143Y0035032D01*
X0183219Y0034986D01*
X0183293Y0034936D01*
X0183365Y0034883D01*
X0183434Y0034827D01*
X0183501Y0034768D01*
X0183565Y0034706D01*
X0183626Y0034642D01*
X0183685Y0034574D01*
X0183740Y0034504D01*
X0183792Y0034432D01*
X0183841Y0034357D01*
X0183886Y0034281D01*
X0183928Y0034202D01*
X0183966Y0034122D01*
X0184001Y0034040D01*
X0184032Y0033956D01*
X0184060Y0033871D01*
X0184083Y0033785D01*
X0184103Y0033698D01*
X0184119Y0033611D01*
X0184131Y0033522D01*
X0184139Y0033434D01*
X0184143Y0033345D01*
X0184143Y0033255D01*
X0184139Y0033166D01*
X0184131Y0033078D01*
X0184119Y0032989D01*
X0184103Y0032902D01*
X0184083Y0032815D01*
X0184060Y0032729D01*
X0184032Y0032644D01*
X0184001Y0032560D01*
X0183966Y0032478D01*
X0183928Y0032398D01*
X0183886Y0032319D01*
X0183841Y0032243D01*
X0183792Y0032168D01*
X0183740Y0032096D01*
X0183685Y0032026D01*
X0183626Y0031958D01*
X0183565Y0031894D01*
X0183501Y0031832D01*
X0183434Y0031773D01*
X0183365Y0031717D01*
X0183293Y0031664D01*
X0183219Y0031614D01*
X0183143Y0031568D01*
X0183065Y0031525D01*
X0182985Y0031486D01*
X0182903Y0031450D01*
X0182820Y0031418D01*
X0182736Y0031390D01*
X0182650Y0031365D01*
X0182563Y0031345D01*
X0182476Y0031328D01*
X0182387Y0031315D01*
X0182299Y0031306D01*
X0182210Y0031301D01*
X0182121Y0031300D01*
X0182032Y0031303D01*
X0181943Y0031310D01*
X0181854Y0031321D01*
X0181766Y0031336D01*
X0181679Y0031354D01*
X0181593Y0031377D01*
X0181508Y0031403D01*
X0181424Y0031434D01*
X0181342Y0031468D01*
X0181261Y0031505D01*
X0181182Y0031546D01*
X0181105Y0031591D01*
X0181030Y0031639D01*
X0180957Y0031690D01*
X0180886Y0031744D01*
X0180818Y0031802D01*
X0180753Y0031862D01*
X0180690Y0031926D01*
X0180630Y0031992D01*
X0180573Y0032061D01*
X0180520Y0032132D01*
X0180469Y0032205D01*
X0180422Y0032281D01*
X0180379Y0032358D01*
X0180338Y0032438D01*
X0180302Y0032519D01*
X0180269Y0032602D01*
X0180240Y0032686D01*
X0180214Y0032772D01*
X0180192Y0032858D01*
X0180175Y0032945D01*
X0180161Y0033033D01*
X0180151Y0033122D01*
X0180145Y0033211D01*
X0180143Y0033300D01*
X0178642Y0054098D02*
X0172343Y0054098D01*
X0185642Y0054098D02*
X0198343Y0054098D01*
X0205343Y0054098D02*
X0211642Y0054098D01*
X0212343Y0054098D02*
X0218642Y0054098D01*
X0225642Y0054098D02*
X0238343Y0054098D01*
X0245343Y0054098D02*
X0251642Y0054098D01*
X0252343Y0054098D02*
X0258642Y0054098D01*
X0265642Y0054098D02*
X0278343Y0054098D01*
X0285343Y0054098D02*
X0291642Y0054098D01*
X0292343Y0054098D02*
X0298642Y0054098D01*
X0305642Y0054098D02*
X0318343Y0054098D01*
X0325343Y0054098D02*
X0331642Y0054098D01*
X0332343Y0054098D02*
X0338642Y0054098D01*
X0345642Y0054098D02*
X0358343Y0054098D01*
X0365343Y0054098D02*
X0371642Y0054098D01*
X0371657Y0135500D02*
X0332358Y0135500D01*
X0332358Y0144902D01*
X0332358Y0170902D01*
X0332358Y0171701D01*
X0371657Y0171701D01*
X0371657Y0170902D01*
X0371657Y0144902D01*
X0371657Y0135500D01*
X0371657Y0144902D02*
X0365358Y0144902D01*
X0358358Y0144902D02*
X0345657Y0144902D01*
X0338657Y0144902D02*
X0332358Y0144902D01*
X0331657Y0144902D02*
X0331657Y0170902D01*
X0292358Y0170902D01*
X0292358Y0171701D01*
X0331657Y0171701D01*
X0331657Y0170902D01*
X0332358Y0170902D02*
X0371657Y0170902D01*
X0359857Y0165700D02*
X0359859Y0165789D01*
X0359865Y0165878D01*
X0359875Y0165967D01*
X0359889Y0166055D01*
X0359906Y0166142D01*
X0359928Y0166228D01*
X0359954Y0166314D01*
X0359983Y0166398D01*
X0360016Y0166481D01*
X0360052Y0166562D01*
X0360093Y0166642D01*
X0360136Y0166719D01*
X0360183Y0166795D01*
X0360234Y0166868D01*
X0360287Y0166939D01*
X0360344Y0167008D01*
X0360404Y0167074D01*
X0360467Y0167138D01*
X0360532Y0167198D01*
X0360600Y0167256D01*
X0360671Y0167310D01*
X0360744Y0167361D01*
X0360819Y0167409D01*
X0360896Y0167454D01*
X0360975Y0167495D01*
X0361056Y0167532D01*
X0361138Y0167566D01*
X0361222Y0167597D01*
X0361307Y0167623D01*
X0361393Y0167646D01*
X0361480Y0167664D01*
X0361568Y0167679D01*
X0361657Y0167690D01*
X0361746Y0167697D01*
X0361835Y0167700D01*
X0361924Y0167699D01*
X0362013Y0167694D01*
X0362101Y0167685D01*
X0362190Y0167672D01*
X0362277Y0167655D01*
X0362364Y0167635D01*
X0362450Y0167610D01*
X0362534Y0167582D01*
X0362617Y0167550D01*
X0362699Y0167514D01*
X0362779Y0167475D01*
X0362857Y0167432D01*
X0362933Y0167386D01*
X0363007Y0167336D01*
X0363079Y0167283D01*
X0363148Y0167227D01*
X0363215Y0167168D01*
X0363279Y0167106D01*
X0363340Y0167042D01*
X0363399Y0166974D01*
X0363454Y0166904D01*
X0363506Y0166832D01*
X0363555Y0166757D01*
X0363600Y0166681D01*
X0363642Y0166602D01*
X0363680Y0166522D01*
X0363715Y0166440D01*
X0363746Y0166356D01*
X0363774Y0166271D01*
X0363797Y0166185D01*
X0363817Y0166098D01*
X0363833Y0166011D01*
X0363845Y0165922D01*
X0363853Y0165834D01*
X0363857Y0165745D01*
X0363857Y0165655D01*
X0363853Y0165566D01*
X0363845Y0165478D01*
X0363833Y0165389D01*
X0363817Y0165302D01*
X0363797Y0165215D01*
X0363774Y0165129D01*
X0363746Y0165044D01*
X0363715Y0164960D01*
X0363680Y0164878D01*
X0363642Y0164798D01*
X0363600Y0164719D01*
X0363555Y0164643D01*
X0363506Y0164568D01*
X0363454Y0164496D01*
X0363399Y0164426D01*
X0363340Y0164358D01*
X0363279Y0164294D01*
X0363215Y0164232D01*
X0363148Y0164173D01*
X0363079Y0164117D01*
X0363007Y0164064D01*
X0362933Y0164014D01*
X0362857Y0163968D01*
X0362779Y0163925D01*
X0362699Y0163886D01*
X0362617Y0163850D01*
X0362534Y0163818D01*
X0362450Y0163790D01*
X0362364Y0163765D01*
X0362277Y0163745D01*
X0362190Y0163728D01*
X0362101Y0163715D01*
X0362013Y0163706D01*
X0361924Y0163701D01*
X0361835Y0163700D01*
X0361746Y0163703D01*
X0361657Y0163710D01*
X0361568Y0163721D01*
X0361480Y0163736D01*
X0361393Y0163754D01*
X0361307Y0163777D01*
X0361222Y0163803D01*
X0361138Y0163834D01*
X0361056Y0163868D01*
X0360975Y0163905D01*
X0360896Y0163946D01*
X0360819Y0163991D01*
X0360744Y0164039D01*
X0360671Y0164090D01*
X0360600Y0164144D01*
X0360532Y0164202D01*
X0360467Y0164262D01*
X0360404Y0164326D01*
X0360344Y0164392D01*
X0360287Y0164461D01*
X0360234Y0164532D01*
X0360183Y0164605D01*
X0360136Y0164681D01*
X0360093Y0164758D01*
X0360052Y0164838D01*
X0360016Y0164919D01*
X0359983Y0165002D01*
X0359954Y0165086D01*
X0359928Y0165172D01*
X0359906Y0165258D01*
X0359889Y0165345D01*
X0359875Y0165433D01*
X0359865Y0165522D01*
X0359859Y0165611D01*
X0359857Y0165700D01*
X0340157Y0165700D02*
X0340159Y0165789D01*
X0340165Y0165878D01*
X0340175Y0165967D01*
X0340189Y0166055D01*
X0340206Y0166142D01*
X0340228Y0166228D01*
X0340254Y0166314D01*
X0340283Y0166398D01*
X0340316Y0166481D01*
X0340352Y0166562D01*
X0340393Y0166642D01*
X0340436Y0166719D01*
X0340483Y0166795D01*
X0340534Y0166868D01*
X0340587Y0166939D01*
X0340644Y0167008D01*
X0340704Y0167074D01*
X0340767Y0167138D01*
X0340832Y0167198D01*
X0340900Y0167256D01*
X0340971Y0167310D01*
X0341044Y0167361D01*
X0341119Y0167409D01*
X0341196Y0167454D01*
X0341275Y0167495D01*
X0341356Y0167532D01*
X0341438Y0167566D01*
X0341522Y0167597D01*
X0341607Y0167623D01*
X0341693Y0167646D01*
X0341780Y0167664D01*
X0341868Y0167679D01*
X0341957Y0167690D01*
X0342046Y0167697D01*
X0342135Y0167700D01*
X0342224Y0167699D01*
X0342313Y0167694D01*
X0342401Y0167685D01*
X0342490Y0167672D01*
X0342577Y0167655D01*
X0342664Y0167635D01*
X0342750Y0167610D01*
X0342834Y0167582D01*
X0342917Y0167550D01*
X0342999Y0167514D01*
X0343079Y0167475D01*
X0343157Y0167432D01*
X0343233Y0167386D01*
X0343307Y0167336D01*
X0343379Y0167283D01*
X0343448Y0167227D01*
X0343515Y0167168D01*
X0343579Y0167106D01*
X0343640Y0167042D01*
X0343699Y0166974D01*
X0343754Y0166904D01*
X0343806Y0166832D01*
X0343855Y0166757D01*
X0343900Y0166681D01*
X0343942Y0166602D01*
X0343980Y0166522D01*
X0344015Y0166440D01*
X0344046Y0166356D01*
X0344074Y0166271D01*
X0344097Y0166185D01*
X0344117Y0166098D01*
X0344133Y0166011D01*
X0344145Y0165922D01*
X0344153Y0165834D01*
X0344157Y0165745D01*
X0344157Y0165655D01*
X0344153Y0165566D01*
X0344145Y0165478D01*
X0344133Y0165389D01*
X0344117Y0165302D01*
X0344097Y0165215D01*
X0344074Y0165129D01*
X0344046Y0165044D01*
X0344015Y0164960D01*
X0343980Y0164878D01*
X0343942Y0164798D01*
X0343900Y0164719D01*
X0343855Y0164643D01*
X0343806Y0164568D01*
X0343754Y0164496D01*
X0343699Y0164426D01*
X0343640Y0164358D01*
X0343579Y0164294D01*
X0343515Y0164232D01*
X0343448Y0164173D01*
X0343379Y0164117D01*
X0343307Y0164064D01*
X0343233Y0164014D01*
X0343157Y0163968D01*
X0343079Y0163925D01*
X0342999Y0163886D01*
X0342917Y0163850D01*
X0342834Y0163818D01*
X0342750Y0163790D01*
X0342664Y0163765D01*
X0342577Y0163745D01*
X0342490Y0163728D01*
X0342401Y0163715D01*
X0342313Y0163706D01*
X0342224Y0163701D01*
X0342135Y0163700D01*
X0342046Y0163703D01*
X0341957Y0163710D01*
X0341868Y0163721D01*
X0341780Y0163736D01*
X0341693Y0163754D01*
X0341607Y0163777D01*
X0341522Y0163803D01*
X0341438Y0163834D01*
X0341356Y0163868D01*
X0341275Y0163905D01*
X0341196Y0163946D01*
X0341119Y0163991D01*
X0341044Y0164039D01*
X0340971Y0164090D01*
X0340900Y0164144D01*
X0340832Y0164202D01*
X0340767Y0164262D01*
X0340704Y0164326D01*
X0340644Y0164392D01*
X0340587Y0164461D01*
X0340534Y0164532D01*
X0340483Y0164605D01*
X0340436Y0164681D01*
X0340393Y0164758D01*
X0340352Y0164838D01*
X0340316Y0164919D01*
X0340283Y0165002D01*
X0340254Y0165086D01*
X0340228Y0165172D01*
X0340206Y0165258D01*
X0340189Y0165345D01*
X0340175Y0165433D01*
X0340165Y0165522D01*
X0340159Y0165611D01*
X0340157Y0165700D01*
X0319857Y0165700D02*
X0319859Y0165789D01*
X0319865Y0165878D01*
X0319875Y0165967D01*
X0319889Y0166055D01*
X0319906Y0166142D01*
X0319928Y0166228D01*
X0319954Y0166314D01*
X0319983Y0166398D01*
X0320016Y0166481D01*
X0320052Y0166562D01*
X0320093Y0166642D01*
X0320136Y0166719D01*
X0320183Y0166795D01*
X0320234Y0166868D01*
X0320287Y0166939D01*
X0320344Y0167008D01*
X0320404Y0167074D01*
X0320467Y0167138D01*
X0320532Y0167198D01*
X0320600Y0167256D01*
X0320671Y0167310D01*
X0320744Y0167361D01*
X0320819Y0167409D01*
X0320896Y0167454D01*
X0320975Y0167495D01*
X0321056Y0167532D01*
X0321138Y0167566D01*
X0321222Y0167597D01*
X0321307Y0167623D01*
X0321393Y0167646D01*
X0321480Y0167664D01*
X0321568Y0167679D01*
X0321657Y0167690D01*
X0321746Y0167697D01*
X0321835Y0167700D01*
X0321924Y0167699D01*
X0322013Y0167694D01*
X0322101Y0167685D01*
X0322190Y0167672D01*
X0322277Y0167655D01*
X0322364Y0167635D01*
X0322450Y0167610D01*
X0322534Y0167582D01*
X0322617Y0167550D01*
X0322699Y0167514D01*
X0322779Y0167475D01*
X0322857Y0167432D01*
X0322933Y0167386D01*
X0323007Y0167336D01*
X0323079Y0167283D01*
X0323148Y0167227D01*
X0323215Y0167168D01*
X0323279Y0167106D01*
X0323340Y0167042D01*
X0323399Y0166974D01*
X0323454Y0166904D01*
X0323506Y0166832D01*
X0323555Y0166757D01*
X0323600Y0166681D01*
X0323642Y0166602D01*
X0323680Y0166522D01*
X0323715Y0166440D01*
X0323746Y0166356D01*
X0323774Y0166271D01*
X0323797Y0166185D01*
X0323817Y0166098D01*
X0323833Y0166011D01*
X0323845Y0165922D01*
X0323853Y0165834D01*
X0323857Y0165745D01*
X0323857Y0165655D01*
X0323853Y0165566D01*
X0323845Y0165478D01*
X0323833Y0165389D01*
X0323817Y0165302D01*
X0323797Y0165215D01*
X0323774Y0165129D01*
X0323746Y0165044D01*
X0323715Y0164960D01*
X0323680Y0164878D01*
X0323642Y0164798D01*
X0323600Y0164719D01*
X0323555Y0164643D01*
X0323506Y0164568D01*
X0323454Y0164496D01*
X0323399Y0164426D01*
X0323340Y0164358D01*
X0323279Y0164294D01*
X0323215Y0164232D01*
X0323148Y0164173D01*
X0323079Y0164117D01*
X0323007Y0164064D01*
X0322933Y0164014D01*
X0322857Y0163968D01*
X0322779Y0163925D01*
X0322699Y0163886D01*
X0322617Y0163850D01*
X0322534Y0163818D01*
X0322450Y0163790D01*
X0322364Y0163765D01*
X0322277Y0163745D01*
X0322190Y0163728D01*
X0322101Y0163715D01*
X0322013Y0163706D01*
X0321924Y0163701D01*
X0321835Y0163700D01*
X0321746Y0163703D01*
X0321657Y0163710D01*
X0321568Y0163721D01*
X0321480Y0163736D01*
X0321393Y0163754D01*
X0321307Y0163777D01*
X0321222Y0163803D01*
X0321138Y0163834D01*
X0321056Y0163868D01*
X0320975Y0163905D01*
X0320896Y0163946D01*
X0320819Y0163991D01*
X0320744Y0164039D01*
X0320671Y0164090D01*
X0320600Y0164144D01*
X0320532Y0164202D01*
X0320467Y0164262D01*
X0320404Y0164326D01*
X0320344Y0164392D01*
X0320287Y0164461D01*
X0320234Y0164532D01*
X0320183Y0164605D01*
X0320136Y0164681D01*
X0320093Y0164758D01*
X0320052Y0164838D01*
X0320016Y0164919D01*
X0319983Y0165002D01*
X0319954Y0165086D01*
X0319928Y0165172D01*
X0319906Y0165258D01*
X0319889Y0165345D01*
X0319875Y0165433D01*
X0319865Y0165522D01*
X0319859Y0165611D01*
X0319857Y0165700D01*
X0300157Y0165700D02*
X0300159Y0165789D01*
X0300165Y0165878D01*
X0300175Y0165967D01*
X0300189Y0166055D01*
X0300206Y0166142D01*
X0300228Y0166228D01*
X0300254Y0166314D01*
X0300283Y0166398D01*
X0300316Y0166481D01*
X0300352Y0166562D01*
X0300393Y0166642D01*
X0300436Y0166719D01*
X0300483Y0166795D01*
X0300534Y0166868D01*
X0300587Y0166939D01*
X0300644Y0167008D01*
X0300704Y0167074D01*
X0300767Y0167138D01*
X0300832Y0167198D01*
X0300900Y0167256D01*
X0300971Y0167310D01*
X0301044Y0167361D01*
X0301119Y0167409D01*
X0301196Y0167454D01*
X0301275Y0167495D01*
X0301356Y0167532D01*
X0301438Y0167566D01*
X0301522Y0167597D01*
X0301607Y0167623D01*
X0301693Y0167646D01*
X0301780Y0167664D01*
X0301868Y0167679D01*
X0301957Y0167690D01*
X0302046Y0167697D01*
X0302135Y0167700D01*
X0302224Y0167699D01*
X0302313Y0167694D01*
X0302401Y0167685D01*
X0302490Y0167672D01*
X0302577Y0167655D01*
X0302664Y0167635D01*
X0302750Y0167610D01*
X0302834Y0167582D01*
X0302917Y0167550D01*
X0302999Y0167514D01*
X0303079Y0167475D01*
X0303157Y0167432D01*
X0303233Y0167386D01*
X0303307Y0167336D01*
X0303379Y0167283D01*
X0303448Y0167227D01*
X0303515Y0167168D01*
X0303579Y0167106D01*
X0303640Y0167042D01*
X0303699Y0166974D01*
X0303754Y0166904D01*
X0303806Y0166832D01*
X0303855Y0166757D01*
X0303900Y0166681D01*
X0303942Y0166602D01*
X0303980Y0166522D01*
X0304015Y0166440D01*
X0304046Y0166356D01*
X0304074Y0166271D01*
X0304097Y0166185D01*
X0304117Y0166098D01*
X0304133Y0166011D01*
X0304145Y0165922D01*
X0304153Y0165834D01*
X0304157Y0165745D01*
X0304157Y0165655D01*
X0304153Y0165566D01*
X0304145Y0165478D01*
X0304133Y0165389D01*
X0304117Y0165302D01*
X0304097Y0165215D01*
X0304074Y0165129D01*
X0304046Y0165044D01*
X0304015Y0164960D01*
X0303980Y0164878D01*
X0303942Y0164798D01*
X0303900Y0164719D01*
X0303855Y0164643D01*
X0303806Y0164568D01*
X0303754Y0164496D01*
X0303699Y0164426D01*
X0303640Y0164358D01*
X0303579Y0164294D01*
X0303515Y0164232D01*
X0303448Y0164173D01*
X0303379Y0164117D01*
X0303307Y0164064D01*
X0303233Y0164014D01*
X0303157Y0163968D01*
X0303079Y0163925D01*
X0302999Y0163886D01*
X0302917Y0163850D01*
X0302834Y0163818D01*
X0302750Y0163790D01*
X0302664Y0163765D01*
X0302577Y0163745D01*
X0302490Y0163728D01*
X0302401Y0163715D01*
X0302313Y0163706D01*
X0302224Y0163701D01*
X0302135Y0163700D01*
X0302046Y0163703D01*
X0301957Y0163710D01*
X0301868Y0163721D01*
X0301780Y0163736D01*
X0301693Y0163754D01*
X0301607Y0163777D01*
X0301522Y0163803D01*
X0301438Y0163834D01*
X0301356Y0163868D01*
X0301275Y0163905D01*
X0301196Y0163946D01*
X0301119Y0163991D01*
X0301044Y0164039D01*
X0300971Y0164090D01*
X0300900Y0164144D01*
X0300832Y0164202D01*
X0300767Y0164262D01*
X0300704Y0164326D01*
X0300644Y0164392D01*
X0300587Y0164461D01*
X0300534Y0164532D01*
X0300483Y0164605D01*
X0300436Y0164681D01*
X0300393Y0164758D01*
X0300352Y0164838D01*
X0300316Y0164919D01*
X0300283Y0165002D01*
X0300254Y0165086D01*
X0300228Y0165172D01*
X0300206Y0165258D01*
X0300189Y0165345D01*
X0300175Y0165433D01*
X0300165Y0165522D01*
X0300159Y0165611D01*
X0300157Y0165700D01*
X0292358Y0170902D02*
X0292358Y0144902D01*
X0298657Y0144902D01*
X0292358Y0144902D02*
X0292358Y0135500D01*
X0331657Y0135500D01*
X0331657Y0144902D01*
X0325358Y0144902D01*
X0318358Y0144902D02*
X0305657Y0144902D01*
X0291657Y0144902D02*
X0291657Y0170902D01*
X0252358Y0170902D01*
X0252358Y0171701D01*
X0291657Y0171701D01*
X0291657Y0170902D01*
X0279857Y0165700D02*
X0279859Y0165789D01*
X0279865Y0165878D01*
X0279875Y0165967D01*
X0279889Y0166055D01*
X0279906Y0166142D01*
X0279928Y0166228D01*
X0279954Y0166314D01*
X0279983Y0166398D01*
X0280016Y0166481D01*
X0280052Y0166562D01*
X0280093Y0166642D01*
X0280136Y0166719D01*
X0280183Y0166795D01*
X0280234Y0166868D01*
X0280287Y0166939D01*
X0280344Y0167008D01*
X0280404Y0167074D01*
X0280467Y0167138D01*
X0280532Y0167198D01*
X0280600Y0167256D01*
X0280671Y0167310D01*
X0280744Y0167361D01*
X0280819Y0167409D01*
X0280896Y0167454D01*
X0280975Y0167495D01*
X0281056Y0167532D01*
X0281138Y0167566D01*
X0281222Y0167597D01*
X0281307Y0167623D01*
X0281393Y0167646D01*
X0281480Y0167664D01*
X0281568Y0167679D01*
X0281657Y0167690D01*
X0281746Y0167697D01*
X0281835Y0167700D01*
X0281924Y0167699D01*
X0282013Y0167694D01*
X0282101Y0167685D01*
X0282190Y0167672D01*
X0282277Y0167655D01*
X0282364Y0167635D01*
X0282450Y0167610D01*
X0282534Y0167582D01*
X0282617Y0167550D01*
X0282699Y0167514D01*
X0282779Y0167475D01*
X0282857Y0167432D01*
X0282933Y0167386D01*
X0283007Y0167336D01*
X0283079Y0167283D01*
X0283148Y0167227D01*
X0283215Y0167168D01*
X0283279Y0167106D01*
X0283340Y0167042D01*
X0283399Y0166974D01*
X0283454Y0166904D01*
X0283506Y0166832D01*
X0283555Y0166757D01*
X0283600Y0166681D01*
X0283642Y0166602D01*
X0283680Y0166522D01*
X0283715Y0166440D01*
X0283746Y0166356D01*
X0283774Y0166271D01*
X0283797Y0166185D01*
X0283817Y0166098D01*
X0283833Y0166011D01*
X0283845Y0165922D01*
X0283853Y0165834D01*
X0283857Y0165745D01*
X0283857Y0165655D01*
X0283853Y0165566D01*
X0283845Y0165478D01*
X0283833Y0165389D01*
X0283817Y0165302D01*
X0283797Y0165215D01*
X0283774Y0165129D01*
X0283746Y0165044D01*
X0283715Y0164960D01*
X0283680Y0164878D01*
X0283642Y0164798D01*
X0283600Y0164719D01*
X0283555Y0164643D01*
X0283506Y0164568D01*
X0283454Y0164496D01*
X0283399Y0164426D01*
X0283340Y0164358D01*
X0283279Y0164294D01*
X0283215Y0164232D01*
X0283148Y0164173D01*
X0283079Y0164117D01*
X0283007Y0164064D01*
X0282933Y0164014D01*
X0282857Y0163968D01*
X0282779Y0163925D01*
X0282699Y0163886D01*
X0282617Y0163850D01*
X0282534Y0163818D01*
X0282450Y0163790D01*
X0282364Y0163765D01*
X0282277Y0163745D01*
X0282190Y0163728D01*
X0282101Y0163715D01*
X0282013Y0163706D01*
X0281924Y0163701D01*
X0281835Y0163700D01*
X0281746Y0163703D01*
X0281657Y0163710D01*
X0281568Y0163721D01*
X0281480Y0163736D01*
X0281393Y0163754D01*
X0281307Y0163777D01*
X0281222Y0163803D01*
X0281138Y0163834D01*
X0281056Y0163868D01*
X0280975Y0163905D01*
X0280896Y0163946D01*
X0280819Y0163991D01*
X0280744Y0164039D01*
X0280671Y0164090D01*
X0280600Y0164144D01*
X0280532Y0164202D01*
X0280467Y0164262D01*
X0280404Y0164326D01*
X0280344Y0164392D01*
X0280287Y0164461D01*
X0280234Y0164532D01*
X0280183Y0164605D01*
X0280136Y0164681D01*
X0280093Y0164758D01*
X0280052Y0164838D01*
X0280016Y0164919D01*
X0279983Y0165002D01*
X0279954Y0165086D01*
X0279928Y0165172D01*
X0279906Y0165258D01*
X0279889Y0165345D01*
X0279875Y0165433D01*
X0279865Y0165522D01*
X0279859Y0165611D01*
X0279857Y0165700D01*
X0260157Y0165700D02*
X0260159Y0165789D01*
X0260165Y0165878D01*
X0260175Y0165967D01*
X0260189Y0166055D01*
X0260206Y0166142D01*
X0260228Y0166228D01*
X0260254Y0166314D01*
X0260283Y0166398D01*
X0260316Y0166481D01*
X0260352Y0166562D01*
X0260393Y0166642D01*
X0260436Y0166719D01*
X0260483Y0166795D01*
X0260534Y0166868D01*
X0260587Y0166939D01*
X0260644Y0167008D01*
X0260704Y0167074D01*
X0260767Y0167138D01*
X0260832Y0167198D01*
X0260900Y0167256D01*
X0260971Y0167310D01*
X0261044Y0167361D01*
X0261119Y0167409D01*
X0261196Y0167454D01*
X0261275Y0167495D01*
X0261356Y0167532D01*
X0261438Y0167566D01*
X0261522Y0167597D01*
X0261607Y0167623D01*
X0261693Y0167646D01*
X0261780Y0167664D01*
X0261868Y0167679D01*
X0261957Y0167690D01*
X0262046Y0167697D01*
X0262135Y0167700D01*
X0262224Y0167699D01*
X0262313Y0167694D01*
X0262401Y0167685D01*
X0262490Y0167672D01*
X0262577Y0167655D01*
X0262664Y0167635D01*
X0262750Y0167610D01*
X0262834Y0167582D01*
X0262917Y0167550D01*
X0262999Y0167514D01*
X0263079Y0167475D01*
X0263157Y0167432D01*
X0263233Y0167386D01*
X0263307Y0167336D01*
X0263379Y0167283D01*
X0263448Y0167227D01*
X0263515Y0167168D01*
X0263579Y0167106D01*
X0263640Y0167042D01*
X0263699Y0166974D01*
X0263754Y0166904D01*
X0263806Y0166832D01*
X0263855Y0166757D01*
X0263900Y0166681D01*
X0263942Y0166602D01*
X0263980Y0166522D01*
X0264015Y0166440D01*
X0264046Y0166356D01*
X0264074Y0166271D01*
X0264097Y0166185D01*
X0264117Y0166098D01*
X0264133Y0166011D01*
X0264145Y0165922D01*
X0264153Y0165834D01*
X0264157Y0165745D01*
X0264157Y0165655D01*
X0264153Y0165566D01*
X0264145Y0165478D01*
X0264133Y0165389D01*
X0264117Y0165302D01*
X0264097Y0165215D01*
X0264074Y0165129D01*
X0264046Y0165044D01*
X0264015Y0164960D01*
X0263980Y0164878D01*
X0263942Y0164798D01*
X0263900Y0164719D01*
X0263855Y0164643D01*
X0263806Y0164568D01*
X0263754Y0164496D01*
X0263699Y0164426D01*
X0263640Y0164358D01*
X0263579Y0164294D01*
X0263515Y0164232D01*
X0263448Y0164173D01*
X0263379Y0164117D01*
X0263307Y0164064D01*
X0263233Y0164014D01*
X0263157Y0163968D01*
X0263079Y0163925D01*
X0262999Y0163886D01*
X0262917Y0163850D01*
X0262834Y0163818D01*
X0262750Y0163790D01*
X0262664Y0163765D01*
X0262577Y0163745D01*
X0262490Y0163728D01*
X0262401Y0163715D01*
X0262313Y0163706D01*
X0262224Y0163701D01*
X0262135Y0163700D01*
X0262046Y0163703D01*
X0261957Y0163710D01*
X0261868Y0163721D01*
X0261780Y0163736D01*
X0261693Y0163754D01*
X0261607Y0163777D01*
X0261522Y0163803D01*
X0261438Y0163834D01*
X0261356Y0163868D01*
X0261275Y0163905D01*
X0261196Y0163946D01*
X0261119Y0163991D01*
X0261044Y0164039D01*
X0260971Y0164090D01*
X0260900Y0164144D01*
X0260832Y0164202D01*
X0260767Y0164262D01*
X0260704Y0164326D01*
X0260644Y0164392D01*
X0260587Y0164461D01*
X0260534Y0164532D01*
X0260483Y0164605D01*
X0260436Y0164681D01*
X0260393Y0164758D01*
X0260352Y0164838D01*
X0260316Y0164919D01*
X0260283Y0165002D01*
X0260254Y0165086D01*
X0260228Y0165172D01*
X0260206Y0165258D01*
X0260189Y0165345D01*
X0260175Y0165433D01*
X0260165Y0165522D01*
X0260159Y0165611D01*
X0260157Y0165700D01*
X0252358Y0170902D02*
X0252358Y0144902D01*
X0258657Y0144902D01*
X0252358Y0144902D02*
X0252358Y0135500D01*
X0291657Y0135500D01*
X0291657Y0144902D01*
X0285358Y0144902D01*
X0278358Y0144902D02*
X0265657Y0144902D01*
X0251657Y0144902D02*
X0251657Y0170902D01*
X0212358Y0170902D01*
X0212358Y0171701D01*
X0251657Y0171701D01*
X0251657Y0170902D01*
X0239857Y0165700D02*
X0239859Y0165789D01*
X0239865Y0165878D01*
X0239875Y0165967D01*
X0239889Y0166055D01*
X0239906Y0166142D01*
X0239928Y0166228D01*
X0239954Y0166314D01*
X0239983Y0166398D01*
X0240016Y0166481D01*
X0240052Y0166562D01*
X0240093Y0166642D01*
X0240136Y0166719D01*
X0240183Y0166795D01*
X0240234Y0166868D01*
X0240287Y0166939D01*
X0240344Y0167008D01*
X0240404Y0167074D01*
X0240467Y0167138D01*
X0240532Y0167198D01*
X0240600Y0167256D01*
X0240671Y0167310D01*
X0240744Y0167361D01*
X0240819Y0167409D01*
X0240896Y0167454D01*
X0240975Y0167495D01*
X0241056Y0167532D01*
X0241138Y0167566D01*
X0241222Y0167597D01*
X0241307Y0167623D01*
X0241393Y0167646D01*
X0241480Y0167664D01*
X0241568Y0167679D01*
X0241657Y0167690D01*
X0241746Y0167697D01*
X0241835Y0167700D01*
X0241924Y0167699D01*
X0242013Y0167694D01*
X0242101Y0167685D01*
X0242190Y0167672D01*
X0242277Y0167655D01*
X0242364Y0167635D01*
X0242450Y0167610D01*
X0242534Y0167582D01*
X0242617Y0167550D01*
X0242699Y0167514D01*
X0242779Y0167475D01*
X0242857Y0167432D01*
X0242933Y0167386D01*
X0243007Y0167336D01*
X0243079Y0167283D01*
X0243148Y0167227D01*
X0243215Y0167168D01*
X0243279Y0167106D01*
X0243340Y0167042D01*
X0243399Y0166974D01*
X0243454Y0166904D01*
X0243506Y0166832D01*
X0243555Y0166757D01*
X0243600Y0166681D01*
X0243642Y0166602D01*
X0243680Y0166522D01*
X0243715Y0166440D01*
X0243746Y0166356D01*
X0243774Y0166271D01*
X0243797Y0166185D01*
X0243817Y0166098D01*
X0243833Y0166011D01*
X0243845Y0165922D01*
X0243853Y0165834D01*
X0243857Y0165745D01*
X0243857Y0165655D01*
X0243853Y0165566D01*
X0243845Y0165478D01*
X0243833Y0165389D01*
X0243817Y0165302D01*
X0243797Y0165215D01*
X0243774Y0165129D01*
X0243746Y0165044D01*
X0243715Y0164960D01*
X0243680Y0164878D01*
X0243642Y0164798D01*
X0243600Y0164719D01*
X0243555Y0164643D01*
X0243506Y0164568D01*
X0243454Y0164496D01*
X0243399Y0164426D01*
X0243340Y0164358D01*
X0243279Y0164294D01*
X0243215Y0164232D01*
X0243148Y0164173D01*
X0243079Y0164117D01*
X0243007Y0164064D01*
X0242933Y0164014D01*
X0242857Y0163968D01*
X0242779Y0163925D01*
X0242699Y0163886D01*
X0242617Y0163850D01*
X0242534Y0163818D01*
X0242450Y0163790D01*
X0242364Y0163765D01*
X0242277Y0163745D01*
X0242190Y0163728D01*
X0242101Y0163715D01*
X0242013Y0163706D01*
X0241924Y0163701D01*
X0241835Y0163700D01*
X0241746Y0163703D01*
X0241657Y0163710D01*
X0241568Y0163721D01*
X0241480Y0163736D01*
X0241393Y0163754D01*
X0241307Y0163777D01*
X0241222Y0163803D01*
X0241138Y0163834D01*
X0241056Y0163868D01*
X0240975Y0163905D01*
X0240896Y0163946D01*
X0240819Y0163991D01*
X0240744Y0164039D01*
X0240671Y0164090D01*
X0240600Y0164144D01*
X0240532Y0164202D01*
X0240467Y0164262D01*
X0240404Y0164326D01*
X0240344Y0164392D01*
X0240287Y0164461D01*
X0240234Y0164532D01*
X0240183Y0164605D01*
X0240136Y0164681D01*
X0240093Y0164758D01*
X0240052Y0164838D01*
X0240016Y0164919D01*
X0239983Y0165002D01*
X0239954Y0165086D01*
X0239928Y0165172D01*
X0239906Y0165258D01*
X0239889Y0165345D01*
X0239875Y0165433D01*
X0239865Y0165522D01*
X0239859Y0165611D01*
X0239857Y0165700D01*
X0220157Y0165700D02*
X0220159Y0165789D01*
X0220165Y0165878D01*
X0220175Y0165967D01*
X0220189Y0166055D01*
X0220206Y0166142D01*
X0220228Y0166228D01*
X0220254Y0166314D01*
X0220283Y0166398D01*
X0220316Y0166481D01*
X0220352Y0166562D01*
X0220393Y0166642D01*
X0220436Y0166719D01*
X0220483Y0166795D01*
X0220534Y0166868D01*
X0220587Y0166939D01*
X0220644Y0167008D01*
X0220704Y0167074D01*
X0220767Y0167138D01*
X0220832Y0167198D01*
X0220900Y0167256D01*
X0220971Y0167310D01*
X0221044Y0167361D01*
X0221119Y0167409D01*
X0221196Y0167454D01*
X0221275Y0167495D01*
X0221356Y0167532D01*
X0221438Y0167566D01*
X0221522Y0167597D01*
X0221607Y0167623D01*
X0221693Y0167646D01*
X0221780Y0167664D01*
X0221868Y0167679D01*
X0221957Y0167690D01*
X0222046Y0167697D01*
X0222135Y0167700D01*
X0222224Y0167699D01*
X0222313Y0167694D01*
X0222401Y0167685D01*
X0222490Y0167672D01*
X0222577Y0167655D01*
X0222664Y0167635D01*
X0222750Y0167610D01*
X0222834Y0167582D01*
X0222917Y0167550D01*
X0222999Y0167514D01*
X0223079Y0167475D01*
X0223157Y0167432D01*
X0223233Y0167386D01*
X0223307Y0167336D01*
X0223379Y0167283D01*
X0223448Y0167227D01*
X0223515Y0167168D01*
X0223579Y0167106D01*
X0223640Y0167042D01*
X0223699Y0166974D01*
X0223754Y0166904D01*
X0223806Y0166832D01*
X0223855Y0166757D01*
X0223900Y0166681D01*
X0223942Y0166602D01*
X0223980Y0166522D01*
X0224015Y0166440D01*
X0224046Y0166356D01*
X0224074Y0166271D01*
X0224097Y0166185D01*
X0224117Y0166098D01*
X0224133Y0166011D01*
X0224145Y0165922D01*
X0224153Y0165834D01*
X0224157Y0165745D01*
X0224157Y0165655D01*
X0224153Y0165566D01*
X0224145Y0165478D01*
X0224133Y0165389D01*
X0224117Y0165302D01*
X0224097Y0165215D01*
X0224074Y0165129D01*
X0224046Y0165044D01*
X0224015Y0164960D01*
X0223980Y0164878D01*
X0223942Y0164798D01*
X0223900Y0164719D01*
X0223855Y0164643D01*
X0223806Y0164568D01*
X0223754Y0164496D01*
X0223699Y0164426D01*
X0223640Y0164358D01*
X0223579Y0164294D01*
X0223515Y0164232D01*
X0223448Y0164173D01*
X0223379Y0164117D01*
X0223307Y0164064D01*
X0223233Y0164014D01*
X0223157Y0163968D01*
X0223079Y0163925D01*
X0222999Y0163886D01*
X0222917Y0163850D01*
X0222834Y0163818D01*
X0222750Y0163790D01*
X0222664Y0163765D01*
X0222577Y0163745D01*
X0222490Y0163728D01*
X0222401Y0163715D01*
X0222313Y0163706D01*
X0222224Y0163701D01*
X0222135Y0163700D01*
X0222046Y0163703D01*
X0221957Y0163710D01*
X0221868Y0163721D01*
X0221780Y0163736D01*
X0221693Y0163754D01*
X0221607Y0163777D01*
X0221522Y0163803D01*
X0221438Y0163834D01*
X0221356Y0163868D01*
X0221275Y0163905D01*
X0221196Y0163946D01*
X0221119Y0163991D01*
X0221044Y0164039D01*
X0220971Y0164090D01*
X0220900Y0164144D01*
X0220832Y0164202D01*
X0220767Y0164262D01*
X0220704Y0164326D01*
X0220644Y0164392D01*
X0220587Y0164461D01*
X0220534Y0164532D01*
X0220483Y0164605D01*
X0220436Y0164681D01*
X0220393Y0164758D01*
X0220352Y0164838D01*
X0220316Y0164919D01*
X0220283Y0165002D01*
X0220254Y0165086D01*
X0220228Y0165172D01*
X0220206Y0165258D01*
X0220189Y0165345D01*
X0220175Y0165433D01*
X0220165Y0165522D01*
X0220159Y0165611D01*
X0220157Y0165700D01*
X0212358Y0170902D02*
X0212358Y0144902D01*
X0218657Y0144902D01*
X0212358Y0144902D02*
X0212358Y0135500D01*
X0251657Y0135500D01*
X0251657Y0144902D01*
X0245358Y0144902D01*
X0238358Y0144902D02*
X0225657Y0144902D01*
X0211657Y0144902D02*
X0211657Y0170902D01*
X0172358Y0170902D01*
X0172358Y0171701D01*
X0211657Y0171701D01*
X0211657Y0170902D01*
X0199857Y0165700D02*
X0199859Y0165789D01*
X0199865Y0165878D01*
X0199875Y0165967D01*
X0199889Y0166055D01*
X0199906Y0166142D01*
X0199928Y0166228D01*
X0199954Y0166314D01*
X0199983Y0166398D01*
X0200016Y0166481D01*
X0200052Y0166562D01*
X0200093Y0166642D01*
X0200136Y0166719D01*
X0200183Y0166795D01*
X0200234Y0166868D01*
X0200287Y0166939D01*
X0200344Y0167008D01*
X0200404Y0167074D01*
X0200467Y0167138D01*
X0200532Y0167198D01*
X0200600Y0167256D01*
X0200671Y0167310D01*
X0200744Y0167361D01*
X0200819Y0167409D01*
X0200896Y0167454D01*
X0200975Y0167495D01*
X0201056Y0167532D01*
X0201138Y0167566D01*
X0201222Y0167597D01*
X0201307Y0167623D01*
X0201393Y0167646D01*
X0201480Y0167664D01*
X0201568Y0167679D01*
X0201657Y0167690D01*
X0201746Y0167697D01*
X0201835Y0167700D01*
X0201924Y0167699D01*
X0202013Y0167694D01*
X0202101Y0167685D01*
X0202190Y0167672D01*
X0202277Y0167655D01*
X0202364Y0167635D01*
X0202450Y0167610D01*
X0202534Y0167582D01*
X0202617Y0167550D01*
X0202699Y0167514D01*
X0202779Y0167475D01*
X0202857Y0167432D01*
X0202933Y0167386D01*
X0203007Y0167336D01*
X0203079Y0167283D01*
X0203148Y0167227D01*
X0203215Y0167168D01*
X0203279Y0167106D01*
X0203340Y0167042D01*
X0203399Y0166974D01*
X0203454Y0166904D01*
X0203506Y0166832D01*
X0203555Y0166757D01*
X0203600Y0166681D01*
X0203642Y0166602D01*
X0203680Y0166522D01*
X0203715Y0166440D01*
X0203746Y0166356D01*
X0203774Y0166271D01*
X0203797Y0166185D01*
X0203817Y0166098D01*
X0203833Y0166011D01*
X0203845Y0165922D01*
X0203853Y0165834D01*
X0203857Y0165745D01*
X0203857Y0165655D01*
X0203853Y0165566D01*
X0203845Y0165478D01*
X0203833Y0165389D01*
X0203817Y0165302D01*
X0203797Y0165215D01*
X0203774Y0165129D01*
X0203746Y0165044D01*
X0203715Y0164960D01*
X0203680Y0164878D01*
X0203642Y0164798D01*
X0203600Y0164719D01*
X0203555Y0164643D01*
X0203506Y0164568D01*
X0203454Y0164496D01*
X0203399Y0164426D01*
X0203340Y0164358D01*
X0203279Y0164294D01*
X0203215Y0164232D01*
X0203148Y0164173D01*
X0203079Y0164117D01*
X0203007Y0164064D01*
X0202933Y0164014D01*
X0202857Y0163968D01*
X0202779Y0163925D01*
X0202699Y0163886D01*
X0202617Y0163850D01*
X0202534Y0163818D01*
X0202450Y0163790D01*
X0202364Y0163765D01*
X0202277Y0163745D01*
X0202190Y0163728D01*
X0202101Y0163715D01*
X0202013Y0163706D01*
X0201924Y0163701D01*
X0201835Y0163700D01*
X0201746Y0163703D01*
X0201657Y0163710D01*
X0201568Y0163721D01*
X0201480Y0163736D01*
X0201393Y0163754D01*
X0201307Y0163777D01*
X0201222Y0163803D01*
X0201138Y0163834D01*
X0201056Y0163868D01*
X0200975Y0163905D01*
X0200896Y0163946D01*
X0200819Y0163991D01*
X0200744Y0164039D01*
X0200671Y0164090D01*
X0200600Y0164144D01*
X0200532Y0164202D01*
X0200467Y0164262D01*
X0200404Y0164326D01*
X0200344Y0164392D01*
X0200287Y0164461D01*
X0200234Y0164532D01*
X0200183Y0164605D01*
X0200136Y0164681D01*
X0200093Y0164758D01*
X0200052Y0164838D01*
X0200016Y0164919D01*
X0199983Y0165002D01*
X0199954Y0165086D01*
X0199928Y0165172D01*
X0199906Y0165258D01*
X0199889Y0165345D01*
X0199875Y0165433D01*
X0199865Y0165522D01*
X0199859Y0165611D01*
X0199857Y0165700D01*
X0180157Y0165700D02*
X0180159Y0165789D01*
X0180165Y0165878D01*
X0180175Y0165967D01*
X0180189Y0166055D01*
X0180206Y0166142D01*
X0180228Y0166228D01*
X0180254Y0166314D01*
X0180283Y0166398D01*
X0180316Y0166481D01*
X0180352Y0166562D01*
X0180393Y0166642D01*
X0180436Y0166719D01*
X0180483Y0166795D01*
X0180534Y0166868D01*
X0180587Y0166939D01*
X0180644Y0167008D01*
X0180704Y0167074D01*
X0180767Y0167138D01*
X0180832Y0167198D01*
X0180900Y0167256D01*
X0180971Y0167310D01*
X0181044Y0167361D01*
X0181119Y0167409D01*
X0181196Y0167454D01*
X0181275Y0167495D01*
X0181356Y0167532D01*
X0181438Y0167566D01*
X0181522Y0167597D01*
X0181607Y0167623D01*
X0181693Y0167646D01*
X0181780Y0167664D01*
X0181868Y0167679D01*
X0181957Y0167690D01*
X0182046Y0167697D01*
X0182135Y0167700D01*
X0182224Y0167699D01*
X0182313Y0167694D01*
X0182401Y0167685D01*
X0182490Y0167672D01*
X0182577Y0167655D01*
X0182664Y0167635D01*
X0182750Y0167610D01*
X0182834Y0167582D01*
X0182917Y0167550D01*
X0182999Y0167514D01*
X0183079Y0167475D01*
X0183157Y0167432D01*
X0183233Y0167386D01*
X0183307Y0167336D01*
X0183379Y0167283D01*
X0183448Y0167227D01*
X0183515Y0167168D01*
X0183579Y0167106D01*
X0183640Y0167042D01*
X0183699Y0166974D01*
X0183754Y0166904D01*
X0183806Y0166832D01*
X0183855Y0166757D01*
X0183900Y0166681D01*
X0183942Y0166602D01*
X0183980Y0166522D01*
X0184015Y0166440D01*
X0184046Y0166356D01*
X0184074Y0166271D01*
X0184097Y0166185D01*
X0184117Y0166098D01*
X0184133Y0166011D01*
X0184145Y0165922D01*
X0184153Y0165834D01*
X0184157Y0165745D01*
X0184157Y0165655D01*
X0184153Y0165566D01*
X0184145Y0165478D01*
X0184133Y0165389D01*
X0184117Y0165302D01*
X0184097Y0165215D01*
X0184074Y0165129D01*
X0184046Y0165044D01*
X0184015Y0164960D01*
X0183980Y0164878D01*
X0183942Y0164798D01*
X0183900Y0164719D01*
X0183855Y0164643D01*
X0183806Y0164568D01*
X0183754Y0164496D01*
X0183699Y0164426D01*
X0183640Y0164358D01*
X0183579Y0164294D01*
X0183515Y0164232D01*
X0183448Y0164173D01*
X0183379Y0164117D01*
X0183307Y0164064D01*
X0183233Y0164014D01*
X0183157Y0163968D01*
X0183079Y0163925D01*
X0182999Y0163886D01*
X0182917Y0163850D01*
X0182834Y0163818D01*
X0182750Y0163790D01*
X0182664Y0163765D01*
X0182577Y0163745D01*
X0182490Y0163728D01*
X0182401Y0163715D01*
X0182313Y0163706D01*
X0182224Y0163701D01*
X0182135Y0163700D01*
X0182046Y0163703D01*
X0181957Y0163710D01*
X0181868Y0163721D01*
X0181780Y0163736D01*
X0181693Y0163754D01*
X0181607Y0163777D01*
X0181522Y0163803D01*
X0181438Y0163834D01*
X0181356Y0163868D01*
X0181275Y0163905D01*
X0181196Y0163946D01*
X0181119Y0163991D01*
X0181044Y0164039D01*
X0180971Y0164090D01*
X0180900Y0164144D01*
X0180832Y0164202D01*
X0180767Y0164262D01*
X0180704Y0164326D01*
X0180644Y0164392D01*
X0180587Y0164461D01*
X0180534Y0164532D01*
X0180483Y0164605D01*
X0180436Y0164681D01*
X0180393Y0164758D01*
X0180352Y0164838D01*
X0180316Y0164919D01*
X0180283Y0165002D01*
X0180254Y0165086D01*
X0180228Y0165172D01*
X0180206Y0165258D01*
X0180189Y0165345D01*
X0180175Y0165433D01*
X0180165Y0165522D01*
X0180159Y0165611D01*
X0180157Y0165700D01*
X0171657Y0164902D02*
X0171657Y0190902D01*
X0132358Y0190902D01*
X0132358Y0191701D01*
X0171657Y0191701D01*
X0171657Y0190902D01*
X0159857Y0185700D02*
X0159859Y0185789D01*
X0159865Y0185878D01*
X0159875Y0185967D01*
X0159889Y0186055D01*
X0159906Y0186142D01*
X0159928Y0186228D01*
X0159954Y0186314D01*
X0159983Y0186398D01*
X0160016Y0186481D01*
X0160052Y0186562D01*
X0160093Y0186642D01*
X0160136Y0186719D01*
X0160183Y0186795D01*
X0160234Y0186868D01*
X0160287Y0186939D01*
X0160344Y0187008D01*
X0160404Y0187074D01*
X0160467Y0187138D01*
X0160532Y0187198D01*
X0160600Y0187256D01*
X0160671Y0187310D01*
X0160744Y0187361D01*
X0160819Y0187409D01*
X0160896Y0187454D01*
X0160975Y0187495D01*
X0161056Y0187532D01*
X0161138Y0187566D01*
X0161222Y0187597D01*
X0161307Y0187623D01*
X0161393Y0187646D01*
X0161480Y0187664D01*
X0161568Y0187679D01*
X0161657Y0187690D01*
X0161746Y0187697D01*
X0161835Y0187700D01*
X0161924Y0187699D01*
X0162013Y0187694D01*
X0162101Y0187685D01*
X0162190Y0187672D01*
X0162277Y0187655D01*
X0162364Y0187635D01*
X0162450Y0187610D01*
X0162534Y0187582D01*
X0162617Y0187550D01*
X0162699Y0187514D01*
X0162779Y0187475D01*
X0162857Y0187432D01*
X0162933Y0187386D01*
X0163007Y0187336D01*
X0163079Y0187283D01*
X0163148Y0187227D01*
X0163215Y0187168D01*
X0163279Y0187106D01*
X0163340Y0187042D01*
X0163399Y0186974D01*
X0163454Y0186904D01*
X0163506Y0186832D01*
X0163555Y0186757D01*
X0163600Y0186681D01*
X0163642Y0186602D01*
X0163680Y0186522D01*
X0163715Y0186440D01*
X0163746Y0186356D01*
X0163774Y0186271D01*
X0163797Y0186185D01*
X0163817Y0186098D01*
X0163833Y0186011D01*
X0163845Y0185922D01*
X0163853Y0185834D01*
X0163857Y0185745D01*
X0163857Y0185655D01*
X0163853Y0185566D01*
X0163845Y0185478D01*
X0163833Y0185389D01*
X0163817Y0185302D01*
X0163797Y0185215D01*
X0163774Y0185129D01*
X0163746Y0185044D01*
X0163715Y0184960D01*
X0163680Y0184878D01*
X0163642Y0184798D01*
X0163600Y0184719D01*
X0163555Y0184643D01*
X0163506Y0184568D01*
X0163454Y0184496D01*
X0163399Y0184426D01*
X0163340Y0184358D01*
X0163279Y0184294D01*
X0163215Y0184232D01*
X0163148Y0184173D01*
X0163079Y0184117D01*
X0163007Y0184064D01*
X0162933Y0184014D01*
X0162857Y0183968D01*
X0162779Y0183925D01*
X0162699Y0183886D01*
X0162617Y0183850D01*
X0162534Y0183818D01*
X0162450Y0183790D01*
X0162364Y0183765D01*
X0162277Y0183745D01*
X0162190Y0183728D01*
X0162101Y0183715D01*
X0162013Y0183706D01*
X0161924Y0183701D01*
X0161835Y0183700D01*
X0161746Y0183703D01*
X0161657Y0183710D01*
X0161568Y0183721D01*
X0161480Y0183736D01*
X0161393Y0183754D01*
X0161307Y0183777D01*
X0161222Y0183803D01*
X0161138Y0183834D01*
X0161056Y0183868D01*
X0160975Y0183905D01*
X0160896Y0183946D01*
X0160819Y0183991D01*
X0160744Y0184039D01*
X0160671Y0184090D01*
X0160600Y0184144D01*
X0160532Y0184202D01*
X0160467Y0184262D01*
X0160404Y0184326D01*
X0160344Y0184392D01*
X0160287Y0184461D01*
X0160234Y0184532D01*
X0160183Y0184605D01*
X0160136Y0184681D01*
X0160093Y0184758D01*
X0160052Y0184838D01*
X0160016Y0184919D01*
X0159983Y0185002D01*
X0159954Y0185086D01*
X0159928Y0185172D01*
X0159906Y0185258D01*
X0159889Y0185345D01*
X0159875Y0185433D01*
X0159865Y0185522D01*
X0159859Y0185611D01*
X0159857Y0185700D01*
X0140157Y0185700D02*
X0140159Y0185789D01*
X0140165Y0185878D01*
X0140175Y0185967D01*
X0140189Y0186055D01*
X0140206Y0186142D01*
X0140228Y0186228D01*
X0140254Y0186314D01*
X0140283Y0186398D01*
X0140316Y0186481D01*
X0140352Y0186562D01*
X0140393Y0186642D01*
X0140436Y0186719D01*
X0140483Y0186795D01*
X0140534Y0186868D01*
X0140587Y0186939D01*
X0140644Y0187008D01*
X0140704Y0187074D01*
X0140767Y0187138D01*
X0140832Y0187198D01*
X0140900Y0187256D01*
X0140971Y0187310D01*
X0141044Y0187361D01*
X0141119Y0187409D01*
X0141196Y0187454D01*
X0141275Y0187495D01*
X0141356Y0187532D01*
X0141438Y0187566D01*
X0141522Y0187597D01*
X0141607Y0187623D01*
X0141693Y0187646D01*
X0141780Y0187664D01*
X0141868Y0187679D01*
X0141957Y0187690D01*
X0142046Y0187697D01*
X0142135Y0187700D01*
X0142224Y0187699D01*
X0142313Y0187694D01*
X0142401Y0187685D01*
X0142490Y0187672D01*
X0142577Y0187655D01*
X0142664Y0187635D01*
X0142750Y0187610D01*
X0142834Y0187582D01*
X0142917Y0187550D01*
X0142999Y0187514D01*
X0143079Y0187475D01*
X0143157Y0187432D01*
X0143233Y0187386D01*
X0143307Y0187336D01*
X0143379Y0187283D01*
X0143448Y0187227D01*
X0143515Y0187168D01*
X0143579Y0187106D01*
X0143640Y0187042D01*
X0143699Y0186974D01*
X0143754Y0186904D01*
X0143806Y0186832D01*
X0143855Y0186757D01*
X0143900Y0186681D01*
X0143942Y0186602D01*
X0143980Y0186522D01*
X0144015Y0186440D01*
X0144046Y0186356D01*
X0144074Y0186271D01*
X0144097Y0186185D01*
X0144117Y0186098D01*
X0144133Y0186011D01*
X0144145Y0185922D01*
X0144153Y0185834D01*
X0144157Y0185745D01*
X0144157Y0185655D01*
X0144153Y0185566D01*
X0144145Y0185478D01*
X0144133Y0185389D01*
X0144117Y0185302D01*
X0144097Y0185215D01*
X0144074Y0185129D01*
X0144046Y0185044D01*
X0144015Y0184960D01*
X0143980Y0184878D01*
X0143942Y0184798D01*
X0143900Y0184719D01*
X0143855Y0184643D01*
X0143806Y0184568D01*
X0143754Y0184496D01*
X0143699Y0184426D01*
X0143640Y0184358D01*
X0143579Y0184294D01*
X0143515Y0184232D01*
X0143448Y0184173D01*
X0143379Y0184117D01*
X0143307Y0184064D01*
X0143233Y0184014D01*
X0143157Y0183968D01*
X0143079Y0183925D01*
X0142999Y0183886D01*
X0142917Y0183850D01*
X0142834Y0183818D01*
X0142750Y0183790D01*
X0142664Y0183765D01*
X0142577Y0183745D01*
X0142490Y0183728D01*
X0142401Y0183715D01*
X0142313Y0183706D01*
X0142224Y0183701D01*
X0142135Y0183700D01*
X0142046Y0183703D01*
X0141957Y0183710D01*
X0141868Y0183721D01*
X0141780Y0183736D01*
X0141693Y0183754D01*
X0141607Y0183777D01*
X0141522Y0183803D01*
X0141438Y0183834D01*
X0141356Y0183868D01*
X0141275Y0183905D01*
X0141196Y0183946D01*
X0141119Y0183991D01*
X0141044Y0184039D01*
X0140971Y0184090D01*
X0140900Y0184144D01*
X0140832Y0184202D01*
X0140767Y0184262D01*
X0140704Y0184326D01*
X0140644Y0184392D01*
X0140587Y0184461D01*
X0140534Y0184532D01*
X0140483Y0184605D01*
X0140436Y0184681D01*
X0140393Y0184758D01*
X0140352Y0184838D01*
X0140316Y0184919D01*
X0140283Y0185002D01*
X0140254Y0185086D01*
X0140228Y0185172D01*
X0140206Y0185258D01*
X0140189Y0185345D01*
X0140175Y0185433D01*
X0140165Y0185522D01*
X0140159Y0185611D01*
X0140157Y0185700D01*
X0132358Y0190902D02*
X0132358Y0164902D01*
X0138657Y0164902D01*
X0132358Y0164902D02*
X0132358Y0155500D01*
X0171657Y0155500D01*
X0171657Y0164902D01*
X0165358Y0164902D01*
X0158358Y0164902D02*
X0145657Y0164902D01*
X0172358Y0170902D02*
X0172358Y0144902D01*
X0178657Y0144902D01*
X0185657Y0144902D02*
X0198358Y0144902D01*
X0205358Y0144902D02*
X0211657Y0144902D01*
X0211657Y0135500D01*
X0172358Y0135500D01*
X0172358Y0144902D01*
X0042500Y0147000D02*
X0042513Y0148092D01*
X0042554Y0149184D01*
X0042621Y0150274D01*
X0042714Y0151362D01*
X0042835Y0152447D01*
X0042982Y0153530D01*
X0043155Y0154608D01*
X0043355Y0155682D01*
X0043581Y0156750D01*
X0043834Y0157813D01*
X0044112Y0158869D01*
X0044416Y0159918D01*
X0044746Y0160959D01*
X0045101Y0161992D01*
X0045482Y0163015D01*
X0045887Y0164029D01*
X0046318Y0165033D01*
X0046772Y0166026D01*
X0047252Y0167008D01*
X0047755Y0167977D01*
X0048281Y0168934D01*
X0048831Y0169878D01*
X0049404Y0170807D01*
X0050000Y0171723D01*
X0050617Y0172623D01*
X0051257Y0173509D01*
X0051919Y0174378D01*
X0052601Y0175231D01*
X0053304Y0176066D01*
X0054028Y0176884D01*
X0054771Y0177685D01*
X0055534Y0178466D01*
X0056315Y0179229D01*
X0057116Y0179972D01*
X0057934Y0180696D01*
X0058769Y0181399D01*
X0059622Y0182081D01*
X0060491Y0182743D01*
X0061377Y0183383D01*
X0062277Y0184000D01*
X0063193Y0184596D01*
X0064122Y0185169D01*
X0065066Y0185719D01*
X0066023Y0186245D01*
X0066992Y0186748D01*
X0067974Y0187228D01*
X0068967Y0187682D01*
X0069971Y0188113D01*
X0070985Y0188518D01*
X0072008Y0188899D01*
X0073041Y0189254D01*
X0074082Y0189584D01*
X0075131Y0189888D01*
X0076187Y0190166D01*
X0077250Y0190419D01*
X0078318Y0190645D01*
X0079392Y0190845D01*
X0080470Y0191018D01*
X0081553Y0191165D01*
X0082638Y0191286D01*
X0083726Y0191379D01*
X0084816Y0191446D01*
X0085908Y0191487D01*
X0087000Y0191500D01*
X0088092Y0191487D01*
X0089184Y0191446D01*
X0090274Y0191379D01*
X0091362Y0191286D01*
X0092447Y0191165D01*
X0093530Y0191018D01*
X0094608Y0190845D01*
X0095682Y0190645D01*
X0096750Y0190419D01*
X0097813Y0190166D01*
X0098869Y0189888D01*
X0099918Y0189584D01*
X0100959Y0189254D01*
X0101992Y0188899D01*
X0103015Y0188518D01*
X0104029Y0188113D01*
X0105033Y0187682D01*
X0106026Y0187228D01*
X0107008Y0186748D01*
X0107977Y0186245D01*
X0108934Y0185719D01*
X0109878Y0185169D01*
X0110807Y0184596D01*
X0111723Y0184000D01*
X0112623Y0183383D01*
X0113509Y0182743D01*
X0114378Y0182081D01*
X0115231Y0181399D01*
X0116066Y0180696D01*
X0116884Y0179972D01*
X0117685Y0179229D01*
X0118466Y0178466D01*
X0119229Y0177685D01*
X0119972Y0176884D01*
X0120696Y0176066D01*
X0121399Y0175231D01*
X0122081Y0174378D01*
X0122743Y0173509D01*
X0123383Y0172623D01*
X0124000Y0171723D01*
X0124596Y0170807D01*
X0125169Y0169878D01*
X0125719Y0168934D01*
X0126245Y0167977D01*
X0126748Y0167008D01*
X0127228Y0166026D01*
X0127682Y0165033D01*
X0128113Y0164029D01*
X0128518Y0163015D01*
X0128899Y0161992D01*
X0129254Y0160959D01*
X0129584Y0159918D01*
X0129888Y0158869D01*
X0130166Y0157813D01*
X0130419Y0156750D01*
X0130645Y0155682D01*
X0130845Y0154608D01*
X0131018Y0153530D01*
X0131165Y0152447D01*
X0131286Y0151362D01*
X0131379Y0150274D01*
X0131446Y0149184D01*
X0131487Y0148092D01*
X0131500Y0147000D01*
X0131487Y0145908D01*
X0131446Y0144816D01*
X0131379Y0143726D01*
X0131286Y0142638D01*
X0131165Y0141553D01*
X0131018Y0140470D01*
X0130845Y0139392D01*
X0130645Y0138318D01*
X0130419Y0137250D01*
X0130166Y0136187D01*
X0129888Y0135131D01*
X0129584Y0134082D01*
X0129254Y0133041D01*
X0128899Y0132008D01*
X0128518Y0130985D01*
X0128113Y0129971D01*
X0127682Y0128967D01*
X0127228Y0127974D01*
X0126748Y0126992D01*
X0126245Y0126023D01*
X0125719Y0125066D01*
X0125169Y0124122D01*
X0124596Y0123193D01*
X0124000Y0122277D01*
X0123383Y0121377D01*
X0122743Y0120491D01*
X0122081Y0119622D01*
X0121399Y0118769D01*
X0120696Y0117934D01*
X0119972Y0117116D01*
X0119229Y0116315D01*
X0118466Y0115534D01*
X0117685Y0114771D01*
X0116884Y0114028D01*
X0116066Y0113304D01*
X0115231Y0112601D01*
X0114378Y0111919D01*
X0113509Y0111257D01*
X0112623Y0110617D01*
X0111723Y0110000D01*
X0110807Y0109404D01*
X0109878Y0108831D01*
X0108934Y0108281D01*
X0107977Y0107755D01*
X0107008Y0107252D01*
X0106026Y0106772D01*
X0105033Y0106318D01*
X0104029Y0105887D01*
X0103015Y0105482D01*
X0101992Y0105101D01*
X0100959Y0104746D01*
X0099918Y0104416D01*
X0098869Y0104112D01*
X0097813Y0103834D01*
X0096750Y0103581D01*
X0095682Y0103355D01*
X0094608Y0103155D01*
X0093530Y0102982D01*
X0092447Y0102835D01*
X0091362Y0102714D01*
X0090274Y0102621D01*
X0089184Y0102554D01*
X0088092Y0102513D01*
X0087000Y0102500D01*
X0085908Y0102513D01*
X0084816Y0102554D01*
X0083726Y0102621D01*
X0082638Y0102714D01*
X0081553Y0102835D01*
X0080470Y0102982D01*
X0079392Y0103155D01*
X0078318Y0103355D01*
X0077250Y0103581D01*
X0076187Y0103834D01*
X0075131Y0104112D01*
X0074082Y0104416D01*
X0073041Y0104746D01*
X0072008Y0105101D01*
X0070985Y0105482D01*
X0069971Y0105887D01*
X0068967Y0106318D01*
X0067974Y0106772D01*
X0066992Y0107252D01*
X0066023Y0107755D01*
X0065066Y0108281D01*
X0064122Y0108831D01*
X0063193Y0109404D01*
X0062277Y0110000D01*
X0061377Y0110617D01*
X0060491Y0111257D01*
X0059622Y0111919D01*
X0058769Y0112601D01*
X0057934Y0113304D01*
X0057116Y0114028D01*
X0056315Y0114771D01*
X0055534Y0115534D01*
X0054771Y0116315D01*
X0054028Y0117116D01*
X0053304Y0117934D01*
X0052601Y0118769D01*
X0051919Y0119622D01*
X0051257Y0120491D01*
X0050617Y0121377D01*
X0050000Y0122277D01*
X0049404Y0123193D01*
X0048831Y0124122D01*
X0048281Y0125066D01*
X0047755Y0126023D01*
X0047252Y0126992D01*
X0046772Y0127974D01*
X0046318Y0128967D01*
X0045887Y0129971D01*
X0045482Y0130985D01*
X0045101Y0132008D01*
X0044746Y0133041D01*
X0044416Y0134082D01*
X0044112Y0135131D01*
X0043834Y0136187D01*
X0043581Y0137250D01*
X0043355Y0138318D01*
X0043155Y0139392D01*
X0042982Y0140470D01*
X0042835Y0141553D01*
X0042714Y0142638D01*
X0042621Y0143726D01*
X0042554Y0144816D01*
X0042513Y0145908D01*
X0042500Y0147000D01*
X0029098Y0140657D02*
X0029098Y0153358D01*
X0029098Y0160358D02*
X0029098Y0166657D01*
X0003098Y0166657D01*
X0003098Y0127358D01*
X0002299Y0127358D01*
X0002299Y0166657D01*
X0003098Y0166657D01*
X0006300Y0156857D02*
X0006302Y0156946D01*
X0006308Y0157035D01*
X0006318Y0157124D01*
X0006332Y0157212D01*
X0006349Y0157299D01*
X0006371Y0157385D01*
X0006397Y0157471D01*
X0006426Y0157555D01*
X0006459Y0157638D01*
X0006495Y0157719D01*
X0006536Y0157799D01*
X0006579Y0157876D01*
X0006626Y0157952D01*
X0006677Y0158025D01*
X0006730Y0158096D01*
X0006787Y0158165D01*
X0006847Y0158231D01*
X0006910Y0158295D01*
X0006975Y0158355D01*
X0007043Y0158413D01*
X0007114Y0158467D01*
X0007187Y0158518D01*
X0007262Y0158566D01*
X0007339Y0158611D01*
X0007418Y0158652D01*
X0007499Y0158689D01*
X0007581Y0158723D01*
X0007665Y0158754D01*
X0007750Y0158780D01*
X0007836Y0158803D01*
X0007923Y0158821D01*
X0008011Y0158836D01*
X0008100Y0158847D01*
X0008189Y0158854D01*
X0008278Y0158857D01*
X0008367Y0158856D01*
X0008456Y0158851D01*
X0008544Y0158842D01*
X0008633Y0158829D01*
X0008720Y0158812D01*
X0008807Y0158792D01*
X0008893Y0158767D01*
X0008977Y0158739D01*
X0009060Y0158707D01*
X0009142Y0158671D01*
X0009222Y0158632D01*
X0009300Y0158589D01*
X0009376Y0158543D01*
X0009450Y0158493D01*
X0009522Y0158440D01*
X0009591Y0158384D01*
X0009658Y0158325D01*
X0009722Y0158263D01*
X0009783Y0158199D01*
X0009842Y0158131D01*
X0009897Y0158061D01*
X0009949Y0157989D01*
X0009998Y0157914D01*
X0010043Y0157838D01*
X0010085Y0157759D01*
X0010123Y0157679D01*
X0010158Y0157597D01*
X0010189Y0157513D01*
X0010217Y0157428D01*
X0010240Y0157342D01*
X0010260Y0157255D01*
X0010276Y0157168D01*
X0010288Y0157079D01*
X0010296Y0156991D01*
X0010300Y0156902D01*
X0010300Y0156812D01*
X0010296Y0156723D01*
X0010288Y0156635D01*
X0010276Y0156546D01*
X0010260Y0156459D01*
X0010240Y0156372D01*
X0010217Y0156286D01*
X0010189Y0156201D01*
X0010158Y0156117D01*
X0010123Y0156035D01*
X0010085Y0155955D01*
X0010043Y0155876D01*
X0009998Y0155800D01*
X0009949Y0155725D01*
X0009897Y0155653D01*
X0009842Y0155583D01*
X0009783Y0155515D01*
X0009722Y0155451D01*
X0009658Y0155389D01*
X0009591Y0155330D01*
X0009522Y0155274D01*
X0009450Y0155221D01*
X0009376Y0155171D01*
X0009300Y0155125D01*
X0009222Y0155082D01*
X0009142Y0155043D01*
X0009060Y0155007D01*
X0008977Y0154975D01*
X0008893Y0154947D01*
X0008807Y0154922D01*
X0008720Y0154902D01*
X0008633Y0154885D01*
X0008544Y0154872D01*
X0008456Y0154863D01*
X0008367Y0154858D01*
X0008278Y0154857D01*
X0008189Y0154860D01*
X0008100Y0154867D01*
X0008011Y0154878D01*
X0007923Y0154893D01*
X0007836Y0154911D01*
X0007750Y0154934D01*
X0007665Y0154960D01*
X0007581Y0154991D01*
X0007499Y0155025D01*
X0007418Y0155062D01*
X0007339Y0155103D01*
X0007262Y0155148D01*
X0007187Y0155196D01*
X0007114Y0155247D01*
X0007043Y0155301D01*
X0006975Y0155359D01*
X0006910Y0155419D01*
X0006847Y0155483D01*
X0006787Y0155549D01*
X0006730Y0155618D01*
X0006677Y0155689D01*
X0006626Y0155762D01*
X0006579Y0155838D01*
X0006536Y0155915D01*
X0006495Y0155995D01*
X0006459Y0156076D01*
X0006426Y0156159D01*
X0006397Y0156243D01*
X0006371Y0156329D01*
X0006349Y0156415D01*
X0006332Y0156502D01*
X0006318Y0156590D01*
X0006308Y0156679D01*
X0006302Y0156768D01*
X0006300Y0156857D01*
X0029098Y0166657D02*
X0038500Y0166657D01*
X0038500Y0127358D01*
X0029098Y0127358D01*
X0003098Y0127358D01*
X0006300Y0137157D02*
X0006302Y0137246D01*
X0006308Y0137335D01*
X0006318Y0137424D01*
X0006332Y0137512D01*
X0006349Y0137599D01*
X0006371Y0137685D01*
X0006397Y0137771D01*
X0006426Y0137855D01*
X0006459Y0137938D01*
X0006495Y0138019D01*
X0006536Y0138099D01*
X0006579Y0138176D01*
X0006626Y0138252D01*
X0006677Y0138325D01*
X0006730Y0138396D01*
X0006787Y0138465D01*
X0006847Y0138531D01*
X0006910Y0138595D01*
X0006975Y0138655D01*
X0007043Y0138713D01*
X0007114Y0138767D01*
X0007187Y0138818D01*
X0007262Y0138866D01*
X0007339Y0138911D01*
X0007418Y0138952D01*
X0007499Y0138989D01*
X0007581Y0139023D01*
X0007665Y0139054D01*
X0007750Y0139080D01*
X0007836Y0139103D01*
X0007923Y0139121D01*
X0008011Y0139136D01*
X0008100Y0139147D01*
X0008189Y0139154D01*
X0008278Y0139157D01*
X0008367Y0139156D01*
X0008456Y0139151D01*
X0008544Y0139142D01*
X0008633Y0139129D01*
X0008720Y0139112D01*
X0008807Y0139092D01*
X0008893Y0139067D01*
X0008977Y0139039D01*
X0009060Y0139007D01*
X0009142Y0138971D01*
X0009222Y0138932D01*
X0009300Y0138889D01*
X0009376Y0138843D01*
X0009450Y0138793D01*
X0009522Y0138740D01*
X0009591Y0138684D01*
X0009658Y0138625D01*
X0009722Y0138563D01*
X0009783Y0138499D01*
X0009842Y0138431D01*
X0009897Y0138361D01*
X0009949Y0138289D01*
X0009998Y0138214D01*
X0010043Y0138138D01*
X0010085Y0138059D01*
X0010123Y0137979D01*
X0010158Y0137897D01*
X0010189Y0137813D01*
X0010217Y0137728D01*
X0010240Y0137642D01*
X0010260Y0137555D01*
X0010276Y0137468D01*
X0010288Y0137379D01*
X0010296Y0137291D01*
X0010300Y0137202D01*
X0010300Y0137112D01*
X0010296Y0137023D01*
X0010288Y0136935D01*
X0010276Y0136846D01*
X0010260Y0136759D01*
X0010240Y0136672D01*
X0010217Y0136586D01*
X0010189Y0136501D01*
X0010158Y0136417D01*
X0010123Y0136335D01*
X0010085Y0136255D01*
X0010043Y0136176D01*
X0009998Y0136100D01*
X0009949Y0136025D01*
X0009897Y0135953D01*
X0009842Y0135883D01*
X0009783Y0135815D01*
X0009722Y0135751D01*
X0009658Y0135689D01*
X0009591Y0135630D01*
X0009522Y0135574D01*
X0009450Y0135521D01*
X0009376Y0135471D01*
X0009300Y0135425D01*
X0009222Y0135382D01*
X0009142Y0135343D01*
X0009060Y0135307D01*
X0008977Y0135275D01*
X0008893Y0135247D01*
X0008807Y0135222D01*
X0008720Y0135202D01*
X0008633Y0135185D01*
X0008544Y0135172D01*
X0008456Y0135163D01*
X0008367Y0135158D01*
X0008278Y0135157D01*
X0008189Y0135160D01*
X0008100Y0135167D01*
X0008011Y0135178D01*
X0007923Y0135193D01*
X0007836Y0135211D01*
X0007750Y0135234D01*
X0007665Y0135260D01*
X0007581Y0135291D01*
X0007499Y0135325D01*
X0007418Y0135362D01*
X0007339Y0135403D01*
X0007262Y0135448D01*
X0007187Y0135496D01*
X0007114Y0135547D01*
X0007043Y0135601D01*
X0006975Y0135659D01*
X0006910Y0135719D01*
X0006847Y0135783D01*
X0006787Y0135849D01*
X0006730Y0135918D01*
X0006677Y0135989D01*
X0006626Y0136062D01*
X0006579Y0136138D01*
X0006536Y0136215D01*
X0006495Y0136295D01*
X0006459Y0136376D01*
X0006426Y0136459D01*
X0006397Y0136543D01*
X0006371Y0136629D01*
X0006349Y0136715D01*
X0006332Y0136802D01*
X0006318Y0136890D01*
X0006308Y0136979D01*
X0006302Y0137068D01*
X0006300Y0137157D01*
X0029098Y0133657D02*
X0029098Y0127358D01*
D11*
X0014250Y0129407D02*
X0014250Y0132410D01*
X0014250Y0130909D02*
X0009746Y0130909D01*
X0011247Y0129407D01*
X0010497Y0148907D02*
X0009746Y0149658D01*
X0009746Y0151159D01*
X0010497Y0151910D01*
X0011247Y0151910D01*
X0014250Y0148907D01*
X0014250Y0151910D01*
X0134407Y0179750D02*
X0137410Y0179750D01*
X0135909Y0179750D02*
X0135909Y0184254D01*
X0134407Y0182753D01*
X0153907Y0183503D02*
X0154658Y0184254D01*
X0156159Y0184254D01*
X0156910Y0183503D01*
X0156910Y0182753D01*
X0153907Y0179750D01*
X0156910Y0179750D01*
X0174407Y0162753D02*
X0175909Y0164254D01*
X0175909Y0159750D01*
X0177410Y0159750D02*
X0174407Y0159750D01*
X0193907Y0159750D02*
X0196910Y0162753D01*
X0196910Y0163503D01*
X0196159Y0164254D01*
X0194658Y0164254D01*
X0193907Y0163503D01*
X0193907Y0159750D02*
X0196910Y0159750D01*
X0214407Y0159750D02*
X0217410Y0159750D01*
X0215909Y0159750D02*
X0215909Y0164254D01*
X0214407Y0162753D01*
X0233907Y0163503D02*
X0234658Y0164254D01*
X0236159Y0164254D01*
X0236910Y0163503D01*
X0236910Y0162753D01*
X0233907Y0159750D01*
X0236910Y0159750D01*
X0254407Y0159750D02*
X0257410Y0159750D01*
X0255909Y0159750D02*
X0255909Y0164254D01*
X0254407Y0162753D01*
X0273907Y0163503D02*
X0274658Y0164254D01*
X0276159Y0164254D01*
X0276910Y0163503D01*
X0276910Y0162753D01*
X0273907Y0159750D01*
X0276910Y0159750D01*
X0294407Y0159750D02*
X0297410Y0159750D01*
X0295909Y0159750D02*
X0295909Y0164254D01*
X0294407Y0162753D01*
X0313907Y0163503D02*
X0314658Y0164254D01*
X0316159Y0164254D01*
X0316910Y0163503D01*
X0316910Y0162753D01*
X0313907Y0159750D01*
X0316910Y0159750D01*
X0334407Y0159750D02*
X0337410Y0159750D01*
X0335909Y0159750D02*
X0335909Y0164254D01*
X0334407Y0162753D01*
X0353907Y0163503D02*
X0354658Y0164254D01*
X0356159Y0164254D01*
X0356910Y0163503D01*
X0356910Y0162753D01*
X0353907Y0159750D01*
X0356910Y0159750D01*
X0348241Y0039254D02*
X0346739Y0039254D01*
X0345989Y0038503D01*
X0348241Y0039254D02*
X0348991Y0038503D01*
X0348991Y0037753D01*
X0345989Y0034750D01*
X0348991Y0034750D01*
X0365489Y0034750D02*
X0368491Y0034750D01*
X0366990Y0034750D02*
X0366990Y0039254D01*
X0365489Y0037753D01*
X0328491Y0034750D02*
X0325489Y0034750D01*
X0326990Y0034750D02*
X0326990Y0039254D01*
X0325489Y0037753D01*
X0308991Y0037753D02*
X0308991Y0038503D01*
X0308241Y0039254D01*
X0306739Y0039254D01*
X0305989Y0038503D01*
X0308991Y0037753D02*
X0305989Y0034750D01*
X0308991Y0034750D01*
X0288491Y0034750D02*
X0285489Y0034750D01*
X0286990Y0034750D02*
X0286990Y0039254D01*
X0285489Y0037753D01*
X0268991Y0037753D02*
X0265989Y0034750D01*
X0268991Y0034750D01*
X0268991Y0037753D02*
X0268991Y0038503D01*
X0268241Y0039254D01*
X0266739Y0039254D01*
X0265989Y0038503D01*
X0248491Y0034750D02*
X0245489Y0034750D01*
X0246990Y0034750D02*
X0246990Y0039254D01*
X0245489Y0037753D01*
X0228991Y0037753D02*
X0228991Y0038503D01*
X0228241Y0039254D01*
X0226739Y0039254D01*
X0225989Y0038503D01*
X0228991Y0037753D02*
X0225989Y0034750D01*
X0228991Y0034750D01*
X0208491Y0034750D02*
X0205489Y0034750D01*
X0206990Y0034750D02*
X0206990Y0039254D01*
X0205489Y0037753D01*
X0188991Y0037753D02*
X0185989Y0034750D01*
X0188991Y0034750D01*
X0188991Y0037753D02*
X0188991Y0038503D01*
X0188241Y0039254D01*
X0186739Y0039254D01*
X0185989Y0038503D01*
X0166990Y0014254D02*
X0166990Y0009750D01*
X0165489Y0009750D02*
X0168491Y0009750D01*
X0165489Y0012753D02*
X0166990Y0014254D01*
X0148991Y0013503D02*
X0148241Y0014254D01*
X0146739Y0014254D01*
X0145989Y0013503D01*
X0148991Y0013503D02*
X0148991Y0012753D01*
X0145989Y0009750D01*
X0148991Y0009750D01*
X0014250Y0029407D02*
X0014250Y0032410D01*
X0014250Y0030909D02*
X0009746Y0030909D01*
X0011247Y0029407D01*
X0010497Y0048907D02*
X0009746Y0049658D01*
X0009746Y0051159D01*
X0010497Y0051910D01*
X0011247Y0051910D01*
X0014250Y0048907D01*
X0014250Y0051910D01*
D12*
X0077000Y0045300D02*
X0077000Y0040800D01*
X0087000Y0040800D01*
X0097000Y0040800D01*
X0097000Y0045300D01*
X0077000Y0045300D01*
X0052000Y0047000D02*
X0052011Y0047859D01*
X0052042Y0048717D01*
X0052095Y0049575D01*
X0052169Y0050431D01*
X0052263Y0051284D01*
X0052379Y0052136D01*
X0052515Y0052984D01*
X0052673Y0053828D01*
X0052850Y0054669D01*
X0053049Y0055504D01*
X0053268Y0056335D01*
X0053507Y0057160D01*
X0053767Y0057979D01*
X0054046Y0058791D01*
X0054345Y0059596D01*
X0054664Y0060394D01*
X0055003Y0061183D01*
X0055360Y0061964D01*
X0055737Y0062736D01*
X0056133Y0063499D01*
X0056547Y0064251D01*
X0056979Y0064994D01*
X0057430Y0065725D01*
X0057899Y0066445D01*
X0058385Y0067153D01*
X0058888Y0067849D01*
X0059408Y0068533D01*
X0059945Y0069204D01*
X0060498Y0069861D01*
X0061067Y0070505D01*
X0061651Y0071134D01*
X0062251Y0071749D01*
X0062866Y0072349D01*
X0063495Y0072933D01*
X0064139Y0073502D01*
X0064796Y0074055D01*
X0065467Y0074592D01*
X0066151Y0075112D01*
X0066847Y0075615D01*
X0067555Y0076101D01*
X0068275Y0076570D01*
X0069006Y0077021D01*
X0069749Y0077453D01*
X0070501Y0077867D01*
X0071264Y0078263D01*
X0072036Y0078640D01*
X0072817Y0078997D01*
X0073606Y0079336D01*
X0074404Y0079655D01*
X0075209Y0079954D01*
X0076021Y0080233D01*
X0076840Y0080493D01*
X0077665Y0080732D01*
X0078496Y0080951D01*
X0079331Y0081150D01*
X0080172Y0081327D01*
X0081016Y0081485D01*
X0081864Y0081621D01*
X0082716Y0081737D01*
X0083569Y0081831D01*
X0084425Y0081905D01*
X0085283Y0081958D01*
X0086141Y0081989D01*
X0087000Y0082000D01*
X0087859Y0081989D01*
X0088717Y0081958D01*
X0089575Y0081905D01*
X0090431Y0081831D01*
X0091284Y0081737D01*
X0092136Y0081621D01*
X0092984Y0081485D01*
X0093828Y0081327D01*
X0094669Y0081150D01*
X0095504Y0080951D01*
X0096335Y0080732D01*
X0097160Y0080493D01*
X0097979Y0080233D01*
X0098791Y0079954D01*
X0099596Y0079655D01*
X0100394Y0079336D01*
X0101183Y0078997D01*
X0101964Y0078640D01*
X0102736Y0078263D01*
X0103499Y0077867D01*
X0104251Y0077453D01*
X0104994Y0077021D01*
X0105725Y0076570D01*
X0106445Y0076101D01*
X0107153Y0075615D01*
X0107849Y0075112D01*
X0108533Y0074592D01*
X0109204Y0074055D01*
X0109861Y0073502D01*
X0110505Y0072933D01*
X0111134Y0072349D01*
X0111749Y0071749D01*
X0112349Y0071134D01*
X0112933Y0070505D01*
X0113502Y0069861D01*
X0114055Y0069204D01*
X0114592Y0068533D01*
X0115112Y0067849D01*
X0115615Y0067153D01*
X0116101Y0066445D01*
X0116570Y0065725D01*
X0117021Y0064994D01*
X0117453Y0064251D01*
X0117867Y0063499D01*
X0118263Y0062736D01*
X0118640Y0061964D01*
X0118997Y0061183D01*
X0119336Y0060394D01*
X0119655Y0059596D01*
X0119954Y0058791D01*
X0120233Y0057979D01*
X0120493Y0057160D01*
X0120732Y0056335D01*
X0120951Y0055504D01*
X0121150Y0054669D01*
X0121327Y0053828D01*
X0121485Y0052984D01*
X0121621Y0052136D01*
X0121737Y0051284D01*
X0121831Y0050431D01*
X0121905Y0049575D01*
X0121958Y0048717D01*
X0121989Y0047859D01*
X0122000Y0047000D01*
X0121989Y0046141D01*
X0121958Y0045283D01*
X0121905Y0044425D01*
X0121831Y0043569D01*
X0121737Y0042716D01*
X0121621Y0041864D01*
X0121485Y0041016D01*
X0121327Y0040172D01*
X0121150Y0039331D01*
X0120951Y0038496D01*
X0120732Y0037665D01*
X0120493Y0036840D01*
X0120233Y0036021D01*
X0119954Y0035209D01*
X0119655Y0034404D01*
X0119336Y0033606D01*
X0118997Y0032817D01*
X0118640Y0032036D01*
X0118263Y0031264D01*
X0117867Y0030501D01*
X0117453Y0029749D01*
X0117021Y0029006D01*
X0116570Y0028275D01*
X0116101Y0027555D01*
X0115615Y0026847D01*
X0115112Y0026151D01*
X0114592Y0025467D01*
X0114055Y0024796D01*
X0113502Y0024139D01*
X0112933Y0023495D01*
X0112349Y0022866D01*
X0111749Y0022251D01*
X0111134Y0021651D01*
X0110505Y0021067D01*
X0109861Y0020498D01*
X0109204Y0019945D01*
X0108533Y0019408D01*
X0107849Y0018888D01*
X0107153Y0018385D01*
X0106445Y0017899D01*
X0105725Y0017430D01*
X0104994Y0016979D01*
X0104251Y0016547D01*
X0103499Y0016133D01*
X0102736Y0015737D01*
X0101964Y0015360D01*
X0101183Y0015003D01*
X0100394Y0014664D01*
X0099596Y0014345D01*
X0098791Y0014046D01*
X0097979Y0013767D01*
X0097160Y0013507D01*
X0096335Y0013268D01*
X0095504Y0013049D01*
X0094669Y0012850D01*
X0093828Y0012673D01*
X0092984Y0012515D01*
X0092136Y0012379D01*
X0091284Y0012263D01*
X0090431Y0012169D01*
X0089575Y0012095D01*
X0088717Y0012042D01*
X0087859Y0012011D01*
X0087000Y0012000D01*
X0086141Y0012011D01*
X0085283Y0012042D01*
X0084425Y0012095D01*
X0083569Y0012169D01*
X0082716Y0012263D01*
X0081864Y0012379D01*
X0081016Y0012515D01*
X0080172Y0012673D01*
X0079331Y0012850D01*
X0078496Y0013049D01*
X0077665Y0013268D01*
X0076840Y0013507D01*
X0076021Y0013767D01*
X0075209Y0014046D01*
X0074404Y0014345D01*
X0073606Y0014664D01*
X0072817Y0015003D01*
X0072036Y0015360D01*
X0071264Y0015737D01*
X0070501Y0016133D01*
X0069749Y0016547D01*
X0069006Y0016979D01*
X0068275Y0017430D01*
X0067555Y0017899D01*
X0066847Y0018385D01*
X0066151Y0018888D01*
X0065467Y0019408D01*
X0064796Y0019945D01*
X0064139Y0020498D01*
X0063495Y0021067D01*
X0062866Y0021651D01*
X0062251Y0022251D01*
X0061651Y0022866D01*
X0061067Y0023495D01*
X0060498Y0024139D01*
X0059945Y0024796D01*
X0059408Y0025467D01*
X0058888Y0026151D01*
X0058385Y0026847D01*
X0057899Y0027555D01*
X0057430Y0028275D01*
X0056979Y0029006D01*
X0056547Y0029749D01*
X0056133Y0030501D01*
X0055737Y0031264D01*
X0055360Y0032036D01*
X0055003Y0032817D01*
X0054664Y0033606D01*
X0054345Y0034404D01*
X0054046Y0035209D01*
X0053767Y0036021D01*
X0053507Y0036840D01*
X0053268Y0037665D01*
X0053049Y0038496D01*
X0052850Y0039331D01*
X0052673Y0040172D01*
X0052515Y0041016D01*
X0052379Y0041864D01*
X0052263Y0042716D01*
X0052169Y0043569D01*
X0052095Y0044425D01*
X0052042Y0045283D01*
X0052011Y0046141D01*
X0052000Y0047000D01*
X0077000Y0036000D02*
X0082000Y0036000D01*
X0079500Y0038500D02*
X0079500Y0033500D01*
X0087000Y0037000D02*
X0087000Y0040800D01*
X0087000Y0049500D02*
X0087000Y0057000D01*
X0137000Y0059500D02*
X0137000Y0047000D01*
X0140500Y0047000D01*
X0140500Y0022500D01*
X0141800Y0021100D01*
X0142000Y0015500D02*
X0143000Y0013500D01*
X0146800Y0013500D01*
X0147200Y0013500D01*
X0146800Y0013500D02*
X0151000Y0013500D01*
X0152000Y0015500D01*
X0152000Y0047000D01*
X0157000Y0047000D01*
X0157000Y0059500D01*
X0154500Y0059500D01*
X0154500Y0057000D01*
X0149500Y0057000D01*
X0149500Y0059500D01*
X0144500Y0059500D01*
X0144500Y0057000D01*
X0139500Y0057000D01*
X0139500Y0059500D01*
X0137000Y0059500D01*
X0140500Y0047000D02*
X0152000Y0047000D01*
X0153500Y0047000D02*
X0153500Y0022500D01*
X0152200Y0021100D01*
X0142000Y0015500D02*
X0142000Y0047000D01*
X0139500Y0134500D02*
X0139500Y0137000D01*
X0144500Y0137000D01*
X0144500Y0134500D01*
X0149500Y0134500D01*
X0149500Y0137000D01*
X0154500Y0137000D01*
X0154500Y0134500D01*
X0157000Y0134500D01*
X0157000Y0147000D01*
X0153500Y0147000D01*
X0153500Y0171500D01*
X0152200Y0172900D01*
X0152000Y0178500D02*
X0151000Y0180500D01*
X0147200Y0180500D01*
X0146800Y0180500D01*
X0147200Y0180500D02*
X0143000Y0180500D01*
X0142000Y0178500D01*
X0142000Y0147000D01*
X0137000Y0147000D01*
X0137000Y0134500D01*
X0139500Y0134500D01*
X0140500Y0147000D02*
X0140500Y0171500D01*
X0141800Y0172900D01*
X0152000Y0178500D02*
X0152000Y0147000D01*
X0153500Y0147000D02*
X0142000Y0147000D01*
X0097000Y0148700D02*
X0077000Y0148700D01*
X0077000Y0153200D01*
X0087000Y0153200D01*
X0097000Y0153200D01*
X0097000Y0148700D01*
X0052000Y0147000D02*
X0052011Y0147859D01*
X0052042Y0148717D01*
X0052095Y0149575D01*
X0052169Y0150431D01*
X0052263Y0151284D01*
X0052379Y0152136D01*
X0052515Y0152984D01*
X0052673Y0153828D01*
X0052850Y0154669D01*
X0053049Y0155504D01*
X0053268Y0156335D01*
X0053507Y0157160D01*
X0053767Y0157979D01*
X0054046Y0158791D01*
X0054345Y0159596D01*
X0054664Y0160394D01*
X0055003Y0161183D01*
X0055360Y0161964D01*
X0055737Y0162736D01*
X0056133Y0163499D01*
X0056547Y0164251D01*
X0056979Y0164994D01*
X0057430Y0165725D01*
X0057899Y0166445D01*
X0058385Y0167153D01*
X0058888Y0167849D01*
X0059408Y0168533D01*
X0059945Y0169204D01*
X0060498Y0169861D01*
X0061067Y0170505D01*
X0061651Y0171134D01*
X0062251Y0171749D01*
X0062866Y0172349D01*
X0063495Y0172933D01*
X0064139Y0173502D01*
X0064796Y0174055D01*
X0065467Y0174592D01*
X0066151Y0175112D01*
X0066847Y0175615D01*
X0067555Y0176101D01*
X0068275Y0176570D01*
X0069006Y0177021D01*
X0069749Y0177453D01*
X0070501Y0177867D01*
X0071264Y0178263D01*
X0072036Y0178640D01*
X0072817Y0178997D01*
X0073606Y0179336D01*
X0074404Y0179655D01*
X0075209Y0179954D01*
X0076021Y0180233D01*
X0076840Y0180493D01*
X0077665Y0180732D01*
X0078496Y0180951D01*
X0079331Y0181150D01*
X0080172Y0181327D01*
X0081016Y0181485D01*
X0081864Y0181621D01*
X0082716Y0181737D01*
X0083569Y0181831D01*
X0084425Y0181905D01*
X0085283Y0181958D01*
X0086141Y0181989D01*
X0087000Y0182000D01*
X0087859Y0181989D01*
X0088717Y0181958D01*
X0089575Y0181905D01*
X0090431Y0181831D01*
X0091284Y0181737D01*
X0092136Y0181621D01*
X0092984Y0181485D01*
X0093828Y0181327D01*
X0094669Y0181150D01*
X0095504Y0180951D01*
X0096335Y0180732D01*
X0097160Y0180493D01*
X0097979Y0180233D01*
X0098791Y0179954D01*
X0099596Y0179655D01*
X0100394Y0179336D01*
X0101183Y0178997D01*
X0101964Y0178640D01*
X0102736Y0178263D01*
X0103499Y0177867D01*
X0104251Y0177453D01*
X0104994Y0177021D01*
X0105725Y0176570D01*
X0106445Y0176101D01*
X0107153Y0175615D01*
X0107849Y0175112D01*
X0108533Y0174592D01*
X0109204Y0174055D01*
X0109861Y0173502D01*
X0110505Y0172933D01*
X0111134Y0172349D01*
X0111749Y0171749D01*
X0112349Y0171134D01*
X0112933Y0170505D01*
X0113502Y0169861D01*
X0114055Y0169204D01*
X0114592Y0168533D01*
X0115112Y0167849D01*
X0115615Y0167153D01*
X0116101Y0166445D01*
X0116570Y0165725D01*
X0117021Y0164994D01*
X0117453Y0164251D01*
X0117867Y0163499D01*
X0118263Y0162736D01*
X0118640Y0161964D01*
X0118997Y0161183D01*
X0119336Y0160394D01*
X0119655Y0159596D01*
X0119954Y0158791D01*
X0120233Y0157979D01*
X0120493Y0157160D01*
X0120732Y0156335D01*
X0120951Y0155504D01*
X0121150Y0154669D01*
X0121327Y0153828D01*
X0121485Y0152984D01*
X0121621Y0152136D01*
X0121737Y0151284D01*
X0121831Y0150431D01*
X0121905Y0149575D01*
X0121958Y0148717D01*
X0121989Y0147859D01*
X0122000Y0147000D01*
X0121989Y0146141D01*
X0121958Y0145283D01*
X0121905Y0144425D01*
X0121831Y0143569D01*
X0121737Y0142716D01*
X0121621Y0141864D01*
X0121485Y0141016D01*
X0121327Y0140172D01*
X0121150Y0139331D01*
X0120951Y0138496D01*
X0120732Y0137665D01*
X0120493Y0136840D01*
X0120233Y0136021D01*
X0119954Y0135209D01*
X0119655Y0134404D01*
X0119336Y0133606D01*
X0118997Y0132817D01*
X0118640Y0132036D01*
X0118263Y0131264D01*
X0117867Y0130501D01*
X0117453Y0129749D01*
X0117021Y0129006D01*
X0116570Y0128275D01*
X0116101Y0127555D01*
X0115615Y0126847D01*
X0115112Y0126151D01*
X0114592Y0125467D01*
X0114055Y0124796D01*
X0113502Y0124139D01*
X0112933Y0123495D01*
X0112349Y0122866D01*
X0111749Y0122251D01*
X0111134Y0121651D01*
X0110505Y0121067D01*
X0109861Y0120498D01*
X0109204Y0119945D01*
X0108533Y0119408D01*
X0107849Y0118888D01*
X0107153Y0118385D01*
X0106445Y0117899D01*
X0105725Y0117430D01*
X0104994Y0116979D01*
X0104251Y0116547D01*
X0103499Y0116133D01*
X0102736Y0115737D01*
X0101964Y0115360D01*
X0101183Y0115003D01*
X0100394Y0114664D01*
X0099596Y0114345D01*
X0098791Y0114046D01*
X0097979Y0113767D01*
X0097160Y0113507D01*
X0096335Y0113268D01*
X0095504Y0113049D01*
X0094669Y0112850D01*
X0093828Y0112673D01*
X0092984Y0112515D01*
X0092136Y0112379D01*
X0091284Y0112263D01*
X0090431Y0112169D01*
X0089575Y0112095D01*
X0088717Y0112042D01*
X0087859Y0112011D01*
X0087000Y0112000D01*
X0086141Y0112011D01*
X0085283Y0112042D01*
X0084425Y0112095D01*
X0083569Y0112169D01*
X0082716Y0112263D01*
X0081864Y0112379D01*
X0081016Y0112515D01*
X0080172Y0112673D01*
X0079331Y0112850D01*
X0078496Y0113049D01*
X0077665Y0113268D01*
X0076840Y0113507D01*
X0076021Y0113767D01*
X0075209Y0114046D01*
X0074404Y0114345D01*
X0073606Y0114664D01*
X0072817Y0115003D01*
X0072036Y0115360D01*
X0071264Y0115737D01*
X0070501Y0116133D01*
X0069749Y0116547D01*
X0069006Y0116979D01*
X0068275Y0117430D01*
X0067555Y0117899D01*
X0066847Y0118385D01*
X0066151Y0118888D01*
X0065467Y0119408D01*
X0064796Y0119945D01*
X0064139Y0120498D01*
X0063495Y0121067D01*
X0062866Y0121651D01*
X0062251Y0122251D01*
X0061651Y0122866D01*
X0061067Y0123495D01*
X0060498Y0124139D01*
X0059945Y0124796D01*
X0059408Y0125467D01*
X0058888Y0126151D01*
X0058385Y0126847D01*
X0057899Y0127555D01*
X0057430Y0128275D01*
X0056979Y0129006D01*
X0056547Y0129749D01*
X0056133Y0130501D01*
X0055737Y0131264D01*
X0055360Y0132036D01*
X0055003Y0132817D01*
X0054664Y0133606D01*
X0054345Y0134404D01*
X0054046Y0135209D01*
X0053767Y0136021D01*
X0053507Y0136840D01*
X0053268Y0137665D01*
X0053049Y0138496D01*
X0052850Y0139331D01*
X0052673Y0140172D01*
X0052515Y0141016D01*
X0052379Y0141864D01*
X0052263Y0142716D01*
X0052169Y0143569D01*
X0052095Y0144425D01*
X0052042Y0145283D01*
X0052011Y0146141D01*
X0052000Y0147000D01*
X0087000Y0144500D02*
X0087000Y0137000D01*
X0087000Y0153200D02*
X0087000Y0157000D01*
X0092000Y0158000D02*
X0097000Y0158000D01*
X0094500Y0155500D02*
X0094500Y0160500D01*
D13*
X0087000Y0143200D03*
X0087000Y0050800D03*
D14*
X0140640Y0050569D02*
X0141358Y0049852D01*
X0140640Y0050569D02*
X0140640Y0052004D01*
X0141358Y0052721D01*
X0142075Y0052721D01*
X0144944Y0049852D01*
X0144944Y0052721D01*
X0150440Y0050787D02*
X0154744Y0050787D01*
X0154744Y0052221D02*
X0154744Y0049352D01*
X0151875Y0049352D02*
X0150440Y0050787D01*
X0149770Y0140244D02*
X0149052Y0140961D01*
X0149052Y0142396D01*
X0149770Y0143113D01*
X0150487Y0143113D01*
X0153356Y0140244D01*
X0153356Y0143113D01*
X0143556Y0143613D02*
X0143556Y0140744D01*
X0143556Y0142179D02*
X0139252Y0142179D01*
X0140687Y0140744D01*
M02*
